G04 #@! TF.GenerationSoftware,KiCad,Pcbnew,8.0.2*
G04 #@! TF.CreationDate,2025-02-18T21:59:07+11:00*
G04 #@! TF.ProjectId,Test_Project_2,54657374-5f50-4726-9f6a-6563745f322e,rev?*
G04 #@! TF.SameCoordinates,Original*
G04 #@! TF.FileFunction,Copper,L2,Bot*
G04 #@! TF.FilePolarity,Positive*
%FSLAX46Y46*%
G04 Gerber Fmt 4.6, Leading zero omitted, Abs format (unit mm)*
G04 Created by KiCad (PCBNEW 8.0.2) date 2025-02-18 21:59:07*
%MOMM*%
%LPD*%
G01*
G04 APERTURE LIST*
G04 #@! TA.AperFunction,SMDPad,CuDef*
%ADD10R,1.800000X2.200000*%
G04 #@! TD*
G04 #@! TA.AperFunction,ComponentPad*
%ADD11C,2.000000*%
G04 #@! TD*
G04 #@! TA.AperFunction,SMDPad,CuDef*
%ADD12R,0.600000X1.300000*%
G04 #@! TD*
G04 #@! TA.AperFunction,Conductor*
%ADD13C,0.127000*%
G04 #@! TD*
G04 APERTURE END LIST*
D10*
X154312776Y-61947881D03*
X134512776Y-61947881D03*
D11*
X186903007Y-125729711D03*
D12*
X151912776Y-65197881D03*
D11*
X186903007Y-122729711D03*
D12*
X150912776Y-65197881D03*
D11*
X183903007Y-125729711D03*
D12*
X149912776Y-65197881D03*
D11*
X183903007Y-122729711D03*
D12*
X148912776Y-65197881D03*
D11*
X183903007Y-128729711D03*
D12*
X147912776Y-65197881D03*
D11*
X180903007Y-122729711D03*
D12*
X146912776Y-65197881D03*
D11*
X177903007Y-122729711D03*
D12*
X145912776Y-65197881D03*
D11*
X180903007Y-125729711D03*
D12*
X144912776Y-65197881D03*
D11*
X177903007Y-125729711D03*
D12*
X143912776Y-65197881D03*
D11*
X180903007Y-128729711D03*
D12*
X142912776Y-65197881D03*
D11*
X177903007Y-128729711D03*
D12*
X141912776Y-65197881D03*
D11*
X186903007Y-128729711D03*
D12*
X140912776Y-65197881D03*
D11*
X177903007Y-131729711D03*
D12*
X139912776Y-65197881D03*
D11*
X180903007Y-131729711D03*
D12*
X138912776Y-65197881D03*
D11*
X183903007Y-131729711D03*
D12*
X137912776Y-65197881D03*
D11*
X186903007Y-131729711D03*
D12*
X136912776Y-65197881D03*
D13*
X188440025Y-125222276D02*
X186903007Y-125729711D01*
X188120758Y-119986259D02*
X188440025Y-125222276D01*
X184161815Y-115708050D02*
X188120758Y-119986259D01*
X176754768Y-115069512D02*
X184161815Y-115708050D01*
X152745716Y-97190429D02*
X176754768Y-115069512D01*
X151962776Y-65247881D02*
X152745716Y-97190429D01*
X151912776Y-65197881D02*
X151962776Y-65247881D01*
X186779827Y-120113967D02*
X186903007Y-122729711D01*
X183140155Y-116729711D02*
X186779827Y-120113967D01*
X176371646Y-116282735D02*
X183140155Y-116729711D01*
X151787908Y-98275945D02*
X176371646Y-116282735D01*
X150962776Y-65247881D02*
X151787908Y-98275945D01*
X150912776Y-65197881D02*
X150962776Y-65247881D01*
X185247333Y-124200614D02*
X183903007Y-125729711D01*
X185247333Y-120241674D02*
X185247333Y-124200614D01*
X182373908Y-117687520D02*
X185247333Y-120241674D01*
X175541545Y-117304397D02*
X182373908Y-117687520D01*
X150702392Y-98978338D02*
X175541545Y-117304397D01*
X149962776Y-65247881D02*
X150702392Y-98978338D01*
X149912776Y-65197881D02*
X149962776Y-65247881D01*
X183906402Y-120624797D02*
X183903007Y-122729711D01*
X181735370Y-118709182D02*
X183906402Y-120624797D01*
X174775299Y-118389913D02*
X181735370Y-118709182D01*
X149808438Y-99936146D02*
X174775299Y-118389913D01*
X148962776Y-65247881D02*
X149808438Y-99936146D01*
X148912776Y-65197881D02*
X148962776Y-65247881D01*
X183267864Y-128287261D02*
X183903007Y-128729711D01*
X182373908Y-127393308D02*
X183267864Y-128287261D01*
X182437763Y-121710313D02*
X182373908Y-127393308D01*
X180713708Y-119794698D02*
X182437763Y-121710313D01*
X174264469Y-119539281D02*
X180713708Y-119794698D01*
X148786776Y-100702392D02*
X174264469Y-119539281D01*
X147962776Y-65247881D02*
X148786776Y-100702392D01*
X147912776Y-65197881D02*
X147962776Y-65247881D01*
X179755901Y-120816360D02*
X180903007Y-122729711D01*
X173753637Y-120816360D02*
X179755901Y-120816360D01*
X147701260Y-101596346D02*
X173753637Y-120816360D01*
X146962776Y-65247881D02*
X147701260Y-101596346D01*
X146912776Y-65197881D02*
X146962776Y-65247881D01*
X174009052Y-122731975D02*
X177903007Y-122729711D01*
X146743453Y-102362592D02*
X174009052Y-122731975D01*
X145962776Y-65247881D02*
X146743453Y-102362592D01*
X145912776Y-65197881D02*
X145962776Y-65247881D01*
X179372777Y-124264469D02*
X180903007Y-125729711D01*
X173562076Y-124264469D02*
X179372777Y-124264469D01*
X145721791Y-103320400D02*
X173562076Y-124264469D01*
X144962776Y-65247881D02*
X145721791Y-103320400D01*
X144912776Y-65197881D02*
X144962776Y-65247881D01*
X173242807Y-125669254D02*
X177903007Y-125729711D01*
X144572421Y-103895085D02*
X173242807Y-125669254D01*
X143962776Y-65247881D02*
X144572421Y-103895085D01*
X143912776Y-65197881D02*
X143962776Y-65247881D01*
X179181215Y-127329454D02*
X180903007Y-128729711D01*
X173051244Y-127265600D02*
X179181215Y-127329454D01*
X143423051Y-104725185D02*
X173051244Y-127265600D01*
X142962776Y-65247881D02*
X143423051Y-104725185D01*
X142912776Y-65197881D02*
X142962776Y-65247881D01*
X172795829Y-128734239D02*
X177903007Y-128729711D01*
X142465243Y-105427578D02*
X172795829Y-128734239D01*
X141962776Y-65247881D02*
X142465243Y-105427578D01*
X141912776Y-65197881D02*
X141962776Y-65247881D01*
X185055770Y-130394439D02*
X186903007Y-128729711D01*
X172157291Y-130075170D02*
X185055770Y-130394439D01*
X141443582Y-106321532D02*
X172157291Y-130075170D01*
X140962776Y-65247881D02*
X141443582Y-106321532D01*
X140912776Y-65197881D02*
X140962776Y-65247881D01*
X171901874Y-131799224D02*
X177903007Y-131729711D01*
X140421920Y-107023925D02*
X171901874Y-131799224D01*
X139962776Y-65247881D02*
X140421920Y-107023925D01*
X139912776Y-65197881D02*
X139962776Y-65247881D01*
X180649854Y-134928062D02*
X180903007Y-131729711D01*
X179117362Y-135822017D02*
X180649854Y-134928062D01*
X173625928Y-135566600D02*
X179117362Y-135822017D01*
X139336404Y-107790171D02*
X173625928Y-135566600D01*
X138962776Y-65247881D02*
X139336404Y-107790171D01*
X138912776Y-65197881D02*
X138962776Y-65247881D01*
X183587131Y-135949726D02*
X183903007Y-131729711D01*
X179755901Y-137162948D02*
X183587131Y-135949726D01*
X173434368Y-136971385D02*
X179755901Y-137162948D01*
X138187035Y-108811833D02*
X173434368Y-136971385D01*
X137962776Y-65247881D02*
X138187035Y-108811833D01*
X137912776Y-65197881D02*
X137962776Y-65247881D01*
X186843681Y-135630455D02*
X186903007Y-131729711D01*
X180075170Y-138184612D02*
X186843681Y-135630455D01*
X173178953Y-138120758D02*
X180075170Y-138184612D01*
X137165372Y-110408180D02*
X173178953Y-138120758D01*
X136962776Y-65247881D02*
X137165372Y-110408180D01*
X136912776Y-65197881D02*
X136962776Y-65247881D01*
M02*
