G04*
G04 #@! TF.GenerationSoftware,Altium Limited,Altium Designer,25.8.1 (18)*
G04*
G04 Layer_Color=65535*
%FSLAX25Y25*%
%MOIN*%
G70*
G04*
G04 #@! TF.SameCoordinates,732149F8-75B0-4827-9E7B-A550906CBCD6*
G04*
G04*
G04 #@! TF.FilePolarity,Positive*
G04*
G01*
G75*
%ADD10C,0.01000*%
%ADD11C,0.00394*%
%ADD12C,0.00315*%
%ADD13C,0.00787*%
%ADD14C,0.00602*%
G36*
X151448Y100767D02*
X147020Y96339D01*
Y100732D01*
X146921Y100831D01*
X151448Y100767D01*
D02*
G37*
G36*
X45448D02*
X41020Y96339D01*
Y100732D01*
X40921Y100831D01*
X45448Y100767D01*
D02*
G37*
G36*
X15628Y70787D02*
X15705D01*
Y70709D01*
X15782D01*
Y69243D01*
X15705D01*
Y69089D01*
X15628D01*
Y68934D01*
X15551D01*
Y68780D01*
X15473D01*
Y68703D01*
X15396D01*
Y68625D01*
X15319D01*
Y68548D01*
X15242D01*
Y68471D01*
X15087D01*
Y68394D01*
X15010D01*
Y68317D01*
X14856D01*
Y68239D01*
X14547D01*
Y68162D01*
X9839D01*
Y67313D01*
X9762D01*
Y67236D01*
X9684D01*
Y67159D01*
X8681D01*
Y67236D01*
X8604D01*
Y67313D01*
X8527D01*
Y68162D01*
X7678D01*
Y68239D01*
X7600D01*
Y68394D01*
X7523D01*
Y68548D01*
X7446D01*
Y68703D01*
X7369D01*
Y68857D01*
X7292D01*
Y69011D01*
X7215D01*
Y69166D01*
X7137D01*
Y69320D01*
X7060D01*
Y69475D01*
X6983D01*
Y69629D01*
X7060D01*
Y69783D01*
X8450D01*
Y69860D01*
X8527D01*
Y70709D01*
X8604D01*
Y70787D01*
X8681D01*
Y70864D01*
X9684D01*
Y70787D01*
X9762D01*
Y70709D01*
X9839D01*
Y69860D01*
X9916D01*
Y69783D01*
X14084D01*
Y69860D01*
X14238D01*
Y69938D01*
X14315D01*
Y70015D01*
X14393D01*
Y70246D01*
X14470D01*
Y70709D01*
X14547D01*
Y70787D01*
X14624D01*
Y70864D01*
X15628D01*
Y70787D01*
D02*
G37*
G36*
X15705Y65924D02*
X15782D01*
Y64535D01*
X15705D01*
Y64457D01*
X15628D01*
Y64380D01*
X8681D01*
Y64457D01*
X8604D01*
Y64535D01*
X8527D01*
Y65924D01*
X8604D01*
Y66001D01*
X15705D01*
Y65924D01*
D02*
G37*
G36*
X7832D02*
X7909D01*
Y65229D01*
Y65152D01*
Y64535D01*
X7832D01*
Y64457D01*
X7755D01*
Y64380D01*
X6443D01*
Y64457D01*
X6365D01*
Y64535D01*
X6288D01*
Y65924D01*
X6365D01*
Y66001D01*
X7832D01*
Y65924D01*
D02*
G37*
G36*
X6520Y63377D02*
X6597D01*
Y63300D01*
X6674D01*
Y63222D01*
X6751D01*
Y63145D01*
X6906D01*
Y63068D01*
X6983D01*
Y62991D01*
X7060D01*
Y62914D01*
X7137D01*
Y62836D01*
X7215D01*
Y62759D01*
X7292D01*
Y62682D01*
X7446D01*
Y62605D01*
X7523D01*
Y62528D01*
X7600D01*
Y62451D01*
X7678D01*
Y62373D01*
X7755D01*
Y62296D01*
X7909D01*
Y62219D01*
X7986D01*
Y62142D01*
X8064D01*
Y62065D01*
X8141D01*
Y61988D01*
X8218D01*
Y61910D01*
X8295D01*
Y61833D01*
X8450D01*
Y61756D01*
X8527D01*
Y61679D01*
X8604D01*
Y61602D01*
X8681D01*
Y61524D01*
X8758D01*
Y61447D01*
X8913D01*
Y61370D01*
X8990D01*
Y61293D01*
X9067D01*
Y61216D01*
X9144D01*
Y61138D01*
X9221D01*
Y61061D01*
X9298D01*
Y60984D01*
X9453D01*
Y60907D01*
X9684D01*
Y60984D01*
X9916D01*
Y61061D01*
X10070D01*
Y61138D01*
X10302D01*
Y61216D01*
X10533D01*
Y61293D01*
X10765D01*
Y61370D01*
X10919D01*
Y61447D01*
X11151D01*
Y61524D01*
X11383D01*
Y61602D01*
X11537D01*
Y61679D01*
X11768D01*
Y61756D01*
X12000D01*
Y61833D01*
X12154D01*
Y61910D01*
X12386D01*
Y61988D01*
X12618D01*
Y62065D01*
X12849D01*
Y62142D01*
X13003D01*
Y62219D01*
X13235D01*
Y62296D01*
X13466D01*
Y62373D01*
X13621D01*
Y62451D01*
X13852D01*
Y62528D01*
X14084D01*
Y62605D01*
X14238D01*
Y62682D01*
X14470D01*
Y62759D01*
X14702D01*
Y62836D01*
X14933D01*
Y62914D01*
X15087D01*
Y62991D01*
X15319D01*
Y63068D01*
X15551D01*
Y63145D01*
X15628D01*
Y63068D01*
X15705D01*
Y62991D01*
X15782D01*
Y61447D01*
X15705D01*
Y61370D01*
X15473D01*
Y61293D01*
X15242D01*
Y61216D01*
X15010D01*
Y61138D01*
X14779D01*
Y61061D01*
X14624D01*
Y60984D01*
X14393D01*
Y60907D01*
X14161D01*
Y60830D01*
X13930D01*
Y60753D01*
X13698D01*
Y60675D01*
X13544D01*
Y60598D01*
X13312D01*
Y60521D01*
X13081D01*
Y60444D01*
X12849D01*
Y60367D01*
X12618D01*
Y60289D01*
X12386D01*
Y60212D01*
X12232D01*
Y60135D01*
X12000D01*
Y60058D01*
X11768D01*
Y59981D01*
X11537D01*
Y59904D01*
X11305D01*
Y59826D01*
X11151D01*
Y59749D01*
X10919D01*
Y59672D01*
X10997D01*
Y59595D01*
X11074D01*
Y59518D01*
X11151D01*
Y59440D01*
X11228D01*
Y59363D01*
X11305D01*
Y59286D01*
X11460D01*
Y59209D01*
X11537D01*
Y59132D01*
X11614D01*
Y59054D01*
X11691D01*
Y58977D01*
X11768D01*
Y58900D01*
X11923D01*
Y58823D01*
X15628D01*
Y58746D01*
X15705D01*
Y58669D01*
X15782D01*
Y57279D01*
X15705D01*
Y57202D01*
X6288D01*
Y57279D01*
X6211D01*
Y58669D01*
X6288D01*
Y58746D01*
X6365D01*
Y58823D01*
X9839D01*
Y58900D01*
X9762D01*
Y58977D01*
X9684D01*
Y59054D01*
X9530D01*
Y59132D01*
X9453D01*
Y59209D01*
X9376D01*
Y59286D01*
X9298D01*
Y59363D01*
X9144D01*
Y59440D01*
X9067D01*
Y59518D01*
X8990D01*
Y59595D01*
X8913D01*
Y59672D01*
X8835D01*
Y59749D01*
X8681D01*
Y59826D01*
X8604D01*
Y59904D01*
X8527D01*
Y59981D01*
X8450D01*
Y60058D01*
X8295D01*
Y60135D01*
X8218D01*
Y60212D01*
X8141D01*
Y60289D01*
X8064D01*
Y60367D01*
X7986D01*
Y60444D01*
X7832D01*
Y60521D01*
X7755D01*
Y60598D01*
X7678D01*
Y60675D01*
X7600D01*
Y60753D01*
X7446D01*
Y60830D01*
X7369D01*
Y60907D01*
X7292D01*
Y60984D01*
X7215D01*
Y61061D01*
X7060D01*
Y61138D01*
X6983D01*
Y61216D01*
X6906D01*
Y61293D01*
X6829D01*
Y61370D01*
X6751D01*
Y61447D01*
X6597D01*
Y61524D01*
X6520D01*
Y61602D01*
X6443D01*
Y61679D01*
X6365D01*
Y61756D01*
X6211D01*
Y63300D01*
X6288D01*
Y63377D01*
X6443D01*
Y63454D01*
X6520D01*
Y63377D01*
D02*
G37*
G36*
X14084Y55967D02*
X14470D01*
Y55890D01*
X14702D01*
Y55813D01*
X14856D01*
Y55735D01*
X15010D01*
Y55658D01*
X15087D01*
Y55581D01*
X15165D01*
Y55504D01*
X15242D01*
Y55427D01*
X15319D01*
Y55350D01*
X15396D01*
Y55195D01*
X15473D01*
Y55041D01*
X15551D01*
Y54887D01*
X15628D01*
Y54655D01*
X15705D01*
Y54423D01*
X15782D01*
Y52802D01*
X15705D01*
Y52571D01*
X15628D01*
Y52339D01*
X15551D01*
Y52185D01*
X15473D01*
Y52031D01*
X15396D01*
Y51876D01*
X15319D01*
Y51799D01*
X15242D01*
Y51722D01*
X15165D01*
Y51645D01*
X15087D01*
Y51568D01*
X15010D01*
Y51490D01*
X14933D01*
Y51413D01*
X14779D01*
Y51336D01*
X14624D01*
Y51259D01*
X14315D01*
Y51182D01*
X9916D01*
Y51259D01*
X9684D01*
Y51336D01*
X9530D01*
Y51413D01*
X9376D01*
Y51490D01*
X9298D01*
Y51568D01*
X9221D01*
Y51645D01*
X9144D01*
Y51722D01*
X9067D01*
Y51799D01*
X8990D01*
Y51876D01*
X8913D01*
Y52031D01*
X8835D01*
Y52185D01*
X8758D01*
Y52339D01*
X8681D01*
Y52571D01*
X8604D01*
Y52802D01*
X8527D01*
Y54423D01*
X8604D01*
Y54655D01*
X8681D01*
Y54887D01*
X8758D01*
Y55041D01*
X8835D01*
Y55195D01*
X8913D01*
Y55272D01*
X8990D01*
Y55350D01*
X9067D01*
Y55504D01*
X9144D01*
Y55581D01*
X9221D01*
Y55658D01*
X9376D01*
Y55735D01*
X9453D01*
Y55813D01*
X9684D01*
Y55890D01*
X9916D01*
Y55967D01*
X10302D01*
Y56044D01*
X12232D01*
Y55967D01*
X12309D01*
Y55890D01*
X12386D01*
Y52802D01*
X14161D01*
Y52880D01*
X14315D01*
Y52957D01*
X14393D01*
Y53266D01*
X14470D01*
Y53883D01*
X14393D01*
Y54192D01*
X14315D01*
Y54269D01*
X14238D01*
Y54346D01*
X13235D01*
Y54423D01*
X13158D01*
Y54501D01*
X13081D01*
Y55890D01*
X13158D01*
Y55967D01*
X13235D01*
Y56044D01*
X14084D01*
Y55967D01*
D02*
G37*
G36*
X15628Y49715D02*
X15705D01*
Y49638D01*
X15782D01*
Y48249D01*
X15705D01*
Y48171D01*
X6288D01*
Y48249D01*
X6211D01*
Y49638D01*
X6288D01*
Y49715D01*
X6365D01*
Y49792D01*
X15628D01*
Y49715D01*
D02*
G37*
G36*
X15705Y46628D02*
X15782D01*
Y45238D01*
X15705D01*
Y45161D01*
X15628D01*
Y45084D01*
X8681D01*
Y45161D01*
X8604D01*
Y45238D01*
X8527D01*
Y46628D01*
X8604D01*
Y46705D01*
X15705D01*
Y46628D01*
D02*
G37*
G36*
X7832D02*
X7909D01*
Y45238D01*
X7832D01*
Y45161D01*
X7755D01*
Y45084D01*
X6443D01*
Y45161D01*
X6365D01*
Y45238D01*
X6288D01*
Y46628D01*
X6365D01*
Y46705D01*
X7832D01*
Y46628D01*
D02*
G37*
G36*
X15628Y44003D02*
X15705D01*
Y43926D01*
X15782D01*
Y42460D01*
X15705D01*
Y42305D01*
X15628D01*
Y42151D01*
X15551D01*
Y41997D01*
X15473D01*
Y41919D01*
X15396D01*
Y41842D01*
X15319D01*
Y41765D01*
X15242D01*
Y41688D01*
X15087D01*
Y41611D01*
X15010D01*
Y41533D01*
X14856D01*
Y41456D01*
X14547D01*
Y41379D01*
X9839D01*
Y40530D01*
X9762D01*
Y40453D01*
X9684D01*
Y40376D01*
X8681D01*
Y40453D01*
X8604D01*
Y40530D01*
X8527D01*
Y41379D01*
X7678D01*
Y41456D01*
X7600D01*
Y41611D01*
X7523D01*
Y41765D01*
X7446D01*
Y41919D01*
X7369D01*
Y42074D01*
X7292D01*
Y42228D01*
X7215D01*
Y42382D01*
X7137D01*
Y42537D01*
X7060D01*
Y42691D01*
X6983D01*
Y42846D01*
X7060D01*
Y43000D01*
X8450D01*
Y43077D01*
X8527D01*
Y43926D01*
X8604D01*
Y44003D01*
X8681D01*
Y44081D01*
X9684D01*
Y44003D01*
X9762D01*
Y43926D01*
X9839D01*
Y43077D01*
X9916D01*
Y43000D01*
X14084D01*
Y43077D01*
X14238D01*
Y43154D01*
X14315D01*
Y43232D01*
X14393D01*
Y43463D01*
X14470D01*
Y43926D01*
X14547D01*
Y44003D01*
X14624D01*
Y44081D01*
X15628D01*
Y44003D01*
D02*
G37*
G36*
X14238Y39450D02*
X14547D01*
Y39372D01*
X14702D01*
Y39295D01*
X14856D01*
Y39218D01*
X15010D01*
Y39141D01*
X15087D01*
Y39064D01*
X15165D01*
Y38986D01*
X15242D01*
Y38909D01*
X15319D01*
Y38832D01*
X15396D01*
Y38678D01*
X15473D01*
Y38523D01*
X15551D01*
Y38369D01*
X15628D01*
Y38137D01*
X15705D01*
Y37906D01*
X15782D01*
Y36285D01*
X15705D01*
Y36053D01*
X15628D01*
Y35822D01*
X15551D01*
Y35667D01*
X15473D01*
Y35513D01*
X15396D01*
Y35436D01*
X15319D01*
Y35282D01*
X15242D01*
Y35204D01*
X15165D01*
Y35127D01*
X15087D01*
Y35050D01*
X15010D01*
Y34973D01*
X14856D01*
Y34896D01*
X14702D01*
Y34818D01*
X14547D01*
Y34741D01*
X14238D01*
Y34664D01*
X9993D01*
Y34741D01*
X9762D01*
Y34818D01*
X9530D01*
Y34896D01*
X9453D01*
Y34973D01*
X9298D01*
Y35050D01*
X9221D01*
Y35127D01*
X9144D01*
Y35204D01*
X9067D01*
Y35282D01*
X8990D01*
Y35359D01*
X8913D01*
Y35513D01*
X8835D01*
Y35667D01*
X8758D01*
Y35822D01*
X8681D01*
Y36053D01*
X8604D01*
Y36285D01*
X8527D01*
Y37983D01*
X8604D01*
Y38214D01*
X8681D01*
Y38369D01*
X8758D01*
Y38523D01*
X8835D01*
Y38678D01*
X8913D01*
Y38832D01*
X8990D01*
Y38909D01*
X9067D01*
Y38986D01*
X9144D01*
Y39064D01*
X9221D01*
Y39141D01*
X9298D01*
Y39218D01*
X9453D01*
Y39295D01*
X9607D01*
Y39372D01*
X9839D01*
Y39450D01*
X10302D01*
Y39527D01*
X11151D01*
Y39450D01*
X11228D01*
Y39372D01*
X11305D01*
Y37983D01*
X11228D01*
Y37906D01*
X10302D01*
Y37829D01*
X10148D01*
Y37751D01*
X9993D01*
Y37597D01*
X9916D01*
Y37365D01*
X9839D01*
Y36748D01*
X9916D01*
Y36516D01*
X9993D01*
Y36439D01*
X10070D01*
Y36362D01*
X10225D01*
Y36285D01*
X14161D01*
Y36362D01*
X14315D01*
Y36439D01*
X14393D01*
Y36748D01*
X14470D01*
Y37443D01*
X14393D01*
Y37751D01*
X14315D01*
Y37829D01*
X14084D01*
Y37906D01*
X13003D01*
Y37983D01*
X12926D01*
Y38060D01*
X12849D01*
Y39372D01*
X12926D01*
Y39450D01*
X13003D01*
Y39527D01*
X14238D01*
Y39450D01*
D02*
G37*
G36*
X15705Y33506D02*
X15782D01*
Y32117D01*
X15705D01*
Y32040D01*
X15628D01*
Y31962D01*
X15396D01*
Y31885D01*
X15473D01*
Y31808D01*
X15551D01*
Y31654D01*
X15628D01*
Y31577D01*
X15705D01*
Y31422D01*
X15782D01*
Y30419D01*
X15705D01*
Y30110D01*
X15628D01*
Y29956D01*
X15551D01*
Y29801D01*
X15473D01*
Y29647D01*
X15396D01*
Y29493D01*
X15319D01*
Y29415D01*
X15242D01*
Y29338D01*
X15165D01*
Y29261D01*
X15087D01*
Y29184D01*
X15010D01*
Y29107D01*
X14933D01*
Y29030D01*
X14856D01*
Y28952D01*
X14702D01*
Y28875D01*
X14547D01*
Y28798D01*
X14315D01*
Y28721D01*
X13389D01*
Y28798D01*
X13081D01*
Y28875D01*
X12926D01*
Y28952D01*
X12772D01*
Y29030D01*
X12618D01*
Y29107D01*
X12540D01*
Y29184D01*
X12463D01*
Y29261D01*
X12386D01*
Y29338D01*
X12309D01*
Y29415D01*
X12232D01*
Y29570D01*
X12154D01*
Y29647D01*
X12077D01*
Y29801D01*
X12000D01*
Y29956D01*
X11923D01*
Y30033D01*
X11846D01*
Y30187D01*
X11768D01*
Y30342D01*
X11691D01*
Y30496D01*
X11614D01*
Y30728D01*
X11537D01*
Y30882D01*
X11460D01*
Y31036D01*
X11383D01*
Y31268D01*
X11305D01*
Y31422D01*
X11228D01*
Y31654D01*
X11151D01*
Y31808D01*
X11074D01*
Y31962D01*
X10148D01*
Y31885D01*
X9993D01*
Y31731D01*
X9916D01*
Y31577D01*
X9839D01*
Y30959D01*
X9916D01*
Y30650D01*
X9993D01*
Y30573D01*
X10070D01*
Y30496D01*
X10148D01*
Y30419D01*
X10765D01*
Y30342D01*
X11228D01*
Y30264D01*
X11305D01*
Y28875D01*
X11228D01*
Y28798D01*
X11151D01*
Y28721D01*
X10379D01*
Y28798D01*
X9916D01*
Y28875D01*
X9684D01*
Y28952D01*
X9530D01*
Y29030D01*
X9376D01*
Y29107D01*
X9298D01*
Y29184D01*
X9144D01*
Y29261D01*
X9067D01*
Y29338D01*
X8990D01*
Y29493D01*
X8913D01*
Y29570D01*
X8835D01*
Y29724D01*
X8758D01*
Y29879D01*
X8681D01*
Y30110D01*
X8604D01*
Y30342D01*
X8527D01*
Y31962D01*
X8604D01*
Y32271D01*
X8681D01*
Y32426D01*
X8758D01*
Y32580D01*
X8835D01*
Y32734D01*
X8913D01*
Y32889D01*
X8990D01*
Y33043D01*
X9067D01*
Y33120D01*
X9144D01*
Y33198D01*
X9298D01*
Y33275D01*
X9376D01*
Y33352D01*
X9530D01*
Y33429D01*
X9684D01*
Y33506D01*
X9916D01*
Y33583D01*
X15705D01*
Y33506D01*
D02*
G37*
G36*
X62631Y30661D02*
X63719D01*
Y30628D01*
X63851D01*
Y30595D01*
X63982D01*
Y30562D01*
X64411D01*
Y30529D01*
X64576D01*
Y30496D01*
X64642D01*
Y30463D01*
X64840D01*
Y30430D01*
X65136D01*
Y30397D01*
X65202D01*
Y30365D01*
X65268D01*
Y30332D01*
X65499D01*
Y30299D01*
X65565D01*
Y30266D01*
X65631D01*
Y30233D01*
X65795D01*
Y30200D01*
X65927D01*
Y30167D01*
X65993D01*
Y30134D01*
X66092D01*
Y30101D01*
X66224D01*
Y30068D01*
X66290D01*
Y30035D01*
X66356D01*
Y30002D01*
X66488D01*
Y29969D01*
X66587D01*
Y29936D01*
X66653D01*
Y29903D01*
X66718D01*
Y29870D01*
X66817D01*
Y29837D01*
X66916D01*
Y29804D01*
X66982D01*
Y29771D01*
X67081D01*
Y29738D01*
X67114D01*
Y29705D01*
X67180D01*
Y29672D01*
X67279D01*
Y29639D01*
X67378D01*
Y29606D01*
X67411D01*
Y29573D01*
X67510D01*
Y29540D01*
X67575D01*
Y29507D01*
X67641D01*
Y29474D01*
X67674D01*
Y29441D01*
X67773D01*
Y29408D01*
X67839D01*
Y29376D01*
X67872D01*
Y29343D01*
X67938D01*
Y29310D01*
X68004D01*
Y29277D01*
X68037D01*
Y29244D01*
X68103D01*
Y29211D01*
X68169D01*
Y29178D01*
X68202D01*
Y29145D01*
X68268D01*
Y29112D01*
X68334D01*
Y29079D01*
X68400D01*
Y29046D01*
X68432D01*
Y29013D01*
X68498D01*
Y28980D01*
X68564D01*
Y28947D01*
X68597D01*
Y28914D01*
X68630D01*
Y28881D01*
X68729D01*
Y28848D01*
X68762D01*
Y28815D01*
X68795D01*
Y28782D01*
X68861D01*
Y28749D01*
X68927D01*
Y28716D01*
X68960D01*
Y28683D01*
X68993D01*
Y28650D01*
X69059D01*
Y28617D01*
X69092D01*
Y28585D01*
X69125D01*
Y28552D01*
X69191D01*
Y28519D01*
X69224D01*
Y28486D01*
X69257D01*
Y28453D01*
X69323D01*
Y28420D01*
X69355D01*
Y28387D01*
X69388D01*
Y28354D01*
X69421D01*
Y28321D01*
X69487D01*
Y28288D01*
X69520D01*
Y28255D01*
X69553D01*
Y28222D01*
X69619D01*
Y28189D01*
X69652D01*
Y28156D01*
X69685D01*
Y28123D01*
X69718D01*
Y28090D01*
X69751D01*
Y28024D01*
X69784D01*
Y27991D01*
X69817D01*
Y27958D01*
X69850D01*
Y27859D01*
X69883D01*
Y27497D01*
X69850D01*
Y27365D01*
X69784D01*
Y27332D01*
X69751D01*
Y27266D01*
X69718D01*
Y27233D01*
X69685D01*
Y27200D01*
X69652D01*
Y27167D01*
X69619D01*
Y27134D01*
X69454D01*
Y27101D01*
X69125D01*
Y27134D01*
X69026D01*
Y27167D01*
X68993D01*
Y27200D01*
X68960D01*
Y27233D01*
X68894D01*
Y27266D01*
X68861D01*
Y27299D01*
X68795D01*
Y27332D01*
X68762D01*
Y27365D01*
X68729D01*
Y27398D01*
X68696D01*
Y27431D01*
X68630D01*
Y27464D01*
X68564D01*
Y27530D01*
X68498D01*
Y27563D01*
X68432D01*
Y27596D01*
X68400D01*
Y27628D01*
X68366D01*
Y27661D01*
X68301D01*
Y27694D01*
X68235D01*
Y27727D01*
X68202D01*
Y27760D01*
X68169D01*
Y27793D01*
X68103D01*
Y27826D01*
X68070D01*
Y27859D01*
X68037D01*
Y27892D01*
X67971D01*
Y27925D01*
X67905D01*
Y27958D01*
X67872D01*
Y27991D01*
X67806D01*
Y28024D01*
X67773D01*
Y28057D01*
X67740D01*
Y28090D01*
X67674D01*
Y28123D01*
X67575D01*
Y28156D01*
X67542D01*
Y28189D01*
X67510D01*
Y28222D01*
X67411D01*
Y28255D01*
X67345D01*
Y28288D01*
X67312D01*
Y28321D01*
X67246D01*
Y28354D01*
X67180D01*
Y28387D01*
X67147D01*
Y28420D01*
X67081D01*
Y28453D01*
X67015D01*
Y28486D01*
X66916D01*
Y28519D01*
X66883D01*
Y28552D01*
X66784D01*
Y28585D01*
X66685D01*
Y28617D01*
X66653D01*
Y28650D01*
X66554D01*
Y28683D01*
X66455D01*
Y28716D01*
X66422D01*
Y28749D01*
X66356D01*
Y28782D01*
X66224D01*
Y28815D01*
X66158D01*
Y28848D01*
X66092D01*
Y28881D01*
X65960D01*
Y28914D01*
X65861D01*
Y28947D01*
X65795D01*
Y28980D01*
X65697D01*
Y29013D01*
X65532D01*
Y29046D01*
X65466D01*
Y29079D01*
X65400D01*
Y29112D01*
X65202D01*
Y29145D01*
X65070D01*
Y29178D01*
X65004D01*
Y29211D01*
X64872D01*
Y29244D01*
X64642D01*
Y29277D01*
X64576D01*
Y29310D01*
X64444D01*
Y29343D01*
X64048D01*
Y29376D01*
X63916D01*
Y29408D01*
X63785D01*
Y29441D01*
X63158D01*
Y29474D01*
X61543D01*
Y29441D01*
X61049D01*
Y29408D01*
X60917D01*
Y29376D01*
X60752D01*
Y29343D01*
X60422D01*
Y29310D01*
X60324D01*
Y29277D01*
X60225D01*
Y29244D01*
X59994D01*
Y29211D01*
X59862D01*
Y29178D01*
X59829D01*
Y29145D01*
X59664D01*
Y29112D01*
X59500D01*
Y29079D01*
X59434D01*
Y29046D01*
X59368D01*
Y29013D01*
X59203D01*
Y28980D01*
X59104D01*
Y28947D01*
X59071D01*
Y28914D01*
X58972D01*
Y28881D01*
X58840D01*
Y28848D01*
X58807D01*
Y28815D01*
X58741D01*
Y28782D01*
X58609D01*
Y28749D01*
X58544D01*
Y28716D01*
X58511D01*
Y28683D01*
X58412D01*
Y28650D01*
X58313D01*
Y28617D01*
X58280D01*
Y28585D01*
X58214D01*
Y28552D01*
X58115D01*
Y28519D01*
X58049D01*
Y28486D01*
X58016D01*
Y28453D01*
X57917D01*
Y28420D01*
X57884D01*
Y28387D01*
X57818D01*
Y28354D01*
X57753D01*
Y28321D01*
X57687D01*
Y28288D01*
X57654D01*
Y28255D01*
X57588D01*
Y28222D01*
X57522D01*
Y28189D01*
X57489D01*
Y28156D01*
X57423D01*
Y28123D01*
X57357D01*
Y28090D01*
X57291D01*
Y28024D01*
X57225D01*
Y27991D01*
X57159D01*
Y27958D01*
X57126D01*
Y27925D01*
X57093D01*
Y27892D01*
X57027D01*
Y27859D01*
X56994D01*
Y27826D01*
X56961D01*
Y27793D01*
X56895D01*
Y27760D01*
X56862D01*
Y27727D01*
X56830D01*
Y27694D01*
X56764D01*
Y27661D01*
X56731D01*
Y27628D01*
X56698D01*
Y27596D01*
X56665D01*
Y27563D01*
X56599D01*
Y27530D01*
X56566D01*
Y27497D01*
X56533D01*
Y27464D01*
X56500D01*
Y27431D01*
X56434D01*
Y27398D01*
X56401D01*
Y27365D01*
X56368D01*
Y27332D01*
X56335D01*
Y27299D01*
X56302D01*
Y27266D01*
X56269D01*
Y27233D01*
X56236D01*
Y27200D01*
X56170D01*
Y27134D01*
X56104D01*
Y27101D01*
X56071D01*
Y27035D01*
X56038D01*
Y27002D01*
X55972D01*
Y26936D01*
X55940D01*
Y26903D01*
X55906D01*
Y26870D01*
X55874D01*
Y26837D01*
X55841D01*
Y26805D01*
X55808D01*
Y26772D01*
X55775D01*
Y26739D01*
X55742D01*
Y26673D01*
X55676D01*
Y26640D01*
X55643D01*
Y26574D01*
X55610D01*
Y26541D01*
X55544D01*
Y26508D01*
X55511D01*
Y26475D01*
X55478D01*
Y26442D01*
X54984D01*
Y26475D01*
X54918D01*
Y26508D01*
X54885D01*
Y26541D01*
X54852D01*
Y26574D01*
X54786D01*
Y26607D01*
X54753D01*
Y26673D01*
X54720D01*
Y26706D01*
X54687D01*
Y26772D01*
X54654D01*
Y26969D01*
X54621D01*
Y27167D01*
X54654D01*
Y27266D01*
X54687D01*
Y27299D01*
X54720D01*
Y27332D01*
X54753D01*
Y27398D01*
X54786D01*
Y27431D01*
X54819D01*
Y27464D01*
X54852D01*
Y27530D01*
X54885D01*
Y27563D01*
X54918D01*
Y27596D01*
X54951D01*
Y27661D01*
X54984D01*
Y27694D01*
X55016D01*
Y27727D01*
X55050D01*
Y27760D01*
X55082D01*
Y27793D01*
X55115D01*
Y27826D01*
X55148D01*
Y27859D01*
X55181D01*
Y27892D01*
X55214D01*
Y27958D01*
X55280D01*
Y27991D01*
X55313D01*
Y28024D01*
X55346D01*
Y28057D01*
X55379D01*
Y28090D01*
X55412D01*
Y28123D01*
X55445D01*
Y28156D01*
X55478D01*
Y28189D01*
X55511D01*
Y28222D01*
X55577D01*
Y28255D01*
X55610D01*
Y28288D01*
X55643D01*
Y28321D01*
X55676D01*
Y28354D01*
X55742D01*
Y28420D01*
X55808D01*
Y28453D01*
X55841D01*
Y28486D01*
X55874D01*
Y28519D01*
X55906D01*
Y28552D01*
X55972D01*
Y28585D01*
X56005D01*
Y28617D01*
X56038D01*
Y28650D01*
X56071D01*
Y28683D01*
X56104D01*
Y28716D01*
X56170D01*
Y28749D01*
X56236D01*
Y28782D01*
X56269D01*
Y28815D01*
X56302D01*
Y28848D01*
X56335D01*
Y28881D01*
X56401D01*
Y28914D01*
X56467D01*
Y28947D01*
X56500D01*
Y28980D01*
X56566D01*
Y29013D01*
X56599D01*
Y29046D01*
X56632D01*
Y29079D01*
X56698D01*
Y29112D01*
X56764D01*
Y29145D01*
X56796D01*
Y29178D01*
X56862D01*
Y29211D01*
X56928D01*
Y29244D01*
X56994D01*
Y29277D01*
X57027D01*
Y29310D01*
X57093D01*
Y29343D01*
X57159D01*
Y29376D01*
X57192D01*
Y29408D01*
X57225D01*
Y29441D01*
X57324D01*
Y29474D01*
X57390D01*
Y29507D01*
X57423D01*
Y29540D01*
X57522D01*
Y29573D01*
X57588D01*
Y29606D01*
X57621D01*
Y29639D01*
X57687D01*
Y29672D01*
X57785D01*
Y29705D01*
X57818D01*
Y29738D01*
X57884D01*
Y29771D01*
X57983D01*
Y29804D01*
X58049D01*
Y29837D01*
X58115D01*
Y29870D01*
X58214D01*
Y29903D01*
X58313D01*
Y29936D01*
X58346D01*
Y29969D01*
X58445D01*
Y30002D01*
X58577D01*
Y30035D01*
X58643D01*
Y30068D01*
X58675D01*
Y30101D01*
X58840D01*
Y30134D01*
X58939D01*
Y30167D01*
X58972D01*
Y30200D01*
X59137D01*
Y30233D01*
X59269D01*
Y30266D01*
X59335D01*
Y30299D01*
X59434D01*
Y30332D01*
X59631D01*
Y30365D01*
X59730D01*
Y30397D01*
X59796D01*
Y30430D01*
X60060D01*
Y30463D01*
X60192D01*
Y30496D01*
X60258D01*
Y30529D01*
X60488D01*
Y30562D01*
X60818D01*
Y30595D01*
X60950D01*
Y30628D01*
X61082D01*
Y30661D01*
X62235D01*
Y30694D01*
X62631D01*
Y30661D01*
D02*
G37*
G36*
X63060Y28519D02*
X63389D01*
Y28486D01*
X63488D01*
Y28453D01*
X63916D01*
Y28420D01*
X64147D01*
Y28387D01*
X64246D01*
Y28354D01*
X64378D01*
Y28321D01*
X64642D01*
Y28288D01*
X64741D01*
Y28255D01*
X64806D01*
Y28222D01*
X65004D01*
Y28189D01*
X65136D01*
Y28156D01*
X65169D01*
Y28123D01*
X65301D01*
Y28090D01*
X65433D01*
Y28057D01*
X65499D01*
Y28024D01*
X65565D01*
Y27991D01*
X65729D01*
Y27958D01*
X65795D01*
Y27925D01*
X65828D01*
Y27892D01*
X65927D01*
Y27859D01*
X66059D01*
Y27826D01*
X66092D01*
Y27793D01*
X66158D01*
Y27760D01*
X66257D01*
Y27727D01*
X66323D01*
Y27694D01*
X66356D01*
Y27661D01*
X66488D01*
Y27628D01*
X66554D01*
Y27596D01*
X66587D01*
Y27563D01*
X66653D01*
Y27530D01*
X66751D01*
Y27497D01*
X66784D01*
Y27464D01*
X66850D01*
Y27431D01*
X66949D01*
Y27398D01*
X66982D01*
Y27365D01*
X67015D01*
Y27332D01*
X67081D01*
Y27299D01*
X67147D01*
Y27266D01*
X67180D01*
Y27233D01*
X67279D01*
Y27200D01*
X67345D01*
Y27167D01*
X67378D01*
Y27134D01*
X67411D01*
Y27101D01*
X67510D01*
Y27068D01*
X67542D01*
Y27035D01*
X67575D01*
Y27002D01*
X67641D01*
Y26969D01*
X67707D01*
Y26936D01*
X67740D01*
Y26903D01*
X67773D01*
Y26870D01*
X67839D01*
Y26837D01*
X67872D01*
Y26805D01*
X67905D01*
Y26772D01*
X67971D01*
Y26739D01*
X68004D01*
Y26706D01*
X68037D01*
Y26673D01*
X68103D01*
Y26640D01*
X68169D01*
Y26607D01*
X68202D01*
Y26574D01*
X68235D01*
Y26541D01*
X68301D01*
Y26508D01*
X68334D01*
Y26475D01*
X68366D01*
Y26442D01*
X68432D01*
Y26409D01*
X68465D01*
Y26376D01*
X68498D01*
Y26343D01*
X68531D01*
Y26310D01*
X68564D01*
Y26277D01*
X68597D01*
Y26244D01*
X68663D01*
Y26211D01*
X68729D01*
Y26178D01*
X68762D01*
Y26112D01*
X68828D01*
Y26079D01*
X68861D01*
Y26046D01*
X68894D01*
Y26013D01*
X68927D01*
Y25980D01*
X68960D01*
Y25947D01*
X68993D01*
Y25914D01*
X69026D01*
Y25881D01*
X69059D01*
Y25848D01*
X69092D01*
Y25816D01*
X69125D01*
Y25783D01*
X69191D01*
Y25750D01*
X69224D01*
Y25684D01*
X69289D01*
Y25651D01*
X69323D01*
Y25618D01*
X69355D01*
Y25585D01*
X69388D01*
Y25552D01*
X69421D01*
Y25519D01*
X69454D01*
Y25486D01*
X69487D01*
Y25453D01*
X69520D01*
Y25420D01*
X69553D01*
Y25387D01*
X69586D01*
Y25354D01*
X69619D01*
Y25321D01*
X69652D01*
Y25288D01*
X69685D01*
Y25255D01*
X69718D01*
Y25222D01*
X69751D01*
Y25189D01*
X69784D01*
Y25156D01*
X69817D01*
Y25123D01*
X69850D01*
Y25090D01*
X69883D01*
Y25025D01*
X69916D01*
Y24992D01*
X69949D01*
Y24959D01*
X69982D01*
Y24926D01*
X70015D01*
Y24893D01*
X70048D01*
Y24860D01*
X70081D01*
Y24794D01*
X70114D01*
Y24761D01*
X70147D01*
Y24728D01*
X70179D01*
Y24695D01*
X70213D01*
Y24662D01*
X70245D01*
Y24596D01*
X70278D01*
Y24563D01*
X70311D01*
Y24530D01*
X70344D01*
Y24464D01*
X70377D01*
Y24431D01*
X70410D01*
Y24398D01*
X70443D01*
Y24332D01*
X70476D01*
Y24299D01*
X70509D01*
Y24266D01*
X70542D01*
Y24200D01*
X70575D01*
Y24167D01*
X70608D01*
Y24135D01*
X70641D01*
Y24036D01*
X70674D01*
Y23871D01*
X70707D01*
Y23706D01*
X70674D01*
Y23607D01*
X70641D01*
Y23508D01*
X70608D01*
Y23475D01*
X70575D01*
Y23442D01*
X70542D01*
Y23376D01*
X70509D01*
Y23343D01*
X70443D01*
Y23310D01*
X70377D01*
Y23277D01*
X70344D01*
Y23245D01*
X69883D01*
Y23277D01*
X69850D01*
Y23310D01*
X69784D01*
Y23343D01*
X69718D01*
Y23376D01*
X69685D01*
Y23409D01*
X69652D01*
Y23475D01*
X69619D01*
Y23508D01*
X69586D01*
Y23541D01*
X69553D01*
Y23607D01*
X69520D01*
Y23640D01*
X69487D01*
Y23673D01*
X69454D01*
Y23706D01*
X69421D01*
Y23772D01*
X69388D01*
Y23805D01*
X69355D01*
Y23838D01*
X69323D01*
Y23904D01*
X69257D01*
Y23937D01*
X69224D01*
Y24003D01*
X69191D01*
Y24069D01*
X69158D01*
Y24102D01*
X69125D01*
Y24135D01*
X69092D01*
Y24167D01*
X69059D01*
Y24200D01*
X69026D01*
Y24233D01*
X68993D01*
Y24266D01*
X68960D01*
Y24332D01*
X68894D01*
Y24365D01*
X68861D01*
Y24431D01*
X68795D01*
Y24464D01*
X68762D01*
Y24530D01*
X68729D01*
Y24563D01*
X68696D01*
Y24596D01*
X68663D01*
Y24629D01*
X68630D01*
Y24662D01*
X68564D01*
Y24695D01*
X68531D01*
Y24761D01*
X68498D01*
Y24794D01*
X68465D01*
Y24827D01*
X68432D01*
Y24860D01*
X68400D01*
Y24893D01*
X68334D01*
Y24959D01*
X68301D01*
Y24992D01*
X68235D01*
Y25025D01*
X68202D01*
Y25057D01*
X68169D01*
Y25090D01*
X68136D01*
Y25123D01*
X68070D01*
Y25156D01*
X68037D01*
Y25189D01*
X68004D01*
Y25222D01*
X67971D01*
Y25255D01*
X67938D01*
Y25288D01*
X67905D01*
Y25321D01*
X67872D01*
Y25354D01*
X67806D01*
Y25387D01*
X67773D01*
Y25420D01*
X67740D01*
Y25453D01*
X67674D01*
Y25486D01*
X67641D01*
Y25519D01*
X67608D01*
Y25552D01*
X67575D01*
Y25585D01*
X67542D01*
Y25618D01*
X67510D01*
Y25651D01*
X67444D01*
Y25684D01*
X67378D01*
Y25717D01*
X67345D01*
Y25750D01*
X67312D01*
Y25783D01*
X67246D01*
Y25816D01*
X67213D01*
Y25848D01*
X67180D01*
Y25881D01*
X67114D01*
Y25914D01*
X67048D01*
Y25947D01*
X67015D01*
Y25980D01*
X66949D01*
Y26013D01*
X66883D01*
Y26046D01*
X66850D01*
Y26079D01*
X66817D01*
Y26112D01*
X66718D01*
Y26145D01*
X66685D01*
Y26178D01*
X66653D01*
Y26211D01*
X66554D01*
Y26244D01*
X66521D01*
Y26277D01*
X66455D01*
Y26310D01*
X66422D01*
Y26343D01*
X66323D01*
Y26376D01*
X66290D01*
Y26409D01*
X66257D01*
Y26442D01*
X66158D01*
Y26475D01*
X66092D01*
Y26508D01*
X66059D01*
Y26541D01*
X65960D01*
Y26574D01*
X65861D01*
Y26607D01*
X65828D01*
Y26640D01*
X65763D01*
Y26673D01*
X65631D01*
Y26706D01*
X65565D01*
Y26739D01*
X65532D01*
Y26772D01*
X65433D01*
Y26805D01*
X65334D01*
Y26837D01*
X65268D01*
Y26870D01*
X65169D01*
Y26903D01*
X65037D01*
Y26936D01*
X64971D01*
Y26969D01*
X64938D01*
Y27002D01*
X64741D01*
Y27035D01*
X64642D01*
Y27068D01*
X64576D01*
Y27101D01*
X64411D01*
Y27134D01*
X64213D01*
Y27167D01*
X64114D01*
Y27200D01*
X63982D01*
Y27233D01*
X63620D01*
Y27266D01*
X63488D01*
Y27299D01*
X63323D01*
Y27332D01*
X61774D01*
Y27299D01*
X61576D01*
Y27266D01*
X61411D01*
Y27233D01*
X61016D01*
Y27200D01*
X60851D01*
Y27167D01*
X60752D01*
Y27134D01*
X60521D01*
Y27101D01*
X60356D01*
Y27068D01*
X60291D01*
Y27035D01*
X60192D01*
Y27002D01*
X59994D01*
Y26969D01*
X59895D01*
Y26936D01*
X59862D01*
Y26903D01*
X59697D01*
Y26870D01*
X59631D01*
Y26837D01*
X59565D01*
Y26805D01*
X59466D01*
Y26772D01*
X59335D01*
Y26739D01*
X59302D01*
Y26706D01*
X59236D01*
Y26673D01*
X59137D01*
Y26640D01*
X59071D01*
Y26607D01*
X59005D01*
Y26574D01*
X58906D01*
Y26541D01*
X58840D01*
Y26508D01*
X58807D01*
Y26475D01*
X58741D01*
Y26442D01*
X58643D01*
Y26409D01*
X58609D01*
Y26376D01*
X58577D01*
Y26343D01*
X58478D01*
Y26310D01*
X58412D01*
Y26277D01*
X58379D01*
Y26244D01*
X58346D01*
Y26211D01*
X58280D01*
Y26178D01*
X58214D01*
Y26145D01*
X58181D01*
Y26112D01*
X58115D01*
Y26079D01*
X58082D01*
Y26046D01*
X58049D01*
Y26013D01*
X57983D01*
Y25980D01*
X57950D01*
Y25947D01*
X57917D01*
Y25914D01*
X57851D01*
Y25881D01*
X57785D01*
Y25848D01*
X57753D01*
Y25816D01*
X57719D01*
Y25783D01*
X57654D01*
Y25750D01*
X57621D01*
Y25684D01*
X57555D01*
Y25651D01*
X57489D01*
Y25585D01*
X57423D01*
Y25552D01*
X57390D01*
Y25519D01*
X57357D01*
Y25486D01*
X57324D01*
Y25453D01*
X57291D01*
Y25420D01*
X57258D01*
Y25387D01*
X57225D01*
Y25354D01*
X57192D01*
Y25321D01*
X57126D01*
Y25288D01*
X57093D01*
Y25255D01*
X57060D01*
Y25222D01*
X57027D01*
Y25189D01*
X56994D01*
Y25156D01*
X56961D01*
Y25123D01*
X56928D01*
Y25090D01*
X56895D01*
Y25057D01*
X56862D01*
Y24992D01*
X56830D01*
Y24959D01*
X56796D01*
Y24926D01*
X56764D01*
Y24893D01*
X56731D01*
Y24860D01*
X56698D01*
Y24827D01*
X56665D01*
Y24794D01*
X56632D01*
Y24761D01*
X56599D01*
Y24695D01*
X56533D01*
Y24629D01*
X56500D01*
Y24596D01*
X56467D01*
Y24563D01*
X56434D01*
Y24530D01*
X56401D01*
Y24464D01*
X56368D01*
Y24431D01*
X56335D01*
Y24398D01*
X56302D01*
Y24365D01*
X56269D01*
Y24332D01*
X56236D01*
Y24299D01*
X56203D01*
Y24233D01*
X56170D01*
Y24200D01*
X56137D01*
Y24167D01*
X56104D01*
Y24102D01*
X56071D01*
Y24069D01*
X56038D01*
Y24036D01*
X56005D01*
Y24003D01*
X55972D01*
Y23937D01*
X55940D01*
Y23904D01*
X55906D01*
Y23871D01*
X55874D01*
Y23805D01*
X55841D01*
Y23772D01*
X55808D01*
Y23739D01*
X55775D01*
Y23673D01*
X55742D01*
Y23607D01*
X55709D01*
Y23574D01*
X55676D01*
Y23541D01*
X55643D01*
Y23475D01*
X55610D01*
Y23442D01*
X55577D01*
Y23409D01*
X55544D01*
Y23343D01*
X55511D01*
Y23310D01*
X55478D01*
Y23245D01*
X55445D01*
Y23212D01*
X55412D01*
Y23178D01*
X55379D01*
Y23113D01*
X55346D01*
Y23080D01*
X55313D01*
Y23014D01*
X55280D01*
Y22948D01*
X55247D01*
Y22915D01*
X55214D01*
Y22882D01*
X55181D01*
Y22816D01*
X55148D01*
Y22783D01*
X55115D01*
Y22717D01*
X55082D01*
Y22651D01*
X55050D01*
Y22585D01*
X55016D01*
Y22552D01*
X54984D01*
Y22486D01*
X54951D01*
Y22420D01*
X54918D01*
Y22387D01*
X54885D01*
Y22354D01*
X54852D01*
Y22321D01*
X54819D01*
Y22256D01*
X54753D01*
Y22223D01*
X54687D01*
Y22190D01*
X54621D01*
Y22157D01*
X54588D01*
Y22124D01*
X54225D01*
Y22157D01*
X54159D01*
Y22190D01*
X54094D01*
Y22223D01*
X54028D01*
Y22256D01*
X53995D01*
Y22288D01*
X53962D01*
Y22321D01*
X53929D01*
Y22354D01*
X53896D01*
Y22420D01*
X53863D01*
Y22552D01*
X53830D01*
Y22618D01*
X53797D01*
Y22783D01*
X53830D01*
Y22915D01*
X53863D01*
Y23014D01*
X53896D01*
Y23080D01*
X53929D01*
Y23113D01*
X53962D01*
Y23178D01*
X53995D01*
Y23245D01*
X54028D01*
Y23277D01*
X54061D01*
Y23343D01*
X54094D01*
Y23409D01*
X54127D01*
Y23442D01*
X54159D01*
Y23475D01*
X54193D01*
Y23541D01*
X54225D01*
Y23607D01*
X54258D01*
Y23640D01*
X54291D01*
Y23706D01*
X54324D01*
Y23739D01*
X54357D01*
Y23772D01*
X54390D01*
Y23838D01*
X54423D01*
Y23871D01*
X54456D01*
Y23904D01*
X54489D01*
Y23970D01*
X54522D01*
Y24036D01*
X54555D01*
Y24102D01*
X54621D01*
Y24167D01*
X54654D01*
Y24200D01*
X54687D01*
Y24233D01*
X54720D01*
Y24299D01*
X54753D01*
Y24365D01*
X54786D01*
Y24398D01*
X54819D01*
Y24431D01*
X54852D01*
Y24497D01*
X54885D01*
Y24530D01*
X54918D01*
Y24563D01*
X54951D01*
Y24629D01*
X54984D01*
Y24662D01*
X55016D01*
Y24695D01*
X55050D01*
Y24761D01*
X55082D01*
Y24794D01*
X55115D01*
Y24827D01*
X55148D01*
Y24860D01*
X55181D01*
Y24926D01*
X55214D01*
Y24959D01*
X55247D01*
Y24992D01*
X55280D01*
Y25025D01*
X55313D01*
Y25090D01*
X55346D01*
Y25123D01*
X55379D01*
Y25156D01*
X55412D01*
Y25189D01*
X55445D01*
Y25222D01*
X55478D01*
Y25255D01*
X55511D01*
Y25321D01*
X55544D01*
Y25354D01*
X55577D01*
Y25387D01*
X55610D01*
Y25420D01*
X55643D01*
Y25453D01*
X55676D01*
Y25519D01*
X55709D01*
Y25552D01*
X55742D01*
Y25585D01*
X55775D01*
Y25618D01*
X55808D01*
Y25651D01*
X55841D01*
Y25684D01*
X55874D01*
Y25750D01*
X55906D01*
Y25783D01*
X55972D01*
Y25848D01*
X56005D01*
Y25881D01*
X56038D01*
Y25914D01*
X56071D01*
Y25947D01*
X56104D01*
Y25980D01*
X56137D01*
Y26013D01*
X56170D01*
Y26046D01*
X56203D01*
Y26079D01*
X56236D01*
Y26112D01*
X56269D01*
Y26145D01*
X56302D01*
Y26178D01*
X56335D01*
Y26211D01*
X56368D01*
Y26244D01*
X56434D01*
Y26277D01*
X56467D01*
Y26310D01*
X56500D01*
Y26343D01*
X56533D01*
Y26376D01*
X56566D01*
Y26409D01*
X56599D01*
Y26442D01*
X56632D01*
Y26475D01*
X56665D01*
Y26508D01*
X56698D01*
Y26541D01*
X56764D01*
Y26574D01*
X56796D01*
Y26607D01*
X56830D01*
Y26640D01*
X56862D01*
Y26673D01*
X56928D01*
Y26706D01*
X56961D01*
Y26739D01*
X56994D01*
Y26772D01*
X57060D01*
Y26805D01*
X57093D01*
Y26837D01*
X57126D01*
Y26870D01*
X57159D01*
Y26903D01*
X57225D01*
Y26936D01*
X57258D01*
Y26969D01*
X57324D01*
Y27002D01*
X57390D01*
Y27068D01*
X57456D01*
Y27101D01*
X57522D01*
Y27134D01*
X57588D01*
Y27167D01*
X57621D01*
Y27200D01*
X57654D01*
Y27233D01*
X57719D01*
Y27266D01*
X57753D01*
Y27299D01*
X57818D01*
Y27332D01*
X57884D01*
Y27365D01*
X57950D01*
Y27398D01*
X57983D01*
Y27431D01*
X58049D01*
Y27464D01*
X58115D01*
Y27530D01*
X58247D01*
Y27563D01*
X58313D01*
Y27596D01*
X58346D01*
Y27628D01*
X58412D01*
Y27661D01*
X58511D01*
Y27694D01*
X58577D01*
Y27727D01*
X58643D01*
Y27760D01*
X58708D01*
Y27793D01*
X58807D01*
Y27826D01*
X58873D01*
Y27859D01*
X58939D01*
Y27892D01*
X59071D01*
Y27925D01*
X59104D01*
Y27958D01*
X59170D01*
Y27991D01*
X59335D01*
Y28024D01*
X59401D01*
Y28057D01*
X59466D01*
Y28090D01*
X59598D01*
Y28123D01*
X59730D01*
Y28156D01*
X59796D01*
Y28189D01*
X59895D01*
Y28222D01*
X60126D01*
Y28255D01*
X60192D01*
Y28288D01*
X60291D01*
Y28321D01*
X60554D01*
Y28354D01*
X60719D01*
Y28387D01*
X60785D01*
Y28420D01*
X61148D01*
Y28453D01*
X61576D01*
Y28486D01*
X61675D01*
Y28519D01*
X62038D01*
Y28552D01*
X63060D01*
Y28519D01*
D02*
G37*
G36*
X7446Y29030D02*
X7523D01*
Y26560D01*
X15628D01*
Y26482D01*
X15705D01*
Y26405D01*
X15782D01*
Y25016D01*
X15705D01*
Y24939D01*
X7523D01*
Y22469D01*
X7446D01*
Y22392D01*
X6288D01*
Y22469D01*
X6211D01*
Y29030D01*
X6288D01*
Y29107D01*
X7446D01*
Y29030D01*
D02*
G37*
G36*
X14084Y21543D02*
X14470D01*
Y21465D01*
X14702D01*
Y21388D01*
X14856D01*
Y21311D01*
X15010D01*
Y21234D01*
X15087D01*
Y21157D01*
X15165D01*
Y21080D01*
X15242D01*
Y21002D01*
X15319D01*
Y20925D01*
X15396D01*
Y20771D01*
X15473D01*
Y20616D01*
X15551D01*
Y20462D01*
X15628D01*
Y20230D01*
X15705D01*
Y19999D01*
X15782D01*
Y18378D01*
X15705D01*
Y18146D01*
X15628D01*
Y17915D01*
X15551D01*
Y17761D01*
X15473D01*
Y17606D01*
X15396D01*
Y17452D01*
X15319D01*
Y17375D01*
X15242D01*
Y17297D01*
X15165D01*
Y17220D01*
X15087D01*
Y17143D01*
X15010D01*
Y17066D01*
X14933D01*
Y16989D01*
X14779D01*
Y16912D01*
X14624D01*
Y16834D01*
X14315D01*
Y16757D01*
X9916D01*
Y16834D01*
X9684D01*
Y16912D01*
X9530D01*
Y16989D01*
X9376D01*
Y17066D01*
X9298D01*
Y17143D01*
X9221D01*
Y17220D01*
X9144D01*
Y17297D01*
X9067D01*
Y17375D01*
X8990D01*
Y17452D01*
X8913D01*
Y17606D01*
X8835D01*
Y17761D01*
X8758D01*
Y17915D01*
X8681D01*
Y18146D01*
X8604D01*
Y18378D01*
X8527D01*
Y19999D01*
X8604D01*
Y20230D01*
X8681D01*
Y20462D01*
X8758D01*
Y20616D01*
X8835D01*
Y20771D01*
X8913D01*
Y20848D01*
X8990D01*
Y20925D01*
X9067D01*
Y21080D01*
X9144D01*
Y21157D01*
X9221D01*
Y21234D01*
X9376D01*
Y21311D01*
X9453D01*
Y21388D01*
X9684D01*
Y21465D01*
X9916D01*
Y21543D01*
X10302D01*
Y21620D01*
X12232D01*
Y21543D01*
X12309D01*
Y21465D01*
X12386D01*
Y18378D01*
X14161D01*
Y18455D01*
X14315D01*
Y18532D01*
X14393D01*
Y18841D01*
X14470D01*
Y19459D01*
X14393D01*
Y19767D01*
X14315D01*
Y19845D01*
X14238D01*
Y19922D01*
X13235D01*
Y19999D01*
X13158D01*
Y20076D01*
X13081D01*
Y21465D01*
X13158D01*
Y21543D01*
X13235D01*
Y21620D01*
X14084D01*
Y21543D01*
D02*
G37*
G36*
X70509Y22321D02*
X70608D01*
Y22288D01*
X70674D01*
Y22256D01*
X70707D01*
Y22223D01*
X70773D01*
Y22190D01*
X70806D01*
Y22124D01*
X70839D01*
Y22091D01*
X70872D01*
Y22025D01*
X70905D01*
Y21992D01*
X70938D01*
Y21959D01*
X70971D01*
Y21827D01*
X71004D01*
Y21728D01*
X71036D01*
Y21695D01*
X71070D01*
Y21563D01*
X71102D01*
Y21431D01*
X71135D01*
Y21398D01*
X71168D01*
Y21300D01*
X71201D01*
Y21102D01*
X71234D01*
Y20970D01*
X71267D01*
Y20871D01*
X71300D01*
Y20706D01*
X71333D01*
Y20476D01*
X71366D01*
Y20410D01*
X71399D01*
Y20212D01*
X71432D01*
Y19783D01*
X71465D01*
Y19618D01*
X71498D01*
Y19487D01*
X71531D01*
Y17377D01*
X71498D01*
Y17212D01*
X71465D01*
Y16982D01*
X71432D01*
Y16421D01*
X71399D01*
Y16256D01*
X71366D01*
Y16157D01*
X71333D01*
Y15927D01*
X71300D01*
Y15597D01*
X71267D01*
Y15531D01*
X71234D01*
Y15399D01*
X71201D01*
Y15136D01*
X71168D01*
Y15037D01*
X71135D01*
Y14905D01*
X71102D01*
Y14740D01*
X71070D01*
Y14674D01*
X71036D01*
Y14641D01*
X71004D01*
Y14608D01*
X70971D01*
Y14542D01*
X70938D01*
Y14509D01*
X70905D01*
Y14476D01*
X70872D01*
Y14443D01*
X70806D01*
Y14410D01*
X70707D01*
Y14377D01*
X70674D01*
Y14345D01*
X70377D01*
Y14377D01*
X70311D01*
Y14410D01*
X70278D01*
Y14443D01*
X70179D01*
Y14476D01*
X70114D01*
Y14542D01*
X70081D01*
Y14575D01*
X70015D01*
Y14674D01*
X69982D01*
Y14773D01*
X69949D01*
Y14806D01*
X69916D01*
Y15070D01*
X69949D01*
Y15168D01*
X69982D01*
Y15399D01*
X70015D01*
Y15564D01*
X70048D01*
Y15630D01*
X70081D01*
Y15795D01*
X70114D01*
Y16157D01*
X70147D01*
Y16256D01*
X70179D01*
Y16388D01*
X70213D01*
Y16850D01*
X70245D01*
Y17080D01*
X70278D01*
Y17212D01*
X70311D01*
Y17905D01*
X70344D01*
Y19025D01*
X70311D01*
Y19586D01*
X70278D01*
Y19684D01*
X70245D01*
Y19915D01*
X70213D01*
Y20278D01*
X70179D01*
Y20410D01*
X70147D01*
Y20476D01*
X70114D01*
Y20739D01*
X70081D01*
Y20871D01*
X70048D01*
Y20904D01*
X70015D01*
Y21036D01*
X69982D01*
Y21201D01*
X69949D01*
Y21234D01*
X69916D01*
Y21300D01*
X69883D01*
Y21431D01*
X69850D01*
Y21530D01*
X69817D01*
Y21563D01*
X69784D01*
Y21992D01*
X69817D01*
Y22058D01*
X69850D01*
Y22091D01*
X69883D01*
Y22157D01*
X69916D01*
Y22190D01*
X69949D01*
Y22223D01*
X69982D01*
Y22256D01*
X70015D01*
Y22288D01*
X70114D01*
Y22321D01*
X70213D01*
Y22354D01*
X70509D01*
Y22321D01*
D02*
G37*
G36*
X63389Y26277D02*
X63488D01*
Y26244D01*
X63653D01*
Y26211D01*
X63982D01*
Y26178D01*
X64081D01*
Y26145D01*
X64180D01*
Y26112D01*
X64378D01*
Y26079D01*
X64543D01*
Y26046D01*
X64609D01*
Y26013D01*
X64708D01*
Y25980D01*
X64872D01*
Y25947D01*
X64905D01*
Y25914D01*
X64971D01*
Y25881D01*
X65169D01*
Y25848D01*
X65235D01*
Y25816D01*
X65268D01*
Y25783D01*
X65400D01*
Y25750D01*
X65499D01*
Y25717D01*
X65532D01*
Y25684D01*
X65598D01*
Y25651D01*
X65664D01*
Y25618D01*
X65729D01*
Y25585D01*
X65763D01*
Y25552D01*
X65861D01*
Y25519D01*
X65927D01*
Y25486D01*
X65960D01*
Y25453D01*
X66026D01*
Y25420D01*
X66125D01*
Y25387D01*
X66158D01*
Y25354D01*
X66224D01*
Y25321D01*
X66290D01*
Y25288D01*
X66323D01*
Y25255D01*
X66356D01*
Y25222D01*
X66422D01*
Y25189D01*
X66488D01*
Y25156D01*
X66521D01*
Y25123D01*
X66587D01*
Y25090D01*
X66619D01*
Y25057D01*
X66653D01*
Y25025D01*
X66718D01*
Y24992D01*
X66751D01*
Y24959D01*
X66817D01*
Y24926D01*
X66850D01*
Y24893D01*
X66883D01*
Y24860D01*
X66949D01*
Y24827D01*
X66982D01*
Y24794D01*
X67015D01*
Y24761D01*
X67081D01*
Y24728D01*
X67114D01*
Y24695D01*
X67147D01*
Y24662D01*
X67180D01*
Y24629D01*
X67213D01*
Y24596D01*
X67246D01*
Y24563D01*
X67279D01*
Y24530D01*
X67312D01*
Y24497D01*
X67345D01*
Y24464D01*
X67411D01*
Y24431D01*
X67444D01*
Y24365D01*
X67476D01*
Y24332D01*
X67542D01*
Y24299D01*
X67575D01*
Y24266D01*
X67608D01*
Y24233D01*
X67641D01*
Y24200D01*
X67674D01*
Y24135D01*
X67707D01*
Y24102D01*
X67740D01*
Y24069D01*
X67773D01*
Y24036D01*
X67806D01*
Y24003D01*
X67839D01*
Y23970D01*
X67872D01*
Y23937D01*
X67905D01*
Y23904D01*
X67938D01*
Y23871D01*
X67971D01*
Y23805D01*
X68004D01*
Y23772D01*
X68070D01*
Y23739D01*
X68103D01*
Y23673D01*
X68136D01*
Y23640D01*
X68169D01*
Y23574D01*
X68202D01*
Y23541D01*
X68235D01*
Y23508D01*
X68268D01*
Y23475D01*
X68301D01*
Y23409D01*
X68334D01*
Y23343D01*
X68366D01*
Y23310D01*
X68400D01*
Y23277D01*
X68432D01*
Y23212D01*
X68465D01*
Y23178D01*
X68498D01*
Y23146D01*
X68531D01*
Y23047D01*
X68564D01*
Y23014D01*
X68597D01*
Y22981D01*
X68630D01*
Y22915D01*
X68663D01*
Y22882D01*
X68696D01*
Y22849D01*
X68729D01*
Y22750D01*
X68762D01*
Y22684D01*
X68795D01*
Y22651D01*
X68828D01*
Y22585D01*
X68861D01*
Y22519D01*
X68894D01*
Y22453D01*
X68927D01*
Y22420D01*
X68960D01*
Y22321D01*
X68993D01*
Y22256D01*
X69026D01*
Y22190D01*
X69059D01*
Y22157D01*
X69092D01*
Y22025D01*
X69125D01*
Y21992D01*
X69158D01*
Y21926D01*
X69191D01*
Y21794D01*
X69224D01*
Y21728D01*
X69257D01*
Y21662D01*
X69289D01*
Y21563D01*
X69323D01*
Y21431D01*
X69355D01*
Y21366D01*
X69388D01*
Y21300D01*
X69421D01*
Y21102D01*
X69454D01*
Y21003D01*
X69487D01*
Y20904D01*
X69520D01*
Y20574D01*
X69553D01*
Y19520D01*
X69520D01*
Y18827D01*
X69487D01*
Y18729D01*
X69454D01*
Y18564D01*
X69421D01*
Y18102D01*
X69388D01*
Y17970D01*
X69355D01*
Y17872D01*
X69323D01*
Y17575D01*
X69289D01*
Y17311D01*
X69257D01*
Y17212D01*
X69224D01*
Y17015D01*
X69191D01*
Y16652D01*
X69158D01*
Y16520D01*
X69125D01*
Y16355D01*
X69092D01*
Y15696D01*
X69059D01*
Y15300D01*
X69092D01*
Y14938D01*
X69125D01*
Y14872D01*
X69158D01*
Y14839D01*
X69191D01*
Y14674D01*
X69224D01*
Y14608D01*
X69257D01*
Y14542D01*
X69289D01*
Y14476D01*
X69323D01*
Y14377D01*
X69355D01*
Y14311D01*
X69388D01*
Y14278D01*
X69421D01*
Y14180D01*
X69454D01*
Y14147D01*
X69487D01*
Y14114D01*
X69520D01*
Y14048D01*
X69553D01*
Y13982D01*
X69586D01*
Y13949D01*
X69619D01*
Y13916D01*
X69652D01*
Y13850D01*
X69685D01*
Y13817D01*
X69718D01*
Y13784D01*
X69751D01*
Y13718D01*
X69784D01*
Y13685D01*
X69817D01*
Y13652D01*
X69850D01*
Y13619D01*
X69883D01*
Y13553D01*
X69916D01*
Y13520D01*
X69949D01*
Y13487D01*
X69982D01*
Y13454D01*
X70015D01*
Y13421D01*
X70048D01*
Y13388D01*
X70081D01*
Y13356D01*
X70114D01*
Y13290D01*
X70179D01*
Y13224D01*
X70213D01*
Y13191D01*
X70278D01*
Y13125D01*
X70311D01*
Y13092D01*
X70344D01*
Y13059D01*
X70410D01*
Y12993D01*
X70443D01*
Y12960D01*
X70509D01*
Y12927D01*
X70542D01*
Y12861D01*
X70575D01*
Y12828D01*
X70608D01*
Y12795D01*
X70641D01*
Y12696D01*
X70674D01*
Y12564D01*
X70707D01*
Y12367D01*
X70674D01*
Y12268D01*
X70641D01*
Y12169D01*
X70608D01*
Y12136D01*
X70575D01*
Y12103D01*
X70542D01*
Y12070D01*
X70509D01*
Y12037D01*
X70476D01*
Y12004D01*
X70410D01*
Y11971D01*
X70344D01*
Y11938D01*
X70278D01*
Y11905D01*
X70179D01*
Y11872D01*
X70015D01*
Y11905D01*
X69916D01*
Y11938D01*
X69883D01*
Y11971D01*
X69817D01*
Y12004D01*
X69751D01*
Y12037D01*
X69685D01*
Y12070D01*
X69652D01*
Y12103D01*
X69619D01*
Y12136D01*
X69586D01*
Y12169D01*
X69553D01*
Y12202D01*
X69520D01*
Y12235D01*
X69487D01*
Y12268D01*
X69454D01*
Y12301D01*
X69421D01*
Y12334D01*
X69388D01*
Y12367D01*
X69355D01*
Y12400D01*
X69323D01*
Y12433D01*
X69289D01*
Y12466D01*
X69257D01*
Y12499D01*
X69224D01*
Y12564D01*
X69191D01*
Y12597D01*
X69158D01*
Y12630D01*
X69125D01*
Y12663D01*
X69092D01*
Y12696D01*
X69059D01*
Y12729D01*
X69026D01*
Y12762D01*
X68993D01*
Y12828D01*
X68960D01*
Y12861D01*
X68927D01*
Y12894D01*
X68894D01*
Y12927D01*
X68861D01*
Y12993D01*
X68795D01*
Y13059D01*
X68762D01*
Y13092D01*
X68729D01*
Y13125D01*
X68696D01*
Y13158D01*
X68663D01*
Y13257D01*
X68630D01*
Y13290D01*
X68597D01*
Y13323D01*
X68564D01*
Y13356D01*
X68531D01*
Y13454D01*
X68498D01*
Y13487D01*
X68465D01*
Y13520D01*
X68432D01*
Y13586D01*
X68400D01*
Y13652D01*
X68366D01*
Y13685D01*
X68334D01*
Y13751D01*
X68301D01*
Y13850D01*
X68268D01*
Y13883D01*
X68235D01*
Y13916D01*
X68202D01*
Y14015D01*
X68169D01*
Y14081D01*
X68136D01*
Y14180D01*
X68103D01*
Y14278D01*
X68070D01*
Y14377D01*
X68037D01*
Y14443D01*
X68004D01*
Y14575D01*
X67971D01*
Y14707D01*
X67938D01*
Y14773D01*
X67905D01*
Y14905D01*
X67872D01*
Y16289D01*
X67905D01*
Y16520D01*
X67938D01*
Y16619D01*
X67971D01*
Y16883D01*
X68004D01*
Y17212D01*
X68037D01*
Y17311D01*
X68070D01*
Y17476D01*
X68103D01*
Y17872D01*
X68136D01*
Y18003D01*
X68169D01*
Y18102D01*
X68202D01*
Y18432D01*
X68235D01*
Y18729D01*
X68268D01*
Y18827D01*
X68301D01*
Y19091D01*
X68334D01*
Y20080D01*
X68366D01*
Y20179D01*
X68334D01*
Y20739D01*
X68301D01*
Y20871D01*
X68268D01*
Y20904D01*
X68235D01*
Y21036D01*
X68202D01*
Y21168D01*
X68169D01*
Y21234D01*
X68136D01*
Y21300D01*
X68103D01*
Y21398D01*
X68070D01*
Y21464D01*
X68037D01*
Y21530D01*
X68004D01*
Y21629D01*
X67971D01*
Y21695D01*
X67938D01*
Y21761D01*
X67905D01*
Y21827D01*
X67872D01*
Y21893D01*
X67839D01*
Y21959D01*
X67806D01*
Y21992D01*
X67773D01*
Y22091D01*
X67740D01*
Y22124D01*
X67707D01*
Y22157D01*
X67674D01*
Y22223D01*
X67641D01*
Y22288D01*
X67608D01*
Y22354D01*
X67575D01*
Y22387D01*
X67542D01*
Y22453D01*
X67510D01*
Y22486D01*
X67476D01*
Y22552D01*
X67444D01*
Y22585D01*
X67411D01*
Y22651D01*
X67378D01*
Y22684D01*
X67345D01*
Y22717D01*
X67312D01*
Y22783D01*
X67279D01*
Y22816D01*
X67246D01*
Y22849D01*
X67213D01*
Y22915D01*
X67180D01*
Y22948D01*
X67147D01*
Y22981D01*
X67114D01*
Y23047D01*
X67081D01*
Y23080D01*
X67048D01*
Y23113D01*
X67015D01*
Y23146D01*
X66982D01*
Y23178D01*
X66949D01*
Y23212D01*
X66916D01*
Y23245D01*
X66883D01*
Y23277D01*
X66850D01*
Y23310D01*
X66817D01*
Y23343D01*
X66784D01*
Y23376D01*
X66751D01*
Y23442D01*
X66685D01*
Y23475D01*
X66653D01*
Y23541D01*
X66587D01*
Y23574D01*
X66554D01*
Y23607D01*
X66521D01*
Y23640D01*
X66488D01*
Y23673D01*
X66455D01*
Y23706D01*
X66422D01*
Y23739D01*
X66389D01*
Y23772D01*
X66356D01*
Y23805D01*
X66290D01*
Y23871D01*
X66224D01*
Y23904D01*
X66191D01*
Y23937D01*
X66125D01*
Y23970D01*
X66092D01*
Y24003D01*
X66026D01*
Y24036D01*
X65993D01*
Y24069D01*
X65960D01*
Y24102D01*
X65894D01*
Y24135D01*
X65861D01*
Y24167D01*
X65828D01*
Y24200D01*
X65763D01*
Y24233D01*
X65664D01*
Y24266D01*
X65631D01*
Y24299D01*
X65598D01*
Y24332D01*
X65532D01*
Y24365D01*
X65466D01*
Y24398D01*
X65433D01*
Y24431D01*
X65367D01*
Y24464D01*
X65301D01*
Y24497D01*
X65235D01*
Y24530D01*
X65169D01*
Y24563D01*
X65070D01*
Y24596D01*
X65037D01*
Y24629D01*
X64971D01*
Y24662D01*
X64840D01*
Y24695D01*
X64774D01*
Y24728D01*
X64741D01*
Y24761D01*
X64609D01*
Y24794D01*
X64477D01*
Y24827D01*
X64411D01*
Y24860D01*
X64312D01*
Y24893D01*
X64114D01*
Y24926D01*
X64048D01*
Y24959D01*
X63950D01*
Y24992D01*
X63719D01*
Y25025D01*
X63455D01*
Y25057D01*
X63389D01*
Y25090D01*
X63092D01*
Y25123D01*
X61741D01*
Y25090D01*
X61543D01*
Y25057D01*
X61444D01*
Y25025D01*
X61247D01*
Y24992D01*
X61016D01*
Y24959D01*
X60950D01*
Y24926D01*
X60851D01*
Y24893D01*
X60653D01*
Y24860D01*
X60554D01*
Y24827D01*
X60521D01*
Y24794D01*
X60422D01*
Y24761D01*
X60291D01*
Y24728D01*
X60258D01*
Y24695D01*
X60192D01*
Y24662D01*
X60093D01*
Y24629D01*
X60027D01*
Y24596D01*
X59961D01*
Y24563D01*
X59895D01*
Y24530D01*
X59829D01*
Y24497D01*
X59796D01*
Y24464D01*
X59697D01*
Y24431D01*
X59631D01*
Y24398D01*
X59598D01*
Y24365D01*
X59532D01*
Y24332D01*
X59466D01*
Y24299D01*
X59434D01*
Y24266D01*
X59401D01*
Y24233D01*
X59335D01*
Y24200D01*
X59269D01*
Y24135D01*
X59203D01*
Y24102D01*
X59137D01*
Y24069D01*
X59104D01*
Y24036D01*
X59071D01*
Y24003D01*
X59005D01*
Y23970D01*
X58972D01*
Y23937D01*
X58939D01*
Y23904D01*
X58873D01*
Y23871D01*
X58840D01*
Y23838D01*
X58807D01*
Y23805D01*
X58774D01*
Y23772D01*
X58741D01*
Y23739D01*
X58708D01*
Y23706D01*
X58675D01*
Y23673D01*
X58643D01*
Y23640D01*
X58609D01*
Y23607D01*
X58577D01*
Y23574D01*
X58544D01*
Y23541D01*
X58478D01*
Y23475D01*
X58445D01*
Y23442D01*
X58379D01*
Y23409D01*
X58346D01*
Y23376D01*
X58313D01*
Y23310D01*
X58280D01*
Y23277D01*
X58247D01*
Y23245D01*
X58214D01*
Y23212D01*
X58181D01*
Y23178D01*
X58148D01*
Y23146D01*
X58115D01*
Y23113D01*
X58082D01*
Y23080D01*
X58049D01*
Y23047D01*
X58016D01*
Y23014D01*
X57983D01*
Y22981D01*
X57950D01*
Y22915D01*
X57917D01*
Y22882D01*
X57884D01*
Y22849D01*
X57851D01*
Y22783D01*
X57818D01*
Y22750D01*
X57785D01*
Y22717D01*
X57753D01*
Y22651D01*
X57719D01*
Y22618D01*
X57687D01*
Y22585D01*
X57654D01*
Y22519D01*
X57621D01*
Y22486D01*
X57588D01*
Y22453D01*
X57555D01*
Y22420D01*
X57522D01*
Y22354D01*
X57489D01*
Y22288D01*
X57456D01*
Y22256D01*
X57423D01*
Y22190D01*
X57390D01*
Y22124D01*
X57324D01*
Y22058D01*
X57291D01*
Y21992D01*
X57258D01*
Y21959D01*
X57225D01*
Y21926D01*
X57192D01*
Y21860D01*
X57159D01*
Y21794D01*
X57126D01*
Y21761D01*
X57093D01*
Y21695D01*
X57060D01*
Y21629D01*
X57027D01*
Y21596D01*
X56994D01*
Y21530D01*
X56961D01*
Y21464D01*
X56928D01*
Y21431D01*
X56895D01*
Y21398D01*
X56862D01*
Y21300D01*
X56830D01*
Y21234D01*
X56796D01*
Y21201D01*
X56764D01*
Y21168D01*
X56731D01*
Y21102D01*
X56698D01*
Y21069D01*
X56665D01*
Y21003D01*
X56632D01*
Y20937D01*
X56599D01*
Y20904D01*
X56566D01*
Y20871D01*
X56533D01*
Y20805D01*
X56500D01*
Y20772D01*
X56467D01*
Y20739D01*
X56434D01*
Y20673D01*
X56401D01*
Y20607D01*
X56368D01*
Y20574D01*
X56335D01*
Y20541D01*
X56302D01*
Y20508D01*
X56269D01*
Y20443D01*
X56236D01*
Y20410D01*
X56203D01*
Y20377D01*
X56170D01*
Y20344D01*
X56137D01*
Y20311D01*
X56104D01*
Y20245D01*
X56071D01*
Y20212D01*
X56038D01*
Y20179D01*
X56005D01*
Y20146D01*
X55972D01*
Y20113D01*
X55940D01*
Y20047D01*
X55906D01*
Y20014D01*
X55874D01*
Y19981D01*
X55841D01*
Y19948D01*
X55808D01*
Y19915D01*
X55775D01*
Y19882D01*
X55742D01*
Y19849D01*
X55709D01*
Y19816D01*
X55676D01*
Y19783D01*
X55643D01*
Y19750D01*
X55610D01*
Y19717D01*
X55577D01*
Y19684D01*
X55544D01*
Y19651D01*
X55478D01*
Y19618D01*
X55445D01*
Y19586D01*
X55412D01*
Y19553D01*
X55379D01*
Y19520D01*
X55346D01*
Y19487D01*
X55280D01*
Y19454D01*
X55247D01*
Y19421D01*
X55214D01*
Y19388D01*
X55181D01*
Y19355D01*
X55148D01*
Y19322D01*
X55082D01*
Y19289D01*
X55050D01*
Y19256D01*
X55016D01*
Y19223D01*
X54951D01*
Y19190D01*
X54918D01*
Y19157D01*
X54885D01*
Y19124D01*
X54852D01*
Y19091D01*
X54786D01*
Y19058D01*
X54753D01*
Y19025D01*
X54720D01*
Y18992D01*
X54621D01*
Y18959D01*
X54588D01*
Y18926D01*
X54555D01*
Y18893D01*
X54456D01*
Y18860D01*
X54390D01*
Y18827D01*
X54357D01*
Y18794D01*
X53929D01*
Y18827D01*
X53896D01*
Y18860D01*
X53830D01*
Y18893D01*
X53797D01*
Y18926D01*
X53764D01*
Y18959D01*
X53698D01*
Y18992D01*
X53665D01*
Y19025D01*
X53632D01*
Y19124D01*
X53599D01*
Y19190D01*
X53566D01*
Y19223D01*
X53533D01*
Y19520D01*
X53566D01*
Y19586D01*
X53599D01*
Y19618D01*
X53632D01*
Y19717D01*
X53665D01*
Y19750D01*
X53698D01*
Y19783D01*
X53731D01*
Y19816D01*
X53764D01*
Y19849D01*
X53830D01*
Y19882D01*
X53863D01*
Y19915D01*
X53896D01*
Y19948D01*
X53962D01*
Y19981D01*
X54028D01*
Y20014D01*
X54094D01*
Y20047D01*
X54127D01*
Y20080D01*
X54159D01*
Y20113D01*
X54225D01*
Y20146D01*
X54258D01*
Y20179D01*
X54291D01*
Y20212D01*
X54357D01*
Y20245D01*
X54390D01*
Y20278D01*
X54423D01*
Y20311D01*
X54456D01*
Y20344D01*
X54522D01*
Y20377D01*
X54555D01*
Y20410D01*
X54588D01*
Y20443D01*
X54621D01*
Y20476D01*
X54654D01*
Y20508D01*
X54687D01*
Y20541D01*
X54720D01*
Y20574D01*
X54753D01*
Y20607D01*
X54786D01*
Y20640D01*
X54819D01*
Y20673D01*
X54852D01*
Y20706D01*
X54885D01*
Y20739D01*
X54918D01*
Y20772D01*
X54951D01*
Y20805D01*
X54984D01*
Y20838D01*
X55016D01*
Y20871D01*
X55050D01*
Y20904D01*
X55082D01*
Y20970D01*
X55148D01*
Y21003D01*
X55181D01*
Y21036D01*
X55214D01*
Y21102D01*
X55280D01*
Y21168D01*
X55313D01*
Y21234D01*
X55379D01*
Y21300D01*
X55412D01*
Y21333D01*
X55445D01*
Y21398D01*
X55478D01*
Y21431D01*
X55511D01*
Y21497D01*
X55544D01*
Y21530D01*
X55577D01*
Y21563D01*
X55610D01*
Y21629D01*
X55643D01*
Y21695D01*
X55676D01*
Y21761D01*
X55709D01*
Y21794D01*
X55742D01*
Y21827D01*
X55775D01*
Y21893D01*
X55808D01*
Y21926D01*
X55841D01*
Y21992D01*
X55874D01*
Y22058D01*
X55906D01*
Y22091D01*
X55940D01*
Y22157D01*
X55972D01*
Y22223D01*
X56005D01*
Y22288D01*
X56038D01*
Y22321D01*
X56071D01*
Y22387D01*
X56104D01*
Y22453D01*
X56137D01*
Y22486D01*
X56170D01*
Y22519D01*
X56203D01*
Y22585D01*
X56236D01*
Y22651D01*
X56269D01*
Y22684D01*
X56302D01*
Y22750D01*
X56335D01*
Y22816D01*
X56368D01*
Y22849D01*
X56401D01*
Y22882D01*
X56434D01*
Y22948D01*
X56467D01*
Y22981D01*
X56500D01*
Y23014D01*
X56533D01*
Y23080D01*
X56566D01*
Y23113D01*
X56599D01*
Y23146D01*
X56632D01*
Y23212D01*
X56665D01*
Y23277D01*
X56698D01*
Y23310D01*
X56731D01*
Y23343D01*
X56764D01*
Y23409D01*
X56796D01*
Y23442D01*
X56830D01*
Y23475D01*
X56862D01*
Y23508D01*
X56895D01*
Y23574D01*
X56928D01*
Y23607D01*
X56961D01*
Y23640D01*
X56994D01*
Y23673D01*
X57027D01*
Y23739D01*
X57060D01*
Y23772D01*
X57093D01*
Y23805D01*
X57126D01*
Y23838D01*
X57159D01*
Y23871D01*
X57192D01*
Y23904D01*
X57225D01*
Y23970D01*
X57291D01*
Y24036D01*
X57324D01*
Y24069D01*
X57357D01*
Y24102D01*
X57390D01*
Y24135D01*
X57423D01*
Y24167D01*
X57456D01*
Y24200D01*
X57489D01*
Y24233D01*
X57522D01*
Y24266D01*
X57555D01*
Y24299D01*
X57588D01*
Y24332D01*
X57621D01*
Y24365D01*
X57654D01*
Y24398D01*
X57687D01*
Y24431D01*
X57719D01*
Y24464D01*
X57753D01*
Y24497D01*
X57785D01*
Y24530D01*
X57818D01*
Y24563D01*
X57851D01*
Y24596D01*
X57884D01*
Y24629D01*
X57917D01*
Y24662D01*
X57983D01*
Y24728D01*
X58049D01*
Y24761D01*
X58082D01*
Y24794D01*
X58115D01*
Y24827D01*
X58148D01*
Y24860D01*
X58214D01*
Y24893D01*
X58247D01*
Y24926D01*
X58280D01*
Y24959D01*
X58313D01*
Y24992D01*
X58379D01*
Y25025D01*
X58412D01*
Y25057D01*
X58445D01*
Y25090D01*
X58511D01*
Y25123D01*
X58544D01*
Y25156D01*
X58577D01*
Y25189D01*
X58643D01*
Y25222D01*
X58708D01*
Y25255D01*
X58741D01*
Y25288D01*
X58807D01*
Y25321D01*
X58873D01*
Y25354D01*
X58906D01*
Y25387D01*
X58972D01*
Y25420D01*
X59038D01*
Y25453D01*
X59104D01*
Y25486D01*
X59137D01*
Y25519D01*
X59203D01*
Y25552D01*
X59269D01*
Y25585D01*
X59335D01*
Y25618D01*
X59368D01*
Y25651D01*
X59466D01*
Y25684D01*
X59532D01*
Y25717D01*
X59565D01*
Y25750D01*
X59664D01*
Y25783D01*
X59763D01*
Y25816D01*
X59829D01*
Y25848D01*
X59862D01*
Y25881D01*
X60027D01*
Y25914D01*
X60093D01*
Y25947D01*
X60126D01*
Y25980D01*
X60291D01*
Y26013D01*
X60422D01*
Y26046D01*
X60455D01*
Y26079D01*
X60587D01*
Y26112D01*
X60785D01*
Y26145D01*
X60818D01*
Y26178D01*
X60983D01*
Y26211D01*
X61313D01*
Y26244D01*
X61444D01*
Y26277D01*
X61576D01*
Y26310D01*
X63389D01*
Y26277D01*
D02*
G37*
G36*
X14393Y13284D02*
X14624D01*
Y13207D01*
X14702D01*
Y13129D01*
X14856D01*
Y13052D01*
X14933D01*
Y12898D01*
X15010D01*
Y12821D01*
X15087D01*
Y12589D01*
X15165D01*
Y12049D01*
X15087D01*
Y11817D01*
X15010D01*
Y11740D01*
X14933D01*
Y11586D01*
X14856D01*
Y11508D01*
X14702D01*
Y11431D01*
X14624D01*
Y11354D01*
X14393D01*
Y11277D01*
X13852D01*
Y11354D01*
X13621D01*
Y11431D01*
X13544D01*
Y11508D01*
X13389D01*
Y11586D01*
X13312D01*
Y11740D01*
X13235D01*
Y11817D01*
X13158D01*
Y12049D01*
X13081D01*
Y12589D01*
X13158D01*
Y12821D01*
X13235D01*
Y12898D01*
X13312D01*
Y13052D01*
X13389D01*
Y13129D01*
X13544D01*
Y13207D01*
X13621D01*
Y13284D01*
X13852D01*
Y13361D01*
X14393D01*
Y13284D01*
D02*
G37*
G36*
X62565Y19355D02*
X62664D01*
Y19322D01*
X62763D01*
Y19289D01*
X62829D01*
Y19256D01*
X62862D01*
Y19223D01*
X62895D01*
Y19190D01*
X62928D01*
Y19157D01*
X62961D01*
Y19091D01*
X62994D01*
Y19025D01*
X63026D01*
Y18959D01*
X63060D01*
Y18729D01*
X63092D01*
Y18696D01*
X63060D01*
Y18564D01*
X62994D01*
Y18465D01*
X62961D01*
Y18333D01*
X62928D01*
Y18300D01*
X62895D01*
Y18267D01*
X62862D01*
Y18168D01*
X62829D01*
Y18102D01*
X62796D01*
Y18069D01*
X62763D01*
Y17970D01*
X62730D01*
Y17905D01*
X62697D01*
Y17872D01*
X62664D01*
Y17806D01*
X62631D01*
Y17740D01*
X62598D01*
Y17707D01*
X62565D01*
Y17641D01*
X62532D01*
Y17542D01*
X62499D01*
Y17476D01*
X62433D01*
Y17377D01*
X62400D01*
Y17311D01*
X62334D01*
Y17245D01*
X62301D01*
Y17179D01*
X62268D01*
Y17146D01*
X62235D01*
Y17113D01*
X62203D01*
Y17015D01*
X62169D01*
Y16982D01*
X62137D01*
Y16949D01*
X62104D01*
Y16916D01*
X62071D01*
Y16850D01*
X62038D01*
Y16817D01*
X62005D01*
Y16751D01*
X61972D01*
Y16685D01*
X61939D01*
Y16652D01*
X61906D01*
Y16619D01*
X61873D01*
Y16586D01*
X61840D01*
Y16520D01*
X61807D01*
Y16487D01*
X61774D01*
Y16454D01*
X61741D01*
Y16388D01*
X61708D01*
Y16355D01*
X61675D01*
Y16289D01*
X61642D01*
Y16256D01*
X61609D01*
Y16190D01*
X61543D01*
Y16125D01*
X61510D01*
Y16092D01*
X61477D01*
Y16059D01*
X61444D01*
Y15993D01*
X61411D01*
Y15960D01*
X61378D01*
Y15927D01*
X61345D01*
Y15894D01*
X61313D01*
Y15828D01*
X61279D01*
Y15762D01*
X61214D01*
Y15729D01*
X61181D01*
Y15663D01*
X61148D01*
Y15630D01*
X61115D01*
Y15597D01*
X61082D01*
Y15531D01*
X61049D01*
Y15498D01*
X61016D01*
Y15465D01*
X60983D01*
Y15432D01*
X60950D01*
Y15399D01*
X60917D01*
Y15366D01*
X60884D01*
Y15333D01*
X60851D01*
Y15267D01*
X60818D01*
Y15235D01*
X60785D01*
Y15202D01*
X60752D01*
Y15168D01*
X60719D01*
Y15103D01*
X60653D01*
Y15070D01*
X60620D01*
Y15037D01*
X60587D01*
Y15004D01*
X60554D01*
Y14938D01*
X60521D01*
Y14905D01*
X60488D01*
Y14872D01*
X60455D01*
Y14839D01*
X60422D01*
Y14806D01*
X60390D01*
Y14773D01*
X60356D01*
Y14740D01*
X60324D01*
Y14707D01*
X60291D01*
Y14674D01*
X60258D01*
Y14641D01*
X60225D01*
Y14608D01*
X60192D01*
Y14542D01*
X60159D01*
Y14509D01*
X60126D01*
Y14476D01*
X60093D01*
Y14443D01*
X60060D01*
Y14410D01*
X60027D01*
Y14377D01*
X59994D01*
Y14345D01*
X59961D01*
Y14311D01*
X59928D01*
Y14278D01*
X59895D01*
Y14246D01*
X59862D01*
Y14213D01*
X59829D01*
Y14180D01*
X59796D01*
Y14147D01*
X59763D01*
Y14114D01*
X59730D01*
Y14081D01*
X59697D01*
Y14048D01*
X59664D01*
Y14015D01*
X59631D01*
Y13982D01*
X59598D01*
Y13949D01*
X59565D01*
Y13916D01*
X59532D01*
Y13883D01*
X59500D01*
Y13850D01*
X59466D01*
Y13817D01*
X59434D01*
Y13784D01*
X59401D01*
Y13751D01*
X59368D01*
Y13718D01*
X59335D01*
Y13685D01*
X59302D01*
Y13652D01*
X59269D01*
Y13619D01*
X59236D01*
Y13586D01*
X59203D01*
Y13553D01*
X59170D01*
Y13520D01*
X59137D01*
Y13487D01*
X59104D01*
Y13454D01*
X59038D01*
Y13421D01*
X59005D01*
Y13388D01*
X58972D01*
Y13323D01*
X58906D01*
Y13290D01*
X58873D01*
Y13257D01*
X58840D01*
Y13224D01*
X58774D01*
Y13158D01*
X58741D01*
Y13125D01*
X58708D01*
Y13092D01*
X58643D01*
Y13059D01*
X58609D01*
Y13026D01*
X58577D01*
Y12993D01*
X58544D01*
Y12960D01*
X58511D01*
Y12927D01*
X58478D01*
Y12894D01*
X58445D01*
Y12861D01*
X58412D01*
Y12828D01*
X58379D01*
Y12795D01*
X58346D01*
Y12762D01*
X58280D01*
Y12729D01*
X58247D01*
Y12696D01*
X58214D01*
Y12663D01*
X58181D01*
Y12630D01*
X58148D01*
Y12597D01*
X58115D01*
Y12564D01*
X58049D01*
Y12531D01*
X58016D01*
Y12499D01*
X57950D01*
Y12466D01*
X57917D01*
Y12433D01*
X57884D01*
Y12400D01*
X57851D01*
Y12367D01*
X57818D01*
Y12334D01*
X57785D01*
Y12301D01*
X57753D01*
Y12268D01*
X57719D01*
Y12235D01*
X57654D01*
Y12202D01*
X57621D01*
Y12169D01*
X57588D01*
Y12136D01*
X57555D01*
Y12103D01*
X57489D01*
Y12070D01*
X57456D01*
Y12037D01*
X57423D01*
Y12004D01*
X57390D01*
Y11971D01*
X57324D01*
Y11938D01*
X57291D01*
Y11905D01*
X57258D01*
Y11872D01*
X57192D01*
Y11806D01*
X57159D01*
Y11773D01*
X57093D01*
Y11740D01*
X57060D01*
Y11707D01*
X57027D01*
Y11675D01*
X56961D01*
Y11642D01*
X56928D01*
Y11609D01*
X56862D01*
Y11576D01*
X56830D01*
Y11543D01*
X56796D01*
Y11510D01*
X56731D01*
Y11444D01*
X56665D01*
Y11411D01*
X56632D01*
Y11378D01*
X56566D01*
Y11345D01*
X56533D01*
Y11312D01*
X56467D01*
Y11279D01*
X56434D01*
Y11246D01*
X56401D01*
Y11213D01*
X56335D01*
Y11180D01*
X56302D01*
Y11147D01*
X56269D01*
Y11114D01*
X56236D01*
Y11081D01*
X56170D01*
Y11048D01*
X56137D01*
Y11015D01*
X56104D01*
Y10982D01*
X56038D01*
Y10949D01*
X56005D01*
Y10916D01*
X55972D01*
Y10883D01*
X55906D01*
Y10850D01*
X55874D01*
Y10817D01*
X55841D01*
Y10785D01*
X55775D01*
Y10751D01*
X55709D01*
Y10718D01*
X55676D01*
Y10686D01*
X55643D01*
Y10653D01*
X55577D01*
Y10620D01*
X55511D01*
Y10587D01*
X55478D01*
Y10554D01*
X55346D01*
Y10521D01*
X55082D01*
Y10554D01*
X54951D01*
Y10587D01*
X54885D01*
Y10620D01*
X54852D01*
Y10653D01*
X54819D01*
Y10686D01*
X54786D01*
Y10718D01*
X54753D01*
Y10751D01*
X54720D01*
Y10785D01*
X54687D01*
Y10850D01*
X54654D01*
Y10982D01*
X54621D01*
Y11246D01*
X54654D01*
Y11378D01*
X54687D01*
Y11411D01*
X54720D01*
Y11444D01*
X54753D01*
Y11477D01*
X54786D01*
Y11510D01*
X54819D01*
Y11543D01*
X54852D01*
Y11576D01*
X54885D01*
Y11609D01*
X54918D01*
Y11642D01*
X54984D01*
Y11675D01*
X55016D01*
Y11707D01*
X55050D01*
Y11740D01*
X55115D01*
Y11773D01*
X55148D01*
Y11806D01*
X55181D01*
Y11839D01*
X55247D01*
Y11872D01*
X55280D01*
Y11905D01*
X55313D01*
Y11938D01*
X55346D01*
Y11971D01*
X55412D01*
Y12004D01*
X55445D01*
Y12037D01*
X55511D01*
Y12070D01*
X55544D01*
Y12103D01*
X55610D01*
Y12136D01*
X55643D01*
Y12169D01*
X55676D01*
Y12202D01*
X55742D01*
Y12235D01*
X55775D01*
Y12268D01*
X55808D01*
Y12301D01*
X55874D01*
Y12334D01*
X55906D01*
Y12367D01*
X55940D01*
Y12400D01*
X55972D01*
Y12433D01*
X56038D01*
Y12466D01*
X56071D01*
Y12499D01*
X56104D01*
Y12531D01*
X56170D01*
Y12564D01*
X56203D01*
Y12597D01*
X56236D01*
Y12630D01*
X56269D01*
Y12663D01*
X56335D01*
Y12696D01*
X56368D01*
Y12729D01*
X56401D01*
Y12762D01*
X56467D01*
Y12795D01*
X56500D01*
Y12828D01*
X56533D01*
Y12861D01*
X56599D01*
Y12894D01*
X56632D01*
Y12927D01*
X56665D01*
Y12960D01*
X56698D01*
Y12993D01*
X56731D01*
Y13026D01*
X56764D01*
Y13059D01*
X56830D01*
Y13092D01*
X56862D01*
Y13125D01*
X56895D01*
Y13158D01*
X56928D01*
Y13191D01*
X56994D01*
Y13224D01*
X57027D01*
Y13257D01*
X57060D01*
Y13290D01*
X57093D01*
Y13323D01*
X57159D01*
Y13356D01*
X57192D01*
Y13388D01*
X57225D01*
Y13421D01*
X57258D01*
Y13454D01*
X57291D01*
Y13487D01*
X57324D01*
Y13520D01*
X57390D01*
Y13553D01*
X57423D01*
Y13619D01*
X57489D01*
Y13652D01*
X57522D01*
Y13685D01*
X57555D01*
Y13751D01*
X57621D01*
Y13784D01*
X57654D01*
Y13817D01*
X57687D01*
Y13850D01*
X57753D01*
Y13883D01*
X57785D01*
Y13916D01*
X57818D01*
Y13949D01*
X57851D01*
Y13982D01*
X57917D01*
Y14015D01*
X57950D01*
Y14048D01*
X57983D01*
Y14081D01*
X58016D01*
Y14114D01*
X58049D01*
Y14147D01*
X58082D01*
Y14180D01*
X58115D01*
Y14213D01*
X58148D01*
Y14246D01*
X58181D01*
Y14278D01*
X58214D01*
Y14311D01*
X58247D01*
Y14345D01*
X58313D01*
Y14410D01*
X58346D01*
Y14443D01*
X58412D01*
Y14509D01*
X58445D01*
Y14542D01*
X58511D01*
Y14575D01*
X58544D01*
Y14641D01*
X58609D01*
Y14674D01*
X58643D01*
Y14707D01*
X58675D01*
Y14740D01*
X58708D01*
Y14773D01*
X58741D01*
Y14806D01*
X58774D01*
Y14839D01*
X58807D01*
Y14872D01*
X58840D01*
Y14905D01*
X58873D01*
Y14938D01*
X58906D01*
Y14971D01*
X58939D01*
Y15004D01*
X58972D01*
Y15037D01*
X59005D01*
Y15070D01*
X59038D01*
Y15103D01*
X59071D01*
Y15136D01*
X59104D01*
Y15202D01*
X59170D01*
Y15235D01*
X59203D01*
Y15267D01*
X59236D01*
Y15300D01*
X59269D01*
Y15333D01*
X59302D01*
Y15399D01*
X59335D01*
Y15432D01*
X59368D01*
Y15465D01*
X59401D01*
Y15498D01*
X59434D01*
Y15531D01*
X59466D01*
Y15564D01*
X59500D01*
Y15597D01*
X59532D01*
Y15630D01*
X59565D01*
Y15663D01*
X59598D01*
Y15696D01*
X59631D01*
Y15729D01*
X59664D01*
Y15762D01*
X59697D01*
Y15795D01*
X59730D01*
Y15828D01*
X59763D01*
Y15894D01*
X59829D01*
Y15960D01*
X59862D01*
Y15993D01*
X59895D01*
Y16059D01*
X59961D01*
Y16125D01*
X59994D01*
Y16157D01*
X60027D01*
Y16190D01*
X60060D01*
Y16223D01*
X60093D01*
Y16256D01*
X60126D01*
Y16289D01*
X60159D01*
Y16322D01*
X60192D01*
Y16388D01*
X60225D01*
Y16421D01*
X60258D01*
Y16454D01*
X60291D01*
Y16520D01*
X60324D01*
Y16553D01*
X60356D01*
Y16586D01*
X60390D01*
Y16619D01*
X60422D01*
Y16685D01*
X60455D01*
Y16718D01*
X60488D01*
Y16751D01*
X60521D01*
Y16817D01*
X60554D01*
Y16850D01*
X60587D01*
Y16883D01*
X60620D01*
Y16916D01*
X60653D01*
Y16982D01*
X60686D01*
Y17015D01*
X60719D01*
Y17047D01*
X60752D01*
Y17113D01*
X60785D01*
Y17146D01*
X60818D01*
Y17179D01*
X60851D01*
Y17245D01*
X60884D01*
Y17311D01*
X60950D01*
Y17377D01*
X60983D01*
Y17410D01*
X61016D01*
Y17476D01*
X61049D01*
Y17509D01*
X61082D01*
Y17575D01*
X61115D01*
Y17641D01*
X61148D01*
Y17674D01*
X61181D01*
Y17707D01*
X61214D01*
Y17773D01*
X61247D01*
Y17839D01*
X61279D01*
Y17872D01*
X61313D01*
Y17937D01*
X61345D01*
Y17970D01*
X61378D01*
Y18036D01*
X61411D01*
Y18069D01*
X61444D01*
Y18135D01*
X61477D01*
Y18168D01*
X61510D01*
Y18234D01*
X61543D01*
Y18333D01*
X61576D01*
Y18366D01*
X61609D01*
Y18432D01*
X61642D01*
Y18498D01*
X61675D01*
Y18564D01*
X61708D01*
Y18597D01*
X61741D01*
Y18696D01*
X61774D01*
Y18794D01*
X61807D01*
Y18827D01*
X61840D01*
Y18893D01*
X61873D01*
Y18992D01*
X61906D01*
Y19058D01*
X61939D01*
Y19091D01*
X61972D01*
Y19157D01*
X62005D01*
Y19190D01*
X62038D01*
Y19223D01*
X62071D01*
Y19256D01*
X62104D01*
Y19289D01*
X62137D01*
Y19322D01*
X62301D01*
Y19355D01*
X62367D01*
Y19388D01*
X62565D01*
Y19355D01*
D02*
G37*
G36*
X62829Y24102D02*
X63356D01*
Y24069D01*
X63455D01*
Y24036D01*
X63521D01*
Y24003D01*
X63719D01*
Y23970D01*
X63851D01*
Y23937D01*
X63884D01*
Y23904D01*
X64015D01*
Y23871D01*
X64114D01*
Y23838D01*
X64213D01*
Y23805D01*
X64279D01*
Y23772D01*
X64378D01*
Y23739D01*
X64444D01*
Y23706D01*
X64510D01*
Y23673D01*
X64576D01*
Y23640D01*
X64675D01*
Y23607D01*
X64708D01*
Y23574D01*
X64774D01*
Y23541D01*
X64840D01*
Y23508D01*
X64905D01*
Y23475D01*
X64938D01*
Y23442D01*
X65004D01*
Y23409D01*
X65070D01*
Y23376D01*
X65103D01*
Y23343D01*
X65169D01*
Y23310D01*
X65235D01*
Y23277D01*
X65268D01*
Y23245D01*
X65301D01*
Y23212D01*
X65367D01*
Y23178D01*
X65400D01*
Y23146D01*
X65433D01*
Y23113D01*
X65499D01*
Y23080D01*
X65532D01*
Y23047D01*
X65565D01*
Y23014D01*
X65631D01*
Y22981D01*
X65664D01*
Y22948D01*
X65697D01*
Y22915D01*
X65729D01*
Y22882D01*
X65763D01*
Y22849D01*
X65795D01*
Y22816D01*
X65828D01*
Y22783D01*
X65894D01*
Y22750D01*
X65927D01*
Y22684D01*
X65993D01*
Y22651D01*
X66026D01*
Y22618D01*
X66059D01*
Y22585D01*
X66092D01*
Y22552D01*
X66125D01*
Y22519D01*
X66158D01*
Y22486D01*
X66191D01*
Y22453D01*
X66224D01*
Y22420D01*
X66257D01*
Y22387D01*
X66290D01*
Y22354D01*
X66323D01*
Y22288D01*
X66356D01*
Y22256D01*
X66389D01*
Y22223D01*
X66422D01*
Y22190D01*
X66455D01*
Y22124D01*
X66488D01*
Y22091D01*
X66521D01*
Y22025D01*
X66554D01*
Y21992D01*
X66587D01*
Y21959D01*
X66619D01*
Y21926D01*
X66653D01*
Y21860D01*
X66685D01*
Y21794D01*
X66718D01*
Y21761D01*
X66751D01*
Y21695D01*
X66784D01*
Y21629D01*
X66817D01*
Y21596D01*
X66850D01*
Y21530D01*
X66883D01*
Y21464D01*
X66916D01*
Y21431D01*
X66949D01*
Y21366D01*
X66982D01*
Y21234D01*
X67015D01*
Y21201D01*
X67048D01*
Y21168D01*
X67081D01*
Y21003D01*
X67114D01*
Y20904D01*
X67147D01*
Y20871D01*
X67180D01*
Y20772D01*
X67213D01*
Y20607D01*
X67246D01*
Y20541D01*
X67279D01*
Y20443D01*
X67312D01*
Y20146D01*
X67345D01*
Y19981D01*
X67378D01*
Y19882D01*
X67411D01*
Y18564D01*
X67378D01*
Y18432D01*
X67345D01*
Y18300D01*
X67312D01*
Y17872D01*
X67279D01*
Y17740D01*
X67246D01*
Y17608D01*
X67213D01*
Y17377D01*
X67180D01*
Y17146D01*
X67147D01*
Y17047D01*
X67114D01*
Y16916D01*
X67081D01*
Y16652D01*
X67048D01*
Y16553D01*
X67015D01*
Y16421D01*
X66982D01*
Y16125D01*
X66949D01*
Y15960D01*
X66916D01*
Y15828D01*
X66883D01*
Y15531D01*
X66850D01*
Y14377D01*
X66883D01*
Y14180D01*
X66916D01*
Y14114D01*
X66949D01*
Y13949D01*
X66982D01*
Y13718D01*
X67015D01*
Y13652D01*
X67048D01*
Y13586D01*
X67081D01*
Y13388D01*
X67114D01*
Y13290D01*
X67147D01*
Y13257D01*
X67180D01*
Y13125D01*
X67213D01*
Y13059D01*
X67246D01*
Y12993D01*
X67279D01*
Y12927D01*
X67312D01*
Y12795D01*
X67345D01*
Y12762D01*
X67378D01*
Y12729D01*
X67411D01*
Y12663D01*
X67444D01*
Y12564D01*
X67476D01*
Y12531D01*
X67510D01*
Y12499D01*
X67542D01*
Y12433D01*
X67575D01*
Y12400D01*
X67608D01*
Y12367D01*
X67641D01*
Y12301D01*
X67674D01*
Y12268D01*
X67707D01*
Y12202D01*
X67740D01*
Y12169D01*
X67806D01*
Y12136D01*
X67839D01*
Y12070D01*
X67872D01*
Y12037D01*
X67905D01*
Y12004D01*
X67938D01*
Y11971D01*
X67971D01*
Y11938D01*
X68004D01*
Y11905D01*
X68070D01*
Y11872D01*
X68103D01*
Y11839D01*
X68169D01*
Y11806D01*
X68202D01*
Y11773D01*
X68268D01*
Y11740D01*
X68334D01*
Y11707D01*
X68366D01*
Y11675D01*
X68400D01*
Y11642D01*
X68498D01*
Y11609D01*
X68564D01*
Y11576D01*
X68597D01*
Y11543D01*
X68696D01*
Y11510D01*
X68828D01*
Y11477D01*
X68861D01*
Y11444D01*
X68927D01*
Y11411D01*
X69059D01*
Y11378D01*
X69125D01*
Y11345D01*
X69158D01*
Y11312D01*
X69224D01*
Y11279D01*
X69289D01*
Y11213D01*
X69323D01*
Y11180D01*
X69355D01*
Y11147D01*
X69388D01*
Y11114D01*
X69421D01*
Y10982D01*
X69454D01*
Y10850D01*
X69487D01*
Y10785D01*
X69454D01*
Y10653D01*
X69421D01*
Y10521D01*
X69388D01*
Y10488D01*
X69355D01*
Y10455D01*
X69323D01*
Y10422D01*
X69289D01*
Y10389D01*
X69257D01*
Y10356D01*
X69224D01*
Y10323D01*
X69158D01*
Y10290D01*
X69092D01*
Y10257D01*
X69059D01*
Y10224D01*
X68696D01*
Y10257D01*
X68630D01*
Y10290D01*
X68564D01*
Y10323D01*
X68432D01*
Y10356D01*
X68366D01*
Y10389D01*
X68301D01*
Y10422D01*
X68202D01*
Y10455D01*
X68103D01*
Y10488D01*
X68070D01*
Y10521D01*
X68004D01*
Y10554D01*
X67905D01*
Y10587D01*
X67872D01*
Y10620D01*
X67806D01*
Y10653D01*
X67740D01*
Y10686D01*
X67674D01*
Y10718D01*
X67641D01*
Y10751D01*
X67575D01*
Y10785D01*
X67542D01*
Y10817D01*
X67510D01*
Y10850D01*
X67444D01*
Y10883D01*
X67411D01*
Y10916D01*
X67378D01*
Y10949D01*
X67312D01*
Y10982D01*
X67246D01*
Y11015D01*
X67213D01*
Y11081D01*
X67147D01*
Y11114D01*
X67114D01*
Y11147D01*
X67081D01*
Y11180D01*
X67048D01*
Y11213D01*
X67015D01*
Y11246D01*
X66982D01*
Y11312D01*
X66916D01*
Y11345D01*
X66883D01*
Y11411D01*
X66850D01*
Y11444D01*
X66784D01*
Y11510D01*
X66751D01*
Y11543D01*
X66718D01*
Y11576D01*
X66685D01*
Y11642D01*
X66653D01*
Y11675D01*
X66619D01*
Y11740D01*
X66554D01*
Y11806D01*
X66521D01*
Y11872D01*
X66488D01*
Y11905D01*
X66455D01*
Y11971D01*
X66422D01*
Y12037D01*
X66389D01*
Y12070D01*
X66356D01*
Y12136D01*
X66323D01*
Y12202D01*
X66290D01*
Y12268D01*
X66257D01*
Y12334D01*
X66224D01*
Y12433D01*
X66191D01*
Y12499D01*
X66158D01*
Y12531D01*
X66125D01*
Y12630D01*
X66092D01*
Y12729D01*
X66059D01*
Y12795D01*
X66026D01*
Y12861D01*
X65993D01*
Y13026D01*
X65960D01*
Y13092D01*
X65927D01*
Y13125D01*
X65894D01*
Y13323D01*
X65861D01*
Y13487D01*
X65828D01*
Y13553D01*
X65795D01*
Y13685D01*
X65763D01*
Y13949D01*
X65729D01*
Y14081D01*
X65697D01*
Y14180D01*
X65664D01*
Y14740D01*
X65631D01*
Y15168D01*
X65664D01*
Y15828D01*
X65697D01*
Y15960D01*
X65729D01*
Y16092D01*
X65763D01*
Y16421D01*
X65795D01*
Y16619D01*
X65828D01*
Y16652D01*
X65861D01*
Y16883D01*
X65894D01*
Y17146D01*
X65927D01*
Y17212D01*
X65960D01*
Y17344D01*
X65993D01*
Y17674D01*
X66026D01*
Y17773D01*
X66059D01*
Y17872D01*
X66092D01*
Y18201D01*
X66125D01*
Y18432D01*
X66158D01*
Y18498D01*
X66191D01*
Y18893D01*
X66224D01*
Y19618D01*
X66191D01*
Y19948D01*
X66158D01*
Y20014D01*
X66125D01*
Y20179D01*
X66092D01*
Y20377D01*
X66059D01*
Y20443D01*
X66026D01*
Y20508D01*
X65993D01*
Y20640D01*
X65960D01*
Y20706D01*
X65927D01*
Y20772D01*
X65894D01*
Y20871D01*
X65861D01*
Y20937D01*
X65828D01*
Y20970D01*
X65795D01*
Y21036D01*
X65763D01*
Y21102D01*
X65729D01*
Y21135D01*
X65697D01*
Y21168D01*
X65664D01*
Y21234D01*
X65631D01*
Y21300D01*
X65565D01*
Y21366D01*
X65532D01*
Y21431D01*
X65499D01*
Y21464D01*
X65466D01*
Y21497D01*
X65433D01*
Y21530D01*
X65400D01*
Y21563D01*
X65367D01*
Y21596D01*
X65334D01*
Y21662D01*
X65301D01*
Y21695D01*
X65268D01*
Y21728D01*
X65235D01*
Y21761D01*
X65202D01*
Y21794D01*
X65169D01*
Y21827D01*
X65136D01*
Y21860D01*
X65103D01*
Y21893D01*
X65037D01*
Y21926D01*
X65004D01*
Y21959D01*
X64971D01*
Y21992D01*
X64938D01*
Y22025D01*
X64905D01*
Y22058D01*
X64872D01*
Y22091D01*
X64840D01*
Y22124D01*
X64774D01*
Y22157D01*
X64741D01*
Y22190D01*
X64708D01*
Y22223D01*
X64642D01*
Y22256D01*
X64609D01*
Y22288D01*
X64576D01*
Y22321D01*
X64510D01*
Y22354D01*
X64444D01*
Y22387D01*
X64411D01*
Y22420D01*
X64345D01*
Y22453D01*
X64246D01*
Y22486D01*
X64213D01*
Y22519D01*
X64180D01*
Y22552D01*
X64081D01*
Y22585D01*
X64015D01*
Y22618D01*
X63982D01*
Y22651D01*
X63884D01*
Y22684D01*
X63752D01*
Y22717D01*
X63719D01*
Y22750D01*
X63620D01*
Y22783D01*
X63455D01*
Y22816D01*
X63389D01*
Y22849D01*
X63290D01*
Y22882D01*
X62994D01*
Y22915D01*
X62730D01*
Y22948D01*
X62137D01*
Y22915D01*
X61906D01*
Y22882D01*
X61642D01*
Y22849D01*
X61543D01*
Y22816D01*
X61444D01*
Y22783D01*
X61279D01*
Y22750D01*
X61214D01*
Y22717D01*
X61148D01*
Y22684D01*
X61049D01*
Y22651D01*
X60950D01*
Y22618D01*
X60884D01*
Y22585D01*
X60851D01*
Y22552D01*
X60752D01*
Y22519D01*
X60719D01*
Y22486D01*
X60653D01*
Y22453D01*
X60554D01*
Y22420D01*
X60521D01*
Y22387D01*
X60488D01*
Y22354D01*
X60422D01*
Y22321D01*
X60390D01*
Y22288D01*
X60324D01*
Y22256D01*
X60291D01*
Y22223D01*
X60225D01*
Y22190D01*
X60192D01*
Y22157D01*
X60159D01*
Y22124D01*
X60093D01*
Y22091D01*
X60027D01*
Y22058D01*
X59994D01*
Y22025D01*
X59961D01*
Y21959D01*
X59895D01*
Y21926D01*
X59862D01*
Y21893D01*
X59829D01*
Y21860D01*
X59796D01*
Y21827D01*
X59763D01*
Y21794D01*
X59730D01*
Y21761D01*
X59697D01*
Y21728D01*
X59664D01*
Y21695D01*
X59631D01*
Y21662D01*
X59598D01*
Y21629D01*
X59565D01*
Y21596D01*
X59532D01*
Y21563D01*
X59500D01*
Y21497D01*
X59466D01*
Y21464D01*
X59434D01*
Y21431D01*
X59401D01*
Y21398D01*
X59368D01*
Y21366D01*
X59335D01*
Y21333D01*
X59302D01*
Y21267D01*
X59269D01*
Y21234D01*
X59236D01*
Y21201D01*
X59203D01*
Y21168D01*
X59170D01*
Y21102D01*
X59104D01*
Y21036D01*
X59071D01*
Y20970D01*
X59038D01*
Y20937D01*
X59005D01*
Y20904D01*
X58972D01*
Y20838D01*
X58939D01*
Y20772D01*
X58906D01*
Y20739D01*
X58873D01*
Y20673D01*
X58840D01*
Y20607D01*
X58807D01*
Y20574D01*
X58774D01*
Y20541D01*
X58741D01*
Y20443D01*
X58708D01*
Y20410D01*
X58675D01*
Y20344D01*
X58643D01*
Y20278D01*
X58609D01*
Y20212D01*
X58577D01*
Y20179D01*
X58544D01*
Y20113D01*
X58511D01*
Y20014D01*
X58478D01*
Y19981D01*
X58445D01*
Y19915D01*
X58412D01*
Y19783D01*
X58379D01*
Y19717D01*
X58346D01*
Y19684D01*
X58313D01*
Y19586D01*
X58280D01*
Y19520D01*
X58247D01*
Y19487D01*
X58214D01*
Y19421D01*
X58181D01*
Y19322D01*
X58148D01*
Y19256D01*
X58115D01*
Y19223D01*
X58082D01*
Y19124D01*
X58049D01*
Y19091D01*
X58016D01*
Y19058D01*
X57983D01*
Y18992D01*
X57950D01*
Y18926D01*
X57917D01*
Y18893D01*
X57884D01*
Y18860D01*
X57851D01*
Y18794D01*
X57818D01*
Y18762D01*
X57785D01*
Y18729D01*
X57753D01*
Y18663D01*
X57719D01*
Y18597D01*
X57687D01*
Y18564D01*
X57654D01*
Y18531D01*
X57621D01*
Y18465D01*
X57588D01*
Y18432D01*
X57555D01*
Y18399D01*
X57522D01*
Y18366D01*
X57489D01*
Y18333D01*
X57456D01*
Y18300D01*
X57423D01*
Y18234D01*
X57390D01*
Y18201D01*
X57324D01*
Y18135D01*
X57291D01*
Y18102D01*
X57258D01*
Y18069D01*
X57225D01*
Y18036D01*
X57192D01*
Y17970D01*
X57159D01*
Y17937D01*
X57126D01*
Y17905D01*
X57093D01*
Y17872D01*
X57027D01*
Y17839D01*
X56994D01*
Y17773D01*
X56961D01*
Y17740D01*
X56928D01*
Y17707D01*
X56895D01*
Y17674D01*
X56862D01*
Y17641D01*
X56830D01*
Y17608D01*
X56796D01*
Y17575D01*
X56764D01*
Y17542D01*
X56731D01*
Y17509D01*
X56665D01*
Y17476D01*
X56632D01*
Y17443D01*
X56599D01*
Y17410D01*
X56566D01*
Y17377D01*
X56533D01*
Y17344D01*
X56500D01*
Y17311D01*
X56467D01*
Y17278D01*
X56401D01*
Y17212D01*
X56335D01*
Y17179D01*
X56302D01*
Y17146D01*
X56269D01*
Y17113D01*
X56236D01*
Y17080D01*
X56203D01*
Y17047D01*
X56170D01*
Y17015D01*
X56137D01*
Y16982D01*
X56071D01*
Y16949D01*
X56038D01*
Y16916D01*
X56005D01*
Y16883D01*
X55940D01*
Y16850D01*
X55906D01*
Y16817D01*
X55874D01*
Y16784D01*
X55841D01*
Y16751D01*
X55775D01*
Y16685D01*
X55742D01*
Y16652D01*
X55676D01*
Y16619D01*
X55643D01*
Y16586D01*
X55610D01*
Y16553D01*
X55544D01*
Y16520D01*
X55511D01*
Y16487D01*
X55445D01*
Y16454D01*
X55412D01*
Y16421D01*
X55379D01*
Y16388D01*
X55313D01*
Y16355D01*
X55280D01*
Y16322D01*
X55214D01*
Y16289D01*
X55181D01*
Y16256D01*
X55148D01*
Y16223D01*
X55082D01*
Y16190D01*
X55050D01*
Y16157D01*
X55016D01*
Y16125D01*
X54951D01*
Y16092D01*
X54918D01*
Y16059D01*
X54852D01*
Y16026D01*
X54819D01*
Y15993D01*
X54753D01*
Y15960D01*
X54720D01*
Y15927D01*
X54687D01*
Y15894D01*
X54621D01*
Y15861D01*
X54555D01*
Y15828D01*
X54522D01*
Y15795D01*
X54456D01*
Y15762D01*
X54357D01*
Y15729D01*
X54291D01*
Y15696D01*
X54258D01*
Y15663D01*
X54028D01*
Y15696D01*
X53962D01*
Y15729D01*
X53896D01*
Y15762D01*
X53830D01*
Y15795D01*
X53764D01*
Y15828D01*
X53731D01*
Y15861D01*
X53698D01*
Y15894D01*
X53665D01*
Y15927D01*
X53632D01*
Y15993D01*
X53599D01*
Y16026D01*
X53566D01*
Y16092D01*
X53533D01*
Y16454D01*
X53566D01*
Y16520D01*
X53599D01*
Y16553D01*
X53632D01*
Y16619D01*
X53665D01*
Y16685D01*
X53731D01*
Y16718D01*
X53764D01*
Y16751D01*
X53797D01*
Y16784D01*
X53830D01*
Y16817D01*
X53863D01*
Y16850D01*
X53929D01*
Y16883D01*
X53995D01*
Y16916D01*
X54028D01*
Y16949D01*
X54061D01*
Y16982D01*
X54159D01*
Y17015D01*
X54193D01*
Y17047D01*
X54225D01*
Y17080D01*
X54291D01*
Y17113D01*
X54324D01*
Y17146D01*
X54357D01*
Y17179D01*
X54423D01*
Y17212D01*
X54489D01*
Y17245D01*
X54522D01*
Y17278D01*
X54555D01*
Y17311D01*
X54621D01*
Y17344D01*
X54654D01*
Y17377D01*
X54687D01*
Y17410D01*
X54753D01*
Y17443D01*
X54786D01*
Y17476D01*
X54819D01*
Y17509D01*
X54852D01*
Y17542D01*
X54918D01*
Y17575D01*
X54951D01*
Y17608D01*
X54984D01*
Y17641D01*
X55050D01*
Y17674D01*
X55082D01*
Y17707D01*
X55115D01*
Y17740D01*
X55148D01*
Y17773D01*
X55214D01*
Y17839D01*
X55280D01*
Y17872D01*
X55313D01*
Y17905D01*
X55379D01*
Y17937D01*
X55412D01*
Y17970D01*
X55445D01*
Y18003D01*
X55478D01*
Y18036D01*
X55511D01*
Y18069D01*
X55544D01*
Y18102D01*
X55610D01*
Y18135D01*
X55643D01*
Y18168D01*
X55676D01*
Y18201D01*
X55709D01*
Y18234D01*
X55742D01*
Y18267D01*
X55775D01*
Y18300D01*
X55808D01*
Y18333D01*
X55841D01*
Y18366D01*
X55874D01*
Y18399D01*
X55906D01*
Y18432D01*
X55972D01*
Y18498D01*
X56005D01*
Y18531D01*
X56071D01*
Y18564D01*
X56104D01*
Y18630D01*
X56170D01*
Y18663D01*
X56203D01*
Y18729D01*
X56236D01*
Y18762D01*
X56269D01*
Y18794D01*
X56302D01*
Y18827D01*
X56335D01*
Y18860D01*
X56368D01*
Y18893D01*
X56401D01*
Y18926D01*
X56434D01*
Y18992D01*
X56500D01*
Y19058D01*
X56533D01*
Y19091D01*
X56566D01*
Y19124D01*
X56599D01*
Y19190D01*
X56632D01*
Y19223D01*
X56665D01*
Y19256D01*
X56698D01*
Y19289D01*
X56731D01*
Y19355D01*
X56764D01*
Y19388D01*
X56796D01*
Y19421D01*
X56830D01*
Y19454D01*
X56862D01*
Y19520D01*
X56895D01*
Y19553D01*
X56928D01*
Y19618D01*
X56961D01*
Y19684D01*
X56994D01*
Y19750D01*
X57027D01*
Y19783D01*
X57060D01*
Y19816D01*
X57093D01*
Y19915D01*
X57126D01*
Y19948D01*
X57159D01*
Y20014D01*
X57192D01*
Y20146D01*
X57225D01*
Y20212D01*
X57291D01*
Y20311D01*
X57324D01*
Y20410D01*
X57357D01*
Y20443D01*
X57390D01*
Y20508D01*
X57423D01*
Y20607D01*
X57456D01*
Y20673D01*
X57489D01*
Y20706D01*
X57522D01*
Y20805D01*
X57555D01*
Y20871D01*
X57588D01*
Y20904D01*
X57621D01*
Y20970D01*
X57654D01*
Y21069D01*
X57687D01*
Y21102D01*
X57719D01*
Y21135D01*
X57753D01*
Y21201D01*
X57785D01*
Y21234D01*
X57818D01*
Y21300D01*
X57851D01*
Y21366D01*
X57884D01*
Y21431D01*
X57950D01*
Y21497D01*
X57983D01*
Y21563D01*
X58016D01*
Y21596D01*
X58049D01*
Y21662D01*
X58082D01*
Y21695D01*
X58115D01*
Y21761D01*
X58148D01*
Y21794D01*
X58181D01*
Y21827D01*
X58214D01*
Y21893D01*
X58247D01*
Y21926D01*
X58280D01*
Y21959D01*
X58313D01*
Y22025D01*
X58346D01*
Y22058D01*
X58379D01*
Y22091D01*
X58412D01*
Y22124D01*
X58445D01*
Y22190D01*
X58511D01*
Y22223D01*
X58544D01*
Y22288D01*
X58577D01*
Y22321D01*
X58609D01*
Y22354D01*
X58643D01*
Y22387D01*
X58675D01*
Y22420D01*
X58708D01*
Y22453D01*
X58741D01*
Y22486D01*
X58774D01*
Y22552D01*
X58840D01*
Y22585D01*
X58873D01*
Y22618D01*
X58906D01*
Y22651D01*
X58939D01*
Y22684D01*
X58972D01*
Y22717D01*
X59005D01*
Y22750D01*
X59038D01*
Y22783D01*
X59071D01*
Y22816D01*
X59104D01*
Y22849D01*
X59137D01*
Y22882D01*
X59203D01*
Y22915D01*
X59236D01*
Y22948D01*
X59269D01*
Y22981D01*
X59302D01*
Y23014D01*
X59335D01*
Y23047D01*
X59401D01*
Y23080D01*
X59434D01*
Y23113D01*
X59500D01*
Y23146D01*
X59532D01*
Y23178D01*
X59565D01*
Y23212D01*
X59631D01*
Y23245D01*
X59664D01*
Y23277D01*
X59697D01*
Y23310D01*
X59763D01*
Y23343D01*
X59829D01*
Y23376D01*
X59862D01*
Y23409D01*
X59895D01*
Y23442D01*
X59994D01*
Y23475D01*
X60027D01*
Y23508D01*
X60060D01*
Y23541D01*
X60159D01*
Y23574D01*
X60192D01*
Y23607D01*
X60225D01*
Y23640D01*
X60324D01*
Y23673D01*
X60422D01*
Y23706D01*
X60455D01*
Y23739D01*
X60521D01*
Y23772D01*
X60653D01*
Y23805D01*
X60719D01*
Y23838D01*
X60785D01*
Y23871D01*
X60917D01*
Y23904D01*
X61016D01*
Y23937D01*
X61049D01*
Y23970D01*
X61214D01*
Y24003D01*
X61411D01*
Y24036D01*
X61444D01*
Y24069D01*
X61576D01*
Y24102D01*
X62071D01*
Y24135D01*
X62829D01*
Y24102D01*
D02*
G37*
G36*
X11305Y13361D02*
X11537D01*
Y13284D01*
X11614D01*
Y13207D01*
X11768D01*
Y13129D01*
X11846D01*
Y12975D01*
X11923D01*
Y12898D01*
X12000D01*
Y12666D01*
X12077D01*
Y12049D01*
X12154D01*
Y11972D01*
X12232D01*
Y11894D01*
X12309D01*
Y11817D01*
X12386D01*
Y11740D01*
X12463D01*
Y11663D01*
X12540D01*
Y11586D01*
X12618D01*
Y11508D01*
X12695D01*
Y11431D01*
X12772D01*
Y11354D01*
X12849D01*
Y11277D01*
X12926D01*
Y11200D01*
X13003D01*
Y11123D01*
X13081D01*
Y11045D01*
X13158D01*
Y10968D01*
X13235D01*
Y10891D01*
X13312D01*
Y10814D01*
X13389D01*
Y10737D01*
X13466D01*
Y10660D01*
X13544D01*
Y10582D01*
X13621D01*
Y10505D01*
X13698D01*
Y10428D01*
X13852D01*
Y10505D01*
X14393D01*
Y10428D01*
X14624D01*
Y10351D01*
X14702D01*
Y10274D01*
X14856D01*
Y10196D01*
X14933D01*
Y10042D01*
X15010D01*
Y9965D01*
X15087D01*
Y9733D01*
X15165D01*
Y9193D01*
X15087D01*
Y8961D01*
X15010D01*
Y8884D01*
X14933D01*
Y8730D01*
X14856D01*
Y8653D01*
X14702D01*
Y8575D01*
X14624D01*
Y8498D01*
X14393D01*
Y8421D01*
X13852D01*
Y8498D01*
X13621D01*
Y8575D01*
X13544D01*
Y8653D01*
X13389D01*
Y8730D01*
X13312D01*
Y8884D01*
X13235D01*
Y8961D01*
X13158D01*
Y9193D01*
X12000D01*
Y8961D01*
X11923D01*
Y8884D01*
X11846D01*
Y8730D01*
X11768D01*
Y8653D01*
X11614D01*
Y8575D01*
X11537D01*
Y8498D01*
X11305D01*
Y8421D01*
X10765D01*
Y8498D01*
X10533D01*
Y8575D01*
X10456D01*
Y8653D01*
X10302D01*
Y8730D01*
X10225D01*
Y8884D01*
X10148D01*
Y8961D01*
X10070D01*
Y9193D01*
X9993D01*
Y9733D01*
X10070D01*
Y9965D01*
X10148D01*
Y10042D01*
X10225D01*
Y10196D01*
X10302D01*
Y10274D01*
X10456D01*
Y10351D01*
X10533D01*
Y10428D01*
X10765D01*
Y10505D01*
X11305D01*
Y10428D01*
X11537D01*
Y10351D01*
X11614D01*
Y10274D01*
X11768D01*
Y10196D01*
X11846D01*
Y10042D01*
X11923D01*
Y9965D01*
X12000D01*
Y9733D01*
X12077D01*
Y9656D01*
X13081D01*
Y9733D01*
X13158D01*
Y9965D01*
X13235D01*
Y10042D01*
X13312D01*
Y10196D01*
X13235D01*
Y10274D01*
X13158D01*
Y10351D01*
X13081D01*
Y10428D01*
X13003D01*
Y10505D01*
X12926D01*
Y10582D01*
X12849D01*
Y10660D01*
X12772D01*
Y10737D01*
X12695D01*
Y10814D01*
X12618D01*
Y10891D01*
X12540D01*
Y10968D01*
X12463D01*
Y11045D01*
X12386D01*
Y11123D01*
X12309D01*
Y11200D01*
X12232D01*
Y11277D01*
X12154D01*
Y11354D01*
X12077D01*
Y11431D01*
X12000D01*
Y11508D01*
X11923D01*
Y11586D01*
X11846D01*
Y11663D01*
X11768D01*
Y11586D01*
X11614D01*
Y11508D01*
X11537D01*
Y11431D01*
X11305D01*
Y11354D01*
X10765D01*
Y11431D01*
X10533D01*
Y11508D01*
X10456D01*
Y11586D01*
X10302D01*
Y11663D01*
X10225D01*
Y11817D01*
X10148D01*
Y11894D01*
X10070D01*
Y12126D01*
X9993D01*
Y12666D01*
X10070D01*
Y12898D01*
X10148D01*
Y12975D01*
X10225D01*
Y13129D01*
X10302D01*
Y13207D01*
X10456D01*
Y13284D01*
X10533D01*
Y13361D01*
X10765D01*
Y13438D01*
X11305D01*
Y13361D01*
D02*
G37*
G36*
X62763Y21860D02*
X63060D01*
Y21827D01*
X63092D01*
Y21794D01*
X63224D01*
Y21761D01*
X63389D01*
Y21728D01*
X63455D01*
Y21695D01*
X63488D01*
Y21662D01*
X63620D01*
Y21629D01*
X63686D01*
Y21596D01*
X63719D01*
Y21563D01*
X63785D01*
Y21530D01*
X63851D01*
Y21497D01*
X63916D01*
Y21464D01*
X63950D01*
Y21431D01*
X64015D01*
Y21398D01*
X64081D01*
Y21366D01*
X64114D01*
Y21333D01*
X64147D01*
Y21300D01*
X64180D01*
Y21267D01*
X64213D01*
Y21234D01*
X64279D01*
Y21201D01*
X64312D01*
Y21168D01*
X64345D01*
Y21135D01*
X64378D01*
Y21102D01*
X64444D01*
Y21069D01*
X64477D01*
Y21036D01*
X64510D01*
Y20970D01*
X64543D01*
Y20904D01*
X64609D01*
Y20838D01*
X64642D01*
Y20805D01*
X64675D01*
Y20739D01*
X64708D01*
Y20706D01*
X64741D01*
Y20673D01*
X64774D01*
Y20607D01*
X64806D01*
Y20574D01*
X64840D01*
Y20541D01*
X64872D01*
Y20443D01*
X64905D01*
Y20410D01*
X64938D01*
Y20377D01*
X64971D01*
Y20278D01*
X65004D01*
Y20212D01*
X65037D01*
Y20179D01*
X65070D01*
Y20047D01*
X65103D01*
Y19981D01*
X65136D01*
Y19915D01*
X65169D01*
Y19849D01*
X65202D01*
Y19684D01*
X65235D01*
Y19618D01*
X65268D01*
Y19520D01*
X65301D01*
Y19322D01*
X65334D01*
Y19124D01*
X65367D01*
Y19058D01*
X65400D01*
Y18267D01*
X65367D01*
Y18168D01*
X65334D01*
Y18036D01*
X65301D01*
Y17773D01*
X65268D01*
Y17674D01*
X65235D01*
Y17608D01*
X65202D01*
Y17443D01*
X65169D01*
Y17344D01*
X65136D01*
Y17311D01*
X65103D01*
Y17212D01*
X65070D01*
Y17113D01*
X65037D01*
Y17047D01*
X65004D01*
Y16982D01*
X64971D01*
Y16883D01*
X64938D01*
Y16817D01*
X64905D01*
Y16784D01*
X64872D01*
Y16685D01*
X64840D01*
Y16619D01*
X64806D01*
Y16586D01*
X64774D01*
Y16520D01*
X64741D01*
Y16454D01*
X64708D01*
Y16388D01*
X64675D01*
Y16355D01*
X64642D01*
Y16256D01*
X64609D01*
Y16223D01*
X64576D01*
Y16190D01*
X64543D01*
Y16092D01*
X64510D01*
Y16026D01*
X64477D01*
Y15993D01*
X64444D01*
Y15960D01*
X64411D01*
Y15861D01*
X64378D01*
Y15828D01*
X64345D01*
Y15795D01*
X64312D01*
Y15729D01*
X64279D01*
Y15663D01*
X64246D01*
Y15630D01*
X64213D01*
Y15597D01*
X64180D01*
Y15531D01*
X64147D01*
Y15498D01*
X64114D01*
Y15465D01*
X64081D01*
Y15399D01*
X64048D01*
Y15333D01*
X63982D01*
Y15267D01*
X63950D01*
Y15202D01*
X63916D01*
Y15168D01*
X63884D01*
Y15136D01*
X63851D01*
Y15070D01*
X63818D01*
Y15037D01*
X63785D01*
Y15004D01*
X63752D01*
Y14938D01*
X63719D01*
Y14905D01*
X63686D01*
Y14872D01*
X63653D01*
Y14839D01*
X63620D01*
Y14773D01*
X63587D01*
Y14740D01*
X63554D01*
Y14707D01*
X63521D01*
Y14674D01*
X63488D01*
Y14641D01*
X63455D01*
Y14608D01*
X63422D01*
Y14542D01*
X63389D01*
Y14509D01*
X63356D01*
Y14476D01*
X63323D01*
Y14443D01*
X63290D01*
Y14377D01*
X63257D01*
Y14345D01*
X63224D01*
Y14311D01*
X63191D01*
Y14278D01*
X63158D01*
Y14246D01*
X63125D01*
Y14213D01*
X63092D01*
Y14147D01*
X63060D01*
Y14114D01*
X62994D01*
Y14048D01*
X62961D01*
Y14015D01*
X62928D01*
Y13982D01*
X62895D01*
Y13949D01*
X62862D01*
Y13916D01*
X62829D01*
Y13883D01*
X62796D01*
Y13850D01*
X62763D01*
Y13784D01*
X62730D01*
Y13751D01*
X62664D01*
Y13685D01*
X62631D01*
Y13652D01*
X62598D01*
Y13619D01*
X62565D01*
Y13586D01*
X62532D01*
Y13553D01*
X62499D01*
Y13520D01*
X62466D01*
Y13487D01*
X62433D01*
Y13454D01*
X62400D01*
Y13421D01*
X62367D01*
Y13388D01*
X62334D01*
Y13356D01*
X62301D01*
Y13323D01*
X62268D01*
Y13290D01*
X62235D01*
Y13257D01*
X62203D01*
Y13224D01*
X62169D01*
Y13191D01*
X62137D01*
Y13158D01*
X62104D01*
Y13092D01*
X62071D01*
Y13059D01*
X62038D01*
Y13026D01*
X62005D01*
Y12993D01*
X61972D01*
Y12960D01*
X61906D01*
Y12927D01*
X61873D01*
Y12861D01*
X61807D01*
Y12828D01*
X61774D01*
Y12795D01*
X61741D01*
Y12762D01*
X61708D01*
Y12729D01*
X61675D01*
Y12663D01*
X61642D01*
Y12630D01*
X61576D01*
Y12597D01*
X61543D01*
Y12564D01*
X61510D01*
Y12531D01*
X61477D01*
Y12499D01*
X61444D01*
Y12466D01*
X61411D01*
Y12433D01*
X61378D01*
Y12400D01*
X61345D01*
Y12367D01*
X61313D01*
Y12334D01*
X61279D01*
Y12301D01*
X61214D01*
Y12235D01*
X61181D01*
Y12202D01*
X61115D01*
Y12169D01*
X61082D01*
Y12136D01*
X61049D01*
Y12103D01*
X61016D01*
Y12070D01*
X60983D01*
Y12037D01*
X60950D01*
Y12004D01*
X60917D01*
Y11971D01*
X60884D01*
Y11938D01*
X60851D01*
Y11905D01*
X60785D01*
Y11872D01*
X60752D01*
Y11839D01*
X60719D01*
Y11806D01*
X60686D01*
Y11773D01*
X60653D01*
Y11740D01*
X60620D01*
Y11707D01*
X60587D01*
Y11675D01*
X60554D01*
Y11642D01*
X60521D01*
Y11609D01*
X60488D01*
Y11576D01*
X60455D01*
Y11543D01*
X60390D01*
Y11510D01*
X60356D01*
Y11477D01*
X60324D01*
Y11444D01*
X60291D01*
Y11411D01*
X60225D01*
Y11345D01*
X60192D01*
Y11312D01*
X60126D01*
Y11279D01*
X60093D01*
Y11246D01*
X60060D01*
Y11213D01*
X59994D01*
Y11180D01*
X59961D01*
Y11147D01*
X59928D01*
Y11114D01*
X59895D01*
Y11081D01*
X59862D01*
Y11048D01*
X59829D01*
Y11015D01*
X59796D01*
Y10982D01*
X59763D01*
Y10949D01*
X59730D01*
Y10916D01*
X59697D01*
Y10883D01*
X59631D01*
Y10850D01*
X59598D01*
Y10817D01*
X59565D01*
Y10785D01*
X59532D01*
Y10751D01*
X59466D01*
Y10718D01*
X59434D01*
Y10686D01*
X59401D01*
Y10653D01*
X59335D01*
Y10620D01*
X59302D01*
Y10587D01*
X59269D01*
Y10554D01*
X59236D01*
Y10521D01*
X59170D01*
Y10455D01*
X59104D01*
Y10422D01*
X59071D01*
Y10389D01*
X59038D01*
Y10356D01*
X59005D01*
Y10323D01*
X58939D01*
Y10290D01*
X58873D01*
Y10257D01*
X58840D01*
Y10224D01*
X58807D01*
Y10191D01*
X58774D01*
Y10158D01*
X58741D01*
Y10125D01*
X58708D01*
Y10092D01*
X58643D01*
Y10059D01*
X58609D01*
Y10026D01*
X58577D01*
Y9993D01*
X58511D01*
Y9960D01*
X58478D01*
Y9927D01*
X58445D01*
Y9894D01*
X58412D01*
Y9861D01*
X58346D01*
Y9828D01*
X58313D01*
Y9796D01*
X58280D01*
Y9763D01*
X58214D01*
Y9730D01*
X58181D01*
Y9697D01*
X58148D01*
Y9664D01*
X58082D01*
Y9631D01*
X58049D01*
Y9565D01*
X57983D01*
Y9532D01*
X57917D01*
Y9499D01*
X57884D01*
Y9466D01*
X57851D01*
Y9433D01*
X57785D01*
Y9400D01*
X57753D01*
Y9367D01*
X57719D01*
Y9334D01*
X57654D01*
Y9301D01*
X57621D01*
Y9268D01*
X57588D01*
Y9235D01*
X57522D01*
Y9202D01*
X57456D01*
Y9169D01*
X57423D01*
Y9136D01*
X57390D01*
Y9103D01*
X57324D01*
Y9070D01*
X57258D01*
Y9037D01*
X57192D01*
Y9004D01*
X56796D01*
Y9037D01*
X56764D01*
Y9070D01*
X56698D01*
Y9103D01*
X56632D01*
Y9136D01*
X56599D01*
Y9169D01*
X56566D01*
Y9235D01*
X56533D01*
Y9301D01*
X56500D01*
Y9334D01*
X56467D01*
Y9367D01*
X56434D01*
Y9532D01*
X56401D01*
Y9598D01*
X56434D01*
Y9828D01*
X56467D01*
Y9861D01*
X56500D01*
Y9894D01*
X56533D01*
Y9960D01*
X56566D01*
Y9993D01*
X56599D01*
Y10026D01*
X56632D01*
Y10059D01*
X56665D01*
Y10092D01*
X56731D01*
Y10125D01*
X56764D01*
Y10158D01*
X56796D01*
Y10191D01*
X56862D01*
Y10224D01*
X56928D01*
Y10257D01*
X56961D01*
Y10290D01*
X56994D01*
Y10323D01*
X57027D01*
Y10356D01*
X57060D01*
Y10389D01*
X57126D01*
Y10422D01*
X57159D01*
Y10455D01*
X57192D01*
Y10488D01*
X57225D01*
Y10521D01*
X57291D01*
Y10554D01*
X57324D01*
Y10587D01*
X57357D01*
Y10620D01*
X57423D01*
Y10653D01*
X57489D01*
Y10686D01*
X57522D01*
Y10718D01*
X57555D01*
Y10751D01*
X57588D01*
Y10785D01*
X57654D01*
Y10850D01*
X57719D01*
Y10883D01*
X57753D01*
Y10916D01*
X57785D01*
Y10949D01*
X57851D01*
Y10982D01*
X57884D01*
Y11015D01*
X57917D01*
Y11048D01*
X57950D01*
Y11081D01*
X58016D01*
Y11114D01*
X58049D01*
Y11147D01*
X58082D01*
Y11180D01*
X58148D01*
Y11213D01*
X58181D01*
Y11246D01*
X58214D01*
Y11279D01*
X58247D01*
Y11312D01*
X58313D01*
Y11345D01*
X58346D01*
Y11378D01*
X58379D01*
Y11411D01*
X58412D01*
Y11444D01*
X58478D01*
Y11477D01*
X58511D01*
Y11510D01*
X58544D01*
Y11543D01*
X58609D01*
Y11576D01*
X58643D01*
Y11642D01*
X58708D01*
Y11675D01*
X58741D01*
Y11707D01*
X58774D01*
Y11740D01*
X58840D01*
Y11773D01*
X58873D01*
Y11806D01*
X58906D01*
Y11839D01*
X58939D01*
Y11872D01*
X58972D01*
Y11905D01*
X59005D01*
Y11938D01*
X59071D01*
Y11971D01*
X59104D01*
Y12004D01*
X59137D01*
Y12037D01*
X59170D01*
Y12070D01*
X59203D01*
Y12103D01*
X59269D01*
Y12136D01*
X59302D01*
Y12169D01*
X59335D01*
Y12202D01*
X59401D01*
Y12268D01*
X59434D01*
Y12301D01*
X59500D01*
Y12334D01*
X59532D01*
Y12367D01*
X59565D01*
Y12400D01*
X59598D01*
Y12433D01*
X59631D01*
Y12466D01*
X59664D01*
Y12499D01*
X59697D01*
Y12531D01*
X59763D01*
Y12597D01*
X59796D01*
Y12630D01*
X59862D01*
Y12663D01*
X59895D01*
Y12696D01*
X59928D01*
Y12729D01*
X59961D01*
Y12762D01*
X60027D01*
Y12795D01*
X60060D01*
Y12828D01*
X60093D01*
Y12861D01*
X60126D01*
Y12894D01*
X60159D01*
Y12927D01*
X60192D01*
Y12960D01*
X60225D01*
Y12993D01*
X60258D01*
Y13026D01*
X60291D01*
Y13059D01*
X60324D01*
Y13092D01*
X60356D01*
Y13125D01*
X60422D01*
Y13191D01*
X60488D01*
Y13224D01*
X60521D01*
Y13257D01*
X60554D01*
Y13290D01*
X60587D01*
Y13323D01*
X60620D01*
Y13356D01*
X60653D01*
Y13388D01*
X60686D01*
Y13421D01*
X60719D01*
Y13454D01*
X60752D01*
Y13487D01*
X60785D01*
Y13520D01*
X60818D01*
Y13553D01*
X60851D01*
Y13586D01*
X60884D01*
Y13619D01*
X60917D01*
Y13652D01*
X60950D01*
Y13685D01*
X60983D01*
Y13718D01*
X61016D01*
Y13751D01*
X61049D01*
Y13784D01*
X61082D01*
Y13817D01*
X61115D01*
Y13850D01*
X61148D01*
Y13883D01*
X61181D01*
Y13916D01*
X61214D01*
Y13949D01*
X61247D01*
Y13982D01*
X61279D01*
Y14015D01*
X61313D01*
Y14048D01*
X61345D01*
Y14081D01*
X61378D01*
Y14114D01*
X61411D01*
Y14147D01*
X61444D01*
Y14180D01*
X61477D01*
Y14213D01*
X61510D01*
Y14246D01*
X61543D01*
Y14278D01*
X61576D01*
Y14311D01*
X61609D01*
Y14345D01*
X61642D01*
Y14377D01*
X61675D01*
Y14410D01*
X61708D01*
Y14443D01*
X61741D01*
Y14476D01*
X61774D01*
Y14542D01*
X61840D01*
Y14608D01*
X61873D01*
Y14641D01*
X61906D01*
Y14674D01*
X61939D01*
Y14707D01*
X61972D01*
Y14740D01*
X62005D01*
Y14773D01*
X62038D01*
Y14806D01*
X62071D01*
Y14872D01*
X62104D01*
Y14905D01*
X62137D01*
Y14938D01*
X62169D01*
Y14971D01*
X62203D01*
Y15004D01*
X62235D01*
Y15037D01*
X62268D01*
Y15070D01*
X62301D01*
Y15103D01*
X62334D01*
Y15168D01*
X62367D01*
Y15202D01*
X62400D01*
Y15235D01*
X62433D01*
Y15267D01*
X62466D01*
Y15300D01*
X62499D01*
Y15333D01*
X62532D01*
Y15399D01*
X62565D01*
Y15432D01*
X62598D01*
Y15465D01*
X62631D01*
Y15498D01*
X62664D01*
Y15564D01*
X62697D01*
Y15597D01*
X62730D01*
Y15630D01*
X62763D01*
Y15663D01*
X62796D01*
Y15729D01*
X62829D01*
Y15762D01*
X62862D01*
Y15828D01*
X62895D01*
Y15861D01*
X62928D01*
Y15894D01*
X62961D01*
Y15927D01*
X62994D01*
Y15993D01*
X63026D01*
Y16026D01*
X63060D01*
Y16059D01*
X63092D01*
Y16125D01*
X63125D01*
Y16157D01*
X63158D01*
Y16190D01*
X63191D01*
Y16256D01*
X63224D01*
Y16322D01*
X63257D01*
Y16355D01*
X63290D01*
Y16421D01*
X63323D01*
Y16487D01*
X63356D01*
Y16520D01*
X63389D01*
Y16553D01*
X63422D01*
Y16619D01*
X63455D01*
Y16652D01*
X63488D01*
Y16685D01*
X63521D01*
Y16784D01*
X63554D01*
Y16850D01*
X63587D01*
Y16883D01*
X63620D01*
Y16916D01*
X63653D01*
Y17047D01*
X63686D01*
Y17080D01*
X63719D01*
Y17113D01*
X63752D01*
Y17212D01*
X63785D01*
Y17311D01*
X63818D01*
Y17344D01*
X63851D01*
Y17410D01*
X63884D01*
Y17509D01*
X63916D01*
Y17542D01*
X63950D01*
Y17608D01*
X63982D01*
Y17773D01*
X64015D01*
Y17839D01*
X64048D01*
Y17905D01*
X64081D01*
Y18036D01*
X64114D01*
Y18201D01*
X64147D01*
Y18300D01*
X64180D01*
Y18465D01*
X64213D01*
Y18860D01*
X64180D01*
Y19058D01*
X64147D01*
Y19124D01*
X64114D01*
Y19289D01*
X64081D01*
Y19421D01*
X64048D01*
Y19487D01*
X64015D01*
Y19553D01*
X63982D01*
Y19651D01*
X63950D01*
Y19717D01*
X63916D01*
Y19750D01*
X63884D01*
Y19849D01*
X63851D01*
Y19915D01*
X63818D01*
Y19948D01*
X63785D01*
Y20014D01*
X63752D01*
Y20047D01*
X63719D01*
Y20080D01*
X63686D01*
Y20113D01*
X63653D01*
Y20179D01*
X63620D01*
Y20212D01*
X63587D01*
Y20245D01*
X63554D01*
Y20278D01*
X63521D01*
Y20311D01*
X63488D01*
Y20344D01*
X63455D01*
Y20377D01*
X63422D01*
Y20410D01*
X63356D01*
Y20443D01*
X63290D01*
Y20476D01*
X63224D01*
Y20508D01*
X63191D01*
Y20541D01*
X63125D01*
Y20574D01*
X63026D01*
Y20607D01*
X62961D01*
Y20640D01*
X62862D01*
Y20673D01*
X62104D01*
Y20640D01*
X61972D01*
Y20607D01*
X61906D01*
Y20574D01*
X61807D01*
Y20541D01*
X61708D01*
Y20508D01*
X61642D01*
Y20476D01*
X61609D01*
Y20443D01*
X61543D01*
Y20410D01*
X61477D01*
Y20377D01*
X61444D01*
Y20344D01*
X61411D01*
Y20311D01*
X61345D01*
Y20278D01*
X61313D01*
Y20245D01*
X61279D01*
Y20212D01*
X61247D01*
Y20179D01*
X61214D01*
Y20146D01*
X61181D01*
Y20113D01*
X61148D01*
Y20080D01*
X61115D01*
Y20047D01*
X61082D01*
Y20014D01*
X61049D01*
Y19981D01*
X61016D01*
Y19948D01*
X60983D01*
Y19882D01*
X60950D01*
Y19849D01*
X60917D01*
Y19783D01*
X60884D01*
Y19750D01*
X60851D01*
Y19684D01*
X60818D01*
Y19651D01*
X60785D01*
Y19618D01*
X60752D01*
Y19520D01*
X60719D01*
Y19454D01*
X60686D01*
Y19421D01*
X60653D01*
Y19355D01*
X60620D01*
Y19223D01*
X60587D01*
Y19190D01*
X60554D01*
Y19124D01*
X60521D01*
Y19025D01*
X60488D01*
Y18959D01*
X60455D01*
Y18926D01*
X60422D01*
Y18827D01*
X60390D01*
Y18762D01*
X60356D01*
Y18729D01*
X60324D01*
Y18663D01*
X60291D01*
Y18564D01*
X60258D01*
Y18531D01*
X60225D01*
Y18465D01*
X60192D01*
Y18366D01*
X60159D01*
Y18333D01*
X60126D01*
Y18300D01*
X60093D01*
Y18201D01*
X60060D01*
Y18135D01*
X60027D01*
Y18102D01*
X59994D01*
Y18069D01*
X59961D01*
Y18003D01*
X59928D01*
Y17937D01*
X59895D01*
Y17905D01*
X59862D01*
Y17839D01*
X59829D01*
Y17773D01*
X59796D01*
Y17740D01*
X59763D01*
Y17674D01*
X59730D01*
Y17608D01*
X59697D01*
Y17575D01*
X59664D01*
Y17542D01*
X59631D01*
Y17476D01*
X59598D01*
Y17443D01*
X59565D01*
Y17410D01*
X59532D01*
Y17311D01*
X59500D01*
Y17278D01*
X59466D01*
Y17245D01*
X59434D01*
Y17179D01*
X59401D01*
Y17113D01*
X59368D01*
Y17080D01*
X59335D01*
Y17047D01*
X59302D01*
Y16982D01*
X59269D01*
Y16949D01*
X59236D01*
Y16916D01*
X59203D01*
Y16883D01*
X59170D01*
Y16817D01*
X59137D01*
Y16784D01*
X59104D01*
Y16751D01*
X59071D01*
Y16685D01*
X59038D01*
Y16652D01*
X58972D01*
Y16586D01*
X58939D01*
Y16553D01*
X58906D01*
Y16520D01*
X58873D01*
Y16487D01*
X58840D01*
Y16421D01*
X58774D01*
Y16355D01*
X58741D01*
Y16322D01*
X58708D01*
Y16289D01*
X58675D01*
Y16256D01*
X58643D01*
Y16223D01*
X58609D01*
Y16190D01*
X58577D01*
Y16157D01*
X58544D01*
Y16125D01*
X58511D01*
Y16092D01*
X58478D01*
Y16059D01*
X58445D01*
Y16026D01*
X58412D01*
Y15993D01*
X58379D01*
Y15927D01*
X58313D01*
Y15894D01*
X58280D01*
Y15861D01*
X58247D01*
Y15828D01*
X58214D01*
Y15795D01*
X58181D01*
Y15762D01*
X58148D01*
Y15729D01*
X58082D01*
Y15663D01*
X58049D01*
Y15630D01*
X57983D01*
Y15564D01*
X57917D01*
Y15531D01*
X57884D01*
Y15498D01*
X57851D01*
Y15465D01*
X57818D01*
Y15432D01*
X57785D01*
Y15399D01*
X57753D01*
Y15366D01*
X57719D01*
Y15333D01*
X57687D01*
Y15300D01*
X57621D01*
Y15235D01*
X57555D01*
Y15202D01*
X57522D01*
Y15168D01*
X57489D01*
Y15136D01*
X57456D01*
Y15103D01*
X57390D01*
Y15070D01*
X57324D01*
Y15037D01*
X57291D01*
Y15004D01*
X57258D01*
Y14971D01*
X57225D01*
Y14938D01*
X57192D01*
Y14905D01*
X57159D01*
Y14872D01*
X57093D01*
Y14839D01*
X57060D01*
Y14806D01*
X57027D01*
Y14773D01*
X56961D01*
Y14740D01*
X56928D01*
Y14707D01*
X56895D01*
Y14674D01*
X56830D01*
Y14641D01*
X56764D01*
Y14575D01*
X56731D01*
Y14542D01*
X56665D01*
Y14509D01*
X56632D01*
Y14476D01*
X56599D01*
Y14443D01*
X56533D01*
Y14410D01*
X56500D01*
Y14377D01*
X56467D01*
Y14345D01*
X56401D01*
Y14311D01*
X56368D01*
Y14278D01*
X56302D01*
Y14246D01*
X56269D01*
Y14213D01*
X56203D01*
Y14180D01*
X56170D01*
Y14147D01*
X56137D01*
Y14114D01*
X56071D01*
Y14081D01*
X56038D01*
Y14048D01*
X55972D01*
Y14015D01*
X55940D01*
Y13982D01*
X55874D01*
Y13949D01*
X55841D01*
Y13916D01*
X55808D01*
Y13883D01*
X55742D01*
Y13850D01*
X55709D01*
Y13817D01*
X55676D01*
Y13784D01*
X55610D01*
Y13751D01*
X55544D01*
Y13718D01*
X55511D01*
Y13685D01*
X55478D01*
Y13652D01*
X55412D01*
Y13586D01*
X55379D01*
Y13553D01*
X55280D01*
Y13520D01*
X55247D01*
Y13487D01*
X55214D01*
Y13454D01*
X55181D01*
Y13421D01*
X55115D01*
Y13388D01*
X55082D01*
Y13356D01*
X55050D01*
Y13323D01*
X54984D01*
Y13290D01*
X54951D01*
Y13257D01*
X54885D01*
Y13224D01*
X54852D01*
Y13191D01*
X54786D01*
Y13158D01*
X54753D01*
Y13125D01*
X54720D01*
Y13092D01*
X54654D01*
Y13059D01*
X54621D01*
Y13026D01*
X54588D01*
Y12993D01*
X54522D01*
Y12960D01*
X54456D01*
Y12927D01*
X54423D01*
Y12894D01*
X54357D01*
Y12861D01*
X53896D01*
Y12894D01*
X53830D01*
Y12927D01*
X53797D01*
Y12960D01*
X53764D01*
Y12993D01*
X53698D01*
Y13026D01*
X53665D01*
Y13059D01*
X53632D01*
Y13125D01*
X53599D01*
Y13191D01*
X53566D01*
Y13257D01*
X53533D01*
Y13619D01*
X53566D01*
Y13652D01*
X53599D01*
Y13718D01*
X53632D01*
Y13784D01*
X53665D01*
Y13817D01*
X53698D01*
Y13850D01*
X53731D01*
Y13883D01*
X53764D01*
Y13916D01*
X53797D01*
Y13949D01*
X53830D01*
Y13982D01*
X53896D01*
Y14015D01*
X53929D01*
Y14048D01*
X53962D01*
Y14081D01*
X54028D01*
Y14114D01*
X54094D01*
Y14147D01*
X54127D01*
Y14180D01*
X54159D01*
Y14213D01*
X54225D01*
Y14246D01*
X54258D01*
Y14278D01*
X54291D01*
Y14311D01*
X54357D01*
Y14345D01*
X54423D01*
Y14410D01*
X54489D01*
Y14443D01*
X54555D01*
Y14476D01*
X54588D01*
Y14509D01*
X54621D01*
Y14542D01*
X54687D01*
Y14575D01*
X54720D01*
Y14608D01*
X54753D01*
Y14641D01*
X54819D01*
Y14674D01*
X54852D01*
Y14707D01*
X54885D01*
Y14740D01*
X54951D01*
Y14773D01*
X55016D01*
Y14806D01*
X55050D01*
Y14839D01*
X55082D01*
Y14872D01*
X55148D01*
Y14905D01*
X55181D01*
Y14938D01*
X55214D01*
Y14971D01*
X55280D01*
Y15004D01*
X55313D01*
Y15037D01*
X55346D01*
Y15070D01*
X55412D01*
Y15103D01*
X55478D01*
Y15136D01*
X55511D01*
Y15168D01*
X55544D01*
Y15202D01*
X55610D01*
Y15235D01*
X55643D01*
Y15267D01*
X55676D01*
Y15300D01*
X55709D01*
Y15333D01*
X55775D01*
Y15366D01*
X55808D01*
Y15399D01*
X55841D01*
Y15432D01*
X55906D01*
Y15465D01*
X55940D01*
Y15498D01*
X55972D01*
Y15531D01*
X56038D01*
Y15564D01*
X56071D01*
Y15597D01*
X56104D01*
Y15630D01*
X56170D01*
Y15663D01*
X56203D01*
Y15696D01*
X56236D01*
Y15729D01*
X56302D01*
Y15762D01*
X56335D01*
Y15795D01*
X56368D01*
Y15828D01*
X56401D01*
Y15861D01*
X56467D01*
Y15894D01*
X56500D01*
Y15927D01*
X56533D01*
Y15960D01*
X56599D01*
Y15993D01*
X56632D01*
Y16026D01*
X56665D01*
Y16059D01*
X56698D01*
Y16092D01*
X56731D01*
Y16125D01*
X56764D01*
Y16157D01*
X56796D01*
Y16190D01*
X56862D01*
Y16223D01*
X56895D01*
Y16256D01*
X56928D01*
Y16289D01*
X56961D01*
Y16322D01*
X57027D01*
Y16355D01*
X57060D01*
Y16388D01*
X57093D01*
Y16421D01*
X57126D01*
Y16454D01*
X57192D01*
Y16487D01*
X57225D01*
Y16520D01*
X57258D01*
Y16553D01*
X57291D01*
Y16586D01*
X57324D01*
Y16619D01*
X57357D01*
Y16652D01*
X57390D01*
Y16685D01*
X57423D01*
Y16718D01*
X57456D01*
Y16751D01*
X57489D01*
Y16784D01*
X57522D01*
Y16817D01*
X57555D01*
Y16850D01*
X57588D01*
Y16883D01*
X57621D01*
Y16916D01*
X57654D01*
Y16949D01*
X57687D01*
Y16982D01*
X57719D01*
Y17015D01*
X57753D01*
Y17080D01*
X57785D01*
Y17113D01*
X57851D01*
Y17179D01*
X57884D01*
Y17212D01*
X57917D01*
Y17245D01*
X57950D01*
Y17278D01*
X57983D01*
Y17311D01*
X58016D01*
Y17344D01*
X58049D01*
Y17377D01*
X58082D01*
Y17443D01*
X58115D01*
Y17509D01*
X58181D01*
Y17575D01*
X58214D01*
Y17608D01*
X58247D01*
Y17641D01*
X58280D01*
Y17674D01*
X58313D01*
Y17740D01*
X58346D01*
Y17773D01*
X58379D01*
Y17806D01*
X58412D01*
Y17872D01*
X58445D01*
Y17905D01*
X58478D01*
Y17937D01*
X58511D01*
Y18003D01*
X58544D01*
Y18069D01*
X58577D01*
Y18102D01*
X58609D01*
Y18135D01*
X58643D01*
Y18201D01*
X58675D01*
Y18267D01*
X58708D01*
Y18300D01*
X58741D01*
Y18366D01*
X58774D01*
Y18399D01*
X58807D01*
Y18432D01*
X58840D01*
Y18498D01*
X58873D01*
Y18597D01*
X58906D01*
Y18630D01*
X58939D01*
Y18663D01*
X58972D01*
Y18729D01*
X59005D01*
Y18794D01*
X59038D01*
Y18827D01*
X59071D01*
Y18893D01*
X59104D01*
Y18992D01*
X59137D01*
Y19025D01*
X59170D01*
Y19091D01*
X59203D01*
Y19157D01*
X59236D01*
Y19223D01*
X59269D01*
Y19289D01*
X59302D01*
Y19355D01*
X59335D01*
Y19454D01*
X59368D01*
Y19487D01*
X59401D01*
Y19553D01*
X59434D01*
Y19618D01*
X59466D01*
Y19684D01*
X59500D01*
Y19750D01*
X59532D01*
Y19849D01*
X59565D01*
Y19882D01*
X59598D01*
Y19948D01*
X59631D01*
Y20014D01*
X59664D01*
Y20113D01*
X59697D01*
Y20146D01*
X59730D01*
Y20212D01*
X59763D01*
Y20278D01*
X59796D01*
Y20311D01*
X59829D01*
Y20377D01*
X59862D01*
Y20443D01*
X59895D01*
Y20476D01*
X59928D01*
Y20508D01*
X59961D01*
Y20574D01*
X59994D01*
Y20640D01*
X60027D01*
Y20673D01*
X60060D01*
Y20706D01*
X60093D01*
Y20739D01*
X60126D01*
Y20772D01*
X60159D01*
Y20805D01*
X60192D01*
Y20871D01*
X60225D01*
Y20904D01*
X60258D01*
Y20937D01*
X60291D01*
Y20970D01*
X60324D01*
Y21003D01*
X60356D01*
Y21036D01*
X60390D01*
Y21069D01*
X60422D01*
Y21102D01*
X60488D01*
Y21135D01*
X60521D01*
Y21168D01*
X60554D01*
Y21201D01*
X60587D01*
Y21234D01*
X60653D01*
Y21267D01*
X60686D01*
Y21300D01*
X60719D01*
Y21333D01*
X60752D01*
Y21366D01*
X60785D01*
Y21398D01*
X60851D01*
Y21431D01*
X60950D01*
Y21464D01*
X60983D01*
Y21497D01*
X61016D01*
Y21530D01*
X61082D01*
Y21563D01*
X61181D01*
Y21596D01*
X61214D01*
Y21629D01*
X61279D01*
Y21662D01*
X61411D01*
Y21695D01*
X61444D01*
Y21728D01*
X61510D01*
Y21761D01*
X61708D01*
Y21794D01*
X61807D01*
Y21827D01*
X61906D01*
Y21860D01*
X62235D01*
Y21893D01*
X62763D01*
Y21860D01*
D02*
G37*
G36*
X64444Y14443D02*
X64609D01*
Y14410D01*
X64708D01*
Y14377D01*
X64741D01*
Y14345D01*
X64774D01*
Y14311D01*
X64806D01*
Y14278D01*
X64840D01*
Y14246D01*
X64872D01*
Y14180D01*
X64905D01*
Y14147D01*
X64938D01*
Y14114D01*
X64971D01*
Y13652D01*
X64938D01*
Y13619D01*
X64905D01*
Y13553D01*
X64872D01*
Y13454D01*
X64840D01*
Y13356D01*
X64806D01*
Y13323D01*
X64774D01*
Y13191D01*
X64741D01*
Y12960D01*
X64708D01*
Y12828D01*
X64675D01*
Y12630D01*
X64642D01*
Y12531D01*
X64675D01*
Y12268D01*
X64708D01*
Y12136D01*
X64741D01*
Y11938D01*
X64774D01*
Y11806D01*
X64806D01*
Y11773D01*
X64840D01*
Y11675D01*
X64872D01*
Y11543D01*
X64905D01*
Y11510D01*
X64938D01*
Y11444D01*
X64971D01*
Y11345D01*
X65004D01*
Y11279D01*
X65037D01*
Y11246D01*
X65070D01*
Y11180D01*
X65103D01*
Y11114D01*
X65136D01*
Y11081D01*
X65169D01*
Y11015D01*
X65202D01*
Y10982D01*
X65235D01*
Y10949D01*
X65268D01*
Y10883D01*
X65301D01*
Y10850D01*
X65334D01*
Y10785D01*
X65367D01*
Y10751D01*
X65400D01*
Y10718D01*
X65433D01*
Y10686D01*
X65466D01*
Y10653D01*
X65499D01*
Y10620D01*
X65532D01*
Y10554D01*
X65565D01*
Y10521D01*
X65598D01*
Y10488D01*
X65631D01*
Y10455D01*
X65664D01*
Y10422D01*
X65697D01*
Y10389D01*
X65729D01*
Y10356D01*
X65763D01*
Y10323D01*
X65795D01*
Y10290D01*
X65861D01*
Y10224D01*
X65894D01*
Y10191D01*
X65960D01*
Y10158D01*
X65993D01*
Y10092D01*
X66059D01*
Y10059D01*
X66092D01*
Y10026D01*
X66125D01*
Y9993D01*
X66191D01*
Y9960D01*
X66224D01*
Y9927D01*
X66290D01*
Y9894D01*
X66323D01*
Y9861D01*
X66356D01*
Y9828D01*
X66389D01*
Y9796D01*
X66422D01*
Y9763D01*
X66455D01*
Y9730D01*
X66521D01*
Y9664D01*
X66554D01*
Y9598D01*
X66587D01*
Y9532D01*
X66619D01*
Y9400D01*
X66653D01*
Y9169D01*
X66619D01*
Y9070D01*
X66587D01*
Y9037D01*
X66554D01*
Y8971D01*
X66521D01*
Y8939D01*
X66488D01*
Y8906D01*
X66455D01*
Y8873D01*
X66422D01*
Y8840D01*
X66389D01*
Y8807D01*
X66356D01*
Y8774D01*
X66191D01*
Y8741D01*
X65894D01*
Y8774D01*
X65763D01*
Y8807D01*
X65729D01*
Y8840D01*
X65697D01*
Y8873D01*
X65631D01*
Y8906D01*
X65598D01*
Y8939D01*
X65565D01*
Y8971D01*
X65499D01*
Y9004D01*
X65466D01*
Y9037D01*
X65433D01*
Y9070D01*
X65400D01*
Y9103D01*
X65334D01*
Y9136D01*
X65301D01*
Y9169D01*
X65268D01*
Y9202D01*
X65235D01*
Y9235D01*
X65202D01*
Y9268D01*
X65169D01*
Y9301D01*
X65103D01*
Y9334D01*
X65070D01*
Y9400D01*
X65004D01*
Y9433D01*
X64971D01*
Y9466D01*
X64938D01*
Y9499D01*
X64905D01*
Y9532D01*
X64872D01*
Y9565D01*
X64840D01*
Y9598D01*
X64806D01*
Y9631D01*
X64774D01*
Y9664D01*
X64741D01*
Y9697D01*
X64708D01*
Y9730D01*
X64675D01*
Y9763D01*
X64642D01*
Y9828D01*
X64609D01*
Y9861D01*
X64543D01*
Y9927D01*
X64510D01*
Y9960D01*
X64477D01*
Y9993D01*
X64444D01*
Y10026D01*
X64411D01*
Y10092D01*
X64378D01*
Y10125D01*
X64345D01*
Y10158D01*
X64312D01*
Y10224D01*
X64279D01*
Y10257D01*
X64246D01*
Y10290D01*
X64213D01*
Y10356D01*
X64180D01*
Y10389D01*
X64147D01*
Y10422D01*
X64114D01*
Y10488D01*
X64081D01*
Y10587D01*
X64048D01*
Y10620D01*
X64015D01*
Y10653D01*
X63982D01*
Y10751D01*
X63950D01*
Y10817D01*
X63916D01*
Y10850D01*
X63884D01*
Y10916D01*
X63851D01*
Y11015D01*
X63818D01*
Y11048D01*
X63785D01*
Y11147D01*
X63752D01*
Y11213D01*
X63719D01*
Y11279D01*
X63686D01*
Y11345D01*
X63653D01*
Y11543D01*
X63620D01*
Y11642D01*
X63587D01*
Y11675D01*
X63554D01*
Y11905D01*
X63521D01*
Y12169D01*
X63488D01*
Y12433D01*
X63455D01*
Y12729D01*
X63488D01*
Y12927D01*
X63521D01*
Y13158D01*
X63554D01*
Y13421D01*
X63587D01*
Y13487D01*
X63620D01*
Y13586D01*
X63653D01*
Y13751D01*
X63686D01*
Y13817D01*
X63719D01*
Y13883D01*
X63752D01*
Y13982D01*
X63785D01*
Y14048D01*
X63818D01*
Y14081D01*
X63851D01*
Y14147D01*
X63884D01*
Y14213D01*
X63916D01*
Y14278D01*
X63982D01*
Y14311D01*
X64015D01*
Y14345D01*
X64081D01*
Y14410D01*
X64147D01*
Y14443D01*
X64345D01*
Y14476D01*
X64444D01*
Y14443D01*
D02*
G37*
G36*
X8372Y13284D02*
X8604D01*
Y13207D01*
X8681D01*
Y13129D01*
X8835D01*
Y13052D01*
X8913D01*
Y12898D01*
X8990D01*
Y12821D01*
X9067D01*
Y12589D01*
X9144D01*
Y12049D01*
X9067D01*
Y11817D01*
X8990D01*
Y11740D01*
X8913D01*
Y11586D01*
X8835D01*
Y11508D01*
X8681D01*
Y11431D01*
X8604D01*
Y11354D01*
X8372D01*
Y10428D01*
X8604D01*
Y10351D01*
X8681D01*
Y10274D01*
X8835D01*
Y10196D01*
X8913D01*
Y10042D01*
X8990D01*
Y9965D01*
X9067D01*
Y9733D01*
X9144D01*
Y9193D01*
X9067D01*
Y8961D01*
X8990D01*
Y8884D01*
X8913D01*
Y8730D01*
X8835D01*
Y8653D01*
X8681D01*
Y8575D01*
X8604D01*
Y8498D01*
X8372D01*
Y8421D01*
X7832D01*
Y8498D01*
X7600D01*
Y8575D01*
X7523D01*
Y8653D01*
X7369D01*
Y8730D01*
X7292D01*
Y8884D01*
X7215D01*
Y8961D01*
X7137D01*
Y9193D01*
X7060D01*
Y9733D01*
X7137D01*
Y9965D01*
X7215D01*
Y10042D01*
X7292D01*
Y10196D01*
X7369D01*
Y10274D01*
X7523D01*
Y10351D01*
X7600D01*
Y10428D01*
X7832D01*
Y10505D01*
X7909D01*
Y11277D01*
X7832D01*
Y11354D01*
X7600D01*
Y11431D01*
X7523D01*
Y11508D01*
X7369D01*
Y11586D01*
X7292D01*
Y11740D01*
X7215D01*
Y11817D01*
X7137D01*
Y12049D01*
X7060D01*
Y12589D01*
X7137D01*
Y12821D01*
X7215D01*
Y12898D01*
X7292D01*
Y13052D01*
X7369D01*
Y13129D01*
X7523D01*
Y13207D01*
X7600D01*
Y13284D01*
X7832D01*
Y13361D01*
X8372D01*
Y13284D01*
D02*
G37*
G36*
X61906Y11048D02*
X62005D01*
Y11015D01*
X62071D01*
Y10982D01*
X62268D01*
Y10949D01*
X62334D01*
Y10916D01*
X62400D01*
Y10883D01*
X62466D01*
Y10850D01*
X62565D01*
Y10817D01*
X62598D01*
Y10785D01*
X62664D01*
Y10751D01*
X62730D01*
Y10718D01*
X62763D01*
Y10686D01*
X62796D01*
Y10653D01*
X62862D01*
Y10620D01*
X62895D01*
Y10587D01*
X62928D01*
Y10554D01*
X62961D01*
Y10521D01*
X62994D01*
Y10488D01*
X63026D01*
Y10455D01*
X63060D01*
Y10422D01*
X63092D01*
Y10389D01*
X63125D01*
Y10356D01*
X63158D01*
Y10323D01*
X63191D01*
Y10290D01*
X63224D01*
Y10257D01*
X63257D01*
Y10224D01*
X63290D01*
Y10191D01*
X63323D01*
Y10125D01*
X63356D01*
Y10092D01*
X63389D01*
Y10059D01*
X63422D01*
Y9993D01*
X63455D01*
Y9960D01*
X63488D01*
Y9894D01*
X63521D01*
Y9828D01*
X63554D01*
Y9763D01*
X63587D01*
Y9730D01*
X63620D01*
Y9631D01*
X63653D01*
Y9565D01*
X63686D01*
Y9532D01*
X63719D01*
Y9466D01*
X63752D01*
Y9334D01*
X63785D01*
Y9268D01*
X63818D01*
Y9235D01*
X63851D01*
Y9103D01*
X63884D01*
Y8971D01*
X63916D01*
Y8939D01*
X63950D01*
Y8840D01*
X63982D01*
Y8642D01*
X64015D01*
Y8510D01*
X63982D01*
Y8345D01*
X63950D01*
Y8213D01*
X63884D01*
Y8180D01*
X63851D01*
Y8115D01*
X63785D01*
Y8082D01*
X63752D01*
Y8049D01*
X63719D01*
Y8016D01*
X63653D01*
Y7983D01*
X63191D01*
Y8016D01*
X63125D01*
Y8049D01*
X63092D01*
Y8082D01*
X63026D01*
Y8115D01*
X62994D01*
Y8147D01*
X62961D01*
Y8180D01*
X62928D01*
Y8213D01*
X62895D01*
Y8279D01*
X62862D01*
Y8411D01*
X62829D01*
Y8510D01*
X62796D01*
Y8543D01*
X62763D01*
Y8708D01*
X62730D01*
Y8807D01*
X62697D01*
Y8840D01*
X62664D01*
Y8939D01*
X62631D01*
Y9004D01*
X62598D01*
Y9070D01*
X62565D01*
Y9103D01*
X62532D01*
Y9202D01*
X62499D01*
Y9235D01*
X62466D01*
Y9301D01*
X62433D01*
Y9367D01*
X62400D01*
Y9400D01*
X62367D01*
Y9433D01*
X62334D01*
Y9499D01*
X62301D01*
Y9532D01*
X62268D01*
Y9598D01*
X62203D01*
Y9631D01*
X62169D01*
Y9664D01*
X62137D01*
Y9697D01*
X62104D01*
Y9730D01*
X62038D01*
Y9763D01*
X61972D01*
Y9796D01*
X61906D01*
Y9828D01*
X61840D01*
Y9861D01*
X61477D01*
Y9828D01*
X61411D01*
Y9796D01*
X61345D01*
Y9763D01*
X61247D01*
Y9730D01*
X61214D01*
Y9697D01*
X61181D01*
Y9664D01*
X61115D01*
Y9631D01*
X61049D01*
Y9598D01*
X61016D01*
Y9565D01*
X60950D01*
Y9532D01*
X60884D01*
Y9499D01*
X60851D01*
Y9466D01*
X60818D01*
Y9433D01*
X60785D01*
Y9400D01*
X60719D01*
Y9367D01*
X60686D01*
Y9334D01*
X60653D01*
Y9301D01*
X60620D01*
Y9235D01*
X60554D01*
Y9202D01*
X60521D01*
Y9169D01*
X60488D01*
Y9136D01*
X60455D01*
Y9103D01*
X60422D01*
Y9070D01*
X60390D01*
Y9004D01*
X60324D01*
Y8971D01*
X60291D01*
Y8939D01*
X60258D01*
Y8906D01*
X60225D01*
Y8873D01*
X60192D01*
Y8840D01*
X60159D01*
Y8807D01*
X60126D01*
Y8774D01*
X60093D01*
Y8741D01*
X60060D01*
Y8708D01*
X60027D01*
Y8675D01*
X59994D01*
Y8642D01*
X59961D01*
Y8576D01*
X59928D01*
Y8543D01*
X59862D01*
Y8477D01*
X59829D01*
Y8444D01*
X59730D01*
Y8411D01*
X59598D01*
Y8378D01*
X59434D01*
Y8411D01*
X59236D01*
Y8444D01*
X59203D01*
Y8477D01*
X59170D01*
Y8510D01*
X59104D01*
Y8543D01*
X59038D01*
Y8576D01*
X59005D01*
Y8642D01*
X58972D01*
Y8741D01*
X58939D01*
Y8807D01*
X58906D01*
Y8873D01*
X58873D01*
Y9070D01*
X58906D01*
Y9169D01*
X58939D01*
Y9202D01*
X58972D01*
Y9301D01*
X59005D01*
Y9334D01*
X59038D01*
Y9367D01*
X59071D01*
Y9400D01*
X59104D01*
Y9466D01*
X59137D01*
Y9499D01*
X59170D01*
Y9532D01*
X59203D01*
Y9565D01*
X59236D01*
Y9631D01*
X59302D01*
Y9697D01*
X59335D01*
Y9730D01*
X59368D01*
Y9763D01*
X59434D01*
Y9828D01*
X59466D01*
Y9861D01*
X59532D01*
Y9927D01*
X59565D01*
Y9960D01*
X59631D01*
Y10026D01*
X59664D01*
Y10059D01*
X59697D01*
Y10092D01*
X59763D01*
Y10125D01*
X59796D01*
Y10158D01*
X59829D01*
Y10191D01*
X59862D01*
Y10224D01*
X59895D01*
Y10257D01*
X59961D01*
Y10290D01*
X59994D01*
Y10323D01*
X60027D01*
Y10356D01*
X60060D01*
Y10389D01*
X60093D01*
Y10422D01*
X60159D01*
Y10455D01*
X60192D01*
Y10488D01*
X60225D01*
Y10521D01*
X60291D01*
Y10554D01*
X60324D01*
Y10587D01*
X60356D01*
Y10620D01*
X60422D01*
Y10653D01*
X60488D01*
Y10686D01*
X60521D01*
Y10718D01*
X60587D01*
Y10751D01*
X60653D01*
Y10785D01*
X60719D01*
Y10817D01*
X60752D01*
Y10850D01*
X60851D01*
Y10883D01*
X60950D01*
Y10916D01*
X60983D01*
Y10949D01*
X61049D01*
Y10982D01*
X61247D01*
Y11015D01*
X61313D01*
Y11048D01*
X61378D01*
Y11081D01*
X61906D01*
Y11048D01*
D02*
G37*
G36*
X11460Y7495D02*
X11691D01*
Y7418D01*
X11768D01*
Y7340D01*
X11923D01*
Y7263D01*
X12000D01*
Y7109D01*
X12077D01*
Y7032D01*
X12154D01*
Y6800D01*
X12232D01*
Y6260D01*
X12154D01*
Y6028D01*
X12077D01*
Y5951D01*
X12000D01*
Y5797D01*
X11923D01*
Y5720D01*
X11768D01*
Y5643D01*
X11691D01*
Y5565D01*
X11460D01*
Y5488D01*
X10919D01*
Y5565D01*
X10688D01*
Y5643D01*
X10611D01*
Y5720D01*
X10456D01*
Y5797D01*
X10379D01*
Y5951D01*
X10302D01*
Y6028D01*
X10225D01*
Y6260D01*
X9067D01*
Y6028D01*
X8990D01*
Y5951D01*
X8913D01*
Y5797D01*
X8835D01*
Y5720D01*
X8681D01*
Y5643D01*
X8604D01*
Y5565D01*
X8372D01*
Y5488D01*
X7832D01*
Y5565D01*
X7600D01*
Y5643D01*
X7523D01*
Y5720D01*
X7369D01*
Y5797D01*
X7292D01*
Y5951D01*
X7215D01*
Y6028D01*
X7137D01*
Y6260D01*
X7060D01*
Y6800D01*
X7137D01*
Y7032D01*
X7215D01*
Y7109D01*
X7292D01*
Y7263D01*
X7369D01*
Y7340D01*
X7523D01*
Y7418D01*
X7600D01*
Y7495D01*
X7832D01*
Y7572D01*
X8372D01*
Y7495D01*
X8604D01*
Y7418D01*
X8681D01*
Y7340D01*
X8835D01*
Y7263D01*
X8913D01*
Y7109D01*
X8990D01*
Y7032D01*
X9067D01*
Y6800D01*
X9144D01*
Y6723D01*
X10148D01*
Y6800D01*
X10225D01*
Y7032D01*
X10302D01*
Y7109D01*
X10379D01*
Y7263D01*
X10456D01*
Y7340D01*
X10611D01*
Y7418D01*
X10688D01*
Y7495D01*
X10919D01*
Y7572D01*
X11460D01*
Y7495D01*
D02*
G37*
G36*
X14393D02*
X14624D01*
Y7418D01*
X14702D01*
Y7340D01*
X14856D01*
Y7263D01*
X14933D01*
Y7109D01*
X15010D01*
Y7032D01*
X15087D01*
Y6800D01*
X15165D01*
Y6260D01*
X15087D01*
Y6028D01*
X15010D01*
Y5951D01*
X14933D01*
Y5797D01*
X14856D01*
Y5720D01*
X14702D01*
Y5643D01*
X14624D01*
Y5565D01*
X14393D01*
Y5488D01*
X13852D01*
Y5565D01*
X13621D01*
Y5643D01*
X13544D01*
Y5720D01*
X13389D01*
Y5797D01*
X13312D01*
Y5951D01*
X13235D01*
Y6028D01*
X13158D01*
Y6260D01*
X13081D01*
Y6800D01*
X13158D01*
Y7032D01*
X13235D01*
Y7109D01*
X13312D01*
Y7263D01*
X13389D01*
Y7340D01*
X13544D01*
Y7418D01*
X13621D01*
Y7495D01*
X13852D01*
Y7572D01*
X14393D01*
Y7495D01*
D02*
G37*
G36*
X19499Y58166D02*
Y56118D01*
X19504D01*
X19521D01*
X19543Y56124D01*
X19575D01*
X19614Y56129D01*
X19657Y56140D01*
X19756Y56156D01*
X19865Y56189D01*
X19985Y56233D01*
X20094Y56293D01*
X20192Y56369D01*
Y56375D01*
X20203Y56380D01*
X20231Y56413D01*
X20269Y56462D01*
X20307Y56528D01*
X20351Y56615D01*
X20389Y56713D01*
X20416Y56822D01*
X20422Y56883D01*
X20427Y56948D01*
Y56992D01*
X20422Y57041D01*
X20411Y57101D01*
X20394Y57166D01*
X20373Y57243D01*
X20340Y57314D01*
X20296Y57385D01*
X20291Y57390D01*
X20269Y57418D01*
X20236Y57450D01*
X20192Y57489D01*
X20132Y57532D01*
X20056Y57581D01*
X19969Y57630D01*
X19865Y57674D01*
X19925Y58155D01*
X19930D01*
X19941Y58149D01*
X19963Y58144D01*
X19996Y58133D01*
X20029Y58116D01*
X20072Y58100D01*
X20165Y58056D01*
X20269Y58002D01*
X20378Y57925D01*
X20482Y57838D01*
X20580Y57729D01*
Y57723D01*
X20591Y57712D01*
X20602Y57696D01*
X20618Y57674D01*
X20635Y57641D01*
X20651Y57609D01*
X20673Y57565D01*
X20695Y57516D01*
X20717Y57461D01*
X20738Y57407D01*
X20771Y57270D01*
X20798Y57117D01*
X20809Y56948D01*
Y56888D01*
X20804Y56850D01*
X20798Y56801D01*
X20787Y56740D01*
X20777Y56675D01*
X20766Y56604D01*
X20722Y56451D01*
X20689Y56369D01*
X20656Y56293D01*
X20613Y56211D01*
X20564Y56134D01*
X20509Y56063D01*
X20444Y55993D01*
X20438Y55987D01*
X20427Y55976D01*
X20405Y55960D01*
X20373Y55938D01*
X20334Y55911D01*
X20291Y55883D01*
X20236Y55850D01*
X20176Y55818D01*
X20105Y55785D01*
X20029Y55752D01*
X19941Y55725D01*
X19848Y55698D01*
X19750Y55676D01*
X19641Y55659D01*
X19526Y55648D01*
X19406Y55643D01*
X19401D01*
X19373D01*
X19341D01*
X19291Y55648D01*
X19231Y55654D01*
X19166Y55659D01*
X19090Y55670D01*
X19013Y55687D01*
X18838Y55730D01*
X18751Y55758D01*
X18658Y55791D01*
X18571Y55834D01*
X18489Y55883D01*
X18407Y55938D01*
X18330Y55998D01*
X18325Y56003D01*
X18314Y56014D01*
X18298Y56036D01*
X18271Y56063D01*
X18243Y56096D01*
X18210Y56140D01*
X18172Y56189D01*
X18139Y56249D01*
X18101Y56309D01*
X18068Y56380D01*
X18036Y56457D01*
X18008Y56538D01*
X17981Y56626D01*
X17965Y56719D01*
X17954Y56817D01*
X17948Y56921D01*
Y56975D01*
X17954Y57013D01*
X17959Y57057D01*
X17970Y57112D01*
X17981Y57172D01*
X17998Y57243D01*
X18014Y57308D01*
X18041Y57385D01*
X18068Y57456D01*
X18107Y57532D01*
X18150Y57609D01*
X18200Y57685D01*
X18259Y57756D01*
X18325Y57822D01*
X18330Y57827D01*
X18341Y57838D01*
X18363Y57854D01*
X18396Y57876D01*
X18434Y57903D01*
X18478Y57931D01*
X18533Y57964D01*
X18598Y57996D01*
X18669Y58029D01*
X18745Y58062D01*
X18833Y58089D01*
X18926Y58116D01*
X19029Y58138D01*
X19139Y58155D01*
X19253Y58166D01*
X19379Y58171D01*
X19384D01*
X19406D01*
X19444D01*
X19499Y58166D01*
D02*
G37*
G36*
X20749Y54617D02*
X16971D01*
Y55081D01*
X20749D01*
Y54617D01*
D02*
G37*
G36*
Y53486D02*
X20351D01*
X20356Y53481D01*
X20373Y53470D01*
X20394Y53454D01*
X20422Y53426D01*
X20455Y53394D01*
X20498Y53355D01*
X20536Y53312D01*
X20580Y53257D01*
X20624Y53197D01*
X20662Y53132D01*
X20700Y53061D01*
X20738Y52984D01*
X20766Y52897D01*
X20787Y52809D01*
X20804Y52711D01*
X20809Y52613D01*
Y52574D01*
X20804Y52525D01*
X20798Y52465D01*
X20787Y52394D01*
X20771Y52318D01*
X20749Y52241D01*
X20717Y52160D01*
X20711Y52149D01*
X20700Y52127D01*
X20678Y52089D01*
X20651Y52045D01*
X20618Y51990D01*
X20580Y51941D01*
X20536Y51892D01*
X20487Y51848D01*
X20482Y51843D01*
X20460Y51832D01*
X20433Y51816D01*
X20389Y51794D01*
X20340Y51767D01*
X20280Y51745D01*
X20214Y51723D01*
X20143Y51706D01*
X20138D01*
X20116Y51701D01*
X20083Y51696D01*
X20040D01*
X19974Y51690D01*
X19903Y51685D01*
X19810Y51679D01*
X19706D01*
X18008D01*
Y52143D01*
X19532D01*
X19537D01*
X19548D01*
X19565D01*
X19592D01*
X19652D01*
X19728Y52149D01*
X19810D01*
X19892Y52154D01*
X19963Y52160D01*
X20023Y52170D01*
X20029D01*
X20050Y52181D01*
X20083Y52192D01*
X20127Y52209D01*
X20171Y52236D01*
X20220Y52269D01*
X20263Y52307D01*
X20307Y52356D01*
X20312Y52362D01*
X20323Y52383D01*
X20340Y52411D01*
X20356Y52454D01*
X20378Y52504D01*
X20394Y52564D01*
X20405Y52629D01*
X20411Y52706D01*
Y52744D01*
X20405Y52782D01*
X20400Y52831D01*
X20383Y52891D01*
X20367Y52957D01*
X20340Y53028D01*
X20307Y53099D01*
X20302Y53110D01*
X20285Y53132D01*
X20263Y53164D01*
X20231Y53202D01*
X20187Y53246D01*
X20138Y53290D01*
X20083Y53328D01*
X20018Y53361D01*
X20007Y53366D01*
X19985Y53372D01*
X19941Y53383D01*
X19881Y53399D01*
X19805Y53415D01*
X19712Y53426D01*
X19603Y53432D01*
X19477Y53437D01*
X18008D01*
Y53901D01*
X20749D01*
Y53486D01*
D02*
G37*
G36*
Y50522D02*
X20405D01*
X20411Y50516D01*
X20422Y50511D01*
X20444Y50494D01*
X20471Y50472D01*
X20498Y50445D01*
X20531Y50412D01*
X20569Y50374D01*
X20607Y50325D01*
X20646Y50276D01*
X20684Y50221D01*
X20717Y50156D01*
X20744Y50085D01*
X20771Y50014D01*
X20793Y49932D01*
X20804Y49845D01*
X20809Y49752D01*
Y49719D01*
X20804Y49697D01*
X20798Y49632D01*
X20787Y49555D01*
X20766Y49462D01*
X20733Y49359D01*
X20689Y49255D01*
X20629Y49151D01*
Y49146D01*
X20618Y49140D01*
X20596Y49107D01*
X20553Y49058D01*
X20498Y48998D01*
X20427Y48927D01*
X20340Y48856D01*
X20242Y48785D01*
X20127Y48725D01*
X20121D01*
X20110Y48720D01*
X20094Y48714D01*
X20072Y48703D01*
X20040Y48693D01*
X20001Y48676D01*
X19963Y48665D01*
X19914Y48654D01*
X19805Y48627D01*
X19679Y48600D01*
X19537Y48583D01*
X19384Y48578D01*
X19379D01*
X19368D01*
X19346D01*
X19313D01*
X19281Y48583D01*
X19237D01*
X19139Y48594D01*
X19024Y48611D01*
X18898Y48638D01*
X18767Y48671D01*
X18642Y48714D01*
X18636D01*
X18625Y48720D01*
X18609Y48731D01*
X18587Y48742D01*
X18527Y48774D01*
X18451Y48818D01*
X18369Y48873D01*
X18287Y48944D01*
X18200Y49025D01*
X18128Y49124D01*
Y49129D01*
X18123Y49135D01*
X18112Y49151D01*
X18101Y49173D01*
X18074Y49228D01*
X18036Y49304D01*
X18003Y49391D01*
X17976Y49495D01*
X17954Y49610D01*
X17948Y49730D01*
Y49774D01*
X17954Y49817D01*
X17959Y49877D01*
X17976Y49948D01*
X17992Y50025D01*
X18019Y50101D01*
X18057Y50172D01*
X18063Y50183D01*
X18074Y50205D01*
X18101Y50238D01*
X18128Y50281D01*
X18167Y50336D01*
X18216Y50385D01*
X18265Y50440D01*
X18325Y50489D01*
X16971D01*
Y50953D01*
X20749D01*
Y50522D01*
D02*
G37*
G36*
X19472Y48201D02*
X19526Y48196D01*
X19581D01*
X19641Y48185D01*
X19777Y48168D01*
X19914Y48136D01*
X20050Y48097D01*
X20176Y48043D01*
X20181D01*
X20187Y48037D01*
X20203Y48026D01*
X20225Y48015D01*
X20280Y47977D01*
X20345Y47928D01*
X20422Y47863D01*
X20498Y47781D01*
X20575Y47688D01*
X20646Y47579D01*
Y47573D01*
X20651Y47568D01*
X20662Y47551D01*
X20673Y47524D01*
X20684Y47497D01*
X20695Y47464D01*
X20728Y47382D01*
X20755Y47289D01*
X20782Y47175D01*
X20804Y47054D01*
X20809Y46923D01*
Y46869D01*
X20804Y46825D01*
X20798Y46776D01*
X20787Y46721D01*
X20777Y46656D01*
X20766Y46590D01*
X20722Y46443D01*
X20689Y46361D01*
X20656Y46285D01*
X20613Y46208D01*
X20564Y46132D01*
X20509Y46061D01*
X20444Y45990D01*
X20438Y45984D01*
X20427Y45973D01*
X20405Y45957D01*
X20373Y45935D01*
X20334Y45908D01*
X20291Y45881D01*
X20236Y45848D01*
X20171Y45815D01*
X20100Y45782D01*
X20018Y45750D01*
X19930Y45722D01*
X19838Y45695D01*
X19734Y45673D01*
X19624Y45657D01*
X19504Y45646D01*
X19379Y45640D01*
X19368D01*
X19346D01*
X19308Y45646D01*
X19253D01*
X19193Y45651D01*
X19117Y45662D01*
X19040Y45673D01*
X18953Y45695D01*
X18866Y45717D01*
X18773Y45744D01*
X18675Y45777D01*
X18582Y45821D01*
X18494Y45864D01*
X18407Y45924D01*
X18325Y45984D01*
X18254Y46061D01*
X18249Y46066D01*
X18243Y46077D01*
X18227Y46099D01*
X18205Y46126D01*
X18183Y46159D01*
X18156Y46203D01*
X18128Y46246D01*
X18101Y46301D01*
X18074Y46361D01*
X18047Y46427D01*
X17998Y46574D01*
X17959Y46743D01*
X17954Y46831D01*
X17948Y46923D01*
Y46978D01*
X17954Y47016D01*
X17959Y47065D01*
X17970Y47120D01*
X17981Y47180D01*
X17992Y47251D01*
X18041Y47398D01*
X18068Y47475D01*
X18107Y47551D01*
X18145Y47628D01*
X18200Y47704D01*
X18254Y47775D01*
X18320Y47846D01*
X18325Y47852D01*
X18336Y47863D01*
X18358Y47879D01*
X18385Y47901D01*
X18423Y47928D01*
X18473Y47961D01*
X18527Y47994D01*
X18587Y48026D01*
X18653Y48059D01*
X18735Y48092D01*
X18816Y48125D01*
X18909Y48152D01*
X19008Y48174D01*
X19111Y48190D01*
X19220Y48201D01*
X19341Y48206D01*
X19346D01*
X19363D01*
X19390D01*
X19428D01*
X19472Y48201D01*
D02*
G37*
G36*
X20749Y44581D02*
X17588D01*
X20749Y43478D01*
Y43031D01*
X17533Y41938D01*
X20749D01*
Y41458D01*
X16971D01*
Y42206D01*
X19652Y43101D01*
X19657D01*
X19668Y43107D01*
X19685Y43112D01*
X19712Y43123D01*
X19777Y43145D01*
X19859Y43172D01*
X19952Y43200D01*
X20045Y43233D01*
X20132Y43260D01*
X20209Y43282D01*
X20198Y43287D01*
X20171Y43292D01*
X20121Y43309D01*
X20056Y43331D01*
X19969Y43358D01*
X19865Y43396D01*
X19745Y43435D01*
X19603Y43484D01*
X16971Y44390D01*
Y45062D01*
X20749D01*
Y44581D01*
D02*
G37*
G36*
X20531Y39236D02*
X20591D01*
X20656Y39230D01*
X20728Y39225D01*
X20875Y39208D01*
X21028Y39187D01*
X21099Y39170D01*
X21164Y39154D01*
X21224Y39132D01*
X21279Y39110D01*
X21284D01*
X21290Y39105D01*
X21323Y39083D01*
X21372Y39056D01*
X21432Y39012D01*
X21497Y38952D01*
X21568Y38881D01*
X21639Y38794D01*
X21699Y38695D01*
Y38690D01*
X21705Y38684D01*
X21716Y38668D01*
X21721Y38646D01*
X21738Y38619D01*
X21748Y38586D01*
X21776Y38504D01*
X21809Y38406D01*
X21830Y38286D01*
X21852Y38149D01*
X21858Y38002D01*
Y37953D01*
X21852Y37920D01*
Y37876D01*
X21847Y37832D01*
X21841Y37778D01*
X21830Y37718D01*
X21803Y37592D01*
X21765Y37461D01*
X21710Y37330D01*
X21634Y37210D01*
X21628Y37205D01*
X21623Y37199D01*
X21590Y37161D01*
X21541Y37117D01*
X21470Y37063D01*
X21377Y37008D01*
X21262Y36959D01*
X21197Y36943D01*
X21126Y36932D01*
X21055Y36921D01*
X20973D01*
X21033Y37374D01*
X21044D01*
X21066Y37379D01*
X21104Y37390D01*
X21153Y37401D01*
X21203Y37423D01*
X21252Y37450D01*
X21301Y37483D01*
X21339Y37527D01*
X21344Y37538D01*
X21361Y37560D01*
X21383Y37598D01*
X21405Y37652D01*
X21432Y37718D01*
X21454Y37800D01*
X21470Y37898D01*
X21475Y38002D01*
Y38056D01*
X21470Y38111D01*
X21459Y38187D01*
X21443Y38264D01*
X21421Y38346D01*
X21388Y38428D01*
X21344Y38499D01*
X21339Y38504D01*
X21323Y38526D01*
X21290Y38559D01*
X21252Y38597D01*
X21197Y38635D01*
X21137Y38673D01*
X21066Y38712D01*
X20984Y38739D01*
X20979D01*
X20957Y38744D01*
X20913Y38750D01*
X20858Y38755D01*
X20820Y38761D01*
X20777D01*
X20728Y38766D01*
X20673D01*
X20613D01*
X20542Y38772D01*
X20471D01*
X20389D01*
X20394Y38766D01*
X20405Y38755D01*
X20422Y38739D01*
X20444Y38717D01*
X20471Y38690D01*
X20504Y38651D01*
X20536Y38608D01*
X20569Y38564D01*
X20635Y38449D01*
X20695Y38324D01*
X20717Y38253D01*
X20733Y38177D01*
X20744Y38095D01*
X20749Y38013D01*
Y37985D01*
X20744Y37958D01*
Y37920D01*
X20738Y37871D01*
X20728Y37816D01*
X20717Y37756D01*
X20700Y37691D01*
X20678Y37620D01*
X20651Y37549D01*
X20618Y37478D01*
X20580Y37401D01*
X20531Y37330D01*
X20476Y37259D01*
X20416Y37194D01*
X20345Y37134D01*
X20340Y37128D01*
X20329Y37123D01*
X20302Y37106D01*
X20274Y37084D01*
X20231Y37063D01*
X20187Y37035D01*
X20132Y37008D01*
X20067Y36981D01*
X20001Y36953D01*
X19925Y36926D01*
X19848Y36899D01*
X19761Y36877D01*
X19575Y36839D01*
X19472Y36833D01*
X19368Y36828D01*
X19363D01*
X19352D01*
X19330D01*
X19302D01*
X19264Y36833D01*
X19226D01*
X19128Y36844D01*
X19018Y36861D01*
X18898Y36888D01*
X18773Y36921D01*
X18647Y36970D01*
X18642D01*
X18631Y36975D01*
X18614Y36986D01*
X18593Y36997D01*
X18533Y37030D01*
X18456Y37074D01*
X18374Y37134D01*
X18292Y37205D01*
X18205Y37286D01*
X18134Y37379D01*
Y37385D01*
X18128Y37390D01*
X18118Y37407D01*
X18107Y37429D01*
X18074Y37483D01*
X18041Y37560D01*
X18008Y37652D01*
X17976Y37762D01*
X17954Y37882D01*
X17948Y38013D01*
Y38062D01*
X17954Y38095D01*
X17959Y38133D01*
X17970Y38182D01*
X17981Y38237D01*
X17998Y38297D01*
X18019Y38357D01*
X18047Y38422D01*
X18079Y38488D01*
X18118Y38559D01*
X18161Y38624D01*
X18216Y38690D01*
X18276Y38755D01*
X18347Y38815D01*
X18008D01*
Y39241D01*
X20378D01*
X20383D01*
X20405D01*
X20438D01*
X20482D01*
X20531Y39236D01*
D02*
G37*
G36*
X20749Y35829D02*
X19090D01*
X19084D01*
X19079D01*
X19040D01*
X18991D01*
X18931Y35823D01*
X18860Y35818D01*
X18789Y35807D01*
X18724Y35791D01*
X18664Y35774D01*
X18658D01*
X18642Y35763D01*
X18614Y35747D01*
X18582Y35730D01*
X18549Y35703D01*
X18511Y35670D01*
X18473Y35627D01*
X18440Y35578D01*
X18434Y35572D01*
X18423Y35556D01*
X18412Y35523D01*
X18396Y35485D01*
X18380Y35441D01*
X18363Y35386D01*
X18358Y35321D01*
X18352Y35255D01*
Y35228D01*
X18358Y35206D01*
X18363Y35152D01*
X18374Y35081D01*
X18402Y35004D01*
X18434Y34917D01*
X18478Y34830D01*
X18543Y34748D01*
X18554Y34737D01*
X18582Y34715D01*
X18604Y34699D01*
X18631Y34682D01*
X18664Y34660D01*
X18702Y34644D01*
X18745Y34622D01*
X18800Y34600D01*
X18860Y34584D01*
X18926Y34567D01*
X18997Y34556D01*
X19073Y34546D01*
X19166Y34535D01*
X19259D01*
X20749D01*
Y34071D01*
X18008D01*
Y34486D01*
X18402D01*
X18396Y34491D01*
X18380Y34502D01*
X18358Y34518D01*
X18330Y34540D01*
X18298Y34573D01*
X18259Y34611D01*
X18216Y34655D01*
X18172Y34709D01*
X18134Y34764D01*
X18090Y34830D01*
X18052Y34901D01*
X18019Y34977D01*
X17992Y35064D01*
X17970Y35152D01*
X17954Y35250D01*
X17948Y35354D01*
Y35397D01*
X17954Y35441D01*
X17959Y35501D01*
X17970Y35572D01*
X17987Y35649D01*
X18008Y35730D01*
X18041Y35807D01*
X18047Y35818D01*
X18057Y35840D01*
X18074Y35878D01*
X18101Y35921D01*
X18134Y35976D01*
X18178Y36025D01*
X18221Y36074D01*
X18276Y36118D01*
X18281Y36124D01*
X18303Y36134D01*
X18330Y36151D01*
X18369Y36178D01*
X18423Y36200D01*
X18478Y36222D01*
X18543Y36249D01*
X18614Y36266D01*
X18620D01*
X18642Y36271D01*
X18675Y36276D01*
X18718Y36282D01*
X18784D01*
X18860Y36287D01*
X18953Y36293D01*
X19068D01*
X20749D01*
Y35829D01*
D02*
G37*
G36*
Y32897D02*
X18008D01*
Y33361D01*
X20749D01*
Y32897D01*
D02*
G37*
G36*
X17501D02*
X16971D01*
Y33361D01*
X17501D01*
Y32897D01*
D02*
G37*
G36*
X20749Y31717D02*
X19013D01*
X19008D01*
X18997D01*
X18980D01*
X18958D01*
X18898Y31712D01*
X18822Y31701D01*
X18740Y31679D01*
X18658Y31652D01*
X18576Y31614D01*
X18511Y31565D01*
X18505Y31559D01*
X18483Y31537D01*
X18456Y31504D01*
X18429Y31455D01*
X18396Y31395D01*
X18374Y31324D01*
X18352Y31237D01*
X18347Y31139D01*
Y31106D01*
X18352Y31068D01*
X18358Y31013D01*
X18374Y30958D01*
X18391Y30893D01*
X18418Y30827D01*
X18456Y30756D01*
X18462Y30751D01*
X18478Y30729D01*
X18500Y30696D01*
X18533Y30658D01*
X18576Y30614D01*
X18625Y30571D01*
X18685Y30533D01*
X18751Y30500D01*
X18762Y30494D01*
X18784Y30489D01*
X18827Y30478D01*
X18882Y30461D01*
X18953Y30445D01*
X19040Y30434D01*
X19139Y30429D01*
X19253Y30423D01*
X20749D01*
Y29959D01*
X16971D01*
Y30423D01*
X18325D01*
X18320Y30429D01*
X18309Y30440D01*
X18292Y30456D01*
X18265Y30483D01*
X18238Y30511D01*
X18205Y30549D01*
X18172Y30598D01*
X18134Y30647D01*
X18101Y30702D01*
X18068Y30762D01*
X18008Y30904D01*
X17981Y30980D01*
X17965Y31062D01*
X17954Y31150D01*
X17948Y31237D01*
Y31286D01*
X17954Y31346D01*
X17965Y31417D01*
X17976Y31499D01*
X17998Y31586D01*
X18030Y31674D01*
X18068Y31761D01*
X18074Y31772D01*
X18090Y31799D01*
X18118Y31837D01*
X18156Y31887D01*
X18205Y31936D01*
X18259Y31990D01*
X18325Y32039D01*
X18402Y32083D01*
X18412Y32089D01*
X18440Y32100D01*
X18489Y32116D01*
X18560Y32132D01*
X18647Y32149D01*
X18751Y32165D01*
X18877Y32176D01*
X19018Y32181D01*
X20749D01*
Y31717D01*
D02*
G37*
G36*
X19827Y29555D02*
X19848Y29550D01*
X19881Y29544D01*
X19925Y29533D01*
X19969Y29522D01*
X20078Y29484D01*
X20192Y29435D01*
X20318Y29364D01*
X20438Y29277D01*
X20493Y29228D01*
X20547Y29173D01*
X20553Y29168D01*
X20558Y29157D01*
X20569Y29140D01*
X20585Y29118D01*
X20607Y29091D01*
X20629Y29053D01*
X20651Y29009D01*
X20678Y28965D01*
X20728Y28856D01*
X20766Y28725D01*
X20798Y28583D01*
X20804Y28501D01*
X20809Y28420D01*
Y28365D01*
X20804Y28327D01*
X20798Y28278D01*
X20787Y28223D01*
X20777Y28163D01*
X20766Y28097D01*
X20722Y27950D01*
X20689Y27879D01*
X20656Y27803D01*
X20613Y27726D01*
X20564Y27655D01*
X20509Y27584D01*
X20444Y27519D01*
X20438Y27513D01*
X20427Y27502D01*
X20405Y27486D01*
X20378Y27464D01*
X20340Y27442D01*
X20291Y27409D01*
X20236Y27382D01*
X20176Y27349D01*
X20105Y27317D01*
X20023Y27289D01*
X19941Y27257D01*
X19843Y27235D01*
X19745Y27213D01*
X19630Y27196D01*
X19515Y27185D01*
X19390Y27180D01*
X19384D01*
X19368D01*
X19346D01*
X19313D01*
X19275Y27185D01*
X19231D01*
X19182Y27191D01*
X19128Y27196D01*
X19008Y27213D01*
X18877Y27240D01*
X18745Y27273D01*
X18614Y27322D01*
X18609D01*
X18598Y27327D01*
X18582Y27338D01*
X18560Y27349D01*
X18500Y27382D01*
X18429Y27431D01*
X18347Y27497D01*
X18265Y27573D01*
X18183Y27666D01*
X18118Y27770D01*
Y27775D01*
X18112Y27786D01*
X18101Y27803D01*
X18090Y27824D01*
X18079Y27852D01*
X18063Y27884D01*
X18030Y27966D01*
X18003Y28059D01*
X17976Y28174D01*
X17954Y28294D01*
X17948Y28425D01*
Y28469D01*
X17954Y28501D01*
Y28534D01*
X17959Y28578D01*
X17976Y28682D01*
X18003Y28796D01*
X18047Y28916D01*
X18101Y29037D01*
X18178Y29151D01*
Y29157D01*
X18189Y29162D01*
X18221Y29195D01*
X18271Y29244D01*
X18341Y29304D01*
X18429Y29364D01*
X18538Y29424D01*
X18664Y29479D01*
X18811Y29517D01*
X18882Y29064D01*
X18877D01*
X18871Y29058D01*
X18838Y29053D01*
X18789Y29037D01*
X18729Y29009D01*
X18664Y28982D01*
X18593Y28938D01*
X18527Y28889D01*
X18473Y28835D01*
X18467Y28829D01*
X18451Y28807D01*
X18429Y28769D01*
X18402Y28725D01*
X18374Y28665D01*
X18352Y28600D01*
X18336Y28523D01*
X18330Y28441D01*
Y28409D01*
X18336Y28381D01*
X18341Y28321D01*
X18363Y28239D01*
X18391Y28152D01*
X18434Y28054D01*
X18500Y27961D01*
X18538Y27917D01*
X18582Y27874D01*
X18587D01*
X18593Y27863D01*
X18609Y27852D01*
X18631Y27841D01*
X18658Y27824D01*
X18691Y27803D01*
X18729Y27786D01*
X18773Y27764D01*
X18827Y27742D01*
X18888Y27726D01*
X18953Y27704D01*
X19024Y27688D01*
X19100Y27677D01*
X19188Y27666D01*
X19281Y27655D01*
X19379D01*
X19384D01*
X19401D01*
X19433D01*
X19466Y27661D01*
X19515D01*
X19565Y27666D01*
X19685Y27682D01*
X19816Y27704D01*
X19952Y27742D01*
X20072Y27792D01*
X20132Y27824D01*
X20181Y27863D01*
X20192Y27874D01*
X20220Y27901D01*
X20258Y27950D01*
X20302Y28010D01*
X20351Y28092D01*
X20389Y28185D01*
X20416Y28294D01*
X20422Y28354D01*
X20427Y28414D01*
Y28425D01*
X20422Y28458D01*
X20416Y28512D01*
X20405Y28572D01*
X20389Y28643D01*
X20356Y28720D01*
X20318Y28796D01*
X20263Y28867D01*
X20258Y28878D01*
X20231Y28894D01*
X20192Y28927D01*
X20132Y28965D01*
X20061Y29004D01*
X19974Y29047D01*
X19865Y29080D01*
X19745Y29102D01*
X19805Y29561D01*
X19810D01*
X19827Y29555D01*
D02*
G37*
G36*
X20749Y26907D02*
X20755Y26885D01*
X20760Y26847D01*
X20766Y26798D01*
X20777Y26743D01*
X20782Y26683D01*
X20787Y26563D01*
Y26519D01*
X20782Y26476D01*
X20777Y26421D01*
X20771Y26356D01*
X20755Y26290D01*
X20738Y26230D01*
X20711Y26170D01*
X20706Y26164D01*
X20695Y26148D01*
X20678Y26126D01*
X20651Y26094D01*
X20624Y26066D01*
X20585Y26033D01*
X20547Y26001D01*
X20498Y25979D01*
X20493D01*
X20471Y25968D01*
X20433Y25962D01*
X20378Y25952D01*
X20307Y25941D01*
X20263Y25935D01*
X20214D01*
X20154Y25930D01*
X20094Y25924D01*
X20029D01*
X19952D01*
X18369D01*
Y25580D01*
X18008D01*
Y25924D01*
X17331D01*
X17053Y26388D01*
X18008D01*
Y26858D01*
X18369D01*
Y26388D01*
X19979D01*
X19990D01*
X20012D01*
X20045D01*
X20083Y26394D01*
X20171Y26399D01*
X20209Y26405D01*
X20236Y26410D01*
X20247Y26416D01*
X20269Y26432D01*
X20296Y26454D01*
X20323Y26492D01*
X20329Y26503D01*
X20340Y26530D01*
X20351Y26579D01*
X20356Y26651D01*
Y26705D01*
X20351Y26732D01*
Y26771D01*
X20345Y26814D01*
X20340Y26858D01*
X20749Y26918D01*
Y26907D01*
D02*
G37*
G36*
Y24674D02*
X18008D01*
Y25138D01*
X20749D01*
Y24674D01*
D02*
G37*
G36*
X17501D02*
X16971D01*
Y25138D01*
X17501D01*
Y24674D01*
D02*
G37*
G36*
X20749Y23424D02*
Y22943D01*
X19111Y22506D01*
X18642Y22397D01*
X20749Y21846D01*
Y21354D01*
X18008Y20524D01*
Y21010D01*
X19592Y21447D01*
X20181Y21600D01*
X20176D01*
X20165Y21605D01*
X20138Y21611D01*
X20121Y21616D01*
X20094Y21622D01*
X20061Y21627D01*
X20023Y21638D01*
X19979Y21649D01*
X19925Y21666D01*
X19865Y21682D01*
X19794Y21698D01*
X19712Y21720D01*
X19619Y21742D01*
X18008Y22179D01*
Y22654D01*
X19603Y23063D01*
X20127Y23200D01*
X19597Y23358D01*
X18008Y23828D01*
Y24281D01*
X20749Y23424D01*
D02*
G37*
G36*
X19799Y20224D02*
X19876Y20213D01*
X19963Y20191D01*
X20056Y20164D01*
X20154Y20120D01*
X20258Y20060D01*
X20263D01*
X20269Y20055D01*
X20302Y20028D01*
X20351Y19989D01*
X20405Y19935D01*
X20471Y19864D01*
X20542Y19776D01*
X20607Y19678D01*
X20667Y19563D01*
Y19558D01*
X20673Y19547D01*
X20678Y19531D01*
X20689Y19509D01*
X20700Y19476D01*
X20717Y19438D01*
X20738Y19350D01*
X20766Y19247D01*
X20793Y19121D01*
X20809Y18985D01*
X20815Y18837D01*
Y18750D01*
X20809Y18706D01*
Y18657D01*
X20804Y18602D01*
X20798Y18537D01*
X20777Y18400D01*
X20755Y18258D01*
X20717Y18116D01*
X20667Y17980D01*
Y17975D01*
X20662Y17964D01*
X20651Y17947D01*
X20640Y17925D01*
X20607Y17860D01*
X20558Y17783D01*
X20493Y17696D01*
X20416Y17603D01*
X20323Y17516D01*
X20220Y17434D01*
X20214D01*
X20203Y17423D01*
X20187Y17418D01*
X20165Y17401D01*
X20138Y17390D01*
X20105Y17374D01*
X20023Y17336D01*
X19919Y17298D01*
X19805Y17265D01*
X19674Y17243D01*
X19537Y17232D01*
X19493Y17702D01*
X19499D01*
X19504D01*
X19521Y17707D01*
X19543D01*
X19592Y17718D01*
X19663Y17734D01*
X19734Y17756D01*
X19816Y17778D01*
X19892Y17816D01*
X19963Y17854D01*
X19969Y17860D01*
X19990Y17876D01*
X20029Y17903D01*
X20067Y17947D01*
X20116Y18002D01*
X20165Y18062D01*
X20214Y18144D01*
X20258Y18231D01*
Y18237D01*
X20263Y18242D01*
X20269Y18258D01*
X20274Y18275D01*
X20291Y18329D01*
X20312Y18400D01*
X20334Y18488D01*
X20351Y18586D01*
X20362Y18695D01*
X20367Y18815D01*
Y18865D01*
X20362Y18919D01*
X20356Y18985D01*
X20345Y19061D01*
X20334Y19148D01*
X20312Y19236D01*
X20285Y19318D01*
X20280Y19329D01*
X20269Y19356D01*
X20247Y19394D01*
X20225Y19443D01*
X20187Y19492D01*
X20149Y19547D01*
X20105Y19602D01*
X20050Y19645D01*
X20045Y19651D01*
X20023Y19662D01*
X19996Y19678D01*
X19952Y19700D01*
X19908Y19722D01*
X19854Y19738D01*
X19794Y19749D01*
X19728Y19755D01*
X19723D01*
X19695D01*
X19663Y19749D01*
X19619Y19744D01*
X19575Y19727D01*
X19521Y19711D01*
X19466Y19683D01*
X19417Y19645D01*
X19412Y19640D01*
X19395Y19623D01*
X19373Y19602D01*
X19341Y19563D01*
X19308Y19520D01*
X19270Y19460D01*
X19231Y19389D01*
X19199Y19307D01*
X19193Y19301D01*
X19188Y19274D01*
X19171Y19230D01*
X19166Y19203D01*
X19155Y19165D01*
X19139Y19127D01*
X19128Y19077D01*
X19111Y19023D01*
X19095Y18957D01*
X19079Y18892D01*
X19057Y18815D01*
X19035Y18728D01*
X19013Y18635D01*
Y18630D01*
X19008Y18613D01*
X19002Y18586D01*
X18991Y18553D01*
X18980Y18510D01*
X18969Y18461D01*
X18937Y18351D01*
X18898Y18231D01*
X18860Y18106D01*
X18822Y17996D01*
X18800Y17947D01*
X18778Y17903D01*
Y17898D01*
X18773Y17893D01*
X18751Y17860D01*
X18724Y17811D01*
X18680Y17756D01*
X18631Y17691D01*
X18571Y17625D01*
X18500Y17560D01*
X18423Y17505D01*
X18412Y17500D01*
X18385Y17483D01*
X18341Y17461D01*
X18287Y17439D01*
X18216Y17418D01*
X18134Y17396D01*
X18047Y17379D01*
X17954Y17374D01*
X17948D01*
X17943D01*
X17927D01*
X17905D01*
X17850Y17385D01*
X17779Y17396D01*
X17697Y17412D01*
X17604Y17439D01*
X17512Y17478D01*
X17419Y17532D01*
X17413D01*
X17408Y17538D01*
X17375Y17565D01*
X17331Y17603D01*
X17277Y17652D01*
X17217Y17718D01*
X17151Y17800D01*
X17091Y17898D01*
X17037Y18007D01*
Y18013D01*
X17031Y18024D01*
X17026Y18040D01*
X17015Y18062D01*
X17004Y18089D01*
X16993Y18127D01*
X16971Y18209D01*
X16949Y18313D01*
X16927Y18433D01*
X16911Y18559D01*
X16905Y18701D01*
Y18772D01*
X16911Y18810D01*
Y18848D01*
X16922Y18952D01*
X16938Y19067D01*
X16965Y19187D01*
X16998Y19318D01*
X17042Y19438D01*
Y19443D01*
X17047Y19454D01*
X17058Y19471D01*
X17069Y19492D01*
X17097Y19547D01*
X17146Y19618D01*
X17200Y19700D01*
X17271Y19782D01*
X17353Y19858D01*
X17446Y19929D01*
X17451D01*
X17457Y19935D01*
X17473Y19946D01*
X17490Y19956D01*
X17544Y19984D01*
X17615Y20017D01*
X17703Y20055D01*
X17806Y20082D01*
X17916Y20109D01*
X18036Y20120D01*
X18074Y19640D01*
X18068D01*
X18057D01*
X18041Y19634D01*
X18014Y19629D01*
X17954Y19613D01*
X17872Y19591D01*
X17785Y19558D01*
X17697Y19509D01*
X17615Y19449D01*
X17539Y19372D01*
X17533Y19361D01*
X17512Y19334D01*
X17479Y19279D01*
X17446Y19208D01*
X17413Y19116D01*
X17380Y19006D01*
X17359Y18870D01*
X17353Y18717D01*
Y18641D01*
X17359Y18608D01*
X17364Y18564D01*
X17375Y18466D01*
X17397Y18357D01*
X17424Y18248D01*
X17468Y18144D01*
X17495Y18100D01*
X17523Y18056D01*
X17528Y18045D01*
X17550Y18024D01*
X17588Y17991D01*
X17632Y17958D01*
X17692Y17920D01*
X17757Y17887D01*
X17834Y17865D01*
X17921Y17854D01*
X17932D01*
X17954D01*
X17992Y17860D01*
X18036Y17871D01*
X18090Y17887D01*
X18145Y17914D01*
X18200Y17947D01*
X18254Y17996D01*
X18259Y18002D01*
X18276Y18029D01*
X18292Y18051D01*
X18303Y18073D01*
X18320Y18106D01*
X18341Y18144D01*
X18358Y18193D01*
X18380Y18248D01*
X18402Y18308D01*
X18429Y18379D01*
X18451Y18455D01*
X18478Y18542D01*
X18500Y18641D01*
X18527Y18750D01*
Y18755D01*
X18533Y18777D01*
X18538Y18810D01*
X18549Y18848D01*
X18560Y18897D01*
X18576Y18957D01*
X18593Y19017D01*
X18609Y19083D01*
X18647Y19225D01*
X18685Y19361D01*
X18707Y19427D01*
X18729Y19487D01*
X18745Y19542D01*
X18767Y19585D01*
Y19591D01*
X18773Y19602D01*
X18784Y19618D01*
X18795Y19640D01*
X18827Y19700D01*
X18871Y19771D01*
X18931Y19853D01*
X18997Y19935D01*
X19073Y20011D01*
X19155Y20077D01*
X19166Y20082D01*
X19193Y20104D01*
X19242Y20126D01*
X19308Y20158D01*
X19384Y20186D01*
X19477Y20213D01*
X19581Y20230D01*
X19690Y20235D01*
X19695D01*
X19701D01*
X19717D01*
X19739D01*
X19799Y20224D01*
D02*
G37*
%LPC*%
G36*
X11074Y54346D02*
X10148D01*
Y54269D01*
X10070D01*
Y54192D01*
X9993D01*
Y54115D01*
X9916D01*
Y53806D01*
X9839D01*
Y53266D01*
X9916D01*
Y53034D01*
X9993D01*
Y52957D01*
X10070D01*
Y52880D01*
X10148D01*
Y52802D01*
X11074D01*
Y54346D01*
D02*
G37*
G36*
X14238Y31962D02*
X12463D01*
Y31885D01*
X12540D01*
Y31731D01*
X12618D01*
Y31577D01*
X12695D01*
Y31422D01*
X12772D01*
Y31268D01*
X12849D01*
Y31036D01*
X12926D01*
Y30882D01*
X13003D01*
Y30728D01*
X13081D01*
Y30650D01*
X13158D01*
Y30573D01*
X13235D01*
Y30496D01*
X13389D01*
Y30419D01*
X13621D01*
Y30342D01*
X14084D01*
Y30419D01*
X14238D01*
Y30496D01*
X14315D01*
Y30650D01*
X14393D01*
Y30882D01*
X14470D01*
Y31577D01*
X14393D01*
Y31808D01*
X14315D01*
Y31885D01*
X14238D01*
Y31962D01*
D02*
G37*
G36*
X11074Y19922D02*
X10148D01*
Y19845D01*
X10070D01*
Y19767D01*
X9993D01*
Y19690D01*
X9916D01*
Y19381D01*
X9839D01*
Y18841D01*
X9916D01*
Y18609D01*
X9993D01*
Y18532D01*
X10070D01*
Y18455D01*
X10148D01*
Y18378D01*
X11074D01*
Y19922D01*
D02*
G37*
G36*
X14315Y12898D02*
X13930D01*
Y12821D01*
X13775D01*
Y12743D01*
X13698D01*
Y12666D01*
X13621D01*
Y12512D01*
X13544D01*
Y12126D01*
X13621D01*
Y11972D01*
X13698D01*
Y11894D01*
X13775D01*
Y11817D01*
X13930D01*
Y11740D01*
X14315D01*
Y11817D01*
X14470D01*
Y11894D01*
X14547D01*
Y11972D01*
X14624D01*
Y12126D01*
X14702D01*
Y12512D01*
X14624D01*
Y12666D01*
X14547D01*
Y12743D01*
X14470D01*
Y12821D01*
X14315D01*
Y12898D01*
D02*
G37*
G36*
X11228Y12975D02*
X10842D01*
Y12898D01*
X10688D01*
Y12821D01*
X10611D01*
Y12743D01*
X10533D01*
Y12589D01*
X10456D01*
Y12203D01*
X10533D01*
Y12049D01*
X10611D01*
Y11972D01*
X10688D01*
Y11894D01*
X10842D01*
Y11817D01*
X11228D01*
Y11894D01*
X11383D01*
Y11972D01*
X11460D01*
Y12049D01*
X11537D01*
Y12203D01*
X11614D01*
Y12589D01*
X11537D01*
Y12743D01*
X11460D01*
Y12821D01*
X11383D01*
Y12898D01*
X11228D01*
Y12975D01*
D02*
G37*
G36*
X14315Y10042D02*
X13930D01*
Y9965D01*
X13775D01*
Y9888D01*
X13698D01*
Y9810D01*
X13621D01*
Y9656D01*
X13544D01*
Y9270D01*
X13621D01*
Y9116D01*
X13698D01*
Y9039D01*
X13775D01*
Y8961D01*
X13930D01*
Y8884D01*
X14315D01*
Y8961D01*
X14470D01*
Y9039D01*
X14547D01*
Y9116D01*
X14624D01*
Y9270D01*
X14702D01*
Y9656D01*
X14624D01*
Y9810D01*
X14547D01*
Y9888D01*
X14470D01*
Y9965D01*
X14315D01*
Y10042D01*
D02*
G37*
G36*
X11228D02*
X10842D01*
Y9965D01*
X10688D01*
Y9888D01*
X10611D01*
Y9810D01*
X10533D01*
Y9656D01*
X10456D01*
Y9270D01*
X10533D01*
Y9116D01*
X10611D01*
Y9039D01*
X10688D01*
Y8961D01*
X10842D01*
Y8884D01*
X11228D01*
Y8961D01*
X11383D01*
Y9039D01*
X11460D01*
Y9116D01*
X11537D01*
Y9270D01*
X11614D01*
Y9656D01*
X11537D01*
Y9810D01*
X11460D01*
Y9888D01*
X11383D01*
Y9965D01*
X11228D01*
Y10042D01*
D02*
G37*
G36*
X8295Y12898D02*
X7909D01*
Y12821D01*
X7755D01*
Y12743D01*
X7678D01*
Y12666D01*
X7600D01*
Y12512D01*
X7523D01*
Y12126D01*
X7600D01*
Y11972D01*
X7678D01*
Y11894D01*
X7755D01*
Y11817D01*
X7909D01*
Y11740D01*
X8295D01*
Y11817D01*
X8450D01*
Y11894D01*
X8527D01*
Y11972D01*
X8604D01*
Y12126D01*
X8681D01*
Y12512D01*
X8604D01*
Y12666D01*
X8527D01*
Y12743D01*
X8450D01*
Y12821D01*
X8295D01*
Y12898D01*
D02*
G37*
G36*
Y10042D02*
X7909D01*
Y9965D01*
X7755D01*
Y9888D01*
X7678D01*
Y9810D01*
X7600D01*
Y9656D01*
X7523D01*
Y9270D01*
X7600D01*
Y9116D01*
X7678D01*
Y9039D01*
X7755D01*
Y8961D01*
X7909D01*
Y8884D01*
X8295D01*
Y8961D01*
X8450D01*
Y9039D01*
X8527D01*
Y9116D01*
X8604D01*
Y9270D01*
X8681D01*
Y9656D01*
X8604D01*
Y9810D01*
X8527D01*
Y9888D01*
X8450D01*
Y9965D01*
X8295D01*
Y10042D01*
D02*
G37*
G36*
X11383Y7109D02*
X10997D01*
Y7032D01*
X10842D01*
Y6955D01*
X10765D01*
Y6877D01*
X10688D01*
Y6723D01*
X10611D01*
Y6337D01*
X10688D01*
Y6183D01*
X10765D01*
Y6106D01*
X10842D01*
Y6028D01*
X10997D01*
Y5951D01*
X11383D01*
Y6028D01*
X11537D01*
Y6106D01*
X11614D01*
Y6183D01*
X11691D01*
Y6337D01*
X11768D01*
Y6723D01*
X11691D01*
Y6877D01*
X11614D01*
Y6955D01*
X11537D01*
Y7032D01*
X11383D01*
Y7109D01*
D02*
G37*
G36*
X8295D02*
X7909D01*
Y7032D01*
X7755D01*
Y6955D01*
X7678D01*
Y6877D01*
X7600D01*
Y6723D01*
X7523D01*
Y6337D01*
X7600D01*
Y6183D01*
X7678D01*
Y6106D01*
X7755D01*
Y6028D01*
X7909D01*
Y5951D01*
X8295D01*
Y6028D01*
X8450D01*
Y6106D01*
X8527D01*
Y6183D01*
X8604D01*
Y6337D01*
X8681D01*
Y6723D01*
X8604D01*
Y6877D01*
X8527D01*
Y6955D01*
X8450D01*
Y7032D01*
X8295D01*
Y7109D01*
D02*
G37*
G36*
X14315D02*
X13930D01*
Y7032D01*
X13775D01*
Y6955D01*
X13698D01*
Y6877D01*
X13621D01*
Y6723D01*
X13544D01*
Y6337D01*
X13621D01*
Y6183D01*
X13698D01*
Y6106D01*
X13775D01*
Y6028D01*
X13930D01*
Y5951D01*
X14315D01*
Y6028D01*
X14470D01*
Y6106D01*
X14547D01*
Y6183D01*
X14624D01*
Y6337D01*
X14702D01*
Y6723D01*
X14624D01*
Y6877D01*
X14547D01*
Y6955D01*
X14470D01*
Y7032D01*
X14315D01*
Y7109D01*
D02*
G37*
G36*
X19117Y57680D02*
X19111D01*
X19100D01*
X19084Y57674D01*
X19062D01*
X18997Y57663D01*
X18926Y57647D01*
X18838Y57620D01*
X18756Y57592D01*
X18675Y57549D01*
X18604Y57499D01*
X18598D01*
X18593Y57489D01*
X18560Y57461D01*
X18516Y57412D01*
X18467Y57347D01*
X18418Y57265D01*
X18374Y57166D01*
X18341Y57052D01*
X18336Y56992D01*
X18330Y56926D01*
Y56893D01*
X18336Y56872D01*
X18341Y56811D01*
X18358Y56740D01*
X18385Y56653D01*
X18423Y56560D01*
X18478Y56473D01*
X18549Y56386D01*
X18560Y56375D01*
X18587Y56353D01*
X18636Y56315D01*
X18702Y56276D01*
X18778Y56233D01*
X18877Y56195D01*
X18991Y56162D01*
X19117Y56145D01*
Y57680D01*
D02*
G37*
G36*
X19515Y50533D02*
X19422D01*
X19417D01*
X19395D01*
X19368D01*
X19330Y50527D01*
X19286D01*
X19231Y50522D01*
X19171Y50516D01*
X19106Y50505D01*
X18975Y50478D01*
X18838Y50440D01*
X18707Y50385D01*
X18653Y50352D01*
X18598Y50314D01*
X18593D01*
X18587Y50303D01*
X18554Y50276D01*
X18511Y50227D01*
X18462Y50167D01*
X18412Y50090D01*
X18374Y49997D01*
X18341Y49894D01*
X18336Y49839D01*
X18330Y49779D01*
Y49752D01*
X18336Y49730D01*
X18341Y49670D01*
X18363Y49599D01*
X18391Y49517D01*
X18440Y49430D01*
X18500Y49342D01*
X18543Y49299D01*
X18587Y49260D01*
X18593D01*
X18598Y49249D01*
X18614Y49244D01*
X18636Y49228D01*
X18664Y49211D01*
X18696Y49195D01*
X18735Y49178D01*
X18778Y49157D01*
X18833Y49135D01*
X18893Y49118D01*
X18958Y49102D01*
X19029Y49086D01*
X19106Y49075D01*
X19193Y49064D01*
X19286Y49053D01*
X19384D01*
X19390D01*
X19406D01*
X19433D01*
X19472Y49058D01*
X19515D01*
X19565Y49064D01*
X19679Y49080D01*
X19805Y49107D01*
X19936Y49146D01*
X20061Y49200D01*
X20116Y49233D01*
X20171Y49271D01*
Y49277D01*
X20181Y49282D01*
X20209Y49310D01*
X20252Y49359D01*
X20296Y49419D01*
X20345Y49495D01*
X20389Y49588D01*
X20416Y49686D01*
X20422Y49741D01*
X20427Y49795D01*
Y49823D01*
X20422Y49845D01*
X20416Y49905D01*
X20394Y49976D01*
X20367Y50058D01*
X20323Y50145D01*
X20263Y50232D01*
X20225Y50276D01*
X20181Y50314D01*
X20176D01*
X20171Y50325D01*
X20154Y50336D01*
X20132Y50347D01*
X20105Y50363D01*
X20078Y50385D01*
X20034Y50402D01*
X19990Y50423D01*
X19941Y50445D01*
X19887Y50462D01*
X19821Y50483D01*
X19756Y50500D01*
X19679Y50511D01*
X19603Y50522D01*
X19515Y50533D01*
D02*
G37*
G36*
X19461Y47732D02*
X19363D01*
X19357D01*
X19341D01*
X19313D01*
X19281Y47726D01*
X19237D01*
X19188Y47721D01*
X19073Y47704D01*
X18953Y47677D01*
X18822Y47633D01*
X18702Y47573D01*
X18642Y47540D01*
X18593Y47497D01*
X18587D01*
X18582Y47486D01*
X18549Y47453D01*
X18511Y47404D01*
X18462Y47338D01*
X18412Y47256D01*
X18369Y47158D01*
X18341Y47049D01*
X18336Y46989D01*
X18330Y46923D01*
Y46891D01*
X18336Y46863D01*
X18341Y46803D01*
X18363Y46721D01*
X18396Y46629D01*
X18440Y46530D01*
X18505Y46437D01*
X18549Y46388D01*
X18593Y46345D01*
X18598D01*
X18604Y46334D01*
X18620Y46323D01*
X18642Y46306D01*
X18669Y46290D01*
X18702Y46274D01*
X18745Y46252D01*
X18789Y46230D01*
X18844Y46208D01*
X18898Y46186D01*
X18964Y46170D01*
X19035Y46154D01*
X19111Y46137D01*
X19193Y46126D01*
X19286Y46121D01*
X19379Y46115D01*
X19384D01*
X19401D01*
X19428D01*
X19466Y46121D01*
X19510D01*
X19559Y46126D01*
X19674Y46143D01*
X19805Y46170D01*
X19936Y46214D01*
X20061Y46268D01*
X20116Y46306D01*
X20171Y46345D01*
Y46350D01*
X20181Y46356D01*
X20209Y46388D01*
X20252Y46437D01*
X20296Y46503D01*
X20345Y46585D01*
X20389Y46683D01*
X20416Y46798D01*
X20422Y46858D01*
X20427Y46923D01*
Y46956D01*
X20422Y46984D01*
X20411Y47044D01*
X20394Y47126D01*
X20362Y47213D01*
X20318Y47311D01*
X20252Y47404D01*
X20209Y47453D01*
X20165Y47497D01*
X20160Y47502D01*
X20154Y47508D01*
X20138Y47519D01*
X20116Y47535D01*
X20089Y47551D01*
X20056Y47573D01*
X20012Y47595D01*
X19969Y47617D01*
X19914Y47639D01*
X19854Y47655D01*
X19788Y47677D01*
X19717Y47693D01*
X19636Y47710D01*
X19554Y47721D01*
X19461Y47732D01*
D02*
G37*
G36*
X19444Y38810D02*
X19352D01*
X19346D01*
X19330D01*
X19302D01*
X19270Y38804D01*
X19226D01*
X19177Y38799D01*
X19068Y38783D01*
X18942Y38755D01*
X18816Y38717D01*
X18691Y38662D01*
X18636Y38624D01*
X18587Y38586D01*
X18582D01*
X18576Y38575D01*
X18549Y38548D01*
X18505Y38499D01*
X18456Y38433D01*
X18412Y38357D01*
X18369Y38264D01*
X18341Y38160D01*
X18330Y38105D01*
Y38018D01*
X18336Y37996D01*
X18341Y37936D01*
X18363Y37865D01*
X18391Y37778D01*
X18440Y37691D01*
X18500Y37603D01*
X18543Y37560D01*
X18587Y37516D01*
X18593D01*
X18598Y37505D01*
X18614Y37494D01*
X18636Y37483D01*
X18658Y37467D01*
X18691Y37450D01*
X18729Y37429D01*
X18773Y37412D01*
X18822Y37390D01*
X18882Y37368D01*
X18942Y37352D01*
X19008Y37336D01*
X19084Y37325D01*
X19161Y37314D01*
X19242Y37303D01*
X19335D01*
X19341D01*
X19357D01*
X19384D01*
X19422Y37308D01*
X19466D01*
X19521Y37314D01*
X19636Y37330D01*
X19767Y37358D01*
X19892Y37390D01*
X20018Y37445D01*
X20072Y37478D01*
X20121Y37516D01*
X20132Y37527D01*
X20160Y37554D01*
X20198Y37598D01*
X20242Y37663D01*
X20291Y37740D01*
X20329Y37832D01*
X20356Y37936D01*
X20362Y37991D01*
X20367Y38051D01*
Y38084D01*
X20362Y38105D01*
X20356Y38166D01*
X20334Y38242D01*
X20307Y38324D01*
X20263Y38417D01*
X20203Y38504D01*
X20165Y38548D01*
X20121Y38592D01*
X20116D01*
X20110Y38602D01*
X20094Y38613D01*
X20072Y38624D01*
X20050Y38641D01*
X20018Y38662D01*
X19979Y38679D01*
X19930Y38701D01*
X19881Y38723D01*
X19827Y38739D01*
X19761Y38761D01*
X19690Y38777D01*
X19619Y38788D01*
X19537Y38799D01*
X19444Y38810D01*
D02*
G37*
%LPD*%
D10*
X144016Y79378D02*
X143266Y79811D01*
Y78945D01*
X144016Y79378D01*
X96663Y79329D02*
X95913Y79762D01*
Y78896D01*
X96663Y79329D01*
D11*
X59425Y100831D02*
X66118D01*
Y86618D02*
Y100831D01*
X40921D02*
X47614D01*
X40921Y86618D02*
Y100831D01*
X66118Y44846D02*
Y59059D01*
X59425Y44846D02*
X66118D01*
X40921D02*
X47614D01*
X40921D02*
Y59059D01*
X165425Y100831D02*
X172118D01*
Y86618D02*
Y100831D01*
X146921D02*
X153614D01*
X146921Y86618D02*
Y100831D01*
X172118Y44846D02*
Y59059D01*
X165425Y44846D02*
X172118D01*
X146921D02*
X153614D01*
X146921D02*
Y59059D01*
D12*
X141681Y99421D02*
Y103043D01*
X117351Y78712D02*
Y82108D01*
Y78712D02*
X120720D01*
X138454D02*
X141681D01*
Y82005D01*
X138085Y103043D02*
X141681D01*
X117351Y99669D02*
Y103043D01*
X120771D01*
X94328Y99372D02*
Y102994D01*
X69997Y78663D02*
Y82060D01*
Y78663D02*
X73366D01*
X91101D02*
X94328D01*
Y81956D01*
X90732Y102994D02*
X94328D01*
X69997Y99620D02*
Y102994D01*
X73418D01*
D13*
X85081Y118332D02*
Y122662D01*
X79570Y118332D02*
X85081D01*
Y134473D02*
Y136442D01*
X7916D02*
X85081D01*
X7916Y134473D02*
Y136442D01*
Y118332D02*
Y122662D01*
Y118332D02*
X13428D01*
X81932Y136442D02*
Y137623D01*
X83900D01*
Y140379D01*
X9097D02*
X83900D01*
X9097Y137623D02*
Y140379D01*
Y137623D02*
X11066D01*
Y136442D02*
Y137623D01*
X96066Y136442D02*
Y137623D01*
X94097D02*
X96066D01*
X94097D02*
Y140379D01*
X168900D01*
Y137623D02*
Y140379D01*
X166932Y137623D02*
X168900D01*
X166932Y136442D02*
Y137623D01*
X92916Y118332D02*
X98428D01*
X92916D02*
Y122662D01*
Y134473D02*
Y136442D01*
X170081D01*
Y134473D02*
Y136442D01*
X164569Y118332D02*
X170081D01*
Y122662D01*
D14*
X159101Y110802D02*
X159626Y111327D01*
X160675D01*
X161200Y110802D01*
Y110277D01*
X160675Y109752D01*
X160151D01*
X160675D01*
X161200Y109228D01*
Y108703D01*
X160675Y108178D01*
X159626D01*
X159101Y108703D01*
X164349Y108178D02*
X162250D01*
X164349Y110277D01*
Y110802D01*
X163824Y111327D01*
X162774D01*
X162250Y110802D01*
X74101Y108178D02*
X75151D01*
X74626D01*
Y111327D01*
X74101Y110802D01*
X78824Y111327D02*
X77774Y110802D01*
X76725Y109752D01*
Y108703D01*
X77250Y108178D01*
X78299D01*
X78824Y108703D01*
Y109228D01*
X78299Y109752D01*
X76725D01*
X99601Y108178D02*
X100651D01*
X100126D01*
Y111327D01*
X99601Y110802D01*
X102225Y111327D02*
X104324D01*
Y110802D01*
X102225Y108703D01*
Y108178D01*
X16601D02*
X17651D01*
X17126D01*
Y111327D01*
X16601Y110802D01*
X64187Y39933D02*
X65105D01*
X64646D01*
Y42229D01*
X65105Y42688D01*
X65565D01*
X66024Y42229D01*
X63269Y40392D02*
X62809Y39933D01*
X61891D01*
X61432Y40392D01*
Y40851D01*
X61891Y41311D01*
X62350D01*
X61891D01*
X61432Y41770D01*
Y42229D01*
X61891Y42688D01*
X62809D01*
X63269Y42229D01*
X170002Y39933D02*
X170920D01*
X170461D01*
Y42229D01*
X170920Y42688D01*
X171379D01*
X171838Y42229D01*
X167706Y42688D02*
Y39933D01*
X169083Y41311D01*
X167247D01*
X141091Y70854D02*
Y73478D01*
X140567Y74003D01*
X139517D01*
X138992Y73478D01*
Y70854D01*
X136369Y74003D02*
Y70854D01*
X137943Y72429D01*
X135844D01*
X93738Y70806D02*
Y73429D01*
X93213Y73954D01*
X92164D01*
X91639Y73429D01*
Y70806D01*
X88490Y73954D02*
X90589D01*
X88490Y71855D01*
Y71330D01*
X89015Y70806D01*
X90065D01*
X90589Y71330D01*
X171950Y115571D02*
Y114522D01*
Y115047D01*
X174574D01*
X175099Y114522D01*
Y113997D01*
X174574Y113472D01*
X175099Y118720D02*
Y116621D01*
X173000Y118720D01*
X172475D01*
X171950Y118195D01*
Y117146D01*
X172475Y116621D01*
X6370Y112133D02*
X5321D01*
X5846D01*
Y109509D01*
X5321Y108984D01*
X4796D01*
X4271Y109509D01*
X7420Y108984D02*
X8469D01*
X7945D01*
Y112133D01*
X7420Y111608D01*
M02*
