M48
;Layer_Color=9474304
;FILE_FORMAT=4:4
METRIC,LZ
;TYPE=PLATED
T01F00S00C0.3000
%
T01
X0023051Y00057532
Y00097532
X0027051
X0031051
Y00057532
X0027051
X00386705Y00159189
X00386616Y00165737
X0042166Y00165926
Y00159377
X00429112Y00147191
X00429265Y0013928
X00421597Y0018088
X00421418Y00190812
X00430995Y00222116
Y00229736
X00408937Y00299912
X00398958
X00388979
X00379001
X00369022
X00359044
X00349065
X0033909Y0029972
X00329085Y00299912
X00319084
X00309083
X00298817Y00300177
X00289007Y00299912
X00278817Y00300573
X00269007Y00299912
X00259077
X00235488Y00265992
X00231074Y00253487
X00250103Y00248392
X00250423Y00240919
X00292474Y00239659
X00292798Y00230342
X00308201Y00229119
Y00238405
X00308183Y00218242
X00317449Y00186651
X00326915Y00180118
X00334185
X00289584Y00192792
X0028147
X00271946
X00263479Y00192851
X00224107Y00193614
X00214816Y00193311
X00207115Y00193654
X00199713Y00188748
X00181871Y00182124
X0017578Y00188053
X00175983Y00175627
X00181668Y00169657
X00176145Y00162835
X00181593Y00156389
X00136907Y00169104
X00142932Y00175244
X00137867Y00182575
X00143528Y00188177
X00158615Y00197349
X00158554Y00204745
X00166141Y00239358
X0018729Y00223251
X0016966Y00273309
X00173079Y00299912
X00163101
X00153122
X00143144
X00133165
X00123187
X00113185
X00103184
X00092651Y00300444
X00083182Y00299912
X0007318
X00063179
X00053178
X00043408Y00299681
X00050598Y00191818
X00064057Y00194313
X00093681Y00187843
X00088601Y00181493
X00093681Y00175143
X00088601Y00168793
X00093681Y00162443
X00081211Y00150564
X00066446Y00150426
X0025051Y00137532
X0029051
X00192805Y00299681
X00183058Y00299912
M30
