G04*
G04 #@! TF.GenerationSoftware,Altium Limited,Altium Designer,25.8.1 (18)*
G04*
G04 Layer_Color=128*
%FSLAX25Y25*%
%MOIN*%
G70*
G04*
G04 #@! TF.SameCoordinates,732149F8-75B0-4827-9E7B-A550906CBCD6*
G04*
G04*
G04 #@! TF.FilePolarity,Positive*
G04*
G01*
G75*
%ADD16R,0.07874X0.09843*%
%ADD17R,0.01772X0.01181*%
%ADD19R,0.01181X0.01772*%
%ADD20R,0.01181X0.01181*%
%ADD21R,0.12992X0.17323*%
%ADD40R,0.07087X0.01378*%
%ADD41R,0.03543X0.03740*%
D16*
X53520Y96106D02*
D03*
Y49571D02*
D03*
X159520Y96106D02*
D03*
Y49571D02*
D03*
D17*
X95755Y93906D02*
D03*
Y91937D02*
D03*
Y89969D02*
D03*
X10593Y93782D02*
D03*
Y91813D02*
D03*
Y89845D02*
D03*
X32838D02*
D03*
X118000Y89969D02*
D03*
Y93906D02*
D03*
Y91937D02*
D03*
X32838Y93782D02*
D03*
Y91813D02*
D03*
X118000Y88000D02*
D03*
X95755Y84063D02*
D03*
Y86032D02*
D03*
Y88000D02*
D03*
Y95874D02*
D03*
Y97843D02*
D03*
X118000D02*
D03*
Y95874D02*
D03*
Y86032D02*
D03*
Y84063D02*
D03*
X10593Y83939D02*
D03*
Y85908D02*
D03*
Y87876D02*
D03*
Y95750D02*
D03*
Y97719D02*
D03*
X32838D02*
D03*
Y95750D02*
D03*
Y87876D02*
D03*
Y85908D02*
D03*
Y83939D02*
D03*
D19*
X20732Y79707D02*
D03*
X105894Y79831D02*
D03*
X14826Y79707D02*
D03*
X109831Y79831D02*
D03*
X24669Y79707D02*
D03*
X113768Y79831D02*
D03*
X28606Y79707D02*
D03*
X22700D02*
D03*
X107862Y79831D02*
D03*
X99988D02*
D03*
X111799D02*
D03*
X103925D02*
D03*
X101957D02*
D03*
Y102075D02*
D03*
X105894D02*
D03*
X103925D02*
D03*
X99988D02*
D03*
X111799D02*
D03*
X113768D02*
D03*
X109831D02*
D03*
X107862D02*
D03*
X26637Y79707D02*
D03*
X18763D02*
D03*
X16795D02*
D03*
Y101951D02*
D03*
X20732D02*
D03*
X18763D02*
D03*
X14826D02*
D03*
X26637D02*
D03*
X28606D02*
D03*
X24669D02*
D03*
X22700D02*
D03*
D20*
X96051Y80126D02*
D03*
Y101780D02*
D03*
X117705Y80126D02*
D03*
Y101780D02*
D03*
X10889Y80002D02*
D03*
Y101656D02*
D03*
X32543Y80002D02*
D03*
Y101656D02*
D03*
D21*
X106878Y90953D02*
D03*
X21716Y90829D02*
D03*
D40*
X61787Y84087D02*
D03*
X45252D02*
D03*
X61787Y81590D02*
D03*
X45252D02*
D03*
X61787Y79090D02*
D03*
X45252D02*
D03*
X61787Y76591D02*
D03*
X45252D02*
D03*
X61787Y74087D02*
D03*
X45252D02*
D03*
X61787Y71591D02*
D03*
X45252D02*
D03*
X61787Y69087D02*
D03*
X45252D02*
D03*
X61787Y66587D02*
D03*
X45252D02*
D03*
X61787Y64087D02*
D03*
X45252D02*
D03*
X61787Y61590D02*
D03*
X45252D02*
D03*
X167787Y84087D02*
D03*
X151252D02*
D03*
X167787Y81590D02*
D03*
X151252D02*
D03*
X167787Y79090D02*
D03*
X151252D02*
D03*
X167787Y76591D02*
D03*
X151252D02*
D03*
X167787Y74087D02*
D03*
X151252D02*
D03*
X167787Y71591D02*
D03*
X151252D02*
D03*
X167787Y69087D02*
D03*
X151252D02*
D03*
X167787Y66587D02*
D03*
X151252D02*
D03*
X167787Y64087D02*
D03*
X151252D02*
D03*
X167787Y61590D02*
D03*
X151252D02*
D03*
D41*
X26067Y59277D02*
D03*
X31973D02*
D03*
M02*
