G04*
G04 #@! TF.GenerationSoftware,Altium Limited,Altium Designer,25.8.1 (18)*
G04*
G04 Layer_Color=16711935*
%FSLAX25Y25*%
%MOIN*%
G70*
G04*
G04 #@! TF.SameCoordinates,732149F8-75B0-4827-9E7B-A550906CBCD6*
G04*
G04*
G04 #@! TF.FilePolarity,Positive*
G04*
G01*
G75*
%ADD10C,0.01000*%
D10*
X7874Y145669D02*
X6846Y145602D01*
X5836Y145401D01*
X4861Y145070D01*
X3937Y144614D01*
X3081Y144042D01*
X2306Y143363D01*
X1627Y142589D01*
X1055Y141732D01*
X599Y140808D01*
X268Y139833D01*
X67Y138823D01*
X0Y137795D01*
X171524Y0D02*
X172551Y67D01*
X173562Y268D01*
X174537Y599D01*
X175461Y1055D01*
X176317Y1627D01*
X177091Y2306D01*
X177770Y3081D01*
X178343Y3937D01*
X178798Y4861D01*
X179129Y5836D01*
X179330Y6846D01*
X179398Y7874D01*
Y137795D02*
X179330Y138823D01*
X179129Y139833D01*
X178798Y140808D01*
X178343Y141732D01*
X177770Y142589D01*
X177091Y143363D01*
X176317Y144042D01*
X175461Y144614D01*
X174537Y145070D01*
X173562Y145401D01*
X172551Y145602D01*
X171524Y145669D01*
X0Y7874D02*
X67Y6846D01*
X268Y5836D01*
X599Y4861D01*
X1055Y3937D01*
X1627Y3081D01*
X2306Y2306D01*
X3081Y1627D01*
X3937Y1055D01*
X4861Y599D01*
X5836Y268D01*
X6846Y67D01*
X7874Y0D01*
X179398Y7874D02*
X179398Y137795D01*
X7874Y145673D02*
X171505Y145673D01*
X-1Y7874D02*
X-1Y137795D01*
X7874Y2D02*
X171515Y2D01*
M02*
