G04*
G04 #@! TF.GenerationSoftware,Altium Limited,Altium Designer,25.8.1 (18)*
G04*
G04 Layer_Physical_Order=1*
G04 Layer_Color=255*
%FSLAX25Y25*%
%MOIN*%
G70*
G04*
G04 #@! TF.SameCoordinates,732149F8-75B0-4827-9E7B-A550906CBCD6*
G04*
G04*
G04 #@! TF.FilePolarity,Positive*
G04*
G01*
G75*
%ADD10C,0.01000*%
%ADD15R,0.09843X0.01378*%
%ADD16R,0.07874X0.09843*%
%ADD17R,0.01772X0.01181*%
%ADD18R,0.07087X0.08661*%
%ADD19R,0.01181X0.01772*%
%ADD20R,0.01181X0.01181*%
%ADD21R,0.12992X0.17323*%
%ADD22R,0.02362X0.05118*%
%ADD33C,0.00500*%
%ADD34R,0.05500X0.05002*%
%ADD35R,0.21000X0.07500*%
%ADD36R,0.06500X0.05500*%
G04:AMPARAMS|DCode=37|XSize=70.87mil|YSize=51.18mil|CornerRadius=12.8mil|HoleSize=0mil|Usage=FLASHONLY|Rotation=90.000|XOffset=0mil|YOffset=0mil|HoleType=Round|Shape=RoundedRectangle|*
%AMROUNDEDRECTD37*
21,1,0.07087,0.02559,0,0,90.0*
21,1,0.04528,0.05118,0,0,90.0*
1,1,0.02559,0.01280,0.02264*
1,1,0.02559,0.01280,-0.02264*
1,1,0.02559,-0.01280,-0.02264*
1,1,0.02559,-0.01280,0.02264*
%
%ADD37ROUNDEDRECTD37*%
%ADD38C,0.07874*%
%ADD39C,0.02362*%
G36*
X172218Y144867D02*
X173586Y144595D01*
X174873Y144062D01*
X176031Y143288D01*
X177016Y142303D01*
X177790Y141145D01*
X178323Y139858D01*
X178595Y138492D01*
Y137795D01*
X178595Y7874D01*
Y7177D01*
X178323Y5811D01*
X177790Y4524D01*
X177016Y3366D01*
X176031Y2381D01*
X174873Y1608D01*
X173586Y1075D01*
X172220Y803D01*
X171524D01*
X141085Y803D01*
Y42751D01*
X124816Y68988D01*
X87033D01*
X73292Y42834D01*
Y1158D01*
X72939Y804D01*
X7874Y805D01*
X7873Y805D01*
X7872Y805D01*
X7176Y803D01*
X5811Y1075D01*
X4524Y1608D01*
X3366Y2381D01*
X2381Y3366D01*
X1608Y4524D01*
X1075Y5811D01*
X803Y7177D01*
Y7874D01*
X801Y137794D01*
X803Y138491D01*
X1075Y139858D01*
X1608Y141145D01*
X2381Y142303D01*
X3366Y143288D01*
X4524Y144062D01*
X5811Y144595D01*
X7177Y144867D01*
X7874D01*
X171503Y144870D01*
X172218Y144867D01*
D02*
G37*
%LPC*%
G36*
X97066Y133899D02*
X93022D01*
Y129068D01*
X97066D01*
Y133899D01*
D02*
G37*
G36*
X12066D02*
X8022D01*
Y129068D01*
X12066D01*
Y133899D01*
D02*
G37*
G36*
X84975D02*
X80932D01*
Y129068D01*
X84975D01*
Y133899D01*
D02*
G37*
G36*
X7022D02*
X2979D01*
Y129068D01*
X7022D01*
Y133899D01*
D02*
G37*
G36*
X175018D02*
X170975D01*
Y129068D01*
X175018D01*
Y133899D01*
D02*
G37*
G36*
X169975D02*
X165932D01*
Y129068D01*
X169975D01*
Y133899D01*
D02*
G37*
G36*
X84975Y128068D02*
X80932D01*
Y125911D01*
X80470Y125720D01*
X79642Y126548D01*
X79394Y126713D01*
X79101Y126771D01*
X54930D01*
X54637Y126713D01*
X54389Y126548D01*
X47958Y120116D01*
X47792Y119868D01*
X47735Y119579D01*
X47546Y119501D01*
X47074Y119028D01*
X46992Y118832D01*
X46786D01*
Y112714D01*
X50148D01*
Y117665D01*
X50180Y117741D01*
Y118410D01*
X50148Y118486D01*
Y118832D01*
X50005D01*
X49924Y119028D01*
X49478Y119474D01*
X51260Y121256D01*
X51610Y121123D01*
X51734Y121022D01*
Y119608D01*
X51475Y119501D01*
X51002Y119028D01*
X50921Y118832D01*
X50723D01*
Y112714D01*
X54085D01*
Y117686D01*
X54108Y117741D01*
Y118410D01*
X54085Y118466D01*
Y118832D01*
X53934D01*
X53852Y119028D01*
X53379Y119501D01*
X53263Y119549D01*
Y120759D01*
X56494Y123989D01*
X56602Y123968D01*
X56767Y123425D01*
X55958Y122616D01*
X55792Y122368D01*
X55734Y122076D01*
Y119638D01*
X55404Y119501D01*
X54931Y119028D01*
X54849Y118832D01*
X54660D01*
Y112714D01*
X58022D01*
Y117706D01*
X58037Y117741D01*
Y118410D01*
X58022Y118445D01*
Y118832D01*
X57862D01*
X57781Y119028D01*
X57308Y119501D01*
X57263Y119519D01*
Y121759D01*
X58746Y123242D01*
X61430D01*
X61622Y122780D01*
X59958Y121116D01*
X59792Y120868D01*
X59734Y120576D01*
Y119667D01*
X59332Y119501D01*
X58859Y119028D01*
X58778Y118832D01*
X58597D01*
Y112714D01*
X61959D01*
Y117726D01*
X61966Y117741D01*
Y118410D01*
X61959Y118425D01*
Y118832D01*
X61791D01*
X61709Y119028D01*
X61263Y119474D01*
Y120259D01*
X63247Y122242D01*
X64430D01*
X64622Y121780D01*
X63672Y120831D01*
X63507Y120583D01*
X63448Y120290D01*
Y119579D01*
X63261Y119501D01*
X62788Y119028D01*
X62706Y118832D01*
X62534D01*
Y118416D01*
X62532Y118410D01*
Y117741D01*
X62534Y117736D01*
Y112714D01*
X65896D01*
Y118832D01*
X65719D01*
X65638Y119028D01*
X65165Y119501D01*
X65105Y119526D01*
X65045Y120041D01*
X66246Y121242D01*
X67441D01*
X67554Y121121D01*
X67767Y120742D01*
X67734Y120576D01*
Y119727D01*
X67189Y119501D01*
X66716Y119028D01*
X66635Y118832D01*
X66471D01*
Y118436D01*
X66460Y118410D01*
Y117741D01*
X66471Y117716D01*
Y112714D01*
X69833D01*
Y118832D01*
X69648D01*
X69567Y119028D01*
X69263Y119331D01*
Y120242D01*
X71001D01*
X71172Y120136D01*
X71379Y119742D01*
X71297Y119575D01*
X71118Y119501D01*
X70645Y119028D01*
X70564Y118832D01*
X70408D01*
Y118456D01*
X70389Y118410D01*
Y117741D01*
X70408Y117695D01*
Y112714D01*
X73770D01*
Y116898D01*
X74270Y117118D01*
X74345Y117049D01*
Y112714D01*
X74508D01*
Y103337D01*
X74182D01*
Y100565D01*
X88546D01*
X88845Y100065D01*
X88805Y99990D01*
X75167D01*
Y89548D01*
X74688Y89319D01*
X74071Y89575D01*
X73402D01*
X72926Y89378D01*
X72426Y89615D01*
Y94659D01*
Y98809D01*
X69655D01*
Y95314D01*
X69155Y95107D01*
X67688Y96573D01*
Y106152D01*
X67748Y106177D01*
X68221Y106650D01*
X68476Y107267D01*
Y107936D01*
X68221Y108554D01*
X67748Y109027D01*
X67130Y109283D01*
X66461D01*
X65843Y109027D01*
X65370Y108554D01*
X65114Y107936D01*
Y107267D01*
X65370Y106650D01*
X65649Y106371D01*
Y96151D01*
X65456Y95916D01*
X65075D01*
X64457Y95661D01*
X63985Y95188D01*
X63729Y94570D01*
Y94125D01*
X57610Y88006D01*
X57123Y88227D01*
Y89803D01*
X53520D01*
X49916D01*
Y88141D01*
X49915Y88138D01*
X49683Y87896D01*
X49462Y87760D01*
X49439Y87765D01*
X24206D01*
X24206Y87765D01*
X23913Y87707D01*
X23665Y87541D01*
X23665Y87541D01*
X16425Y80301D01*
X16260Y80053D01*
X16202Y79760D01*
Y76710D01*
X16260Y76417D01*
X16425Y76169D01*
X17449Y75146D01*
X17449Y75146D01*
X17697Y74980D01*
X17989Y74922D01*
X17989Y74922D01*
X18348D01*
X18495Y74567D01*
X18968Y74094D01*
X19586Y73838D01*
X20255D01*
X20873Y74094D01*
X21346Y74567D01*
X21602Y75184D01*
Y75853D01*
X21346Y76471D01*
X20873Y76944D01*
X20255Y77200D01*
X19586D01*
X18968Y76944D01*
X18709Y76685D01*
X18096Y76677D01*
X18064Y76693D01*
X17731Y77026D01*
Y79444D01*
X24523Y86235D01*
X35764D01*
X35956Y85773D01*
X27318Y77135D01*
X26729Y77251D01*
X26645Y77454D01*
X26172Y77926D01*
X25554Y78182D01*
X24885D01*
X24267Y77926D01*
X23794Y77454D01*
X23538Y76836D01*
Y76167D01*
X23794Y75549D01*
X24267Y75076D01*
X24885Y74820D01*
X25554D01*
X26172Y75076D01*
X26476Y75380D01*
X26860D01*
X26901Y75372D01*
X27401D01*
X27693Y75430D01*
X27941Y75596D01*
X37580Y85235D01*
X38846D01*
Y83280D01*
X38846Y82898D01*
X38846Y82398D01*
X38846Y80402D01*
X38846Y79902D01*
X38846Y77898D01*
X38846Y77398D01*
X38846Y75398D01*
X38846Y74911D01*
X38346Y74812D01*
X38307Y74906D01*
X37835Y75379D01*
X37217Y75635D01*
X36548D01*
X35930Y75379D01*
X35457Y74906D01*
X35201Y74288D01*
Y73619D01*
X34861Y73135D01*
X34548D01*
X33930Y72879D01*
X33457Y72406D01*
X33201Y71788D01*
Y71119D01*
X33457Y70502D01*
X33930Y70029D01*
X34548Y69773D01*
X34861D01*
X35201Y69288D01*
Y68619D01*
X34861Y68135D01*
X34548D01*
X33930Y67879D01*
X33457Y67406D01*
X33201Y66788D01*
Y66119D01*
X33457Y65502D01*
X33930Y65029D01*
X34548Y64773D01*
X34861D01*
X35201Y64288D01*
Y63619D01*
X35457Y63002D01*
X35604Y62855D01*
X35397Y62355D01*
X34286D01*
X33993Y62296D01*
X33745Y62131D01*
X32495Y60881D01*
X32307Y60958D01*
X31638D01*
X31021Y60702D01*
X30548Y60229D01*
X30292Y59611D01*
Y58943D01*
X30548Y58325D01*
X31021Y57852D01*
X31638Y57596D01*
X32307D01*
X32925Y57852D01*
X33398Y58325D01*
X33654Y58943D01*
Y59611D01*
X33576Y59799D01*
X34602Y60825D01*
X38846D01*
Y60402D01*
X48605D01*
X48796Y59940D01*
X44633Y55776D01*
X28020D01*
X26925Y56871D01*
Y57720D01*
X27112Y57798D01*
X27585Y58271D01*
X27841Y58889D01*
Y59557D01*
X27585Y60175D01*
X27112Y60648D01*
X26494Y60904D01*
X25826D01*
X25208Y60648D01*
X24735Y60175D01*
X24479Y59557D01*
Y58889D01*
X24735Y58271D01*
X25208Y57798D01*
X25395Y57720D01*
Y56554D01*
X25453Y56262D01*
X25619Y56014D01*
X27162Y54471D01*
X27410Y54305D01*
X27703Y54247D01*
X27703Y54247D01*
X44742D01*
X44949Y54247D01*
X45242Y54305D01*
X45490Y54471D01*
X49665Y58646D01*
X49889Y58532D01*
X50077Y58351D01*
X49916Y57539D01*
Y55776D01*
X53020D01*
Y59864D01*
X52240D01*
X51429Y59702D01*
X51247Y59891D01*
X51134Y60115D01*
X51946Y60926D01*
X57350D01*
Y60402D01*
X68193D01*
Y60816D01*
X69986D01*
X70068Y60618D01*
X70541Y60145D01*
X71159Y59889D01*
X71828D01*
X72446Y60145D01*
X72918Y60618D01*
X73175Y61236D01*
Y61905D01*
X72918Y62523D01*
X72446Y62996D01*
X71828Y63252D01*
X71355D01*
X71030Y63636D01*
X71005Y63714D01*
X71030Y63774D01*
Y64442D01*
X70932Y64678D01*
X71035Y64852D01*
X71293Y65113D01*
X71857D01*
X72475Y65369D01*
X72877Y65770D01*
X74042D01*
X74335Y65829D01*
X74583Y65994D01*
X75640Y67051D01*
X75805Y67299D01*
X75863Y67592D01*
Y78321D01*
X78281D01*
Y75987D01*
X77675Y75736D01*
X77202Y75263D01*
X76946Y74645D01*
Y73976D01*
X77202Y73358D01*
X77675Y72885D01*
X78293Y72629D01*
X78961D01*
X79579Y72885D01*
X80052Y73358D01*
X80308Y73976D01*
Y74433D01*
X80324Y74454D01*
X80765Y74740D01*
X80770Y74741D01*
X81207Y74560D01*
X81876D01*
X82494Y74816D01*
X82673Y74995D01*
X83129Y75148D01*
X83316Y74986D01*
X83621Y74682D01*
X84239Y74426D01*
X84908D01*
X85095Y74503D01*
X85844Y73754D01*
X85844Y73754D01*
X86092Y73589D01*
X86385Y73530D01*
X102102D01*
X102394Y73589D01*
X102642Y73754D01*
X103210Y74322D01*
X103398Y74244D01*
X104067D01*
X104254Y74322D01*
X106146Y72430D01*
X106146Y72430D01*
X106394Y72265D01*
X106686Y72206D01*
X106686Y72206D01*
X119441D01*
X119734Y72265D01*
X119982Y72430D01*
X122203Y74651D01*
X123116D01*
X123436Y74151D01*
X123299Y73819D01*
Y73150D01*
X123555Y72532D01*
X124028Y72060D01*
X124646Y71804D01*
X125314D01*
X125932Y72060D01*
X125980Y72108D01*
X126125Y72079D01*
X126842D01*
X127163Y71579D01*
X127026Y71247D01*
Y70578D01*
X127281Y69960D01*
X127754Y69487D01*
X128372Y69231D01*
X128724D01*
X134672Y63283D01*
X135003Y63062D01*
X135393Y62984D01*
X144431D01*
X144846Y62779D01*
Y60402D01*
X155689D01*
Y62779D01*
X155689D01*
Y62898D01*
X155689D01*
Y65276D01*
X155689D01*
Y65398D01*
X155689D01*
Y67776D01*
X155689D01*
Y67898D01*
X155689D01*
Y68686D01*
X162997D01*
X163350Y68333D01*
X163350Y67898D01*
X163350Y67398D01*
Y65776D01*
X163350Y65398D01*
X163350D01*
Y65276D01*
X163350D01*
Y63279D01*
X163350Y62898D01*
X163350D01*
Y62779D01*
X163350D01*
Y60402D01*
X174193D01*
Y62779D01*
X174193D01*
Y62898D01*
X174193D01*
Y65276D01*
X174193D01*
Y65398D01*
X174193D01*
Y67398D01*
X174193Y67776D01*
X174193Y68276D01*
Y70276D01*
X174193D01*
Y70402D01*
X174193D01*
Y72780D01*
X174193D01*
Y72898D01*
X174193D01*
Y75276D01*
X174193D01*
Y75398D01*
X174193D01*
Y77398D01*
X174693D01*
Y78587D01*
X162850D01*
Y77398D01*
X162404Y77269D01*
X156636D01*
X156189Y77398D01*
Y78587D01*
X144346D01*
Y77398D01*
X144846D01*
Y75398D01*
X144846D01*
Y75276D01*
X144846D01*
Y72898D01*
X144846D01*
Y72780D01*
X144846D01*
Y72279D01*
X135543D01*
X135336Y72779D01*
X136928Y74371D01*
X137093Y74619D01*
X137152Y74912D01*
Y78370D01*
X137496D01*
Y81141D01*
X127842D01*
X127803Y81216D01*
X128103Y81716D01*
X136512D01*
Y100039D01*
X122520D01*
Y95710D01*
X122020Y95398D01*
X121673Y95541D01*
X121004D01*
X120387Y95285D01*
X120280Y95178D01*
X119780Y95385D01*
Y98858D01*
X117008D01*
Y95524D01*
X116813Y95426D01*
X116508Y95371D01*
X116100Y95779D01*
X115482Y96035D01*
X114908D01*
X105501Y105442D01*
X105170Y105663D01*
X104780Y105741D01*
X94070D01*
X93664Y106146D01*
X93046Y106402D01*
X92378D01*
X91760Y106146D01*
X91287Y105674D01*
X91031Y105056D01*
Y104387D01*
X91287Y103769D01*
X91760Y103296D01*
X91889Y103242D01*
X91899Y102746D01*
X91899D01*
Y101684D01*
X91483Y101407D01*
X91308Y101479D01*
X90640D01*
X90559Y101446D01*
X90143Y101724D01*
Y103337D01*
X89817D01*
Y116056D01*
X89817Y116056D01*
X89759Y116348D01*
X89593Y116596D01*
X89593Y116596D01*
X83414Y122775D01*
X83606Y123237D01*
X84975D01*
Y128068D01*
D02*
G37*
G36*
X175018Y128068D02*
X170975D01*
Y123237D01*
X175018D01*
Y128068D01*
D02*
G37*
G36*
X169975D02*
X165932D01*
Y123237D01*
X169975D01*
Y128068D01*
D02*
G37*
G36*
X97066Y128068D02*
X93022D01*
Y123237D01*
X97066D01*
Y128068D01*
D02*
G37*
G36*
X92022Y133899D02*
X85975D01*
Y128568D01*
Y123237D01*
X92022D01*
Y128568D01*
Y133899D01*
D02*
G37*
G36*
X12066Y128068D02*
X8022D01*
Y123237D01*
X12066D01*
Y128068D01*
D02*
G37*
G36*
X7022D02*
X2979D01*
Y123237D01*
X7022D01*
Y128068D01*
D02*
G37*
G36*
X36811Y119966D02*
X36143D01*
X35525Y119710D01*
X35052Y119237D01*
X34892Y118851D01*
X34400Y118832D01*
X34343Y118832D01*
X34255D01*
X34174Y119028D01*
X33701Y119501D01*
X33083Y119757D01*
X32414D01*
X31796Y119501D01*
X31324Y119028D01*
X31242Y118832D01*
X31038D01*
Y112714D01*
X34400D01*
Y117145D01*
X34750Y117307D01*
X34975Y117152D01*
Y112714D01*
X38337D01*
Y118832D01*
X38070D01*
X37902Y119237D01*
X37429Y119710D01*
X36811Y119966D01*
D02*
G37*
G36*
X21271Y119757D02*
X20602D01*
X19984Y119501D01*
X19511Y119028D01*
X19437Y118849D01*
X19420Y118832D01*
X19227D01*
Y118832D01*
X18727Y118778D01*
X18652Y118832D01*
Y118832D01*
X18289Y119162D01*
X18042Y119410D01*
X17424Y119666D01*
X16756D01*
X16138Y119410D01*
X15665Y118937D01*
X15621Y118832D01*
X15290D01*
Y112714D01*
X18652D01*
Y117049D01*
X18727Y117118D01*
X19227Y116898D01*
Y112714D01*
X22589D01*
Y117674D01*
X22617Y117741D01*
Y118410D01*
X22589Y118478D01*
Y118832D01*
X22443D01*
X22361Y119028D01*
X21888Y119501D01*
X21271Y119757D01*
D02*
G37*
G36*
X114704Y126765D02*
X114411Y126707D01*
X114163Y126541D01*
X107299Y119676D01*
X106883Y119510D01*
X106677Y119577D01*
X106243Y119757D01*
X105574D01*
X104956Y119501D01*
X104483Y119028D01*
X104402Y118832D01*
X104227D01*
Y112714D01*
X107127D01*
X107133Y112685D01*
X107299Y112437D01*
X111121Y108615D01*
X111369Y108449D01*
X111662Y108390D01*
X118590D01*
X121784Y105197D01*
Y103386D01*
X121536D01*
Y100614D01*
X137496D01*
Y103386D01*
X137137D01*
Y108503D01*
X137079Y108796D01*
X136913Y109044D01*
X136913Y109044D01*
X134583Y111374D01*
Y112714D01*
X135148D01*
Y117586D01*
X135181Y117666D01*
Y118334D01*
X135384Y118832D01*
X135723D01*
Y112714D01*
X139085D01*
Y117686D01*
X139108Y117741D01*
Y118410D01*
X139085Y118466D01*
Y118832D01*
X138934D01*
X138852Y119028D01*
X138380Y119501D01*
X138368Y119795D01*
X138766Y120235D01*
X139258D01*
X140198Y119295D01*
X139931Y119028D01*
X139849Y118832D01*
X139660D01*
Y112714D01*
X143022D01*
Y117706D01*
X143037Y117741D01*
Y118410D01*
X143022Y118445D01*
Y118832D01*
X142862D01*
X142781Y119028D01*
X142308Y119501D01*
X141978Y119638D01*
X141896Y119759D01*
X140882Y120773D01*
X141074Y121235D01*
X142258D01*
X144162Y119331D01*
X143859Y119028D01*
X143778Y118832D01*
X143597D01*
Y112714D01*
X146959D01*
Y117726D01*
X146966Y117741D01*
Y118410D01*
X146959Y118425D01*
Y118832D01*
X146791D01*
X146710Y119028D01*
X146237Y119501D01*
X145972Y119610D01*
X145825Y119831D01*
X143883Y121773D01*
X144074Y122235D01*
X144758D01*
X147661Y119332D01*
X147534Y118832D01*
X147534D01*
X147532Y118410D01*
X147532Y118344D01*
Y117741D01*
X147534Y117736D01*
Y112714D01*
X150896D01*
Y118832D01*
X150719D01*
X150638Y119028D01*
X150165Y119501D01*
X149547Y119757D01*
X149399D01*
X146382Y122773D01*
X146574Y123235D01*
X148338D01*
X152131Y119443D01*
X151716Y119028D01*
X151635Y118832D01*
X151471D01*
Y118436D01*
X151460Y118410D01*
Y117741D01*
X151471Y117716D01*
Y112714D01*
X154833D01*
Y118832D01*
X154648D01*
X154567Y119028D01*
X154094Y119501D01*
X153892Y119584D01*
X153848Y119806D01*
X153682Y120054D01*
X149963Y123773D01*
X150154Y124235D01*
X150879D01*
X155866Y119249D01*
X155645Y119028D01*
X155564Y118832D01*
X155408D01*
Y118456D01*
X155389Y118410D01*
Y117741D01*
X155408Y117695D01*
Y112714D01*
X158770D01*
Y118832D01*
X158577D01*
X158495Y119028D01*
X158022Y119501D01*
X157602Y119675D01*
X152504Y124773D01*
X152695Y125235D01*
X153758D01*
X159769Y119224D01*
X159573Y119028D01*
X159492Y118832D01*
X159345D01*
Y118477D01*
X159318Y118410D01*
Y117741D01*
X159345Y117675D01*
Y112714D01*
X162707D01*
Y118832D01*
X162505D01*
X162424Y119028D01*
X161951Y119501D01*
X161446Y119710D01*
X154615Y126541D01*
X154367Y126707D01*
X154074Y126765D01*
X114704D01*
X114704Y126765D01*
D02*
G37*
G36*
X102333Y119757D02*
X101664D01*
X101046Y119501D01*
X100574Y119028D01*
X100492Y118832D01*
X100290D01*
Y112714D01*
X103652D01*
Y117675D01*
X103680Y117741D01*
Y118410D01*
X103652Y118477D01*
Y118832D01*
X103505D01*
X103424Y119028D01*
X102951Y119501D01*
X102333Y119757D01*
D02*
G37*
G36*
X44895D02*
X44227D01*
X43609Y119501D01*
X43136Y119028D01*
X43055Y118832D01*
X42849D01*
Y112714D01*
X46211D01*
Y117666D01*
X46242Y117741D01*
Y118410D01*
X46211Y118485D01*
Y118832D01*
X46068D01*
X45986Y119028D01*
X45513Y119501D01*
X44895Y119757D01*
D02*
G37*
G36*
X40958D02*
X40289D01*
X39671Y119501D01*
X39198Y119028D01*
X39117Y118832D01*
X38912D01*
Y112714D01*
X42274D01*
Y117668D01*
X42305Y117741D01*
Y118410D01*
X42274Y118484D01*
Y118832D01*
X42130D01*
X42049Y119028D01*
X41576Y119501D01*
X40958Y119757D01*
D02*
G37*
G36*
X29146D02*
X28477D01*
X27859Y119501D01*
X27386Y119028D01*
X27305Y118832D01*
X27101D01*
Y112714D01*
X30463D01*
Y117671D01*
X30492Y117741D01*
Y118410D01*
X30463Y118480D01*
Y118832D01*
X30318D01*
X30236Y119028D01*
X29763Y119501D01*
X29146Y119757D01*
D02*
G37*
G36*
X25208D02*
X24539D01*
X23921Y119501D01*
X23449Y119028D01*
X23367Y118832D01*
X23164D01*
Y112714D01*
X26526D01*
Y117672D01*
X26555Y117741D01*
Y118410D01*
X26526Y118479D01*
Y118832D01*
X26380D01*
X26299Y119028D01*
X25826Y119501D01*
X25208Y119757D01*
D02*
G37*
G36*
X141434Y102795D02*
X139252D01*
Y100614D01*
X141434D01*
Y102795D01*
D02*
G37*
G36*
X119780D02*
X117598D01*
Y100614D01*
X119780D01*
Y102795D01*
D02*
G37*
G36*
X72426Y102746D02*
X70245D01*
Y100565D01*
X72426D01*
Y102746D01*
D02*
G37*
G36*
X164457Y104587D02*
X160020D01*
Y99165D01*
X164457D01*
Y104587D01*
D02*
G37*
G36*
X58457D02*
X54020D01*
Y99165D01*
X58457D01*
Y104587D01*
D02*
G37*
G36*
X159020D02*
X154583D01*
Y99165D01*
X159020D01*
Y104587D01*
D02*
G37*
G36*
X53020D02*
X48583D01*
Y99165D01*
X53020D01*
Y104587D01*
D02*
G37*
G36*
X142024Y98858D02*
X139252D01*
Y95421D01*
X138752D01*
Y94331D01*
X140638D01*
X142524D01*
Y95421D01*
X142024D01*
Y96677D01*
Y98858D01*
D02*
G37*
G36*
X142524Y93331D02*
X140638D01*
X138752D01*
Y92362D01*
X140638D01*
X142524D01*
Y93331D01*
D02*
G37*
G36*
X164457Y98165D02*
X159520D01*
X154583D01*
Y92744D01*
X155771D01*
X155916Y92567D01*
Y90803D01*
X159520D01*
X163123D01*
Y92567D01*
X163269Y92744D01*
X164457D01*
Y98165D01*
D02*
G37*
G36*
X58457D02*
X53520D01*
X48583D01*
Y92744D01*
X49771D01*
X49916Y92567D01*
Y90803D01*
X53520D01*
X57123D01*
Y92567D01*
X57269Y92744D01*
X58457D01*
Y98165D01*
D02*
G37*
G36*
X142524Y91362D02*
X140638D01*
X138752D01*
Y90394D01*
X140638D01*
X142524D01*
Y91362D01*
D02*
G37*
G36*
X163123Y89803D02*
X160020D01*
Y85715D01*
X160799D01*
X161689Y85892D01*
X162443Y86396D01*
X162946Y87150D01*
X163123Y88039D01*
Y89803D01*
D02*
G37*
G36*
X159020D02*
X155916D01*
Y88039D01*
X156093Y87150D01*
X156597Y86396D01*
X157351Y85892D01*
X158240Y85715D01*
X159020D01*
Y89803D01*
D02*
G37*
G36*
X174693Y85776D02*
X169272D01*
Y84587D01*
X174693D01*
Y85776D01*
D02*
G37*
G36*
X168272D02*
X162850D01*
Y84587D01*
X168272D01*
Y85776D01*
D02*
G37*
G36*
X156189D02*
X150768D01*
Y84587D01*
X156189D01*
Y85776D01*
D02*
G37*
G36*
X149768D02*
X144346D01*
Y84587D01*
X149768D01*
Y85776D01*
D02*
G37*
G36*
X142524Y89394D02*
X140638D01*
X138752D01*
Y88303D01*
X139252D01*
Y82897D01*
X142024D01*
Y84866D01*
Y88303D01*
X142524D01*
Y89394D01*
D02*
G37*
G36*
X174693Y83587D02*
X162850D01*
Y82398D01*
Y82091D01*
X174693D01*
Y82398D01*
Y83587D01*
D02*
G37*
G36*
X156189D02*
X144346D01*
Y82398D01*
Y82091D01*
X156189D01*
Y82398D01*
Y83587D01*
D02*
G37*
G36*
X174693Y81090D02*
X162850D01*
Y79902D01*
Y79587D01*
X174693D01*
Y79902D01*
Y81090D01*
D02*
G37*
G36*
X156189D02*
X144346D01*
Y79902D01*
Y79587D01*
X156189D01*
Y79902D01*
Y81090D01*
D02*
G37*
G36*
X141434Y81141D02*
X139252D01*
Y78960D01*
X141434D01*
Y81141D01*
D02*
G37*
G36*
X54799Y59864D02*
X54020D01*
Y55776D01*
X57123D01*
Y57539D01*
X56946Y58429D01*
X56443Y59183D01*
X55689Y59687D01*
X54799Y59864D01*
D02*
G37*
G36*
X160799D02*
X160020D01*
Y55776D01*
X163123D01*
Y57539D01*
X162946Y58429D01*
X162443Y59183D01*
X161689Y59687D01*
X160799Y59864D01*
D02*
G37*
G36*
X159020D02*
X158240D01*
X157351Y59687D01*
X156597Y59183D01*
X156093Y58429D01*
X155916Y57539D01*
Y55776D01*
X159020D01*
Y59864D01*
D02*
G37*
G36*
X163123Y54776D02*
X159520D01*
X155916D01*
Y53012D01*
X155851Y52933D01*
X154583D01*
Y47512D01*
X159520D01*
X164457D01*
Y52933D01*
X163188D01*
X163123Y53012D01*
Y54776D01*
D02*
G37*
G36*
X57123D02*
X53520D01*
X49916D01*
Y53012D01*
X49851Y52933D01*
X48583D01*
Y47512D01*
X53520D01*
X58457D01*
Y52933D01*
X57188D01*
X57123Y53012D01*
Y54776D01*
D02*
G37*
G36*
X164457Y46512D02*
X160020D01*
Y41091D01*
X164457D01*
Y46512D01*
D02*
G37*
G36*
X159020D02*
X154583D01*
Y41091D01*
X159020D01*
Y46512D01*
D02*
G37*
G36*
X58457D02*
X54020D01*
Y41091D01*
X58457D01*
Y46512D01*
D02*
G37*
G36*
X53020D02*
X48583D01*
Y41091D01*
X53020D01*
Y46512D01*
D02*
G37*
%LPD*%
G36*
X106875Y101185D02*
X106556Y100796D01*
X106378Y100915D01*
X105987Y100993D01*
X94080D01*
Y102746D01*
X93644D01*
X93544Y103246D01*
X93664Y103296D01*
X94070Y103702D01*
X104358D01*
X106875Y101185D01*
D02*
G37*
G36*
X113594Y90925D02*
Y90351D01*
X113850Y89734D01*
X114323Y89261D01*
X114941Y89005D01*
X115609D01*
X115815Y89090D01*
X116094Y88903D01*
X116484Y88825D01*
X117008D01*
Y86834D01*
Y83008D01*
X116901Y82987D01*
X116653Y82821D01*
X111337Y77506D01*
X111150Y77583D01*
X110481D01*
X109863Y77327D01*
X109390Y76854D01*
X109208Y76416D01*
X108672D01*
X108490Y76854D01*
X108018Y77327D01*
X107400Y77583D01*
X106731D01*
X106113Y77327D01*
X105688Y76903D01*
X105351Y76887D01*
X105123Y76912D01*
X104684Y77351D01*
X104067Y77606D01*
X103398D01*
X102780Y77351D01*
X102307Y76878D01*
X102051Y76260D01*
Y75591D01*
X102129Y75403D01*
X101785Y75060D01*
X90096D01*
X89775Y75560D01*
X89912Y75892D01*
Y76560D01*
X89675Y77133D01*
X89759Y77259D01*
X89817Y77552D01*
X89817Y77552D01*
Y78321D01*
X90143D01*
Y81092D01*
X74182D01*
Y78321D01*
X74334D01*
Y67909D01*
X73725Y67300D01*
X73133D01*
X72948Y67746D01*
X72475Y68219D01*
X71857Y68475D01*
X71368D01*
X71062Y68730D01*
X70966Y68924D01*
Y69479D01*
X70902Y69632D01*
X71268Y70021D01*
X71937D01*
X72555Y70277D01*
X73028Y70750D01*
X73284Y71368D01*
Y72037D01*
X73028Y72655D01*
X72555Y73128D01*
X71937Y73384D01*
X71268D01*
X71156Y73477D01*
X70886Y73766D01*
Y74371D01*
X70630Y74989D01*
X70157Y75462D01*
X69539Y75718D01*
X68870D01*
X68693Y75644D01*
X68193Y75978D01*
Y77776D01*
X68193D01*
Y77898D01*
X68193D01*
Y80276D01*
X68193D01*
Y80402D01*
X68193D01*
Y82398D01*
X68693D01*
Y83587D01*
X62772D01*
Y84087D01*
X62272D01*
Y85776D01*
X58916D01*
X58725Y86238D01*
X65051Y92564D01*
X65075Y92554D01*
X65410D01*
X68781Y89183D01*
X69112Y88962D01*
X69502Y88885D01*
X69655D01*
Y86785D01*
Y82848D01*
X72426D01*
Y86119D01*
X72533Y86224D01*
X72926Y86410D01*
X73402Y86213D01*
X74071D01*
X74688Y86469D01*
X75167Y86240D01*
Y81667D01*
X89159D01*
Y98581D01*
X89659Y98736D01*
X90022Y98373D01*
X90640Y98117D01*
X91308D01*
X91483Y98189D01*
X91899Y97912D01*
Y95372D01*
X91399D01*
Y94282D01*
X93285D01*
X95171D01*
Y95372D01*
X94671D01*
Y98809D01*
X95111Y98954D01*
X105565D01*
X113594Y90925D01*
D02*
G37*
G36*
X65824Y82243D02*
Y75956D01*
X57890D01*
Y82281D01*
X65824Y82243D01*
D02*
G37*
G36*
X135622Y75229D02*
X134002Y73608D01*
X126661D01*
Y73819D01*
X126524Y74151D01*
X126844Y74651D01*
X128840D01*
X129132Y74709D01*
X129381Y74875D01*
X131055Y76549D01*
X131055Y76549D01*
X131220Y76797D01*
X131279Y77090D01*
X131279Y77090D01*
Y78370D01*
X135622D01*
Y75229D01*
D02*
G37*
G36*
X144846Y67898D02*
X144846D01*
Y67776D01*
X144846D01*
Y65398D01*
X144543Y65023D01*
X135815D01*
X132069Y68770D01*
X132194Y69352D01*
X132521Y69487D01*
X132994Y69960D01*
X133110Y70240D01*
X144846D01*
Y67898D01*
D02*
G37*
G36*
X51258Y82686D02*
Y74136D01*
X51316Y73843D01*
X51482Y73595D01*
X52675Y72402D01*
X52597Y72214D01*
Y71545D01*
X52853Y70928D01*
X53326Y70455D01*
X53944Y70199D01*
X54447D01*
X54736Y69813D01*
X54761Y69737D01*
X54592Y69328D01*
Y68659D01*
X54596Y68649D01*
X54235Y68257D01*
X53566D01*
X52948Y68001D01*
X52475Y67528D01*
X52219Y66911D01*
Y66242D01*
X52475Y65624D01*
X52948Y65151D01*
X53566Y64895D01*
X54235D01*
X54853Y65151D01*
X55326Y65624D01*
X55582Y66242D01*
Y66911D01*
X55577Y66921D01*
X55938Y67313D01*
X56607D01*
X56850Y67414D01*
X57350Y67079D01*
X57350Y65398D01*
X57350Y64898D01*
Y62898D01*
X57350Y62898D01*
X57210Y62456D01*
X51629D01*
X51629Y62456D01*
X51336Y62397D01*
X51088Y62232D01*
X50151Y61295D01*
X49689Y61486D01*
Y62779D01*
X49689D01*
Y62898D01*
X49689D01*
Y65276D01*
X49689D01*
Y65398D01*
X49689D01*
Y67776D01*
X49689D01*
Y67898D01*
X49689D01*
Y70276D01*
X49689D01*
Y70402D01*
X49689D01*
Y72780D01*
X49689D01*
Y72898D01*
X49689D01*
Y74898D01*
X49689Y75276D01*
X49689Y75776D01*
X49689Y77776D01*
X49689Y78276D01*
X49689Y80276D01*
X49689Y80776D01*
X49689Y82780D01*
X49689Y83601D01*
X50151Y83793D01*
X51258Y82686D01*
D02*
G37*
%LPC*%
G36*
X95171Y93282D02*
X93285D01*
X91399D01*
Y92313D01*
X93285D01*
X95171D01*
Y93282D01*
D02*
G37*
G36*
Y91313D02*
X93285D01*
X91399D01*
Y90345D01*
X93285D01*
X95171D01*
Y91313D01*
D02*
G37*
G36*
X68693Y85776D02*
X63272D01*
Y84587D01*
X68693D01*
Y85776D01*
D02*
G37*
G36*
X95171Y89345D02*
X93285D01*
X91399D01*
Y88254D01*
X91899D01*
Y82848D01*
X94671D01*
Y84817D01*
Y88254D01*
X95171D01*
Y89345D01*
D02*
G37*
G36*
X94080Y81092D02*
X91899D01*
Y78911D01*
X94080D01*
Y81092D01*
D02*
G37*
G36*
X72426D02*
X70245D01*
Y78911D01*
X72426D01*
Y81092D01*
D02*
G37*
%LPD*%
D10*
X66668Y96151D02*
Y107475D01*
X66795Y107602D01*
X66668Y96151D02*
X69076Y93744D01*
X70961Y91824D02*
X70961D01*
X71222Y89904D02*
X71274Y89853D01*
X65522Y93884D02*
X69502Y89904D01*
X71222D01*
X65522Y93884D02*
Y94123D01*
X55568Y81854D02*
X58147Y79276D01*
X55568Y81854D02*
Y84523D01*
X58147Y79276D02*
X59986D01*
X131569Y70912D02*
X131938D01*
X149931Y71260D02*
X150268Y71597D01*
X132285Y71260D02*
X149931D01*
X150268Y71597D02*
X158548D01*
X135393Y64004D02*
X150173D01*
X128707Y70690D02*
X135393Y64004D01*
X128707Y70690D02*
Y70912D01*
X131938D02*
X132285Y71260D01*
X158548Y71597D02*
X159928Y72978D01*
X59986Y79276D02*
X61319Y77943D01*
X61711D01*
X62772Y79004D01*
X65281Y94235D02*
X65410D01*
X55568Y84523D02*
X65281Y94235D01*
X90974Y99798D02*
X91149Y99973D01*
X105987D01*
X115644Y90686D02*
X116484Y89845D01*
X115275Y90686D02*
X115644D01*
X116484Y89845D02*
X118971D01*
X105987Y99973D02*
X115275Y90686D01*
X118979Y89944D02*
X121078D01*
X121339Y90204D01*
X118955Y89920D02*
X118979Y89944D01*
X115147Y94354D02*
X115516D01*
X116088Y93782D02*
X118971D01*
X115516Y94354D02*
X116088Y93782D01*
X104780Y104721D02*
X115147Y94354D01*
X118971Y91813D02*
Y93782D01*
X92712Y104721D02*
X104780D01*
X70961Y91824D02*
X71040Y91903D01*
X69076Y93744D02*
X70988D01*
X71040Y93691D01*
Y91903D02*
Y93691D01*
D15*
X44268Y84087D02*
D03*
X62772D02*
D03*
X44268Y81590D02*
D03*
X62772D02*
D03*
X44268Y79087D02*
D03*
X62772D02*
D03*
X44268Y76587D02*
D03*
X62772D02*
D03*
X44268Y74087D02*
D03*
X62772D02*
D03*
X44268Y71591D02*
D03*
X62772D02*
D03*
X44268Y69087D02*
D03*
X62772D02*
D03*
X44268Y66587D02*
D03*
X62772D02*
D03*
X44268Y64087D02*
D03*
X62772D02*
D03*
X44268Y61590D02*
D03*
X62772D02*
D03*
X168772Y79087D02*
D03*
X150268D02*
D03*
X168772Y81590D02*
D03*
X150268D02*
D03*
X168772Y84087D02*
D03*
X150268D02*
D03*
Y76587D02*
D03*
X168772D02*
D03*
X150268Y74087D02*
D03*
X168772D02*
D03*
X150268Y71591D02*
D03*
X168772D02*
D03*
X150268Y69087D02*
D03*
X168772D02*
D03*
X150268Y66587D02*
D03*
X168772D02*
D03*
X150268Y64087D02*
D03*
X168772D02*
D03*
X150268Y61590D02*
D03*
X168772D02*
D03*
D16*
X53520Y98665D02*
D03*
Y47012D02*
D03*
X159520D02*
D03*
Y98665D02*
D03*
D17*
X140638Y89894D02*
D03*
Y91862D02*
D03*
Y93831D02*
D03*
X93285Y93782D02*
D03*
Y91813D02*
D03*
Y89845D02*
D03*
X71040D02*
D03*
X118394Y89894D02*
D03*
X140638Y83988D02*
D03*
Y85957D02*
D03*
Y87925D02*
D03*
Y95799D02*
D03*
Y97768D02*
D03*
X118394D02*
D03*
Y95799D02*
D03*
Y93831D02*
D03*
Y91862D02*
D03*
Y87925D02*
D03*
Y85957D02*
D03*
Y83988D02*
D03*
X71040Y93782D02*
D03*
Y91813D02*
D03*
X93285Y83939D02*
D03*
Y85908D02*
D03*
Y87876D02*
D03*
Y95750D02*
D03*
Y97719D02*
D03*
X71040D02*
D03*
Y95750D02*
D03*
Y87876D02*
D03*
Y85908D02*
D03*
Y83939D02*
D03*
D18*
X7522Y128568D02*
D03*
X85475D02*
D03*
X170475D02*
D03*
X92522D02*
D03*
D19*
X83147Y79707D02*
D03*
X130500Y79756D02*
D03*
X126563D02*
D03*
X79210Y79707D02*
D03*
X122626Y79756D02*
D03*
X75273Y79707D02*
D03*
X81179D02*
D03*
X128532Y79756D02*
D03*
X136406D02*
D03*
X124595D02*
D03*
X132469D02*
D03*
X134437D02*
D03*
Y102000D02*
D03*
X130500D02*
D03*
X132469D02*
D03*
X136406D02*
D03*
X124595D02*
D03*
X122626D02*
D03*
X126563D02*
D03*
X128532D02*
D03*
X89053Y79707D02*
D03*
X77242D02*
D03*
X85116D02*
D03*
X87084D02*
D03*
Y101951D02*
D03*
X83147D02*
D03*
X85116D02*
D03*
X89053D02*
D03*
X77242D02*
D03*
X75273D02*
D03*
X79210D02*
D03*
X81179D02*
D03*
D20*
X140343Y80051D02*
D03*
Y101705D02*
D03*
X118689Y80051D02*
D03*
Y101705D02*
D03*
X92990Y80002D02*
D03*
Y101656D02*
D03*
X71336Y80002D02*
D03*
Y101656D02*
D03*
D21*
X129516Y90878D02*
D03*
X82163Y90829D02*
D03*
D22*
X145278Y115773D02*
D03*
X161026D02*
D03*
X133467D02*
D03*
X149215D02*
D03*
X137404D02*
D03*
X153152D02*
D03*
X141341D02*
D03*
X157089D02*
D03*
X121656D02*
D03*
X105908D02*
D03*
X117719D02*
D03*
X101971D02*
D03*
X129530D02*
D03*
X113782D02*
D03*
X125593D02*
D03*
X109845D02*
D03*
X56341D02*
D03*
X64215D02*
D03*
X60278D02*
D03*
X72089D02*
D03*
X52404D02*
D03*
X68152D02*
D03*
X48467D02*
D03*
X76026D02*
D03*
X36656D02*
D03*
X16971D02*
D03*
X28782D02*
D03*
X32719D02*
D03*
X20908D02*
D03*
X40593D02*
D03*
X24845D02*
D03*
X44530D02*
D03*
D33*
X124980Y73485D02*
X125484D01*
X126125Y72844D02*
X134319D01*
X136387Y74912D01*
X125484Y73485D02*
X126125Y72844D01*
X81207Y76576D02*
Y79708D01*
X60324Y71646D02*
X71547D01*
X54278Y71880D02*
X54545Y71613D01*
X52022Y74136D02*
X54278Y71880D01*
X78983Y75472D02*
X79046Y75534D01*
Y79919D01*
X78627Y74310D02*
X78983Y74667D01*
Y75472D01*
X62772Y64087D02*
X62782Y64097D01*
X69338D01*
X69349Y64108D01*
X62772Y66587D02*
X62875Y66690D01*
X71419D01*
X71523Y66794D01*
X62772Y69087D02*
X62801Y69116D01*
X69256D01*
X69285Y69144D01*
X71483Y61580D02*
X71493Y61571D01*
X62772Y61691D02*
X62882Y61580D01*
X71483D01*
X51629Y61691D02*
X62772D01*
X44949Y55011D02*
X51629Y61691D01*
X75099Y67592D02*
Y79910D01*
X53022Y77570D02*
Y83417D01*
Y77570D02*
X56507Y74085D01*
X58596Y74086D02*
X58621Y74062D01*
X69180D01*
X69205Y74037D01*
X56508Y74086D02*
X58596D01*
X56507Y74085D02*
X56508Y74086D01*
X24206Y87000D02*
X49439D01*
X53022Y83417D01*
X103732Y75925D02*
X106686Y72971D01*
X102102Y74295D02*
X103732Y75925D01*
X86385Y74295D02*
X102102D01*
X84573Y76107D02*
X86385Y74295D01*
X16966Y79760D02*
X24206Y87000D01*
X16966Y76710D02*
Y79760D01*
Y76710D02*
X17989Y75686D01*
X19753D01*
X19920Y75519D01*
X83147Y77533D02*
Y79707D01*
Y77533D02*
X84573Y76107D01*
X106686Y72971D02*
X119441D01*
X121886Y75416D01*
X128840D01*
X130514Y77090D01*
Y79729D01*
X36882Y73954D02*
X36882Y73954D01*
X46009D01*
X46200Y74145D01*
X122709Y81466D02*
X126240D01*
X121895Y82280D02*
X122709Y81466D01*
X126240D02*
X126533Y81173D01*
X117193Y82280D02*
X121895D01*
X110815Y75902D02*
X117193Y82280D01*
X126533Y80313D02*
Y81173D01*
Y80313D02*
X126824Y80023D01*
X48541Y63954D02*
X48541Y63954D01*
X36882Y63954D02*
X48541D01*
X122643Y77897D02*
Y79146D01*
X122162Y77416D02*
X122643Y77897D01*
X115523Y77416D02*
X122162D01*
X114009Y75902D02*
X115523Y77416D01*
X74042Y66535D02*
X75099Y67592D01*
X71782Y66535D02*
X74042D01*
X71523Y66794D02*
X71782Y66535D01*
X34882Y66454D02*
X45880D01*
X54545Y71613D02*
X60270D01*
X60281Y71603D02*
X60324Y71646D01*
X52022Y74136D02*
Y83003D01*
X71547Y71646D02*
X71603Y71702D01*
X49025Y86000D02*
X52022Y83003D01*
X37264Y86000D02*
X49025D01*
X25220Y76501D02*
X25576Y76145D01*
X26893D02*
X26901Y76137D01*
X25576Y76145D02*
X26893D01*
X26901Y76137D02*
X27401D01*
X37264Y86000D01*
X107065Y75902D02*
X107201D01*
X109132Y73971D01*
X81207Y76576D02*
X81541Y76241D01*
X109132Y73971D02*
X119027D01*
X121472Y76416D01*
X127606D01*
X128547Y77357D02*
Y79144D01*
X127606Y76416D02*
X128547Y77357D01*
X34882Y71454D02*
X45011D01*
X27703Y55011D02*
X44742D01*
X44949Y55011D01*
X26160Y56554D02*
Y59223D01*
Y56554D02*
X27703Y55011D01*
X36882Y68954D02*
X48554D01*
X31973Y59277D02*
X34286Y61590D01*
X41732D01*
X136387Y74912D02*
Y79872D01*
X120030Y87631D02*
X121332Y86329D01*
Y85922D02*
Y86329D01*
X119216Y87631D02*
X120030D01*
X134437Y102000D02*
Y107721D01*
X131536Y110622D02*
X134437Y107721D01*
X128532Y102000D02*
Y106143D01*
X122520Y112155D02*
X128532Y106143D01*
X130500Y102000D02*
Y106065D01*
X123662Y112903D02*
X130500Y106065D01*
X126485Y101977D02*
Y105960D01*
X124517Y101977D02*
Y105921D01*
X118907Y109155D02*
X122548Y105514D01*
X127599Y112342D02*
X132395Y107546D01*
X120283Y110155D02*
X124517Y105921D01*
X121290Y111155D02*
X126485Y105960D01*
X132395Y101822D02*
Y107546D01*
X133818Y111057D02*
X136372Y108503D01*
Y102237D02*
Y108503D01*
X122548Y101400D02*
Y105514D01*
X142574Y122000D02*
X145284Y119290D01*
X126817Y122000D02*
X142574D01*
X123662Y118845D02*
X126817Y122000D01*
X145284Y118076D02*
Y119290D01*
X123662Y112903D02*
Y118845D01*
X118971Y87876D02*
X119216Y87631D01*
X154074Y126000D02*
X160999Y119076D01*
Y118076D02*
Y119076D01*
X107839Y119136D02*
X114704Y126000D01*
X154074D01*
X107839Y112978D02*
Y119136D01*
Y112978D02*
X111662Y109155D01*
X118907D01*
X133467Y115773D02*
X133818Y115422D01*
Y111057D02*
Y115422D01*
X145074Y123000D02*
X149213Y118861D01*
X123880Y123000D02*
X145074D01*
X119725Y118846D02*
X123880Y123000D01*
X149213Y118076D02*
Y118861D01*
X119725Y112903D02*
Y118846D01*
Y112903D02*
X120473Y112155D01*
X122520D01*
X131536Y119113D02*
X132423Y120000D01*
X137000D01*
X137427Y118076D02*
X137433Y118082D01*
X137000Y120000D02*
X137499Y119501D01*
X137433Y118082D02*
X137499D01*
Y119501D01*
X131536Y110622D02*
Y119113D01*
X153141Y118076D02*
Y119513D01*
X148655Y124000D02*
X153141Y119513D01*
X120733Y124000D02*
X148655D01*
X115713Y118980D02*
X120733Y124000D01*
X117536Y111155D02*
X121290D01*
X115713Y112978D02*
Y118980D01*
Y112978D02*
X117536Y111155D01*
X127599Y119176D02*
X129423Y121000D01*
X139574D01*
X141356Y119219D01*
Y118076D02*
Y119219D01*
X127599Y112342D02*
Y119176D01*
X151196Y125000D02*
X157070Y119126D01*
Y118076D02*
Y119126D01*
X117975Y125000D02*
X151196D01*
X111851Y118876D02*
X117975Y125000D01*
X114599Y110155D02*
X120283D01*
X111851Y112903D02*
Y118876D01*
Y112903D02*
X114599Y110155D01*
X89053Y101951D02*
Y116056D01*
X79101Y126007D02*
X89053Y116056D01*
X87084Y101951D02*
Y116610D01*
X78687Y125007D02*
X87084Y116610D01*
X78273Y124007D02*
X85116Y117164D01*
Y101951D02*
Y117164D01*
X77859Y123007D02*
X83147Y117719D01*
Y101951D02*
Y117719D01*
X81179Y101951D02*
Y118273D01*
X77445Y122007D02*
X81179Y118273D01*
X79210Y101951D02*
Y108975D01*
X79499Y109264D01*
X77242Y101951D02*
Y108421D01*
X78499Y109678D01*
X75273Y115019D02*
X76026Y115773D01*
X75273Y101951D02*
Y115019D01*
X68142Y118076D02*
X68493D01*
X72070D02*
X72493D01*
X88231Y76730D02*
X89053Y77552D01*
Y79707D01*
X73727Y87885D02*
X73736Y87894D01*
X71049Y87885D02*
X73727D01*
X71040Y87876D02*
X71049Y87885D01*
X79499Y109264D02*
Y118538D01*
X78499Y109678D02*
Y118124D01*
X88231Y76226D02*
Y76730D01*
X74999Y118076D02*
X75816D01*
X75907Y117984D01*
X77030Y121007D02*
X79499Y118538D01*
X68930Y121007D02*
X77030D01*
X76616Y120007D02*
X78499Y118124D01*
X65930Y122007D02*
X77445D01*
X64213Y120290D02*
X65930Y122007D01*
X64213Y118076D02*
Y120290D01*
X56430Y125007D02*
X78687D01*
X52427Y118076D02*
X52493D01*
X52499Y118082D01*
Y121076D01*
X56430Y125007D01*
X62930Y123007D02*
X77859D01*
X58430Y124007D02*
X78273D01*
X54930Y126007D02*
X79101D01*
X48499Y118076D02*
Y119576D01*
X54930Y126007D01*
X72930Y120007D02*
X76616D01*
X56356Y118076D02*
X56493D01*
X56499Y118082D01*
Y122076D01*
X58430Y124007D01*
X60499Y120576D02*
X62930Y123007D01*
X60284Y118076D02*
X60493D01*
X60499Y118082D01*
Y120576D01*
X68493Y118076D02*
X68499Y118082D01*
Y120576D01*
X68930Y121007D01*
X72493Y118076D02*
X72499Y118082D01*
Y119576D01*
X72930Y120007D01*
D34*
X151985Y63729D02*
D03*
D35*
X159928Y72978D02*
D03*
D36*
X167211Y64067D02*
D03*
D37*
X159520Y90303D02*
D03*
X53520D02*
D03*
Y55276D02*
D03*
X159520D02*
D03*
D38*
X106500Y38399D02*
D03*
X122248Y22650D02*
D03*
X98626Y54147D02*
D03*
X122248Y38399D02*
D03*
X114374Y54147D02*
D03*
X90752Y22650D02*
D03*
Y38399D02*
D03*
X106500Y22650D02*
D03*
D39*
X169683Y90447D02*
D03*
Y87447D02*
D03*
X169002Y54835D02*
D03*
X168942Y57949D02*
D03*
X98592Y94850D02*
D03*
X98466Y97792D02*
D03*
X66795Y107602D02*
D03*
X128707Y70912D02*
D03*
X131569D02*
D03*
X152246Y62673D02*
D03*
X152211Y65251D02*
D03*
X165983Y71213D02*
D03*
X165912Y75123D02*
D03*
X166008Y62747D02*
D03*
Y65325D02*
D03*
X71493Y61571D02*
D03*
X69349Y64108D02*
D03*
X69205Y74037D02*
D03*
X56507Y74085D02*
D03*
X103732Y75925D02*
D03*
X84573Y76107D02*
D03*
X19920Y75519D02*
D03*
X36882Y73954D02*
D03*
X69285Y69144D02*
D03*
X110815Y75902D02*
D03*
X78627Y74310D02*
D03*
X56273Y68994D02*
D03*
X62423Y80608D02*
D03*
X62447Y77696D02*
D03*
X65410Y94235D02*
D03*
X90974Y99798D02*
D03*
X115275Y90686D02*
D03*
X121339Y90204D02*
D03*
X36882Y63954D02*
D03*
X114009Y75902D02*
D03*
X71523Y66794D02*
D03*
X53900Y66576D02*
D03*
X34882Y66454D02*
D03*
X54278Y71880D02*
D03*
X71603Y71702D02*
D03*
X25220Y76501D02*
D03*
X81541Y76241D02*
D03*
X107065Y75902D02*
D03*
X34882Y71454D02*
D03*
X26160Y59223D02*
D03*
X36882Y68954D02*
D03*
X31973Y59277D02*
D03*
X121332Y85922D02*
D03*
X121339Y93860D02*
D03*
X145284Y118076D02*
D03*
X92712Y104721D02*
D03*
X115147Y94354D02*
D03*
X160999Y118076D02*
D03*
X133500Y118000D02*
D03*
X149213Y118076D02*
D03*
X137427D02*
D03*
X153141D02*
D03*
X141356D02*
D03*
X124980Y73485D02*
D03*
X157070Y118076D02*
D03*
X73736Y87894D02*
D03*
X121686Y118076D02*
D03*
X105908D02*
D03*
X117644Y118180D02*
D03*
X101999Y118076D02*
D03*
X129561D02*
D03*
X113782D02*
D03*
X125624D02*
D03*
X109770Y118336D02*
D03*
X88231Y76226D02*
D03*
X40624Y118076D02*
D03*
X36477Y118285D02*
D03*
X28811Y118076D02*
D03*
X64213D02*
D03*
X17090Y117984D02*
D03*
X52427Y118076D02*
D03*
X20936D02*
D03*
X32749D02*
D03*
X44561D02*
D03*
X24874D02*
D03*
X75907Y117984D02*
D03*
X48499Y118076D02*
D03*
X72070D02*
D03*
X68142D02*
D03*
X60284D02*
D03*
X56356D02*
D03*
M02*
