G04*
G04 #@! TF.GenerationSoftware,Altium Limited,Altium Designer,25.8.1 (18)*
G04*
G04 Layer_Color=8421504*
%FSLAX25Y25*%
%MOIN*%
G70*
G04*
G04 #@! TF.SameCoordinates,732149F8-75B0-4827-9E7B-A550906CBCD6*
G04*
G04*
G04 #@! TF.FilePolarity,Positive*
G04*
G01*
G75*
%ADD15R,0.09843X0.01378*%
%ADD16R,0.07874X0.09843*%
%ADD17R,0.01772X0.01181*%
%ADD18R,0.07087X0.08661*%
%ADD19R,0.01181X0.01772*%
%ADD20R,0.01181X0.01181*%
%ADD21R,0.12992X0.17323*%
%ADD22R,0.02362X0.05118*%
D15*
X44268Y84087D02*
D03*
X62772D02*
D03*
X44268Y81590D02*
D03*
X62772D02*
D03*
X44268Y79087D02*
D03*
X62772D02*
D03*
X44268Y76587D02*
D03*
X62772D02*
D03*
X44268Y74087D02*
D03*
X62772D02*
D03*
X44268Y71591D02*
D03*
X62772D02*
D03*
X44268Y69087D02*
D03*
X62772D02*
D03*
X44268Y66587D02*
D03*
X62772D02*
D03*
X44268Y64087D02*
D03*
X62772D02*
D03*
X44268Y61590D02*
D03*
X62772D02*
D03*
X168772Y79087D02*
D03*
X150268D02*
D03*
X168772Y81590D02*
D03*
X150268D02*
D03*
X168772Y84087D02*
D03*
X150268D02*
D03*
Y76587D02*
D03*
X168772D02*
D03*
X150268Y74087D02*
D03*
X168772D02*
D03*
X150268Y71591D02*
D03*
X168772D02*
D03*
X150268Y69087D02*
D03*
X168772D02*
D03*
X150268Y66587D02*
D03*
X168772D02*
D03*
X150268Y64087D02*
D03*
X168772D02*
D03*
X150268Y61590D02*
D03*
X168772D02*
D03*
D16*
X53520Y98665D02*
D03*
Y47012D02*
D03*
X159520D02*
D03*
Y98665D02*
D03*
D17*
X140638Y89894D02*
D03*
Y91862D02*
D03*
Y93831D02*
D03*
X93285Y93782D02*
D03*
Y91813D02*
D03*
Y89845D02*
D03*
X71040D02*
D03*
X118394Y89894D02*
D03*
X140638Y83988D02*
D03*
Y85957D02*
D03*
Y87925D02*
D03*
Y95799D02*
D03*
Y97768D02*
D03*
X118394D02*
D03*
Y95799D02*
D03*
Y93831D02*
D03*
Y91862D02*
D03*
Y87925D02*
D03*
Y85957D02*
D03*
Y83988D02*
D03*
X71040Y93782D02*
D03*
Y91813D02*
D03*
X93285Y83939D02*
D03*
Y85908D02*
D03*
Y87876D02*
D03*
Y95750D02*
D03*
Y97719D02*
D03*
X71040D02*
D03*
Y95750D02*
D03*
Y87876D02*
D03*
Y85908D02*
D03*
Y83939D02*
D03*
D18*
X7522Y128568D02*
D03*
X85475D02*
D03*
X170475D02*
D03*
X92522D02*
D03*
D19*
X83147Y79707D02*
D03*
X130500Y79756D02*
D03*
X126563D02*
D03*
X79210Y79707D02*
D03*
X122626Y79756D02*
D03*
X75273Y79707D02*
D03*
X81179D02*
D03*
X128532Y79756D02*
D03*
X136406D02*
D03*
X124595D02*
D03*
X132469D02*
D03*
X134437D02*
D03*
Y102000D02*
D03*
X130500D02*
D03*
X132469D02*
D03*
X136406D02*
D03*
X124595D02*
D03*
X122626D02*
D03*
X126563D02*
D03*
X128532D02*
D03*
X89053Y79707D02*
D03*
X77242D02*
D03*
X85116D02*
D03*
X87084D02*
D03*
Y101951D02*
D03*
X83147D02*
D03*
X85116D02*
D03*
X89053D02*
D03*
X77242D02*
D03*
X75273D02*
D03*
X79210D02*
D03*
X81179D02*
D03*
D20*
X140343Y80051D02*
D03*
Y101705D02*
D03*
X118689Y80051D02*
D03*
Y101705D02*
D03*
X92990Y80002D02*
D03*
Y101656D02*
D03*
X71336Y80002D02*
D03*
Y101656D02*
D03*
D21*
X129516Y90878D02*
D03*
X82163Y90829D02*
D03*
D22*
X145278Y115773D02*
D03*
X161026D02*
D03*
X133467D02*
D03*
X149215D02*
D03*
X137404D02*
D03*
X153152D02*
D03*
X141341D02*
D03*
X157089D02*
D03*
X121656D02*
D03*
X105908D02*
D03*
X117719D02*
D03*
X101971D02*
D03*
X129530D02*
D03*
X113782D02*
D03*
X125593D02*
D03*
X109845D02*
D03*
X56341D02*
D03*
X64215D02*
D03*
X60278D02*
D03*
X72089D02*
D03*
X52404D02*
D03*
X68152D02*
D03*
X48467D02*
D03*
X76026D02*
D03*
X36656D02*
D03*
X16971D02*
D03*
X28782D02*
D03*
X32719D02*
D03*
X20908D02*
D03*
X40593D02*
D03*
X24845D02*
D03*
X44530D02*
D03*
M02*
