G04*
G04 #@! TF.GenerationSoftware,Altium Limited,Altium Designer,25.8.1 (18)*
G04*
G04 Layer_Color=16711935*
%FSLAX25Y25*%
%MOIN*%
G70*
G04*
G04 #@! TF.SameCoordinates,732149F8-75B0-4827-9E7B-A550906CBCD6*
G04*
G04*
G04 #@! TF.FilePolarity,Negative*
G04*
G01*
G75*
%ADD24R,0.08465X0.10433*%
%ADD25R,0.02362X0.01772*%
%ADD27R,0.01772X0.02362*%
%ADD28R,0.01772X0.01772*%
%ADD29R,0.13583X0.17914*%
G04:AMPARAMS|DCode=31|XSize=76.77mil|YSize=57.09mil|CornerRadius=15.75mil|HoleSize=0mil|Usage=FLASHONLY|Rotation=90.000|XOffset=0mil|YOffset=0mil|HoleType=Round|Shape=RoundedRectangle|*
%AMROUNDEDRECTD31*
21,1,0.07677,0.02559,0,0,90.0*
21,1,0.04528,0.05709,0,0,90.0*
1,1,0.03150,0.01280,0.02264*
1,1,0.03150,0.01280,-0.02264*
1,1,0.03150,-0.01280,-0.02264*
1,1,0.03150,-0.01280,0.02264*
%
%ADD31ROUNDEDRECTD31*%
%ADD32C,0.08465*%
%ADD44R,0.07677X0.01968*%
%ADD45R,0.04134X0.04331*%
D24*
X53520Y96106D02*
D03*
Y49571D02*
D03*
X159520Y96106D02*
D03*
Y49571D02*
D03*
D25*
X95755Y93906D02*
D03*
Y91937D02*
D03*
Y89969D02*
D03*
X10593Y93782D02*
D03*
Y91813D02*
D03*
Y89845D02*
D03*
X32838D02*
D03*
X118000Y89969D02*
D03*
Y93906D02*
D03*
Y91937D02*
D03*
X32838Y93782D02*
D03*
Y91813D02*
D03*
X118000Y88000D02*
D03*
X95755Y84063D02*
D03*
Y86032D02*
D03*
Y88000D02*
D03*
Y95874D02*
D03*
Y97843D02*
D03*
X118000D02*
D03*
Y95874D02*
D03*
Y86032D02*
D03*
Y84063D02*
D03*
X10593Y83939D02*
D03*
Y85908D02*
D03*
Y87876D02*
D03*
Y95750D02*
D03*
Y97719D02*
D03*
X32838D02*
D03*
Y95750D02*
D03*
Y87876D02*
D03*
Y85908D02*
D03*
Y83939D02*
D03*
D27*
X20732Y79707D02*
D03*
X105894Y79831D02*
D03*
X14826Y79707D02*
D03*
X109831Y79831D02*
D03*
X24669Y79707D02*
D03*
X113768Y79831D02*
D03*
X28606Y79707D02*
D03*
X22700D02*
D03*
X107862Y79831D02*
D03*
X99988D02*
D03*
X111799D02*
D03*
X103925D02*
D03*
X101957D02*
D03*
Y102075D02*
D03*
X105894D02*
D03*
X103925D02*
D03*
X99988D02*
D03*
X111799D02*
D03*
X113768D02*
D03*
X109831D02*
D03*
X107862D02*
D03*
X26637Y79707D02*
D03*
X18763D02*
D03*
X16795D02*
D03*
Y101951D02*
D03*
X20732D02*
D03*
X18763D02*
D03*
X14826D02*
D03*
X26637D02*
D03*
X28606D02*
D03*
X24669D02*
D03*
X22700D02*
D03*
D28*
X96051Y80126D02*
D03*
Y101780D02*
D03*
X117705Y80126D02*
D03*
Y101780D02*
D03*
X10889Y80002D02*
D03*
Y101656D02*
D03*
X32543Y80002D02*
D03*
Y101656D02*
D03*
D29*
X106878Y90953D02*
D03*
X21716Y90829D02*
D03*
D31*
X159520Y90303D02*
D03*
X53520D02*
D03*
Y55276D02*
D03*
X159520D02*
D03*
D32*
X106500Y38399D02*
D03*
X122248Y22650D02*
D03*
X98626Y54147D02*
D03*
X122248Y38399D02*
D03*
X114374Y54147D02*
D03*
X90752Y22650D02*
D03*
Y38399D02*
D03*
X106500Y22650D02*
D03*
D44*
X61787Y84087D02*
D03*
X45252D02*
D03*
X61787Y81590D02*
D03*
X45252D02*
D03*
X61787Y79090D02*
D03*
X45252D02*
D03*
X61787Y76591D02*
D03*
X45252D02*
D03*
X61787Y74087D02*
D03*
X45252D02*
D03*
X61787Y71591D02*
D03*
X45252D02*
D03*
X61787Y69087D02*
D03*
X45252D02*
D03*
X61787Y66587D02*
D03*
X45252D02*
D03*
X61787Y64087D02*
D03*
X45252D02*
D03*
X61787Y61590D02*
D03*
X45252D02*
D03*
X167787Y84087D02*
D03*
X151252D02*
D03*
X167787Y81590D02*
D03*
X151252D02*
D03*
X167787Y79090D02*
D03*
X151252D02*
D03*
X167787Y76591D02*
D03*
X151252D02*
D03*
X167787Y74087D02*
D03*
X151252D02*
D03*
X167787Y71591D02*
D03*
X151252D02*
D03*
X167787Y69087D02*
D03*
X151252D02*
D03*
X167787Y66587D02*
D03*
X151252D02*
D03*
X167787Y64087D02*
D03*
X151252D02*
D03*
X167787Y61590D02*
D03*
X151252D02*
D03*
D45*
X26067Y59277D02*
D03*
X31973D02*
D03*
M02*
