G04*
G04 #@! TF.GenerationSoftware,Altium Limited,Altium Designer,25.8.1 (18)*
G04*
G04 Layer_Color=32768*
%FSLAX25Y25*%
%MOIN*%
G70*
G04*
G04 #@! TF.SameCoordinates,732149F8-75B0-4827-9E7B-A550906CBCD6*
G04*
G04*
G04 #@! TF.FilePolarity,Positive*
G04*
G01*
G75*
%ADD33C,0.00500*%
D33*
X139358Y82020D02*
X138866Y82872D01*
X137882D01*
X137390Y82020D01*
X137882Y81168D01*
X138866D01*
X139358Y82020D01*
X99004Y82095D02*
X98512Y82947D01*
X97528D01*
X97036Y82095D01*
X97528Y81243D01*
X98512D01*
X99004Y82095D01*
X13842Y81971D02*
X13350Y82823D01*
X12366D01*
X11874Y81971D01*
X12366Y81119D01*
X13350D01*
X13842Y81971D01*
X92005D02*
X91513Y82823D01*
X90529D01*
X90037Y81971D01*
X90529Y81119D01*
X91513D01*
X92005Y81971D01*
X117909Y79114D02*
X141531D01*
X117909Y102736D02*
X141531D01*
Y79114D02*
Y102736D01*
X117500Y79114D02*
Y102736D01*
X94863Y79189D02*
X118485D01*
X94863Y102811D02*
X118485D01*
X94863Y79189D02*
Y102811D01*
X118894Y79189D02*
Y102811D01*
X9701Y79065D02*
X33323D01*
X9701Y102687D02*
X33323D01*
X9701Y79065D02*
Y102687D01*
X33731Y79065D02*
Y102687D01*
X70556Y79065D02*
X94178D01*
X70556Y102687D02*
X94178D01*
Y79065D02*
Y102687D01*
X70147Y79065D02*
Y102687D01*
M02*
