G04*
G04 #@! TF.GenerationSoftware,Altium Limited,Altium Designer,25.8.1 (18)*
G04*
G04 Layer_Color=16711935*
%FSLAX25Y25*%
%MOIN*%
G70*
G04*
G04 #@! TF.SameCoordinates,732149F8-75B0-4827-9E7B-A550906CBCD6*
G04*
G04*
G04 #@! TF.FilePolarity,Positive*
G04*
G01*
G75*
%ADD11C,0.00394*%
%ADD13C,0.00787*%
D11*
X25870Y57702D02*
X32170D01*
Y60852D01*
X25870D02*
X32170D01*
X25870Y57702D02*
Y60852D01*
X81932Y136442D02*
Y137623D01*
X83900D01*
Y140379D01*
X9097D02*
X83900D01*
X9097Y137623D02*
Y140379D01*
Y137623D02*
X11066D01*
Y136442D02*
Y137623D01*
X7916Y118332D02*
Y136442D01*
Y118332D02*
X85081D01*
Y136442D01*
X7916D02*
X85081D01*
X92916D02*
X170081D01*
Y118332D02*
Y136442D01*
X92916Y118332D02*
X170081D01*
X92916D02*
Y136442D01*
X96066D02*
Y137623D01*
X94097D02*
X96066D01*
X94097D02*
Y140379D01*
X168900D01*
Y137623D02*
Y140379D01*
X166932Y137623D02*
X168900D01*
X166932Y136442D02*
Y137623D01*
D13*
X43284Y46815D02*
Y98862D01*
Y46815D02*
X63756D01*
Y98862D01*
X43284D02*
X63756D01*
X149284Y46815D02*
Y98862D01*
Y46815D02*
X169756D01*
Y98862D01*
X149284D02*
X169756D01*
X66118Y44846D02*
Y100831D01*
X40921Y44846D02*
X66118D01*
X40921D02*
Y100831D01*
X66118D01*
X172118Y44846D02*
Y100831D01*
X146921Y44846D02*
X172118D01*
X146921D02*
Y100831D01*
X172118D01*
M02*
