M48
;Layer_Color=9474304
;FILE_FORMAT=2:5
INCH
;TYPE=PLATED
T01F00S00C0.01181
%
T01
X0271253Y0138075
Y0153823
X0287001
X0302749
Y0138075
X0287001
X0332747Y0178097
X0332713Y0180675
X0346509Y0180749
Y0178171
X0349443Y0173374
X0349503Y0170259
X0346485Y0186637
X0346414Y0190547
X0350184Y0202872
Y0205872
X0341500Y0233500
X0337571
X0333643
X0329714
X0325786
X0321857
X0317929
X0314001Y0233424
X0310063Y0233500
X0306125
X0302187
X0298146Y0233604
X0294284Y0233500
X0290272Y0233760
X0286409Y0233500
X0282500
X0273213Y0220146
X0271475Y0215222
X0278967Y0213216
X0279093Y0210274
X0295649Y0209778
X0295776Y0206110
X0301840Y0205629
Y0209284
X0301833Y0201346
X0305481Y0188909
X0309208Y0186337
X0312070
X0294511Y0191327
X0291316
X0287567
X0284233Y0191350
X0268733Y0191650
X0265074Y0191531
X0262043Y0191666
X0259128Y0189735
X0252104Y0187127
X0249706Y0189461
X0249786Y0184569
X0252024Y0182218
X0249850Y0179532
X0251995Y0176995
X0234402Y0182001
X0236774Y0184418
X0234780Y0187304
X0237009Y0189510
X0242948Y0193121
X0242924Y0196033
X0245911Y0209660
X0254237Y0203318
X0247297Y0223026
X0248643Y0233500
X0244714
X0240786
X0236857
X0232929
X0229000
X0225062
X0221125
X0216978Y0233709
X0213250Y0233500
X0209313
X0205375
X0201437
X0197591Y0233409
X0200422Y0190943
X0205721Y0191926
X0217384Y0189378
X0215384Y0186878
X0217384Y0184378
X0215384Y0181878
X0217384Y0179378
X0212474Y0174701
X0206661Y0174647
X0279127Y0169571
X0294875
X0256409Y0233409
X0252571Y0233500
M30
