G04*
G04 #@! TF.GenerationSoftware,Altium Limited,Altium Designer,25.8.1 (18)*
G04*
G04 Layer_Physical_Order=2*
G04 Layer_Color=16711680*
%FSLAX25Y25*%
%MOIN*%
G70*
G04*
G04 #@! TF.SameCoordinates,732149F8-75B0-4827-9E7B-A550906CBCD6*
G04*
G04*
G04 #@! TF.FilePolarity,Positive*
G04*
G01*
G75*
%ADD10C,0.01000*%
%ADD16R,0.07874X0.09843*%
%ADD17R,0.01772X0.01181*%
%ADD19R,0.01181X0.01772*%
%ADD20R,0.01181X0.01181*%
%ADD21R,0.12992X0.17323*%
%ADD33C,0.00500*%
%ADD35R,0.21000X0.07500*%
%ADD36R,0.06500X0.05500*%
G04:AMPARAMS|DCode=37|XSize=70.87mil|YSize=51.18mil|CornerRadius=12.8mil|HoleSize=0mil|Usage=FLASHONLY|Rotation=90.000|XOffset=0mil|YOffset=0mil|HoleType=Round|Shape=RoundedRectangle|*
%AMROUNDEDRECTD37*
21,1,0.07087,0.02559,0,0,90.0*
21,1,0.04528,0.05118,0,0,90.0*
1,1,0.02559,0.01280,0.02264*
1,1,0.02559,0.01280,-0.02264*
1,1,0.02559,-0.01280,-0.02264*
1,1,0.02559,-0.01280,0.02264*
%
%ADD37ROUNDEDRECTD37*%
%ADD38C,0.07874*%
%ADD39C,0.02362*%
%ADD40R,0.07087X0.01378*%
%ADD41R,0.03543X0.03740*%
%ADD42R,0.05500X0.06000*%
%ADD43R,0.08000X0.06368*%
G36*
X172218Y144867D02*
X173586Y144595D01*
X174873Y144062D01*
X176031Y143288D01*
X177016Y142303D01*
X177790Y141145D01*
X178323Y139858D01*
X178595Y138492D01*
Y137795D01*
X178595Y7874D01*
Y7177D01*
X178323Y5811D01*
X177790Y4524D01*
X177016Y3366D01*
X176031Y2381D01*
X174873Y1608D01*
X173586Y1075D01*
X172220Y803D01*
X171524D01*
X7874Y805D01*
X7873Y805D01*
X7872Y805D01*
X7176Y803D01*
X5811Y1075D01*
X4524Y1608D01*
X3366Y2381D01*
X2381Y3366D01*
X1608Y4524D01*
X1075Y5811D01*
X803Y7177D01*
Y7874D01*
X801Y137794D01*
X803Y138491D01*
X1075Y139858D01*
X1608Y141145D01*
X2381Y142303D01*
X3366Y143288D01*
X4524Y144062D01*
X5811Y144595D01*
X7177Y144867D01*
X7874D01*
X171503Y144870D01*
X172218Y144867D01*
D02*
G37*
%LPC*%
G36*
X36811Y119966D02*
X36143D01*
X35525Y119710D01*
X35052Y119237D01*
X34840Y118726D01*
X34449Y118661D01*
X34319Y118676D01*
X34174Y119028D01*
X33701Y119501D01*
X33083Y119757D01*
X32414D01*
X31796Y119501D01*
X31324Y119028D01*
X31068Y118410D01*
Y118268D01*
X31029Y118076D01*
X31068Y117883D01*
Y117741D01*
X31324Y117123D01*
X31796Y116651D01*
X31984Y116573D01*
Y114525D01*
X22159Y104700D01*
X22155Y104694D01*
X21627Y104804D01*
X21590Y105009D01*
X29352Y112770D01*
X29352Y112770D01*
X29518Y113019D01*
X29576Y113311D01*
Y116573D01*
X29763Y116651D01*
X30236Y117123D01*
X30492Y117741D01*
Y118410D01*
X30236Y119028D01*
X29763Y119501D01*
X29146Y119757D01*
X28477D01*
X27859Y119501D01*
X27386Y119028D01*
X27130Y118410D01*
Y118266D01*
X27092Y118076D01*
X27130Y117886D01*
Y117741D01*
X27386Y117123D01*
X27859Y116651D01*
X28047Y116573D01*
Y113628D01*
X26008Y111590D01*
X25791Y111699D01*
X25596Y111884D01*
X25638Y112098D01*
Y116573D01*
X25826Y116651D01*
X26299Y117123D01*
X26555Y117741D01*
Y118410D01*
X26299Y119028D01*
X25826Y119501D01*
X25208Y119757D01*
X24539D01*
X23921Y119501D01*
X23449Y119028D01*
X23193Y118410D01*
Y118263D01*
X23155Y118076D01*
X23193Y117888D01*
Y117741D01*
X23449Y117123D01*
X23921Y116651D01*
X24109Y116573D01*
Y112415D01*
X22163Y110468D01*
X21701Y110660D01*
Y116573D01*
X21888Y116651D01*
X22361Y117123D01*
X22617Y117741D01*
Y118410D01*
X22361Y119028D01*
X21888Y119501D01*
X21271Y119757D01*
X20602D01*
X19984Y119501D01*
X19511Y119028D01*
X19255Y118410D01*
X18761Y118342D01*
X18515Y118937D01*
X18042Y119410D01*
X17424Y119666D01*
X16756D01*
X16138Y119410D01*
X15665Y118937D01*
X15409Y118319D01*
Y117650D01*
X15665Y117032D01*
X16138Y116559D01*
X16325Y116482D01*
Y107907D01*
X14285Y105866D01*
X14119Y105618D01*
X14061Y105326D01*
Y103337D01*
X13735D01*
Y100565D01*
X29696D01*
Y103337D01*
X29696D01*
X29728Y103824D01*
X34475Y108571D01*
X35821D01*
X36114Y108629D01*
X36362Y108795D01*
X44039Y116472D01*
X44227Y116395D01*
X44895D01*
X45513Y116651D01*
X45986Y117123D01*
X46242Y117741D01*
Y118410D01*
X45986Y119028D01*
X45513Y119501D01*
X44895Y119757D01*
X44227D01*
X43609Y119501D01*
X43136Y119028D01*
X42880Y118410D01*
Y118276D01*
X42840Y118076D01*
X42880Y117876D01*
Y117741D01*
X42932Y117616D01*
X42615Y117243D01*
X42210Y117514D01*
X42305Y117741D01*
Y118410D01*
X42049Y119028D01*
X41576Y119501D01*
X40958Y119757D01*
X40289D01*
X39671Y119501D01*
X39198Y119028D01*
X38943Y118410D01*
Y118273D01*
X38903Y118076D01*
X38943Y117878D01*
Y117741D01*
X39198Y117123D01*
X39671Y116651D01*
X39859Y116573D01*
Y115940D01*
X37716Y113797D01*
X37366Y113930D01*
X37242Y114030D01*
Y116782D01*
X37429Y116860D01*
X37902Y117333D01*
X38158Y117951D01*
Y118619D01*
X37902Y119237D01*
X37429Y119710D01*
X36811Y119966D01*
D02*
G37*
G36*
X68476Y119757D02*
X67807D01*
X67189Y119501D01*
X66716Y119028D01*
X66460Y118410D01*
Y117741D01*
X66716Y117123D01*
X67189Y116651D01*
X67807Y116395D01*
X68476D01*
X69094Y116651D01*
X69567Y117123D01*
X69823Y117741D01*
Y118410D01*
X69567Y119028D01*
X69094Y119501D01*
X68476Y119757D01*
D02*
G37*
G36*
X64547D02*
X63879D01*
X63261Y119501D01*
X62788Y119028D01*
X62532Y118410D01*
Y117741D01*
X62788Y117123D01*
X63261Y116651D01*
X63879Y116395D01*
X64547D01*
X65165Y116651D01*
X65638Y117123D01*
X65894Y117741D01*
Y118410D01*
X65638Y119028D01*
X65165Y119501D01*
X64547Y119757D01*
D02*
G37*
G36*
X60619D02*
X59950D01*
X59332Y119501D01*
X58859Y119028D01*
X58603Y118410D01*
Y117741D01*
X58859Y117123D01*
X59332Y116651D01*
X59950Y116395D01*
X60619D01*
X61237Y116651D01*
X61709Y117123D01*
X61966Y117741D01*
Y118410D01*
X61709Y119028D01*
X61237Y119501D01*
X60619Y119757D01*
D02*
G37*
G36*
X56690D02*
X56021D01*
X55404Y119501D01*
X54931Y119028D01*
X54675Y118410D01*
Y117741D01*
X54931Y117123D01*
X55404Y116651D01*
X56021Y116395D01*
X56690D01*
X57308Y116651D01*
X57781Y117123D01*
X58037Y117741D01*
Y118410D01*
X57781Y119028D01*
X57308Y119501D01*
X56690Y119757D01*
D02*
G37*
G36*
X52762D02*
X52093D01*
X51475Y119501D01*
X51002Y119028D01*
X50746Y118410D01*
Y117741D01*
X51002Y117123D01*
X51475Y116651D01*
X52093Y116395D01*
X52762D01*
X53379Y116651D01*
X53852Y117123D01*
X54108Y117741D01*
Y118410D01*
X53852Y119028D01*
X53379Y119501D01*
X52762Y119757D01*
D02*
G37*
G36*
X48833D02*
X48164D01*
X47546Y119501D01*
X47074Y119028D01*
X46818Y118410D01*
Y117741D01*
X47074Y117123D01*
X47546Y116651D01*
X48164Y116395D01*
X48833D01*
X49451Y116651D01*
X49924Y117123D01*
X50180Y117741D01*
Y118410D01*
X49924Y119028D01*
X49451Y119501D01*
X48833Y119757D01*
D02*
G37*
G36*
X72404D02*
X71736D01*
X71118Y119501D01*
X70645Y119028D01*
X70389Y118410D01*
Y117741D01*
X70645Y117123D01*
X71118Y116651D01*
X71736Y116395D01*
X72404D01*
X73022Y116651D01*
X73495Y117123D01*
X73751Y117741D01*
X74226Y117681D01*
Y117650D01*
X74482Y117032D01*
X74955Y116559D01*
X75573Y116303D01*
X76242D01*
X76860Y116559D01*
X77333Y117032D01*
X77588Y117650D01*
Y118319D01*
X77333Y118937D01*
X76860Y119410D01*
X76242Y119666D01*
X75573D01*
X74955Y119410D01*
X74482Y118937D01*
X74226Y118319D01*
X73751Y118379D01*
Y118410D01*
X73495Y119028D01*
X73022Y119501D01*
X72404Y119757D01*
D02*
G37*
G36*
X110105Y120017D02*
X109436D01*
X108818Y119761D01*
X108345Y119288D01*
X108089Y118670D01*
Y118001D01*
X108345Y117384D01*
X108737Y116992D01*
Y116721D01*
X107188Y115172D01*
X106954Y115227D01*
X106701Y115392D01*
Y116585D01*
X106860Y116651D01*
X107333Y117123D01*
X107589Y117741D01*
Y118410D01*
X107333Y119028D01*
X106860Y119501D01*
X106243Y119757D01*
X105574D01*
X104956Y119501D01*
X104483Y119028D01*
X104227Y118410D01*
Y117741D01*
X104483Y117123D01*
X104956Y116651D01*
X105172Y116561D01*
Y115604D01*
X101371Y111803D01*
X101255Y111630D01*
X100934Y111650D01*
X100755Y111713D01*
Y115751D01*
X101477Y116472D01*
X101664Y116395D01*
X102333D01*
X102951Y116651D01*
X103424Y117123D01*
X103680Y117741D01*
Y118410D01*
X103424Y119028D01*
X102951Y119501D01*
X102333Y119757D01*
X101664D01*
X101046Y119501D01*
X100574Y119028D01*
X100318Y118410D01*
Y117741D01*
X100395Y117554D01*
X99450Y116608D01*
X99284Y116360D01*
X99226Y116068D01*
Y103461D01*
X98897D01*
Y100689D01*
X114858D01*
Y103461D01*
X114532D01*
Y110235D01*
X122485D01*
X122778Y110293D01*
X123026Y110459D01*
X129039Y116472D01*
X129227Y116395D01*
X129896D01*
X130513Y116651D01*
X130986Y117123D01*
X131242Y117741D01*
Y118410D01*
X130986Y119028D01*
X130513Y119501D01*
X129896Y119757D01*
X129227D01*
X128609Y119501D01*
X128136Y119028D01*
X127880Y118410D01*
Y117741D01*
X127932Y117616D01*
X127615Y117243D01*
X127210Y117514D01*
X127305Y117741D01*
Y118410D01*
X127049Y119028D01*
X126576Y119501D01*
X125958Y119757D01*
X125289D01*
X124671Y119501D01*
X124198Y119028D01*
X123943Y118410D01*
Y117741D01*
X124198Y117123D01*
X124671Y116651D01*
X124820Y116589D01*
Y115902D01*
X121936Y113017D01*
X121827Y113039D01*
X121663Y113582D01*
X122227Y114145D01*
X122393Y114393D01*
X122451Y114686D01*
Y116573D01*
X122638Y116651D01*
X123111Y117123D01*
X123367Y117741D01*
Y118410D01*
X123111Y119028D01*
X122638Y119501D01*
X122021Y119757D01*
X121352D01*
X120734Y119501D01*
X120261Y119028D01*
X120005Y118410D01*
Y117741D01*
X120261Y117123D01*
X120734Y116651D01*
X120922Y116573D01*
Y115003D01*
X119683Y113765D01*
X117079D01*
X116888Y114227D01*
X118185Y115524D01*
X118185Y115524D01*
X118351Y115772D01*
X118409Y116064D01*
Y116677D01*
X118597Y116755D01*
X119070Y117228D01*
X119325Y117846D01*
Y118514D01*
X119070Y119132D01*
X118597Y119605D01*
X117979Y119861D01*
X117310D01*
X116692Y119605D01*
X116219Y119132D01*
X115963Y118514D01*
Y117846D01*
X116219Y117228D01*
X116658Y116789D01*
X116696Y116654D01*
X116714Y116215D01*
X115263Y114765D01*
X112206D01*
X112014Y115227D01*
X113260Y116472D01*
X113448Y116395D01*
X114117D01*
X114734Y116651D01*
X115207Y117123D01*
X115463Y117741D01*
Y118410D01*
X115207Y119028D01*
X114734Y119501D01*
X114117Y119757D01*
X113448D01*
X112830Y119501D01*
X112357Y119028D01*
X112101Y118410D01*
Y117741D01*
X112179Y117554D01*
X110893Y116268D01*
X110402Y116484D01*
X110414Y116783D01*
X110723Y116911D01*
X111196Y117384D01*
X111451Y118001D01*
Y118670D01*
X111196Y119288D01*
X110723Y119761D01*
X110105Y120017D01*
D02*
G37*
G36*
X161333Y119757D02*
X160664D01*
X160046Y119501D01*
X159573Y119028D01*
X159318Y118410D01*
Y117741D01*
X159573Y117123D01*
X160046Y116651D01*
X160033Y116115D01*
X158297Y114378D01*
X157835Y114569D01*
Y116573D01*
X158022Y116651D01*
X158495Y117123D01*
X158751Y117741D01*
Y118410D01*
X158495Y119028D01*
X158022Y119501D01*
X157404Y119757D01*
X156736D01*
X156118Y119501D01*
X155645Y119028D01*
X155389Y118410D01*
Y117741D01*
X155645Y117123D01*
X156118Y116651D01*
X156305Y116573D01*
Y113887D01*
X154368Y111950D01*
X153906Y112141D01*
Y116573D01*
X154094Y116651D01*
X154567Y117123D01*
X154823Y117741D01*
Y118410D01*
X154567Y119028D01*
X154094Y119501D01*
X153476Y119757D01*
X152807D01*
X152189Y119501D01*
X151716Y119028D01*
X151460Y118410D01*
Y117741D01*
X151716Y117123D01*
X152189Y116651D01*
X152377Y116573D01*
Y111458D01*
X150478Y109559D01*
X149978Y109766D01*
Y116573D01*
X150165Y116651D01*
X150638Y117123D01*
X150894Y117741D01*
Y118410D01*
X150638Y119028D01*
X150165Y119501D01*
X149547Y119757D01*
X148879D01*
X148261Y119501D01*
X147788Y119028D01*
X147532Y118410D01*
Y117741D01*
X147788Y117123D01*
X148261Y116651D01*
X148448Y116573D01*
Y109530D01*
X146291Y107373D01*
X145829Y107564D01*
Y116482D01*
X146237Y116651D01*
X146710Y117123D01*
X146966Y117741D01*
Y118410D01*
X146710Y119028D01*
X146237Y119501D01*
X145619Y119757D01*
X144950D01*
X144332Y119501D01*
X143859Y119028D01*
X143603Y118410D01*
Y117741D01*
X143859Y117123D01*
X144300Y116683D01*
Y106881D01*
X142582Y105164D01*
X142121Y105355D01*
Y116573D01*
X142308Y116651D01*
X142781Y117123D01*
X143037Y117741D01*
Y118410D01*
X142781Y119028D01*
X142308Y119501D01*
X141690Y119757D01*
X141021D01*
X140403Y119501D01*
X139931Y119028D01*
X139675Y118410D01*
Y117741D01*
X139931Y117123D01*
X140403Y116651D01*
X140591Y116573D01*
Y104673D01*
X138654Y102735D01*
X138192Y102927D01*
Y116573D01*
X138380Y116651D01*
X138852Y117123D01*
X139108Y117741D01*
Y118410D01*
X138852Y119028D01*
X138380Y119501D01*
X137762Y119757D01*
X137093D01*
X136475Y119501D01*
X136002Y119028D01*
X135746Y118410D01*
Y117741D01*
X136002Y117123D01*
X136475Y116651D01*
X136662Y116573D01*
Y102244D01*
X134727Y100308D01*
X134265Y100499D01*
Y116497D01*
X134452Y116575D01*
X134925Y117048D01*
X135181Y117666D01*
Y118334D01*
X134925Y118952D01*
X134452Y119425D01*
X133834Y119681D01*
X133166D01*
X132548Y119425D01*
X132075Y118952D01*
X131819Y118334D01*
Y117666D01*
X132075Y117048D01*
X132548Y116575D01*
X132735Y116497D01*
Y90961D01*
X132460Y90816D01*
X132235Y90782D01*
X128437Y94580D01*
X128106Y94801D01*
X127716Y94879D01*
X122697D01*
X122291Y95285D01*
X121673Y95541D01*
X121004D01*
X120387Y95285D01*
X120004Y94903D01*
X119386D01*
Y98934D01*
X116614D01*
Y95972D01*
X116114Y95764D01*
X116100Y95779D01*
X115482Y96035D01*
X114813D01*
X114374Y95853D01*
X113874Y96111D01*
Y100115D01*
X99882D01*
Y81792D01*
X113874D01*
Y89056D01*
X114374Y89240D01*
X114941Y89005D01*
X115609D01*
X115881Y89117D01*
X116270Y89040D01*
X116614D01*
Y86910D01*
Y82973D01*
X119386D01*
Y84942D01*
X119886Y85020D01*
X119907Y84970D01*
X120380Y84497D01*
X120567Y84419D01*
Y80811D01*
X119257Y79501D01*
X118795Y79692D01*
Y81217D01*
X116614D01*
Y79036D01*
X118139D01*
X118330Y78574D01*
X116152Y76396D01*
X115572Y76522D01*
X115435Y76854D01*
X114962Y77327D01*
X114478Y77528D01*
Y78445D01*
X114858D01*
Y81217D01*
X98897D01*
Y78555D01*
X97189D01*
X97141Y79036D01*
X97141Y79055D01*
Y81217D01*
X94960D01*
Y79463D01*
X94460Y79256D01*
X85282Y88435D01*
X85034Y88600D01*
X84741Y88659D01*
X75239D01*
X75161Y88846D01*
X74688Y89319D01*
X74071Y89575D01*
X73402D01*
X72784Y89319D01*
X72311Y88846D01*
X72055Y88228D01*
Y87560D01*
X72311Y86942D01*
X72412Y86840D01*
X72205Y86340D01*
X70771D01*
X65045Y92067D01*
X65264Y92554D01*
X65744D01*
X66362Y92810D01*
X66835Y93283D01*
X67091Y93901D01*
Y94475D01*
X71700Y99084D01*
X80367D01*
X80373Y99077D01*
X80704Y98856D01*
X81094Y98778D01*
X89616D01*
X90022Y98373D01*
X90640Y98117D01*
X91308D01*
X91926Y98373D01*
X92399Y98846D01*
X92655Y99464D01*
Y100132D01*
X92399Y100750D01*
X91926Y101223D01*
X91308Y101479D01*
X90640D01*
X90022Y101223D01*
X89616Y100818D01*
X81516D01*
X81510Y100824D01*
X81179Y101045D01*
X80789Y101123D01*
X71277D01*
X70887Y101045D01*
X70556Y100824D01*
X65649Y95916D01*
X65372D01*
X63782Y97506D01*
Y102545D01*
X63704Y102935D01*
X63483Y103266D01*
X60703Y106047D01*
X60894Y106509D01*
X65511D01*
X65843Y106177D01*
X66461Y105921D01*
X67130D01*
X67748Y106177D01*
X68153Y106582D01*
X89409D01*
X91031Y104960D01*
Y104387D01*
X91287Y103769D01*
X91760Y103296D01*
X92378Y103040D01*
X93046D01*
X93664Y103296D01*
X94137Y103769D01*
X94393Y104387D01*
Y105056D01*
X94137Y105674D01*
X93664Y106146D01*
X93046Y106402D01*
X92473D01*
X90552Y108323D01*
X90221Y108544D01*
X89831Y108622D01*
X68153D01*
X67748Y109027D01*
X67130Y109283D01*
X66461D01*
X65843Y109027D01*
X65370Y108554D01*
X65368Y108548D01*
X48150D01*
X47760Y108470D01*
X47429Y108249D01*
X34686Y95506D01*
X34224Y95697D01*
Y98809D01*
X31452D01*
Y94659D01*
Y90722D01*
Y86785D01*
Y82848D01*
X33163D01*
X33384Y82354D01*
X33189Y82107D01*
X28712D01*
Y99990D01*
X14720D01*
Y81667D01*
X23352D01*
X23642Y81167D01*
X23599Y81092D01*
X13735D01*
Y78321D01*
X14061D01*
Y63117D01*
X14119Y62824D01*
X14285Y62576D01*
X24990Y51872D01*
X25238Y51706D01*
X25530Y51648D01*
X43189D01*
X43481Y51706D01*
X43729Y51872D01*
X49429Y57571D01*
X49916Y57351D01*
Y55492D01*
X48583D01*
Y50071D01*
X53520D01*
X58457D01*
Y55492D01*
X57123D01*
Y57539D01*
X56946Y58429D01*
X56443Y59183D01*
X55689Y59687D01*
X54799Y59864D01*
X54020D01*
Y55276D01*
X53020D01*
Y59864D01*
X52429D01*
X52208Y60350D01*
X55180Y63322D01*
X57561D01*
X57744Y62898D01*
Y62779D01*
X57744D01*
Y60402D01*
X65831D01*
Y60816D01*
X69986D01*
X70068Y60618D01*
X70541Y60145D01*
X71159Y59889D01*
X71828D01*
X72446Y60145D01*
X72918Y60618D01*
X73175Y61236D01*
Y61905D01*
X72918Y62523D01*
X72598Y62843D01*
X72805Y63343D01*
X104946D01*
X105239Y63402D01*
X105487Y63567D01*
X121873Y79953D01*
X122038Y80201D01*
X122097Y80494D01*
Y84419D01*
X122284Y84497D01*
X122757Y84970D01*
X123013Y85588D01*
Y85666D01*
X123513Y85873D01*
X124215Y85171D01*
Y74988D01*
X124028Y74910D01*
X123555Y74437D01*
X123299Y73819D01*
Y73150D01*
X123555Y72532D01*
X124028Y72060D01*
X124646Y71804D01*
X125314D01*
X125932Y72060D01*
X126405Y72532D01*
X126661Y73150D01*
Y73819D01*
X126405Y74437D01*
X125932Y74910D01*
X125745Y74988D01*
Y85488D01*
X125687Y85780D01*
X125521Y86028D01*
X122864Y88685D01*
X122867Y88748D01*
X123023Y89185D01*
X126402D01*
X127687Y87899D01*
Y72270D01*
X127281Y71865D01*
X127026Y71247D01*
Y70578D01*
X127281Y69960D01*
X127754Y69487D01*
X128372Y69231D01*
X129041D01*
X129659Y69487D01*
X129811Y69640D01*
X130138Y69955D01*
X130464Y69640D01*
X130617Y69487D01*
X131235Y69231D01*
X131903D01*
X132235Y69369D01*
X132735Y69048D01*
Y67817D01*
X125683Y60765D01*
X104479D01*
X104479Y60765D01*
X104187Y60707D01*
X103939Y60541D01*
X101189Y57790D01*
X100339Y58281D01*
X99210Y58584D01*
X98042D01*
X96913Y58281D01*
X95902Y57697D01*
X95076Y56871D01*
X94491Y55859D01*
X94189Y54731D01*
Y53562D01*
X94491Y52434D01*
X95076Y51422D01*
X95902Y50596D01*
X96913Y50012D01*
X98042Y49710D01*
X99210D01*
X100339Y50012D01*
X101350Y50596D01*
X102176Y51422D01*
X102761Y52434D01*
X103063Y53562D01*
Y54731D01*
X102761Y55859D01*
X102270Y56709D01*
X104796Y59235D01*
X125447D01*
X125654Y58735D01*
X121830Y54911D01*
X118763D01*
X118509Y55859D01*
X117924Y56871D01*
X117098Y57697D01*
X116087Y58281D01*
X114958Y58584D01*
X113790D01*
X112661Y58281D01*
X111650Y57697D01*
X110824Y56871D01*
X110239Y55859D01*
X109937Y54731D01*
Y53562D01*
X110239Y52434D01*
X110824Y51422D01*
X111650Y50596D01*
X112661Y50012D01*
X113790Y49710D01*
X114958D01*
X116087Y50012D01*
X117098Y50596D01*
X117924Y51422D01*
X118509Y52434D01*
X118763Y53382D01*
X122147D01*
X122439Y53440D01*
X122687Y53606D01*
X134273Y65192D01*
X134735Y65001D01*
Y54982D01*
X127018Y47265D01*
X97500D01*
X97500Y47265D01*
X97207Y47207D01*
X96959Y47041D01*
X96959Y47041D01*
X92454Y42536D01*
X91336Y42836D01*
X90168D01*
X89039Y42533D01*
X88028Y41949D01*
X87201Y41123D01*
X86617Y40111D01*
X86315Y38983D01*
Y37814D01*
X86617Y36686D01*
X87201Y35674D01*
X88028Y34848D01*
X89039Y34264D01*
X90168Y33962D01*
X91336D01*
X92465Y34264D01*
X93476Y34848D01*
X94302Y35674D01*
X94887Y36686D01*
X95189Y37814D01*
Y38983D01*
X94887Y40111D01*
X94302Y41123D01*
X93753Y41672D01*
X97817Y45735D01*
X110001D01*
X110192Y45273D01*
X107959Y43041D01*
X107793Y42793D01*
X107306Y42776D01*
X107084Y42836D01*
X105916D01*
X104787Y42533D01*
X103776Y41949D01*
X102950Y41123D01*
X102365Y40111D01*
X102063Y38983D01*
Y37814D01*
X102365Y36686D01*
X102950Y35674D01*
X103776Y34848D01*
X104787Y34264D01*
X105916Y33962D01*
X107084D01*
X108213Y34264D01*
X109224Y34848D01*
X110050Y35674D01*
X110635Y36686D01*
X110937Y37814D01*
Y38983D01*
X110635Y40111D01*
X110050Y41123D01*
X109224Y41949D01*
X109467Y42386D01*
X111817Y44735D01*
X126850D01*
X127041Y44273D01*
X124811Y42042D01*
X123961Y42533D01*
X122832Y42836D01*
X121664D01*
X120535Y42533D01*
X119524Y41949D01*
X118698Y41123D01*
X118113Y40111D01*
X117811Y38983D01*
Y37814D01*
X118113Y36686D01*
X118698Y35674D01*
X119524Y34848D01*
X120535Y34264D01*
X121664Y33962D01*
X122832D01*
X123961Y34264D01*
X124972Y34848D01*
X125798Y35674D01*
X126383Y36686D01*
X126685Y37814D01*
Y38983D01*
X126383Y40111D01*
X125892Y40961D01*
X137273Y52342D01*
X137735Y52151D01*
Y43317D01*
X125443Y31024D01*
X98361D01*
X98068Y30966D01*
X97820Y30800D01*
X97820Y30800D01*
X93314Y26294D01*
X92465Y26785D01*
X91336Y27088D01*
X90168D01*
X89039Y26785D01*
X88028Y26201D01*
X87201Y25375D01*
X86617Y24363D01*
X86315Y23235D01*
Y22066D01*
X86617Y20938D01*
X87201Y19926D01*
X88028Y19100D01*
X89039Y18516D01*
X90168Y18214D01*
X91336D01*
X92465Y18516D01*
X93476Y19100D01*
X94302Y19926D01*
X94887Y20938D01*
X95189Y22066D01*
Y23235D01*
X94887Y24363D01*
X94396Y25213D01*
X98677Y29495D01*
X111609D01*
X111801Y29033D01*
X109063Y26294D01*
X108213Y26785D01*
X107084Y27088D01*
X105916D01*
X104787Y26785D01*
X103776Y26201D01*
X102950Y25375D01*
X102365Y24363D01*
X102063Y23235D01*
Y22066D01*
X102365Y20938D01*
X102950Y19926D01*
X103776Y19100D01*
X104787Y18516D01*
X105916Y18214D01*
X107084D01*
X108213Y18516D01*
X109224Y19100D01*
X110050Y19926D01*
X110635Y20938D01*
X110937Y22066D01*
Y23235D01*
X110635Y24363D01*
X110144Y25213D01*
X113166Y28235D01*
X125001D01*
X125192Y27773D01*
X124115Y26696D01*
X123961Y26785D01*
X122832Y27088D01*
X121664D01*
X120535Y26785D01*
X119524Y26201D01*
X118698Y25375D01*
X118113Y24363D01*
X117811Y23235D01*
Y22066D01*
X118113Y20938D01*
X118698Y19926D01*
X119524Y19100D01*
X120535Y18516D01*
X121664Y18214D01*
X122832D01*
X123961Y18516D01*
X124972Y19100D01*
X125798Y19926D01*
X126383Y20938D01*
X126685Y22066D01*
Y23235D01*
X126383Y24363D01*
X125798Y25375D01*
X125377Y25796D01*
X141041Y41459D01*
X141041Y41459D01*
X141207Y41707D01*
X141265Y42000D01*
Y95183D01*
X161539Y115458D01*
X161705Y115706D01*
X161763Y115999D01*
Y116573D01*
X161951Y116651D01*
X162424Y117123D01*
X162680Y117741D01*
Y118410D01*
X162424Y119028D01*
X161951Y119501D01*
X161333Y119757D01*
D02*
G37*
G36*
X118795Y102871D02*
X116614D01*
Y100689D01*
X118795D01*
Y102871D01*
D02*
G37*
G36*
X97141D02*
X94960D01*
Y100689D01*
X97141D01*
Y102871D01*
D02*
G37*
G36*
X33633Y102746D02*
X31452D01*
Y100565D01*
X33633D01*
Y102746D01*
D02*
G37*
G36*
X11979D02*
X9798D01*
Y100565D01*
X11979D01*
Y102746D01*
D02*
G37*
G36*
X164457Y102028D02*
X160020D01*
Y96606D01*
X164457D01*
Y102028D01*
D02*
G37*
G36*
X159020D02*
X154583D01*
Y96606D01*
X159020D01*
Y102028D01*
D02*
G37*
G36*
X97141Y98934D02*
X94370D01*
Y95496D01*
X93870D01*
Y94406D01*
X97641D01*
Y95496D01*
X97141D01*
Y96753D01*
Y98934D01*
D02*
G37*
G36*
X11979Y98809D02*
X9208D01*
Y95372D01*
X8708D01*
Y94282D01*
X12479D01*
Y95372D01*
X11979D01*
Y96628D01*
Y98809D01*
D02*
G37*
G36*
X97641Y93406D02*
X93870D01*
Y92437D01*
X97641D01*
Y93406D01*
D02*
G37*
G36*
X12479Y93282D02*
X8708D01*
Y92313D01*
X12479D01*
Y93282D01*
D02*
G37*
G36*
X97641Y91437D02*
X93870D01*
Y90469D01*
X97641D01*
Y91437D01*
D02*
G37*
G36*
X12479Y91313D02*
X8708D01*
Y90345D01*
X12479D01*
Y91313D01*
D02*
G37*
G36*
X164457Y95606D02*
X159520D01*
X154583D01*
Y90185D01*
X155916D01*
Y88039D01*
X156093Y87150D01*
X156597Y86396D01*
X157351Y85892D01*
X158240Y85715D01*
X159020D01*
Y90303D01*
X160020D01*
Y85715D01*
X160799D01*
X161689Y85892D01*
X162443Y86396D01*
X162946Y87150D01*
X163123Y88039D01*
Y90185D01*
X164457D01*
Y95606D01*
D02*
G37*
G36*
X155795Y85776D02*
X151752D01*
Y84587D01*
X155795D01*
Y85776D01*
D02*
G37*
G36*
X172331D02*
X168287D01*
Y84587D01*
X172331D01*
Y85776D01*
D02*
G37*
G36*
X150752D02*
X146709D01*
Y84587D01*
X150752D01*
Y85776D01*
D02*
G37*
G36*
X167287D02*
X163244D01*
Y84587D01*
X167287D01*
Y85776D01*
D02*
G37*
G36*
X97641Y89469D02*
X93870D01*
Y88379D01*
X94370D01*
Y82973D01*
X97141D01*
Y84942D01*
Y88379D01*
X97641D01*
Y89469D01*
D02*
G37*
G36*
X12479Y89345D02*
X8708D01*
Y88254D01*
X9208D01*
Y82848D01*
X11979D01*
Y84817D01*
Y88254D01*
X12479D01*
Y89345D01*
D02*
G37*
G36*
X155795Y83587D02*
X151252D01*
X146709D01*
Y82398D01*
Y82091D01*
X151252D01*
X155795D01*
Y82398D01*
Y83587D01*
D02*
G37*
G36*
X172331D02*
X167787D01*
X163244D01*
Y82398D01*
Y82091D01*
X167787D01*
X172331D01*
Y82398D01*
Y83587D01*
D02*
G37*
G36*
X155795Y81091D02*
X151252D01*
X146709D01*
Y79591D01*
X151252D01*
X155795D01*
Y81091D01*
D02*
G37*
G36*
X172331D02*
X167787D01*
X163244D01*
Y79591D01*
X167787D01*
X172331D01*
Y81091D01*
D02*
G37*
G36*
X11979Y81092D02*
X9798D01*
Y78911D01*
X11979D01*
Y81092D01*
D02*
G37*
G36*
X155795Y78591D02*
X151252D01*
X146709D01*
Y77402D01*
X147209D01*
Y75402D01*
X147209D01*
Y75276D01*
X147209D01*
Y72898D01*
X147209D01*
Y72780D01*
X147209D01*
Y70402D01*
X147209D01*
Y70276D01*
X147209D01*
Y68276D01*
X147209Y67898D01*
X147209Y67398D01*
Y65398D01*
X147209D01*
Y65276D01*
X147209D01*
Y62898D01*
X147209D01*
Y62779D01*
X147209D01*
Y60402D01*
X155295D01*
Y61193D01*
X155310Y61228D01*
Y67228D01*
X155295Y67263D01*
X155295Y67776D01*
X155295Y68276D01*
Y68831D01*
X163391D01*
X163744Y68477D01*
X163744Y67898D01*
X163744Y67354D01*
X163565Y67279D01*
X163406Y66897D01*
Y61397D01*
X163565Y61014D01*
X163744Y60940D01*
Y60402D01*
X171831D01*
Y62779D01*
X171831D01*
Y62898D01*
X171831D01*
Y65276D01*
X171831D01*
Y65398D01*
X171831D01*
Y67398D01*
X171831Y67776D01*
X171831Y68276D01*
Y70276D01*
X171831D01*
Y70402D01*
X171831D01*
Y72780D01*
X171831D01*
Y72898D01*
X171831D01*
Y75276D01*
X171831D01*
Y75402D01*
X171831D01*
Y77402D01*
X172331D01*
Y78591D01*
X167787D01*
X163244D01*
Y77413D01*
X155795D01*
Y78591D01*
D02*
G37*
G36*
X160799Y59864D02*
X160020D01*
Y55276D01*
X159020D01*
Y59864D01*
X158240D01*
X157351Y59687D01*
X156597Y59183D01*
X156093Y58429D01*
X155916Y57539D01*
Y55492D01*
X154583D01*
Y50071D01*
X159520D01*
X164457D01*
Y55492D01*
X163123D01*
Y57539D01*
X162946Y58429D01*
X162443Y59183D01*
X161689Y59687D01*
X160799Y59864D01*
D02*
G37*
G36*
X164457Y49071D02*
X160020D01*
Y43650D01*
X164457D01*
Y49071D01*
D02*
G37*
G36*
X159020D02*
X154583D01*
Y43650D01*
X159020D01*
Y49071D01*
D02*
G37*
G36*
X58457D02*
X54020D01*
Y43650D01*
X58457D01*
Y49071D01*
D02*
G37*
G36*
X53020D02*
X48583D01*
Y43650D01*
X53020D01*
Y49071D01*
D02*
G37*
%LPD*%
G36*
X60162Y102296D02*
Y95103D01*
X60220Y94811D01*
X60386Y94563D01*
X69914Y85035D01*
X70162Y84869D01*
X70455Y84811D01*
X83190D01*
X87234Y80766D01*
Y77607D01*
X86806Y77178D01*
X86648Y76797D01*
X86107D01*
X85998Y77059D01*
X85526Y77532D01*
X85125Y77698D01*
Y81214D01*
X85067Y81507D01*
X84901Y81755D01*
X83608Y83047D01*
X83360Y83213D01*
X83068Y83271D01*
X74699D01*
X74406Y83213D01*
X74158Y83047D01*
X74158Y83047D01*
X68664Y77553D01*
X68498Y77305D01*
X68440Y77013D01*
Y75540D01*
X68252Y75462D01*
X67779Y74989D01*
X67523Y74371D01*
Y73702D01*
X67779Y73084D01*
X68252Y72612D01*
X68870Y72356D01*
X69539D01*
X69651Y72262D01*
X69922Y71973D01*
Y71368D01*
X69985Y71215D01*
X69619Y70825D01*
X68950D01*
X68332Y70570D01*
X67859Y70097D01*
X67770Y69880D01*
X66083D01*
X65831Y70276D01*
Y70402D01*
X65831D01*
X65831Y70776D01*
Y72780D01*
X65831D01*
Y72898D01*
X65831D01*
Y74858D01*
X65903Y75308D01*
X66253Y75464D01*
X66288Y75479D01*
X66447Y75862D01*
Y82229D01*
X66331Y82509D01*
Y83587D01*
X61787D01*
X57244D01*
Y82398D01*
X57252D01*
X57364Y82229D01*
Y76091D01*
X56934Y75750D01*
X56902Y75741D01*
X56842Y75766D01*
X56173D01*
X55555Y75511D01*
X55082Y75038D01*
X54826Y74420D01*
Y74014D01*
X54672Y73688D01*
X54364Y73561D01*
X53944D01*
X53500Y73377D01*
X53000Y73633D01*
Y84202D01*
X52942Y84494D01*
X52776Y84742D01*
X52303Y85215D01*
X52511Y85715D01*
X53020D01*
Y90303D01*
X54020D01*
Y85715D01*
X54799D01*
X55689Y85892D01*
X56443Y86396D01*
X56946Y87150D01*
X57123Y88039D01*
Y90185D01*
X58457D01*
Y95606D01*
X53520D01*
X48583D01*
Y90185D01*
X49916D01*
Y88039D01*
X49937Y87934D01*
X49888Y87819D01*
X49521Y87464D01*
X38957D01*
X38665Y87406D01*
X38416Y87240D01*
X34686Y83509D01*
X34224Y83701D01*
Y87740D01*
X35488D01*
X35781Y87798D01*
X36029Y87964D01*
X48121Y100055D01*
X48583Y99864D01*
Y96606D01*
X53020D01*
Y102028D01*
X50746D01*
X50555Y102489D01*
X52079Y104013D01*
X58445D01*
X60162Y102296D01*
D02*
G37*
G36*
X94304Y77250D02*
X94304Y77250D01*
X94552Y77084D01*
X94845Y77026D01*
X99237D01*
X99530Y77084D01*
X99778Y77250D01*
X100475Y77947D01*
X100641Y78195D01*
X100691Y78445D01*
X104463D01*
X104670Y77945D01*
X104254Y77529D01*
X104067Y77606D01*
X103398D01*
X102780Y77351D01*
X102307Y76878D01*
X102051Y76260D01*
Y75591D01*
X102189Y75259D01*
X101868Y74759D01*
X89849D01*
X89641Y75259D01*
X89656Y75274D01*
X89912Y75892D01*
Y76560D01*
X89656Y77178D01*
X89183Y77651D01*
X88764Y77825D01*
Y81083D01*
X88706Y81376D01*
X88540Y81624D01*
X84047Y86116D01*
X83799Y86282D01*
X83507Y86340D01*
X75457D01*
X75225Y86823D01*
X75424Y87129D01*
X84424D01*
X94304Y77250D01*
D02*
G37*
G36*
X83596Y80897D02*
Y77507D01*
X83442Y77353D01*
X82985Y77200D01*
X82798Y77362D01*
X82494Y77667D01*
X81876Y77923D01*
X81207D01*
X80589Y77667D01*
X80116Y77194D01*
X80038Y77006D01*
X76597D01*
X76305Y76948D01*
X76057Y76782D01*
X76057Y76782D01*
X72447Y73172D01*
X71937Y73384D01*
X71268D01*
X71156Y73477D01*
X70886Y73766D01*
Y74371D01*
X70630Y74989D01*
X70157Y75462D01*
X69969Y75540D01*
Y76696D01*
X75015Y81742D01*
X82751D01*
X83596Y80897D01*
D02*
G37*
G36*
X41209Y84581D02*
X41209Y82898D01*
X41209Y82398D01*
X41209Y80402D01*
X41209Y79902D01*
X41209Y77902D01*
X41209Y77402D01*
X41209Y75402D01*
Y75072D01*
X40855Y74718D01*
X38385D01*
X38307Y74906D01*
X37835Y75379D01*
X37217Y75635D01*
X36548D01*
X35930Y75379D01*
X35457Y74906D01*
X35201Y74288D01*
Y73619D01*
X34861Y73135D01*
X34548D01*
X33930Y72879D01*
X33457Y72406D01*
X33201Y71788D01*
Y71119D01*
X33457Y70502D01*
X33930Y70029D01*
X34548Y69773D01*
X34861D01*
X35201Y69288D01*
Y68619D01*
X34861Y68135D01*
X34548D01*
X33930Y67879D01*
X33457Y67406D01*
X33201Y66788D01*
Y66119D01*
X33457Y65502D01*
X33930Y65029D01*
X34548Y64773D01*
X34861D01*
X35201Y64288D01*
Y63619D01*
X35457Y63002D01*
X35603Y62855D01*
X35396Y62355D01*
X34188D01*
X33895Y62297D01*
X33647Y62131D01*
X33163Y61647D01*
X29701D01*
Y56907D01*
X34244D01*
Y60566D01*
X34505Y60826D01*
X41209D01*
Y60402D01*
X49295D01*
Y62779D01*
X49295D01*
Y62898D01*
X49295D01*
Y65276D01*
X49295D01*
Y65398D01*
X49295D01*
Y67776D01*
X49295D01*
Y67898D01*
X49295D01*
Y70276D01*
X49295Y70276D01*
Y70402D01*
X49295D01*
X49295Y70776D01*
Y72780D01*
X49295D01*
Y72898D01*
X49295D01*
Y74902D01*
X49295Y75276D01*
X49295Y75776D01*
X49295Y77780D01*
X49295Y78280D01*
X49295Y80279D01*
X49295Y80779D01*
X49295Y82780D01*
X49295Y83280D01*
Y83993D01*
X49757Y84184D01*
X50471Y83471D01*
Y69241D01*
X50529Y68949D01*
X50695Y68700D01*
X52297Y67098D01*
X52219Y66911D01*
Y66242D01*
X52475Y65624D01*
X52948Y65151D01*
X53566Y64895D01*
X53883D01*
X54090Y64395D01*
X42872Y53177D01*
X25847D01*
X15590Y63434D01*
Y78321D01*
X19967D01*
Y77200D01*
X19586D01*
X18968Y76944D01*
X18495Y76471D01*
X18239Y75853D01*
Y75184D01*
X18495Y74567D01*
X18968Y74094D01*
X19586Y73838D01*
X20255D01*
X20873Y74094D01*
X21346Y74567D01*
X21602Y75184D01*
Y75853D01*
X21363Y76429D01*
X21438Y76541D01*
X21496Y76834D01*
Y77120D01*
X21993Y77185D01*
X22159Y76937D01*
X22894Y76201D01*
X22894Y76201D01*
X23143Y76036D01*
X23435Y75977D01*
X23435Y75977D01*
X23617D01*
X23794Y75549D01*
X24267Y75076D01*
X24885Y74820D01*
X25554D01*
X26172Y75076D01*
X26645Y75549D01*
X26901Y76167D01*
Y76836D01*
X26645Y77454D01*
X26278Y77821D01*
X26424Y78310D01*
X26431Y78321D01*
X27760D01*
Y77923D01*
X27818Y77631D01*
X27983Y77382D01*
X28719Y76646D01*
X28719Y76646D01*
X28968Y76481D01*
X29260Y76422D01*
X29260Y76422D01*
X34034D01*
X34327Y76481D01*
X34575Y76646D01*
X36124Y78196D01*
X36124Y78196D01*
X36290Y78444D01*
X36348Y78737D01*
X36348Y78737D01*
Y81595D01*
X39688Y84935D01*
X40855D01*
X41209Y84581D01*
D02*
G37*
G36*
X81207Y74560D02*
X81876D01*
X82063Y74638D01*
X83248Y73454D01*
X83496Y73288D01*
X83789Y73230D01*
X105157D01*
X105450Y73288D01*
X105698Y73454D01*
X106543Y74299D01*
X106731Y74221D01*
X107345D01*
X107457Y74082D01*
X107591Y73759D01*
X103741Y69909D01*
X75960D01*
X75769Y70371D01*
X78105Y72707D01*
X78293Y72629D01*
X78961D01*
X79579Y72885D01*
X80052Y73358D01*
X80308Y73976D01*
Y74433D01*
X80324Y74454D01*
X80765Y74740D01*
X80770Y74741D01*
X81207Y74560D01*
D02*
G37*
G36*
X130549Y89584D02*
Y72270D01*
X130464Y72185D01*
X130138Y71870D01*
X129811Y72185D01*
X129726Y72270D01*
Y88322D01*
X129649Y88712D01*
X129428Y89043D01*
X127545Y90925D01*
X127214Y91146D01*
X126824Y91224D01*
X122697D01*
X122291Y91629D01*
X121972Y91762D01*
Y92303D01*
X122291Y92435D01*
X122696Y92840D01*
X127294D01*
X130549Y89584D01*
D02*
G37*
G36*
X104333Y67953D02*
X103966Y67559D01*
X73147D01*
X72901Y67930D01*
X73110Y68380D01*
X104057D01*
X104333Y67953D01*
D02*
G37*
G36*
X113162Y74112D02*
X113305Y73549D01*
X104629Y64873D01*
X72584D01*
X72479Y65351D01*
X72479Y65373D01*
X72948Y65842D01*
X73026Y66029D01*
X104438D01*
X104731Y66088D01*
X104979Y66253D01*
X112911Y74186D01*
X113162Y74112D01*
D02*
G37*
%LPC*%
G36*
X58457Y102028D02*
X54020D01*
Y96606D01*
X58457D01*
Y102028D01*
D02*
G37*
G36*
X66331Y85776D02*
X62287D01*
Y84587D01*
X66331D01*
Y85776D01*
D02*
G37*
G36*
X61287D02*
X57244D01*
Y84587D01*
X61287D01*
Y85776D01*
D02*
G37*
G36*
X28339Y61647D02*
X23796D01*
Y56907D01*
X28339D01*
Y61647D01*
D02*
G37*
%LPD*%
D10*
X49944Y106028D02*
X59279D01*
X33851Y89935D02*
X49944Y106028D01*
X66795Y107602D02*
X89831D01*
X66721Y107528D02*
X66795Y107602D01*
X89831D02*
X92712Y104721D01*
X48150Y107528D02*
X66721D01*
X62762Y97084D02*
Y102545D01*
X59279Y106028D02*
X62762Y102545D01*
X34404Y93782D02*
X48150Y107528D01*
X65410Y94235D02*
Y94436D01*
X62762Y97084D02*
X65410Y94436D01*
X126824Y90204D02*
X128707Y88322D01*
Y70912D02*
Y88322D01*
X131569Y70912D02*
Y90006D01*
X117518Y94093D02*
X117614Y93997D01*
X118086D01*
X118200Y93883D01*
X33224Y89935D02*
X33851D01*
X65410Y94235D02*
X71277Y100103D01*
X33173Y89884D02*
X33224Y89935D01*
X81094Y99798D02*
X90974D01*
X80789Y100103D02*
X81094Y99798D01*
X71277Y100103D02*
X80789D01*
X115644Y90686D02*
X116270Y90060D01*
X115275Y90686D02*
X115644D01*
X116270Y90060D02*
X118080D01*
X121339Y90204D02*
X126824D01*
X115408Y94093D02*
X117518D01*
X121316Y93883D02*
X121339Y93859D01*
X127716D01*
X118200Y93883D02*
X121316D01*
X127716Y93859D02*
X131569Y90006D01*
X118080Y92607D02*
Y93764D01*
X115147Y94354D02*
X115408Y94093D01*
X33277Y93782D02*
X34404D01*
X32838Y91813D02*
Y93782D01*
D16*
X53520Y96106D02*
D03*
Y49571D02*
D03*
X159520Y96106D02*
D03*
Y49571D02*
D03*
D17*
X95755Y93906D02*
D03*
Y91937D02*
D03*
Y89969D02*
D03*
X10593Y93782D02*
D03*
Y91813D02*
D03*
Y89845D02*
D03*
X32838D02*
D03*
X118000Y89969D02*
D03*
Y93906D02*
D03*
Y91937D02*
D03*
X32838Y93782D02*
D03*
Y91813D02*
D03*
X118000Y88000D02*
D03*
X95755Y84063D02*
D03*
Y86032D02*
D03*
Y88000D02*
D03*
Y95874D02*
D03*
Y97843D02*
D03*
X118000D02*
D03*
Y95874D02*
D03*
Y86032D02*
D03*
Y84063D02*
D03*
X10593Y83939D02*
D03*
Y85908D02*
D03*
Y87876D02*
D03*
Y95750D02*
D03*
Y97719D02*
D03*
X32838D02*
D03*
Y95750D02*
D03*
Y87876D02*
D03*
Y85908D02*
D03*
Y83939D02*
D03*
D19*
X20732Y79707D02*
D03*
X105894Y79831D02*
D03*
X14826Y79707D02*
D03*
X109831Y79831D02*
D03*
X24669Y79707D02*
D03*
X113768Y79831D02*
D03*
X28606Y79707D02*
D03*
X22700D02*
D03*
X107862Y79831D02*
D03*
X99988D02*
D03*
X111799D02*
D03*
X103925D02*
D03*
X101957D02*
D03*
Y102075D02*
D03*
X105894D02*
D03*
X103925D02*
D03*
X99988D02*
D03*
X111799D02*
D03*
X113768D02*
D03*
X109831D02*
D03*
X107862D02*
D03*
X26637Y79707D02*
D03*
X18763D02*
D03*
X16795D02*
D03*
Y101951D02*
D03*
X20732D02*
D03*
X18763D02*
D03*
X14826D02*
D03*
X26637D02*
D03*
X28606D02*
D03*
X24669D02*
D03*
X22700D02*
D03*
D20*
X96051Y80126D02*
D03*
Y101780D02*
D03*
X117705Y80126D02*
D03*
Y101780D02*
D03*
X10889Y80002D02*
D03*
Y101656D02*
D03*
X32543Y80002D02*
D03*
Y101656D02*
D03*
D21*
X106878Y90953D02*
D03*
X21716Y90829D02*
D03*
D33*
X24880Y79982D02*
Y81050D01*
X25172Y81342D01*
X33600D01*
X107826Y101845D02*
Y110705D01*
X111121Y114000D02*
X115580D01*
X107826Y110705D02*
X111121Y114000D01*
X111535Y113000D02*
X120000D01*
X109798Y101794D02*
Y111263D01*
X105905Y101744D02*
Y110199D01*
X109798Y111263D02*
X111535Y113000D01*
X105905Y110199D02*
X113782Y118076D01*
X34188Y61590D02*
X45252D01*
X31973Y59376D02*
X34188Y61590D01*
X22700Y104159D02*
X32749Y114208D01*
Y118076D01*
X22700Y101951D02*
Y104159D01*
X24669Y104144D02*
X31860Y111336D01*
X24669Y101951D02*
Y104144D01*
X31860Y111336D02*
X33836D01*
X32655Y110336D02*
X35336D01*
X26637Y101951D02*
Y104317D01*
X32655Y110336D01*
X28606Y101951D02*
Y103783D01*
X34158Y109336D01*
X35821D01*
X44561Y118076D01*
X35488Y88504D02*
X51762Y104778D01*
X58761D01*
X60927Y95103D02*
Y102613D01*
X58761Y104778D02*
X60927Y102613D01*
Y95103D02*
X70455Y85576D01*
X76597Y76241D02*
X81541D01*
X72058Y71702D02*
X76597Y76241D01*
X60022Y71491D02*
X62313D01*
X104946Y64108D02*
X121332Y80494D01*
X69349Y64108D02*
X104946D01*
X71523Y66794D02*
X104438D01*
X113546Y75902D01*
X73461Y69144D02*
X104057D01*
X110815Y75902D01*
X78627Y74310D02*
X78627D01*
X69285Y69144D02*
X73461D01*
X78627Y74310D01*
X69256Y69116D02*
X69285Y69144D01*
X61816Y69116D02*
X69256D01*
X61787Y69087D02*
X61816Y69116D01*
X71419Y66690D02*
X71523Y66794D01*
X61891Y66690D02*
X71419D01*
X61787Y66587D02*
X61891Y66690D01*
X61782Y66581D02*
X61787Y66587D01*
X53906Y66581D02*
X61782D01*
X53900Y66576D02*
X53906Y66581D01*
X61741Y69040D02*
X61787Y69087D01*
X56319Y69040D02*
X61741D01*
X56273Y68994D02*
X56319Y69040D01*
X71483Y61580D02*
X71493Y61571D01*
X61787Y61590D02*
X61797Y61580D01*
X71483D01*
X54863Y64087D02*
X63076D01*
X43189Y52412D02*
X54863Y64087D01*
X113714Y76198D02*
Y79880D01*
X56507Y74085D02*
X64983D01*
X69205Y77013D02*
X74699Y82507D01*
X69205Y74037D02*
Y77013D01*
X84360Y76319D02*
X84573Y76107D01*
X84360Y76319D02*
Y81214D01*
X83068Y82507D02*
X84360Y81214D01*
X74699Y82507D02*
X83068D01*
X20732Y76834D02*
Y79707D01*
X19920Y75519D02*
Y76023D01*
X20732Y76834D01*
X105827Y78021D02*
Y79807D01*
X103732Y75925D02*
X105827Y78021D01*
X36882Y73954D02*
X47238D01*
X25530Y52412D02*
X43189D01*
X14826Y63117D02*
X25530Y52412D01*
X14826Y63117D02*
Y79707D01*
X54165Y68994D02*
X56273D01*
X52236Y70923D02*
X54165Y68994D01*
X52236Y70923D02*
Y84202D01*
X49738Y86700D02*
X52236Y84202D01*
X38957Y86700D02*
X49738D01*
X109904Y77170D02*
Y79127D01*
Y77170D02*
X110815Y76259D01*
Y75902D02*
Y76259D01*
X33600Y81342D02*
X38957Y86700D01*
X24517Y79619D02*
X24880Y79982D01*
X36882Y63954D02*
X45068D01*
X51236Y69241D02*
X53900Y66576D01*
X51236Y69241D02*
Y83788D01*
X113714Y76198D02*
X114009Y75902D01*
X39371Y85700D02*
X49323D01*
X51236Y83788D01*
X35583Y81912D02*
X39371Y85700D01*
X34034Y77187D02*
X35583Y78737D01*
Y81912D01*
X28524Y77923D02*
Y79569D01*
X29260Y77187D02*
X34034D01*
X28524Y77923D02*
X29260Y77187D01*
X34882Y66454D02*
X47034D01*
X54278Y71880D02*
X54564Y71594D01*
X59920D01*
X60022Y71491D01*
X62313D02*
X62653Y71152D01*
X71603Y71702D02*
X72058D01*
X81541Y76241D02*
X83789Y73994D01*
X23435Y76742D02*
X24979D01*
X25220Y76501D01*
X22700Y77478D02*
Y79707D01*
Y77478D02*
X23435Y76742D01*
X83789Y73994D02*
X105157D01*
X107065Y75902D01*
Y76348D01*
X107844Y77126D02*
Y79784D01*
X107065Y76348D02*
X107844Y77126D01*
X44929Y71454D02*
X45231Y71152D01*
X34882Y71454D02*
X44929D01*
X36882Y68954D02*
X45130D01*
X45257Y69081D01*
X31973Y59115D02*
Y59376D01*
X33762Y88504D02*
X35488D01*
X121332Y80494D02*
Y85919D01*
X121330Y85920D02*
X121332Y85919D01*
X124980Y73485D02*
Y85488D01*
X122309Y88159D02*
X124980Y85488D01*
X117797Y88159D02*
X122309D01*
X111500Y45500D02*
X127774D01*
X106500Y40378D02*
X108500Y42379D01*
Y42500D02*
X111500Y45500D01*
X106500Y38399D02*
Y40378D01*
X108500Y42379D02*
Y42500D01*
X145065Y106565D02*
Y117856D01*
X145284Y118076D01*
X127774Y45500D02*
X136500Y54226D01*
Y98000D02*
X145065Y106565D01*
X136500Y54226D02*
Y98000D01*
X122248Y22650D02*
Y23748D01*
X160999Y115999D02*
Y118076D01*
X122248Y23748D02*
X140500Y42000D01*
Y95500D02*
X160999Y115999D01*
X140500Y42000D02*
Y95500D01*
X98626Y54147D02*
X98626D01*
X104479Y60000D01*
X126000D01*
X133500Y67500D01*
Y118000D01*
X149213Y109213D02*
Y118076D01*
X137500Y53650D02*
Y97500D01*
X149213Y109213D01*
X122248Y38399D02*
X137500Y53650D01*
X114374Y54147D02*
X122147D01*
X137427Y101927D02*
Y118076D01*
X134500Y99000D02*
X137427Y101927D01*
X134500Y66500D02*
Y99000D01*
X122147Y54147D02*
X134500Y66500D01*
X153141Y111142D02*
Y118076D01*
X138500Y96500D02*
X153141Y111142D01*
X138500Y43000D02*
Y96500D01*
X125759Y30259D02*
X138500Y43000D01*
X98361Y30259D02*
X125759D01*
X90752Y22650D02*
X98361Y30259D01*
X90752Y38399D02*
Y39752D01*
X97500Y46500D02*
X127335D01*
X90752Y39752D02*
X97500Y46500D01*
X141356Y104356D02*
Y118076D01*
X135500Y54665D02*
Y98500D01*
X141356Y104356D01*
X127335Y46500D02*
X135500Y54665D01*
X157070Y113570D02*
Y118076D01*
X139500Y42500D02*
Y96000D01*
X157070Y113570D01*
X126000Y29000D02*
X139500Y42500D01*
X112849Y29000D02*
X126000D01*
X106500Y22650D02*
X112849Y29000D01*
X99237Y77791D02*
X99935Y78488D01*
X94845Y77791D02*
X99237D01*
X99935Y78488D02*
Y79777D01*
X99988Y79831D01*
X84741Y87894D02*
X94845Y77791D01*
X99990Y116068D02*
X101999Y118076D01*
X99990Y101769D02*
Y116068D01*
X101911Y111262D02*
X105936Y115287D01*
X101911Y101617D02*
Y111262D01*
X103883Y101617D02*
Y110786D01*
X109502Y116405D01*
X111820Y101516D02*
Y111547D01*
X112273Y112000D01*
X122000D01*
X114061Y111000D02*
X122485D01*
X113768Y102075D02*
Y110707D01*
X114061Y111000D01*
X73736Y87894D02*
X84741D01*
X70455Y85576D02*
X83507D01*
X33133Y87876D02*
X33762Y88504D01*
X32838Y87876D02*
X33133D01*
X16795Y101951D02*
Y105496D01*
X20936Y109637D02*
Y118076D01*
X16795Y105496D02*
X20936Y109637D01*
X18763Y105987D02*
X24874Y112098D01*
X18763Y101951D02*
Y105987D01*
X24874Y112098D02*
Y118076D01*
X14826Y101951D02*
Y105326D01*
X17090Y107590D01*
X20732Y101951D02*
Y105232D01*
X28811Y113311D01*
X33836Y111336D02*
X36477Y113977D01*
X35336Y110336D02*
X40624Y115624D01*
X121686Y114686D02*
Y118076D01*
X120000Y113000D02*
X121686Y114686D01*
X105908Y118076D02*
X105936Y118048D01*
Y115287D02*
Y118048D01*
X117644Y116064D02*
Y118180D01*
X115580Y114000D02*
X117644Y116064D01*
X122485Y111000D02*
X129561Y118076D01*
X125585Y118037D02*
X125624Y118076D01*
X125585Y115585D02*
Y118037D01*
X122000Y112000D02*
X125585Y115585D01*
X109502Y118067D02*
X109770Y118336D01*
X109502Y116405D02*
Y118067D01*
X87999Y76458D02*
X88231Y76226D01*
X87999Y76458D02*
Y81083D01*
X83507Y85576D02*
X87999Y81083D01*
X28811Y113311D02*
Y118076D01*
X17090Y107590D02*
Y117984D01*
X36477Y113977D02*
Y118285D01*
X40624Y115624D02*
Y118076D01*
X39668D02*
X40624D01*
X19983D02*
X20936D01*
X27857D02*
X28811D01*
X31794D02*
X32749D01*
X43605D02*
X44561D01*
X23920D02*
X24874D01*
D35*
X159776Y73122D02*
D03*
D36*
X167197Y64147D02*
D03*
D37*
X159520Y90303D02*
D03*
X53520D02*
D03*
Y55276D02*
D03*
X159520D02*
D03*
D38*
X106500Y38399D02*
D03*
X122248Y22650D02*
D03*
X98626Y54147D02*
D03*
X122248Y38399D02*
D03*
X114374Y54147D02*
D03*
X90752Y22650D02*
D03*
Y38399D02*
D03*
X106500Y22650D02*
D03*
D39*
X169683Y90447D02*
D03*
Y87447D02*
D03*
X169002Y54835D02*
D03*
X168942Y57949D02*
D03*
X98592Y94850D02*
D03*
X98466Y97792D02*
D03*
X66795Y107602D02*
D03*
X128707Y70912D02*
D03*
X131569D02*
D03*
X152246Y62673D02*
D03*
X152211Y65251D02*
D03*
X165983Y71213D02*
D03*
X165912Y75123D02*
D03*
X166008Y62747D02*
D03*
Y65325D02*
D03*
X71493Y61571D02*
D03*
X69349Y64108D02*
D03*
X69205Y74037D02*
D03*
X56507Y74085D02*
D03*
X103732Y75925D02*
D03*
X84573Y76107D02*
D03*
X19920Y75519D02*
D03*
X36882Y73954D02*
D03*
X69285Y69144D02*
D03*
X110815Y75902D02*
D03*
X78627Y74310D02*
D03*
X56273Y68994D02*
D03*
X62423Y80608D02*
D03*
X62447Y77696D02*
D03*
X65410Y94235D02*
D03*
X90974Y99798D02*
D03*
X115275Y90686D02*
D03*
X121339Y90204D02*
D03*
X36882Y63954D02*
D03*
X114009Y75902D02*
D03*
X71523Y66794D02*
D03*
X53900Y66576D02*
D03*
X34882Y66454D02*
D03*
X54278Y71880D02*
D03*
X71603Y71702D02*
D03*
X25220Y76501D02*
D03*
X81541Y76241D02*
D03*
X107065Y75902D02*
D03*
X34882Y71454D02*
D03*
X26160Y59223D02*
D03*
X36882Y68954D02*
D03*
X31973Y59277D02*
D03*
X121332Y85922D02*
D03*
X121339Y93860D02*
D03*
X145284Y118076D02*
D03*
X92712Y104721D02*
D03*
X115147Y94354D02*
D03*
X160999Y118076D02*
D03*
X133500Y118000D02*
D03*
X149213Y118076D02*
D03*
X137427D02*
D03*
X153141D02*
D03*
X141356D02*
D03*
X124980Y73485D02*
D03*
X157070Y118076D02*
D03*
X73736Y87894D02*
D03*
X121686Y118076D02*
D03*
X105908D02*
D03*
X117644Y118180D02*
D03*
X101999Y118076D02*
D03*
X129561D02*
D03*
X113782D02*
D03*
X125624D02*
D03*
X109770Y118336D02*
D03*
X88231Y76226D02*
D03*
X40624Y118076D02*
D03*
X36477Y118285D02*
D03*
X28811Y118076D02*
D03*
X64213D02*
D03*
X17090Y117984D02*
D03*
X52427Y118076D02*
D03*
X20936D02*
D03*
X32749D02*
D03*
X44561D02*
D03*
X24874D02*
D03*
X75907Y117984D02*
D03*
X48499Y118076D02*
D03*
X72070D02*
D03*
X68142D02*
D03*
X60284D02*
D03*
X56356D02*
D03*
D40*
X61787Y84087D02*
D03*
X45252D02*
D03*
X61787Y81590D02*
D03*
X45252D02*
D03*
X61787Y79090D02*
D03*
X45252D02*
D03*
X61787Y76591D02*
D03*
X45252D02*
D03*
X61787Y74087D02*
D03*
X45252D02*
D03*
X61787Y71591D02*
D03*
X45252D02*
D03*
X61787Y69087D02*
D03*
X45252D02*
D03*
X61787Y66587D02*
D03*
X45252D02*
D03*
X61787Y64087D02*
D03*
X45252D02*
D03*
X61787Y61590D02*
D03*
X45252D02*
D03*
X167787Y84087D02*
D03*
X151252D02*
D03*
X167787Y81590D02*
D03*
X151252D02*
D03*
X167787Y79090D02*
D03*
X151252D02*
D03*
X167787Y76591D02*
D03*
X151252D02*
D03*
X167787Y74087D02*
D03*
X151252D02*
D03*
X167787Y71591D02*
D03*
X151252D02*
D03*
X167787Y69087D02*
D03*
X151252D02*
D03*
X167787Y66587D02*
D03*
X151252D02*
D03*
X167787Y64087D02*
D03*
X151252D02*
D03*
X167787Y61590D02*
D03*
X151252D02*
D03*
D41*
X26067Y59277D02*
D03*
X31973D02*
D03*
D42*
X152019Y64228D02*
D03*
D43*
X61905Y79045D02*
D03*
M02*
