M48
;Layer_Color=9474304
;FILE_FORMAT=2:5
INCH
;TYPE=PLATED
T01F00S00C0.01181
T02F00S00C0.03000
T03F00S00C0.03150
T04F00S00C0.03346
T05F00S00C0.07874
%
T01
X0132500Y0151000
Y0154000
X0137500
X0141000
Y0150500
X0137500
X0158500Y0147500
X0166000Y0142500
X0176365Y0145366
X0199000Y0142500
X0196083Y0153500
X0217132Y0152321
X0273187Y0144961
X0301500Y0137500
X0315000Y0193000
X0296500Y0193500
Y0196000
X0260500Y0196500
Y0193500
X0260420Y0190121
X0260500Y0187000
Y0184000
X0260000Y0203000
X0247268Y0216000
X0249000Y0238500
Y0241000
X0257500Y0254518
X0243984Y0265032
X0238000Y0261000
X0239000Y0271000
X0202000Y0262500
X0182000Y0261000
X0170000
X0160884Y0254885
X0157500Y0251000
X0165000Y0246000
X0192500Y0234000
X0185542Y0226458
X0182965Y0204812
X0184263Y0202088
X0182954Y0199543
X0184355Y0196945
X0182890Y0194486
X0184105Y0191895
X0179500Y0179500
Y0171000
X0185000Y0160000
X0166000Y0157402
X0217291Y0168065
X0217500Y0194500
X0215939Y0197084
X0217554Y0199543
X0216171Y0202094
X0217635Y0204657
X0228500Y0201500
Y0198500
Y0195500
Y0192500
Y0189500
Y0186500
X0199692Y0193808
X0199692Y0199491
X0197429Y0201967
X0199416Y0204588
X0197002Y0197004
X0215000Y0223000
X0215500Y0238500
X0218000
Y0241000
X0215500
X0285500Y0232000
X0295000Y0242000
X0299000Y0246000
X0282161Y0167500
X0269500Y0157331
X0137500Y0218882
X0131000Y0225000
X0110745Y0219788
X0117307Y0245831
X0120307
X0126500Y0249000
X0130240Y0250079
X0140500Y0252500
X0138500Y0255000
X0145500Y0257069
X0149638Y0255973
X0149500Y0261000
X0149519Y0265019
X0148583Y0268402
X0143189Y0269000
T02
X0101500Y0151500
Y0160000
T03
X0132000Y0183000
X0139500
T04
X0160750Y0173661
X0170750
Y0233661
X0160750
X0150750
X0140750
X0130750
X0120750
X0110750
Y0173661
X0120750
X0130750
X0140750
X0150750
T05
X0107374Y0140374
X0316004
Y0266327
X0107343
M30
