G04*
G04 #@! TF.GenerationSoftware,Altium Limited,Altium Designer,25.8.1 (18)*
G04*
G04 Layer_Physical_Order=1*
G04 Layer_Color=255*
%FSLAX25Y25*%
%MOIN*%
G70*
G04*
G04 #@! TF.SameCoordinates,7BC79302-CBF9-451D-A937-AA54D13297B7*
G04*
G04*
G04 #@! TF.FilePolarity,Positive*
G04*
G01*
G75*
%ADD16R,0.07874X0.04134*%
%ADD17R,0.03150X0.05906*%
%ADD18R,0.02362X0.04134*%
%ADD19R,0.02362X0.03150*%
%ADD20R,0.09843X0.01378*%
%ADD21R,0.01968X0.02362*%
%ADD22R,0.03819X0.05787*%
%ADD23R,0.02362X0.02756*%
%ADD24R,0.01968X0.01870*%
%ADD25R,0.01860X0.01843*%
%ADD26R,0.03189X0.11102*%
%ADD27R,0.05347X0.09843*%
G04:AMPARAMS|DCode=28|XSize=70.87mil|YSize=31.5mil|CornerRadius=7.87mil|HoleSize=0mil|Usage=FLASHONLY|Rotation=90.000|XOffset=0mil|YOffset=0mil|HoleType=Round|Shape=RoundedRectangle|*
%AMROUNDEDRECTD28*
21,1,0.07087,0.01575,0,0,90.0*
21,1,0.05512,0.03150,0,0,90.0*
1,1,0.01575,0.00787,0.02756*
1,1,0.01575,0.00787,-0.02756*
1,1,0.01575,-0.00787,-0.02756*
1,1,0.01575,-0.00787,0.02756*
%
%ADD28ROUNDEDRECTD28*%
%ADD29R,0.02992X0.02835*%
%ADD30R,0.02362X0.01968*%
%ADD31R,0.08661X0.04724*%
%ADD32R,0.25197X0.22835*%
%ADD33R,0.05610X0.01181*%
%ADD34R,0.06614X0.07402*%
%ADD35R,0.07874X0.09843*%
%ADD36R,0.05787X0.03819*%
G04:AMPARAMS|DCode=37|XSize=21.65mil|YSize=49.21mil|CornerRadius=1.95mil|HoleSize=0mil|Usage=FLASHONLY|Rotation=90.000|XOffset=0mil|YOffset=0mil|HoleType=Round|Shape=RoundedRectangle|*
%AMROUNDEDRECTD37*
21,1,0.02165,0.04532,0,0,90.0*
21,1,0.01776,0.04921,0,0,90.0*
1,1,0.00390,0.02266,0.00888*
1,1,0.00390,0.02266,-0.00888*
1,1,0.00390,-0.02266,-0.00888*
1,1,0.00390,-0.02266,0.00888*
%
%ADD37ROUNDEDRECTD37*%
%ADD38R,0.03175X0.05151*%
%ADD39R,0.02029X0.01860*%
%ADD40R,0.02631X0.02648*%
%ADD41R,0.03150X0.02362*%
%ADD42R,0.05544X0.03963*%
%ADD43R,0.03937X0.02165*%
%ADD44R,0.02362X0.02441*%
G04:AMPARAMS|DCode=45|XSize=59.06mil|YSize=17.72mil|CornerRadius=1.95mil|HoleSize=0mil|Usage=FLASHONLY|Rotation=0.000|XOffset=0mil|YOffset=0mil|HoleType=Round|Shape=RoundedRectangle|*
%AMROUNDEDRECTD45*
21,1,0.05906,0.01382,0,0,0.0*
21,1,0.05516,0.01772,0,0,0.0*
1,1,0.00390,0.02758,-0.00691*
1,1,0.00390,-0.02758,-0.00691*
1,1,0.00390,-0.02758,0.00691*
1,1,0.00390,0.02758,0.00691*
%
%ADD45ROUNDEDRECTD45*%
%ADD46R,0.03543X0.03740*%
%ADD47R,0.03150X0.06299*%
%ADD48R,0.08268X0.11811*%
%ADD49R,0.01772X0.05512*%
%ADD50R,0.07874X0.05906*%
%ADD51R,0.05709X0.03937*%
%ADD52R,0.01772X0.02362*%
%ADD53R,0.05472X0.03583*%
%ADD54R,0.02756X0.02362*%
%ADD55R,0.02362X0.04528*%
%ADD56R,0.02441X0.02362*%
%ADD57R,0.06008X0.02559*%
%ADD58R,0.01860X0.02029*%
%ADD59R,0.02559X0.04724*%
%ADD60R,0.02559X0.04331*%
%ADD104C,0.00500*%
%ADD105C,0.01968*%
%ADD106C,0.01000*%
%ADD107C,0.01575*%
%ADD108C,0.00945*%
%ADD109C,0.01181*%
%ADD110C,0.05347*%
%ADD111R,0.05347X0.05347*%
%ADD112C,0.01870*%
%ADD113C,0.09449*%
%ADD114C,0.06000*%
%ADD115C,0.04724*%
%ADD116C,0.02362*%
G36*
X220892Y144607D02*
X222712Y143853D01*
X224349Y142759D01*
X225046Y142062D01*
Y142062D01*
X225381Y141728D01*
X225712Y141397D01*
X226538Y140161D01*
X227228Y138495D01*
X227575Y136749D01*
Y135858D01*
Y39004D01*
X218783D01*
Y37950D01*
X205217D01*
Y39004D01*
X196343D01*
Y38013D01*
X194127D01*
X192911Y39229D01*
Y44816D01*
X210439Y62344D01*
X210440Y62344D01*
X210768Y62835D01*
X210883Y63414D01*
Y68607D01*
X211977D01*
X212331Y68254D01*
Y67925D01*
X212331Y67425D01*
Y65425D01*
X212331D01*
Y65303D01*
X212331D01*
Y62925D01*
X212331D01*
Y62807D01*
X212331D01*
Y60429D01*
X223173D01*
Y62807D01*
X223173D01*
Y62925D01*
X223173D01*
Y65303D01*
X223173D01*
Y65425D01*
X223173D01*
Y67425D01*
X223173Y67803D01*
X223173Y68303D01*
Y70303D01*
X223173D01*
Y70429D01*
X223173D01*
Y72807D01*
X223173D01*
Y72925D01*
X223173D01*
Y75303D01*
X223173D01*
Y75425D01*
X223173D01*
Y77803D01*
X212331D01*
Y77541D01*
X204669D01*
Y77803D01*
X193827D01*
Y75425D01*
X193827D01*
Y75303D01*
X193827D01*
Y72925D01*
X193827D01*
Y72807D01*
X193827D01*
Y70429D01*
X193827D01*
Y70303D01*
X193827D01*
Y67925D01*
X193827D01*
Y67803D01*
X193827D01*
Y65425D01*
X193827D01*
Y65303D01*
X193827D01*
Y62925D01*
X193827D01*
Y62807D01*
X193827D01*
Y60429D01*
X203591D01*
X203782Y59967D01*
X190328Y46513D01*
X190000Y46022D01*
X189884Y45443D01*
X189884Y45443D01*
Y38602D01*
X189884Y38602D01*
X190000Y38023D01*
X190328Y37532D01*
X192430Y35430D01*
X192430Y35430D01*
X192921Y35102D01*
X193500Y34987D01*
X196343D01*
Y33870D01*
X205217D01*
Y34924D01*
X218783D01*
Y33870D01*
X227575D01*
Y31130D01*
X218783D01*
Y30076D01*
X215563D01*
X215563Y30076D01*
X215563Y30076D01*
X205217D01*
Y31130D01*
X196343D01*
Y30013D01*
X173669D01*
X173090Y29898D01*
X172599Y29570D01*
X172599Y29570D01*
X172456Y29427D01*
X172197D01*
X172197Y29427D01*
X172051Y29398D01*
X170319D01*
Y27165D01*
Y24264D01*
X173681D01*
Y26528D01*
X174153Y26843D01*
X174296Y26987D01*
X196343D01*
Y25996D01*
X205217D01*
Y27050D01*
X211256D01*
X211448Y26588D01*
X210519Y25659D01*
X210191Y25168D01*
X210076Y24589D01*
X210076Y24589D01*
Y15216D01*
X206360Y11500D01*
X198116D01*
X197736Y11791D01*
Y16728D01*
X191028D01*
Y11791D01*
X190648Y11500D01*
X190250D01*
Y991D01*
X10212Y991D01*
X9295Y1006D01*
X7500Y1373D01*
X5803Y2066D01*
X4262Y3059D01*
X3597Y3689D01*
X3007Y4360D01*
X2084Y5890D01*
X1449Y7560D01*
X1122Y9316D01*
X1117Y10209D01*
Y17547D01*
X3363D01*
X3539Y17500D01*
X4461D01*
X4637Y17547D01*
X9437D01*
Y19487D01*
X32965D01*
Y17906D01*
X37114D01*
Y25205D01*
X32965D01*
Y22513D01*
X9437D01*
Y24453D01*
X4637D01*
X4461Y24500D01*
X3539D01*
X3363Y24453D01*
X1117D01*
X1117Y135956D01*
X1141Y136772D01*
X1475Y138370D01*
X2086Y139883D01*
X2954Y141265D01*
X3504Y141869D01*
X3504Y141869D01*
X3912Y142242D01*
X4799Y142903D01*
X5747Y143473D01*
X6746Y143946D01*
X7787Y144319D01*
X8860Y144587D01*
X9954Y144748D01*
X11059Y144800D01*
X11611Y144772D01*
X11611Y144772D01*
X130185Y144898D01*
X219430D01*
X220892Y144607D01*
D02*
G37*
G36*
X219000Y69148D02*
X198000D01*
Y77000D01*
X219000D01*
Y69148D01*
D02*
G37*
G36*
Y61587D02*
X213721D01*
Y66670D01*
X219000D01*
Y61587D01*
D02*
G37*
G36*
X204000Y61250D02*
X197500D01*
Y66750D01*
X204000D01*
Y61250D01*
D02*
G37*
G36*
X218783Y25996D02*
X227575D01*
Y9874D01*
Y9167D01*
X227539Y8804D01*
X227392Y8060D01*
X227224Y7363D01*
X226766Y6190D01*
X226151Y5090D01*
X225392Y4085D01*
X224502Y3193D01*
X223499Y2431D01*
X222950Y2122D01*
X222950D01*
X222540Y1848D01*
X221698Y1442D01*
X220791Y1155D01*
X219861Y1002D01*
X219376Y991D01*
X219375Y991D01*
X206750D01*
Y7610D01*
X212659Y13519D01*
X212987Y14010D01*
X213103Y14589D01*
X213103Y14589D01*
Y23962D01*
X216190Y27050D01*
X218783D01*
Y25996D01*
D02*
G37*
%LPC*%
G36*
X129266Y143248D02*
X129266Y143248D01*
X94734D01*
X94734Y143248D01*
X94155Y143132D01*
X93664Y142804D01*
X93664Y142804D01*
X90158Y139298D01*
X89830Y138807D01*
X89802Y138665D01*
X88957D01*
Y135303D01*
X89321D01*
Y133961D01*
X87373Y132013D01*
X85239D01*
X84834Y132181D01*
X84166D01*
X83548Y131925D01*
X83075Y131452D01*
X82819Y130834D01*
Y130166D01*
X83075Y129548D01*
X83548Y129075D01*
X84166Y128819D01*
X84834D01*
X85239Y128987D01*
X88000D01*
X88000Y128987D01*
X88579Y129102D01*
X89070Y129430D01*
X91905Y132265D01*
X92233Y132755D01*
X92348Y133335D01*
X92348Y133335D01*
Y135303D01*
X92713D01*
Y137035D01*
X92742Y137181D01*
X92787Y137211D01*
X93287Y136943D01*
Y135303D01*
X97043D01*
Y136220D01*
X98957D01*
Y135303D01*
X98957Y135303D01*
X98957D01*
X98785Y134866D01*
X96132Y132214D01*
X95966Y131965D01*
X95908Y131673D01*
Y123543D01*
X94319D01*
Y122253D01*
X92721D01*
Y122992D01*
X89280D01*
Y119630D01*
X92721D01*
Y120723D01*
X94319D01*
Y119787D01*
X97681D01*
Y123543D01*
X97438D01*
Y131356D01*
X100163Y134082D01*
X103826D01*
X103926Y133582D01*
X103548Y133425D01*
X103075Y132952D01*
X102819Y132334D01*
Y131666D01*
X103075Y131048D01*
X103548Y130575D01*
X104166Y130319D01*
X104665D01*
X104898Y129845D01*
X99959Y124906D01*
X99793Y124658D01*
X99735Y124366D01*
Y122992D01*
X99279D01*
Y119630D01*
X102720D01*
Y122992D01*
X101265D01*
Y124049D01*
X104249Y127033D01*
X104735Y126813D01*
Y123543D01*
X103819D01*
Y119787D01*
X107181D01*
Y123543D01*
X106265D01*
Y126683D01*
X107497Y127915D01*
X107986Y127941D01*
Y127941D01*
X114596D01*
Y131878D01*
Y136028D01*
X107986D01*
Y135611D01*
X102713D01*
Y138631D01*
X103317Y139235D01*
X120683D01*
X123735Y136183D01*
Y134500D01*
X123793Y134207D01*
X123959Y133959D01*
X125403Y132515D01*
Y129909D01*
Y125972D01*
X132014D01*
Y126072D01*
X142563D01*
X142942Y126147D01*
X143264Y126362D01*
X149911Y133009D01*
X152516D01*
Y131803D01*
X155484D01*
Y135165D01*
X155020D01*
Y136303D01*
X155516D01*
Y139665D01*
X152744D01*
Y136303D01*
X152980D01*
Y135165D01*
X152516D01*
Y134992D01*
X149500D01*
X149121Y134916D01*
X148799Y134701D01*
X148665Y134567D01*
X148165Y134775D01*
Y134866D01*
X147968Y135341D01*
Y135917D01*
X147476D01*
X147436Y135957D01*
X146819Y136213D01*
X146672Y136678D01*
X146674Y136713D01*
X147112Y137005D01*
X147189Y137083D01*
X147968D01*
Y138372D01*
X147998Y138518D01*
X147968Y138664D01*
Y139953D01*
X146878D01*
X146484Y140031D01*
X146091Y139953D01*
X145000D01*
Y139589D01*
X143483D01*
X143149Y140089D01*
X143181Y140166D01*
Y140834D01*
X142925Y141452D01*
X142452Y141925D01*
X141834Y142181D01*
X141166D01*
X140548Y141925D01*
X140075Y141452D01*
X139819Y140834D01*
Y140166D01*
X139963Y139818D01*
Y138075D01*
X140054Y137617D01*
Y136662D01*
X140975D01*
X141476Y136562D01*
X145271D01*
X145475Y136062D01*
X145327Y135917D01*
X145000D01*
Y135341D01*
X144803Y134866D01*
Y134197D01*
X145000Y133722D01*
Y133047D01*
X145675D01*
X146150Y132850D01*
X146241D01*
X146448Y132350D01*
X142152Y128054D01*
X136595D01*
X136388Y128554D01*
X137417Y129584D01*
X139060D01*
X139075Y129548D01*
X139548Y129075D01*
X140166Y128819D01*
X140834D01*
X141452Y129075D01*
X141925Y129548D01*
X142181Y130166D01*
Y130834D01*
X141925Y131452D01*
X141452Y131925D01*
X140834Y132181D01*
X140166D01*
X139548Y131925D01*
X139430Y131807D01*
X136957D01*
X136957Y131807D01*
X136541Y131725D01*
X136531Y131723D01*
X136041Y131997D01*
Y136538D01*
X136018Y136594D01*
X136029Y136654D01*
X135964Y136746D01*
X135898Y137079D01*
X135570Y137570D01*
X135570Y137570D01*
X130336Y142804D01*
X129845Y143132D01*
X129749Y143151D01*
X129266Y143248D01*
D02*
G37*
G36*
X44000Y142265D02*
X43707Y142207D01*
X43459Y142041D01*
X43459Y142041D01*
X40121Y138702D01*
X39524Y138654D01*
X38147Y140031D01*
X37898Y140197D01*
X37606Y140255D01*
X35930D01*
Y141005D01*
X33070D01*
Y137976D01*
Y134995D01*
X33735D01*
Y133862D01*
X33794Y133570D01*
X33959Y133321D01*
X34444Y132837D01*
X34444Y132662D01*
X33973Y132185D01*
X31059Y132185D01*
X31059Y132185D01*
X30681D01*
Y132185D01*
X30559Y132185D01*
X27319D01*
Y132185D01*
X26941D01*
Y132185D01*
X23579D01*
Y130186D01*
X21921D01*
X21629Y130128D01*
X21381Y129962D01*
X8459Y117041D01*
X8293Y116793D01*
X8235Y116500D01*
Y79500D01*
X8293Y79207D01*
X8459Y78959D01*
X23959Y63459D01*
X24207Y63293D01*
X24500Y63235D01*
X40183D01*
X43276Y60142D01*
X43030Y59682D01*
X42787Y59730D01*
X41213D01*
X40710Y59630D01*
X40284Y59346D01*
X40000Y58920D01*
X39900Y58417D01*
Y54448D01*
X39710Y54257D01*
X39333Y53605D01*
X39138Y52877D01*
Y52123D01*
X39333Y51395D01*
X39710Y50743D01*
X40243Y50210D01*
X40895Y49833D01*
X41623Y49638D01*
X42377D01*
X43105Y49833D01*
X43757Y50210D01*
X44290Y50743D01*
X44667Y51395D01*
X44862Y52123D01*
Y52877D01*
X44667Y53605D01*
X44290Y54257D01*
X44100Y54448D01*
Y58417D01*
X44052Y58660D01*
X44513Y58906D01*
X54959Y48459D01*
X55207Y48294D01*
X55500Y48235D01*
X69683D01*
X71122Y46797D01*
X70931Y46335D01*
X70077D01*
Y43579D01*
Y35492D01*
X76423D01*
Y46335D01*
X73464D01*
X73415Y46584D01*
X73249Y46832D01*
X73249Y46832D01*
X71308Y48773D01*
X71499Y49235D01*
X76683D01*
X96237Y29681D01*
X96030Y29181D01*
X95287D01*
Y25819D01*
X99043D01*
Y29181D01*
X97930D01*
Y29835D01*
X97930Y29835D01*
X97872Y30127D01*
X97706Y30375D01*
X81048Y47034D01*
X81331Y47458D01*
X81666Y47319D01*
X82334D01*
X82952Y47575D01*
X83425Y48048D01*
X83681Y48666D01*
Y49334D01*
X83425Y49952D01*
X83020Y50358D01*
Y97078D01*
X88172Y102230D01*
X93892D01*
X94048Y102075D01*
X94666Y101819D01*
X95334D01*
X95952Y102075D01*
X96425Y102548D01*
X96681Y103166D01*
Y103834D01*
X96425Y104452D01*
X95952Y104925D01*
X95334Y105181D01*
X94761D01*
X87706Y112236D01*
X87913Y112736D01*
X94000D01*
X94293Y112794D01*
X94541Y112960D01*
X96009Y114428D01*
X96175Y114676D01*
X96233Y114969D01*
Y115457D01*
X97681D01*
Y119213D01*
X94319D01*
Y115457D01*
X94319D01*
X94375Y114957D01*
X93684Y114265D01*
X87963D01*
X87796Y114480D01*
X88041Y114980D01*
X88736D01*
Y119563D01*
X82444D01*
X82264Y119563D01*
X81944Y119931D01*
Y131820D01*
X81886Y132113D01*
X81720Y132361D01*
X80041Y134040D01*
X79793Y134206D01*
X79500Y134264D01*
X77053D01*
X76559Y134280D01*
Y137721D01*
X74937D01*
X74903Y137888D01*
X74738Y138136D01*
X74152Y138722D01*
X73904Y138888D01*
X73611Y138946D01*
X68102D01*
X67809Y138888D01*
X67561Y138722D01*
X66975Y138136D01*
X66809Y137888D01*
X66768Y137681D01*
X65547D01*
Y136765D01*
X64505D01*
Y137430D01*
X58495D01*
Y137261D01*
X58186Y137111D01*
X57995Y137086D01*
X53041Y142041D01*
X52793Y142207D01*
X52500Y142265D01*
X44000D01*
X44000Y142265D01*
D02*
G37*
G36*
X199000Y142913D02*
X163422D01*
X163043Y142838D01*
X162721Y142623D01*
X160799Y140701D01*
X160584Y140379D01*
X160509Y140000D01*
Y135411D01*
X159883Y134785D01*
X159421Y134977D01*
Y135165D01*
X156453D01*
Y131803D01*
X157024D01*
Y131165D01*
X156287D01*
Y127803D01*
X160437D01*
Y131165D01*
X159007D01*
Y131803D01*
X159421D01*
Y132122D01*
X159613D01*
X159993Y132197D01*
X160314Y132412D01*
X162201Y134299D01*
X162416Y134621D01*
X162492Y135000D01*
Y139199D01*
X162598Y139271D01*
X163098Y139004D01*
Y116106D01*
X169543D01*
Y112651D01*
X168838D01*
X168336Y112551D01*
X167910Y112266D01*
X166843Y111200D01*
X166559Y110774D01*
X166459Y110272D01*
Y109799D01*
X165500D01*
Y104469D01*
X169059D01*
Y104469D01*
X169543Y104430D01*
Y98500D01*
X196000D01*
Y109959D01*
X197473D01*
X197473Y109959D01*
X198052Y110074D01*
X198543Y110402D01*
X198570Y110430D01*
X198898Y110921D01*
X199013Y111500D01*
X198898Y112079D01*
X198570Y112570D01*
X198079Y112898D01*
X197500Y113013D01*
X197362Y112986D01*
X196000D01*
Y115755D01*
X196169Y116185D01*
X196500Y116185D01*
X199585D01*
X199819Y115834D01*
Y115166D01*
X200075Y114548D01*
X200548Y114075D01*
X201166Y113819D01*
X201834D01*
X202452Y114075D01*
X202925Y114548D01*
X203181Y115166D01*
Y115834D01*
X203415Y116185D01*
X205831D01*
Y121909D01*
X196169D01*
Y118079D01*
X196000Y117649D01*
X195669Y117645D01*
X189651Y117579D01*
X189295Y117930D01*
Y124687D01*
X204456D01*
X209907Y119237D01*
X210332Y118953D01*
X210835Y118853D01*
Y118484D01*
X214197D01*
Y121453D01*
X212446D01*
X212319Y121478D01*
X211378D01*
X205928Y126928D01*
X205502Y127213D01*
X205000Y127313D01*
X189295D01*
Y139941D01*
X163550D01*
X163343Y140441D01*
X163833Y140930D01*
X198589D01*
X199196Y140324D01*
X199004Y139862D01*
X196169D01*
Y134138D01*
X205831D01*
Y139862D01*
X201688D01*
Y140226D01*
X201612Y140605D01*
X201397Y140927D01*
X199701Y142623D01*
X199379Y142838D01*
X199000Y142913D01*
D02*
G37*
G36*
X160334Y125699D02*
X159666D01*
X159048Y125443D01*
X158575Y124970D01*
X158319Y124352D01*
Y123683D01*
X158516Y123208D01*
Y121583D01*
X161484D01*
Y123208D01*
X161681Y123683D01*
Y124352D01*
X161425Y124970D01*
X160952Y125443D01*
X160334Y125699D01*
D02*
G37*
G36*
X150000Y121781D02*
X119500D01*
X118921Y121666D01*
X118430Y121338D01*
X118102Y120847D01*
X117987Y120268D01*
X118102Y119689D01*
X118430Y119198D01*
X118921Y118870D01*
X119500Y118754D01*
X150000D01*
X150579Y118870D01*
X151070Y119198D01*
X151398Y119689D01*
X151513Y120268D01*
X151398Y120847D01*
X151070Y121338D01*
X150579Y121666D01*
X150000Y121781D01*
D02*
G37*
G36*
X219236Y117870D02*
X215795D01*
Y117545D01*
X212516D01*
X212370Y117516D01*
X210835D01*
Y114547D01*
X212370D01*
X212516Y114518D01*
X215795D01*
Y114508D01*
X219236D01*
Y117870D01*
D02*
G37*
G36*
X160000Y120496D02*
X159606Y120417D01*
X158516D01*
Y119129D01*
X158487Y118982D01*
Y116000D01*
X158516Y115854D01*
Y114565D01*
X159606D01*
X160000Y114487D01*
X160394Y114565D01*
X161484D01*
Y115854D01*
X161513Y116000D01*
Y118982D01*
X161484Y119129D01*
Y120417D01*
X160394D01*
X160000Y120496D01*
D02*
G37*
G36*
X117500Y116541D02*
X117117Y116383D01*
Y116383D01*
X116876Y116142D01*
X116106D01*
Y112120D01*
X116085Y111915D01*
X116094Y111887D01*
X116082Y111859D01*
Y109513D01*
X115500D01*
X115500Y109513D01*
X114921Y109398D01*
X114430Y109070D01*
X114430Y109070D01*
X107930Y102570D01*
X107602Y102079D01*
X107487Y101500D01*
X107487Y101500D01*
Y91071D01*
X105465Y89049D01*
X105065Y89356D01*
X105160Y89520D01*
X105354Y90246D01*
Y90998D01*
X105160Y91724D01*
X104784Y92375D01*
X104253Y92906D01*
X103602Y93282D01*
X102876Y93476D01*
X102124D01*
X101398Y93282D01*
X100747Y92906D01*
X100216Y92375D01*
X99840Y91724D01*
X99646Y90998D01*
Y90246D01*
X99840Y89520D01*
X100216Y88869D01*
X100747Y88338D01*
X101398Y87962D01*
X102124Y87768D01*
X102876D01*
X103602Y87962D01*
X103766Y88057D01*
X104073Y87657D01*
X102930Y86514D01*
X102602Y86023D01*
X102487Y85444D01*
X102487Y85444D01*
Y80782D01*
X102487Y80782D01*
X102602Y80203D01*
X102930Y79712D01*
X103712Y78930D01*
X103712Y78930D01*
X104203Y78602D01*
X104782Y78487D01*
X104782Y78487D01*
X106209D01*
Y76583D01*
X106331Y76289D01*
X106331Y75425D01*
X106331Y74925D01*
Y72925D01*
X106331D01*
Y72807D01*
X106331D01*
Y70429D01*
X106331D01*
Y70303D01*
X106331D01*
Y67925D01*
X106331D01*
Y67803D01*
X106331D01*
Y65425D01*
X106331D01*
Y65303D01*
X106331D01*
Y62925D01*
X117173D01*
Y63296D01*
X118472D01*
X118575Y63048D01*
X119048Y62575D01*
X119666Y62319D01*
X120334D01*
X120952Y62575D01*
X121425Y63048D01*
X121480Y63181D01*
X121980Y63082D01*
Y39870D01*
X120276D01*
Y39346D01*
X120126Y39246D01*
X119457D01*
X118839Y38990D01*
X118366Y38517D01*
X118110Y37899D01*
Y37231D01*
X118366Y36613D01*
X118839Y36140D01*
X119457Y35884D01*
X120126D01*
X120276Y35784D01*
Y35130D01*
X124819D01*
Y39870D01*
X124020D01*
Y77500D01*
X123942Y77890D01*
X123743Y78187D01*
X123773Y78323D01*
X123962Y78687D01*
X125075D01*
Y78083D01*
X125758D01*
Y75929D01*
X125858Y75427D01*
X126143Y75001D01*
X129456Y71688D01*
Y71665D01*
X129319Y71334D01*
Y70666D01*
X129575Y70048D01*
X129796Y69827D01*
X130001Y69500D01*
X129796Y69173D01*
X129575Y68952D01*
X129319Y68334D01*
Y67666D01*
X129575Y67048D01*
X129796Y66827D01*
X130001Y66500D01*
X129796Y66173D01*
X129575Y65952D01*
X129319Y65334D01*
Y64666D01*
X129575Y64048D01*
X129796Y63827D01*
X130001Y63500D01*
X129796Y63173D01*
X129575Y62952D01*
X129319Y62334D01*
Y61666D01*
X129575Y61048D01*
X129796Y60827D01*
X130001Y60500D01*
X129796Y60173D01*
X129575Y59952D01*
X129319Y59334D01*
Y58666D01*
X129575Y58048D01*
X129796Y57827D01*
X130001Y57500D01*
X129796Y57173D01*
X129575Y56952D01*
X129319Y56334D01*
Y55666D01*
X129575Y55048D01*
X130048Y54575D01*
X130666Y54319D01*
X131334D01*
X131952Y54575D01*
X132425Y55048D01*
X132681Y55666D01*
X132687Y55671D01*
X132742Y55660D01*
X138258D01*
X138529Y55713D01*
X138759Y55867D01*
X138912Y56097D01*
X138966Y56368D01*
Y57750D01*
X138912Y58021D01*
X138792Y58339D01*
X138912Y58656D01*
X138966Y58927D01*
Y60309D01*
X138912Y60580D01*
X138792Y60898D01*
X138912Y61215D01*
X138966Y61486D01*
Y62868D01*
X138912Y63139D01*
X138792Y63457D01*
X138912Y63774D01*
X138966Y64045D01*
Y65427D01*
X138912Y65698D01*
X138792Y66016D01*
X138912Y66333D01*
X138966Y66604D01*
Y67986D01*
X138912Y68257D01*
X138826Y68617D01*
X138984Y69000D01*
Y73062D01*
X138966Y73107D01*
X138912Y73375D01*
X138759Y73605D01*
X138529Y73759D01*
X138258Y73813D01*
X133363D01*
X132994Y73886D01*
X130970D01*
X128384Y76473D01*
Y78083D01*
X129067D01*
Y81917D01*
X128563D01*
X128142Y82106D01*
X128142Y82417D01*
Y88894D01*
X126497D01*
Y90720D01*
X130327D01*
Y94279D01*
X123319D01*
Y90720D01*
X124968D01*
Y88894D01*
X123323D01*
Y82741D01*
X122823Y82534D01*
X118813Y86544D01*
Y91435D01*
X118925Y91548D01*
X119181Y92166D01*
Y92834D01*
X118925Y93452D01*
X118452Y93925D01*
X117834Y94181D01*
X117166D01*
X116548Y93925D01*
X116075Y93452D01*
X115819Y92834D01*
Y92166D01*
X116075Y91548D01*
X116187Y91435D01*
Y86000D01*
X116226Y85803D01*
X115862Y85303D01*
X106707D01*
X106500Y85803D01*
X110070Y89374D01*
X110070Y89374D01*
X110398Y89865D01*
X110513Y90444D01*
X110513Y90444D01*
Y100873D01*
X116127Y106487D01*
X117151D01*
X117957Y105681D01*
X118340Y105522D01*
X118340Y105522D01*
X151563D01*
X151563Y105522D01*
X151946Y105681D01*
X152162Y105896D01*
X153980Y104078D01*
Y81541D01*
X152335D01*
X152117Y82041D01*
X152177Y82106D01*
X152177D01*
X152265Y82547D01*
Y93169D01*
X152106Y93551D01*
X151681Y93977D01*
Y94279D01*
X151208D01*
X151116Y94318D01*
X151116Y94318D01*
X145241D01*
X145149Y94279D01*
X144673Y94279D01*
X144669Y93918D01*
X144673Y93865D01*
X144673Y93823D01*
X144642Y93747D01*
Y91027D01*
X144673Y90951D01*
Y90720D01*
X144769D01*
X144800Y90644D01*
X144800Y90644D01*
X147275Y88169D01*
Y82605D01*
X147358Y82405D01*
Y82106D01*
X147530D01*
X147643Y81931D01*
X147669Y81549D01*
X147530Y81417D01*
X146433D01*
Y80055D01*
X146376Y79917D01*
X146376Y79917D01*
Y78000D01*
X146433Y77863D01*
Y77583D01*
X146618D01*
X146917Y77459D01*
X155459D01*
Y73789D01*
X155306Y73759D01*
X155076Y73605D01*
X154922Y73375D01*
X154868Y73104D01*
Y71722D01*
X154922Y71451D01*
X155043Y71134D01*
X154922Y70816D01*
X154868Y70545D01*
Y69163D01*
X154922Y68892D01*
X155076Y68662D01*
X155306Y68509D01*
X155577Y68455D01*
X161092D01*
X161112Y68459D01*
X163500D01*
X163883Y68617D01*
X164041Y69000D01*
Y71828D01*
X164181Y72166D01*
Y72834D01*
X164041Y73172D01*
Y81000D01*
X163883Y81383D01*
X163500Y81541D01*
X156020D01*
Y104500D01*
X155942Y104890D01*
X155721Y105221D01*
X153604Y107338D01*
X153887Y107621D01*
X154045Y108004D01*
X154045Y108004D01*
Y116000D01*
X153887Y116383D01*
X153504Y116541D01*
X117500D01*
X117500Y116541D01*
D02*
G37*
G36*
X151681Y104279D02*
X144673D01*
Y100721D01*
X151681D01*
Y104279D01*
D02*
G37*
G36*
Y99279D02*
X144673D01*
Y95720D01*
X151681D01*
Y99279D01*
D02*
G37*
G36*
X88377Y97639D02*
X87708D01*
X87090Y97383D01*
X86617Y96910D01*
X86361Y96292D01*
Y95623D01*
X86617Y95006D01*
X87090Y94533D01*
X87708Y94277D01*
X88377D01*
X88994Y94533D01*
X89467Y95006D01*
X89723Y95623D01*
Y96292D01*
X89467Y96910D01*
X88994Y97383D01*
X88377Y97639D01*
D02*
G37*
G36*
X208876Y93476D02*
X208124D01*
X207398Y93282D01*
X206747Y92906D01*
X206216Y92375D01*
X205840Y91724D01*
X205646Y90998D01*
Y90246D01*
X205840Y89520D01*
X206216Y88869D01*
X206747Y88338D01*
X207398Y87962D01*
X208124Y87768D01*
X208876D01*
X209602Y87962D01*
X210253Y88338D01*
X210784Y88869D01*
X211160Y89520D01*
X211354Y90246D01*
Y90998D01*
X211160Y91724D01*
X210784Y92375D01*
X210253Y92906D01*
X209602Y93282D01*
X208876Y93476D01*
D02*
G37*
G36*
X130327Y104279D02*
X123319D01*
Y100721D01*
X130327D01*
Y100938D01*
X130789Y101130D01*
X131503Y100416D01*
Y88894D01*
X129858D01*
Y82106D01*
X134677D01*
Y88894D01*
X133032D01*
Y100732D01*
X132974Y101025D01*
X132808Y101273D01*
X132808Y101273D01*
X131041Y103041D01*
X130793Y103207D01*
X130500Y103265D01*
X130327D01*
Y104279D01*
D02*
G37*
G36*
X98669Y85303D02*
X87827D01*
Y83307D01*
X87827Y82925D01*
X87827Y82425D01*
X87827Y80429D01*
X87827Y79929D01*
X87827Y77925D01*
X87827Y77425D01*
X87827Y75425D01*
X87738Y74962D01*
X87015D01*
X86890Y75264D01*
X86417Y75737D01*
X85799Y75993D01*
X85131D01*
X84513Y75737D01*
X84040Y75264D01*
X83784Y74646D01*
Y73977D01*
X84040Y73360D01*
X84513Y72887D01*
X84913Y72721D01*
X85131Y72628D01*
X85168Y72131D01*
X85082Y71923D01*
Y71254D01*
X85110Y71186D01*
X84813Y70597D01*
X84502Y70468D01*
X84029Y69995D01*
X83773Y69377D01*
Y68709D01*
X84029Y68091D01*
X84502Y67618D01*
X84980Y67420D01*
X85224Y66900D01*
X85174Y66779D01*
Y66110D01*
X84923Y65612D01*
X84438Y65411D01*
X83965Y64938D01*
X83709Y64320D01*
Y63652D01*
X83965Y63034D01*
X84438Y62561D01*
X84685Y62458D01*
X84971Y61843D01*
X84924Y61729D01*
Y61060D01*
X85180Y60443D01*
X85653Y59970D01*
X86271Y59714D01*
X86940D01*
X87558Y59970D01*
X88017Y60429D01*
X98669D01*
Y60630D01*
X101265D01*
X103609Y58286D01*
X103350Y57837D01*
X102876Y57965D01*
X102124D01*
X101398Y57770D01*
X100747Y57394D01*
X100216Y56863D01*
X99840Y56212D01*
X99646Y55486D01*
Y54734D01*
X99840Y54009D01*
X100216Y53358D01*
X100747Y52826D01*
X101398Y52450D01*
X102124Y52256D01*
X102876D01*
X103602Y52450D01*
X104253Y52826D01*
X104784Y53358D01*
X105160Y54009D01*
X105354Y54734D01*
Y55486D01*
X105227Y55961D01*
X105675Y56220D01*
X115235Y46660D01*
Y35500D01*
X115294Y35207D01*
X115459Y34959D01*
X117959Y32459D01*
X117959Y32459D01*
X118207Y32293D01*
X118500Y32235D01*
X127000D01*
X127293Y32293D01*
X127541Y32459D01*
X128993Y33912D01*
X129159Y34160D01*
X129218Y34453D01*
Y35130D01*
X130724D01*
Y36735D01*
X131776D01*
Y35130D01*
X136319D01*
Y39870D01*
X131776D01*
Y38265D01*
X130724D01*
Y39870D01*
X126181D01*
Y35130D01*
X127351D01*
X127549Y34630D01*
X126683Y33765D01*
X118817D01*
X116765Y35817D01*
Y46976D01*
X116707Y47269D01*
X116541Y47517D01*
X116541Y47517D01*
X102842Y61216D01*
X102959Y61806D01*
X103144Y61883D01*
X103617Y62356D01*
X103873Y62973D01*
Y63642D01*
X103617Y64260D01*
X103144Y64733D01*
X102526Y64989D01*
X101858D01*
X101295Y64756D01*
X100882Y64857D01*
X100715Y65341D01*
X100927Y65552D01*
X101183Y66170D01*
Y66839D01*
X101078Y67091D01*
X101461Y67474D01*
X101857Y67310D01*
X102526D01*
X103144Y67566D01*
X103617Y68039D01*
X103873Y68656D01*
Y69325D01*
X103617Y69943D01*
X103144Y70416D01*
X102526Y70672D01*
X101960D01*
X101704Y70930D01*
X101599Y71106D01*
X101610Y71132D01*
Y71801D01*
X101563Y71915D01*
X101900Y72407D01*
X102250D01*
X102868Y72663D01*
X103341Y73136D01*
X103597Y73754D01*
Y74423D01*
X103341Y75041D01*
X102868Y75513D01*
X102250Y75769D01*
X101581D01*
X100963Y75513D01*
X100490Y75041D01*
X100412Y74850D01*
X99023D01*
X98669Y75204D01*
X98669Y75803D01*
X98669Y77803D01*
X98669Y78303D01*
X98669Y80303D01*
X98669Y80803D01*
X98669Y82807D01*
X98669Y83307D01*
Y85303D01*
D02*
G37*
G36*
X208876Y57965D02*
X208124D01*
X207398Y57770D01*
X206747Y57394D01*
X206216Y56863D01*
X205840Y56212D01*
X205646Y55486D01*
Y54734D01*
X205840Y54009D01*
X206216Y53358D01*
X206747Y52826D01*
X207398Y52450D01*
X208124Y52256D01*
X208876D01*
X209602Y52450D01*
X210253Y52826D01*
X210784Y53358D01*
X211160Y54009D01*
X211354Y54734D01*
Y55486D01*
X211160Y56212D01*
X210784Y56863D01*
X210253Y57394D01*
X209602Y57770D01*
X208876Y57965D01*
D02*
G37*
G36*
X163334Y67681D02*
X162666D01*
X162048Y67425D01*
X161575Y66952D01*
X161319Y66334D01*
Y66321D01*
X161092Y66136D01*
X155577D01*
X155306Y66082D01*
X155076Y65928D01*
X154922Y65698D01*
X154868Y65427D01*
Y64045D01*
X154922Y63774D01*
X155043Y63457D01*
X154922Y63139D01*
X154868Y62868D01*
Y61486D01*
X154922Y61215D01*
X155043Y60898D01*
X154922Y60580D01*
X154868Y60309D01*
Y58927D01*
X154922Y58656D01*
X155043Y58339D01*
X154922Y58021D01*
X154868Y57750D01*
Y56368D01*
X154922Y56097D01*
X155043Y55779D01*
X154922Y55462D01*
X154868Y55191D01*
Y53809D01*
X154922Y53538D01*
X155043Y53220D01*
X154922Y52903D01*
X154868Y52632D01*
Y51250D01*
X154922Y50979D01*
X155043Y50661D01*
X154922Y50344D01*
X154868Y50073D01*
Y48691D01*
X154922Y48420D01*
X155043Y48102D01*
X154922Y47785D01*
X154868Y47514D01*
Y46132D01*
X154922Y45861D01*
X155076Y45631D01*
X155306Y45477D01*
X155577Y45423D01*
X161092D01*
X161364Y45477D01*
X161593Y45631D01*
X161747Y45861D01*
X161801Y46132D01*
Y47514D01*
X161747Y47785D01*
X161627Y48102D01*
X161747Y48420D01*
X161801Y48691D01*
Y50073D01*
X161747Y50344D01*
X161627Y50661D01*
X161747Y50979D01*
X161801Y51250D01*
Y51668D01*
X162301Y51970D01*
X162666Y51819D01*
X163334D01*
X163952Y52075D01*
X164425Y52548D01*
X164681Y53166D01*
Y53834D01*
X164425Y54452D01*
X164204Y54673D01*
X163999Y55000D01*
X164204Y55327D01*
X164425Y55548D01*
X164681Y56166D01*
Y56834D01*
X164425Y57452D01*
X164103Y57774D01*
X163975Y58008D01*
X164087Y58411D01*
X164345Y58669D01*
X164601Y59287D01*
Y59956D01*
X164345Y60574D01*
X163905Y61014D01*
X163893Y61243D01*
X163928Y61565D01*
X163952Y61575D01*
X164425Y62048D01*
X164681Y62666D01*
Y63334D01*
X164425Y63952D01*
X164204Y64173D01*
X163999Y64500D01*
X164204Y64827D01*
X164425Y65048D01*
X164681Y65666D01*
Y66334D01*
X164425Y66952D01*
X163952Y67425D01*
X163334Y67681D01*
D02*
G37*
G36*
X180799Y93513D02*
X180220Y93398D01*
X179729Y93070D01*
X179401Y92579D01*
X179286Y92000D01*
Y52222D01*
X179401Y51643D01*
X179729Y51152D01*
X180220Y50824D01*
X180799Y50709D01*
X181378Y50824D01*
X181869Y51152D01*
X182197Y51643D01*
X182313Y52222D01*
Y92000D01*
X182197Y92579D01*
X181869Y93070D01*
X181378Y93398D01*
X180799Y93513D01*
D02*
G37*
G36*
X35287Y59730D02*
X33713D01*
X33210Y59630D01*
X32784Y59346D01*
X32500Y58920D01*
X32400Y58417D01*
Y54448D01*
X32210Y54257D01*
X31833Y53605D01*
X31638Y52877D01*
Y52123D01*
X31833Y51395D01*
X32210Y50743D01*
X32743Y50210D01*
X33395Y49833D01*
X34123Y49638D01*
X34877D01*
X35605Y49833D01*
X36257Y50210D01*
X36790Y50743D01*
X37167Y51395D01*
X37362Y52123D01*
Y52877D01*
X37167Y53605D01*
X36790Y54257D01*
X36600Y54448D01*
Y58417D01*
X36500Y58920D01*
X36216Y59346D01*
X35790Y59630D01*
X35287Y59730D01*
D02*
G37*
G36*
X66423Y46335D02*
X60077D01*
Y43579D01*
Y35492D01*
X66423D01*
Y46335D01*
D02*
G37*
G36*
X56423D02*
X50077D01*
Y43579D01*
Y35492D01*
X56423D01*
Y46335D01*
D02*
G37*
G36*
X46423D02*
X40077D01*
Y43579D01*
Y35492D01*
X46423D01*
Y46335D01*
D02*
G37*
G36*
X36423D02*
X30077D01*
Y43579D01*
Y35492D01*
X36423D01*
Y46335D01*
D02*
G37*
G36*
X26423D02*
X20077D01*
Y43579D01*
Y35492D01*
X26423D01*
Y46335D01*
D02*
G37*
G36*
X16423D02*
X10077D01*
Y39988D01*
Y35492D01*
X16423D01*
Y39988D01*
Y46335D01*
D02*
G37*
G36*
X184177Y39370D02*
X179634D01*
Y34630D01*
X184177D01*
Y35219D01*
X184327Y35319D01*
X184996D01*
X185614Y35575D01*
X186087Y36048D01*
X186343Y36666D01*
Y37334D01*
X186087Y37952D01*
X185614Y38425D01*
X184996Y38681D01*
X184327D01*
X184177Y38781D01*
Y39370D01*
D02*
G37*
G36*
X160000Y113478D02*
X159606Y113400D01*
X158516D01*
Y112111D01*
X158487Y111965D01*
Y109799D01*
X157941D01*
Y104469D01*
X158433D01*
Y92054D01*
X158433Y92054D01*
X158548Y91475D01*
X158876Y90984D01*
X161053Y88807D01*
X161053Y88807D01*
X161544Y88479D01*
X162123Y88364D01*
X166106D01*
Y83949D01*
X166688D01*
Y82773D01*
X166106D01*
Y70671D01*
X166688D01*
Y69773D01*
X166106D01*
Y57671D01*
X166688D01*
Y56273D01*
X166106D01*
Y44171D01*
X166688D01*
Y39799D01*
X166687Y39799D01*
X166783Y39316D01*
X166512Y38824D01*
X163708D01*
Y35176D01*
X164503D01*
Y28445D01*
X161519Y25461D01*
X161298Y25130D01*
X161221Y24740D01*
Y20736D01*
X160559D01*
Y15602D01*
X163921D01*
Y20736D01*
X163260D01*
Y24318D01*
X166244Y27302D01*
X166465Y27633D01*
X166543Y28023D01*
Y35176D01*
X167338D01*
Y35176D01*
X167459D01*
X167959Y34799D01*
Y34547D01*
X168117Y34165D01*
X168500Y34006D01*
X177000D01*
X177383Y34165D01*
X177541Y34547D01*
Y34630D01*
X178272D01*
Y39370D01*
X177541D01*
Y39500D01*
X177383Y39883D01*
X177000Y40041D01*
X170099D01*
X169714Y40426D01*
Y44171D01*
X170295D01*
Y56273D01*
X169714D01*
Y57671D01*
X170295D01*
Y69773D01*
X169714D01*
Y70671D01*
X170295D01*
Y82773D01*
X169714D01*
Y83949D01*
X170295D01*
Y94401D01*
X170328Y94567D01*
X170295Y94733D01*
Y96051D01*
X168961D01*
X168815Y96080D01*
X168811D01*
X168811Y96080D01*
X168665Y96051D01*
X166106D01*
Y91390D01*
X162750D01*
X161459Y92681D01*
Y95809D01*
X161721Y96201D01*
X161959Y96201D01*
X165279D01*
Y101532D01*
X161959D01*
X161721Y101532D01*
X161459Y101923D01*
Y104469D01*
X161500D01*
Y107346D01*
X161513Y107413D01*
X161513Y107413D01*
Y111965D01*
X161484Y112111D01*
Y113400D01*
X160394D01*
X160000Y113478D01*
D02*
G37*
G36*
X87834Y31181D02*
X87166D01*
X86548Y30925D01*
X86075Y30452D01*
X85819Y29834D01*
Y29166D01*
X85883Y29012D01*
X85605Y28596D01*
X83569D01*
X83298Y28542D01*
X83068Y28389D01*
X82914Y28159D01*
X82860Y27888D01*
Y26112D01*
X82914Y25841D01*
X83068Y25611D01*
X83298Y25458D01*
X83569Y25404D01*
X88100D01*
X88371Y25458D01*
X88601Y25611D01*
X88755Y25841D01*
X88809Y26112D01*
Y27564D01*
X88813Y27583D01*
Y28435D01*
X88925Y28548D01*
X89181Y29166D01*
Y29834D01*
X88925Y30452D01*
X88452Y30925D01*
X87834Y31181D01*
D02*
G37*
G36*
X67431Y28596D02*
X62900D01*
X62629Y28542D01*
X62399Y28389D01*
X62245Y28159D01*
X62191Y27888D01*
Y26112D01*
X62245Y25841D01*
X62399Y25611D01*
X62629Y25458D01*
X62900Y25404D01*
X67431D01*
X67629Y25443D01*
X68166Y25221D01*
X68834D01*
X69452Y25476D01*
X69925Y25949D01*
X70181Y26567D01*
Y27236D01*
X69925Y27854D01*
X69452Y28327D01*
X68834Y28583D01*
X68166D01*
X67842Y28449D01*
X67702Y28542D01*
X67431Y28596D01*
D02*
G37*
G36*
X82334Y42181D02*
X81666D01*
X81048Y41925D01*
X80575Y41452D01*
X80319Y40834D01*
Y40261D01*
X78145Y38087D01*
X77924Y37756D01*
X77846Y37365D01*
Y16223D01*
X77440Y15818D01*
X77303Y15486D01*
X76723Y15359D01*
X70123Y21958D01*
X69875Y22124D01*
X69583Y22182D01*
X68140D01*
Y22888D01*
X68086Y23159D01*
X67932Y23389D01*
X67702Y23542D01*
X67431Y23596D01*
X62900D01*
X62629Y23542D01*
X62399Y23389D01*
X62245Y23159D01*
X62191Y22888D01*
Y21112D01*
X62245Y20841D01*
X62399Y20611D01*
X62629Y20458D01*
X62900Y20404D01*
X67431D01*
X67702Y20458D01*
X67932Y20611D01*
X67960Y20653D01*
X69266D01*
X82959Y6959D01*
X83207Y6793D01*
X83500Y6735D01*
X106500D01*
X106793Y6793D01*
X107041Y6959D01*
X113317Y13235D01*
X126000D01*
X126293Y13294D01*
X126541Y13459D01*
X127801Y14719D01*
X127966Y14967D01*
X128024Y15260D01*
Y15504D01*
X129059D01*
Y17492D01*
X131228D01*
Y15775D01*
X137772D01*
Y19948D01*
X138234Y20139D01*
X139079Y19294D01*
Y15602D01*
X142441D01*
Y18717D01*
X143236D01*
X143626Y18794D01*
X143957Y19015D01*
X150753Y25811D01*
X156819D01*
Y24264D01*
X160181D01*
Y29398D01*
X156819D01*
Y27850D01*
X150331D01*
X149941Y27773D01*
X149610Y27552D01*
X142814Y20756D01*
X141441D01*
X141342Y20736D01*
X140521D01*
X138331Y22926D01*
X138000Y23147D01*
X137610Y23224D01*
X132293D01*
X128163Y27355D01*
X127832Y27576D01*
X127442Y27653D01*
X125279D01*
Y29496D01*
X121721D01*
Y23772D01*
X125279D01*
Y25614D01*
X127020D01*
X131150Y21484D01*
X131481Y21263D01*
X131606Y21238D01*
X131557Y20738D01*
X131228D01*
Y19021D01*
X129059D01*
Y21228D01*
X125500D01*
Y15504D01*
X125553D01*
X125776Y15007D01*
X125585Y14765D01*
X113000D01*
X112707Y14706D01*
X112459Y14541D01*
X106183Y8265D01*
X83817D01*
X79359Y12722D01*
X79486Y13303D01*
X79818Y13440D01*
X80291Y13913D01*
X80547Y14531D01*
Y15200D01*
X80291Y15818D01*
X79885Y16223D01*
Y36943D01*
X81761Y38819D01*
X82334D01*
X82952Y39075D01*
X83425Y39548D01*
X83681Y40166D01*
Y40834D01*
X83425Y41452D01*
X82952Y41925D01*
X82334Y42181D01*
D02*
G37*
G36*
X98492Y24721D02*
X95130D01*
Y21280D01*
X98492D01*
Y21319D01*
X98917D01*
X99535Y21575D01*
X100008Y22048D01*
X100264Y22666D01*
Y23334D01*
X100008Y23952D01*
X99535Y24425D01*
X98917Y24681D01*
X98492D01*
Y24721D01*
D02*
G37*
G36*
X191359Y26013D02*
X191359Y26013D01*
X188528D01*
X187948Y25898D01*
X187458Y25570D01*
X187457Y25570D01*
X186096Y24209D01*
X181528D01*
Y19272D01*
X188236D01*
Y22069D01*
X189154Y22987D01*
X190732D01*
X191000Y22719D01*
X191028Y22578D01*
Y19272D01*
X197736D01*
Y24209D01*
X193721D01*
X193582Y24417D01*
X193582Y24417D01*
X192429Y25570D01*
X191938Y25898D01*
X191842Y25917D01*
X191359Y26013D01*
D02*
G37*
G36*
X38847Y31013D02*
X38847Y31013D01*
X4000D01*
X3421Y30898D01*
X2930Y30570D01*
X2602Y30079D01*
X2487Y29500D01*
X2602Y28921D01*
X2930Y28430D01*
X3421Y28102D01*
X4000Y27987D01*
X38220D01*
X38487Y27720D01*
Y25177D01*
X38199Y25176D01*
X38008Y25097D01*
X37819Y25018D01*
X37818Y25017D01*
X37817Y25016D01*
X37739Y24826D01*
X37660Y24635D01*
Y18338D01*
X37819Y17955D01*
X38201Y17797D01*
X45000D01*
X45383Y17955D01*
X45541Y18338D01*
Y24662D01*
X45541Y24663D01*
X45541Y24664D01*
X45462Y24854D01*
X45383Y25045D01*
X45382Y25045D01*
X45381Y25046D01*
X45000Y25203D01*
X44999Y25203D01*
X44998Y25203D01*
X41868Y25191D01*
X41513Y25544D01*
Y28347D01*
X41398Y28926D01*
X41070Y29417D01*
X41070Y29417D01*
X39917Y30570D01*
X39426Y30898D01*
X39330Y30917D01*
X38847Y31013D01*
D02*
G37*
G36*
X119966Y23502D02*
X119298D01*
X118680Y23246D01*
X118207Y22773D01*
X117951Y22155D01*
Y21486D01*
X118013Y21336D01*
X117941Y21228D01*
X117941D01*
Y15504D01*
X121500D01*
Y21228D01*
X121485D01*
X121313Y21486D01*
Y22155D01*
X121057Y22773D01*
X120584Y23246D01*
X119966Y23502D01*
D02*
G37*
G36*
X94713Y29181D02*
X90957D01*
Y27186D01*
X87367Y23596D01*
X83569D01*
X83298Y23542D01*
X83068Y23389D01*
X82914Y23159D01*
X82860Y22888D01*
Y21112D01*
X82914Y20841D01*
X83068Y20611D01*
X83298Y20458D01*
X83569Y20404D01*
X84815D01*
Y18596D01*
X83569D01*
X83298Y18542D01*
X83068Y18389D01*
X82914Y18159D01*
X82860Y17888D01*
Y16112D01*
X82914Y15841D01*
X83068Y15611D01*
X83298Y15458D01*
X83569Y15404D01*
X88100D01*
X88371Y15458D01*
X88601Y15611D01*
X88755Y15841D01*
X88809Y16112D01*
Y17888D01*
X88755Y18159D01*
X88601Y18389D01*
X88371Y18542D01*
X88100Y18596D01*
X86854D01*
Y20404D01*
X88100D01*
X88371Y20458D01*
X88601Y20611D01*
X88755Y20841D01*
X88809Y21112D01*
Y22154D01*
X92473Y25819D01*
X94713D01*
Y29181D01*
D02*
G37*
G36*
X61334Y18681D02*
X60666D01*
X60048Y18425D01*
X59575Y17952D01*
X59319Y17334D01*
Y16666D01*
X59575Y16048D01*
X59980Y15642D01*
Y8681D01*
X59957D01*
Y5319D01*
X63713D01*
Y8681D01*
X62020D01*
Y10309D01*
X62108Y10379D01*
X62520Y10530D01*
X62629Y10458D01*
X62900Y10404D01*
X67431D01*
X67702Y10458D01*
X67751Y10491D01*
X68166Y10319D01*
X68834D01*
X69452Y10575D01*
X69925Y11048D01*
X70181Y11666D01*
Y12334D01*
X69925Y12952D01*
X69452Y13425D01*
X68834Y13681D01*
X68166D01*
X67751Y13510D01*
X67702Y13542D01*
X67431Y13596D01*
X62900D01*
X62629Y13542D01*
X62520Y13470D01*
X62108Y13621D01*
X62020Y13691D01*
Y15309D01*
X62108Y15379D01*
X62520Y15530D01*
X62629Y15458D01*
X62900Y15404D01*
X67431D01*
X67702Y15458D01*
X67932Y15611D01*
X68086Y15841D01*
X68140Y16112D01*
Y17888D01*
X68086Y18159D01*
X67932Y18389D01*
X67702Y18542D01*
X67431Y18596D01*
X62900D01*
X62629Y18542D01*
X62399Y18389D01*
X61952Y18425D01*
X61886Y18453D01*
X61334Y18681D01*
D02*
G37*
G36*
X169941Y20736D02*
X166579D01*
Y15602D01*
X167048D01*
X167160Y15102D01*
X166578Y14520D01*
X156922D01*
X156265Y15177D01*
X156441Y15602D01*
X156441D01*
Y20736D01*
X153079D01*
Y19189D01*
X149921D01*
Y20736D01*
X146559D01*
Y15602D01*
X149921D01*
Y17150D01*
X153079D01*
Y15602D01*
X153792D01*
Y15188D01*
X153870Y14798D01*
X154091Y14467D01*
X155779Y12779D01*
X156110Y12558D01*
X156500Y12480D01*
X167000D01*
X167390Y12558D01*
X167721Y12779D01*
X168981Y14039D01*
X169202Y14370D01*
X169279Y14760D01*
Y15602D01*
X169941D01*
Y20736D01*
D02*
G37*
G36*
X101834Y13681D02*
X101166D01*
X100579Y13438D01*
X99240D01*
Y13575D01*
X95878D01*
Y12071D01*
X95849Y11925D01*
X95878Y11778D01*
Y9425D01*
X99240D01*
Y10411D01*
X100942D01*
X101166Y10319D01*
X101834D01*
X102452Y10575D01*
X102925Y11048D01*
X103181Y11666D01*
Y12334D01*
X102925Y12952D01*
X102452Y13425D01*
X101834Y13681D01*
D02*
G37*
G36*
X93738Y20075D02*
X89563D01*
Y13925D01*
X90405D01*
X90760Y13575D01*
Y13020D01*
X88783D01*
X88755Y13159D01*
X88601Y13389D01*
X88371Y13542D01*
X88100Y13596D01*
X83569D01*
X83298Y13542D01*
X83068Y13389D01*
X82914Y13159D01*
X82860Y12888D01*
Y11112D01*
X82914Y10841D01*
X83068Y10611D01*
X83298Y10458D01*
X83569Y10404D01*
X88100D01*
X88371Y10458D01*
X88601Y10611D01*
X88755Y10841D01*
X88783Y10980D01*
X90760D01*
Y9425D01*
X94122D01*
Y13575D01*
X94093D01*
X93738Y13925D01*
Y20075D01*
D02*
G37*
G36*
X177421Y20736D02*
X174059D01*
Y15602D01*
X174059Y15602D01*
X174059D01*
X174134Y15102D01*
X174006Y14795D01*
Y14126D01*
X174262Y13508D01*
X174735Y13036D01*
X175353Y12780D01*
X176022D01*
X176639Y13036D01*
X177112Y13508D01*
X177368Y14126D01*
Y14795D01*
X177241Y15102D01*
X177421Y15602D01*
X177421D01*
Y20736D01*
D02*
G37*
%LPD*%
G36*
X135500Y136538D02*
Y131500D01*
X133756Y130420D01*
X129209D01*
Y131559D01*
X132222D01*
X132842Y132178D01*
Y133659D01*
X132093Y134407D01*
X125906D01*
Y142681D01*
X135500Y136538D01*
D02*
G37*
G36*
X73197Y134280D02*
X74421D01*
X74471Y134030D01*
X74637Y133782D01*
X75460Y132959D01*
X75460Y132959D01*
X75708Y132793D01*
X76000Y132735D01*
X76000Y132735D01*
X78895D01*
X78980Y132596D01*
X78700Y132096D01*
X74569D01*
X74298Y132042D01*
X74254Y132013D01*
X73239D01*
X72834Y132181D01*
X72166D01*
X71548Y131925D01*
X71075Y131452D01*
X70819Y130834D01*
Y130166D01*
X71075Y129548D01*
X71548Y129075D01*
X72166Y128819D01*
X72834D01*
X73239Y128987D01*
X74254D01*
X74298Y128958D01*
X74569Y128904D01*
X79100D01*
X79372Y128958D01*
X79601Y129111D01*
X79755Y129341D01*
X79809Y129612D01*
Y130946D01*
X80309Y131229D01*
X80415Y131165D01*
Y117135D01*
X80090Y116873D01*
X79601Y116889D01*
X79372Y117042D01*
X79100Y117096D01*
X74569D01*
X74298Y117042D01*
X74068Y116889D01*
X73914Y116659D01*
X73860Y116388D01*
Y114612D01*
X73914Y114341D01*
X74068Y114111D01*
X74298Y113958D01*
X74569Y113904D01*
X79100D01*
X79372Y113958D01*
X79601Y114111D01*
X79755Y114341D01*
X79809Y114612D01*
Y114735D01*
X80051D01*
X80344Y114794D01*
X80592Y114959D01*
X81720Y116087D01*
X81764Y116153D01*
X82264Y116001D01*
Y114980D01*
X85221D01*
X85270Y114731D01*
X85436Y114482D01*
X86399Y113520D01*
X86192Y113020D01*
X71422D01*
X69181Y115261D01*
Y115834D01*
X68925Y116452D01*
X68452Y116925D01*
X67834Y117181D01*
X67166D01*
X66548Y116925D01*
X66142Y116520D01*
X59113D01*
X59086Y116659D01*
X58932Y116889D01*
X58702Y117042D01*
X58431Y117096D01*
X53900D01*
X53628Y117042D01*
X53399Y116889D01*
X53245Y116659D01*
X53191Y116388D01*
Y114612D01*
X53245Y114341D01*
X53399Y114111D01*
X53628Y113958D01*
X53900Y113904D01*
X58431D01*
X58702Y113958D01*
X58932Y114111D01*
X59086Y114341D01*
X59113Y114480D01*
X66142D01*
X66548Y114075D01*
X67166Y113819D01*
X67739D01*
X70227Y111331D01*
X70191Y111085D01*
X70077Y110831D01*
X70077Y110813D01*
Y103579D01*
Y100948D01*
X70076Y100944D01*
X70077Y100941D01*
Y99988D01*
X76423D01*
Y110480D01*
X76423Y110831D01*
X76861Y110980D01*
X86078D01*
X92326Y104732D01*
X92135Y104270D01*
X87750D01*
X87360Y104192D01*
X87029Y103971D01*
X81279Y98221D01*
X81058Y97890D01*
X80980Y97500D01*
Y50358D01*
X80575Y49952D01*
X80319Y49334D01*
Y48666D01*
X80458Y48331D01*
X80034Y48048D01*
X77541Y50541D01*
X77293Y50706D01*
X77000Y50765D01*
X56817D01*
X42041Y65541D01*
X41793Y65706D01*
X41500Y65765D01*
X34817D01*
X28765Y71817D01*
Y99517D01*
X29265Y99669D01*
X29286Y99637D01*
X30964Y97959D01*
X30964Y97959D01*
X31212Y97794D01*
X31504Y97735D01*
X31504Y97735D01*
X48589D01*
X48881Y97794D01*
X49129Y97959D01*
X51158Y99988D01*
X56423D01*
Y110831D01*
X56885Y110922D01*
X57496D01*
X59579Y108840D01*
X59579Y108840D01*
X59827Y108674D01*
X60077Y108624D01*
Y103579D01*
Y99988D01*
X66423D01*
Y110831D01*
X60077D01*
X60077Y110831D01*
Y110831D01*
X59617Y110965D01*
X58354Y112227D01*
X58106Y112393D01*
X57813Y112452D01*
X52992D01*
X51765Y113679D01*
Y120378D01*
X51765Y120378D01*
X51706Y120671D01*
X51541Y120919D01*
X51541Y120919D01*
X51271Y121189D01*
X51478Y121689D01*
X55635D01*
X55852Y121226D01*
X55846Y121189D01*
X55625Y121041D01*
X55459Y120793D01*
X55401Y120500D01*
X55459Y120207D01*
X55625Y119959D01*
X55873Y119793D01*
X56165Y119735D01*
X60000D01*
X60293Y119793D01*
X60541Y119959D01*
X60707Y120207D01*
X60765Y120500D01*
X60707Y120793D01*
X60541Y121041D01*
X60319Y121189D01*
X60313Y121226D01*
X60530Y121689D01*
X69730D01*
X71459Y119959D01*
X71707Y119793D01*
X72000Y119735D01*
X73860D01*
Y119612D01*
X73914Y119341D01*
X74068Y119111D01*
X74298Y118958D01*
X74569Y118904D01*
X79100D01*
X79372Y118958D01*
X79601Y119111D01*
X79755Y119341D01*
X79809Y119612D01*
Y121388D01*
X79755Y121659D01*
X79601Y121889D01*
X79372Y122042D01*
X79100Y122096D01*
X77599D01*
Y123904D01*
X79100D01*
X79372Y123958D01*
X79601Y124111D01*
X79755Y124341D01*
X79809Y124612D01*
Y126388D01*
X79755Y126659D01*
X79601Y126889D01*
X79372Y127042D01*
X79100Y127096D01*
X74569D01*
X74298Y127042D01*
X74068Y126889D01*
X73914Y126659D01*
X73860Y126388D01*
Y124612D01*
X73914Y124341D01*
X74068Y124111D01*
X74298Y123958D01*
X74569Y123904D01*
X76070D01*
Y122096D01*
X74569D01*
X74298Y122042D01*
X74068Y121889D01*
X73914Y121659D01*
X73860Y121388D01*
Y121265D01*
X72317D01*
X70587Y122994D01*
X70339Y123160D01*
X70047Y123218D01*
X65249D01*
X64928Y123718D01*
X65066Y124050D01*
Y124719D01*
X64810Y125337D01*
X64337Y125810D01*
X63719Y126066D01*
X63145D01*
X61029Y128182D01*
Y134570D01*
X64505D01*
Y135235D01*
X65547D01*
Y134319D01*
X68516D01*
Y137416D01*
X73197D01*
Y134280D01*
D02*
G37*
G36*
X56735Y136183D02*
Y132096D01*
X53900D01*
X53628Y132042D01*
X53399Y131889D01*
X52952Y131925D01*
X52886Y131953D01*
X52334Y132181D01*
X51666D01*
X51048Y131925D01*
X50575Y131452D01*
X50319Y130834D01*
Y130166D01*
X50575Y129548D01*
X51048Y129075D01*
X51666Y128819D01*
X52334D01*
X52952Y129075D01*
X53399Y129111D01*
X53628Y128958D01*
X53900Y128904D01*
X58431D01*
X58490Y128915D01*
X58931Y128632D01*
X58990Y128549D01*
Y127759D01*
X59061Y127404D01*
X58956Y127269D01*
X58816Y127144D01*
X58682Y127046D01*
X58431Y127096D01*
X53900D01*
X53628Y127042D01*
X53399Y126889D01*
X53126Y126862D01*
X53090Y126898D01*
X52472Y127154D01*
X51803D01*
X51185Y126898D01*
X50713Y126425D01*
X50457Y125807D01*
Y125138D01*
X50713Y124521D01*
X51185Y124048D01*
X51803Y123792D01*
X52472D01*
X53090Y124048D01*
X53175Y124133D01*
X53399Y124111D01*
X53628Y123958D01*
X53900Y123904D01*
X58431D01*
X58702Y123958D01*
X58932Y124111D01*
X59086Y124341D01*
X59140Y124612D01*
Y126388D01*
X59117Y126503D01*
X59577Y126750D01*
X61703Y124624D01*
Y124050D01*
X61841Y123718D01*
X61520Y123218D01*
X48363D01*
X43985Y127596D01*
Y130905D01*
X49724D01*
Y133755D01*
X50516D01*
X50594Y133567D01*
X51067Y133094D01*
X51685Y132838D01*
X52354D01*
X52971Y133094D01*
X53444Y133567D01*
X53700Y134185D01*
Y134854D01*
X53444Y135472D01*
X52971Y135945D01*
X52354Y136200D01*
X51685D01*
X51067Y135945D01*
X50594Y135472D01*
X50516Y135284D01*
X49724D01*
Y137417D01*
X47370D01*
Y140720D01*
X47864Y140735D01*
X52183D01*
X56735Y136183D01*
D02*
G37*
G36*
X39261Y136754D02*
Y136667D01*
X39276Y136593D01*
Y130905D01*
X42456D01*
Y127279D01*
X42514Y126987D01*
X42680Y126739D01*
X47300Y122119D01*
X47093Y121619D01*
X46072D01*
X45780Y121561D01*
X45532Y121395D01*
X45239Y121102D01*
X45073Y120854D01*
X45015Y120561D01*
Y120095D01*
X44485D01*
X44394Y120095D01*
X43985Y120315D01*
Y122000D01*
X43927Y122293D01*
X43761Y122541D01*
X43513Y122706D01*
X43220Y122765D01*
X43000D01*
X42707Y122706D01*
X42459Y122541D01*
X42294Y122293D01*
X42235Y122000D01*
X42294Y121707D01*
X42456Y121465D01*
Y120315D01*
X42047Y120095D01*
X41956Y120095D01*
X41426D01*
Y122857D01*
X41952Y123075D01*
X42425Y123548D01*
X42681Y124166D01*
Y124834D01*
X42425Y125452D01*
X41952Y125925D01*
X41334Y126181D01*
X40666D01*
X40478Y126103D01*
X38677Y127905D01*
Y130450D01*
X38618Y130743D01*
X38453Y130991D01*
X35265Y134179D01*
Y134995D01*
X35930D01*
Y138726D01*
X37289D01*
X39261Y136754D01*
D02*
G37*
G36*
X35073Y132207D02*
X37147Y130134D01*
Y127588D01*
X37205Y127295D01*
X37371Y127047D01*
X39397Y125022D01*
X39319Y124834D01*
Y124166D01*
X39575Y123548D01*
X39897Y123226D01*
Y120095D01*
X39276D01*
Y113583D01*
X42047D01*
Y116151D01*
X42134Y116215D01*
X42680Y116298D01*
X42928Y116132D01*
X43220Y116074D01*
X43513Y116132D01*
X43761Y116298D01*
X44307Y116215D01*
X44394Y116151D01*
Y113583D01*
X44394Y113583D01*
X44394D01*
X44124Y113206D01*
X43183Y112265D01*
X39329D01*
X36765Y114829D01*
Y124500D01*
X36707Y124793D01*
X36541Y125041D01*
X34427Y127155D01*
Y129503D01*
X34421Y129532D01*
Y131686D01*
X34421Y131737D01*
X34898Y132208D01*
X35073Y132207D01*
D02*
G37*
G36*
X50235Y119541D02*
Y113293D01*
X50293Y113000D01*
X50459Y112752D01*
X50667Y112613D01*
X51950Y111331D01*
X51743Y110831D01*
X50077D01*
Y103579D01*
Y101070D01*
X48272Y99265D01*
X31951D01*
X31777Y99488D01*
X32021Y99988D01*
X36423D01*
Y110831D01*
X30591D01*
Y111843D01*
X33708Y114959D01*
X34735Y115987D01*
X35235Y115780D01*
Y114512D01*
X35293Y114219D01*
X35459Y113971D01*
X38471Y110959D01*
X38719Y110793D01*
X39012Y110735D01*
X40077D01*
Y103579D01*
Y99988D01*
X46423D01*
Y109749D01*
X48541Y111867D01*
X48541Y111867D01*
X48706Y112115D01*
X48765Y112408D01*
Y113583D01*
X49724D01*
Y119285D01*
X50224Y119548D01*
X50235Y119541D01*
D02*
G37*
G36*
X23579Y126657D02*
X26941D01*
Y126657D01*
X27319D01*
Y126657D01*
X29085D01*
X31288Y124455D01*
X31288Y124455D01*
X32939Y122804D01*
X32747Y122343D01*
X31059D01*
Y119913D01*
Y116815D01*
X31080D01*
X31272Y116353D01*
X27459Y112541D01*
X27294Y112293D01*
X27235Y112000D01*
Y71500D01*
X27294Y71207D01*
X27459Y70959D01*
X33192Y65227D01*
X33001Y64765D01*
X24817D01*
X9765Y79817D01*
Y99617D01*
X10077Y99988D01*
X10265Y99988D01*
X11737D01*
Y90038D01*
X11564Y89622D01*
Y88953D01*
X11820Y88335D01*
X12293Y87862D01*
X12911Y87606D01*
X13580D01*
X14198Y87862D01*
X14671Y88335D01*
X14926Y88953D01*
Y89622D01*
X14763Y90016D01*
Y99988D01*
X16423D01*
Y110831D01*
X10265D01*
X10077Y110831D01*
X9765Y111201D01*
Y116183D01*
X22238Y128657D01*
X23579D01*
Y126657D01*
D02*
G37*
%LPC*%
G36*
X33834Y96181D02*
X33166D01*
X32548Y95925D01*
X32075Y95452D01*
X31819Y94834D01*
Y94166D01*
X32075Y93548D01*
X32548Y93075D01*
X32626Y93042D01*
Y92854D01*
X32704Y92464D01*
X32925Y92133D01*
X37397Y87661D01*
X37728Y87440D01*
X38118Y87362D01*
X38642D01*
X39048Y86957D01*
X39666Y86701D01*
X40334D01*
X40952Y86957D01*
X41425Y87430D01*
X41681Y88047D01*
Y88716D01*
X41425Y89334D01*
X40952Y89807D01*
X40334Y90063D01*
X39666D01*
X39048Y89807D01*
X38642Y89402D01*
X38541D01*
X34665Y93277D01*
Y93288D01*
X34925Y93548D01*
X35181Y94166D01*
Y94834D01*
X34925Y95452D01*
X34452Y95925D01*
X33834Y96181D01*
D02*
G37*
G36*
X26941Y122343D02*
X23579D01*
Y121043D01*
X18870D01*
X18870Y121043D01*
X18488Y120885D01*
X18304Y120701D01*
X18087D01*
X18049Y120321D01*
X18060Y120264D01*
X18038Y120211D01*
X18044Y120196D01*
Y114249D01*
X18044Y114249D01*
X18203Y113866D01*
X18203Y113866D01*
X18600Y113469D01*
X18982Y113311D01*
X18982Y113311D01*
X23328D01*
X23711Y113469D01*
X23711Y113469D01*
X26597Y116356D01*
X26756Y116738D01*
X26941Y116815D01*
Y122343D01*
D02*
G37*
%LPD*%
G36*
X26215Y120144D02*
Y116738D01*
X23328Y113852D01*
X18982D01*
X18585Y114249D01*
Y120210D01*
X18579Y120211D01*
X18870Y120502D01*
X25856D01*
X26215Y120144D01*
D02*
G37*
G36*
X153504Y108004D02*
X151563Y106063D01*
X118340D01*
X116623Y107780D01*
Y111859D01*
X117000Y115500D01*
X117500Y116000D01*
X153504D01*
Y108004D01*
D02*
G37*
G36*
X151724Y93169D02*
Y82547D01*
X147874D01*
X147817Y82605D01*
Y88393D01*
X145183Y91027D01*
Y93747D01*
X145241Y93776D01*
X151116D01*
X151724Y93169D01*
D02*
G37*
G36*
X116617Y76583D02*
X106750D01*
Y81700D01*
X116617D01*
Y76583D01*
D02*
G37*
G36*
X138443Y69000D02*
X132594D01*
Y69702D01*
X132241Y70055D01*
X130445D01*
X129997Y70503D01*
Y72944D01*
X131988D01*
X132594Y72339D01*
Y72686D01*
X132577Y73062D01*
X138443D01*
Y69000D01*
D02*
G37*
G36*
X163500D02*
X156000D01*
Y78000D01*
X146917D01*
Y79917D01*
X148000Y81000D01*
X163500D01*
Y69000D01*
D02*
G37*
G36*
X177000Y35000D02*
Y34547D01*
X168500D01*
Y35500D01*
Y37899D01*
Y39500D01*
X177000D01*
Y35000D01*
D02*
G37*
G36*
X45000Y18338D02*
X38201D01*
Y24635D01*
X45000Y24662D01*
Y18338D01*
D02*
G37*
D16*
X223220Y28563D02*
D03*
Y36437D02*
D03*
X200780Y28563D02*
D03*
Y36437D02*
D03*
D17*
X201244Y5500D02*
D03*
X196126D02*
D03*
D18*
X172000Y26831D02*
D03*
X144500D02*
D03*
X158500D02*
D03*
X162240Y18169D02*
D03*
X154760D02*
D03*
X148240D02*
D03*
X140760D02*
D03*
X175740D02*
D03*
X168260D02*
D03*
D19*
X97559Y11500D02*
D03*
X92441D02*
D03*
D20*
X217752Y74114D02*
D03*
Y76614D02*
D03*
Y71618D02*
D03*
Y69114D02*
D03*
X199248Y71618D02*
D03*
Y74114D02*
D03*
Y76614D02*
D03*
Y69114D02*
D03*
X111752Y81618D02*
D03*
Y84114D02*
D03*
Y79114D02*
D03*
Y66614D02*
D03*
X93248D02*
D03*
X111752Y61618D02*
D03*
X93248Y64114D02*
D03*
X111752D02*
D03*
X93248Y61618D02*
D03*
Y81618D02*
D03*
Y79114D02*
D03*
Y84114D02*
D03*
X111752Y74114D02*
D03*
Y76614D02*
D03*
Y69114D02*
D03*
Y71618D02*
D03*
X93248D02*
D03*
Y69114D02*
D03*
Y74114D02*
D03*
Y76614D02*
D03*
X217752Y81618D02*
D03*
Y84114D02*
D03*
Y79114D02*
D03*
Y66614D02*
D03*
X199248D02*
D03*
X217752Y61618D02*
D03*
X199248Y64114D02*
D03*
X217752D02*
D03*
X199248Y61618D02*
D03*
Y81618D02*
D03*
Y79114D02*
D03*
Y84114D02*
D03*
D21*
X157937Y133484D02*
D03*
X154000D02*
D03*
X70969Y136000D02*
D03*
X67032D02*
D03*
D22*
X149768Y85500D02*
D03*
X143232D02*
D03*
X132268D02*
D03*
X125732D02*
D03*
D23*
X105500Y121665D02*
D03*
Y117335D02*
D03*
X96000Y121665D02*
D03*
Y117335D02*
D03*
D24*
X160000Y111965D02*
D03*
Y116000D02*
D03*
Y123018D02*
D03*
Y118982D02*
D03*
X146484Y134482D02*
D03*
Y138518D02*
D03*
D25*
X141484Y138083D02*
D03*
Y134917D02*
D03*
D26*
X168201Y63722D02*
D03*
X180799D02*
D03*
X168201Y90000D02*
D03*
X180799D02*
D03*
X168201Y76722D02*
D03*
X180799D02*
D03*
X168201Y50222D02*
D03*
X180799D02*
D03*
D27*
X33250Y105409D02*
D03*
X53250D02*
D03*
X73250Y40913D02*
D03*
X43250Y105409D02*
D03*
X63250D02*
D03*
X73250D02*
D03*
X23250Y40913D02*
D03*
X13250Y105409D02*
D03*
X23250D02*
D03*
X53250Y40913D02*
D03*
X63250D02*
D03*
X43250D02*
D03*
X33250D02*
D03*
X13250D02*
D03*
D28*
X34500Y55661D02*
D03*
X42000D02*
D03*
D29*
X148429Y79500D02*
D03*
X144571D02*
D03*
X127071Y80000D02*
D03*
X130929D02*
D03*
D30*
X212516Y119968D02*
D03*
Y116032D02*
D03*
D31*
X201000Y137000D02*
D03*
Y119047D02*
D03*
D32*
X176197Y128024D02*
D03*
D33*
X111291Y132968D02*
D03*
X128709Y129032D02*
D03*
X111291Y134937D02*
D03*
Y131000D02*
D03*
Y129032D02*
D03*
X128709Y127063D02*
D03*
Y132968D02*
D03*
Y134937D02*
D03*
Y131000D02*
D03*
X111291Y127063D02*
D03*
D34*
X120000Y131000D02*
D03*
D35*
X102500Y98693D02*
D03*
Y47039D02*
D03*
X208500Y98693D02*
D03*
Y47039D02*
D03*
D36*
X150000Y113732D02*
D03*
Y120268D02*
D03*
X134750D02*
D03*
X119500D02*
D03*
X127125D02*
D03*
X142375D02*
D03*
X119500Y113732D02*
D03*
X127125D02*
D03*
X134750D02*
D03*
X142375D02*
D03*
D37*
X85835Y12000D02*
D03*
Y17000D02*
D03*
Y22000D02*
D03*
X65165Y12000D02*
D03*
Y17000D02*
D03*
Y22000D02*
D03*
Y27000D02*
D03*
X85835D02*
D03*
X56165Y130500D02*
D03*
Y125500D02*
D03*
X76835D02*
D03*
Y120500D02*
D03*
Y115500D02*
D03*
X56165D02*
D03*
X76835Y130500D02*
D03*
X56165Y120500D02*
D03*
D38*
X91650Y17000D02*
D03*
X98350D02*
D03*
D39*
X62990Y136000D02*
D03*
X60010D02*
D03*
D40*
X165523Y37000D02*
D03*
X169477D02*
D03*
D41*
X158362Y129484D02*
D03*
X153638D02*
D03*
D42*
X134500Y18257D02*
D03*
Y25743D02*
D03*
D43*
X187906Y111445D02*
D03*
Y104555D02*
D03*
X176094Y111445D02*
D03*
Y104555D02*
D03*
D44*
X45689Y139000D02*
D03*
X49311D02*
D03*
X93189Y23000D02*
D03*
X78500Y136000D02*
D03*
X74878D02*
D03*
X96811Y23000D02*
D03*
D45*
X158335Y57059D02*
D03*
X135500Y59618D02*
D03*
Y62177D02*
D03*
X158335Y59618D02*
D03*
X135500Y64736D02*
D03*
X158335Y62177D02*
D03*
X135500Y57059D02*
D03*
X158335Y67295D02*
D03*
Y44264D02*
D03*
X135500Y51941D02*
D03*
Y49382D02*
D03*
Y54500D02*
D03*
Y44264D02*
D03*
Y46823D02*
D03*
X158335Y69854D02*
D03*
Y72413D02*
D03*
Y54500D02*
D03*
Y64736D02*
D03*
X135500Y67295D02*
D03*
X158335Y51941D02*
D03*
Y49382D02*
D03*
Y46823D02*
D03*
X135500Y72413D02*
D03*
Y69854D02*
D03*
D46*
X128453Y37500D02*
D03*
X134047D02*
D03*
X139953D02*
D03*
X122547D02*
D03*
X181905Y37000D02*
D03*
X176000D02*
D03*
D47*
X39961Y21555D02*
D03*
X35039D02*
D03*
D48*
X25000Y10138D02*
D03*
X50000D02*
D03*
D49*
X43220Y116839D02*
D03*
X45779Y134161D02*
D03*
X40661D02*
D03*
X43220D02*
D03*
X40661Y116839D02*
D03*
X45779D02*
D03*
X48339D02*
D03*
Y134161D02*
D03*
D50*
X5000Y29500D02*
D03*
Y21000D02*
D03*
D51*
X184882Y14260D02*
D03*
Y21740D02*
D03*
X194382Y14260D02*
D03*
Y21740D02*
D03*
D52*
X157870Y137984D02*
D03*
X154130D02*
D03*
D53*
X85500Y123728D02*
D03*
Y117272D02*
D03*
D54*
X66165Y7000D02*
D03*
X105165Y136984D02*
D03*
X90835D02*
D03*
X92835Y27500D02*
D03*
X100835Y136984D02*
D03*
X95165D02*
D03*
X61835Y7000D02*
D03*
X97165Y27500D02*
D03*
D55*
X29000Y119579D02*
D03*
X25260D02*
D03*
X32740D02*
D03*
X29000Y129421D02*
D03*
X32740D02*
D03*
X25260D02*
D03*
D56*
X19807Y122642D02*
D03*
X101000Y117689D02*
D03*
X91000D02*
D03*
X217516Y119811D02*
D03*
X19807Y119020D02*
D03*
X217516Y116189D02*
D03*
X101000Y121311D02*
D03*
X91000D02*
D03*
D57*
X126823Y97500D02*
D03*
Y107500D02*
D03*
X148177D02*
D03*
Y92500D02*
D03*
X126823Y102500D02*
D03*
Y92500D02*
D03*
X148177Y97500D02*
D03*
Y102500D02*
D03*
D58*
X34500Y139490D02*
D03*
Y136510D02*
D03*
D59*
X119720Y18366D02*
D03*
X127279D02*
D03*
X123500Y26634D02*
D03*
D60*
X167280Y107134D02*
D03*
X159721D02*
D03*
X163500Y98866D02*
D03*
D104*
X154130Y137984D02*
X154000Y137671D01*
X111752Y66360D02*
X111975Y66583D01*
X118439D01*
X118439Y66584D01*
X162721Y56779D02*
X163000Y56500D01*
X158858Y56779D02*
X162721D01*
X158417Y57221D02*
X158858Y56779D01*
X86855Y66445D02*
X86924Y66514D01*
X93179D01*
X93248Y66583D01*
X99462Y66543D02*
X99502Y66504D01*
X93568Y66543D02*
X99462D01*
X93529Y66504D02*
X93568Y66543D01*
X131353Y59000D02*
X131971Y59618D01*
X135500D01*
X131000Y59000D02*
X131353D01*
X85454Y69043D02*
X85474Y69063D01*
X93228D01*
X93248Y69083D01*
X102146Y69037D02*
X102192Y68991D01*
X94107Y69037D02*
X102146D01*
X93248Y68666D02*
X93735D01*
X94107Y69037D01*
X131000Y62000D02*
X131089Y62089D01*
X135411D01*
X135500Y62177D01*
X111646Y69063D02*
X120034D01*
X111583Y69000D02*
X111646Y69063D01*
X120034D02*
X120054Y69043D01*
X162919Y59620D02*
X162920Y59622D01*
X158577Y59620D02*
X162919D01*
X158575Y59622D02*
X158577Y59620D01*
X93247Y71588D02*
X93308Y71527D01*
X86763Y71588D02*
X86764Y71588D01*
X93247D01*
X93308Y71527D02*
X99869D01*
X99929Y71467D01*
X131132Y64868D02*
X135368D01*
X135500Y64736D01*
X131000Y65000D02*
X131132Y64868D01*
X111372Y71590D02*
X118668D01*
X111197Y71415D02*
X111372Y71590D01*
X118668D02*
X118671Y71594D01*
X158417Y62339D02*
X158798Y62719D01*
X162719D02*
X163000Y63000D01*
X158798Y62719D02*
X162719D01*
X97672Y61395D02*
X101582D01*
X116000Y46976D01*
Y35500D02*
Y46976D01*
X86801Y61591D02*
X93244D01*
X86605Y61395D02*
X86801Y61591D01*
X128453Y37500D02*
X134047D01*
X128453Y34453D02*
Y37500D01*
X127000Y33000D02*
X128453Y34453D01*
X116000Y35500D02*
X118500Y33000D01*
X127000D01*
X101010Y63986D02*
X101688Y63308D01*
X102192D01*
X85390Y63986D02*
X101010D01*
X131000Y56000D02*
X132059Y57059D01*
X135500D01*
X43220Y116839D02*
Y122000D01*
X43000D02*
X43220D01*
X56165Y120500D02*
X60000D01*
X119939Y64060D02*
X120000Y64000D01*
X112500Y64060D02*
X119939D01*
X162037Y54065D02*
X162603Y53500D01*
X163000D01*
X159013Y54065D02*
X162037D01*
X158417Y54661D02*
X159013Y54065D01*
X111752Y74083D02*
X111789Y74120D01*
X120098D02*
X120135Y74157D01*
X111789Y74120D02*
X120098D01*
X161898Y64898D02*
X163000Y66000D01*
X158417Y64898D02*
X161898D01*
X97893Y74085D02*
X101913D01*
X101916Y74088D01*
X97826Y74153D02*
X97893Y74085D01*
X92191Y74197D02*
X92744Y73644D01*
X85580Y74197D02*
X92191D01*
X85465Y74312D02*
X85580Y74197D01*
X131266Y68000D02*
X131971Y67295D01*
X131000Y68000D02*
X131266D01*
X131971Y67295D02*
X135500D01*
X127260Y15260D02*
Y18147D01*
X127369Y18257D01*
X126000Y14000D02*
X127260Y15260D01*
X113000Y14000D02*
X126000D01*
X28743Y128082D02*
X31829Y124996D01*
X34671Y122153D01*
Y117004D02*
Y122153D01*
X33167Y115500D02*
X34671Y117004D01*
X29827Y112160D02*
X33167Y115500D01*
X48589Y98500D02*
X53250Y103161D01*
X31504Y98500D02*
X48589D01*
X29827Y100178D02*
Y112160D01*
Y100178D02*
X31504Y98500D01*
X106500Y7500D02*
X113000Y14000D01*
X83500Y7500D02*
X106500D01*
X73058Y103161D02*
X73250D01*
X70841Y100944D02*
X73058Y103161D01*
X85977Y115023D02*
X87500Y113500D01*
X94000D01*
X95469Y114969D01*
X40258Y136435D02*
X40661D01*
X48047Y122453D02*
X70047D01*
X43220Y127279D02*
X48047Y122453D01*
X70047D02*
X72000Y120500D01*
X48339Y133884D02*
X48974Y134519D01*
X81180Y116628D02*
Y131820D01*
X79500Y133500D02*
X81180Y131820D01*
X75178Y134322D02*
X76000Y133500D01*
X75178Y134322D02*
Y135700D01*
X76835Y115500D02*
X80051D01*
X81180Y116628D01*
X76000Y133500D02*
X79500D01*
X51000Y113362D02*
X52675Y111687D01*
X51000Y113362D02*
Y113362D01*
X52675Y111687D02*
X57813D01*
X51000Y113293D02*
Y120378D01*
X33000Y130166D02*
X33662Y129503D01*
Y126838D02*
Y129503D01*
X48000Y115000D02*
X48339Y115339D01*
X43250Y107658D02*
X48000Y112408D01*
Y115000D01*
X57813Y111687D02*
X60120Y109380D01*
X39012Y111500D02*
X43500D01*
X45626Y116685D02*
X45779Y116839D01*
X45626Y113626D02*
Y116685D01*
X43500Y111500D02*
X45626Y113626D01*
X45779Y116839D02*
Y120561D01*
X34500Y139490D02*
X37606D01*
X40026Y137071D01*
X34500Y133862D02*
X37912Y130450D01*
Y127588D02*
Y130450D01*
X34500Y133862D02*
Y136510D01*
X21921Y129421D02*
X25260D01*
X9000Y116500D02*
X21921Y129421D01*
X9000Y79500D02*
Y116500D01*
X28163Y130259D02*
X29000Y129421D01*
X55500Y49000D02*
X70000D01*
X72708Y46292D01*
X24500Y64000D02*
X40500D01*
X55500Y49000D01*
X72708Y43703D02*
Y46292D01*
Y43703D02*
X73250Y43161D01*
X9000Y79500D02*
X24500Y64000D01*
X37912Y127588D02*
X41000Y124500D01*
X40026Y136667D02*
X40258Y136435D01*
X40661Y134161D02*
Y136435D01*
Y138161D01*
X40026Y136667D02*
Y137071D01*
X28000Y112000D02*
X32740Y116740D01*
X28000Y71500D02*
Y112000D01*
X32740Y116740D02*
Y119579D01*
X36000Y114512D02*
X39012Y111500D01*
X36000Y114512D02*
Y124500D01*
X33662Y126838D02*
X36000Y124500D01*
X40661Y115339D02*
Y124161D01*
X41000Y124500D01*
X45779Y120561D02*
X46072Y120854D01*
X47993D01*
X48111Y120972D01*
X50406D01*
X51000Y120378D01*
X63250Y105409D02*
Y107658D01*
X60120Y109380D02*
X61527D01*
X63250Y107658D01*
X104897Y132000D02*
X105866Y132968D01*
X104500Y132000D02*
X104897D01*
X105866Y132968D02*
X111791D01*
X69583Y21417D02*
X83500Y7500D01*
X48339Y133364D02*
Y133884D01*
X48974Y134519D02*
X52019D01*
X65748Y21417D02*
X69583D01*
X43250Y105409D02*
Y107658D01*
X85500Y117272D02*
X85977Y116795D01*
Y115023D02*
Y116795D01*
X95469Y114969D02*
Y116803D01*
X121000Y140000D02*
X124500Y136500D01*
Y134500D02*
X125946Y133054D01*
X124500Y134500D02*
Y136500D01*
X52000Y130500D02*
X56165D01*
X52138Y125473D02*
X56138D01*
X56165Y125500D01*
X56667Y130500D02*
X57500Y131333D01*
X52500Y141500D02*
X57500Y136500D01*
X56165Y130500D02*
X56667D01*
X57500Y131333D02*
Y136500D01*
X56500Y50000D02*
X77000D01*
X97165Y29835D01*
X41500Y65000D02*
X56500Y50000D01*
X34500Y65000D02*
X41500D01*
X28000Y71500D02*
X34500Y65000D01*
X99847Y134846D02*
X111701D01*
X96673Y122338D02*
Y131673D01*
X99847Y134846D01*
X96000Y121665D02*
X96673Y122338D01*
X96811Y23000D02*
X98583D01*
X130500Y102500D02*
X132268Y100732D01*
X126823Y102500D02*
X130500D01*
X132268Y85500D02*
Y100732D01*
X125732Y85500D02*
Y91470D01*
X126762Y92500D01*
X126823D01*
X175687Y18116D02*
X175740Y18169D01*
X97165Y27500D02*
Y29835D01*
X65165Y22000D02*
X65748Y21417D01*
X127369Y18257D02*
X134500D01*
X100500Y124366D02*
X107134Y131000D01*
X100500Y121811D02*
Y124366D01*
X107134Y131000D02*
X111791D01*
X74197Y136681D02*
X75178Y135700D01*
X44000Y141500D02*
X52500D01*
X40661Y138161D02*
X44000Y141500D01*
X72000Y120500D02*
X76835D01*
X43220Y127279D02*
Y132661D01*
X76835Y120500D02*
Y125500D01*
X95165Y136984D02*
X100835D01*
X103000Y140000D02*
X121000D01*
X101622Y137772D02*
Y138622D01*
X103000Y140000D01*
X100835Y136984D02*
X101622Y137772D01*
X125946Y133054D02*
X129124D01*
X129209Y132968D01*
X95823Y121488D02*
X96000Y121665D01*
X91177Y121488D02*
X95823D01*
X91000Y121311D02*
X91177Y121488D01*
X107531Y129032D02*
X111791D01*
X105500Y121665D02*
Y127000D01*
X107531Y129032D01*
X100500Y121811D02*
X101000Y121311D01*
X111701Y134846D02*
X111791Y134937D01*
X67032Y136000D02*
X67516Y136484D01*
Y137595D02*
X68102Y138181D01*
X73611D02*
X74197Y137595D01*
X68102Y138181D02*
X73611D01*
X67516Y136484D02*
Y137595D01*
X74197Y136681D02*
Y137595D01*
X62990Y136000D02*
X67032D01*
D105*
X200780Y28563D02*
X223220D01*
X200716Y28500D02*
X200780Y28563D01*
X200862Y7000D02*
X204000D01*
X97362Y11925D02*
X101425D01*
X173669Y28500D02*
X200716D01*
X200780Y36437D02*
X223220D01*
X200716Y36500D02*
X200780Y36437D01*
X193500Y36500D02*
X200716D01*
X191398Y38602D02*
X193500Y36500D01*
X211589Y24589D02*
X215563Y28563D01*
X173083Y27913D02*
X173669Y28500D01*
X211589Y14589D02*
Y24589D01*
X204000Y7000D02*
X211589Y14589D01*
X172197Y27913D02*
X173083D01*
X172000Y26831D02*
Y27716D01*
X172197Y27913D01*
X101425Y11925D02*
X101500Y12000D01*
X191398Y38602D02*
Y45443D01*
X208216Y71000D02*
X209369Y69847D01*
X207614Y71313D02*
X207927Y71000D01*
X204195Y71313D02*
X207614D01*
X207927Y71000D02*
X208216D01*
X209369Y63414D02*
Y69847D01*
X204179Y71297D02*
X204195Y71313D01*
X202047Y71297D02*
X204179D01*
X201752Y71002D02*
X202047Y71297D01*
X191398Y45443D02*
X209369Y63414D01*
X194508Y10492D02*
X195535Y9465D01*
Y6091D02*
Y9465D01*
Y6091D02*
X196126Y5500D01*
X194508Y10492D02*
Y14133D01*
X194382Y14260D02*
X194508Y14133D01*
X185768Y21740D02*
X188528Y24500D01*
X191359D01*
X192512Y22724D02*
Y23347D01*
X191359Y24500D02*
X192512Y23347D01*
Y22724D02*
X193299Y21937D01*
X194634D01*
X184882Y21740D02*
X185768D01*
X38847Y29500D02*
X40000Y28347D01*
X4000Y29500D02*
X38847D01*
X40000Y23500D02*
Y28347D01*
X180799Y52222D02*
Y92000D01*
X119500Y120268D02*
X150000D01*
X187906Y111445D02*
X187934Y111472D01*
X197473D02*
X197500Y111500D01*
X187934Y111472D02*
X197473D01*
X104000Y85444D02*
X109000Y90444D01*
X104000Y80782D02*
Y85444D01*
X104782Y80000D02*
X108208D01*
X104000Y80782D02*
X104782Y80000D01*
X34500Y21000D02*
X35000Y20500D01*
X4000Y21000D02*
X34500D01*
X91228Y137181D02*
Y138228D01*
X94734Y141734D02*
X129266D01*
X91228Y138228D02*
X94734Y141734D01*
X119500Y113732D02*
X127125D01*
X134750D01*
X142375D01*
X150000D01*
X13250Y89292D02*
Y103161D01*
X13245Y89288D02*
X13250Y89292D01*
X72500Y130500D02*
X76835D01*
X134500Y135017D02*
Y136500D01*
X129266Y141734D02*
X134500Y136500D01*
X108208Y80000D02*
X108719Y80511D01*
X115500Y108000D02*
X118000D01*
X109000Y90444D02*
Y101500D01*
X115500Y108000D01*
X84500Y130500D02*
X88000D01*
X90835Y133335D02*
Y136984D01*
X88000Y130500D02*
X90835Y133335D01*
X168201Y39799D02*
Y50222D01*
Y39799D02*
X172102Y35898D01*
X168201Y63517D02*
X168405Y63722D01*
X168201Y63927D02*
X168405Y63722D01*
X168201Y76517D02*
X168405Y76722D01*
X168201Y50427D02*
Y63517D01*
Y63927D02*
Y76517D01*
X212516Y116032D02*
X216736D01*
X168811Y94567D02*
X168815D01*
X168201Y90000D02*
Y93957D01*
X168811Y94567D01*
X162123Y89877D02*
X168201D01*
X159946Y92054D02*
X162123Y89877D01*
X159721Y107134D02*
X159946Y106908D01*
Y92054D02*
Y106908D01*
X160000Y107413D02*
Y111965D01*
X159721Y107134D02*
X160000Y107413D01*
X168201Y76722D02*
Y89877D01*
X146042Y138075D02*
X146484Y138518D01*
X141476Y138075D02*
X146042D01*
X141476Y140476D02*
X141500Y140500D01*
X141476Y138075D02*
Y140476D01*
X160000Y116000D02*
Y118982D01*
D106*
X123000Y37953D02*
Y77500D01*
X122547Y37500D02*
X123000Y37953D01*
X119498Y81002D02*
X123000Y77500D01*
X111752Y81002D02*
X119498D01*
X45734Y132707D02*
Y138455D01*
X45689Y138500D02*
X45734Y138455D01*
Y132707D02*
X45779Y132661D01*
X119791Y37565D02*
X122482D01*
X122547Y37500D01*
X155000Y80000D02*
Y104500D01*
X151500Y108000D02*
X155000Y104500D01*
Y80000D02*
X162500Y72500D01*
X123500Y26634D02*
X127442D01*
X131871Y22205D01*
X165523Y28023D02*
Y36500D01*
X162240Y24740D02*
X165523Y28023D01*
X82000Y49000D02*
Y97500D01*
X87750Y103250D02*
X94750D01*
X82000Y97500D02*
X87750Y103250D01*
X94750D02*
X95000Y103500D01*
X71000Y112000D02*
X86500D01*
X95000Y103500D01*
X67500Y115500D02*
X71000Y112000D01*
X56165Y115500D02*
X67500D01*
X33646Y92854D02*
Y94354D01*
X33500Y94500D02*
X33646Y94354D01*
X38118Y88382D02*
X40000D01*
X33646Y92854D02*
X38118Y88382D01*
X135461Y69893D02*
X135500Y69933D01*
X61681Y7000D02*
X61835D01*
X61000Y7681D02*
Y17000D01*
Y7681D02*
X61681Y7000D01*
X61000Y17000D02*
X65165D01*
X181905Y37000D02*
X184661D01*
X60010Y127759D02*
X63384Y124384D01*
X60010Y127759D02*
Y136000D01*
X154000Y133484D02*
Y137671D01*
X78865Y37365D02*
X82000Y40500D01*
X78865Y14865D02*
Y37365D01*
X65165Y12000D02*
X68500D01*
X65165Y27000D02*
X65215Y26951D01*
X68451D02*
X68500Y26902D01*
X65215Y26951D02*
X68451D01*
X148177Y92500D02*
X148988D01*
X149768Y91720D01*
Y85500D02*
Y91720D01*
X119686Y18420D02*
X119740Y18366D01*
X119686Y18420D02*
Y21767D01*
X119632Y21821D02*
X119686Y21767D01*
X175687Y14461D02*
Y18116D01*
X92638Y27500D02*
X92835D01*
X91957Y26819D02*
X92638Y27500D01*
X91957Y26744D02*
Y26819D01*
X87213Y22000D02*
X91957Y26744D01*
X85835Y22000D02*
X87213D01*
X85835Y17000D02*
Y22000D01*
X91941Y12000D02*
X92441Y11500D01*
X85835Y12000D02*
X91941D01*
X91650Y17000D02*
X92441Y16209D01*
Y11500D02*
Y16209D01*
X140760Y18169D02*
Y19055D01*
X137610Y22205D02*
X140760Y19055D01*
X131871Y22205D02*
X137610D01*
X141441Y19736D02*
X143236D01*
X150331Y26831D02*
X158500D01*
X143236Y19736D02*
X150331Y26831D01*
X148240Y18169D02*
X154760D01*
X140760Y19055D02*
X141441Y19736D01*
X154760Y18169D02*
X154812Y18117D01*
Y15188D02*
X156500Y13500D01*
X167000D01*
X154812Y15188D02*
Y18117D01*
X168260Y14760D02*
Y18169D01*
X167000Y13500D02*
X168260Y14760D01*
X162240Y18169D02*
Y24740D01*
X95469Y116803D02*
X96000Y117335D01*
D107*
X86917Y27000D02*
X87500Y27583D01*
Y29500D01*
X85835Y27000D02*
X86917D01*
X187953Y101547D02*
Y104508D01*
Y101547D02*
X188000Y101500D01*
X187906Y104555D02*
X187953Y104508D01*
X182248Y126000D02*
X205000D01*
X180224Y128024D02*
X182248Y126000D01*
X210835Y120165D02*
X212319D01*
X205000Y126000D02*
X210835Y120165D01*
X176197Y128024D02*
X180224D01*
X212319Y120165D02*
X212516Y119968D01*
X176197Y128024D02*
X180224D01*
X182248Y126000D01*
Y109823D02*
Y126000D01*
X176094Y104555D02*
X176980D01*
X182248Y109823D01*
X117500Y86000D02*
Y92500D01*
X130426Y72574D02*
X132994D01*
X127071Y75929D02*
X130426Y72574D01*
X123500Y80000D02*
X127071D01*
X117500Y86000D02*
X123500Y80000D01*
X127071Y75929D02*
Y80000D01*
X167280Y107134D02*
X167772Y107626D01*
X168838Y111338D02*
X175987D01*
X167772Y107626D02*
Y110272D01*
X168838Y111338D01*
X175987D02*
X176094Y111445D01*
D108*
X161500Y135000D02*
Y140000D01*
X159613Y133113D02*
X161500Y135000D01*
Y140000D02*
X163422Y141922D01*
X199000D02*
X200696Y140226D01*
Y137304D02*
X201000Y137000D01*
X200696Y137304D02*
Y140226D01*
X163422Y141922D02*
X199000D01*
X158016Y133405D02*
Y133563D01*
Y133405D02*
X158308Y133113D01*
X157937Y133484D02*
X158016Y133405D01*
Y130333D02*
Y133405D01*
X158308Y133113D02*
X159613D01*
X154000Y133484D02*
Y133488D01*
X153488Y134000D02*
X154000Y133488D01*
X149500Y134000D02*
X153488D01*
X142563Y127063D02*
X149500Y134000D01*
X129209Y127063D02*
X142563D01*
X158016Y130333D02*
X158441Y129908D01*
D109*
X201500Y115500D02*
Y118547D01*
X201000Y119047D02*
X201500Y118547D01*
X129209Y129032D02*
X135293D01*
X140305Y130695D02*
X140500Y130500D01*
X135293Y129032D02*
X136957Y130695D01*
X140305D01*
D110*
X33250Y103161D02*
D03*
X53250D02*
D03*
X73250Y43161D02*
D03*
X43250Y103161D02*
D03*
X63250D02*
D03*
X73250D02*
D03*
X23250Y43161D02*
D03*
X13250Y103161D02*
D03*
X23250D02*
D03*
X53250Y43161D02*
D03*
X63250D02*
D03*
X43250D02*
D03*
X33250D02*
D03*
D111*
X13250D02*
D03*
D112*
X102500Y90622D02*
D03*
Y55110D02*
D03*
X208500Y90622D02*
D03*
Y55110D02*
D03*
D113*
X9874Y9874D02*
D03*
X218504Y135827D02*
D03*
Y9874D02*
D03*
X9843Y135827D02*
D03*
D114*
X4000Y29500D02*
D03*
Y21000D02*
D03*
D115*
X42000Y52500D02*
D03*
X34500D02*
D03*
D116*
X204000Y7000D02*
D03*
X172000Y26831D02*
D03*
X101500Y12000D02*
D03*
X118439Y66584D02*
D03*
X163000Y56500D02*
D03*
X86855Y66445D02*
D03*
X99502Y66504D02*
D03*
X131000Y59000D02*
D03*
X85454Y69043D02*
D03*
X102192Y68991D02*
D03*
X131000Y62000D02*
D03*
X120054Y69043D02*
D03*
X162920Y59622D02*
D03*
X86763Y71588D02*
D03*
X99929Y71467D02*
D03*
X131000Y65000D02*
D03*
X118671Y71594D02*
D03*
X163000Y63000D02*
D03*
X86605Y61395D02*
D03*
X102192Y63308D02*
D03*
X85390Y63986D02*
D03*
X131000Y56000D02*
D03*
X43500Y20000D02*
D03*
X40000Y23500D02*
D03*
X43500D02*
D03*
X29000Y118500D02*
D03*
X43000Y122000D02*
D03*
X60000Y120500D02*
D03*
X51083Y137902D02*
D03*
X40000Y20000D02*
D03*
X48000Y126569D02*
D03*
X197500Y111500D02*
D03*
X199000Y63000D02*
D03*
Y65500D02*
D03*
X35000Y20500D02*
D03*
Y23500D02*
D03*
X119791Y37565D02*
D03*
X120500Y108000D02*
D03*
X118000D02*
D03*
X120500Y110500D02*
D03*
X118000D02*
D03*
X151500D02*
D03*
Y108000D02*
D03*
X72500Y130500D02*
D03*
X87500Y29500D02*
D03*
X13245Y89288D02*
D03*
X45689Y138500D02*
D03*
X84500Y130500D02*
D03*
X162500Y72500D02*
D03*
X188000Y101500D02*
D03*
X120000Y64000D02*
D03*
X163000Y53500D02*
D03*
X120135Y74157D02*
D03*
X163000Y66000D02*
D03*
X101916Y74088D02*
D03*
X85465Y74312D02*
D03*
X131000Y68000D02*
D03*
X88042Y95958D02*
D03*
X40000Y88382D02*
D03*
X33500Y94500D02*
D03*
X22807Y115331D02*
D03*
X131000Y71000D02*
D03*
X217500Y62500D02*
D03*
X117500Y92500D02*
D03*
X19807Y115331D02*
D03*
X61000Y17000D02*
D03*
X184661Y37000D02*
D03*
X63384Y124384D02*
D03*
X32740Y119579D02*
D03*
X146484Y134531D02*
D03*
X104500Y132000D02*
D03*
X141500Y140500D02*
D03*
X201500Y115500D02*
D03*
X140500Y130500D02*
D03*
X52019Y134519D02*
D03*
X78865Y14865D02*
D03*
X52138Y125473D02*
D03*
X52000Y130500D02*
D03*
X41000Y124500D02*
D03*
X160000Y124018D02*
D03*
X67500Y115500D02*
D03*
X149768Y85500D02*
D03*
X95000Y103500D02*
D03*
X68500Y12000D02*
D03*
X82000Y40500D02*
D03*
Y49000D02*
D03*
X68500Y26902D02*
D03*
X98583Y23000D02*
D03*
X119632Y21821D02*
D03*
X175687Y14461D02*
D03*
M02*
