G04*
G04 #@! TF.GenerationSoftware,Altium Limited,Altium Designer,25.7.1 (20)*
G04*
G04 Layer_Color=128*
%FSLAX44Y44*%
%MOMM*%
G71*
G04*
G04 #@! TF.SameCoordinates,CAE11FD6-8C3A-4EB6-ACAE-679D23DD15AD*
G04*
G04*
G04 #@! TF.FilePolarity,Positive*
G04*
G01*
G75*
%ADD103C,0.1270*%
D103*
X80205Y262030D02*
X88705D01*
X84455Y257780D02*
Y266280D01*
X131005Y262030D02*
X139505D01*
X135255Y257780D02*
Y266280D01*
X181805Y109630D02*
X190305D01*
X186055Y105380D02*
Y113880D01*
X105605Y262030D02*
X114105D01*
X109855Y257780D02*
Y266280D01*
X156405Y262030D02*
X164905D01*
X160655Y257780D02*
Y266280D01*
X181805Y262030D02*
X190305D01*
X186055Y257780D02*
Y266280D01*
X54805Y109630D02*
X63305D01*
X59055Y105380D02*
Y113880D01*
X29405Y262030D02*
X37905D01*
X33655Y257780D02*
Y266280D01*
X54805Y262030D02*
X63305D01*
X59055Y257780D02*
Y266280D01*
X131005Y109630D02*
X139505D01*
X135255Y105380D02*
Y113880D01*
X156405Y109630D02*
X164905D01*
X160655Y105380D02*
Y113880D01*
X105605Y109630D02*
X114105D01*
X109855Y105380D02*
Y113880D01*
X80205Y109630D02*
X88705D01*
X84455Y105380D02*
Y113880D01*
X29405Y109630D02*
X37905D01*
X33655Y105380D02*
Y113880D01*
X255600Y230180D02*
X265100D01*
X260350Y225430D02*
Y234930D01*
X255600Y139980D02*
X265100D01*
X260350Y135230D02*
Y144730D01*
X524840Y230180D02*
X534340D01*
X529590Y225430D02*
Y234930D01*
X524840Y139980D02*
X534340D01*
X529590Y135230D02*
Y144730D01*
X15080Y25080D02*
X35080D01*
X25080Y15080D02*
Y35080D01*
X545000Y345000D02*
X565000D01*
X555000Y335000D02*
Y355000D01*
X545000Y25080D02*
X565000D01*
X555000Y15080D02*
Y35080D01*
X6350Y74930D02*
X13970D01*
X10160Y71120D02*
Y78740D01*
X15000Y345000D02*
X35000D01*
X25000Y335000D02*
Y355000D01*
X6350Y53340D02*
X13970D01*
X10160Y49530D02*
Y57150D01*
X102680Y133350D02*
X110680D01*
X106680Y129350D02*
Y137350D01*
X83630Y133350D02*
X91630D01*
X87630Y129350D02*
Y137350D01*
X299336Y169123D02*
X302336D01*
X300836Y167623D02*
Y170623D01*
X412520Y143510D02*
X415520D01*
X414020Y142010D02*
Y145010D01*
X219112Y168770D02*
X222112D01*
X220612Y167270D02*
Y170270D01*
X251234Y168921D02*
X254234D01*
X252734Y167421D02*
Y170421D01*
X331240Y149860D02*
X334240D01*
X332740Y148360D02*
Y151360D01*
X215553Y175370D02*
X218553D01*
X217053Y173870D02*
Y176870D01*
X258067Y175237D02*
X261067D01*
X259567Y173737D02*
Y176737D01*
X331240Y157480D02*
X334240D01*
X332740Y155980D02*
Y158980D01*
X303437Y175370D02*
X306437D01*
X304937Y173870D02*
Y176870D01*
X412318Y151439D02*
X415317D01*
X413817Y149938D02*
Y152938D01*
X218879Y181834D02*
X221879D01*
X220379Y180334D02*
Y183334D01*
X252319Y181526D02*
X255319D01*
X253819Y180026D02*
Y183026D01*
X331240Y165100D02*
X334240D01*
X332740Y163600D02*
Y166600D01*
X299925Y181848D02*
X302925D01*
X301425Y180348D02*
Y183348D01*
X412520Y160020D02*
X415520D01*
X414020Y158520D02*
Y161520D01*
X218477Y155943D02*
X221477D01*
X219977Y154443D02*
Y157443D01*
X258068Y160802D02*
X261068D01*
X259568Y159302D02*
Y162302D01*
X215390Y162525D02*
X218390D01*
X216890Y161025D02*
Y164025D01*
X331240Y142240D02*
X334240D01*
X332740Y140740D02*
Y143740D01*
X108990Y50800D02*
X111990D01*
X110490Y49300D02*
Y52300D01*
X100100Y59690D02*
X103100D01*
X101600Y58190D02*
Y61190D01*
X108990Y59690D02*
X111990D01*
X110490Y58190D02*
Y61190D01*
X72160Y300990D02*
X75160D01*
X73660Y299490D02*
Y302490D01*
X107720Y309880D02*
X110720D01*
X109220Y308380D02*
Y311380D01*
X150900Y306070D02*
X153900D01*
X152400Y304570D02*
Y307570D01*
X128250Y350270D02*
X131250D01*
X129750Y348770D02*
Y351770D01*
X100100Y50800D02*
X103100D01*
X101600Y49300D02*
Y52300D01*
X120420Y321485D02*
X123420D01*
X121920Y319985D02*
Y322985D01*
X500150Y283210D02*
X503150D01*
X501650Y281710D02*
Y284710D01*
X503960Y160020D02*
X506960D01*
X505460Y158520D02*
Y161520D01*
X503960Y166370D02*
X506960D01*
X505460Y164870D02*
Y167870D01*
X87400Y52070D02*
X90400D01*
X88900Y50570D02*
Y53570D01*
X87400Y59690D02*
X90400D01*
X88900Y58190D02*
Y61190D01*
X302770Y95415D02*
X305770D01*
X304270Y93915D02*
Y96915D01*
X304570Y274320D02*
X307570D01*
X306070Y272820D02*
Y275820D01*
X298220Y274320D02*
X301220D01*
X299720Y272820D02*
Y275820D01*
X304570Y280670D02*
X307570D01*
X306070Y279170D02*
Y282170D01*
X298220Y280670D02*
X301220D01*
X299720Y279170D02*
Y282170D01*
X383310Y280670D02*
X386310D01*
X384810Y279170D02*
Y282170D01*
X383310Y274320D02*
X386310D01*
X384810Y272820D02*
Y275820D01*
X182650Y331470D02*
X185650D01*
X184150Y329970D02*
Y332970D01*
X220750Y74930D02*
X223750D01*
X222250Y73430D02*
Y76430D01*
X32143Y226790D02*
X35143D01*
X33643Y225290D02*
Y228290D01*
X114550Y351790D02*
X117550D01*
X116050Y350290D02*
Y353290D01*
X213130Y331470D02*
X216130D01*
X214630Y329970D02*
Y332970D01*
X411250Y184150D02*
X414250D01*
X412750Y182650D02*
Y185650D01*
X476020Y257810D02*
X479020D01*
X477520Y256310D02*
Y259310D01*
X303300Y162560D02*
X306300D01*
X304800Y161060D02*
Y164060D01*
X412520Y135890D02*
X415520D01*
X414020Y134390D02*
Y137390D01*
X303643Y188359D02*
X306643D01*
X305143Y186859D02*
Y189859D01*
X412520Y167640D02*
X415520D01*
X414020Y166140D02*
Y169140D01*
X257366Y188184D02*
X260366D01*
X258866Y186684D02*
Y189684D01*
X215581Y188752D02*
X218581D01*
X217081Y187252D02*
Y190252D01*
X331240Y172720D02*
X334240D01*
X332740Y171220D02*
Y174220D01*
X516660Y17780D02*
X519660D01*
X518160Y16280D02*
Y19280D01*
X435380Y68150D02*
X438380D01*
X436880Y66650D02*
Y69650D01*
X256310Y30480D02*
X259310D01*
X257810Y28980D02*
Y31980D01*
X222127Y243733D02*
X225127D01*
X223627Y242233D02*
Y245233D01*
X100100Y224490D02*
X103100D01*
X101600Y222990D02*
Y225990D01*
X83590Y240030D02*
X86590D01*
X85090Y238530D02*
Y241530D01*
X56430Y292940D02*
X59430D01*
X57930Y291440D02*
Y294440D01*
X331240Y180340D02*
X334240D01*
X332740Y178840D02*
Y181840D01*
X550950Y158750D02*
X553950D01*
X552450Y157250D02*
Y160250D01*
X296950Y234950D02*
X299950D01*
X298450Y233450D02*
Y236450D01*
X48810Y292940D02*
X51810D01*
X50310Y291440D02*
Y294440D01*
X153440Y43180D02*
X156440D01*
X154940Y41680D02*
Y44680D01*
X467540Y93980D02*
X470540D01*
X469040Y92480D02*
Y95480D01*
X159497Y315937D02*
X162497D01*
X160997Y314437D02*
Y317437D01*
X81660Y303730D02*
X84660D01*
X83160Y302230D02*
Y305230D01*
X370570Y341710D02*
X373570D01*
X372070Y340210D02*
Y343210D01*
X263930Y335280D02*
X266930D01*
X265430Y333780D02*
Y336780D01*
X357910Y356870D02*
X360910D01*
X359410Y355370D02*
Y358370D01*
X510310Y293370D02*
X513310D01*
X511810Y291870D02*
Y294870D01*
X355370Y331470D02*
X358370D01*
X356870Y329970D02*
Y332970D01*
X130629Y341679D02*
X133629D01*
X132129Y340179D02*
Y343179D01*
X198818Y37758D02*
X201818D01*
X200318Y36258D02*
Y39258D01*
X130930Y318701D02*
X133930D01*
X132430Y317201D02*
Y320201D01*
X130580Y331470D02*
X133580D01*
X132080Y329970D02*
Y332970D01*
X102640Y316230D02*
X105640D01*
X104140Y314730D02*
Y317730D01*
X404900Y315005D02*
X407900D01*
X406400Y313505D02*
Y316505D01*
X169950Y293370D02*
X172950D01*
X171450Y291870D02*
Y294870D01*
X378910Y217170D02*
X381910D01*
X380410Y215670D02*
Y218670D01*
X239800Y262890D02*
X242800D01*
X241300Y261390D02*
Y264390D01*
X172490Y30480D02*
X175490D01*
X173990Y28980D02*
Y31980D01*
X206780Y102870D02*
X209780D01*
X208280Y101370D02*
Y104370D01*
X206780Y124460D02*
X209780D01*
X208280Y122960D02*
Y125960D01*
X172490Y68330D02*
X175490D01*
X173990Y66830D02*
Y69830D01*
X248900Y58420D02*
X251900D01*
X250400Y56920D02*
Y59920D01*
X302365Y55425D02*
X305365D01*
X303865Y53925D02*
Y56925D01*
X444746Y36730D02*
X447746D01*
X446246Y35230D02*
Y38230D01*
M02*
