M48
;Layer_Color=9474304
;FILE_FORMAT=4:4
METRIC,LZ
;TYPE=PLATED
T01F00S00C0.3000
T02F00S00C0.7620
T03F00S00C0.8000
T04F00S00C0.8500
T05F00S00C2.0000
;TYPE=NON_PLATED
T06F00S00C0.9500
%
T01
X000889Y0005207
Y0005969
X001016
X0011049
Y000508
X001016
X0015494Y0004318
X0017399Y0003048
X00200318Y00037758
X0025781Y0003048
X002504Y0005842
X00303865Y00055425
X00446246Y0003673
X0051816Y0001778
X0055245Y0015875
X0050546Y0016002
Y0016637
X0041402Y0016764
Y0016002
X00413817Y00151439
X0041402Y0014351
Y0013589
X0041275Y0018415
X0038041Y0021717
X0038481Y0027432
Y0028067
X004064Y00315005
X0037207Y0034171
X0035687Y0033147
X0035941Y0035687
X0026543Y0033528
X0021463Y0033147
X0018415
X00160997Y00315937
X001524Y0030607
X0017145Y0029337
X002413Y0026289
X00223627Y00243733
X00217081Y00188752
X00220379Y00181834
X00217053Y0017537
X00220612Y0016877
X0021689Y00162525
X00219977Y00155943
X0020828Y0012446
Y0010287
X0022225Y0007493
X0017399Y0006833
X0030427Y00095415
X003048Y0016256
X00300836Y00169123
X00304937Y0017537
X00301425Y00181848
X00305143Y00188359
X0033274Y0018034
Y0017272
Y001651
Y0015748
Y0014986
Y0014224
X00259568Y00160802
X00259567Y00175237
X00253819Y00181526
X00258866Y00188184
X00252734Y00168921
X0029845Y0023495
X0029972Y0027432
X0030607
Y0028067
X0029972
X0047752Y0025781
X0050165Y0028321
X0051181Y0029337
X0046904Y0009398
X0043688Y0006815
X001016Y0022449
X0008509Y0024003
X00033643Y0022679
X0005031Y0029294
X0005793
X0007366Y0030099
X0008316Y0030373
X0010922Y0030988
X0010414Y0031623
X0012192Y00321485
X0013243Y00318701
X0013208Y0033147
X00132129Y00341679
X0012975Y0035027
X0011605Y0035179
T02
X0001016Y0005334
Y0007493
T03
X0008763Y0013335
X0010668
T04
X00160655Y0010963
X00186055
Y0026203
X00160655
X00135255
X00109855
X00084455
X00059055
X00033655
Y0010963
X00059055
X00084455
X00109855
X00135255
T05
X0002508Y0002508
X00555
Y00345
X00025
T06
X0026035Y0013998
Y0023018
X0052959
Y0013998
M30
