G04*
G04 #@! TF.GenerationSoftware,Altium Limited,Altium Designer,25.7.1 (20)*
G04*
G04 Layer_Color=16711935*
%FSLAX44Y44*%
%MOMM*%
G71*
G04*
G04 #@! TF.SameCoordinates,CAE11FD6-8C3A-4EB6-ACAE-679D23DD15AD*
G04*
G04*
G04 #@! TF.FilePolarity,Positive*
G04*
G01*
G75*
%ADD10C,0.2000*%
%ADD14C,0.1530*%
D10*
X355620Y339348D02*
X363120D01*
Y354072D01*
X355620D02*
X363120D01*
X355620Y339348D02*
Y354072D01*
X227759Y35180D02*
X254841D01*
X227759D02*
Y51180D01*
X254841D01*
Y35180D02*
Y51180D01*
X163572Y341690D02*
Y349190D01*
X148848D02*
X163572D01*
X148848Y341690D02*
Y349190D01*
Y341690D02*
X163572D01*
X415088Y99342D02*
X435812D01*
Y88618D02*
Y99342D01*
X415088Y88618D02*
X435812D01*
X415088D02*
Y99342D01*
X385240Y333140D02*
X407240D01*
Y324640D02*
Y333140D01*
X385240Y324640D02*
X407240D01*
X385240D02*
Y333140D01*
X351171Y38839D02*
Y72921D01*
X332089Y38839D02*
X351171D01*
X332089D02*
Y72921D01*
X351171D01*
X183760Y341440D02*
Y349440D01*
X166760D02*
X183760D01*
X166760Y341440D02*
Y349440D01*
Y341440D02*
X183760D01*
X335670Y106180D02*
Y190180D01*
Y106180D02*
X410670D01*
Y190180D01*
X335670D02*
X410670D01*
X83880Y357882D02*
X91380D01*
X83880Y343158D02*
Y357882D01*
Y343158D02*
X91380D01*
Y357882D01*
D14*
X394630Y337520D02*
Y330522D01*
X391131D01*
X389965Y331689D01*
Y334021D01*
X391131Y335187D01*
X394630D01*
X392298D02*
X389965Y337520D01*
X387632D02*
X385300D01*
X386466D01*
Y330522D01*
X387632Y331689D01*
X381801D02*
X380635Y330522D01*
X378302D01*
X377136Y331689D01*
Y332855D01*
X378302Y334021D01*
X379468D01*
X378302D01*
X377136Y335187D01*
Y336354D01*
X378302Y337520D01*
X380635D01*
X381801Y336354D01*
X357840Y348240D02*
X350842D01*
Y351739D01*
X352009Y352905D01*
X354341D01*
X355508Y351739D01*
Y348240D01*
Y350572D02*
X357840Y352905D01*
Y355238D02*
Y357570D01*
Y356404D01*
X350842D01*
X352009Y355238D01*
Y361069D02*
X350842Y362235D01*
Y364568D01*
X352009Y365734D01*
X353175D01*
X354341Y364568D01*
X355508Y365734D01*
X356674D01*
X357840Y364568D01*
Y362235D01*
X356674Y361069D01*
X355508D01*
X354341Y362235D01*
X353175Y361069D01*
X352009D01*
X354341Y362235D02*
Y364568D01*
X541320Y298190D02*
X548318D01*
Y294691D01*
X547151Y293525D01*
X544819D01*
X543652Y294691D01*
Y298190D01*
Y295858D02*
X541320Y293525D01*
Y291192D02*
Y288860D01*
Y290026D01*
X548318D01*
X547151Y291192D01*
X542486Y285361D02*
X541320Y284195D01*
Y281862D01*
X542486Y280696D01*
X547151D01*
X548318Y281862D01*
Y284195D01*
X547151Y285361D01*
X545985D01*
X544819Y284195D01*
Y280696D01*
X239770Y41650D02*
Y34652D01*
X236271D01*
X235105Y35819D01*
Y38151D01*
X236271Y39318D01*
X239770D01*
X237437D02*
X235105Y41650D01*
X232772Y35819D02*
X231606Y34652D01*
X229273D01*
X228107Y35819D01*
Y36985D01*
X229273Y38151D01*
X230440D01*
X229273D01*
X228107Y39318D01*
Y40484D01*
X229273Y41650D01*
X231606D01*
X232772Y40484D01*
X154680Y343910D02*
Y336912D01*
X151181D01*
X150015Y338079D01*
Y340411D01*
X151181Y341577D01*
X154680D01*
X152347D02*
X150015Y343910D01*
X144184D02*
Y336912D01*
X147682Y340411D01*
X143017D01*
X426980Y95510D02*
Y102508D01*
X430479D01*
X431645Y101341D01*
Y99009D01*
X430479Y97842D01*
X426980D01*
X429313D02*
X431645Y95510D01*
X438643Y102508D02*
X436310Y101341D01*
X433978Y99009D01*
Y96676D01*
X435144Y95510D01*
X437477D01*
X438643Y96676D01*
Y97842D01*
X437477Y99009D01*
X433978D01*
X397770Y330420D02*
Y337418D01*
X401269D01*
X402435Y336251D01*
Y333919D01*
X401269Y332752D01*
X397770D01*
X400103D02*
X402435Y330420D01*
X404768D02*
X407100D01*
X405934D01*
Y337418D01*
X404768Y336251D01*
X410599D02*
X411765Y337418D01*
X414098D01*
X415264Y336251D01*
Y331586D01*
X414098Y330420D01*
X411765D01*
X410599Y331586D01*
Y336251D01*
X343160Y54350D02*
X350158D01*
Y50851D01*
X348991Y49685D01*
X346659D01*
X345493Y50851D01*
Y54350D01*
Y52017D02*
X343160Y49685D01*
X350158Y42687D02*
Y47352D01*
X346659D01*
X347825Y45020D01*
Y43854D01*
X346659Y42687D01*
X344326D01*
X343160Y43854D01*
Y46186D01*
X344326Y47352D01*
X173730Y342640D02*
Y335642D01*
X170231D01*
X169065Y336809D01*
Y339141D01*
X170231Y340307D01*
X173730D01*
X171397D02*
X169065Y342640D01*
X162067D02*
X166732D01*
X162067Y337975D01*
Y336809D01*
X163233Y335642D01*
X165566D01*
X166732Y336809D01*
X159734Y342640D02*
X157402D01*
X158568D01*
Y335642D01*
X159734Y336809D01*
X374700Y156708D02*
Y150876D01*
X375866Y149710D01*
X378199D01*
X379365Y150876D01*
Y156708D01*
X381698Y155541D02*
X382864Y156708D01*
X385196D01*
X386363Y155541D01*
Y154375D01*
X385196Y153209D01*
X386363Y152042D01*
Y150876D01*
X385196Y149710D01*
X382864D01*
X381698Y150876D01*
Y152042D01*
X382864Y153209D01*
X381698Y154375D01*
Y155541D01*
X382864Y153209D02*
X385196D01*
X94991Y344325D02*
X96158Y345491D01*
Y347824D01*
X94991Y348990D01*
X90326D01*
X89160Y347824D01*
Y345491D01*
X90326Y344325D01*
X89160Y338493D02*
X96158D01*
X92659Y341992D01*
Y337327D01*
M02*
