G04*
G04 #@! TF.GenerationSoftware,Altium Limited,Altium Designer,25.8.1 (18)*
G04*
G04 Layer_Physical_Order=2*
G04 Layer_Color=16711680*
%FSLAX25Y25*%
%MOIN*%
G70*
G04*
G04 #@! TF.SameCoordinates,F1F84D23-2183-468A-A06F-28952BDF526D*
G04*
G04*
G04 #@! TF.FilePolarity,Positive*
G04*
G01*
G75*
%ADD106C,0.00500*%
%ADD107C,0.01968*%
%ADD108C,0.01000*%
%ADD109C,0.01575*%
%ADD111C,0.01181*%
%ADD112C,0.05347*%
%ADD113R,0.05347X0.05347*%
%ADD114C,0.01870*%
%ADD115C,0.09449*%
%ADD116C,0.06000*%
%ADD117C,0.04724*%
%ADD118C,0.02362*%
%ADD119C,0.02756*%
G36*
X221172Y144551D02*
X222817Y143869D01*
X224298Y142880D01*
X225557Y141621D01*
X226546Y140140D01*
X227228Y138495D01*
X227553Y136859D01*
X227589Y136403D01*
Y136399D01*
X227589Y136399D01*
X227590Y136398D01*
Y135931D01*
X227575Y135858D01*
Y9889D01*
X227491Y9031D01*
X227197Y7806D01*
X226738Y6633D01*
X226124Y5533D01*
X225364Y4528D01*
X224475Y3636D01*
X223472Y2874D01*
X222923Y2565D01*
X222923D01*
X222512Y2291D01*
X221671Y1885D01*
X220763Y1598D01*
X219834Y1445D01*
X219348Y1434D01*
X219348Y1434D01*
X10184Y1434D01*
X9268Y1449D01*
X7472Y1816D01*
X5775Y2508D01*
X4235Y3502D01*
X3570Y4132D01*
X2979Y4803D01*
X2057Y6333D01*
X1421Y8003D01*
X1094Y9759D01*
X1090Y10652D01*
Y18253D01*
X1590Y18461D01*
X1851Y18199D01*
X2649Y17739D01*
X3539Y17500D01*
X4461D01*
X5351Y17739D01*
X6149Y18199D01*
X6801Y18851D01*
X7261Y19649D01*
X7500Y20539D01*
Y21461D01*
X7261Y22351D01*
X6801Y23149D01*
X6149Y23801D01*
X5351Y24261D01*
X4461Y24500D01*
X3539D01*
X2649Y24261D01*
X1851Y23801D01*
X1590Y23539D01*
X1090Y23746D01*
Y26754D01*
X1590Y26961D01*
X1851Y26699D01*
X2649Y26239D01*
X3539Y26000D01*
X3750D01*
Y29500D01*
Y33000D01*
X3539D01*
X2649Y32761D01*
X1851Y32301D01*
X1590Y32039D01*
X1090Y32247D01*
X1090Y136399D01*
X1113Y137215D01*
X1447Y138812D01*
X2058Y140326D01*
X2905Y141673D01*
X4008Y142776D01*
X4455Y143109D01*
X5138Y143566D01*
X5719Y143915D01*
X5826Y143966D01*
X7237Y144551D01*
X8984Y144898D01*
X219426D01*
X221172Y144551D01*
D02*
G37*
%LPC*%
G36*
X141834Y142181D02*
X141166D01*
X140548Y141925D01*
X140075Y141452D01*
X139997Y141265D01*
X139643D01*
X139643Y141265D01*
X139350Y141207D01*
X139102Y141041D01*
X139102Y141041D01*
X130826Y132765D01*
X106003D01*
X105925Y132952D01*
X105452Y133425D01*
X104834Y133681D01*
X104166D01*
X103548Y133425D01*
X103075Y132952D01*
X102819Y132334D01*
Y131666D01*
X103075Y131048D01*
X103548Y130575D01*
X104166Y130319D01*
X104834D01*
X105452Y130575D01*
X105925Y131048D01*
X106003Y131235D01*
X131143D01*
X131436Y131293D01*
X131684Y131459D01*
X139603Y139379D01*
X139674Y139404D01*
X140277Y139346D01*
X140548Y139075D01*
X141166Y138819D01*
X141834D01*
X142452Y139075D01*
X142925Y139548D01*
X143181Y140166D01*
Y140834D01*
X142925Y141452D01*
X142452Y141925D01*
X141834Y142181D01*
D02*
G37*
G36*
X219192Y141051D02*
X218754D01*
Y136077D01*
X223728D01*
Y136515D01*
X223372Y137843D01*
X222685Y139035D01*
X221712Y140007D01*
X220520Y140695D01*
X219192Y141051D01*
D02*
G37*
G36*
X218254D02*
X217816D01*
X216487Y140695D01*
X215296Y140007D01*
X214323Y139035D01*
X213636Y137843D01*
X213280Y136515D01*
Y136077D01*
X218254D01*
Y141051D01*
D02*
G37*
G36*
X10530D02*
X10092D01*
Y136077D01*
X15067D01*
Y136515D01*
X14711Y137843D01*
X14023Y139035D01*
X13050Y140007D01*
X11859Y140695D01*
X10530Y141051D01*
D02*
G37*
G36*
X9593D02*
X9155D01*
X7826Y140695D01*
X6635Y140007D01*
X5662Y139035D01*
X4974Y137843D01*
X4618Y136515D01*
Y136077D01*
X9593D01*
Y141051D01*
D02*
G37*
G36*
X223728Y135577D02*
X218754D01*
Y130602D01*
X219192D01*
X220520Y130958D01*
X221712Y131646D01*
X222685Y132619D01*
X223372Y133810D01*
X223728Y135139D01*
Y135577D01*
D02*
G37*
G36*
X218254D02*
X213280D01*
Y135139D01*
X213636Y133810D01*
X214323Y132619D01*
X215296Y131646D01*
X216487Y130958D01*
X217816Y130602D01*
X218254D01*
Y135577D01*
D02*
G37*
G36*
X15067D02*
X10092D01*
Y130602D01*
X10530D01*
X11859Y130958D01*
X13050Y131646D01*
X14023Y132619D01*
X14711Y133810D01*
X15067Y135139D01*
Y135577D01*
D02*
G37*
G36*
X9593D02*
X4618D01*
Y135139D01*
X4974Y133810D01*
X5662Y132619D01*
X6635Y131646D01*
X7826Y130958D01*
X9155Y130602D01*
X9593D01*
Y135577D01*
D02*
G37*
G36*
X52334Y132181D02*
X51666D01*
X51048Y131925D01*
X50575Y131452D01*
X50497Y131265D01*
X42000D01*
X41707Y131207D01*
X41459Y131041D01*
X35183Y124765D01*
X12500D01*
X12207Y124706D01*
X11959Y124541D01*
X3331Y115913D01*
X3166Y115665D01*
X3107Y115372D01*
Y40128D01*
X3166Y39835D01*
X3331Y39587D01*
X26459Y16459D01*
X26707Y16294D01*
X27000Y16235D01*
X59497D01*
X59575Y16048D01*
X60048Y15575D01*
X60666Y15319D01*
X61334D01*
X61952Y15575D01*
X62425Y16048D01*
X62681Y16666D01*
Y17334D01*
X62544Y17666D01*
X62864Y18166D01*
X94514D01*
X94806Y18225D01*
X95055Y18390D01*
X98061Y21397D01*
X98248Y21319D01*
X98917D01*
X99535Y21575D01*
X100008Y22048D01*
X100264Y22666D01*
Y23334D01*
X100008Y23952D01*
X99535Y24425D01*
X98917Y24681D01*
X98248D01*
X97630Y24425D01*
X97158Y23952D01*
X96902Y23334D01*
Y22666D01*
X96979Y22478D01*
X94197Y19696D01*
X56431D01*
X56138Y19638D01*
X55890Y19472D01*
X55890Y19472D01*
X55252Y18834D01*
X37252D01*
X36972Y19334D01*
X37041Y19500D01*
Y24500D01*
X36883Y24883D01*
X36500Y25041D01*
X35672D01*
X35334Y25181D01*
X34666D01*
X34328Y25041D01*
X34000D01*
X33933Y25013D01*
X24994D01*
X10519Y39488D01*
X10726Y39988D01*
X15599D01*
X15673Y39974D01*
X17454D01*
X27469Y29959D01*
X27717Y29794D01*
X28009Y29735D01*
X28009Y29735D01*
X85000D01*
X85293Y29794D01*
X85319Y29811D01*
X85819Y29544D01*
Y29166D01*
X86075Y28548D01*
X86358Y28265D01*
X86151Y27765D01*
X69962D01*
X69925Y27854D01*
X69452Y28327D01*
X68834Y28583D01*
X68166D01*
X67548Y28327D01*
X67075Y27854D01*
X66819Y27236D01*
Y26567D01*
X67075Y25949D01*
X67548Y25476D01*
X68166Y25221D01*
X68834D01*
X69452Y25476D01*
X69925Y25949D01*
X70044Y26235D01*
X114136D01*
X118028Y22343D01*
X117951Y22155D01*
Y21486D01*
X118207Y20869D01*
X118680Y20396D01*
X119298Y20140D01*
X119966D01*
X120584Y20396D01*
X121057Y20869D01*
X121313Y21486D01*
Y22155D01*
X121057Y22773D01*
X120584Y23246D01*
X119966Y23502D01*
X119298D01*
X119110Y23424D01*
X114994Y27541D01*
X114745Y27707D01*
X114453Y27765D01*
X112164D01*
X112115Y28265D01*
X112229Y28287D01*
X112654Y28572D01*
X119967Y35884D01*
X120126D01*
X120744Y36140D01*
X121216Y36613D01*
X121472Y37231D01*
Y37899D01*
X121216Y38517D01*
X120744Y38990D01*
X120126Y39246D01*
X119457D01*
X118839Y38990D01*
X118366Y38517D01*
X118110Y37899D01*
Y37740D01*
X111183Y30813D01*
X88565D01*
X88452Y30925D01*
X87834Y31181D01*
X87470D01*
X87262Y31681D01*
X94541Y38959D01*
X94706Y39207D01*
X94765Y39500D01*
Y63183D01*
X97321Y65740D01*
X97999D01*
X98076Y65552D01*
X98549Y65079D01*
X99167Y64823D01*
X99836D01*
X100454Y65079D01*
X100882Y65508D01*
X101217Y65540D01*
X101448Y65531D01*
X101619Y65333D01*
X101506Y64844D01*
X101240Y64733D01*
X100767Y64260D01*
X100511Y63642D01*
Y62973D01*
X100767Y62356D01*
X101240Y61883D01*
X101858Y61627D01*
X102526D01*
X102714Y61704D01*
X108959Y55459D01*
X109207Y55294D01*
X109500Y55235D01*
X129497D01*
X129575Y55048D01*
X130048Y54575D01*
X130666Y54319D01*
X131334D01*
X131952Y54575D01*
X132425Y55048D01*
X132681Y55666D01*
Y56334D01*
X132425Y56952D01*
X132204Y57173D01*
X131999Y57500D01*
X132204Y57827D01*
X132425Y58048D01*
X132681Y58666D01*
Y59334D01*
X132425Y59952D01*
X132204Y60173D01*
X131999Y60500D01*
X132204Y60827D01*
X132425Y61048D01*
X132681Y61666D01*
Y62334D01*
X132425Y62952D01*
X132204Y63173D01*
X131999Y63500D01*
X132204Y63827D01*
X132425Y64048D01*
X132681Y64666D01*
Y65334D01*
X132425Y65952D01*
X132204Y66173D01*
X131999Y66500D01*
X132204Y66827D01*
X132425Y67048D01*
X132681Y67666D01*
Y68334D01*
X132425Y68952D01*
X132204Y69173D01*
X132192Y69192D01*
X132397Y69687D01*
X137456D01*
X161072Y46072D01*
X161498Y45787D01*
X162000Y45687D01*
X208914D01*
X209417Y45787D01*
X209842Y46072D01*
X218428Y54658D01*
X218713Y55084D01*
X218813Y55586D01*
Y61435D01*
X218925Y61548D01*
X219181Y62166D01*
Y62834D01*
X218925Y63452D01*
X218452Y63925D01*
X217834Y64181D01*
X217166D01*
X216548Y63925D01*
X216075Y63452D01*
X215819Y62834D01*
Y62166D01*
X216075Y61548D01*
X216187Y61435D01*
Y56129D01*
X208370Y48313D01*
X162544D01*
X139282Y71574D01*
X139475Y72088D01*
X139790Y72128D01*
X158959Y52959D01*
X158959Y52959D01*
X159207Y52794D01*
X159500Y52735D01*
X161497D01*
X161575Y52548D01*
X162048Y52075D01*
X162666Y51819D01*
X163334D01*
X163952Y52075D01*
X164425Y52548D01*
X164681Y53166D01*
Y53834D01*
X164425Y54452D01*
X164204Y54673D01*
X163999Y55000D01*
X164204Y55327D01*
X164425Y55548D01*
X164681Y56166D01*
Y56834D01*
X164425Y57452D01*
X164103Y57774D01*
X163975Y58008D01*
X164087Y58411D01*
X164345Y58669D01*
X164601Y59287D01*
Y59956D01*
X164345Y60574D01*
X163905Y61014D01*
X163893Y61243D01*
X163928Y61565D01*
X163952Y61575D01*
X164425Y62048D01*
X164681Y62666D01*
Y63334D01*
X164425Y63952D01*
X164204Y64173D01*
X163999Y64500D01*
X164204Y64827D01*
X164425Y65048D01*
X164681Y65666D01*
Y66334D01*
X164425Y66952D01*
X163952Y67425D01*
X163334Y67681D01*
X162666D01*
X162048Y67425D01*
X161575Y66952D01*
X161497Y66765D01*
X153317D01*
X142541Y77541D01*
X142293Y77706D01*
X142000Y77765D01*
X122978D01*
X122685Y77706D01*
X122437Y77541D01*
X120657Y75760D01*
X120469Y75838D01*
X119801D01*
X119183Y75582D01*
X118710Y75109D01*
X118454Y74491D01*
Y73822D01*
X118489Y73737D01*
X118250Y73239D01*
X117719Y73019D01*
X117246Y72546D01*
X116990Y71928D01*
Y71259D01*
X117246Y70642D01*
X117719Y70169D01*
X118156Y69988D01*
X118403Y69451D01*
X118373Y69378D01*
Y68709D01*
X118385Y68681D01*
X118192Y68392D01*
X118029Y68233D01*
X117487Y68009D01*
X117014Y67536D01*
X116758Y66918D01*
Y66249D01*
X117014Y65632D01*
X117487Y65159D01*
X118026Y64935D01*
X118195Y64768D01*
X118382Y64487D01*
X118319Y64334D01*
Y63666D01*
X118575Y63048D01*
X119048Y62575D01*
X119666Y62319D01*
X120334D01*
X120952Y62575D01*
X121425Y63048D01*
X121503Y63235D01*
X123000D01*
X123293Y63293D01*
X123541Y63459D01*
X125541Y65459D01*
X125707Y65707D01*
X125765Y66000D01*
X125765Y66000D01*
Y69441D01*
X128559Y72235D01*
X129205D01*
X129485Y71735D01*
X129319Y71334D01*
Y70666D01*
X129575Y70048D01*
X129796Y69827D01*
X130001Y69500D01*
X129796Y69173D01*
X129575Y68952D01*
X129319Y68334D01*
Y67666D01*
X129397Y67478D01*
X122683Y60765D01*
X118231D01*
X104387Y74608D01*
X104139Y74774D01*
X103847Y74832D01*
X103427D01*
X103341Y75041D01*
X102868Y75513D01*
X102250Y75769D01*
X101581D01*
X100963Y75513D01*
X100490Y75041D01*
X100235Y74423D01*
Y73754D01*
X100282Y73640D01*
X99944Y73148D01*
X99594D01*
X98976Y72892D01*
X98504Y72419D01*
X98248Y71801D01*
Y71132D01*
X98504Y70515D01*
X98976Y70042D01*
X99594Y69786D01*
X100160D01*
X100417Y69527D01*
X100522Y69352D01*
X100511Y69325D01*
Y68656D01*
X100615Y68404D01*
X100233Y68021D01*
X99836Y68185D01*
X99167D01*
X98549Y67929D01*
X98076Y67457D01*
X97999Y67269D01*
X97004D01*
X96712Y67211D01*
X96464Y67045D01*
X94227Y64808D01*
X93765Y64999D01*
Y69500D01*
X93707Y69793D01*
X93541Y70041D01*
X88999Y74583D01*
X88751Y74749D01*
X88458Y74807D01*
X87080D01*
X86890Y75264D01*
X86417Y75737D01*
X85799Y75993D01*
X85131D01*
X84513Y75737D01*
X84040Y75264D01*
X83784Y74646D01*
Y73977D01*
X84040Y73360D01*
X84513Y72887D01*
X84714Y72803D01*
X84614Y72303D01*
X80039D01*
X79746Y72245D01*
X79498Y72079D01*
X60683Y53265D01*
X50500D01*
X50500Y53265D01*
X50207Y53206D01*
X49959Y53041D01*
X43586Y46667D01*
X43420Y46419D01*
X43403Y46335D01*
X42832D01*
X42025Y46118D01*
X41302Y45701D01*
X40711Y45110D01*
X40293Y44386D01*
X40077Y43579D01*
Y42744D01*
X40293Y41937D01*
X40711Y41213D01*
X41302Y40622D01*
X42025Y40204D01*
X42832Y39988D01*
X43668D01*
X44475Y40204D01*
X45198Y40622D01*
X45789Y41213D01*
X46207Y41937D01*
X46423Y42744D01*
Y43579D01*
X46207Y44386D01*
X45789Y45110D01*
X45198Y45701D01*
X45150Y46069D01*
X50817Y51735D01*
X61000D01*
X61293Y51793D01*
X61541Y51959D01*
X80355Y70774D01*
X84100D01*
X84307Y70274D01*
X84029Y69995D01*
X83773Y69377D01*
Y68709D01*
X84029Y68091D01*
X84502Y67618D01*
X84980Y67420D01*
X85224Y66900D01*
X85174Y66779D01*
Y66110D01*
X84923Y65612D01*
X84438Y65411D01*
X83965Y64938D01*
X83709Y64320D01*
Y63652D01*
X83965Y63034D01*
X84438Y62561D01*
X84685Y62458D01*
X84971Y61843D01*
X84924Y61729D01*
Y61060D01*
X85180Y60443D01*
X85653Y59970D01*
X86271Y59714D01*
X86940D01*
X87286Y59857D01*
X89235Y57907D01*
Y41817D01*
X82683Y35265D01*
X67817D01*
X64015Y39067D01*
Y40081D01*
X64475Y40204D01*
X65198Y40622D01*
X65789Y41213D01*
X66207Y41937D01*
X66423Y42744D01*
Y43579D01*
X66207Y44386D01*
X65789Y45110D01*
X65198Y45701D01*
X64475Y46118D01*
X63668Y46335D01*
X62832D01*
X62025Y46118D01*
X61302Y45701D01*
X60711Y45110D01*
X60293Y44386D01*
X60077Y43579D01*
Y42744D01*
X60293Y41937D01*
X60711Y41213D01*
X61302Y40622D01*
X62025Y40204D01*
X62485Y40081D01*
Y38750D01*
X62543Y38457D01*
X62709Y38209D01*
X66192Y34727D01*
X66001Y34265D01*
X63228D01*
X55969Y41524D01*
X56207Y41937D01*
X56423Y42744D01*
Y43579D01*
X56207Y44386D01*
X55789Y45110D01*
X55198Y45701D01*
X54475Y46118D01*
X53668Y46335D01*
X52832D01*
X52025Y46118D01*
X51302Y45701D01*
X50711Y45110D01*
X50293Y44386D01*
X50077Y43579D01*
Y42744D01*
X50293Y41937D01*
X50711Y41213D01*
X51302Y40622D01*
X52025Y40204D01*
X52832Y39988D01*
X53668D01*
X54475Y40204D01*
X54887Y40443D01*
X61603Y33727D01*
X61412Y33265D01*
X37817D01*
X34015Y37067D01*
Y40081D01*
X34475Y40204D01*
X35198Y40622D01*
X35789Y41213D01*
X36207Y41937D01*
X36423Y42744D01*
Y43579D01*
X36207Y44386D01*
X35789Y45110D01*
X35198Y45701D01*
X34475Y46118D01*
X33668Y46335D01*
X32832D01*
X32025Y46118D01*
X31302Y45701D01*
X30711Y45110D01*
X30293Y44386D01*
X30077Y43579D01*
Y42744D01*
X30293Y41937D01*
X30711Y41213D01*
X31302Y40622D01*
X32025Y40204D01*
X32485Y40081D01*
Y36750D01*
X32544Y36457D01*
X32709Y36209D01*
X36192Y32727D01*
X36001Y32265D01*
X35228D01*
X25969Y41524D01*
X26207Y41937D01*
X26423Y42744D01*
Y43579D01*
X26207Y44386D01*
X25789Y45110D01*
X25198Y45701D01*
X24475Y46118D01*
X23668Y46335D01*
X22832D01*
X22025Y46118D01*
X21302Y45701D01*
X20711Y45110D01*
X20293Y44386D01*
X20077Y43579D01*
Y42744D01*
X20293Y41937D01*
X20711Y41213D01*
X21302Y40622D01*
X22025Y40204D01*
X22832Y39988D01*
X23668D01*
X24475Y40204D01*
X24887Y40443D01*
X33603Y31727D01*
X33412Y31265D01*
X28326D01*
X18312Y41279D01*
X18064Y41445D01*
X17771Y41503D01*
X16423D01*
Y46335D01*
X10077D01*
Y40637D01*
X9577Y40430D01*
X8513Y41494D01*
Y82415D01*
X13793Y87695D01*
X14198Y87862D01*
X14671Y88335D01*
X14926Y88953D01*
Y89622D01*
X14671Y90240D01*
X14198Y90713D01*
X13580Y90969D01*
X12911D01*
X12293Y90713D01*
X11820Y90240D01*
X11652Y89835D01*
X6137Y84319D01*
X5637Y84526D01*
Y114055D01*
X12659Y121078D01*
X30160D01*
X31137Y120101D01*
X31059Y119913D01*
Y119244D01*
X31315Y118626D01*
X31788Y118154D01*
X32406Y117898D01*
X33075D01*
X33692Y118154D01*
X34165Y118626D01*
X34421Y119244D01*
Y119913D01*
X34165Y120531D01*
X33692Y121004D01*
X33075Y121260D01*
X32406D01*
X32218Y121182D01*
X31017Y122383D01*
X30769Y122549D01*
X30476Y122607D01*
X13359D01*
X13091Y123107D01*
X13177Y123235D01*
X35500D01*
X35793Y123293D01*
X36041Y123459D01*
X42317Y129735D01*
X50497D01*
X50575Y129548D01*
X51048Y129075D01*
X51666Y128819D01*
X52334D01*
X52952Y129075D01*
X53425Y129548D01*
X53681Y130166D01*
Y130834D01*
X53425Y131452D01*
X52952Y131925D01*
X52334Y132181D01*
D02*
G37*
G36*
X52472Y127154D02*
X51803D01*
X51185Y126898D01*
X50713Y126425D01*
X50457Y125807D01*
Y125377D01*
X50344Y125265D01*
X42503D01*
X42425Y125452D01*
X41952Y125925D01*
X41334Y126181D01*
X40666D01*
X40048Y125925D01*
X39575Y125452D01*
X39319Y124834D01*
Y124166D01*
X39575Y123548D01*
X40048Y123075D01*
X40666Y122819D01*
X41334D01*
X41952Y123075D01*
X42425Y123548D01*
X42503Y123735D01*
X50661D01*
X50953Y123793D01*
X51201Y123959D01*
X51259Y124017D01*
X51803Y123792D01*
X52472D01*
X53090Y124048D01*
X53563Y124521D01*
X53819Y125138D01*
Y125807D01*
X53563Y126425D01*
X53090Y126898D01*
X52472Y127154D01*
D02*
G37*
G36*
X146819Y136213D02*
X146150D01*
X145532Y135957D01*
X145059Y135484D01*
X144803Y134866D01*
Y134197D01*
X144971Y133792D01*
Y132016D01*
X144971Y132016D01*
X145086Y131437D01*
X145414Y130946D01*
X153337Y123023D01*
X153337Y123023D01*
X153828Y122695D01*
X154407Y122580D01*
X154407Y122580D01*
X159079D01*
X159666Y122337D01*
X160334D01*
X160952Y122593D01*
X161425Y123065D01*
X161681Y123683D01*
Y124352D01*
X161425Y124970D01*
X160952Y125443D01*
X160334Y125699D01*
X159666D01*
X159442Y125606D01*
X155034D01*
X147998Y132643D01*
Y133792D01*
X148165Y134197D01*
Y134866D01*
X147909Y135484D01*
X147436Y135957D01*
X146819Y136213D01*
D02*
G37*
G36*
X140834Y132181D02*
X140166D01*
X139548Y131925D01*
X139075Y131452D01*
X138819Y130834D01*
Y130166D01*
X139075Y129548D01*
X139548Y129075D01*
X140166Y128819D01*
X140834D01*
X141452Y129075D01*
X141765Y129388D01*
X142539D01*
X158714Y113214D01*
X158714Y113214D01*
X159074Y112973D01*
X159500Y112888D01*
X169543D01*
Y102813D01*
X158544D01*
X153181Y108175D01*
Y108334D01*
X152925Y108952D01*
X152813Y109065D01*
Y109435D01*
X152925Y109548D01*
X153181Y110166D01*
Y110834D01*
X152925Y111452D01*
X152452Y111925D01*
X151834Y112181D01*
X151166D01*
X150548Y111925D01*
X150075Y111452D01*
X149819Y110834D01*
Y110166D01*
X150075Y109548D01*
X150187Y109435D01*
Y109065D01*
X150075Y108952D01*
X149819Y108334D01*
Y107666D01*
X150075Y107048D01*
X150548Y106575D01*
X151166Y106319D01*
X151325D01*
X157072Y100572D01*
X157498Y100287D01*
X158000Y100187D01*
X169543D01*
Y98500D01*
X189144D01*
X190187Y97456D01*
Y66422D01*
X190287Y65920D01*
X190572Y65494D01*
X191494Y64572D01*
X191920Y64287D01*
X192422Y64187D01*
X197157D01*
X197465Y63687D01*
X197319Y63334D01*
Y62666D01*
X197575Y62048D01*
X198048Y61575D01*
X198666Y61319D01*
X199334D01*
X199952Y61575D01*
X200425Y62048D01*
X200681Y62666D01*
Y63334D01*
X200425Y63952D01*
X200313Y64065D01*
Y64435D01*
X200425Y64548D01*
X200681Y65166D01*
Y65834D01*
X200425Y66452D01*
X199952Y66925D01*
X199334Y67181D01*
X198666D01*
X198048Y66925D01*
X197935Y66813D01*
X192966D01*
X192813Y66966D01*
Y98000D01*
X192790Y98114D01*
X193107Y98500D01*
X196000D01*
Y112888D01*
X200000D01*
X200000Y112888D01*
X200426Y112973D01*
X200786Y113214D01*
X201391Y113819D01*
X201834D01*
X202452Y114075D01*
X202925Y114548D01*
X203181Y115166D01*
Y115834D01*
X202925Y116452D01*
X202452Y116925D01*
X201834Y117181D01*
X201166D01*
X200548Y116925D01*
X200075Y116452D01*
X199819Y115834D01*
Y115391D01*
X199539Y115112D01*
X196000D01*
Y117649D01*
X169543Y117357D01*
Y115112D01*
X159961D01*
X143786Y131286D01*
X143426Y131527D01*
X143000Y131612D01*
X143000Y131612D01*
X141765D01*
X141452Y131925D01*
X140834Y132181D01*
D02*
G37*
G36*
X56000Y143013D02*
X56000Y143013D01*
X46904D01*
X46325Y142898D01*
X45834Y142570D01*
X45834Y142570D01*
X44681Y141417D01*
X44353Y140926D01*
X44238Y140347D01*
X44238Y140347D01*
Y139390D01*
X44008Y138834D01*
Y138166D01*
X44264Y137548D01*
X44737Y137075D01*
X45355Y136819D01*
X46023D01*
X46641Y137075D01*
X47114Y137548D01*
X47370Y138166D01*
Y138834D01*
X47265Y139089D01*
Y139720D01*
X47531Y139987D01*
X55373D01*
X65930Y129430D01*
X66421Y129102D01*
X67000Y128987D01*
X67000Y128987D01*
X71761D01*
X72166Y128819D01*
X72834D01*
X73239Y128987D01*
X83761D01*
X84166Y128819D01*
X84834D01*
X85239Y128987D01*
X97373D01*
X115945Y110415D01*
X115926Y109915D01*
X88000D01*
X88000Y109915D01*
X87267Y109769D01*
X86646Y109354D01*
X86646Y109354D01*
X70648Y93356D01*
X35386D01*
X35053Y93856D01*
X35181Y94166D01*
Y94834D01*
X34925Y95452D01*
X34452Y95925D01*
X34395Y95949D01*
Y100183D01*
X34475Y100204D01*
X35198Y100622D01*
X35789Y101213D01*
X36207Y101937D01*
X36423Y102744D01*
Y103579D01*
X36207Y104386D01*
X35789Y105110D01*
X35198Y105701D01*
X34475Y106118D01*
X34121Y106213D01*
Y106692D01*
X34021Y107194D01*
X33737Y107620D01*
X25248Y116108D01*
X24822Y116393D01*
X24320Y116493D01*
X24023D01*
X23759Y116756D01*
X23142Y117012D01*
X22473D01*
X21855Y116756D01*
X21742Y116643D01*
X20872D01*
X20759Y116756D01*
X20142Y117012D01*
X19473D01*
X18855Y116756D01*
X18382Y116283D01*
X18126Y115665D01*
Y114996D01*
X18382Y114378D01*
X18855Y113906D01*
X19473Y113650D01*
X20142D01*
X20759Y113906D01*
X20872Y114018D01*
X21742D01*
X21855Y113906D01*
X22473Y113650D01*
X23142D01*
X23667Y113867D01*
X23776D01*
X31380Y106263D01*
X31330Y105717D01*
X31302Y105701D01*
X30711Y105110D01*
X30293Y104386D01*
X30077Y103579D01*
Y102744D01*
X30293Y101937D01*
X30711Y101213D01*
X31302Y100622D01*
X32025Y100204D01*
X32355Y100116D01*
Y95733D01*
X32075Y95452D01*
X31819Y94834D01*
Y94166D01*
X31947Y93856D01*
X31614Y93356D01*
X25764D01*
X16413Y102706D01*
X16423Y102744D01*
Y103579D01*
X16207Y104386D01*
X15789Y105110D01*
X15198Y105701D01*
X14475Y106118D01*
X13668Y106335D01*
X12832D01*
X12025Y106118D01*
X11302Y105701D01*
X10711Y105110D01*
X10293Y104386D01*
X10077Y103579D01*
Y102744D01*
X10293Y101937D01*
X10711Y101213D01*
X11302Y100622D01*
X12025Y100204D01*
X12832Y99988D01*
X13668D01*
X13705Y99998D01*
X23617Y90087D01*
X23617Y90087D01*
X24238Y89672D01*
X24971Y89526D01*
X38114D01*
X38447Y89026D01*
X38319Y88716D01*
Y88047D01*
X38575Y87430D01*
X39048Y86957D01*
X39666Y86701D01*
X40334D01*
X40952Y86957D01*
X41183Y87187D01*
X80500D01*
X81002Y87287D01*
X81428Y87572D01*
X88133Y94277D01*
X88377D01*
X88994Y94533D01*
X89149Y94687D01*
X113456D01*
X115819Y92325D01*
Y92166D01*
X116075Y91548D01*
X116548Y91075D01*
X117166Y90819D01*
X117834D01*
X118452Y91075D01*
X118925Y91548D01*
X119181Y92166D01*
Y92834D01*
X118925Y93452D01*
X118452Y93925D01*
X117834Y94181D01*
X117675D01*
X114928Y96928D01*
X114502Y97213D01*
X114000Y97313D01*
X89065D01*
X88994Y97383D01*
X88377Y97639D01*
X87708D01*
X87090Y97383D01*
X86617Y96910D01*
X86361Y96292D01*
Y96218D01*
X79956Y89813D01*
X73228D01*
X73020Y90313D01*
X88793Y106085D01*
X117155D01*
X119976Y105959D01*
X119988Y105964D01*
X120000Y105959D01*
X120793D01*
X120817Y105969D01*
X120842Y105961D01*
X120842Y105961D01*
X120861Y105971D01*
X120882Y105966D01*
X120882Y105966D01*
X120882Y105966D01*
X120882Y105966D01*
X121016Y105989D01*
X121063Y106018D01*
X121119Y106016D01*
X121373Y106113D01*
X121413Y106151D01*
X121468Y106160D01*
X121698Y106304D01*
X121730Y106350D01*
X121782Y106369D01*
X121980Y106556D01*
X122002Y106607D01*
X122049Y106636D01*
X122096Y106702D01*
X122153Y106755D01*
X122176Y106805D01*
X122224Y106834D01*
X122381Y107052D01*
X122394Y107106D01*
X122435Y107144D01*
X122547Y107388D01*
X122549Y107444D01*
X122581Y107489D01*
X122643Y107750D01*
X122635Y107805D01*
X122658Y107856D01*
X122663Y107990D01*
X122659Y108000D01*
X122663Y108010D01*
X122663Y109949D01*
X122665Y109968D01*
X122663Y109975D01*
Y109988D01*
X122658Y110000D01*
X122668Y110023D01*
X122668Y110048D01*
X122662Y110061D01*
X122669Y110165D01*
X122660Y110192D01*
X122670Y110219D01*
X122662Y110451D01*
X122651Y110477D01*
X122658Y110504D01*
X122627Y110735D01*
X122613Y110759D01*
X122618Y110787D01*
X122564Y111014D01*
X122548Y111037D01*
X122550Y111065D01*
X122512Y111175D01*
X122460Y111235D01*
X122442Y111312D01*
X122129Y111756D01*
X122124Y111759D01*
X122123Y111764D01*
X122097Y111780D01*
X122087Y111808D01*
X121973Y111933D01*
X121923Y111957D01*
X121894Y112004D01*
X121622Y112204D01*
X121569Y112217D01*
X121531Y112259D01*
X121226Y112402D01*
X121170Y112404D01*
X121125Y112437D01*
X120798Y112518D01*
X120743Y112510D01*
X120693Y112533D01*
X120524Y112541D01*
X120512Y112536D01*
X120500Y112541D01*
X118928Y112541D01*
X118742Y112552D01*
X118715Y112543D01*
X118688Y112553D01*
X118278Y112538D01*
X118252Y112526D01*
X118224Y112533D01*
X118121Y112519D01*
X99070Y131570D01*
X98579Y131898D01*
X98000Y132013D01*
X98000Y132013D01*
X85239D01*
X84834Y132181D01*
X84166D01*
X83761Y132013D01*
X73239D01*
X72834Y132181D01*
X72166D01*
X71761Y132013D01*
X67627D01*
X57070Y142570D01*
X56579Y142898D01*
X56483Y142917D01*
X56000Y143013D01*
D02*
G37*
G36*
X23668Y106335D02*
X23500D01*
Y103411D01*
X26423D01*
Y103579D01*
X26207Y104386D01*
X25789Y105110D01*
X25198Y105701D01*
X24475Y106118D01*
X23668Y106335D01*
D02*
G37*
G36*
X23000D02*
X22832D01*
X22025Y106118D01*
X21302Y105701D01*
X20711Y105110D01*
X20293Y104386D01*
X20077Y103579D01*
Y103411D01*
X23000D01*
Y106335D01*
D02*
G37*
G36*
X52354Y136200D02*
X51685D01*
X51067Y135945D01*
X50594Y135472D01*
X50338Y134854D01*
Y134185D01*
X50594Y133567D01*
X51067Y133094D01*
X51685Y132838D01*
X52354D01*
X52971Y133094D01*
X53444Y133567D01*
X53522Y133755D01*
X55664D01*
X62891Y126528D01*
X62764Y125947D01*
X62432Y125810D01*
X61959Y125337D01*
X61703Y124719D01*
Y124050D01*
X61959Y123432D01*
X62365Y123027D01*
Y119615D01*
X62442Y119225D01*
X62664Y118895D01*
X65819Y115739D01*
Y115166D01*
X66075Y114548D01*
X66548Y114075D01*
X67166Y113819D01*
X67834D01*
X68452Y114075D01*
X68925Y114548D01*
X69181Y115166D01*
Y115834D01*
X68925Y116452D01*
X68452Y116925D01*
X67834Y117181D01*
X67261D01*
X64404Y120038D01*
Y123027D01*
X64810Y123432D01*
X64947Y123764D01*
X65527Y123891D01*
X72485Y116933D01*
Y106242D01*
X72025Y106118D01*
X71302Y105701D01*
X70711Y105110D01*
X70293Y104386D01*
X70077Y103579D01*
Y102744D01*
X70293Y101937D01*
X70711Y101213D01*
X71302Y100622D01*
X72025Y100204D01*
X72832Y99988D01*
X73668D01*
X74475Y100204D01*
X75198Y100622D01*
X75789Y101213D01*
X76207Y101937D01*
X76423Y102744D01*
Y103579D01*
X76207Y104386D01*
X75789Y105110D01*
X75198Y105701D01*
X74475Y106118D01*
X74015Y106242D01*
Y117250D01*
X73957Y117543D01*
X73791Y117791D01*
X73726Y117834D01*
X73682Y117899D01*
X56521Y135060D01*
X56273Y135226D01*
X55981Y135284D01*
X53522D01*
X53444Y135472D01*
X52971Y135945D01*
X52354Y136200D01*
D02*
G37*
G36*
X63668Y106335D02*
X62832D01*
X62025Y106118D01*
X61302Y105701D01*
X60711Y105110D01*
X60293Y104386D01*
X60077Y103579D01*
Y102744D01*
X60293Y101937D01*
X60711Y101213D01*
X61302Y100622D01*
X62025Y100204D01*
X62832Y99988D01*
X63668D01*
X64475Y100204D01*
X65198Y100622D01*
X65789Y101213D01*
X66207Y101937D01*
X66423Y102744D01*
Y103579D01*
X66207Y104386D01*
X65789Y105110D01*
X65198Y105701D01*
X64475Y106118D01*
X63668Y106335D01*
D02*
G37*
G36*
X53668D02*
X52832D01*
X52025Y106118D01*
X51302Y105701D01*
X50711Y105110D01*
X50293Y104386D01*
X50077Y103579D01*
Y102744D01*
X50293Y101937D01*
X50711Y101213D01*
X51302Y100622D01*
X52025Y100204D01*
X52832Y99988D01*
X53668D01*
X54475Y100204D01*
X55198Y100622D01*
X55789Y101213D01*
X56207Y101937D01*
X56423Y102744D01*
Y103579D01*
X56207Y104386D01*
X55789Y105110D01*
X55198Y105701D01*
X54475Y106118D01*
X53668Y106335D01*
D02*
G37*
G36*
X43668D02*
X42832D01*
X42025Y106118D01*
X41302Y105701D01*
X40711Y105110D01*
X40293Y104386D01*
X40077Y103579D01*
Y102744D01*
X40293Y101937D01*
X40711Y101213D01*
X41302Y100622D01*
X42025Y100204D01*
X42832Y99988D01*
X43668D01*
X44475Y100204D01*
X45198Y100622D01*
X45789Y101213D01*
X46207Y101937D01*
X46423Y102744D01*
Y103579D01*
X46207Y104386D01*
X45789Y105110D01*
X45198Y105701D01*
X44475Y106118D01*
X43668Y106335D01*
D02*
G37*
G36*
X26423Y102911D02*
X23500D01*
Y99988D01*
X23668D01*
X24475Y100204D01*
X25198Y100622D01*
X25789Y101213D01*
X26207Y101937D01*
X26423Y102744D01*
Y102911D01*
D02*
G37*
G36*
X23000D02*
X20077D01*
Y102744D01*
X20293Y101937D01*
X20711Y101213D01*
X21302Y100622D01*
X22025Y100204D01*
X22832Y99988D01*
X23000D01*
Y102911D01*
D02*
G37*
G36*
X208876Y93476D02*
X208124D01*
X207398Y93282D01*
X206747Y92906D01*
X206216Y92375D01*
X205840Y91724D01*
X205646Y90998D01*
Y90246D01*
X205840Y89520D01*
X206216Y88869D01*
X206747Y88338D01*
X207398Y87962D01*
X208124Y87768D01*
X208876D01*
X209602Y87962D01*
X210253Y88338D01*
X210784Y88869D01*
X211160Y89520D01*
X211354Y90246D01*
Y90998D01*
X211160Y91724D01*
X210784Y92375D01*
X210253Y92906D01*
X209602Y93282D01*
X208876Y93476D01*
D02*
G37*
G36*
X102876D02*
X102124D01*
X101398Y93282D01*
X100747Y92906D01*
X100216Y92375D01*
X99840Y91724D01*
X99646Y90998D01*
Y90246D01*
X99840Y89520D01*
X100216Y88869D01*
X100747Y88338D01*
X101398Y87962D01*
X102124Y87768D01*
X102876D01*
X103602Y87962D01*
X104253Y88338D01*
X104784Y88869D01*
X105160Y89520D01*
X105354Y90246D01*
Y90998D01*
X105160Y91724D01*
X104784Y92375D01*
X104253Y92906D01*
X103602Y93282D01*
X102876Y93476D01*
D02*
G37*
G36*
X95334Y105181D02*
X94666D01*
X94048Y104925D01*
X93575Y104452D01*
X93319Y103834D01*
Y103166D01*
X93575Y102548D01*
X94048Y102075D01*
X94666Y101819D01*
X95334D01*
X95952Y102075D01*
X96358Y102480D01*
X131345D01*
X148087Y85739D01*
Y85166D01*
X148343Y84548D01*
X148816Y84075D01*
X149433Y83819D01*
X150102D01*
X150720Y84075D01*
X151193Y84548D01*
X151449Y85166D01*
Y85834D01*
X151193Y86452D01*
X150720Y86925D01*
X150102Y87181D01*
X149529D01*
X132489Y104221D01*
X132158Y104442D01*
X131768Y104520D01*
X96358D01*
X95952Y104925D01*
X95334Y105181D01*
D02*
G37*
G36*
X162834Y74181D02*
X162166D01*
X161548Y73925D01*
X161075Y73452D01*
X160819Y72834D01*
Y72166D01*
X161075Y71548D01*
X161548Y71075D01*
X162166Y70819D01*
X162834D01*
X163452Y71075D01*
X163925Y71548D01*
X164181Y72166D01*
Y72834D01*
X163925Y73452D01*
X163452Y73925D01*
X162834Y74181D01*
D02*
G37*
G36*
X208876Y57965D02*
X208124D01*
X207398Y57770D01*
X206747Y57394D01*
X206216Y56863D01*
X205840Y56212D01*
X205646Y55486D01*
Y54734D01*
X205840Y54009D01*
X206216Y53358D01*
X206747Y52826D01*
X207398Y52450D01*
X208124Y52256D01*
X208876D01*
X209602Y52450D01*
X210253Y52826D01*
X210784Y53358D01*
X211160Y54009D01*
X211354Y54734D01*
Y55486D01*
X211160Y56212D01*
X210784Y56863D01*
X210253Y57394D01*
X209602Y57770D01*
X208876Y57965D01*
D02*
G37*
G36*
X102876D02*
X102124D01*
X101398Y57770D01*
X100747Y57394D01*
X100216Y56863D01*
X99840Y56212D01*
X99646Y55486D01*
Y54734D01*
X99840Y54009D01*
X100216Y53358D01*
X100747Y52826D01*
X101398Y52450D01*
X102124Y52256D01*
X102876D01*
X103602Y52450D01*
X104253Y52826D01*
X104784Y53358D01*
X105160Y54009D01*
X105354Y54734D01*
Y55486D01*
X105160Y56212D01*
X104784Y56863D01*
X104253Y57394D01*
X103602Y57770D01*
X102876Y57965D01*
D02*
G37*
G36*
X42377Y55362D02*
X41623D01*
X40895Y55167D01*
X40243Y54790D01*
X39710Y54257D01*
X39333Y53605D01*
X39138Y52877D01*
Y52123D01*
X39333Y51395D01*
X39710Y50743D01*
X40243Y50210D01*
X40895Y49833D01*
X41623Y49638D01*
X42377D01*
X43105Y49833D01*
X43757Y50210D01*
X44290Y50743D01*
X44667Y51395D01*
X44862Y52123D01*
Y52877D01*
X44667Y53605D01*
X44290Y54257D01*
X43757Y54790D01*
X43105Y55167D01*
X42377Y55362D01*
D02*
G37*
G36*
X34877D02*
X34123D01*
X33395Y55167D01*
X32743Y54790D01*
X32210Y54257D01*
X31833Y53605D01*
X31638Y52877D01*
Y52123D01*
X31833Y51395D01*
X32210Y50743D01*
X32743Y50210D01*
X33395Y49833D01*
X34123Y49638D01*
X34877D01*
X35605Y49833D01*
X36257Y50210D01*
X36790Y50743D01*
X37167Y51395D01*
X37362Y52123D01*
Y52877D01*
X37167Y53605D01*
X36790Y54257D01*
X36257Y54790D01*
X35605Y55167D01*
X34877Y55362D01*
D02*
G37*
G36*
X73668Y46335D02*
X72832D01*
X72025Y46118D01*
X71302Y45701D01*
X70711Y45110D01*
X70293Y44386D01*
X70077Y43579D01*
Y42744D01*
X70293Y41937D01*
X70711Y41213D01*
X71302Y40622D01*
X72025Y40204D01*
X72832Y39988D01*
X73668D01*
X74475Y40204D01*
X75198Y40622D01*
X75789Y41213D01*
X76207Y41937D01*
X76423Y42744D01*
Y43579D01*
X76207Y44386D01*
X75789Y45110D01*
X75198Y45701D01*
X74475Y46118D01*
X73668Y46335D01*
D02*
G37*
G36*
X82334Y50681D02*
X81666D01*
X81048Y50425D01*
X80575Y49952D01*
X80319Y49334D01*
Y48666D01*
X80575Y48048D01*
X80980Y47642D01*
Y41858D01*
X80575Y41452D01*
X80319Y40834D01*
Y40166D01*
X80575Y39548D01*
X81048Y39075D01*
X81666Y38819D01*
X82334D01*
X82952Y39075D01*
X83425Y39548D01*
X83681Y40166D01*
Y40834D01*
X83425Y41452D01*
X83020Y41858D01*
Y47642D01*
X83425Y48048D01*
X83681Y48666D01*
Y49334D01*
X83425Y49952D01*
X82952Y50425D01*
X82334Y50681D01*
D02*
G37*
G36*
X4461Y33000D02*
X4250D01*
Y29750D01*
X7500D01*
Y29961D01*
X7261Y30851D01*
X6801Y31649D01*
X6149Y32301D01*
X5351Y32761D01*
X4461Y33000D01*
D02*
G37*
G36*
X7500Y29250D02*
X4250D01*
Y26000D01*
X4461D01*
X5351Y26239D01*
X6149Y26699D01*
X6801Y27351D01*
X7261Y28149D01*
X7500Y29039D01*
Y29250D01*
D02*
G37*
G36*
X172334Y28512D02*
X171666D01*
X171048Y28256D01*
X170575Y27783D01*
X170407Y27378D01*
X162605Y19576D01*
X107563D01*
X106984Y19461D01*
X106493Y19133D01*
X106493Y19133D01*
X100953Y13593D01*
X100548Y13425D01*
X100075Y12952D01*
X99819Y12334D01*
Y11666D01*
X100075Y11048D01*
X100548Y10575D01*
X101166Y10319D01*
X101834D01*
X102452Y10575D01*
X102925Y11048D01*
X103093Y11453D01*
X108190Y16550D01*
X163232D01*
X163232Y16550D01*
X163811Y16665D01*
X164302Y16993D01*
X172547Y25238D01*
X172952Y25405D01*
X173425Y25878D01*
X173681Y26496D01*
Y27165D01*
X173425Y27783D01*
X172952Y28256D01*
X172334Y28512D01*
D02*
G37*
G36*
X79200Y16547D02*
X78531D01*
X77913Y16291D01*
X77440Y15818D01*
X77184Y15200D01*
Y14626D01*
X75578Y13020D01*
X69858D01*
X69452Y13425D01*
X68834Y13681D01*
X68166D01*
X67548Y13425D01*
X67075Y12952D01*
X66819Y12334D01*
Y11666D01*
X67075Y11048D01*
X67548Y10575D01*
X68166Y10319D01*
X68834D01*
X69452Y10575D01*
X69858Y10980D01*
X76000D01*
X76390Y11058D01*
X76721Y11279D01*
X78626Y13184D01*
X79200D01*
X79818Y13440D01*
X80291Y13913D01*
X80547Y14531D01*
Y15200D01*
X80291Y15818D01*
X79818Y16291D01*
X79200Y16547D01*
D02*
G37*
G36*
X184996Y38681D02*
X184327D01*
X183709Y38425D01*
X183236Y37952D01*
X182980Y37334D01*
Y36666D01*
X183236Y36048D01*
X183642Y35642D01*
Y33084D01*
X178779Y28221D01*
X178558Y27890D01*
X178480Y27500D01*
Y18696D01*
X175926Y16142D01*
X175353D01*
X174735Y15886D01*
X174262Y15413D01*
X174006Y14795D01*
Y14126D01*
X174262Y13508D01*
X174735Y13036D01*
X175353Y12780D01*
X176022D01*
X176639Y13036D01*
X177112Y13508D01*
X177368Y14126D01*
Y14700D01*
X180221Y17552D01*
X180442Y17883D01*
X180520Y18273D01*
Y27078D01*
X185382Y31940D01*
X185603Y32271D01*
X185681Y32661D01*
Y35642D01*
X186087Y36048D01*
X186343Y36666D01*
Y37334D01*
X186087Y37952D01*
X185614Y38425D01*
X184996Y38681D01*
D02*
G37*
G36*
X219192Y15098D02*
X218754D01*
Y10124D01*
X223728D01*
Y10562D01*
X223372Y11891D01*
X222685Y13082D01*
X221712Y14055D01*
X220520Y14742D01*
X219192Y15098D01*
D02*
G37*
G36*
X218254D02*
X217816D01*
X216487Y14742D01*
X215296Y14055D01*
X214323Y13082D01*
X213636Y11891D01*
X213280Y10562D01*
Y10124D01*
X218254D01*
Y15098D01*
D02*
G37*
G36*
X10562D02*
X10124D01*
Y10124D01*
X15098D01*
Y10562D01*
X14742Y11891D01*
X14055Y13082D01*
X13082Y14055D01*
X11891Y14742D01*
X10562Y15098D01*
D02*
G37*
G36*
X9624D02*
X9186D01*
X7858Y14742D01*
X6666Y14055D01*
X5693Y13082D01*
X5006Y11891D01*
X4650Y10562D01*
Y10124D01*
X9624D01*
Y15098D01*
D02*
G37*
G36*
X204334Y8681D02*
X203666D01*
X203048Y8425D01*
X202575Y7952D01*
X202319Y7334D01*
Y6666D01*
X202575Y6048D01*
X203048Y5575D01*
X203666Y5319D01*
X204334D01*
X204952Y5575D01*
X205425Y6048D01*
X205681Y6666D01*
Y7334D01*
X205425Y7952D01*
X204952Y8425D01*
X204334Y8681D01*
D02*
G37*
G36*
X223728Y9624D02*
X218754D01*
Y4650D01*
X219192D01*
X220520Y5006D01*
X221712Y5693D01*
X222685Y6666D01*
X223372Y7858D01*
X223728Y9186D01*
Y9624D01*
D02*
G37*
G36*
X218254D02*
X213280D01*
Y9186D01*
X213636Y7858D01*
X214323Y6666D01*
X215296Y5693D01*
X216487Y5006D01*
X217816Y4650D01*
X218254D01*
Y9624D01*
D02*
G37*
G36*
X15098D02*
X10124D01*
Y4650D01*
X10562D01*
X11891Y5006D01*
X13082Y5693D01*
X14055Y6666D01*
X14742Y7858D01*
X15098Y9186D01*
Y9624D01*
D02*
G37*
G36*
X9624D02*
X4650D01*
Y9186D01*
X5006Y7858D01*
X5693Y6666D01*
X6666Y5693D01*
X7858Y5006D01*
X9186Y4650D01*
X9624D01*
Y9624D01*
D02*
G37*
%LPD*%
G36*
X116192Y59227D02*
X116001Y58765D01*
X113499D01*
X103795Y68469D01*
X103873Y68656D01*
Y69325D01*
X103617Y69943D01*
X103358Y70202D01*
X103565Y70702D01*
X104716D01*
X116192Y59227D01*
D02*
G37*
G36*
X36500Y19500D02*
X34000D01*
Y24500D01*
X36500D01*
Y19500D01*
D02*
G37*
G36*
X118914Y112000D02*
X118914Y112000D01*
X120500Y112000D01*
X120668Y111992D01*
X120996Y111912D01*
X121301Y111768D01*
X121573Y111568D01*
X121687Y111444D01*
X121687Y111444D01*
X122000Y111000D01*
X122038Y110890D01*
X122091Y110664D01*
X122121Y110433D01*
X122129Y110201D01*
X122122Y110085D01*
X122122Y110085D01*
X122124Y110073D01*
X122127Y110048D01*
X122127Y110024D01*
X122124Y110000D01*
X122122Y109988D01*
X122122Y109988D01*
X122122Y108010D01*
X122117Y107875D01*
X122055Y107614D01*
X121943Y107369D01*
X121785Y107151D01*
X121687Y107060D01*
X121687Y107060D01*
X121608Y106949D01*
X121411Y106763D01*
X121181Y106619D01*
X120927Y106522D01*
X120793Y106500D01*
X120000D01*
X116750Y106645D01*
X116735Y106699D01*
X116690Y106800D01*
X116626Y106891D01*
X116546Y106968D01*
X116500Y107000D01*
X116500Y107000D01*
X116623Y107780D01*
X116594Y107809D01*
X116548Y107878D01*
X116516Y107954D01*
X116500Y108036D01*
X116500Y108077D01*
Y108077D01*
X116500Y111000D01*
X116579Y111116D01*
X116760Y111330D01*
X116960Y111525D01*
X117179Y111700D01*
X117297Y111777D01*
X117297Y111777D01*
X117491Y111845D01*
X117891Y111941D01*
X118298Y111997D01*
X118709Y112012D01*
X118914Y112000D01*
D02*
G37*
G36*
X120793Y106500D02*
X120793Y106500D01*
X120793D01*
X120793Y106500D01*
D02*
G37*
D106*
X109500Y56000D02*
X131000D01*
X102192Y63308D02*
X109500Y56000D01*
X118439Y66584D02*
X122084D01*
X124000Y68500D01*
X158000Y56500D02*
X163000D01*
X140500Y74000D02*
X158000Y56500D01*
X127828Y74000D02*
X140500D01*
X124000Y68500D02*
Y70172D01*
X127828Y74000D01*
X99502Y66504D02*
X99545Y66461D01*
X101770D02*
X111231Y57000D01*
X99545Y66461D02*
X101770D01*
X94000Y63500D02*
X97004Y66504D01*
X99502D01*
X17771Y40738D02*
X28009Y30500D01*
X85000D01*
X13250Y43161D02*
X15673Y40738D01*
X17771D01*
X94000Y39500D02*
Y63500D01*
X85000Y30500D02*
X94000Y39500D01*
X129000Y57000D02*
X131000Y59000D01*
X111231Y57000D02*
X129000D01*
X85454Y69043D02*
X85520Y68977D01*
X88023D01*
X102192Y68991D02*
X113182Y58000D01*
X127000D01*
X88023Y68977D02*
X92000Y65000D01*
X37500Y32500D02*
X84000D01*
X33250Y36750D02*
X37500Y32500D01*
X33250Y36750D02*
Y43161D01*
X84000Y32500D02*
X92000Y40500D01*
Y65000D01*
X127000Y58000D02*
X131000Y62000D01*
X121621Y69207D02*
X127414Y75000D01*
X120054Y69043D02*
X120217Y69207D01*
X121621D01*
X141000Y75000D02*
X156378Y59622D01*
X162920D01*
X127414Y75000D02*
X141000D01*
X86714Y71539D02*
X86763Y71588D01*
X80039Y71539D02*
X86714D01*
X99929Y71467D02*
X105033D01*
X117500Y59000D01*
X61000Y52500D02*
X80039Y71539D01*
X44126Y44038D02*
Y46126D01*
X43250Y43161D02*
X44126Y44038D01*
X125000Y59000D02*
X131000Y65000D01*
X117500Y59000D02*
X125000D01*
X50500Y52500D02*
X61000D01*
X44126Y46126D02*
X50500Y52500D01*
X118671Y71594D02*
X118834Y71431D01*
X122431D01*
X127000Y76000D01*
X154500Y63000D02*
X163000D01*
X141500Y76000D02*
X154500Y63000D01*
X127000Y76000D02*
X141500D01*
X90000Y41500D02*
Y58224D01*
X86605Y61395D02*
X86830D01*
X90000Y58224D01*
X63250Y38750D02*
X67500Y34500D01*
X83000D01*
X63250Y38750D02*
Y43161D01*
X83000Y34500D02*
X90000Y41500D01*
X85390Y63986D02*
X87705D01*
X91000Y60691D01*
X62911Y33500D02*
X83586D01*
X53250Y43161D02*
X62911Y33500D01*
X91000Y40914D02*
Y60691D01*
X83586Y33500D02*
X91000Y40914D01*
X120000Y64000D02*
X123000D01*
X125000Y66000D01*
X159500Y53500D02*
X163000D01*
X140000Y73000D02*
X159500Y53500D01*
X125000Y66000D02*
Y69757D01*
X128243Y73000D02*
X140000D01*
X125000Y69757D02*
X128243Y73000D01*
X120135Y74157D02*
X122978Y77000D01*
X142000D01*
X153000Y66000D02*
X163000D01*
X142000Y77000D02*
X153000Y66000D01*
X101916Y74088D02*
X101937Y74067D01*
X103847D01*
X117914Y60000D01*
X85735Y74042D02*
X88458D01*
X85465Y74312D02*
X85735Y74042D01*
X88458D02*
X93000Y69500D01*
X34911Y31500D02*
X84500D01*
X23250Y43161D02*
X34911Y31500D01*
X84500D02*
X93000Y40000D01*
Y69500D01*
X123000Y60000D02*
X131000Y68000D01*
X117914Y60000D02*
X123000D01*
X73250Y103161D02*
Y117250D01*
X3872Y40128D02*
X27000Y17000D01*
X61000D01*
X27345Y18069D02*
X55569D01*
X56431Y18931D01*
X94514D01*
X4872Y40542D02*
X27345Y18069D01*
X94514Y18931D02*
X98583Y23000D01*
X52019Y134519D02*
X55981D01*
X73142Y117358D01*
X12500Y124000D02*
X35500D01*
X3872Y115372D02*
X12500Y124000D01*
X35500D02*
X42000Y130500D01*
X4872Y114372D02*
X12342Y121843D01*
X30476D02*
X32740Y119579D01*
X12342Y121843D02*
X30476D01*
X3872Y40128D02*
Y115372D01*
X4872Y40542D02*
Y114372D01*
X139643Y140500D02*
X141500D01*
X131143Y132000D02*
X139643Y140500D01*
X104500Y132000D02*
X131143D01*
X51634Y125473D02*
X52138D01*
X50661Y124500D02*
X51634Y125473D01*
X41000Y124500D02*
X50661D01*
X42000Y130500D02*
X52000D01*
X68598Y27000D02*
X114453D01*
X68500Y26902D02*
X68598Y27000D01*
X114453D02*
X119632Y21821D01*
D107*
X72500Y130500D02*
X84500D01*
X24367Y23500D02*
X35000D01*
X7000Y40867D02*
Y83042D01*
Y40867D02*
X24367Y23500D01*
X84500Y130500D02*
X98000D01*
X67000D02*
X72500D01*
X7000Y83042D02*
X13245Y89288D01*
X56000Y141500D02*
X67000Y130500D01*
X98000D02*
X118000Y110500D01*
X45751Y140347D02*
X46904Y141500D01*
X45689Y138500D02*
X45751Y138562D01*
X46904Y141500D02*
X56000D01*
X45751Y138562D02*
Y140347D01*
X107563Y18063D02*
X163232D01*
X172000Y26831D01*
X101500Y12000D02*
X107563Y18063D01*
X159925Y124093D02*
X160000Y124018D01*
X154407Y124093D02*
X159925D01*
X146484Y132016D02*
X154407Y124093D01*
X146484Y132016D02*
Y134531D01*
D108*
X179500Y27500D02*
X184661Y32661D01*
X179500Y18273D02*
Y27500D01*
X184661Y32661D02*
Y37000D01*
X33375Y94625D02*
X33500Y94500D01*
X33375Y94625D02*
Y103036D01*
X33250Y103161D02*
X33375Y103036D01*
X175687Y14461D02*
X179500Y18273D01*
X63384Y119615D02*
X67500Y115500D01*
X63384Y119615D02*
Y124384D01*
X76000Y12000D02*
X78865Y14865D01*
X131768Y103500D02*
X149768Y85500D01*
X95000Y103500D02*
X131768D01*
X68500Y12000D02*
X76000D01*
X82000Y40500D02*
Y49000D01*
D109*
X192422Y65500D02*
X199000D01*
X191500Y66422D02*
X192422Y65500D01*
X191500Y66422D02*
Y98000D01*
X199000Y63000D02*
Y65500D01*
X151500Y108000D02*
Y110500D01*
X87500Y29500D02*
X111726D01*
X119791Y37565D01*
X151500Y108000D02*
X158000Y101500D01*
X188000D01*
X191500Y98000D01*
X80500Y88500D02*
X87958Y95958D01*
X88042D01*
Y96000D02*
X114000D01*
X40118Y88500D02*
X80500D01*
X40000Y88382D02*
X40118Y88500D01*
X162000Y47000D02*
X208914D01*
X138000Y71000D02*
X162000Y47000D01*
X208914D02*
X217500Y55586D01*
Y62500D01*
X114000Y96000D02*
X117500Y92500D01*
X131000Y71000D02*
X138000D01*
X24320Y115180D02*
X32809Y106692D01*
Y103603D02*
Y106692D01*
X22958Y115180D02*
X24320D01*
X22807Y115331D02*
X22958Y115180D01*
X32809Y103603D02*
X33250Y103161D01*
X19807Y115331D02*
X22807D01*
D111*
X159500Y114000D02*
X200000D01*
X201500Y115500D01*
X143000Y130500D02*
X159500Y114000D01*
X140500Y130500D02*
X143000D01*
D112*
X33250Y103161D02*
D03*
X53250D02*
D03*
X73250Y43161D02*
D03*
X43250Y103161D02*
D03*
X63250D02*
D03*
X73250D02*
D03*
X23250Y43161D02*
D03*
X13250Y103161D02*
D03*
X23250D02*
D03*
X53250Y43161D02*
D03*
X63250D02*
D03*
X43250D02*
D03*
X33250D02*
D03*
D113*
X13250D02*
D03*
D114*
X102500Y90622D02*
D03*
Y55110D02*
D03*
X208500Y90622D02*
D03*
Y55110D02*
D03*
D115*
X9874Y9874D02*
D03*
X218504Y135827D02*
D03*
Y9874D02*
D03*
X9843Y135827D02*
D03*
D116*
X4000Y29500D02*
D03*
Y21000D02*
D03*
D117*
X42000Y52500D02*
D03*
X34500D02*
D03*
D118*
X204000Y7000D02*
D03*
X118439Y66584D02*
D03*
X163000Y56500D02*
D03*
X86855Y66445D02*
D03*
X99502Y66504D02*
D03*
X131000Y59000D02*
D03*
X85454Y69043D02*
D03*
X102192Y68991D02*
D03*
X131000Y62000D02*
D03*
X120054Y69043D02*
D03*
X162920Y59622D02*
D03*
X86763Y71588D02*
D03*
X99929Y71467D02*
D03*
X131000Y65000D02*
D03*
X118671Y71594D02*
D03*
X163000Y63000D02*
D03*
X86605Y61395D02*
D03*
X102192Y63308D02*
D03*
X85390Y63986D02*
D03*
X131000Y56000D02*
D03*
X43500Y20000D02*
D03*
X40000Y23500D02*
D03*
X43500D02*
D03*
X29000Y118500D02*
D03*
X43000Y122000D02*
D03*
X60000Y120500D02*
D03*
X51083Y137902D02*
D03*
X40000Y20000D02*
D03*
X48000Y126569D02*
D03*
X197500Y111500D02*
D03*
X199000Y63000D02*
D03*
Y65500D02*
D03*
X35000Y20500D02*
D03*
Y23500D02*
D03*
X119791Y37565D02*
D03*
X120500Y108000D02*
D03*
X118000D02*
D03*
X120500Y110500D02*
D03*
X118000D02*
D03*
X151500D02*
D03*
Y108000D02*
D03*
X72500Y130500D02*
D03*
X87500Y29500D02*
D03*
X13245Y89288D02*
D03*
X45689Y138500D02*
D03*
X84500Y130500D02*
D03*
X162500Y72500D02*
D03*
X188000Y101500D02*
D03*
X120000Y64000D02*
D03*
X163000Y53500D02*
D03*
X120135Y74157D02*
D03*
X163000Y66000D02*
D03*
X101916Y74088D02*
D03*
X85465Y74312D02*
D03*
X131000Y68000D02*
D03*
X172000Y26831D02*
D03*
X101500Y12000D02*
D03*
X88042Y95958D02*
D03*
X40000Y88382D02*
D03*
X33500Y94500D02*
D03*
X22807Y115331D02*
D03*
X131000Y71000D02*
D03*
X217500Y62500D02*
D03*
X117500Y92500D02*
D03*
X19807Y115331D02*
D03*
X61000Y17000D02*
D03*
X184661Y37000D02*
D03*
X63384Y124384D02*
D03*
X32740Y119579D02*
D03*
X146484Y134531D02*
D03*
X104500Y132000D02*
D03*
X141500Y140500D02*
D03*
X201500Y115500D02*
D03*
X140500Y130500D02*
D03*
X52019Y134519D02*
D03*
X78865Y14865D02*
D03*
X52138Y125473D02*
D03*
X52000Y130500D02*
D03*
X41000Y124500D02*
D03*
X160000Y124018D02*
D03*
X67500Y115500D02*
D03*
X149768Y85500D02*
D03*
X95000Y103500D02*
D03*
X68500Y12000D02*
D03*
X82000Y40500D02*
D03*
Y49000D02*
D03*
X68500Y26902D02*
D03*
X98583Y23000D02*
D03*
X119632Y21821D02*
D03*
X175687Y14461D02*
D03*
D119*
X13250Y103161D02*
X24971Y91441D01*
X71441D01*
X88000Y108000D01*
X118000D01*
M02*
