G04*
G04 #@! TF.GenerationSoftware,Altium Limited,Altium Designer,25.8.1 (18)*
G04*
G04 Layer_Color=8388736*
%FSLAX25Y25*%
%MOIN*%
G70*
G04*
G04 #@! TF.SameCoordinates,7BC79302-CBF9-451D-A937-AA54D13297B7*
G04*
G04*
G04 #@! TF.FilePolarity,Negative*
G04*
G01*
G75*
%ADD21R,0.01968X0.02362*%
%ADD25R,0.01860X0.01843*%
%ADD38R,0.03175X0.05151*%
%ADD39R,0.02029X0.01860*%
%ADD40R,0.02631X0.02648*%
%ADD41R,0.03150X0.02362*%
%ADD42R,0.05544X0.03963*%
G04:AMPARAMS|DCode=45|XSize=59.06mil|YSize=17.72mil|CornerRadius=1.95mil|HoleSize=0mil|Usage=FLASHONLY|Rotation=0.000|XOffset=0mil|YOffset=0mil|HoleType=Round|Shape=RoundedRectangle|*
%AMROUNDEDRECTD45*
21,1,0.05906,0.01382,0,0,0.0*
21,1,0.05516,0.01772,0,0,0.0*
1,1,0.00390,0.02758,-0.00691*
1,1,0.00390,-0.02758,-0.00691*
1,1,0.00390,-0.02758,0.00691*
1,1,0.00390,0.02758,0.00691*
%
%ADD45ROUNDEDRECTD45*%
%ADD58R,0.01860X0.02029*%
%ADD61R,0.08465X0.04724*%
%ADD62R,0.03740X0.06496*%
%ADD63R,0.02953X0.04724*%
%ADD64R,0.02953X0.03740*%
%ADD65R,0.10433X0.01968*%
%ADD66R,0.02559X0.02953*%
%ADD67R,0.04410X0.06378*%
%ADD68R,0.02953X0.03347*%
%ADD69R,0.02559X0.02461*%
%ADD70R,0.03780X0.11693*%
%ADD71R,0.05937X0.10433*%
G04:AMPARAMS|DCode=72|XSize=76.77mil|YSize=37.4mil|CornerRadius=10.83mil|HoleSize=0mil|Usage=FLASHONLY|Rotation=90.000|XOffset=0mil|YOffset=0mil|HoleType=Round|Shape=RoundedRectangle|*
%AMROUNDEDRECTD72*
21,1,0.07677,0.01575,0,0,90.0*
21,1,0.05512,0.03740,0,0,90.0*
1,1,0.02165,0.00787,0.02756*
1,1,0.02165,0.00787,-0.02756*
1,1,0.02165,-0.00787,-0.02756*
1,1,0.02165,-0.00787,0.02756*
%
%ADD72ROUNDEDRECTD72*%
%ADD73R,0.03583X0.03425*%
%ADD74R,0.02953X0.02559*%
%ADD75R,0.09252X0.05315*%
%ADD76R,0.25787X0.23425*%
%ADD77R,0.06201X0.01772*%
%ADD78R,0.07205X0.07992*%
%ADD79R,0.08465X0.10433*%
%ADD80R,0.06378X0.04410*%
G04:AMPARAMS|DCode=81|XSize=27.56mil|YSize=55.12mil|CornerRadius=4.9mil|HoleSize=0mil|Usage=FLASHONLY|Rotation=90.000|XOffset=0mil|YOffset=0mil|HoleType=Round|Shape=RoundedRectangle|*
%AMROUNDEDRECTD81*
21,1,0.02756,0.04532,0,0,90.0*
21,1,0.01776,0.05512,0,0,90.0*
1,1,0.00980,0.02266,0.00888*
1,1,0.00980,0.02266,-0.00888*
1,1,0.00980,-0.02266,-0.00888*
1,1,0.00980,-0.02266,0.00888*
%
%ADD81ROUNDEDRECTD81*%
%ADD82R,0.04528X0.02756*%
%ADD83R,0.02953X0.03032*%
%ADD84R,0.04134X0.04331*%
%ADD85R,0.03740X0.06890*%
%ADD86R,0.08858X0.12402*%
%ADD87R,0.02362X0.06102*%
%ADD88R,0.08465X0.06496*%
%ADD89R,0.06299X0.04528*%
%ADD90R,0.02362X0.02953*%
%ADD91R,0.06063X0.04173*%
%ADD92R,0.03347X0.02953*%
%ADD93R,0.02953X0.05118*%
%ADD94R,0.03032X0.02953*%
%ADD95R,0.06598X0.03150*%
%ADD96R,0.03150X0.05315*%
%ADD97R,0.03150X0.04921*%
%ADD98C,0.05937*%
%ADD99R,0.05937X0.05937*%
%ADD100C,0.02461*%
%ADD101C,0.10039*%
%ADD102C,0.06591*%
%ADD103C,0.05315*%
D21*
X70969Y136000D02*
D03*
X67032D02*
D03*
D25*
X141484Y138083D02*
D03*
Y134917D02*
D03*
D38*
X91650Y17000D02*
D03*
X98350D02*
D03*
D39*
X62990Y136000D02*
D03*
X60010D02*
D03*
D40*
X165523Y37000D02*
D03*
X169477D02*
D03*
D41*
X158362Y129484D02*
D03*
X153638D02*
D03*
D42*
X134500Y18257D02*
D03*
Y25743D02*
D03*
D45*
X158335Y57059D02*
D03*
X135500Y59618D02*
D03*
Y62177D02*
D03*
X158335Y59618D02*
D03*
X135500Y64736D02*
D03*
X158335Y62177D02*
D03*
X135500Y57059D02*
D03*
X158335Y67295D02*
D03*
Y44264D02*
D03*
X135500Y51941D02*
D03*
Y49382D02*
D03*
Y54500D02*
D03*
Y44264D02*
D03*
Y46823D02*
D03*
X158335Y69854D02*
D03*
Y72413D02*
D03*
Y54500D02*
D03*
Y64736D02*
D03*
X135500Y67295D02*
D03*
X158335Y51941D02*
D03*
Y49382D02*
D03*
Y46823D02*
D03*
X135500Y72413D02*
D03*
Y69854D02*
D03*
D58*
X34500Y139490D02*
D03*
Y136510D02*
D03*
D61*
X223220Y28563D02*
D03*
Y36437D02*
D03*
X200780Y28563D02*
D03*
Y36437D02*
D03*
D62*
X201244Y5500D02*
D03*
X196126D02*
D03*
D63*
X172000Y26831D02*
D03*
X144500D02*
D03*
X158500D02*
D03*
X162240Y18169D02*
D03*
X154760D02*
D03*
X148240D02*
D03*
X140760D02*
D03*
X175740D02*
D03*
X168260D02*
D03*
D64*
X97559Y11500D02*
D03*
X92441D02*
D03*
D65*
X217752Y74114D02*
D03*
Y76614D02*
D03*
Y71618D02*
D03*
Y69114D02*
D03*
X199248Y71618D02*
D03*
Y74114D02*
D03*
Y76614D02*
D03*
Y69114D02*
D03*
X111752Y81618D02*
D03*
Y84114D02*
D03*
Y79114D02*
D03*
Y66614D02*
D03*
X93248D02*
D03*
X111752Y61618D02*
D03*
X93248Y64114D02*
D03*
X111752D02*
D03*
X93248Y61618D02*
D03*
Y81618D02*
D03*
Y79114D02*
D03*
Y84114D02*
D03*
X111752Y74114D02*
D03*
Y76614D02*
D03*
Y69114D02*
D03*
Y71618D02*
D03*
X93248D02*
D03*
Y69114D02*
D03*
Y74114D02*
D03*
Y76614D02*
D03*
X217752Y81618D02*
D03*
Y84114D02*
D03*
Y79114D02*
D03*
Y66614D02*
D03*
X199248D02*
D03*
X217752Y61618D02*
D03*
X199248Y64114D02*
D03*
X217752D02*
D03*
X199248Y61618D02*
D03*
Y81618D02*
D03*
Y79114D02*
D03*
Y84114D02*
D03*
D66*
X157937Y133484D02*
D03*
X154000D02*
D03*
D67*
X149768Y85500D02*
D03*
X143232D02*
D03*
X132268D02*
D03*
X125732D02*
D03*
D68*
X105500Y121665D02*
D03*
Y117335D02*
D03*
X96000Y121665D02*
D03*
Y117335D02*
D03*
D69*
X160000Y111965D02*
D03*
Y116000D02*
D03*
Y123018D02*
D03*
Y118982D02*
D03*
X146484Y134482D02*
D03*
Y138518D02*
D03*
D70*
X168201Y63722D02*
D03*
X180799D02*
D03*
X168201Y90000D02*
D03*
X180799D02*
D03*
X168201Y76722D02*
D03*
X180799D02*
D03*
X168201Y50222D02*
D03*
X180799D02*
D03*
D71*
X33250Y105409D02*
D03*
X53250D02*
D03*
X73250Y40913D02*
D03*
X43250Y105409D02*
D03*
X63250D02*
D03*
X73250D02*
D03*
X23250Y40913D02*
D03*
X13250Y105409D02*
D03*
X23250D02*
D03*
X53250Y40913D02*
D03*
X63250D02*
D03*
X43250D02*
D03*
X33250D02*
D03*
X13250D02*
D03*
D72*
X34500Y55661D02*
D03*
X42000D02*
D03*
D73*
X148429Y79500D02*
D03*
X144571D02*
D03*
X127071Y80000D02*
D03*
X130929D02*
D03*
D74*
X212516Y119968D02*
D03*
Y116032D02*
D03*
D75*
X201000Y137000D02*
D03*
Y119047D02*
D03*
D76*
X176197Y128024D02*
D03*
D77*
X111291Y132968D02*
D03*
X128709Y129032D02*
D03*
X111291Y134937D02*
D03*
Y131000D02*
D03*
Y129032D02*
D03*
X128709Y127063D02*
D03*
Y132968D02*
D03*
Y134937D02*
D03*
Y131000D02*
D03*
X111291Y127063D02*
D03*
D78*
X120000Y131000D02*
D03*
D79*
X102500Y98693D02*
D03*
Y47039D02*
D03*
X208500Y98693D02*
D03*
Y47039D02*
D03*
D80*
X150000Y113732D02*
D03*
Y120268D02*
D03*
X134750D02*
D03*
X119500D02*
D03*
X127125D02*
D03*
X142375D02*
D03*
X119500Y113732D02*
D03*
X127125D02*
D03*
X134750D02*
D03*
X142375D02*
D03*
D81*
X85835Y12000D02*
D03*
Y17000D02*
D03*
Y22000D02*
D03*
X65165Y12000D02*
D03*
Y17000D02*
D03*
Y22000D02*
D03*
Y27000D02*
D03*
X85835D02*
D03*
X56165Y130500D02*
D03*
Y125500D02*
D03*
X76835D02*
D03*
Y120500D02*
D03*
Y115500D02*
D03*
X56165D02*
D03*
X76835Y130500D02*
D03*
X56165Y120500D02*
D03*
D82*
X187906Y111445D02*
D03*
Y104555D02*
D03*
X176094Y111445D02*
D03*
Y104555D02*
D03*
D83*
X45689Y139000D02*
D03*
X49311D02*
D03*
X93189Y23000D02*
D03*
X78500Y136000D02*
D03*
X74878D02*
D03*
X96811Y23000D02*
D03*
D84*
X128453Y37500D02*
D03*
X134047D02*
D03*
X139953D02*
D03*
X122547D02*
D03*
X181905Y37000D02*
D03*
X176000D02*
D03*
D85*
X39961Y21555D02*
D03*
X35039D02*
D03*
D86*
X25000Y10138D02*
D03*
X50000D02*
D03*
D87*
X43220Y116839D02*
D03*
X45779Y134161D02*
D03*
X40661D02*
D03*
X43220D02*
D03*
X40661Y116839D02*
D03*
X45779D02*
D03*
X48339D02*
D03*
Y134161D02*
D03*
D88*
X5000Y29500D02*
D03*
Y21000D02*
D03*
D89*
X184882Y14260D02*
D03*
Y21740D02*
D03*
X194382Y14260D02*
D03*
Y21740D02*
D03*
D90*
X157870Y137984D02*
D03*
X154130D02*
D03*
D91*
X85500Y123728D02*
D03*
Y117272D02*
D03*
D92*
X66165Y7000D02*
D03*
X105165Y136984D02*
D03*
X90835D02*
D03*
X92835Y27500D02*
D03*
X100835Y136984D02*
D03*
X95165D02*
D03*
X61835Y7000D02*
D03*
X97165Y27500D02*
D03*
D93*
X29000Y119579D02*
D03*
X25260D02*
D03*
X32740D02*
D03*
X29000Y129421D02*
D03*
X32740D02*
D03*
X25260D02*
D03*
D94*
X19807Y122642D02*
D03*
X101000Y117689D02*
D03*
X91000D02*
D03*
X217516Y119811D02*
D03*
X19807Y119020D02*
D03*
X217516Y116189D02*
D03*
X101000Y121311D02*
D03*
X91000D02*
D03*
D95*
X126823Y97500D02*
D03*
Y107500D02*
D03*
X148177D02*
D03*
Y92500D02*
D03*
X126823Y102500D02*
D03*
Y92500D02*
D03*
X148177Y97500D02*
D03*
Y102500D02*
D03*
D96*
X119720Y18366D02*
D03*
X127279D02*
D03*
X123500Y26634D02*
D03*
D97*
X167280Y107134D02*
D03*
X159721D02*
D03*
X163500Y98866D02*
D03*
D98*
X33250Y103161D02*
D03*
X53250D02*
D03*
X73250Y43161D02*
D03*
X43250Y103161D02*
D03*
X63250D02*
D03*
X73250D02*
D03*
X23250Y43161D02*
D03*
X13250Y103161D02*
D03*
X23250D02*
D03*
X53250Y43161D02*
D03*
X63250D02*
D03*
X43250D02*
D03*
X33250D02*
D03*
D99*
X13250D02*
D03*
D100*
X102500Y90622D02*
D03*
Y55110D02*
D03*
X208500Y90622D02*
D03*
Y55110D02*
D03*
D101*
X9874Y9874D02*
D03*
X218504Y135827D02*
D03*
Y9874D02*
D03*
X9843Y135827D02*
D03*
D102*
X4000Y29500D02*
D03*
Y21000D02*
D03*
D103*
X42000Y52500D02*
D03*
X34500D02*
D03*
M02*
