G04*
G04 #@! TF.GenerationSoftware,Altium Limited,Altium Designer,25.7.1 (20)*
G04*
G04 Layer_Color=255*
%FSLAX44Y44*%
%MOMM*%
G71*
G04*
G04 #@! TF.SameCoordinates,CAE11FD6-8C3A-4EB6-ACAE-679D23DD15AD*
G04*
G04*
G04 #@! TF.FilePolarity,Positive*
G04*
G01*
G75*
%ADD15R,0.5000X0.6000*%
%ADD16R,0.9700X1.4700*%
%ADD17R,0.6000X0.7000*%
%ADD18R,0.5000X0.4750*%
%ADD19R,0.4725X0.4682*%
%ADD20R,0.8100X2.8200*%
%ADD21R,1.3580X2.5000*%
G04:AMPARAMS|DCode=22|XSize=1.8mm|YSize=0.8mm|CornerRadius=0.2mm|HoleSize=0mm|Usage=FLASHONLY|Rotation=90.000|XOffset=0mm|YOffset=0mm|HoleType=Round|Shape=RoundedRectangle|*
%AMROUNDEDRECTD22*
21,1,1.8000,0.4000,0,0,90.0*
21,1,1.4000,0.8000,0,0,90.0*
1,1,0.4000,0.2000,0.7000*
1,1,0.4000,0.2000,-0.7000*
1,1,0.4000,-0.2000,-0.7000*
1,1,0.4000,-0.2000,0.7000*
%
%ADD22ROUNDEDRECTD22*%
%ADD23R,0.7600X0.7200*%
%ADD24R,0.6000X0.5000*%
%ADD25R,2.2000X1.2000*%
%ADD26R,6.4000X5.8000*%
%ADD27R,1.4250X0.3000*%
%ADD28R,1.6800X1.8800*%
%ADD29R,0.8000X1.5000*%
%ADD30R,2.5000X0.3500*%
%ADD31R,2.0000X2.5000*%
%ADD32R,1.1000X0.5000*%
%ADD33R,1.4700X0.9700*%
G04:AMPARAMS|DCode=34|XSize=0.55mm|YSize=1.25mm|CornerRadius=0.0495mm|HoleSize=0mm|Usage=FLASHONLY|Rotation=90.000|XOffset=0mm|YOffset=0mm|HoleType=Round|Shape=RoundedRectangle|*
%AMROUNDEDRECTD34*
21,1,0.5500,1.1510,0,0,90.0*
21,1,0.4510,1.2500,0,0,90.0*
1,1,0.0990,0.5755,0.2255*
1,1,0.0990,0.5755,-0.2255*
1,1,0.0990,-0.5755,-0.2255*
1,1,0.0990,-0.5755,0.2255*
%
%ADD34ROUNDEDRECTD34*%
%ADD35R,0.8065X1.3082*%
%ADD36R,0.5153X0.4725*%
%ADD37R,0.6682X0.6725*%
%ADD38R,0.8000X0.6000*%
%ADD39R,1.4082X1.0065*%
%ADD40R,1.0000X0.5499*%
%ADD41R,0.6000X0.6200*%
G04:AMPARAMS|DCode=42|XSize=1.5mm|YSize=0.45mm|CornerRadius=0.0495mm|HoleSize=0mm|Usage=FLASHONLY|Rotation=0.000|XOffset=0mm|YOffset=0mm|HoleType=Round|Shape=RoundedRectangle|*
%AMROUNDEDRECTD42*
21,1,1.5000,0.3510,0,0,0.0*
21,1,1.4010,0.4500,0,0,0.0*
1,1,0.0990,0.7005,-0.1755*
1,1,0.0990,-0.7005,-0.1755*
1,1,0.0990,-0.7005,0.1755*
1,1,0.0990,0.7005,0.1755*
%
%ADD42ROUNDEDRECTD42*%
%ADD43R,0.9000X0.9500*%
%ADD44R,0.8000X1.6000*%
%ADD45R,2.1000X3.0000*%
%ADD46R,0.4500X1.4000*%
%ADD47R,2.0000X1.5000*%
%ADD48R,1.4500X1.0000*%
%ADD49R,0.4500X0.6000*%
%ADD50R,1.3900X0.9100*%
%ADD51R,0.7000X0.6000*%
%ADD52R,0.6000X1.1500*%
%ADD53R,0.6200X0.6000*%
%ADD54R,1.5260X0.6500*%
%ADD55R,0.6000X1.0500*%
%ADD56R,0.4725X0.5153*%
%ADD57R,0.6000X0.8000*%
%ADD58R,0.6500X1.2000*%
%ADD59R,0.6500X1.1000*%
%ADD109C,1.3580*%
%ADD110R,1.3580X1.3580*%
%ADD111C,0.4750*%
%ADD112C,2.4000*%
%ADD113C,1.5240*%
%ADD114C,1.2000*%
D15*
X401160Y339050D02*
D03*
X391160D02*
D03*
X180260Y345440D02*
D03*
X170260D02*
D03*
D16*
X380410Y217170D02*
D03*
X363810D02*
D03*
X335960D02*
D03*
X319360D02*
D03*
D17*
X267970Y309030D02*
D03*
Y298030D02*
D03*
X243840Y309030D02*
D03*
Y298030D02*
D03*
D18*
X406400Y284390D02*
D03*
Y294640D02*
D03*
Y312465D02*
D03*
Y302215D02*
D03*
X372070Y341585D02*
D03*
Y351835D02*
D03*
D19*
X359370Y350732D02*
D03*
Y342688D02*
D03*
D20*
X427230Y161853D02*
D03*
X459230D02*
D03*
X427230Y228600D02*
D03*
X459230D02*
D03*
X427230Y194873D02*
D03*
X459230D02*
D03*
X427230Y127563D02*
D03*
X459230D02*
D03*
D21*
X84455Y267740D02*
D03*
X135255D02*
D03*
X186055Y103920D02*
D03*
X109855Y267740D02*
D03*
X160655D02*
D03*
X186055D02*
D03*
X59055Y103920D02*
D03*
X33655Y267740D02*
D03*
X59055D02*
D03*
X135255Y103920D02*
D03*
X160655D02*
D03*
X109855D02*
D03*
X84455D02*
D03*
X33655D02*
D03*
D22*
X87630Y141380D02*
D03*
X106680D02*
D03*
D23*
X377010Y201930D02*
D03*
X367210D02*
D03*
X322760Y203200D02*
D03*
X332560D02*
D03*
D24*
X539790Y304720D02*
D03*
Y294720D02*
D03*
D25*
X510540Y347980D02*
D03*
Y302380D02*
D03*
D26*
X447540Y325180D02*
D03*
D27*
X282680Y337740D02*
D03*
X326920Y327740D02*
D03*
X282680Y342740D02*
D03*
Y332740D02*
D03*
Y327740D02*
D03*
X326920Y322740D02*
D03*
Y337740D02*
D03*
Y342740D02*
D03*
Y332740D02*
D03*
X282680Y322740D02*
D03*
D28*
X304800Y332740D02*
D03*
D29*
X510190Y17780D02*
D03*
X497190D02*
D03*
D30*
X283850Y207310D02*
D03*
Y213650D02*
D03*
Y200950D02*
D03*
Y169200D02*
D03*
X236850D02*
D03*
X283850Y156510D02*
D03*
X236850Y162850D02*
D03*
X283850D02*
D03*
X236850Y156510D02*
D03*
Y207310D02*
D03*
Y200950D02*
D03*
Y213650D02*
D03*
X283850Y188250D02*
D03*
Y194600D02*
D03*
Y175550D02*
D03*
Y181910D02*
D03*
X236850D02*
D03*
Y175550D02*
D03*
Y188250D02*
D03*
Y194600D02*
D03*
X553090Y207310D02*
D03*
Y213650D02*
D03*
Y200950D02*
D03*
Y169200D02*
D03*
X506090D02*
D03*
X553090Y156510D02*
D03*
X506090Y162850D02*
D03*
X553090D02*
D03*
X506090Y156510D02*
D03*
Y207310D02*
D03*
Y200950D02*
D03*
Y213650D02*
D03*
X553090Y188250D02*
D03*
Y194600D02*
D03*
Y175550D02*
D03*
Y181910D02*
D03*
X506090D02*
D03*
Y175550D02*
D03*
Y188250D02*
D03*
Y194600D02*
D03*
D31*
X260350Y250680D02*
D03*
Y119480D02*
D03*
X529590Y250680D02*
D03*
Y119480D02*
D03*
D32*
X541550Y59770D02*
D03*
Y69770D02*
D03*
D33*
X381000Y288880D02*
D03*
Y305480D02*
D03*
X342265D02*
D03*
X303530D02*
D03*
X322897D02*
D03*
X361632D02*
D03*
X303530Y288880D02*
D03*
X322897D02*
D03*
X342265D02*
D03*
X361632D02*
D03*
D34*
X218020Y30480D02*
D03*
Y43180D02*
D03*
Y55880D02*
D03*
X165520Y30480D02*
D03*
Y43180D02*
D03*
Y55880D02*
D03*
Y68580D02*
D03*
X218020D02*
D03*
X142660Y331470D02*
D03*
Y318770D02*
D03*
X195160D02*
D03*
Y306070D02*
D03*
Y293370D02*
D03*
X142660D02*
D03*
X195160Y331470D02*
D03*
X142660Y306070D02*
D03*
D35*
X232791Y43180D02*
D03*
X249809D02*
D03*
D36*
X159996Y345440D02*
D03*
X152424D02*
D03*
D37*
X420429Y93980D02*
D03*
X430471D02*
D03*
D38*
X402240Y328890D02*
D03*
X390240D02*
D03*
D39*
X341630Y46371D02*
D03*
Y65389D02*
D03*
D40*
X477281Y283070D02*
D03*
Y265570D02*
D03*
X447279Y283070D02*
D03*
Y265570D02*
D03*
D41*
X116050Y353060D02*
D03*
X125250D02*
D03*
X236700Y58420D02*
D03*
X199390Y345440D02*
D03*
X190190D02*
D03*
X245900Y58420D02*
D03*
D42*
X402170Y144930D02*
D03*
X344170Y151430D02*
D03*
Y157930D02*
D03*
X402170Y151430D02*
D03*
X344170Y164430D02*
D03*
X402170Y157930D02*
D03*
X344170Y144930D02*
D03*
X402170Y170930D02*
D03*
Y112430D02*
D03*
X344170Y131930D02*
D03*
Y125430D02*
D03*
Y138430D02*
D03*
Y112430D02*
D03*
Y118930D02*
D03*
X402170Y177430D02*
D03*
Y183930D02*
D03*
Y138430D02*
D03*
Y164430D02*
D03*
X344170Y170930D02*
D03*
X402170Y131930D02*
D03*
Y125430D02*
D03*
Y118930D02*
D03*
X344170Y183930D02*
D03*
Y177430D02*
D03*
D43*
X326270Y95250D02*
D03*
X340480D02*
D03*
X355480D02*
D03*
X311270D02*
D03*
X462040Y93980D02*
D03*
X447040D02*
D03*
D44*
X101500Y54750D02*
D03*
X89000D02*
D03*
D45*
X63500Y25750D02*
D03*
X127000D02*
D03*
D46*
X109780Y296770D02*
D03*
X116280Y340770D02*
D03*
X103280D02*
D03*
X109780D02*
D03*
X103280Y296770D02*
D03*
X116280D02*
D03*
X122780D02*
D03*
Y340770D02*
D03*
D47*
X12700Y74930D02*
D03*
Y53340D02*
D03*
D48*
X468630Y40030D02*
D03*
Y59030D02*
D03*
X492760Y40030D02*
D03*
Y59030D02*
D03*
D49*
X400990Y350480D02*
D03*
X391490D02*
D03*
D50*
X217170Y314270D02*
D03*
Y297870D02*
D03*
D51*
X168060Y17780D02*
D03*
X267120Y347940D02*
D03*
X230720D02*
D03*
X235800Y69850D02*
D03*
X256120Y347940D02*
D03*
X241720D02*
D03*
X157060Y17780D02*
D03*
X246800Y69850D02*
D03*
D52*
X73660Y303730D02*
D03*
X64160D02*
D03*
X83160D02*
D03*
X73660Y328730D02*
D03*
X83160D02*
D03*
X64160D02*
D03*
D53*
X50310Y311510D02*
D03*
X256540Y298930D02*
D03*
X231140D02*
D03*
X552490Y304320D02*
D03*
X50310Y302310D02*
D03*
X552490Y295120D02*
D03*
X256540Y308130D02*
D03*
X231140D02*
D03*
D54*
X322130Y247650D02*
D03*
Y273050D02*
D03*
X376370D02*
D03*
Y234950D02*
D03*
X322130Y260350D02*
D03*
Y234950D02*
D03*
X376370Y247650D02*
D03*
Y260350D02*
D03*
D55*
X367030Y68150D02*
D03*
X436880D02*
D03*
X402590D02*
D03*
X412090Y46150D02*
D03*
X393090D02*
D03*
X376530D02*
D03*
X357530D02*
D03*
X446380D02*
D03*
X427380D02*
D03*
D56*
X87630Y354306D02*
D03*
Y346734D02*
D03*
D57*
X247800Y29210D02*
D03*
X234800D02*
D03*
D58*
X304090Y46650D02*
D03*
X323290D02*
D03*
X313690Y67650D02*
D03*
D59*
X424890Y272120D02*
D03*
X405690D02*
D03*
X415290Y251120D02*
D03*
D109*
X84455Y262030D02*
D03*
X135255D02*
D03*
X186055Y109630D02*
D03*
X109855Y262030D02*
D03*
X160655D02*
D03*
X186055D02*
D03*
X59055Y109630D02*
D03*
X33655Y262030D02*
D03*
X59055D02*
D03*
X135255Y109630D02*
D03*
X160655D02*
D03*
X109855D02*
D03*
X84455D02*
D03*
D110*
X33655D02*
D03*
D111*
X260350Y230180D02*
D03*
Y139980D02*
D03*
X529590Y230180D02*
D03*
Y139980D02*
D03*
D112*
X25080Y25080D02*
D03*
X555000Y345000D02*
D03*
Y25080D02*
D03*
X25000Y345000D02*
D03*
D113*
X10160Y74930D02*
D03*
Y53340D02*
D03*
D114*
X106680Y133350D02*
D03*
X87630D02*
D03*
M02*
