G04*
G04 #@! TF.GenerationSoftware,Altium Limited,Altium Designer,25.8.1 (18)*
G04*
G04 Layer_Color=65535*
%FSLAX25Y25*%
%MOIN*%
G70*
G04*
G04 #@! TF.SameCoordinates,7BC79302-CBF9-451D-A937-AA54D13297B7*
G04*
G04*
G04 #@! TF.FilePolarity,Positive*
G04*
G01*
G75*
%ADD10C,0.00787*%
%ADD11C,0.02362*%
%ADD12C,0.00984*%
%ADD13C,0.00394*%
%ADD14C,0.00602*%
%ADD15C,0.00472*%
G36*
X94428Y100794D02*
X90000Y96366D01*
Y100760D01*
X89902Y100858D01*
X94428Y100794D01*
D02*
G37*
G36*
X121520Y10143D02*
X121692D01*
Y10086D01*
X121749D01*
Y10028D01*
X121864D01*
Y9971D01*
X121921D01*
Y9856D01*
X121978D01*
Y9799D01*
X122036D01*
Y9627D01*
X122093D01*
Y9226D01*
X122036D01*
Y9054D01*
X121978D01*
Y8997D01*
X121921D01*
Y8882D01*
X121864D01*
Y8825D01*
X121749D01*
Y8767D01*
X121692D01*
Y8710D01*
X121520D01*
Y8653D01*
X121119D01*
Y8710D01*
X120947D01*
Y8767D01*
X120889D01*
Y8825D01*
X120775D01*
Y8882D01*
X120717D01*
Y8997D01*
X120660D01*
Y9054D01*
X120603D01*
Y9226D01*
X119915D01*
Y9054D01*
X119858D01*
Y8997D01*
X119800D01*
Y8882D01*
X119743D01*
Y8825D01*
X119628D01*
Y8767D01*
X119571D01*
Y8710D01*
X119399D01*
Y8653D01*
X118998D01*
Y8710D01*
X118826D01*
Y8767D01*
X118769D01*
Y8825D01*
X118654D01*
Y8882D01*
X118596D01*
Y8997D01*
X118539D01*
Y9054D01*
X118482D01*
Y9226D01*
X118424D01*
Y9627D01*
X118482D01*
Y9799D01*
X118539D01*
Y9856D01*
X118596D01*
Y9971D01*
X118654D01*
Y10028D01*
X118769D01*
Y10086D01*
X118826D01*
Y10143D01*
X118998D01*
Y10200D01*
X119399D01*
Y10143D01*
X119571D01*
Y10086D01*
X119628D01*
Y10028D01*
X119743D01*
Y9971D01*
X119800D01*
Y9856D01*
X119858D01*
Y9799D01*
X119915D01*
Y9627D01*
X119972D01*
Y9570D01*
X120545D01*
Y9627D01*
X120603D01*
Y9799D01*
X120660D01*
Y9856D01*
X120717D01*
Y9971D01*
X120775D01*
Y10028D01*
X120889D01*
Y10086D01*
X120947D01*
Y10143D01*
X121119D01*
Y10200D01*
X121520D01*
Y10143D01*
D02*
G37*
G36*
X140378Y9054D02*
X140550D01*
Y8997D01*
X140665D01*
Y8939D01*
X140780D01*
Y8882D01*
X140894D01*
Y8825D01*
X141009D01*
Y8767D01*
X141066D01*
Y8710D01*
X141124D01*
Y8653D01*
X141181D01*
Y8595D01*
X141238D01*
Y8538D01*
X141296D01*
Y8481D01*
Y8423D01*
X141353D01*
Y8309D01*
X141410D01*
Y8137D01*
X141468D01*
Y7793D01*
X141525D01*
Y7162D01*
X141468D01*
Y7105D01*
X141410D01*
Y7048D01*
X140378D01*
Y7105D01*
X140321D01*
Y7793D01*
X140264D01*
Y7908D01*
X140207D01*
Y8022D01*
X140092D01*
Y8079D01*
X139920D01*
Y8137D01*
X139461D01*
Y8079D01*
X139289D01*
Y8022D01*
X139232D01*
Y7965D01*
X139175D01*
Y7850D01*
X139118D01*
Y4927D01*
X139175D01*
Y4812D01*
X139232D01*
Y4755D01*
X139461D01*
Y4698D01*
X139977D01*
Y4755D01*
X140207D01*
Y4812D01*
X140264D01*
Y4984D01*
X140321D01*
Y5787D01*
X140378D01*
Y5844D01*
X140436D01*
Y5901D01*
X141410D01*
Y5844D01*
X141468D01*
Y5787D01*
X141525D01*
Y4870D01*
X141468D01*
Y4640D01*
X141410D01*
Y4526D01*
X141353D01*
Y4411D01*
X141296D01*
Y4296D01*
X141238D01*
Y4239D01*
X141181D01*
Y4182D01*
X141124D01*
Y4124D01*
X141066D01*
Y4067D01*
X141009D01*
Y4010D01*
X140894D01*
Y3952D01*
X140780D01*
Y3895D01*
X140665D01*
Y3838D01*
X140493D01*
Y3780D01*
X140321D01*
Y3723D01*
X139118D01*
Y3780D01*
X138945D01*
Y3838D01*
X138774D01*
Y3895D01*
X138659D01*
Y3952D01*
X138544D01*
Y4010D01*
X138487D01*
Y4067D01*
X138372D01*
Y4124D01*
X138315D01*
Y4182D01*
X138258D01*
Y4239D01*
X138200D01*
Y4296D01*
X138143D01*
Y4411D01*
X138086D01*
Y4526D01*
X138028D01*
Y4640D01*
X137971D01*
Y4870D01*
X137914D01*
Y8022D01*
X137971D01*
Y8194D01*
X138028D01*
Y8366D01*
X138086D01*
Y8423D01*
X138143D01*
Y8538D01*
X138200D01*
Y8595D01*
X138258D01*
Y8653D01*
X138315D01*
Y8710D01*
X138372D01*
Y8767D01*
X138430D01*
Y8825D01*
X138544D01*
Y8882D01*
X138659D01*
Y8939D01*
X138774D01*
Y8997D01*
X138945D01*
Y9054D01*
X139118D01*
Y9111D01*
X140378D01*
Y9054D01*
D02*
G37*
G36*
X117221Y10143D02*
X117393D01*
Y10086D01*
X117450D01*
Y10028D01*
X117565D01*
Y9971D01*
X117622D01*
Y9856D01*
X117679D01*
Y9799D01*
X117737D01*
Y9627D01*
X117794D01*
Y9226D01*
X117737D01*
Y9054D01*
X117679D01*
Y8997D01*
X117622D01*
Y8882D01*
X117565D01*
Y8825D01*
X117450D01*
Y8767D01*
X117393D01*
Y8710D01*
X117221D01*
Y8653D01*
X117164D01*
Y7908D01*
X117221D01*
Y7850D01*
X117393D01*
Y7793D01*
X117450D01*
Y7735D01*
X117565D01*
Y7678D01*
X117622D01*
Y7564D01*
X117679D01*
Y7506D01*
X117737D01*
Y7334D01*
X117794D01*
Y6933D01*
X117737D01*
Y6761D01*
X117679D01*
Y6704D01*
X117622D01*
Y6589D01*
X117565D01*
Y6532D01*
X117450D01*
Y6475D01*
X117393D01*
Y6417D01*
X117221D01*
Y6360D01*
X116820D01*
Y6417D01*
X116648D01*
Y6475D01*
X116590D01*
Y6532D01*
X116476D01*
Y6589D01*
X116418D01*
Y6704D01*
X116361D01*
Y6761D01*
X116304D01*
Y6933D01*
X116246D01*
Y7334D01*
X116304D01*
Y7506D01*
X116361D01*
Y7564D01*
X116418D01*
Y7678D01*
X116476D01*
Y7735D01*
X116590D01*
Y7793D01*
X116648D01*
Y7850D01*
X116820D01*
Y8710D01*
X116648D01*
Y8767D01*
X116590D01*
Y8825D01*
X116476D01*
Y8882D01*
X116418D01*
Y8997D01*
X116361D01*
Y9054D01*
X116304D01*
Y9226D01*
X116246D01*
Y9627D01*
X116304D01*
Y9799D01*
X116361D01*
Y9856D01*
X116418D01*
Y9971D01*
X116476D01*
Y10028D01*
X116590D01*
Y10086D01*
X116648D01*
Y10143D01*
X116820D01*
Y10200D01*
X117221D01*
Y10143D01*
D02*
G37*
G36*
X121577Y7965D02*
X121749D01*
Y7908D01*
X121807D01*
Y7850D01*
X121921D01*
Y7793D01*
X121978D01*
Y7678D01*
X122036D01*
Y7621D01*
X122093D01*
Y7449D01*
X122150D01*
Y7048D01*
X122093D01*
Y6876D01*
X122036D01*
Y6818D01*
X121978D01*
Y6704D01*
X121921D01*
Y6646D01*
X121807D01*
Y6589D01*
X121749D01*
Y6532D01*
X121577D01*
Y6475D01*
X121119D01*
Y6417D01*
X121061D01*
Y6360D01*
X121004D01*
Y6302D01*
X120947D01*
Y6245D01*
X120889D01*
Y6188D01*
X120832D01*
Y6131D01*
X120775D01*
Y6073D01*
X120717D01*
Y6016D01*
X120660D01*
Y5959D01*
X120603D01*
Y5901D01*
X120545D01*
Y5844D01*
X120488D01*
Y5787D01*
X120431D01*
Y5729D01*
X120373D01*
Y5672D01*
X120316D01*
Y5615D01*
X120259D01*
Y5557D01*
X120202D01*
Y5500D01*
X120144D01*
Y5443D01*
X120087D01*
Y5385D01*
X120029D01*
Y5328D01*
X119972D01*
Y5271D01*
X119915D01*
Y5156D01*
X119972D01*
Y4755D01*
X119915D01*
Y4583D01*
X119858D01*
Y4526D01*
X119800D01*
Y4411D01*
X119743D01*
Y4354D01*
X119628D01*
Y4296D01*
X119571D01*
Y4239D01*
X119399D01*
Y4182D01*
X118998D01*
Y4239D01*
X118826D01*
Y4296D01*
X118769D01*
Y4354D01*
X118654D01*
Y4411D01*
X118596D01*
Y4526D01*
X118539D01*
Y4583D01*
X118482D01*
Y4755D01*
X118424D01*
Y5156D01*
X118482D01*
Y5328D01*
X118539D01*
Y5385D01*
X118596D01*
Y5500D01*
X118654D01*
Y5557D01*
X118769D01*
Y5615D01*
X118826D01*
Y5672D01*
X118998D01*
Y6532D01*
X118826D01*
Y6589D01*
X118769D01*
Y6646D01*
X118654D01*
Y6704D01*
X118596D01*
Y6818D01*
X118539D01*
Y6876D01*
X118482D01*
Y7048D01*
X118424D01*
Y7449D01*
X118482D01*
Y7621D01*
X118539D01*
Y7678D01*
X118596D01*
Y7793D01*
X118654D01*
Y7850D01*
X118769D01*
Y7908D01*
X118826D01*
Y7965D01*
X118998D01*
Y8022D01*
X119399D01*
Y7965D01*
X119571D01*
Y7908D01*
X119628D01*
Y7850D01*
X119743D01*
Y7793D01*
X119800D01*
Y7678D01*
X119858D01*
Y7621D01*
X119915D01*
Y7449D01*
X119972D01*
Y7048D01*
X119915D01*
Y6876D01*
X119858D01*
Y6818D01*
X119800D01*
Y6704D01*
X119743D01*
Y6646D01*
X119628D01*
Y6589D01*
X119571D01*
Y6532D01*
X119399D01*
Y6475D01*
X119342D01*
Y5729D01*
X119399D01*
Y5672D01*
X119571D01*
Y5615D01*
X119628D01*
Y5557D01*
X119743D01*
Y5615D01*
X119800D01*
Y5672D01*
X119858D01*
Y5729D01*
X119915D01*
Y5787D01*
X119972D01*
Y5844D01*
X120029D01*
Y5901D01*
X120087D01*
Y5959D01*
X120144D01*
Y6016D01*
X120202D01*
Y6073D01*
X120259D01*
Y6131D01*
X120316D01*
Y6188D01*
X120373D01*
Y6245D01*
X120431D01*
Y6302D01*
X120488D01*
Y6360D01*
X120545D01*
Y6417D01*
X120603D01*
Y6475D01*
X120660D01*
Y6532D01*
X120717D01*
Y6589D01*
X120775D01*
Y6646D01*
X120832D01*
Y6704D01*
X120775D01*
Y6818D01*
X120717D01*
Y6876D01*
X120660D01*
Y7048D01*
X120603D01*
Y7449D01*
X120660D01*
Y7621D01*
X120717D01*
Y7678D01*
X120775D01*
Y7793D01*
X120832D01*
Y7850D01*
X120947D01*
Y7908D01*
X121004D01*
Y7965D01*
X121176D01*
Y8022D01*
X121577D01*
Y7965D01*
D02*
G37*
G36*
X121520Y5672D02*
X121692D01*
Y5615D01*
X121749D01*
Y5557D01*
X121864D01*
Y5500D01*
X121921D01*
Y5385D01*
X121978D01*
Y5328D01*
X122036D01*
Y5156D01*
X122093D01*
Y4755D01*
X122036D01*
Y4583D01*
X121978D01*
Y4526D01*
X121921D01*
Y4411D01*
X121864D01*
Y4354D01*
X121749D01*
Y4296D01*
X121692D01*
Y4239D01*
X121520D01*
Y4182D01*
X121119D01*
Y4239D01*
X120947D01*
Y4296D01*
X120889D01*
Y4354D01*
X120775D01*
Y4411D01*
X120717D01*
Y4526D01*
X120660D01*
Y4583D01*
X120603D01*
Y4755D01*
X120545D01*
Y5156D01*
X120603D01*
Y5328D01*
X120660D01*
Y5385D01*
X120717D01*
Y5500D01*
X120775D01*
Y5557D01*
X120889D01*
Y5615D01*
X120947D01*
Y5672D01*
X121119D01*
Y5729D01*
X121520D01*
Y5672D01*
D02*
G37*
G36*
X117221D02*
X117393D01*
Y5615D01*
X117450D01*
Y5557D01*
X117565D01*
Y5500D01*
X117622D01*
Y5385D01*
X117679D01*
Y5328D01*
X117737D01*
Y5156D01*
X117794D01*
Y4755D01*
X117737D01*
Y4583D01*
X117679D01*
Y4526D01*
X117622D01*
Y4411D01*
X117565D01*
Y4354D01*
X117450D01*
Y4296D01*
X117393D01*
Y4239D01*
X117221D01*
Y4182D01*
X116820D01*
Y4239D01*
X116648D01*
Y4296D01*
X116590D01*
Y4354D01*
X116476D01*
Y4411D01*
X116418D01*
Y4526D01*
X116361D01*
Y4583D01*
X116304D01*
Y4755D01*
X116246D01*
Y5099D01*
Y5156D01*
X116304D01*
Y5328D01*
X116361D01*
Y5385D01*
X116418D01*
Y5500D01*
X116476D01*
Y5557D01*
X116590D01*
Y5615D01*
X116648D01*
Y5672D01*
X116820D01*
Y5729D01*
X117221D01*
Y5672D01*
D02*
G37*
G36*
X135907Y9054D02*
X136137D01*
Y8997D01*
X136251D01*
Y8939D01*
X136366D01*
Y8882D01*
X136481D01*
Y8825D01*
X136595D01*
Y8767D01*
X136710D01*
Y8710D01*
X136767D01*
Y8653D01*
X136825D01*
Y8538D01*
X136882D01*
Y8481D01*
X136939D01*
Y8366D01*
X136997D01*
Y8309D01*
Y8251D01*
X137054D01*
Y8079D01*
X137111D01*
Y3780D01*
X137054D01*
Y3723D01*
X136022D01*
Y3780D01*
X135965D01*
Y3838D01*
X135907D01*
Y4010D01*
X135850D01*
Y3952D01*
X135793D01*
Y3895D01*
X135678D01*
Y3838D01*
X135621D01*
Y3780D01*
X135506D01*
Y3723D01*
X134761D01*
Y3780D01*
X134532D01*
Y3838D01*
X134417D01*
Y3895D01*
X134302D01*
Y3952D01*
X134188D01*
Y4010D01*
X134073D01*
Y4067D01*
X134016D01*
Y4124D01*
X133959D01*
Y4182D01*
X133901D01*
Y4239D01*
X133844D01*
Y4296D01*
X133787D01*
Y4354D01*
X133729D01*
Y4411D01*
X133672D01*
Y4526D01*
X133615D01*
Y4640D01*
X133557D01*
Y4812D01*
X133500D01*
Y5500D01*
X133557D01*
Y5729D01*
X133615D01*
Y5844D01*
X133672D01*
Y5959D01*
X133729D01*
Y6073D01*
X133787D01*
Y6131D01*
X133844D01*
Y6188D01*
X133901D01*
Y6245D01*
X133959D01*
Y6302D01*
X134016D01*
Y6360D01*
X134131D01*
Y6417D01*
X134188D01*
Y6475D01*
X134302D01*
Y6532D01*
X134417D01*
Y6589D01*
X134475D01*
Y6646D01*
X134589D01*
Y6704D01*
X134704D01*
Y6761D01*
X134818D01*
Y6818D01*
X134990D01*
Y6876D01*
X135105D01*
Y6933D01*
X135220D01*
Y6990D01*
X135392D01*
Y7048D01*
X135506D01*
Y7105D01*
X135678D01*
Y7162D01*
X135793D01*
Y7220D01*
X135907D01*
Y7908D01*
X135850D01*
Y8022D01*
X135735D01*
Y8079D01*
X135621D01*
Y8137D01*
X135162D01*
Y8079D01*
X134933D01*
Y8022D01*
X134876D01*
Y7965D01*
X134818D01*
Y7908D01*
X134761D01*
Y7449D01*
X134704D01*
Y7105D01*
X134646D01*
Y7048D01*
X133615D01*
Y7105D01*
X133557D01*
Y7162D01*
X133500D01*
Y7735D01*
X133557D01*
Y8079D01*
X133615D01*
Y8251D01*
X133672D01*
Y8366D01*
X133729D01*
Y8481D01*
X133787D01*
Y8538D01*
X133844D01*
Y8653D01*
X133901D01*
Y8710D01*
X133959D01*
Y8767D01*
X134073D01*
Y8825D01*
X134131D01*
Y8882D01*
X134245D01*
Y8939D01*
X134360D01*
Y8997D01*
X134532D01*
Y9054D01*
X134704D01*
Y9111D01*
X135907D01*
Y9054D01*
D02*
G37*
G36*
X133729Y10774D02*
X133787D01*
Y9914D01*
X133729D01*
Y9856D01*
X131895D01*
Y3838D01*
X131838D01*
Y3780D01*
X131780D01*
Y3723D01*
X130749D01*
Y3780D01*
X130691D01*
Y9856D01*
X128857D01*
Y9914D01*
X128800D01*
Y10430D01*
Y10487D01*
Y10774D01*
X128857D01*
Y10831D01*
X133729D01*
Y10774D01*
D02*
G37*
G36*
X127023Y9054D02*
X127195D01*
Y8997D01*
X127367D01*
Y8939D01*
X127481D01*
Y8882D01*
X127596D01*
Y8825D01*
X127653D01*
Y8767D01*
X127711D01*
Y8710D01*
X127825D01*
Y8653D01*
X127883D01*
Y8595D01*
X127940D01*
Y8481D01*
X127997D01*
Y8423D01*
X128054D01*
Y8251D01*
X128112D01*
Y8079D01*
X128169D01*
Y7793D01*
X128226D01*
Y6360D01*
X128169D01*
Y6302D01*
X128112D01*
Y6245D01*
X125819D01*
Y4927D01*
X125876D01*
Y4812D01*
X125934D01*
Y4755D01*
X126163D01*
Y4698D01*
X126621D01*
Y4755D01*
X126851D01*
Y4812D01*
X126908D01*
Y4870D01*
X126965D01*
Y5615D01*
X127023D01*
Y5672D01*
X127080D01*
Y5729D01*
X128112D01*
Y5672D01*
X128169D01*
Y5615D01*
X128226D01*
Y4984D01*
X128169D01*
Y4698D01*
X128112D01*
Y4526D01*
X128054D01*
Y4411D01*
X127997D01*
Y4296D01*
X127940D01*
Y4239D01*
X127883D01*
Y4182D01*
X127825D01*
Y4124D01*
X127768D01*
Y4067D01*
X127711D01*
Y4010D01*
X127596D01*
Y3952D01*
X127481D01*
Y3895D01*
X127367D01*
Y3838D01*
X127195D01*
Y3780D01*
X127023D01*
Y3723D01*
X125819D01*
Y3780D01*
X125647D01*
Y3838D01*
X125475D01*
Y3895D01*
X125360D01*
Y3952D01*
X125246D01*
Y4010D01*
X125131D01*
Y4067D01*
X125074D01*
Y4124D01*
X125016D01*
Y4182D01*
X124959D01*
Y4239D01*
X124902D01*
Y4296D01*
X124845D01*
Y4354D01*
X124787D01*
Y4468D01*
X124730D01*
Y4583D01*
X124672D01*
Y4812D01*
X124615D01*
Y8079D01*
X124672D01*
Y8251D01*
X124730D01*
Y8366D01*
X124787D01*
Y8423D01*
Y8481D01*
X124845D01*
Y8538D01*
X124902D01*
Y8595D01*
X124959D01*
Y8653D01*
X125016D01*
Y8710D01*
X125074D01*
Y8767D01*
X125131D01*
Y8825D01*
X125246D01*
Y8882D01*
X125360D01*
Y8939D01*
X125475D01*
Y8997D01*
X125647D01*
Y9054D01*
X125819D01*
Y9111D01*
X127023D01*
Y9054D01*
D02*
G37*
G36*
X200428Y100794D02*
X196000Y96366D01*
Y100760D01*
X195902Y100858D01*
X200428Y100794D01*
D02*
G37*
G36*
X161129Y10716D02*
X161186D01*
Y9627D01*
X161129D01*
Y9570D01*
X160097D01*
Y9627D01*
X160040D01*
Y9684D01*
X159982D01*
Y10659D01*
X160040D01*
Y10716D01*
X160097D01*
Y10774D01*
X161129D01*
Y10716D01*
D02*
G37*
G36*
X146799D02*
X146856D01*
Y9627D01*
X146799D01*
Y9570D01*
X145767D01*
Y9627D01*
X145709D01*
Y9684D01*
X145652D01*
Y10372D01*
Y10430D01*
Y10659D01*
X145709D01*
Y10716D01*
X145767D01*
Y10774D01*
X146799D01*
Y10716D01*
D02*
G37*
G36*
X159180Y10774D02*
X159237D01*
Y10659D01*
X159295D01*
Y10602D01*
X159237D01*
Y10544D01*
X159180D01*
Y10487D01*
X159123D01*
Y10430D01*
X159065D01*
Y10315D01*
X159008D01*
Y10258D01*
X158951D01*
Y10200D01*
X158893D01*
Y10143D01*
X158836D01*
Y10086D01*
X158779D01*
Y10028D01*
X158721D01*
Y9914D01*
X158664D01*
Y9856D01*
X158607D01*
Y9799D01*
X158549D01*
Y9742D01*
X158492D01*
Y9684D01*
X158435D01*
Y9570D01*
X158377D01*
Y9512D01*
X158320D01*
Y9455D01*
X158263D01*
Y9398D01*
X158205D01*
Y9341D01*
X158148D01*
Y9283D01*
X158091D01*
Y9169D01*
X158034D01*
Y9111D01*
X157976D01*
Y9054D01*
X157919D01*
Y8997D01*
X157861D01*
Y8939D01*
X157804D01*
Y8825D01*
X157747D01*
Y8767D01*
X157690D01*
Y8710D01*
X157632D01*
Y8653D01*
X157575D01*
Y8595D01*
X157518D01*
Y8538D01*
X157460D01*
Y8423D01*
X157403D01*
Y8366D01*
Y8251D01*
X157460D01*
Y8079D01*
X157518D01*
Y7965D01*
X157575D01*
Y7793D01*
X157632D01*
Y7621D01*
X157690D01*
Y7449D01*
X157747D01*
Y7334D01*
X157804D01*
Y7162D01*
X157861D01*
Y6990D01*
X157919D01*
Y6876D01*
X157976D01*
Y6704D01*
X158034D01*
Y6532D01*
X158091D01*
Y6417D01*
X158148D01*
Y6245D01*
X158205D01*
Y6073D01*
X158263D01*
Y5901D01*
X158320D01*
Y5787D01*
X158377D01*
Y5615D01*
X158435D01*
Y5443D01*
X158492D01*
Y5328D01*
X158549D01*
Y5156D01*
X158607D01*
Y4984D01*
X158664D01*
Y4870D01*
X158721D01*
Y4698D01*
X158779D01*
Y4526D01*
X158836D01*
Y4354D01*
X158893D01*
Y4239D01*
X158951D01*
Y4067D01*
X159008D01*
Y3895D01*
X159065D01*
Y3838D01*
X159008D01*
Y3780D01*
X158951D01*
Y3723D01*
X157804D01*
Y3780D01*
X157747D01*
Y3952D01*
X157690D01*
Y4124D01*
X157632D01*
Y4296D01*
X157575D01*
Y4468D01*
X157518D01*
Y4583D01*
X157460D01*
Y4755D01*
X157403D01*
Y4927D01*
X157346D01*
Y5099D01*
X157288D01*
Y5271D01*
X157231D01*
Y5385D01*
X157174D01*
Y5557D01*
X157116D01*
Y5729D01*
X157059D01*
Y5901D01*
X157002D01*
Y6073D01*
X156944D01*
Y6245D01*
X156887D01*
Y6360D01*
X156830D01*
Y6532D01*
X156772D01*
Y6704D01*
X156715D01*
Y6876D01*
X156658D01*
Y7048D01*
X156600D01*
Y7162D01*
X156543D01*
Y7334D01*
X156486D01*
Y7277D01*
X156429D01*
Y7220D01*
X156371D01*
Y7162D01*
X156314D01*
Y7105D01*
X156256D01*
Y7048D01*
X156199D01*
Y6933D01*
X156142D01*
Y6876D01*
X156085D01*
Y6818D01*
X156027D01*
Y6761D01*
X155970D01*
Y6704D01*
X155913D01*
Y6589D01*
X155855D01*
Y3838D01*
X155798D01*
Y3780D01*
X155741D01*
Y3723D01*
X154709D01*
Y3780D01*
X154651D01*
Y10774D01*
X154709D01*
Y10831D01*
X155741D01*
Y10774D01*
X155798D01*
Y10716D01*
X155855D01*
Y8137D01*
X155913D01*
Y8194D01*
X155970D01*
Y8251D01*
X156027D01*
Y8366D01*
X156085D01*
Y8423D01*
X156142D01*
Y8481D01*
X156199D01*
Y8538D01*
X156256D01*
Y8653D01*
X156314D01*
Y8710D01*
X156371D01*
Y8767D01*
X156429D01*
Y8825D01*
X156486D01*
Y8882D01*
X156543D01*
Y8997D01*
X156600D01*
Y9054D01*
X156658D01*
Y9111D01*
X156715D01*
Y9169D01*
X156772D01*
Y9283D01*
X156830D01*
Y9341D01*
X156887D01*
Y9398D01*
X156944D01*
Y9455D01*
X157002D01*
Y9512D01*
X157059D01*
Y9627D01*
X157116D01*
Y9684D01*
X157174D01*
Y9742D01*
X157231D01*
Y9799D01*
X157288D01*
Y9914D01*
X157346D01*
Y9971D01*
X157403D01*
Y10028D01*
X157460D01*
Y10086D01*
X157518D01*
Y10200D01*
X157575D01*
Y10258D01*
X157632D01*
Y10315D01*
X157690D01*
Y10372D01*
X157747D01*
Y10430D01*
X157804D01*
Y10544D01*
X157861D01*
Y10602D01*
X157919D01*
Y10659D01*
X157976D01*
Y10716D01*
X158034D01*
Y10831D01*
X159180D01*
Y10774D01*
D02*
G37*
G36*
X163880Y10200D02*
X163995D01*
Y9169D01*
X164052D01*
Y9111D01*
X164683D01*
Y9054D01*
X164740D01*
Y8997D01*
X164797D01*
Y8251D01*
X164740D01*
Y8194D01*
X164683D01*
Y8137D01*
X164052D01*
Y8079D01*
X163995D01*
Y5213D01*
Y5156D01*
Y4984D01*
X164052D01*
Y4870D01*
X164110D01*
Y4812D01*
X164167D01*
Y4755D01*
X164339D01*
Y4698D01*
X164683D01*
Y4640D01*
X164740D01*
Y4583D01*
X164797D01*
Y3838D01*
X164740D01*
Y3780D01*
X164683D01*
Y3723D01*
X163594D01*
Y3780D01*
X163479D01*
Y3838D01*
X163364D01*
Y3895D01*
X163250D01*
Y3952D01*
X163192D01*
Y4010D01*
X163135D01*
Y4067D01*
X163078D01*
Y4124D01*
X163020D01*
Y4239D01*
X162963D01*
Y4296D01*
X162906D01*
Y4411D01*
X162848D01*
Y4640D01*
X162791D01*
Y8137D01*
X162161D01*
Y8194D01*
X162103D01*
Y8251D01*
X162046D01*
Y8997D01*
X162103D01*
Y9054D01*
X162161D01*
Y9111D01*
X162791D01*
Y9742D01*
X162848D01*
Y9799D01*
X162963D01*
Y9856D01*
X163078D01*
Y9914D01*
X163192D01*
Y9971D01*
X163307D01*
Y10028D01*
X163422D01*
Y10086D01*
X163536D01*
Y10143D01*
X163651D01*
Y10200D01*
X163766D01*
Y10258D01*
X163880D01*
Y10200D01*
D02*
G37*
G36*
X161129Y9054D02*
X161186D01*
Y5385D01*
Y5328D01*
Y3780D01*
X161129D01*
Y3723D01*
X160097D01*
Y3780D01*
X160040D01*
Y3838D01*
X159982D01*
Y8997D01*
X160040D01*
Y9054D01*
X160097D01*
Y9111D01*
X161129D01*
Y9054D01*
D02*
G37*
G36*
X152588D02*
X152760D01*
Y8997D01*
X152932D01*
Y8939D01*
X153047D01*
Y8882D01*
X153161D01*
Y8825D01*
X153218D01*
Y8767D01*
X153276D01*
Y8710D01*
X153391D01*
Y8653D01*
X153448D01*
Y8595D01*
X153505D01*
Y8481D01*
X153562D01*
Y8423D01*
X153620D01*
Y8251D01*
X153677D01*
Y8079D01*
X153734D01*
Y7793D01*
X153792D01*
Y6360D01*
X153734D01*
Y6302D01*
X153677D01*
Y6245D01*
X151384D01*
Y4927D01*
X151442D01*
Y4812D01*
X151499D01*
Y4755D01*
X151728D01*
Y4698D01*
X152187D01*
Y4755D01*
X152416D01*
Y4812D01*
X152473D01*
Y4870D01*
X152531D01*
Y5615D01*
X152588D01*
Y5672D01*
X152645D01*
Y5729D01*
X153677D01*
Y5672D01*
X153734D01*
Y5615D01*
X153792D01*
Y4984D01*
X153734D01*
Y4698D01*
X153677D01*
Y4526D01*
X153620D01*
Y4411D01*
X153562D01*
Y4296D01*
X153505D01*
Y4239D01*
X153448D01*
Y4182D01*
X153391D01*
Y4124D01*
X153333D01*
Y4067D01*
X153276D01*
Y4010D01*
X153161D01*
Y3952D01*
X153047D01*
Y3895D01*
X152932D01*
Y3838D01*
X152760D01*
Y3780D01*
X152588D01*
Y3723D01*
X151384D01*
Y3780D01*
X151212D01*
Y3838D01*
X151040D01*
Y3895D01*
X150926D01*
Y3952D01*
X150811D01*
Y4010D01*
X150696D01*
Y4067D01*
X150639D01*
Y4124D01*
X150582D01*
Y4182D01*
X150524D01*
Y4239D01*
X150467D01*
Y4296D01*
X150410D01*
Y4354D01*
X150352D01*
Y4468D01*
X150295D01*
Y4583D01*
X150238D01*
Y4812D01*
X150180D01*
Y8079D01*
X150238D01*
Y8251D01*
X150295D01*
Y8366D01*
X150352D01*
Y8481D01*
X150410D01*
Y8538D01*
X150467D01*
Y8595D01*
X150524D01*
Y8653D01*
X150582D01*
Y8710D01*
X150639D01*
Y8767D01*
X150696D01*
Y8825D01*
X150811D01*
Y8882D01*
X150926D01*
Y8939D01*
X151040D01*
Y8997D01*
X151212D01*
Y9054D01*
X151384D01*
Y9111D01*
X152588D01*
Y9054D01*
D02*
G37*
G36*
X149034Y10774D02*
X149091D01*
Y10716D01*
X149149D01*
Y8423D01*
Y8366D01*
Y3838D01*
X149091D01*
Y3780D01*
X149034D01*
Y3723D01*
X148002D01*
Y3780D01*
X147945D01*
Y10774D01*
X148002D01*
Y10831D01*
X149034D01*
Y10774D01*
D02*
G37*
G36*
X146799Y9054D02*
X146856D01*
Y8653D01*
Y8595D01*
Y3780D01*
X146799D01*
Y3723D01*
X145767D01*
Y3780D01*
X145709D01*
Y3838D01*
X145652D01*
Y8997D01*
X145709D01*
Y9054D01*
X145767D01*
Y9111D01*
X146799D01*
Y9054D01*
D02*
G37*
G36*
X143990Y10200D02*
X144104D01*
Y9169D01*
X144162D01*
Y9111D01*
X144792D01*
Y9054D01*
X144850D01*
Y8997D01*
X144907D01*
Y8251D01*
X144850D01*
Y8194D01*
X144792D01*
Y8137D01*
X144162D01*
Y8079D01*
X144104D01*
Y4984D01*
X144162D01*
Y4870D01*
X144219D01*
Y4812D01*
X144276D01*
Y4755D01*
X144448D01*
Y4698D01*
X144792D01*
Y4640D01*
X144850D01*
Y4583D01*
X144907D01*
Y3838D01*
X144850D01*
Y3780D01*
X144792D01*
Y3723D01*
X143703D01*
Y3780D01*
X143588D01*
Y3838D01*
X143474D01*
Y3895D01*
X143359D01*
Y3952D01*
X143302D01*
Y4010D01*
X143245D01*
Y4067D01*
X143187D01*
Y4124D01*
X143130D01*
Y4239D01*
X143073D01*
Y4296D01*
X143015D01*
Y4411D01*
X142958D01*
Y4640D01*
X142901D01*
Y6245D01*
Y6302D01*
Y8137D01*
X142270D01*
Y8194D01*
X142213D01*
Y8251D01*
X142156D01*
Y8997D01*
X142213D01*
Y9054D01*
X142270D01*
Y9111D01*
X142901D01*
Y9742D01*
X142958D01*
Y9799D01*
X143073D01*
Y9856D01*
X143187D01*
Y9914D01*
X143302D01*
Y9971D01*
X143417D01*
Y10028D01*
X143531D01*
Y10086D01*
X143646D01*
Y10143D01*
X143761D01*
Y10200D01*
X143875D01*
Y10258D01*
X143990D01*
Y10200D01*
D02*
G37*
G36*
X73999Y5624D02*
X74038Y5620D01*
X74086Y5616D01*
X74134Y5611D01*
X74191Y5598D01*
X74309Y5572D01*
X74440Y5533D01*
X74506Y5507D01*
X74567Y5476D01*
X74628Y5437D01*
X74689Y5397D01*
X74694Y5393D01*
X74703Y5389D01*
X74720Y5376D01*
X74742Y5354D01*
X74764Y5332D01*
X74794Y5301D01*
X74825Y5266D01*
X74860Y5231D01*
X74895Y5188D01*
X74930Y5135D01*
X74969Y5083D01*
X75004Y5026D01*
X75035Y4960D01*
X75070Y4895D01*
X75096Y4825D01*
X75122Y4746D01*
X74729Y4654D01*
Y4659D01*
X74724Y4668D01*
X74716Y4685D01*
X74707Y4707D01*
X74698Y4733D01*
X74685Y4768D01*
X74650Y4838D01*
X74606Y4917D01*
X74554Y4995D01*
X74488Y5070D01*
X74418Y5135D01*
X74410Y5144D01*
X74383Y5161D01*
X74340Y5183D01*
X74283Y5214D01*
X74209Y5240D01*
X74126Y5266D01*
X74025Y5284D01*
X73916Y5288D01*
X73881D01*
X73859Y5284D01*
X73829D01*
X73794Y5279D01*
X73711Y5266D01*
X73619Y5249D01*
X73523Y5218D01*
X73422Y5174D01*
X73330Y5118D01*
X73326D01*
X73322Y5109D01*
X73291Y5087D01*
X73252Y5052D01*
X73204Y5000D01*
X73147Y4934D01*
X73094Y4860D01*
X73046Y4768D01*
X73002Y4668D01*
Y4663D01*
X72998Y4654D01*
X72994Y4641D01*
X72989Y4619D01*
X72981Y4593D01*
X72972Y4563D01*
X72959Y4488D01*
X72941Y4401D01*
X72924Y4305D01*
X72915Y4200D01*
X72911Y4086D01*
Y4082D01*
Y4069D01*
Y4047D01*
Y4021D01*
X72915Y3990D01*
Y3951D01*
X72919Y3907D01*
X72924Y3859D01*
X72937Y3754D01*
X72959Y3641D01*
X72985Y3527D01*
X73020Y3413D01*
Y3409D01*
X73024Y3400D01*
X73033Y3387D01*
X73042Y3365D01*
X73068Y3313D01*
X73107Y3252D01*
X73155Y3182D01*
X73217Y3107D01*
X73287Y3042D01*
X73370Y2981D01*
X73374D01*
X73383Y2976D01*
X73396Y2968D01*
X73413Y2959D01*
X73435Y2950D01*
X73461Y2937D01*
X73523Y2911D01*
X73601Y2885D01*
X73689Y2863D01*
X73785Y2845D01*
X73885Y2841D01*
X73916D01*
X73942Y2845D01*
X73973D01*
X74003Y2850D01*
X74082Y2867D01*
X74174Y2889D01*
X74265Y2924D01*
X74362Y2972D01*
X74410Y2998D01*
X74453Y3033D01*
X74458Y3038D01*
X74462Y3042D01*
X74475Y3055D01*
X74493Y3068D01*
X74510Y3090D01*
X74532Y3116D01*
X74558Y3142D01*
X74580Y3177D01*
X74606Y3217D01*
X74637Y3260D01*
X74663Y3304D01*
X74689Y3356D01*
X74711Y3413D01*
X74733Y3475D01*
X74755Y3540D01*
X74772Y3610D01*
X75174Y3509D01*
Y3505D01*
X75170Y3488D01*
X75161Y3461D01*
X75148Y3426D01*
X75135Y3387D01*
X75118Y3339D01*
X75096Y3287D01*
X75070Y3230D01*
X75008Y3107D01*
X74930Y2985D01*
X74882Y2924D01*
X74834Y2863D01*
X74781Y2810D01*
X74720Y2758D01*
X74716Y2754D01*
X74707Y2745D01*
X74685Y2736D01*
X74663Y2719D01*
X74628Y2697D01*
X74593Y2675D01*
X74545Y2653D01*
X74497Y2631D01*
X74440Y2605D01*
X74379Y2583D01*
X74313Y2561D01*
X74244Y2539D01*
X74169Y2522D01*
X74091Y2513D01*
X74008Y2504D01*
X73920Y2500D01*
X73872D01*
X73837Y2504D01*
X73798D01*
X73750Y2509D01*
X73697Y2517D01*
X73636Y2526D01*
X73510Y2548D01*
X73378Y2583D01*
X73247Y2631D01*
X73186Y2662D01*
X73125Y2697D01*
X73120Y2701D01*
X73112Y2705D01*
X73094Y2719D01*
X73077Y2736D01*
X73051Y2754D01*
X73020Y2780D01*
X72985Y2810D01*
X72950Y2845D01*
X72915Y2885D01*
X72876Y2924D01*
X72797Y3024D01*
X72723Y3142D01*
X72657Y3274D01*
Y3278D01*
X72649Y3291D01*
X72644Y3313D01*
X72631Y3339D01*
X72622Y3374D01*
X72609Y3418D01*
X72592Y3466D01*
X72579Y3518D01*
X72566Y3575D01*
X72548Y3641D01*
X72526Y3776D01*
X72509Y3929D01*
X72500Y4086D01*
Y4091D01*
Y4108D01*
Y4134D01*
X72504Y4165D01*
Y4209D01*
X72509Y4252D01*
X72513Y4309D01*
X72522Y4366D01*
X72544Y4493D01*
X72574Y4633D01*
X72618Y4772D01*
X72679Y4908D01*
X72684Y4912D01*
X72688Y4925D01*
X72697Y4943D01*
X72714Y4965D01*
X72732Y4995D01*
X72754Y5030D01*
X72810Y5109D01*
X72885Y5196D01*
X72972Y5284D01*
X73072Y5371D01*
X73190Y5445D01*
X73195Y5450D01*
X73208Y5454D01*
X73225Y5463D01*
X73247Y5476D01*
X73282Y5489D01*
X73317Y5502D01*
X73361Y5520D01*
X73409Y5537D01*
X73461Y5555D01*
X73518Y5572D01*
X73641Y5598D01*
X73780Y5620D01*
X73925Y5629D01*
X73968D01*
X73999Y5624D01*
D02*
G37*
G36*
X99703Y2552D02*
X99358D01*
Y2828D01*
X99354Y2823D01*
X99349Y2815D01*
X99336Y2797D01*
X99319Y2775D01*
X99297Y2754D01*
X99271Y2727D01*
X99240Y2697D01*
X99201Y2666D01*
X99161Y2636D01*
X99118Y2605D01*
X99065Y2579D01*
X99008Y2557D01*
X98952Y2535D01*
X98886Y2517D01*
X98816Y2509D01*
X98742Y2504D01*
X98716D01*
X98698Y2509D01*
X98646Y2513D01*
X98585Y2522D01*
X98510Y2539D01*
X98427Y2566D01*
X98344Y2600D01*
X98261Y2649D01*
X98257D01*
X98252Y2657D01*
X98226Y2675D01*
X98187Y2710D01*
X98139Y2754D01*
X98082Y2810D01*
X98025Y2880D01*
X97968Y2959D01*
X97920Y3051D01*
Y3055D01*
X97916Y3064D01*
X97912Y3077D01*
X97903Y3094D01*
X97894Y3121D01*
X97881Y3151D01*
X97872Y3182D01*
X97864Y3221D01*
X97842Y3308D01*
X97820Y3409D01*
X97807Y3523D01*
X97802Y3645D01*
Y3649D01*
Y3658D01*
Y3675D01*
Y3702D01*
X97807Y3728D01*
Y3763D01*
X97815Y3842D01*
X97829Y3933D01*
X97850Y4034D01*
X97877Y4139D01*
X97912Y4239D01*
Y4244D01*
X97916Y4252D01*
X97925Y4265D01*
X97933Y4283D01*
X97960Y4331D01*
X97995Y4392D01*
X98038Y4458D01*
X98095Y4523D01*
X98161Y4593D01*
X98239Y4650D01*
X98244D01*
X98248Y4654D01*
X98261Y4663D01*
X98279Y4672D01*
X98322Y4694D01*
X98383Y4724D01*
X98453Y4750D01*
X98536Y4772D01*
X98628Y4790D01*
X98724Y4794D01*
X98759D01*
X98794Y4790D01*
X98842Y4786D01*
X98899Y4772D01*
X98960Y4759D01*
X99022Y4737D01*
X99078Y4707D01*
X99087Y4702D01*
X99105Y4694D01*
X99131Y4672D01*
X99166Y4650D01*
X99209Y4619D01*
X99249Y4580D01*
X99292Y4541D01*
X99332Y4493D01*
Y5576D01*
X99703D01*
Y2552D01*
D02*
G37*
G36*
X79068Y4790D02*
X79116Y4786D01*
X79173Y4777D01*
X79234Y4764D01*
X79300Y4746D01*
X79361Y4720D01*
X79370Y4716D01*
X79387Y4707D01*
X79418Y4694D01*
X79453Y4672D01*
X79496Y4646D01*
X79536Y4611D01*
X79575Y4576D01*
X79610Y4532D01*
X79614Y4528D01*
X79623Y4510D01*
X79636Y4488D01*
X79658Y4458D01*
X79676Y4414D01*
X79693Y4370D01*
X79715Y4318D01*
X79728Y4261D01*
Y4257D01*
X79732Y4239D01*
X79737Y4213D01*
X79741Y4178D01*
Y4126D01*
X79746Y4064D01*
X79750Y3990D01*
Y3898D01*
Y2552D01*
X79378D01*
Y3881D01*
Y3885D01*
Y3890D01*
Y3920D01*
Y3960D01*
X79374Y4008D01*
X79370Y4064D01*
X79361Y4121D01*
X79348Y4174D01*
X79335Y4222D01*
Y4226D01*
X79326Y4239D01*
X79313Y4261D01*
X79300Y4287D01*
X79278Y4314D01*
X79252Y4344D01*
X79217Y4375D01*
X79177Y4401D01*
X79173Y4405D01*
X79160Y4414D01*
X79134Y4423D01*
X79103Y4436D01*
X79068Y4449D01*
X79024Y4462D01*
X78972Y4467D01*
X78920Y4471D01*
X78898D01*
X78880Y4467D01*
X78837Y4462D01*
X78780Y4453D01*
X78719Y4431D01*
X78649Y4405D01*
X78579Y4370D01*
X78513Y4318D01*
X78504Y4309D01*
X78487Y4287D01*
X78474Y4270D01*
X78461Y4248D01*
X78443Y4222D01*
X78430Y4191D01*
X78413Y4156D01*
X78395Y4112D01*
X78382Y4064D01*
X78369Y4012D01*
X78360Y3955D01*
X78351Y3894D01*
X78343Y3820D01*
Y3745D01*
Y2552D01*
X77971D01*
Y4746D01*
X78303D01*
Y4431D01*
X78308Y4436D01*
X78316Y4449D01*
X78330Y4467D01*
X78347Y4488D01*
X78373Y4515D01*
X78404Y4545D01*
X78439Y4580D01*
X78483Y4615D01*
X78526Y4646D01*
X78579Y4681D01*
X78636Y4711D01*
X78697Y4737D01*
X78767Y4759D01*
X78837Y4777D01*
X78915Y4790D01*
X78998Y4794D01*
X79033D01*
X79068Y4790D01*
D02*
G37*
G36*
X90360D02*
X90408Y4781D01*
X90465Y4764D01*
X90526Y4742D01*
X90596Y4711D01*
X90671Y4672D01*
X90535Y4331D01*
X90531Y4335D01*
X90513Y4344D01*
X90487Y4357D01*
X90452Y4370D01*
X90413Y4383D01*
X90365Y4397D01*
X90316Y4405D01*
X90268Y4410D01*
X90247D01*
X90225Y4405D01*
X90194Y4401D01*
X90163Y4392D01*
X90124Y4379D01*
X90085Y4362D01*
X90050Y4335D01*
X90046Y4331D01*
X90032Y4322D01*
X90019Y4305D01*
X89998Y4283D01*
X89976Y4252D01*
X89954Y4217D01*
X89932Y4178D01*
X89914Y4130D01*
X89910Y4121D01*
X89906Y4095D01*
X89897Y4056D01*
X89884Y4003D01*
X89871Y3938D01*
X89862Y3863D01*
X89858Y3785D01*
X89853Y3697D01*
Y2552D01*
X89482D01*
Y4746D01*
X89818D01*
Y4414D01*
X89823Y4418D01*
X89840Y4449D01*
X89862Y4488D01*
X89897Y4536D01*
X89932Y4584D01*
X89971Y4637D01*
X90011Y4681D01*
X90050Y4716D01*
X90054Y4720D01*
X90067Y4729D01*
X90094Y4742D01*
X90120Y4755D01*
X90155Y4768D01*
X90198Y4781D01*
X90242Y4790D01*
X90290Y4794D01*
X90321D01*
X90360Y4790D01*
D02*
G37*
G36*
X82372D02*
X82420Y4781D01*
X82477Y4764D01*
X82538Y4742D01*
X82608Y4711D01*
X82682Y4672D01*
X82547Y4331D01*
X82542Y4335D01*
X82525Y4344D01*
X82499Y4357D01*
X82464Y4370D01*
X82424Y4383D01*
X82376Y4397D01*
X82328Y4405D01*
X82280Y4410D01*
X82258D01*
X82236Y4405D01*
X82206Y4401D01*
X82175Y4392D01*
X82136Y4379D01*
X82096Y4362D01*
X82062Y4335D01*
X82057Y4331D01*
X82044Y4322D01*
X82031Y4305D01*
X82009Y4283D01*
X81987Y4252D01*
X81965Y4217D01*
X81944Y4178D01*
X81926Y4130D01*
X81922Y4121D01*
X81917Y4095D01*
X81909Y4056D01*
X81896Y4003D01*
X81882Y3938D01*
X81874Y3863D01*
X81869Y3785D01*
X81865Y3697D01*
Y2552D01*
X81494D01*
Y4746D01*
X81830D01*
Y4414D01*
X81834Y4418D01*
X81852Y4449D01*
X81874Y4488D01*
X81909Y4536D01*
X81944Y4584D01*
X81983Y4637D01*
X82022Y4681D01*
X82062Y4716D01*
X82066Y4720D01*
X82079Y4729D01*
X82105Y4742D01*
X82131Y4755D01*
X82166Y4768D01*
X82210Y4781D01*
X82254Y4790D01*
X82302Y4794D01*
X82332D01*
X82372Y4790D01*
D02*
G37*
G36*
X94988Y2552D02*
X94604D01*
Y5083D01*
X93721Y2552D01*
X93362D01*
X92488Y5126D01*
Y2552D01*
X92104D01*
Y5576D01*
X92703D01*
X93419Y3431D01*
Y3426D01*
X93424Y3418D01*
X93428Y3405D01*
X93437Y3383D01*
X93454Y3330D01*
X93476Y3265D01*
X93498Y3190D01*
X93524Y3116D01*
X93546Y3046D01*
X93563Y2985D01*
X93568Y2994D01*
X93572Y3016D01*
X93585Y3055D01*
X93603Y3107D01*
X93625Y3177D01*
X93655Y3260D01*
X93686Y3356D01*
X93725Y3470D01*
X94450Y5576D01*
X94988D01*
Y2552D01*
D02*
G37*
G36*
X102063D02*
X101731D01*
Y2871D01*
X101727Y2867D01*
X101718Y2854D01*
X101705Y2836D01*
X101683Y2815D01*
X101657Y2788D01*
X101626Y2754D01*
X101591Y2723D01*
X101547Y2688D01*
X101499Y2653D01*
X101447Y2622D01*
X101390Y2592D01*
X101329Y2561D01*
X101259Y2539D01*
X101189Y2522D01*
X101110Y2509D01*
X101032Y2504D01*
X101001D01*
X100962Y2509D01*
X100914Y2513D01*
X100857Y2522D01*
X100796Y2535D01*
X100735Y2552D01*
X100669Y2579D01*
X100660Y2583D01*
X100643Y2592D01*
X100612Y2609D01*
X100577Y2631D01*
X100534Y2657D01*
X100494Y2688D01*
X100455Y2723D01*
X100420Y2762D01*
X100416Y2767D01*
X100407Y2784D01*
X100394Y2806D01*
X100376Y2841D01*
X100354Y2880D01*
X100337Y2928D01*
X100319Y2981D01*
X100306Y3038D01*
Y3042D01*
X100302Y3059D01*
X100298Y3086D01*
Y3121D01*
X100293Y3173D01*
X100289Y3230D01*
X100285Y3304D01*
Y3387D01*
Y4746D01*
X100656D01*
Y3527D01*
Y3523D01*
Y3514D01*
Y3501D01*
Y3479D01*
Y3431D01*
X100660Y3370D01*
Y3304D01*
X100665Y3238D01*
X100669Y3182D01*
X100678Y3134D01*
Y3129D01*
X100687Y3112D01*
X100695Y3086D01*
X100708Y3051D01*
X100730Y3016D01*
X100756Y2976D01*
X100787Y2941D01*
X100826Y2906D01*
X100831Y2902D01*
X100848Y2893D01*
X100870Y2880D01*
X100905Y2867D01*
X100944Y2850D01*
X100992Y2836D01*
X101045Y2828D01*
X101106Y2823D01*
X101137D01*
X101167Y2828D01*
X101207Y2832D01*
X101255Y2845D01*
X101307Y2858D01*
X101364Y2880D01*
X101421Y2906D01*
X101429Y2911D01*
X101447Y2924D01*
X101473Y2941D01*
X101504Y2968D01*
X101539Y3003D01*
X101574Y3042D01*
X101604Y3086D01*
X101630Y3138D01*
X101635Y3147D01*
X101639Y3164D01*
X101648Y3199D01*
X101661Y3247D01*
X101674Y3308D01*
X101683Y3383D01*
X101687Y3470D01*
X101692Y3571D01*
Y4746D01*
X102063D01*
Y2552D01*
D02*
G37*
G36*
X103007D02*
X102636D01*
Y5576D01*
X103007D01*
Y2552D01*
D02*
G37*
G36*
X86558D02*
X86187D01*
Y5576D01*
X86558D01*
Y2552D01*
D02*
G37*
G36*
X85619D02*
X85247D01*
Y5576D01*
X85619D01*
Y2552D01*
D02*
G37*
G36*
X80755Y4746D02*
X81131D01*
Y4458D01*
X80755D01*
Y3169D01*
Y3160D01*
Y3142D01*
Y3116D01*
X80759Y3086D01*
X80764Y3016D01*
X80768Y2985D01*
X80772Y2963D01*
X80777Y2954D01*
X80790Y2937D01*
X80807Y2915D01*
X80838Y2893D01*
X80847Y2889D01*
X80869Y2880D01*
X80908Y2871D01*
X80965Y2867D01*
X81008D01*
X81030Y2871D01*
X81061D01*
X81096Y2876D01*
X81131Y2880D01*
X81179Y2552D01*
X81170D01*
X81153Y2548D01*
X81122Y2544D01*
X81083Y2539D01*
X81039Y2531D01*
X80991Y2526D01*
X80895Y2522D01*
X80860D01*
X80825Y2526D01*
X80781Y2531D01*
X80729Y2535D01*
X80676Y2548D01*
X80628Y2561D01*
X80580Y2583D01*
X80576Y2587D01*
X80563Y2596D01*
X80545Y2609D01*
X80519Y2631D01*
X80497Y2653D01*
X80471Y2684D01*
X80445Y2714D01*
X80427Y2754D01*
Y2758D01*
X80418Y2775D01*
X80414Y2806D01*
X80405Y2850D01*
X80397Y2906D01*
X80392Y2941D01*
Y2981D01*
X80388Y3029D01*
X80383Y3077D01*
Y3129D01*
Y3190D01*
Y4458D01*
X80108D01*
Y4746D01*
X80383D01*
Y5288D01*
X80755Y5511D01*
Y4746D01*
D02*
G37*
G36*
X104554Y4790D02*
X104589Y4786D01*
X104633Y4777D01*
X104681Y4768D01*
X104737Y4755D01*
X104790Y4742D01*
X104851Y4720D01*
X104908Y4698D01*
X104969Y4668D01*
X105030Y4633D01*
X105092Y4593D01*
X105148Y4545D01*
X105201Y4493D01*
X105205Y4488D01*
X105214Y4480D01*
X105227Y4462D01*
X105244Y4436D01*
X105266Y4405D01*
X105288Y4370D01*
X105314Y4327D01*
X105341Y4274D01*
X105367Y4217D01*
X105393Y4156D01*
X105415Y4086D01*
X105437Y4012D01*
X105454Y3929D01*
X105467Y3842D01*
X105476Y3750D01*
X105480Y3649D01*
Y3645D01*
Y3627D01*
Y3597D01*
X105476Y3553D01*
X103837D01*
Y3549D01*
Y3536D01*
X103842Y3518D01*
Y3492D01*
X103846Y3461D01*
X103855Y3426D01*
X103868Y3348D01*
X103894Y3260D01*
X103929Y3164D01*
X103977Y3077D01*
X104038Y2998D01*
X104043D01*
X104047Y2989D01*
X104073Y2968D01*
X104113Y2937D01*
X104165Y2906D01*
X104235Y2871D01*
X104314Y2841D01*
X104401Y2819D01*
X104449Y2815D01*
X104501Y2810D01*
X104536D01*
X104576Y2815D01*
X104624Y2823D01*
X104676Y2836D01*
X104737Y2854D01*
X104794Y2880D01*
X104851Y2915D01*
X104856Y2919D01*
X104877Y2937D01*
X104903Y2963D01*
X104934Y2998D01*
X104969Y3046D01*
X105008Y3107D01*
X105048Y3177D01*
X105083Y3260D01*
X105467Y3212D01*
Y3208D01*
X105463Y3199D01*
X105458Y3182D01*
X105450Y3156D01*
X105437Y3129D01*
X105424Y3094D01*
X105389Y3020D01*
X105345Y2937D01*
X105284Y2850D01*
X105214Y2767D01*
X105126Y2688D01*
X105122D01*
X105113Y2679D01*
X105100Y2670D01*
X105083Y2657D01*
X105057Y2644D01*
X105030Y2631D01*
X104995Y2614D01*
X104956Y2596D01*
X104912Y2579D01*
X104869Y2561D01*
X104759Y2535D01*
X104637Y2513D01*
X104501Y2504D01*
X104453D01*
X104423Y2509D01*
X104384Y2513D01*
X104335Y2522D01*
X104283Y2531D01*
X104226Y2539D01*
X104104Y2574D01*
X104038Y2600D01*
X103977Y2627D01*
X103912Y2662D01*
X103850Y2701D01*
X103794Y2745D01*
X103737Y2797D01*
X103732Y2802D01*
X103724Y2810D01*
X103710Y2828D01*
X103693Y2854D01*
X103671Y2885D01*
X103649Y2919D01*
X103623Y2963D01*
X103597Y3011D01*
X103571Y3068D01*
X103544Y3129D01*
X103523Y3199D01*
X103501Y3274D01*
X103483Y3352D01*
X103470Y3440D01*
X103461Y3531D01*
X103457Y3627D01*
Y3632D01*
Y3654D01*
Y3680D01*
X103461Y3719D01*
X103466Y3767D01*
X103470Y3820D01*
X103479Y3881D01*
X103492Y3942D01*
X103527Y4082D01*
X103549Y4152D01*
X103575Y4226D01*
X103610Y4296D01*
X103649Y4362D01*
X103693Y4427D01*
X103741Y4488D01*
X103745Y4493D01*
X103754Y4501D01*
X103772Y4515D01*
X103794Y4536D01*
X103820Y4558D01*
X103855Y4584D01*
X103894Y4615D01*
X103942Y4641D01*
X103990Y4672D01*
X104047Y4698D01*
X104108Y4724D01*
X104174Y4746D01*
X104244Y4768D01*
X104318Y4781D01*
X104397Y4790D01*
X104480Y4794D01*
X104523D01*
X104554Y4790D01*
D02*
G37*
G36*
X96552D02*
X96592Y4786D01*
X96636Y4777D01*
X96684Y4768D01*
X96740Y4759D01*
X96858Y4720D01*
X96920Y4698D01*
X96981Y4668D01*
X97042Y4637D01*
X97103Y4593D01*
X97160Y4549D01*
X97217Y4497D01*
X97221Y4493D01*
X97230Y4484D01*
X97243Y4467D01*
X97260Y4445D01*
X97282Y4414D01*
X97308Y4375D01*
X97335Y4331D01*
X97361Y4283D01*
X97387Y4231D01*
X97413Y4165D01*
X97440Y4099D01*
X97461Y4025D01*
X97479Y3946D01*
X97492Y3863D01*
X97501Y3776D01*
X97505Y3680D01*
Y3675D01*
Y3662D01*
Y3641D01*
Y3610D01*
X97501Y3575D01*
X97496Y3531D01*
Y3488D01*
X97488Y3440D01*
X97474Y3330D01*
X97448Y3221D01*
X97418Y3112D01*
X97374Y3011D01*
Y3007D01*
X97370Y3003D01*
X97361Y2989D01*
X97352Y2972D01*
X97322Y2928D01*
X97282Y2876D01*
X97230Y2815D01*
X97164Y2754D01*
X97090Y2692D01*
X97003Y2636D01*
X96998D01*
X96994Y2631D01*
X96981Y2622D01*
X96959Y2614D01*
X96937Y2605D01*
X96911Y2596D01*
X96845Y2570D01*
X96771Y2548D01*
X96679Y2526D01*
X96583Y2509D01*
X96478Y2504D01*
X96434D01*
X96399Y2509D01*
X96360Y2513D01*
X96316Y2522D01*
X96264Y2531D01*
X96212Y2539D01*
X96094Y2574D01*
X96028Y2600D01*
X95967Y2627D01*
X95906Y2662D01*
X95845Y2701D01*
X95788Y2745D01*
X95731Y2797D01*
X95727Y2802D01*
X95718Y2810D01*
X95705Y2828D01*
X95687Y2854D01*
X95665Y2885D01*
X95644Y2919D01*
X95617Y2963D01*
X95591Y3016D01*
X95565Y3073D01*
X95539Y3138D01*
X95517Y3208D01*
X95495Y3282D01*
X95477Y3365D01*
X95464Y3453D01*
X95456Y3549D01*
X95451Y3649D01*
Y3658D01*
Y3675D01*
X95456Y3706D01*
Y3750D01*
X95460Y3798D01*
X95469Y3859D01*
X95477Y3920D01*
X95495Y3990D01*
X95512Y4060D01*
X95534Y4134D01*
X95560Y4213D01*
X95596Y4287D01*
X95630Y4357D01*
X95679Y4427D01*
X95727Y4493D01*
X95788Y4549D01*
X95792Y4554D01*
X95801Y4558D01*
X95818Y4571D01*
X95840Y4589D01*
X95866Y4606D01*
X95901Y4628D01*
X95936Y4650D01*
X95980Y4672D01*
X96028Y4694D01*
X96080Y4716D01*
X96198Y4755D01*
X96334Y4786D01*
X96404Y4790D01*
X96478Y4794D01*
X96522D01*
X96552Y4790D01*
D02*
G37*
G36*
X88105D02*
X88140Y4786D01*
X88184Y4777D01*
X88232Y4768D01*
X88289Y4755D01*
X88341Y4742D01*
X88402Y4720D01*
X88459Y4698D01*
X88520Y4668D01*
X88582Y4633D01*
X88643Y4593D01*
X88700Y4545D01*
X88752Y4493D01*
X88756Y4488D01*
X88765Y4480D01*
X88778Y4462D01*
X88796Y4436D01*
X88818Y4405D01*
X88839Y4370D01*
X88866Y4327D01*
X88892Y4274D01*
X88918Y4217D01*
X88944Y4156D01*
X88966Y4086D01*
X88988Y4012D01*
X89006Y3929D01*
X89019Y3842D01*
X89027Y3750D01*
X89032Y3649D01*
Y3645D01*
Y3627D01*
Y3597D01*
X89027Y3553D01*
X87389D01*
Y3549D01*
Y3536D01*
X87393Y3518D01*
Y3492D01*
X87397Y3461D01*
X87406Y3426D01*
X87419Y3348D01*
X87445Y3260D01*
X87480Y3164D01*
X87528Y3077D01*
X87590Y2998D01*
X87594D01*
X87598Y2989D01*
X87625Y2968D01*
X87664Y2937D01*
X87716Y2906D01*
X87786Y2871D01*
X87865Y2841D01*
X87952Y2819D01*
X88000Y2815D01*
X88053Y2810D01*
X88088D01*
X88127Y2815D01*
X88175Y2823D01*
X88228Y2836D01*
X88289Y2854D01*
X88346Y2880D01*
X88402Y2915D01*
X88407Y2919D01*
X88429Y2937D01*
X88455Y2963D01*
X88485Y2998D01*
X88520Y3046D01*
X88560Y3107D01*
X88599Y3177D01*
X88634Y3260D01*
X89019Y3212D01*
Y3208D01*
X89014Y3199D01*
X89010Y3182D01*
X89001Y3156D01*
X88988Y3129D01*
X88975Y3094D01*
X88940Y3020D01*
X88896Y2937D01*
X88835Y2850D01*
X88765Y2767D01*
X88678Y2688D01*
X88673D01*
X88665Y2679D01*
X88652Y2670D01*
X88634Y2657D01*
X88608Y2644D01*
X88582Y2631D01*
X88547Y2614D01*
X88507Y2596D01*
X88464Y2579D01*
X88420Y2561D01*
X88311Y2535D01*
X88188Y2513D01*
X88053Y2504D01*
X88005D01*
X87974Y2509D01*
X87935Y2513D01*
X87887Y2522D01*
X87834Y2531D01*
X87778Y2539D01*
X87655Y2574D01*
X87590Y2600D01*
X87528Y2627D01*
X87463Y2662D01*
X87402Y2701D01*
X87345Y2745D01*
X87288Y2797D01*
X87284Y2802D01*
X87275Y2810D01*
X87262Y2828D01*
X87244Y2854D01*
X87222Y2885D01*
X87201Y2919D01*
X87174Y2963D01*
X87148Y3011D01*
X87122Y3068D01*
X87096Y3129D01*
X87074Y3199D01*
X87052Y3274D01*
X87035Y3352D01*
X87021Y3440D01*
X87013Y3531D01*
X87008Y3627D01*
Y3632D01*
Y3654D01*
Y3680D01*
X87013Y3719D01*
X87017Y3767D01*
X87021Y3820D01*
X87030Y3881D01*
X87043Y3942D01*
X87078Y4082D01*
X87100Y4152D01*
X87126Y4226D01*
X87161Y4296D01*
X87201Y4362D01*
X87244Y4427D01*
X87292Y4488D01*
X87297Y4493D01*
X87306Y4501D01*
X87323Y4515D01*
X87345Y4536D01*
X87371Y4558D01*
X87406Y4584D01*
X87445Y4615D01*
X87493Y4641D01*
X87542Y4672D01*
X87598Y4698D01*
X87660Y4724D01*
X87725Y4746D01*
X87795Y4768D01*
X87869Y4781D01*
X87948Y4790D01*
X88031Y4794D01*
X88075D01*
X88105Y4790D01*
D02*
G37*
G36*
X83866D02*
X83906Y4786D01*
X83949Y4777D01*
X83997Y4768D01*
X84054Y4759D01*
X84172Y4720D01*
X84233Y4698D01*
X84295Y4668D01*
X84356Y4637D01*
X84417Y4593D01*
X84474Y4549D01*
X84531Y4497D01*
X84535Y4493D01*
X84544Y4484D01*
X84557Y4467D01*
X84574Y4445D01*
X84596Y4414D01*
X84622Y4375D01*
X84649Y4331D01*
X84675Y4283D01*
X84701Y4231D01*
X84727Y4165D01*
X84754Y4099D01*
X84775Y4025D01*
X84793Y3946D01*
X84806Y3863D01*
X84815Y3776D01*
X84819Y3680D01*
Y3675D01*
Y3662D01*
Y3641D01*
Y3610D01*
X84815Y3575D01*
X84810Y3531D01*
Y3488D01*
X84802Y3440D01*
X84788Y3330D01*
X84762Y3221D01*
X84732Y3112D01*
X84688Y3011D01*
Y3007D01*
X84684Y3003D01*
X84675Y2989D01*
X84666Y2972D01*
X84636Y2928D01*
X84596Y2876D01*
X84544Y2815D01*
X84478Y2754D01*
X84404Y2692D01*
X84316Y2636D01*
X84312D01*
X84308Y2631D01*
X84295Y2622D01*
X84273Y2614D01*
X84251Y2605D01*
X84225Y2596D01*
X84159Y2570D01*
X84085Y2548D01*
X83993Y2526D01*
X83897Y2509D01*
X83792Y2504D01*
X83748D01*
X83713Y2509D01*
X83674Y2513D01*
X83630Y2522D01*
X83578Y2531D01*
X83526Y2539D01*
X83407Y2574D01*
X83342Y2600D01*
X83281Y2627D01*
X83220Y2662D01*
X83158Y2701D01*
X83102Y2745D01*
X83045Y2797D01*
X83040Y2802D01*
X83032Y2810D01*
X83019Y2828D01*
X83001Y2854D01*
X82979Y2885D01*
X82957Y2919D01*
X82931Y2963D01*
X82905Y3016D01*
X82879Y3073D01*
X82853Y3138D01*
X82831Y3208D01*
X82809Y3282D01*
X82791Y3365D01*
X82778Y3453D01*
X82770Y3549D01*
X82765Y3649D01*
Y3658D01*
Y3675D01*
X82770Y3706D01*
Y3750D01*
X82774Y3798D01*
X82783Y3859D01*
X82791Y3920D01*
X82809Y3990D01*
X82826Y4060D01*
X82848Y4134D01*
X82874Y4213D01*
X82909Y4287D01*
X82944Y4357D01*
X82992Y4427D01*
X83040Y4493D01*
X83102Y4549D01*
X83106Y4554D01*
X83115Y4558D01*
X83132Y4571D01*
X83154Y4589D01*
X83180Y4606D01*
X83215Y4628D01*
X83250Y4650D01*
X83294Y4672D01*
X83342Y4694D01*
X83394Y4716D01*
X83512Y4755D01*
X83648Y4786D01*
X83718Y4790D01*
X83792Y4794D01*
X83836D01*
X83866Y4790D01*
D02*
G37*
G36*
X76582D02*
X76621Y4786D01*
X76665Y4777D01*
X76713Y4768D01*
X76770Y4759D01*
X76888Y4720D01*
X76949Y4698D01*
X77010Y4668D01*
X77071Y4637D01*
X77132Y4593D01*
X77189Y4549D01*
X77246Y4497D01*
X77250Y4493D01*
X77259Y4484D01*
X77272Y4467D01*
X77289Y4445D01*
X77311Y4414D01*
X77338Y4375D01*
X77364Y4331D01*
X77390Y4283D01*
X77416Y4231D01*
X77443Y4165D01*
X77469Y4099D01*
X77491Y4025D01*
X77508Y3946D01*
X77521Y3863D01*
X77530Y3776D01*
X77534Y3680D01*
Y3675D01*
Y3662D01*
Y3641D01*
Y3610D01*
X77530Y3575D01*
X77526Y3531D01*
Y3488D01*
X77517Y3440D01*
X77504Y3330D01*
X77477Y3221D01*
X77447Y3112D01*
X77403Y3011D01*
Y3007D01*
X77399Y3003D01*
X77390Y2989D01*
X77381Y2972D01*
X77351Y2928D01*
X77311Y2876D01*
X77259Y2815D01*
X77193Y2754D01*
X77119Y2692D01*
X77032Y2636D01*
X77027D01*
X77023Y2631D01*
X77010Y2622D01*
X76988Y2614D01*
X76966Y2605D01*
X76940Y2596D01*
X76874Y2570D01*
X76800Y2548D01*
X76708Y2526D01*
X76612Y2509D01*
X76507Y2504D01*
X76464D01*
X76429Y2509D01*
X76389Y2513D01*
X76346Y2522D01*
X76293Y2531D01*
X76241Y2539D01*
X76123Y2574D01*
X76057Y2600D01*
X75996Y2627D01*
X75935Y2662D01*
X75874Y2701D01*
X75817Y2745D01*
X75760Y2797D01*
X75756Y2802D01*
X75747Y2810D01*
X75734Y2828D01*
X75716Y2854D01*
X75695Y2885D01*
X75673Y2919D01*
X75646Y2963D01*
X75620Y3016D01*
X75594Y3073D01*
X75568Y3138D01*
X75546Y3208D01*
X75524Y3282D01*
X75507Y3365D01*
X75493Y3453D01*
X75485Y3549D01*
X75480Y3649D01*
Y3658D01*
Y3675D01*
X75485Y3706D01*
Y3750D01*
X75489Y3798D01*
X75498Y3859D01*
X75507Y3920D01*
X75524Y3990D01*
X75542Y4060D01*
X75563Y4134D01*
X75590Y4213D01*
X75625Y4287D01*
X75660Y4357D01*
X75708Y4427D01*
X75756Y4493D01*
X75817Y4549D01*
X75821Y4554D01*
X75830Y4558D01*
X75847Y4571D01*
X75869Y4589D01*
X75896Y4606D01*
X75930Y4628D01*
X75965Y4650D01*
X76009Y4672D01*
X76057Y4694D01*
X76110Y4716D01*
X76228Y4755D01*
X76363Y4786D01*
X76433Y4790D01*
X76507Y4794D01*
X76551D01*
X76582Y4790D01*
D02*
G37*
%LPC*%
G36*
X121463Y9856D02*
X121176D01*
Y9799D01*
X121061D01*
Y9742D01*
X121004D01*
Y9684D01*
X120947D01*
Y9570D01*
X120889D01*
Y9283D01*
X120947D01*
Y9169D01*
X121004D01*
Y9111D01*
X121061D01*
Y9054D01*
X121176D01*
Y8997D01*
X121463D01*
Y9054D01*
X121577D01*
Y9111D01*
X121634D01*
Y9169D01*
X121692D01*
Y9283D01*
X121749D01*
Y9570D01*
X121692D01*
Y9684D01*
X121634D01*
Y9742D01*
X121577D01*
Y9799D01*
X121463D01*
Y9856D01*
D02*
G37*
G36*
X119342D02*
X119055D01*
Y9799D01*
X118940D01*
Y9742D01*
X118883D01*
Y9684D01*
X118826D01*
Y9570D01*
X118769D01*
Y9283D01*
X118826D01*
Y9169D01*
X118883D01*
Y9111D01*
X118940D01*
Y9054D01*
X119055D01*
Y8997D01*
X119342D01*
Y9054D01*
X119456D01*
Y9111D01*
X119514D01*
Y9169D01*
X119571D01*
Y9283D01*
X119628D01*
Y9570D01*
X119571D01*
Y9684D01*
X119514D01*
Y9742D01*
X119456D01*
Y9799D01*
X119342D01*
Y9856D01*
D02*
G37*
G36*
X117164D02*
X116877D01*
Y9799D01*
X116762D01*
Y9742D01*
X116705D01*
Y9684D01*
X116648D01*
Y9627D01*
Y9570D01*
X116590D01*
Y9283D01*
X116648D01*
Y9169D01*
X116705D01*
Y9111D01*
X116762D01*
Y9054D01*
X116877D01*
Y8997D01*
X117164D01*
Y9054D01*
X117278D01*
Y9111D01*
X117335D01*
Y9169D01*
X117393D01*
Y9283D01*
X117450D01*
Y9570D01*
X117393D01*
Y9684D01*
X117335D01*
Y9742D01*
X117278D01*
Y9799D01*
X117164D01*
Y9856D01*
D02*
G37*
G36*
Y7564D02*
X116877D01*
Y7506D01*
X116762D01*
Y7449D01*
X116705D01*
Y7392D01*
X116648D01*
Y7277D01*
X116590D01*
Y6990D01*
X116648D01*
Y6876D01*
X116705D01*
Y6818D01*
X116762D01*
Y6761D01*
X116877D01*
Y6704D01*
X117164D01*
Y6761D01*
X117278D01*
Y6818D01*
X117335D01*
Y6876D01*
X117393D01*
Y6990D01*
X117450D01*
Y7277D01*
X117393D01*
Y7392D01*
X117335D01*
Y7449D01*
X117278D01*
Y7506D01*
X117164D01*
Y7564D01*
D02*
G37*
G36*
X121520Y7678D02*
X121233D01*
Y7621D01*
X121119D01*
Y7564D01*
X121061D01*
Y7506D01*
X121004D01*
Y7392D01*
X120947D01*
Y7105D01*
X121004D01*
Y6990D01*
X121061D01*
Y6933D01*
X121119D01*
Y6876D01*
X121233D01*
Y6818D01*
X121520D01*
Y6876D01*
X121634D01*
Y6933D01*
X121692D01*
Y6990D01*
X121749D01*
Y7105D01*
X121807D01*
Y7334D01*
Y7392D01*
X121749D01*
Y7506D01*
X121692D01*
Y7564D01*
X121634D01*
Y7621D01*
X121520D01*
Y7678D01*
D02*
G37*
G36*
X119342D02*
X119055D01*
Y7621D01*
X118940D01*
Y7564D01*
X118883D01*
Y7506D01*
X118826D01*
Y7392D01*
X118769D01*
Y7105D01*
X118826D01*
Y6990D01*
X118883D01*
Y6933D01*
X118940D01*
Y6876D01*
X119055D01*
Y6818D01*
X119342D01*
Y6876D01*
X119456D01*
Y6933D01*
X119514D01*
Y6990D01*
X119571D01*
Y7105D01*
X119628D01*
Y7334D01*
Y7392D01*
X119571D01*
Y7506D01*
X119514D01*
Y7564D01*
X119456D01*
Y7621D01*
X119342D01*
Y7678D01*
D02*
G37*
G36*
Y5385D02*
X119055D01*
Y5328D01*
X118940D01*
Y5271D01*
X118883D01*
Y5213D01*
X118826D01*
Y5099D01*
X118769D01*
Y4812D01*
X118826D01*
Y4698D01*
X118883D01*
Y4640D01*
X118940D01*
Y4583D01*
X119055D01*
Y4526D01*
X119342D01*
Y4583D01*
X119456D01*
Y4640D01*
X119514D01*
Y4698D01*
X119571D01*
Y4812D01*
X119628D01*
Y5099D01*
X119571D01*
Y5213D01*
X119514D01*
Y5271D01*
X119456D01*
Y5328D01*
X119342D01*
Y5385D01*
D02*
G37*
G36*
X121463D02*
X121176D01*
Y5328D01*
X121061D01*
Y5271D01*
X121004D01*
Y5213D01*
X120947D01*
Y5099D01*
X120889D01*
Y4812D01*
X120947D01*
Y4698D01*
X121004D01*
Y4640D01*
X121061D01*
Y4583D01*
X121176D01*
Y4526D01*
X121463D01*
Y4583D01*
X121577D01*
Y4640D01*
X121634D01*
Y4698D01*
X121692D01*
Y4812D01*
X121749D01*
Y5099D01*
X121692D01*
Y5213D01*
X121634D01*
Y5271D01*
X121577D01*
Y5328D01*
X121463D01*
Y5385D01*
D02*
G37*
G36*
X117164D02*
X116877D01*
Y5328D01*
X116762D01*
Y5271D01*
X116705D01*
Y5213D01*
X116648D01*
Y5099D01*
X116590D01*
Y4812D01*
X116648D01*
Y4698D01*
X116705D01*
Y4640D01*
X116762D01*
Y4583D01*
X116877D01*
Y4526D01*
X117164D01*
Y4583D01*
X117278D01*
Y4640D01*
X117335D01*
Y4698D01*
X117393D01*
Y4812D01*
X117450D01*
Y5099D01*
X117393D01*
Y5213D01*
X117335D01*
Y5271D01*
X117278D01*
Y5328D01*
X117164D01*
Y5385D01*
D02*
G37*
G36*
X135907Y6188D02*
X135850D01*
Y6131D01*
X135735D01*
Y6073D01*
X135621D01*
Y6016D01*
X135506D01*
Y5959D01*
X135392D01*
Y5901D01*
X135220D01*
Y5844D01*
X135105D01*
Y5787D01*
X134990D01*
Y5729D01*
X134933D01*
Y5672D01*
X134876D01*
Y5615D01*
X134818D01*
Y5500D01*
X134761D01*
Y5328D01*
X134704D01*
Y4984D01*
X134761D01*
Y4870D01*
X134818D01*
Y4812D01*
X134933D01*
Y4755D01*
X135105D01*
Y4698D01*
X135621D01*
Y4755D01*
X135793D01*
Y4812D01*
X135850D01*
Y4870D01*
X135907D01*
Y6188D01*
D02*
G37*
G36*
X126564Y8137D02*
X126163D01*
Y8079D01*
X125991D01*
Y8022D01*
X125934D01*
Y7965D01*
X125876D01*
Y7908D01*
X125819D01*
Y7220D01*
X126965D01*
Y7908D01*
X126908D01*
Y7965D01*
X126851D01*
Y8022D01*
X126793D01*
Y8079D01*
X126564D01*
Y8137D01*
D02*
G37*
G36*
X152129D02*
X151728D01*
Y8079D01*
X151556D01*
Y8022D01*
X151499D01*
Y7965D01*
X151442D01*
Y7908D01*
X151384D01*
Y7220D01*
X152531D01*
Y7908D01*
X152473D01*
Y7965D01*
X152416D01*
Y8022D01*
X152359D01*
Y8079D01*
X152129D01*
Y8137D01*
D02*
G37*
G36*
X98764Y4488D02*
X98742D01*
X98724Y4484D01*
X98676Y4480D01*
X98620Y4462D01*
X98554Y4440D01*
X98484Y4401D01*
X98414Y4353D01*
X98379Y4318D01*
X98349Y4283D01*
Y4279D01*
X98340Y4274D01*
X98335Y4261D01*
X98322Y4244D01*
X98309Y4222D01*
X98296Y4196D01*
X98283Y4165D01*
X98265Y4130D01*
X98248Y4086D01*
X98235Y4038D01*
X98222Y3986D01*
X98209Y3929D01*
X98200Y3868D01*
X98191Y3798D01*
X98182Y3724D01*
Y3645D01*
Y3641D01*
Y3627D01*
Y3606D01*
X98187Y3575D01*
Y3540D01*
X98191Y3501D01*
X98204Y3409D01*
X98226Y3308D01*
X98257Y3204D01*
X98300Y3103D01*
X98327Y3059D01*
X98357Y3016D01*
X98362D01*
X98366Y3007D01*
X98388Y2985D01*
X98427Y2950D01*
X98475Y2915D01*
X98536Y2876D01*
X98611Y2841D01*
X98689Y2819D01*
X98733Y2815D01*
X98777Y2810D01*
X98799D01*
X98816Y2815D01*
X98864Y2819D01*
X98921Y2836D01*
X98987Y2858D01*
X99057Y2893D01*
X99126Y2941D01*
X99161Y2972D01*
X99192Y3007D01*
Y3011D01*
X99201Y3016D01*
X99209Y3029D01*
X99218Y3046D01*
X99231Y3068D01*
X99249Y3090D01*
X99262Y3125D01*
X99279Y3160D01*
X99297Y3199D01*
X99310Y3243D01*
X99327Y3295D01*
X99340Y3348D01*
X99349Y3409D01*
X99358Y3470D01*
X99367Y3540D01*
Y3614D01*
Y3619D01*
Y3636D01*
Y3658D01*
X99362Y3689D01*
Y3724D01*
X99358Y3767D01*
X99354Y3815D01*
X99345Y3868D01*
X99323Y3973D01*
X99292Y4082D01*
X99249Y4187D01*
X99223Y4231D01*
X99192Y4274D01*
Y4279D01*
X99183Y4283D01*
X99161Y4309D01*
X99122Y4344D01*
X99074Y4383D01*
X99013Y4423D01*
X98939Y4453D01*
X98856Y4480D01*
X98812Y4484D01*
X98764Y4488D01*
D02*
G37*
G36*
X104484D02*
X104458D01*
X104440Y4484D01*
X104392Y4480D01*
X104335Y4467D01*
X104265Y4445D01*
X104191Y4414D01*
X104121Y4370D01*
X104051Y4314D01*
X104043Y4305D01*
X104025Y4283D01*
X103995Y4244D01*
X103964Y4191D01*
X103929Y4130D01*
X103899Y4051D01*
X103872Y3960D01*
X103859Y3859D01*
X105087D01*
Y3863D01*
Y3872D01*
X105083Y3885D01*
Y3903D01*
X105074Y3955D01*
X105061Y4012D01*
X105039Y4082D01*
X105017Y4148D01*
X104982Y4213D01*
X104943Y4270D01*
Y4274D01*
X104934Y4279D01*
X104912Y4305D01*
X104873Y4340D01*
X104821Y4379D01*
X104755Y4418D01*
X104676Y4453D01*
X104585Y4480D01*
X104536Y4484D01*
X104484Y4488D01*
D02*
G37*
G36*
X96478D02*
X96452D01*
X96430Y4484D01*
X96382Y4480D01*
X96316Y4462D01*
X96242Y4436D01*
X96163Y4401D01*
X96089Y4349D01*
X96050Y4314D01*
X96015Y4279D01*
Y4274D01*
X96006Y4270D01*
X95998Y4257D01*
X95984Y4239D01*
X95971Y4217D01*
X95958Y4191D01*
X95941Y4156D01*
X95923Y4121D01*
X95906Y4078D01*
X95888Y4034D01*
X95875Y3981D01*
X95862Y3925D01*
X95849Y3863D01*
X95840Y3798D01*
X95836Y3724D01*
X95831Y3649D01*
Y3645D01*
Y3632D01*
Y3610D01*
X95836Y3579D01*
Y3544D01*
X95840Y3505D01*
X95853Y3413D01*
X95875Y3308D01*
X95910Y3204D01*
X95954Y3103D01*
X95984Y3059D01*
X96015Y3016D01*
X96019D01*
X96024Y3007D01*
X96050Y2985D01*
X96089Y2950D01*
X96142Y2915D01*
X96207Y2876D01*
X96286Y2841D01*
X96378Y2819D01*
X96426Y2815D01*
X96478Y2810D01*
X96504D01*
X96526Y2815D01*
X96574Y2823D01*
X96640Y2836D01*
X96710Y2863D01*
X96789Y2898D01*
X96863Y2950D01*
X96902Y2985D01*
X96937Y3020D01*
X96941Y3024D01*
X96946Y3029D01*
X96955Y3042D01*
X96968Y3059D01*
X96981Y3081D01*
X96998Y3107D01*
X97016Y3142D01*
X97033Y3177D01*
X97051Y3221D01*
X97064Y3269D01*
X97081Y3322D01*
X97094Y3378D01*
X97107Y3444D01*
X97116Y3509D01*
X97125Y3584D01*
Y3662D01*
Y3667D01*
Y3680D01*
Y3702D01*
X97121Y3728D01*
Y3763D01*
X97116Y3802D01*
X97103Y3894D01*
X97081Y3990D01*
X97046Y4095D01*
X96998Y4191D01*
X96972Y4239D01*
X96937Y4279D01*
Y4283D01*
X96928Y4287D01*
X96902Y4314D01*
X96863Y4344D01*
X96810Y4383D01*
X96745Y4423D01*
X96666Y4458D01*
X96579Y4480D01*
X96531Y4484D01*
X96478Y4488D01*
D02*
G37*
G36*
X88035D02*
X88009D01*
X87992Y4484D01*
X87944Y4480D01*
X87887Y4467D01*
X87817Y4445D01*
X87743Y4414D01*
X87673Y4370D01*
X87603Y4314D01*
X87594Y4305D01*
X87577Y4283D01*
X87546Y4244D01*
X87515Y4191D01*
X87480Y4130D01*
X87450Y4051D01*
X87424Y3960D01*
X87410Y3859D01*
X88638D01*
Y3863D01*
Y3872D01*
X88634Y3885D01*
Y3903D01*
X88625Y3955D01*
X88612Y4012D01*
X88590Y4082D01*
X88569Y4148D01*
X88534Y4213D01*
X88494Y4270D01*
Y4274D01*
X88485Y4279D01*
X88464Y4305D01*
X88424Y4340D01*
X88372Y4379D01*
X88306Y4418D01*
X88228Y4453D01*
X88136Y4480D01*
X88088Y4484D01*
X88035Y4488D01*
D02*
G37*
G36*
X83792D02*
X83766D01*
X83744Y4484D01*
X83696Y4480D01*
X83630Y4462D01*
X83556Y4436D01*
X83477Y4401D01*
X83403Y4349D01*
X83364Y4314D01*
X83329Y4279D01*
Y4274D01*
X83320Y4270D01*
X83311Y4257D01*
X83298Y4239D01*
X83285Y4217D01*
X83272Y4191D01*
X83255Y4156D01*
X83237Y4121D01*
X83220Y4078D01*
X83202Y4034D01*
X83189Y3981D01*
X83176Y3925D01*
X83163Y3863D01*
X83154Y3798D01*
X83150Y3724D01*
X83145Y3649D01*
Y3645D01*
Y3632D01*
Y3610D01*
X83150Y3579D01*
Y3544D01*
X83154Y3505D01*
X83167Y3413D01*
X83189Y3308D01*
X83224Y3204D01*
X83268Y3103D01*
X83298Y3059D01*
X83329Y3016D01*
X83333D01*
X83338Y3007D01*
X83364Y2985D01*
X83403Y2950D01*
X83456Y2915D01*
X83521Y2876D01*
X83600Y2841D01*
X83692Y2819D01*
X83740Y2815D01*
X83792Y2810D01*
X83818D01*
X83840Y2815D01*
X83888Y2823D01*
X83954Y2836D01*
X84024Y2863D01*
X84102Y2898D01*
X84177Y2950D01*
X84216Y2985D01*
X84251Y3020D01*
X84255Y3024D01*
X84260Y3029D01*
X84268Y3042D01*
X84281Y3059D01*
X84295Y3081D01*
X84312Y3107D01*
X84330Y3142D01*
X84347Y3177D01*
X84364Y3221D01*
X84378Y3269D01*
X84395Y3322D01*
X84408Y3378D01*
X84421Y3444D01*
X84430Y3509D01*
X84439Y3584D01*
Y3662D01*
Y3667D01*
Y3680D01*
Y3702D01*
X84434Y3728D01*
Y3763D01*
X84430Y3802D01*
X84417Y3894D01*
X84395Y3990D01*
X84360Y4095D01*
X84312Y4191D01*
X84286Y4239D01*
X84251Y4279D01*
Y4283D01*
X84242Y4287D01*
X84216Y4314D01*
X84177Y4344D01*
X84124Y4383D01*
X84059Y4423D01*
X83980Y4458D01*
X83893Y4480D01*
X83845Y4484D01*
X83792Y4488D01*
D02*
G37*
G36*
X76507D02*
X76481D01*
X76459Y4484D01*
X76411Y4480D01*
X76346Y4462D01*
X76271Y4436D01*
X76193Y4401D01*
X76118Y4349D01*
X76079Y4314D01*
X76044Y4279D01*
Y4274D01*
X76035Y4270D01*
X76027Y4257D01*
X76013Y4239D01*
X76000Y4217D01*
X75987Y4191D01*
X75970Y4156D01*
X75952Y4121D01*
X75935Y4078D01*
X75917Y4034D01*
X75904Y3981D01*
X75891Y3925D01*
X75878Y3863D01*
X75869Y3798D01*
X75865Y3724D01*
X75861Y3649D01*
Y3645D01*
Y3632D01*
Y3610D01*
X75865Y3579D01*
Y3544D01*
X75869Y3505D01*
X75882Y3413D01*
X75904Y3308D01*
X75939Y3204D01*
X75983Y3103D01*
X76013Y3059D01*
X76044Y3016D01*
X76048D01*
X76053Y3007D01*
X76079Y2985D01*
X76118Y2950D01*
X76171Y2915D01*
X76236Y2876D01*
X76315Y2841D01*
X76407Y2819D01*
X76455Y2815D01*
X76507Y2810D01*
X76534D01*
X76555Y2815D01*
X76603Y2823D01*
X76669Y2836D01*
X76739Y2863D01*
X76818Y2898D01*
X76892Y2950D01*
X76931Y2985D01*
X76966Y3020D01*
X76970Y3024D01*
X76975Y3029D01*
X76984Y3042D01*
X76997Y3059D01*
X77010Y3081D01*
X77027Y3107D01*
X77045Y3142D01*
X77062Y3177D01*
X77080Y3221D01*
X77093Y3269D01*
X77110Y3322D01*
X77123Y3378D01*
X77137Y3444D01*
X77145Y3509D01*
X77154Y3584D01*
Y3662D01*
Y3667D01*
Y3680D01*
Y3702D01*
X77150Y3728D01*
Y3763D01*
X77145Y3802D01*
X77132Y3894D01*
X77110Y3990D01*
X77075Y4095D01*
X77027Y4191D01*
X77001Y4239D01*
X76966Y4279D01*
Y4283D01*
X76957Y4287D01*
X76931Y4314D01*
X76892Y4344D01*
X76839Y4383D01*
X76774Y4423D01*
X76695Y4458D01*
X76608Y4480D01*
X76560Y4484D01*
X76507Y4488D01*
D02*
G37*
%LPD*%
D10*
X2394Y36500D02*
X1606D01*
X2394D01*
X208008Y119047D02*
X207614D01*
X208008D01*
X207614D01*
X183219Y104006D02*
X182779Y104919D01*
X181791Y105144D01*
X180999Y104513D01*
Y103499D01*
X181791Y102868D01*
X182779Y103093D01*
X183219Y104006D01*
X138827Y133995D02*
Y139005D01*
X144142Y133995D02*
Y139005D01*
X174500Y59194D02*
Y68249D01*
X168205Y115228D02*
X192693Y115425D01*
Y140622D01*
Y140819D01*
X168402D02*
X192693D01*
X108484Y136906D02*
X114094D01*
X174500Y85472D02*
Y94528D01*
Y72194D02*
Y81249D01*
Y45694D02*
Y54749D01*
X69201Y9657D02*
X81799D01*
X69201Y29342D02*
X81799D01*
Y9657D02*
Y29342D01*
X69201Y9657D02*
Y29342D01*
X60201Y113157D02*
Y132843D01*
X72799Y113157D02*
Y132843D01*
X60201D02*
X72799D01*
X60201Y113157D02*
X72799D01*
X94714Y14539D02*
X95286D01*
X94714Y19461D02*
X95286D01*
X164208Y34101D02*
X170792D01*
X164208Y39899D02*
X170792D01*
X136961Y21714D02*
Y22286D01*
X132039Y21714D02*
Y22286D01*
X139929Y42787D02*
X153905D01*
X139929Y73890D02*
X153905D01*
X37157Y135495D02*
Y140505D01*
X31842Y135495D02*
Y140505D01*
X38398Y114083D02*
Y119595D01*
X38594Y120972D02*
X50406D01*
Y130028D01*
X38594D02*
X50406D01*
X38594Y120972D02*
Y130028D01*
X22701Y117315D02*
Y121843D01*
X23291Y123221D02*
X34709D01*
Y125779D01*
X23291D02*
X34709D01*
X23291Y123221D02*
Y125779D01*
X117791Y22106D02*
Y22894D01*
X129209D01*
Y22106D02*
Y22894D01*
X117791Y22106D02*
X129209D01*
X117457Y16004D02*
Y20728D01*
X152594Y16102D02*
Y20236D01*
X152791Y21614D02*
X164209D01*
Y23386D01*
X152791D02*
X164209D01*
X152791Y21614D02*
Y23386D01*
X138594Y16102D02*
Y20236D01*
X138791Y21614D02*
X150209D01*
Y23386D01*
X138791D02*
X150209D01*
X138791Y21614D02*
Y23386D01*
X166095Y16102D02*
Y20236D01*
X166291Y21614D02*
X177709D01*
Y23386D01*
X166291D02*
X177709D01*
X166291Y21614D02*
Y23386D01*
X182764Y18000D02*
X187000D01*
X192264D02*
X196500D01*
X83433Y120500D02*
X87567D01*
X169209Y102409D02*
Y103591D01*
X157791Y102409D02*
X169209D01*
X157791D02*
Y103591D01*
X169209D01*
X169543Y104969D02*
Y109299D01*
X131201Y109650D02*
X143799D01*
Y90350D02*
Y109650D01*
X131201Y90350D02*
X143799D01*
X131201D02*
Y109650D01*
X123819Y110158D02*
X129823D01*
D11*
X74319Y25405D02*
X73874Y26329D01*
X72875Y26557D01*
X72074Y25918D01*
Y24893D01*
X72875Y24254D01*
X73874Y24482D01*
X74319Y25405D01*
X65319Y128905D02*
X64874Y129829D01*
X63875Y130057D01*
X63074Y129418D01*
Y128393D01*
X63875Y127754D01*
X64874Y127982D01*
X65319Y128905D01*
D12*
X65658Y30248D02*
X64919Y30674D01*
Y29822D01*
X65658Y30248D01*
X56657Y133748D02*
X55919Y134174D01*
Y133322D01*
X56657Y133748D01*
X130409Y72339D02*
X129671Y72765D01*
Y71912D01*
X130409Y72339D01*
D13*
X34350Y25886D02*
X34744D01*
X34350D01*
X159937Y137787D02*
Y138181D01*
Y137787D01*
X226383Y24639D02*
Y25356D01*
X197631Y24627D02*
Y25345D01*
Y24627D02*
X226368D01*
X197623Y39644D02*
Y40362D01*
X226375Y39656D02*
Y40373D01*
X197638D02*
X226375D01*
X90000Y96366D02*
X94428Y100794D01*
X108405Y100858D02*
X115098D01*
Y86646D02*
Y100858D01*
X89902D02*
X96595D01*
X89902Y86646D02*
Y100858D01*
X115098Y44874D02*
Y59087D01*
X108405Y44874D02*
X115098D01*
X89902D02*
X96595D01*
X89902D02*
Y59087D01*
X196000Y96366D02*
X200428Y100794D01*
X214405Y100858D02*
X221098D01*
Y86646D02*
Y100858D01*
X195902D02*
X202594D01*
X195902Y86646D02*
Y100858D01*
X221098Y44874D02*
Y59087D01*
X214405Y44874D02*
X221098D01*
X195902D02*
X202594D01*
X195902D02*
Y59087D01*
X183108Y103968D02*
X184500D01*
X179500Y104000D02*
X181000D01*
X175000Y106500D02*
Y109500D01*
X179500Y112000D02*
X184465D01*
X189000Y106500D02*
Y109500D01*
X30413Y3445D02*
X44587D01*
X51772Y17224D02*
Y19980D01*
X43012D02*
X51772D01*
X23228D02*
X31988D01*
X23228Y17224D02*
Y19980D01*
D14*
X84250Y38161D02*
Y108161D01*
X3500Y38161D02*
Y108161D01*
X81321Y38166D02*
X84250Y38165D01*
X77262Y108163D02*
X84250Y108161D01*
X3500Y38161D02*
X8027D01*
X3500Y108161D02*
X9000D01*
X193102Y36602D02*
X195201D01*
X12439Y22357D02*
X10602D01*
Y20980D01*
X11521Y21439D01*
X11980D01*
X12439Y20980D01*
Y20062D01*
X11980Y19602D01*
X11062D01*
X10602Y20062D01*
X13357Y22357D02*
Y20521D01*
X14276Y19602D01*
X15194Y20521D01*
Y22357D01*
X12439Y30398D02*
X11980Y30857D01*
X11062D01*
X10602Y30398D01*
Y28561D01*
X11062Y28102D01*
X11980D01*
X12439Y28561D01*
Y29480D01*
X11521D01*
X13357Y28102D02*
Y30857D01*
X15194Y28102D01*
Y30857D01*
X16112D02*
Y28102D01*
X17490D01*
X17949Y28561D01*
Y30398D01*
X17490Y30857D01*
X16112D01*
X193102Y28652D02*
X195201D01*
X194152Y29701D02*
Y27602D01*
X209623Y9541D02*
Y8623D01*
Y9082D01*
X211918D01*
X212378Y8623D01*
Y8163D01*
X211918Y7704D01*
X212378Y11837D02*
X209623D01*
X211000Y10459D01*
Y12296D01*
X193119Y43165D02*
X192201D01*
X192660D01*
Y40869D01*
X192201Y40410D01*
X191742D01*
X191283Y40869D01*
X195875Y40410D02*
X194038D01*
X195875Y42246D01*
Y42706D01*
X195415Y43165D01*
X194497D01*
X194038Y42706D01*
X88500Y42878D02*
X87582D01*
X88041D01*
Y40582D01*
X87582Y40123D01*
X87122D01*
X86663Y40582D01*
X89418Y40123D02*
X90337D01*
X89877D01*
Y42878D01*
X89418Y42418D01*
X207041Y5378D02*
X206122D01*
X206582D01*
Y3082D01*
X206122Y2623D01*
X205663D01*
X205204Y3082D01*
X207959Y4918D02*
X208418Y5378D01*
X209337D01*
X209796Y4918D01*
Y3082D01*
X209337Y2623D01*
X208418D01*
X207959Y3082D01*
Y4918D01*
X113089Y141574D02*
X114139D01*
X113614D01*
Y138426D01*
X113089D01*
X114139D01*
X117812Y141050D02*
X117287Y141574D01*
X116238D01*
X115713Y141050D01*
Y138951D01*
X116238Y138426D01*
X117287D01*
X117812Y138951D01*
X118861Y138426D02*
X119911D01*
X119386D01*
Y141574D01*
X118861Y141050D01*
X202475Y109450D02*
Y111549D01*
X201951Y112074D01*
X200901D01*
X200376Y111549D01*
Y109450D01*
X200901Y108926D01*
X201951D01*
X201426Y109975D02*
X202475Y108926D01*
X201951D02*
X202475Y109450D01*
X205624Y112074D02*
X203525D01*
Y110500D01*
X204574Y111025D01*
X205099D01*
X205624Y110500D01*
Y109450D01*
X205099Y108926D01*
X204049D01*
X203525Y109450D01*
X191663Y109878D02*
Y107123D01*
X193500D01*
X194418D02*
X195337D01*
X194878D01*
Y109878D01*
X194418Y109418D01*
X214377Y122556D02*
X211623D01*
Y123934D01*
X212082Y124393D01*
X213000D01*
X213459Y123934D01*
Y122556D01*
Y123475D02*
X214377Y124393D01*
Y125311D02*
Y126230D01*
Y125770D01*
X211623D01*
X212082Y125311D01*
X213918Y127607D02*
X214377Y128066D01*
Y128985D01*
X213918Y129444D01*
X212082D01*
X211623Y128985D01*
Y128066D01*
X212082Y127607D01*
X212541D01*
X213000Y128066D01*
Y129444D01*
X142786Y36123D02*
Y38877D01*
X144163D01*
X144623Y38418D01*
Y37500D01*
X144163Y37041D01*
X142786D01*
X143704D02*
X144623Y36123D01*
X145541Y38418D02*
X146000Y38877D01*
X146918D01*
X147378Y38418D01*
Y37959D01*
X146918Y37500D01*
X146459D01*
X146918D01*
X147378Y37041D01*
Y36582D01*
X146918Y36123D01*
X146000D01*
X145541Y36582D01*
X148296Y36123D02*
X149214D01*
X148755D01*
Y38877D01*
X148296Y38418D01*
X121827Y40622D02*
Y43378D01*
X123204D01*
X123663Y42918D01*
Y42000D01*
X123204Y41541D01*
X121827D01*
X122745D02*
X123663Y40622D01*
X124582Y42918D02*
X125041Y43378D01*
X125959D01*
X126418Y42918D01*
Y42459D01*
X125959Y42000D01*
X125500D01*
X125959D01*
X126418Y41541D01*
Y41082D01*
X125959Y40622D01*
X125041D01*
X124582Y41082D01*
X127337Y42918D02*
X127796Y43378D01*
X128714D01*
X129173Y42918D01*
Y41082D01*
X128714Y40622D01*
X127796D01*
X127337Y41082D01*
Y42918D01*
X131541Y76918D02*
X131082Y77377D01*
X130163D01*
X129704Y76918D01*
Y75082D01*
X130163Y74622D01*
X131082D01*
X131541Y75082D01*
X134296Y74622D02*
X132459D01*
X134296Y76459D01*
Y76918D01*
X133837Y77377D01*
X132918D01*
X132459Y76918D01*
X138500Y79918D02*
X138041Y80378D01*
X137122D01*
X136663Y79918D01*
Y78082D01*
X137122Y77622D01*
X138041D01*
X138500Y78082D01*
X139418Y77622D02*
X140337D01*
X139877D01*
Y80378D01*
X139418Y79918D01*
X36276Y75378D02*
X34439D01*
Y72623D01*
X36276D01*
X34439Y74000D02*
X35357D01*
X39031Y74918D02*
X38572Y75378D01*
X37653D01*
X37194Y74918D01*
Y74459D01*
X37653Y74000D01*
X38572D01*
X39031Y73541D01*
Y73082D01*
X38572Y72623D01*
X37653D01*
X37194Y73082D01*
X39949Y72623D02*
Y75378D01*
X41327D01*
X41786Y74918D01*
Y74000D01*
X41327Y73541D01*
X39949D01*
X42704Y74918D02*
X43163Y75378D01*
X44082D01*
X44541Y74918D01*
Y74459D01*
X44082Y74000D01*
X43622D01*
X44082D01*
X44541Y73541D01*
Y73082D01*
X44082Y72623D01*
X43163D01*
X42704Y73082D01*
X47296Y72623D02*
X45459D01*
X47296Y74459D01*
Y74918D01*
X46837Y75378D01*
X45918D01*
X45459Y74918D01*
X48214Y74000D02*
X50051D01*
X52806Y74918D02*
X52347Y75378D01*
X51428D01*
X50969Y74918D01*
Y74459D01*
X51428Y74000D01*
X52347D01*
X52806Y73541D01*
Y73082D01*
X52347Y72623D01*
X51428D01*
X50969Y73082D01*
X53724Y74918D02*
X54183Y75378D01*
X55102D01*
X55561Y74918D01*
Y74459D01*
X55102Y74000D01*
X54643D01*
X55102D01*
X55561Y73541D01*
Y73082D01*
X55102Y72623D01*
X54183D01*
X53724Y73082D01*
X48041Y25877D02*
X47122D01*
X47582D01*
Y23582D01*
X47122Y23122D01*
X46663D01*
X46204Y23582D01*
X48959Y25418D02*
X49418Y25877D01*
X50337D01*
X50796Y25418D01*
Y24959D01*
X50337Y24500D01*
X49878D01*
X50337D01*
X50796Y24041D01*
Y23582D01*
X50337Y23122D01*
X49418D01*
X48959Y23582D01*
X184082Y62393D02*
X183623Y61934D01*
Y61015D01*
X184082Y60556D01*
X185918D01*
X186378Y61015D01*
Y61934D01*
X185918Y62393D01*
X186378Y63311D02*
Y64230D01*
Y63770D01*
X183623D01*
X184082Y63311D01*
X185918Y65607D02*
X186378Y66066D01*
Y66985D01*
X185918Y67444D01*
X184082D01*
X183623Y66985D01*
Y66066D01*
X184082Y65607D01*
X184541D01*
X185000Y66066D01*
Y67444D01*
X128040Y63043D02*
X130336D01*
X130795Y63502D01*
Y64420D01*
X130336Y64879D01*
X128040D01*
X128499Y65798D02*
X128040Y66257D01*
Y67175D01*
X128499Y67634D01*
X128958D01*
X129417Y67175D01*
X129876Y67634D01*
X130336D01*
X130795Y67175D01*
Y66257D01*
X130336Y65798D01*
X129876D01*
X129417Y66257D01*
X128958Y65798D01*
X128499D01*
X129417Y66257D02*
Y67175D01*
X119623Y95949D02*
X121459D01*
X122378Y96868D01*
X121459Y97786D01*
X119623D01*
X122378Y98704D02*
X119623D01*
Y100082D01*
X120082Y100541D01*
X121000D01*
X121459Y100082D01*
Y98704D01*
Y99622D02*
X122378Y100541D01*
X119623Y103296D02*
Y101459D01*
X122378D01*
Y103296D01*
X121000Y101459D02*
Y102377D01*
X120082Y106051D02*
X119623Y105592D01*
Y104673D01*
X120082Y104214D01*
X121918D01*
X122378Y104673D01*
Y105592D01*
X121918Y106051D01*
X121000D01*
Y105132D01*
X125204Y29877D02*
X127041D01*
X126122D01*
Y27123D01*
X129337D02*
Y29877D01*
X127959Y28500D01*
X129796D01*
X146204Y30878D02*
X148041D01*
X147123D01*
Y28122D01*
X148959Y30418D02*
X149418Y30878D01*
X150337D01*
X150796Y30418D01*
Y29959D01*
X150337Y29500D01*
X149878D01*
X150337D01*
X150796Y29041D01*
Y28582D01*
X150337Y28122D01*
X149418D01*
X148959Y28582D01*
X160204Y30878D02*
X162041D01*
X161123D01*
Y28122D01*
X164796D02*
X162959D01*
X164796Y29959D01*
Y30418D01*
X164337Y30878D01*
X163418D01*
X162959Y30418D01*
X173663Y30878D02*
X175500D01*
X174582D01*
Y28122D01*
X176418D02*
X177337D01*
X176877D01*
Y30878D01*
X176418Y30418D01*
X99827Y26122D02*
Y28877D01*
X101204D01*
X101663Y28418D01*
Y27500D01*
X101204Y27041D01*
X99827D01*
X100745D02*
X101663Y26122D01*
X104418D02*
X102582D01*
X104418Y27959D01*
Y28418D01*
X103959Y28877D01*
X103041D01*
X102582Y28418D01*
X105337Y26582D02*
X105796Y26122D01*
X106714D01*
X107173Y26582D01*
Y28418D01*
X106714Y28877D01*
X105796D01*
X105337Y28418D01*
Y27959D01*
X105796Y27500D01*
X107173D01*
X60327Y1623D02*
Y4377D01*
X61704D01*
X62163Y3918D01*
Y3000D01*
X61704Y2541D01*
X60327D01*
X61245D02*
X62163Y1623D01*
X64918D02*
X63082D01*
X64918Y3459D01*
Y3918D01*
X64459Y4377D01*
X63541D01*
X63082Y3918D01*
X67673Y4377D02*
X66755Y3918D01*
X65837Y3000D01*
Y2082D01*
X66296Y1623D01*
X67214D01*
X67673Y2082D01*
Y2541D01*
X67214Y3000D01*
X65837D01*
X65786Y138622D02*
Y141377D01*
X67163D01*
X67623Y140918D01*
Y140000D01*
X67163Y139541D01*
X65786D01*
X66704D02*
X67623Y138622D01*
X70377D02*
X68541D01*
X70377Y140459D01*
Y140918D01*
X69918Y141377D01*
X69000D01*
X68541Y140918D01*
X71296Y138622D02*
X72214D01*
X71755D01*
Y141377D01*
X71296Y140918D01*
X181209Y7622D02*
Y10378D01*
X182586D01*
X183045Y9918D01*
Y9000D01*
X182586Y8541D01*
X181209D01*
X182127D02*
X183045Y7622D01*
X185800D02*
X183964D01*
X185800Y9459D01*
Y9918D01*
X185341Y10378D01*
X184423D01*
X183964Y9918D01*
X186719D02*
X187178Y10378D01*
X188096D01*
X188555Y9918D01*
Y8082D01*
X188096Y7622D01*
X187178D01*
X186719Y8082D01*
Y9918D01*
X137362Y133056D02*
X134607D01*
Y134434D01*
X135066Y134893D01*
X135984D01*
X136443Y134434D01*
Y133056D01*
Y133975D02*
X137362Y134893D01*
Y135811D02*
Y136730D01*
Y136270D01*
X134607D01*
X135066Y135811D01*
Y138107D02*
X134607Y138566D01*
Y139485D01*
X135066Y139944D01*
X135525D01*
X135984Y139485D01*
X136443Y139944D01*
X136903D01*
X137362Y139485D01*
Y138566D01*
X136903Y138107D01*
X136443D01*
X135984Y138566D01*
X135525Y138107D01*
X135066D01*
X135984Y138566D02*
Y139485D01*
X143056Y141122D02*
Y143877D01*
X144434D01*
X144893Y143418D01*
Y142500D01*
X144434Y142041D01*
X143056D01*
X143975D02*
X144893Y141122D01*
X145811D02*
X146730D01*
X146270D01*
Y143877D01*
X145811Y143418D01*
X148107Y143877D02*
X149944D01*
Y143418D01*
X148107Y141582D01*
Y141122D01*
X157878Y118056D02*
X155122D01*
Y119434D01*
X155582Y119893D01*
X156500D01*
X156959Y119434D01*
Y118056D01*
Y118975D02*
X157878Y119893D01*
Y120811D02*
Y121730D01*
Y121270D01*
X155122D01*
X155582Y120811D01*
X155122Y124944D02*
X155582Y124025D01*
X156500Y123107D01*
X157418D01*
X157878Y123566D01*
Y124485D01*
X157418Y124944D01*
X156959D01*
X156500Y124485D01*
Y123107D01*
X157378Y108556D02*
X154622D01*
Y109934D01*
X155082Y110393D01*
X156000D01*
X156459Y109934D01*
Y108556D01*
Y109475D02*
X157378Y110393D01*
Y111311D02*
Y112230D01*
Y111770D01*
X154622D01*
X155082Y111311D01*
X154622Y115444D02*
Y113607D01*
X156000D01*
X155541Y114525D01*
Y114985D01*
X156000Y115444D01*
X156918D01*
X157378Y114985D01*
Y114066D01*
X156918Y113607D01*
X97378Y124556D02*
X94622D01*
Y125934D01*
X95082Y126393D01*
X96000D01*
X96459Y125934D01*
Y124556D01*
Y125475D02*
X97378Y126393D01*
Y127311D02*
Y128230D01*
Y127770D01*
X94622D01*
X95082Y127311D01*
X97378Y130985D02*
X94622D01*
X96000Y129607D01*
Y131444D01*
X106878Y124556D02*
X104122D01*
Y125934D01*
X104582Y126393D01*
X105500D01*
X105959Y125934D01*
Y124556D01*
Y125475D02*
X106878Y126393D01*
Y127311D02*
Y128230D01*
Y127770D01*
X104122D01*
X104582Y127311D01*
X106878Y131444D02*
Y129607D01*
X105041Y131444D01*
X104582D01*
X104122Y130985D01*
Y130066D01*
X104582Y129607D01*
X100181Y139213D02*
Y141968D01*
X101559D01*
X102018Y141509D01*
Y140590D01*
X101559Y140131D01*
X100181D01*
X101099D02*
X102018Y139213D01*
X102936D02*
X103854D01*
X103395D01*
Y141968D01*
X102936Y141509D01*
X105232Y139213D02*
X106150D01*
X105691D01*
Y141968D01*
X105232Y141509D01*
X143556Y128122D02*
Y130877D01*
X144934D01*
X145393Y130418D01*
Y129500D01*
X144934Y129041D01*
X143556D01*
X144475D02*
X145393Y128122D01*
X146311D02*
X147230D01*
X146770D01*
Y130877D01*
X146311Y130418D01*
X148607D02*
X149066Y130877D01*
X149985D01*
X150444Y130418D01*
Y128582D01*
X149985Y128122D01*
X149066D01*
X148607Y128582D01*
Y130418D01*
X91182Y139392D02*
Y142147D01*
X92559D01*
X93019Y141688D01*
Y140770D01*
X92559Y140311D01*
X91182D01*
X92100D02*
X93019Y139392D01*
X93937Y139851D02*
X94396Y139392D01*
X95314D01*
X95774Y139851D01*
Y141688D01*
X95314Y142147D01*
X94396D01*
X93937Y141688D01*
Y141229D01*
X94396Y140770D01*
X95774D01*
X176704Y40123D02*
Y42878D01*
X178082D01*
X178541Y42418D01*
Y41500D01*
X178082Y41041D01*
X176704D01*
X177622D02*
X178541Y40123D01*
X179459Y42878D02*
X181296D01*
Y42418D01*
X179459Y40582D01*
Y40123D01*
X156704Y35623D02*
Y38377D01*
X158082D01*
X158541Y37918D01*
Y37000D01*
X158082Y36541D01*
X156704D01*
X157623D02*
X158541Y35623D01*
X161296Y38377D02*
X160378Y37918D01*
X159459Y37000D01*
Y36082D01*
X159918Y35623D01*
X160837D01*
X161296Y36082D01*
Y36541D01*
X160837Y37000D01*
X159459D01*
X132704Y29122D02*
Y31877D01*
X134082D01*
X134541Y31418D01*
Y30500D01*
X134082Y30041D01*
X132704D01*
X133623D02*
X134541Y29122D01*
X137296Y31877D02*
X135459D01*
Y30500D01*
X136378Y30959D01*
X136837D01*
X137296Y30500D01*
Y29582D01*
X136837Y29122D01*
X135918D01*
X135459Y29582D01*
X58704Y138622D02*
Y141377D01*
X60082D01*
X60541Y140918D01*
Y140000D01*
X60082Y139541D01*
X58704D01*
X59623D02*
X60541Y138622D01*
X62837D02*
Y141377D01*
X61459Y140000D01*
X63296D01*
X101204Y15622D02*
Y18377D01*
X102582D01*
X103041Y17918D01*
Y17000D01*
X102582Y16541D01*
X101204D01*
X102122D02*
X103041Y15622D01*
X103959Y17918D02*
X104418Y18377D01*
X105337D01*
X105796Y17918D01*
Y17459D01*
X105337Y17000D01*
X104877D01*
X105337D01*
X105796Y16541D01*
Y16082D01*
X105337Y15622D01*
X104418D01*
X103959Y16082D01*
X101204Y10123D02*
Y12878D01*
X102582D01*
X103041Y12418D01*
Y11500D01*
X102582Y11041D01*
X101204D01*
X102122D02*
X103041Y10123D01*
X105796D02*
X103959D01*
X105796Y11959D01*
Y12418D01*
X105337Y12878D01*
X104418D01*
X103959Y12418D01*
X198663Y12622D02*
Y15378D01*
X200041D01*
X200500Y14918D01*
Y14000D01*
X200041Y13541D01*
X198663D01*
X199582D02*
X200500Y12622D01*
X201418D02*
X202337D01*
X201877D01*
Y15378D01*
X201418Y14918D01*
X80623Y127704D02*
Y126786D01*
X81082Y126327D01*
X82918D01*
X83377Y126786D01*
Y127704D01*
X82918Y128163D01*
X81082D01*
X80623Y127704D01*
X83377Y129082D02*
X80623D01*
Y130459D01*
X81082Y130918D01*
X82000D01*
X82459Y130459D01*
Y129082D01*
X81082Y131837D02*
X80623Y132296D01*
Y133214D01*
X81082Y133673D01*
X81541D01*
X82000Y133214D01*
Y132755D01*
Y133214D01*
X82459Y133673D01*
X82918D01*
X83377Y133214D01*
Y132296D01*
X82918Y131837D01*
X71704Y33378D02*
X70786D01*
X70327Y32918D01*
Y31082D01*
X70786Y30623D01*
X71704D01*
X72163Y31082D01*
Y32918D01*
X71704Y33378D01*
X73082Y30623D02*
Y33378D01*
X74459D01*
X74918Y32918D01*
Y32000D01*
X74459Y31541D01*
X73082D01*
X77673Y30623D02*
X75837D01*
X77673Y32459D01*
Y32918D01*
X77214Y33378D01*
X76296D01*
X75837Y32918D01*
X30786Y114877D02*
Y112122D01*
X32163D01*
X32623Y112582D01*
Y114418D01*
X32163Y114877D01*
X30786D01*
X33541Y112122D02*
Y113959D01*
X34459Y114877D01*
X35377Y113959D01*
Y112122D01*
Y113500D01*
X33541D01*
X36296Y112122D02*
X37214D01*
X36755D01*
Y114877D01*
X36296Y114418D01*
X155704Y96877D02*
Y94122D01*
X157082D01*
X157541Y94582D01*
Y96418D01*
X157082Y96877D01*
X155704D01*
X160296Y94122D02*
X158459D01*
X160296Y95959D01*
Y96418D01*
X159837Y96877D01*
X158918D01*
X158459Y96418D01*
X220582Y116163D02*
X220123Y115704D01*
Y114786D01*
X220582Y114327D01*
X222418D01*
X222878Y114786D01*
Y115704D01*
X222418Y116163D01*
X222878Y118918D02*
Y117082D01*
X221041Y118918D01*
X220582D01*
X220123Y118459D01*
Y117541D01*
X220582Y117082D01*
X222418Y119837D02*
X222878Y120296D01*
Y121214D01*
X222418Y121673D01*
X220582D01*
X220123Y121214D01*
Y120296D01*
X220582Y119837D01*
X221041D01*
X221500Y120296D01*
Y121673D01*
X83663Y113418D02*
X83204Y113877D01*
X82286D01*
X81827Y113418D01*
Y111582D01*
X82286Y111123D01*
X83204D01*
X83663Y111582D01*
X86418Y111123D02*
X84582D01*
X86418Y112959D01*
Y113418D01*
X85959Y113877D01*
X85041D01*
X84582Y113418D01*
X87337D02*
X87796Y113877D01*
X88714D01*
X89173Y113418D01*
Y112959D01*
X88714Y112500D01*
X89173Y112041D01*
Y111582D01*
X88714Y111123D01*
X87796D01*
X87337Y111582D01*
Y112041D01*
X87796Y112500D01*
X87337Y112959D01*
Y113418D01*
X87796Y112500D02*
X88714D01*
X154663Y142918D02*
X154204Y143377D01*
X153286D01*
X152827Y142918D01*
Y141082D01*
X153286Y140622D01*
X154204D01*
X154663Y141082D01*
X157418Y140622D02*
X155582D01*
X157418Y142459D01*
Y142918D01*
X156959Y143377D01*
X156041D01*
X155582Y142918D01*
X158337Y143377D02*
X160173D01*
Y142918D01*
X158337Y141082D01*
Y140622D01*
X90082Y125663D02*
X89622Y125204D01*
Y124286D01*
X90082Y123827D01*
X91918D01*
X92378Y124286D01*
Y125204D01*
X91918Y125663D01*
X92378Y128418D02*
Y126582D01*
X90541Y128418D01*
X90082D01*
X89622Y127959D01*
Y127041D01*
X90082Y126582D01*
X89622Y131173D02*
X90082Y130255D01*
X91000Y129337D01*
X91918D01*
X92378Y129796D01*
Y130714D01*
X91918Y131173D01*
X91459D01*
X91000Y130714D01*
Y129337D01*
X100082Y126163D02*
X99622Y125704D01*
Y124786D01*
X100082Y124327D01*
X101918D01*
X102377Y124786D01*
Y125704D01*
X101918Y126163D01*
X102377Y128918D02*
Y127082D01*
X100541Y128918D01*
X100082D01*
X99622Y128459D01*
Y127541D01*
X100082Y127082D01*
X99622Y131673D02*
Y129837D01*
X101000D01*
X100541Y130755D01*
Y131214D01*
X101000Y131673D01*
X101918D01*
X102377Y131214D01*
Y130296D01*
X101918Y129837D01*
X184582Y48893D02*
X184123Y48434D01*
Y47515D01*
X184582Y47056D01*
X186418D01*
X186878Y47515D01*
Y48434D01*
X186418Y48893D01*
X186878Y49811D02*
Y50730D01*
Y50270D01*
X184123D01*
X184582Y49811D01*
Y52107D02*
X184123Y52566D01*
Y53485D01*
X184582Y53944D01*
X185041D01*
X185500Y53485D01*
X185959Y53944D01*
X186418D01*
X186878Y53485D01*
Y52566D01*
X186418Y52107D01*
X185959D01*
X185500Y52566D01*
X185041Y52107D01*
X184582D01*
X185500Y52566D02*
Y53485D01*
X45893Y143418D02*
X45434Y143877D01*
X44515D01*
X44056Y143418D01*
Y141582D01*
X44515Y141122D01*
X45434D01*
X45893Y141582D01*
X46811Y141122D02*
X47730D01*
X47270D01*
Y143877D01*
X46811Y143418D01*
X50944Y143877D02*
X49107D01*
Y142500D01*
X50025Y142959D01*
X50485D01*
X50944Y142500D01*
Y141582D01*
X50485Y141122D01*
X49566D01*
X49107Y141582D01*
X184582Y75393D02*
X184123Y74934D01*
Y74015D01*
X184582Y73556D01*
X186418D01*
X186878Y74015D01*
Y74934D01*
X186418Y75393D01*
X186878Y76311D02*
Y77230D01*
Y76770D01*
X184123D01*
X184582Y76311D01*
X186878Y79985D02*
X184123D01*
X185500Y78607D01*
Y80444D01*
X184582Y87893D02*
X184123Y87434D01*
Y86515D01*
X184582Y86056D01*
X186418D01*
X186878Y86515D01*
Y87434D01*
X186418Y87893D01*
X186878Y88811D02*
Y89730D01*
Y89270D01*
X184123D01*
X184582Y88811D01*
Y91107D02*
X184123Y91566D01*
Y92485D01*
X184582Y92944D01*
X185041D01*
X185500Y92485D01*
Y92025D01*
Y92485D01*
X185959Y92944D01*
X186418D01*
X186878Y92485D01*
Y91566D01*
X186418Y91107D01*
X120082Y84393D02*
X119623Y83934D01*
Y83015D01*
X120082Y82556D01*
X121918D01*
X122378Y83015D01*
Y83934D01*
X121918Y84393D01*
X122378Y85311D02*
Y86230D01*
Y85770D01*
X119623D01*
X120082Y85311D01*
X122378Y89444D02*
Y87607D01*
X120541Y89444D01*
X120082D01*
X119623Y88985D01*
Y88066D01*
X120082Y87607D01*
X75852Y140918D02*
X75393Y141377D01*
X74475D01*
X74015Y140918D01*
Y139082D01*
X74475Y138622D01*
X75393D01*
X75852Y139082D01*
X76770Y138622D02*
X77689D01*
X77230D01*
Y141377D01*
X76770Y140918D01*
X79066Y138622D02*
X79985D01*
X79525D01*
Y141377D01*
X79066Y140918D01*
X137582Y83893D02*
X137122Y83434D01*
Y82515D01*
X137582Y82056D01*
X139418D01*
X139877Y82515D01*
Y83434D01*
X139418Y83893D01*
X139877Y84811D02*
Y85730D01*
Y85270D01*
X137122D01*
X137582Y84811D01*
Y87107D02*
X137122Y87566D01*
Y88485D01*
X137582Y88944D01*
X139418D01*
X139877Y88485D01*
Y87566D01*
X139418Y87107D01*
X137582D01*
X14582Y120041D02*
X14122Y119582D01*
Y118663D01*
X14582Y118204D01*
X16418D01*
X16878Y118663D01*
Y119582D01*
X16418Y120041D01*
X14582Y120959D02*
X14122Y121418D01*
Y122337D01*
X14582Y122796D01*
X15041D01*
X15500Y122337D01*
X15959Y122796D01*
X16418D01*
X16878Y122337D01*
Y121418D01*
X16418Y120959D01*
X15959D01*
X15500Y121418D01*
X15041Y120959D01*
X14582D01*
X15500Y121418D02*
Y122337D01*
X27541Y140418D02*
X27082Y140877D01*
X26163D01*
X25704Y140418D01*
Y138582D01*
X26163Y138122D01*
X27082D01*
X27541Y138582D01*
X29837Y138122D02*
Y140877D01*
X28459Y139500D01*
X30296D01*
X103041Y23918D02*
X102582Y24377D01*
X101663D01*
X101204Y23918D01*
Y22082D01*
X101663Y21622D01*
X102582D01*
X103041Y22082D01*
X103959Y23918D02*
X104418Y24377D01*
X105337D01*
X105796Y23918D01*
Y23459D01*
X105337Y23000D01*
X104877D01*
X105337D01*
X105796Y22541D01*
Y22082D01*
X105337Y21622D01*
X104418D01*
X103959Y22082D01*
X22286Y133123D02*
Y134959D01*
X23204Y135878D01*
X24123Y134959D01*
Y133123D01*
Y134500D01*
X22286D01*
X25041Y135878D02*
Y133123D01*
X26418D01*
X26877Y133582D01*
Y135418D01*
X26418Y135878D01*
X25041D01*
X27796Y133123D02*
X28714D01*
X28255D01*
Y135878D01*
X27796Y135418D01*
X151877Y132556D02*
X149123D01*
Y133934D01*
X149582Y134393D01*
X150500D01*
X150959Y133934D01*
Y132556D01*
Y133475D02*
X151877Y134393D01*
Y135311D02*
Y136230D01*
Y135770D01*
X149123D01*
X149582Y135311D01*
Y137607D02*
X149123Y138066D01*
Y138985D01*
X149582Y139444D01*
X150041D01*
X150500Y138985D01*
Y138525D01*
Y138985D01*
X150959Y139444D01*
X151418D01*
X151877Y138985D01*
Y138066D01*
X151418Y137607D01*
D15*
X148499Y124795D02*
X148158Y125136D01*
X147475D01*
X147134Y124795D01*
Y123431D01*
X147475Y123090D01*
X148158D01*
X148499Y123431D01*
X150545Y123090D02*
X149181D01*
X150545Y124454D01*
Y124795D01*
X150204Y125136D01*
X149522D01*
X149181Y124795D01*
X151227D02*
X151569Y125136D01*
X152251D01*
X152592Y124795D01*
Y124454D01*
X152251Y124113D01*
X151910D01*
X152251D01*
X152592Y123772D01*
Y123431D01*
X152251Y123090D01*
X151569D01*
X151227Y123431D01*
X140988Y124795D02*
X140647Y125136D01*
X139964D01*
X139623Y124795D01*
Y123431D01*
X139964Y123090D01*
X140647D01*
X140988Y123431D01*
X143034Y123090D02*
X141670D01*
X143034Y124454D01*
Y124795D01*
X142693Y125136D01*
X142011D01*
X141670Y124795D01*
X145081Y123090D02*
X143717D01*
X145081Y124454D01*
Y124795D01*
X144740Y125136D01*
X144058D01*
X143717Y124795D01*
X133255D02*
X132914Y125136D01*
X132231D01*
X131890Y124795D01*
Y123431D01*
X132231Y123090D01*
X132914D01*
X133255Y123431D01*
X135301Y123090D02*
X133937D01*
X135301Y124454D01*
Y124795D01*
X134960Y125136D01*
X134278D01*
X133937Y124795D01*
X135983Y123090D02*
X136666D01*
X136325D01*
Y125136D01*
X135983Y124795D01*
X125755D02*
X125414Y125136D01*
X124731D01*
X124390Y124795D01*
Y123431D01*
X124731Y123090D01*
X125414D01*
X125755Y123431D01*
X127801Y123090D02*
X126437D01*
X127801Y124454D01*
Y124795D01*
X127460Y125136D01*
X126778D01*
X126437Y124795D01*
X128483D02*
X128824Y125136D01*
X129507D01*
X129848Y124795D01*
Y123431D01*
X129507Y123090D01*
X128824D01*
X128483Y123431D01*
Y124795D01*
X118255D02*
X117914Y125136D01*
X117231D01*
X116890Y124795D01*
Y123431D01*
X117231Y123090D01*
X117914D01*
X118255Y123431D01*
X118937Y123090D02*
X119619D01*
X119278D01*
Y125136D01*
X118937Y124795D01*
X122007Y125136D02*
X121325Y124795D01*
X120642Y124113D01*
Y123431D01*
X120983Y123090D01*
X121666D01*
X122007Y123431D01*
Y123772D01*
X121666Y124113D01*
X120642D01*
M02*
