G04*
G04 #@! TF.GenerationSoftware,Altium Limited,Altium Designer,25.8.1 (18)*
G04*
G04 Layer_Color=32896*
%FSLAX25Y25*%
%MOIN*%
G70*
G04*
G04 #@! TF.SameCoordinates,F1F84D23-2183-468A-A06F-28952BDF526D*
G04*
G04*
G04 #@! TF.FilePolarity,Positive*
G04*
G01*
G75*
G36*
X197734Y106963D02*
X197817D01*
Y106881D01*
X197899D01*
Y105976D01*
X197981D01*
Y105893D01*
X199462D01*
Y105729D01*
X199545D01*
Y105564D01*
X199462D01*
Y105400D01*
X199380D01*
Y105235D01*
X199298D01*
Y105070D01*
X199216D01*
Y104906D01*
X199133D01*
Y104741D01*
X199051D01*
Y104577D01*
X198969D01*
Y104412D01*
X198887D01*
Y104247D01*
X198804D01*
Y104165D01*
X197899D01*
Y103260D01*
X197817D01*
Y103178D01*
X197734D01*
Y103095D01*
X196665D01*
Y103178D01*
X196582D01*
Y103260D01*
X196500D01*
Y104165D01*
X191480D01*
Y104247D01*
X191151D01*
Y104330D01*
X190986D01*
Y104412D01*
X190904D01*
Y104494D01*
X190740D01*
Y104577D01*
X190657D01*
Y104659D01*
X190575D01*
Y104741D01*
X190493D01*
Y104824D01*
X190410D01*
Y104988D01*
X190328D01*
Y105153D01*
X190246D01*
Y105317D01*
X190163D01*
Y106881D01*
X190246D01*
Y106963D01*
X190328D01*
Y107045D01*
X191398D01*
Y106963D01*
X191480D01*
Y106881D01*
X191562D01*
Y106387D01*
X191645D01*
Y106140D01*
X191727D01*
Y106058D01*
X191809D01*
Y105976D01*
X191974D01*
Y105893D01*
X196418D01*
Y105976D01*
X196500D01*
Y106881D01*
X196582D01*
Y106963D01*
X196665D01*
Y107045D01*
X197734D01*
Y106963D01*
D02*
G37*
G36*
X200203Y101779D02*
X200286D01*
Y100297D01*
X200203D01*
Y100215D01*
X200121D01*
Y100133D01*
X198722D01*
Y100215D01*
X198640D01*
Y100297D01*
X198557D01*
Y100956D01*
Y101038D01*
Y101779D01*
X198640D01*
Y101861D01*
X200203D01*
Y101779D01*
D02*
G37*
G36*
X197817D02*
X197899D01*
Y100297D01*
X197817D01*
Y100215D01*
X197734D01*
Y100133D01*
X190328D01*
Y100215D01*
X190246D01*
Y100297D01*
X190163D01*
Y101779D01*
X190246D01*
Y101861D01*
X197817D01*
Y101779D01*
D02*
G37*
G36*
X120261Y101549D02*
X120288Y101529D01*
X120291Y101496D01*
X120285Y97646D01*
X120273Y97634D01*
X120226Y97623D01*
X118327Y97617D01*
X118313Y97602D01*
X118307Y97560D01*
X118313Y97543D01*
X118307Y95686D01*
X118292Y95665D01*
X118262Y95653D01*
X118185Y95659D01*
X116352Y95653D01*
X116349Y93764D01*
X116355Y93746D01*
X116349Y93722D01*
X116329Y93702D01*
X116287Y93696D01*
X112411Y93699D01*
X112408Y95594D01*
X112414Y95618D01*
X112443Y95653D01*
X112485Y95659D01*
X114282D01*
X116346Y95665D01*
X116352Y97557D01*
X116355Y97584D01*
X116329Y97617D01*
X116287Y97623D01*
X110462Y97628D01*
X110447Y97643D01*
X110441Y97685D01*
X110447Y97726D01*
X110453Y99565D01*
X110480Y99592D01*
X110584Y99589D01*
X112295Y99592D01*
X112313Y99586D01*
X112372Y99592D01*
X112384Y99604D01*
X112393Y99607D01*
X112399Y99619D01*
X112411Y99648D01*
X112408Y101520D01*
X112425Y101543D01*
X112449Y101549D01*
X112491Y101555D01*
X116317Y101549D01*
X116346Y101532D01*
X116355Y101499D01*
X116349Y101475D01*
X116355Y99625D01*
X116376Y99598D01*
X116418Y99586D01*
X116530Y99592D01*
X118277Y99589D01*
X118298Y99604D01*
X118313Y99642D01*
X118310Y101514D01*
X118322Y101543D01*
X118363Y101555D01*
X120261Y101549D01*
D02*
G37*
G36*
X134035D02*
X134061Y101529D01*
X134067Y101505D01*
X134061Y101445D01*
X134055Y99625D01*
X134035Y99598D01*
X133987Y99586D01*
X132231D01*
X130123Y99589D01*
X130120Y101520D01*
X130138Y101543D01*
X130185Y101555D01*
X134035Y101549D01*
D02*
G37*
G36*
X200121Y99063D02*
X200286D01*
Y98981D01*
X200368D01*
Y97335D01*
X200203D01*
Y97253D01*
X200121D01*
Y97170D01*
X200039D01*
Y97088D01*
X199956D01*
Y97006D01*
X199792D01*
Y96923D01*
X199709D01*
Y96841D01*
X199627D01*
Y96759D01*
X199545D01*
Y96676D01*
X199462D01*
Y96594D01*
X199298D01*
Y96512D01*
X199216D01*
Y96430D01*
X199133D01*
Y96347D01*
X199051D01*
Y96265D01*
X198887D01*
Y96183D01*
X198804D01*
Y96100D01*
X198722D01*
Y96018D01*
X198640D01*
Y95936D01*
X198475D01*
Y95854D01*
X198393D01*
Y95771D01*
X198310D01*
Y95689D01*
X198228D01*
Y95607D01*
X198146D01*
Y95524D01*
X197981D01*
Y95442D01*
X197899D01*
Y95360D01*
X197817D01*
Y95278D01*
X197734D01*
Y95195D01*
X197570D01*
Y95113D01*
X197487D01*
Y95031D01*
X197405D01*
Y94948D01*
X197323D01*
Y94866D01*
X197241D01*
Y94784D01*
X197076D01*
Y94701D01*
X196994D01*
Y94619D01*
X196912D01*
Y94537D01*
X196829D01*
Y94455D01*
X196665D01*
Y94372D01*
X196582D01*
Y94290D01*
X196500D01*
Y94208D01*
X200203D01*
Y94125D01*
X200286D01*
Y94043D01*
X200368D01*
Y92562D01*
X200286D01*
Y92480D01*
X190246D01*
Y92562D01*
X190163D01*
Y94043D01*
X190246D01*
Y94125D01*
X190328D01*
Y94208D01*
X194278D01*
Y94290D01*
X194443D01*
Y94372D01*
X194525D01*
Y94455D01*
X194607D01*
Y94537D01*
X194690D01*
Y94619D01*
X194772D01*
Y94701D01*
X194936D01*
Y94784D01*
X195019D01*
Y94866D01*
X195101D01*
Y94948D01*
X195183D01*
Y95031D01*
X195266D01*
Y95113D01*
X195348D01*
Y95195D01*
X195101D01*
Y95278D01*
X194936D01*
Y95360D01*
X194690D01*
Y95442D01*
X194443D01*
Y95524D01*
X194196D01*
Y95607D01*
X193949D01*
Y95689D01*
X193784D01*
Y95771D01*
X193537D01*
Y95854D01*
X193291D01*
Y95936D01*
X193044D01*
Y96018D01*
X192797D01*
Y96100D01*
X192550D01*
Y96183D01*
X192385D01*
Y96265D01*
X192139D01*
Y96347D01*
X191892D01*
Y96430D01*
X191645D01*
Y96512D01*
X191398D01*
Y96594D01*
X191233D01*
Y96676D01*
X190986D01*
Y96759D01*
X190740D01*
Y96841D01*
X190493D01*
Y96923D01*
X190246D01*
Y97006D01*
X190163D01*
Y98651D01*
X190246D01*
Y98734D01*
X190328D01*
Y98816D01*
X190410D01*
Y98734D01*
X190657D01*
Y98651D01*
X190904D01*
Y98569D01*
X191069D01*
Y98487D01*
X191316D01*
Y98405D01*
X191562D01*
Y98322D01*
X191809D01*
Y98240D01*
X191974D01*
Y98158D01*
X192221D01*
Y98075D01*
X192468D01*
Y97993D01*
X192632D01*
Y97911D01*
X192879D01*
Y97829D01*
X193126D01*
Y97746D01*
X193291D01*
Y97664D01*
X193537D01*
Y97582D01*
X193784D01*
Y97499D01*
X194031D01*
Y97417D01*
X194196D01*
Y97335D01*
X194443D01*
Y97253D01*
X194690D01*
Y97170D01*
X194854D01*
Y97088D01*
X195101D01*
Y97006D01*
X195348D01*
Y96923D01*
X195512D01*
Y96841D01*
X195759D01*
Y96759D01*
X196006D01*
Y96676D01*
X196253D01*
Y96594D01*
X196418D01*
Y96512D01*
X196665D01*
Y96430D01*
X196912D01*
Y96512D01*
X197076D01*
Y96594D01*
X197158D01*
Y96676D01*
X197241D01*
Y96759D01*
X197323D01*
Y96841D01*
X197405D01*
Y96923D01*
X197487D01*
Y97006D01*
X197652D01*
Y97088D01*
X197734D01*
Y97170D01*
X197817D01*
Y97253D01*
X197899D01*
Y97335D01*
X197981D01*
Y97417D01*
X198146D01*
Y97499D01*
X198228D01*
Y97582D01*
X198310D01*
Y97664D01*
X198393D01*
Y97746D01*
X198475D01*
Y97829D01*
X198557D01*
Y97911D01*
X198722D01*
Y97993D01*
X198804D01*
Y98075D01*
X198887D01*
Y98158D01*
X198969D01*
Y98240D01*
X199051D01*
Y98322D01*
X199216D01*
Y98405D01*
X199298D01*
Y98487D01*
X199380D01*
Y98569D01*
X199462D01*
Y98651D01*
X199545D01*
Y98734D01*
X199627D01*
Y98816D01*
X199792D01*
Y98898D01*
X199874D01*
Y98981D01*
X199956D01*
Y99063D01*
X200039D01*
Y99145D01*
X200121D01*
Y99063D01*
D02*
G37*
G36*
X141918Y97617D02*
X141933Y97602D01*
X141939Y97578D01*
X141933Y97501D01*
X141939Y95662D01*
X143816Y95659D01*
X143822Y95665D01*
X143840Y95659D01*
X143863Y95653D01*
X143890Y95626D01*
X143896Y95585D01*
X143899Y93737D01*
X143890Y93717D01*
X143875Y93702D01*
X143852Y93696D01*
X141936Y93690D01*
X141930Y91744D01*
X141921Y91724D01*
X141882Y91709D01*
X140052Y91712D01*
X139987Y91706D01*
X139966Y91691D01*
X139957Y91664D01*
X139963Y89778D01*
X139972Y89769D01*
X140002Y89757D01*
X141912Y89751D01*
X141927Y89736D01*
X141933Y89713D01*
X141927Y87803D01*
X141912Y87788D01*
X141888Y87782D01*
X139984Y87776D01*
X139969Y87767D01*
X139963Y87755D01*
X139957Y87737D01*
X139960Y83879D01*
X139952Y83858D01*
X139943Y83849D01*
X139901Y83843D01*
X138015Y83849D01*
X138006Y83858D01*
X137994Y83888D01*
X138000Y83947D01*
Y84570D01*
Y84576D01*
X137994Y89730D01*
X137979Y89745D01*
X137932Y89757D01*
X136040Y89763D01*
X136031Y89772D01*
X136019Y89813D01*
X136025Y89890D01*
X136022Y95588D01*
X136028Y95624D01*
X136046Y95653D01*
X136069Y95659D01*
X137967Y95653D01*
X137988Y95638D01*
X138000Y95609D01*
X137997Y93731D01*
X138006Y93711D01*
X138015Y93702D01*
X138039Y93696D01*
X141933Y93699D01*
X141930Y95659D01*
X139990Y95665D01*
X139978Y95677D01*
X139969Y95680D01*
X139957Y95721D01*
X139963Y97608D01*
X139996Y97623D01*
X141918Y97617D01*
D02*
G37*
G36*
X128138Y101549D02*
X128153Y101534D01*
X128159Y101511D01*
X128156Y101431D01*
X128159Y99696D01*
X128153Y99678D01*
X128162Y99621D01*
X128171Y99601D01*
X128180Y99592D01*
X128204Y99586D01*
X128316Y99592D01*
X130120Y99586D01*
X130123Y97631D01*
X130114Y97623D01*
X126205Y97617D01*
X126184Y97602D01*
X126178Y97560D01*
X126184Y97536D01*
X126187Y95659D01*
X130090Y95665D01*
X130111Y95686D01*
X130123Y95715D01*
X130126Y97623D01*
X132051Y97625D01*
X132074Y97620D01*
X132086Y97608D01*
X132092Y97584D01*
X132089Y97510D01*
X132095Y93696D01*
X134035Y93690D01*
X134061Y93669D01*
X134067Y93645D01*
X134061Y93586D01*
X134067Y87814D01*
X134088Y87788D01*
X134112Y87782D01*
X135977Y87785D01*
X136001Y87779D01*
X136019Y87761D01*
X136025Y87720D01*
X136019Y83858D01*
X136010Y83849D01*
X135986Y83843D01*
X134082Y83849D01*
X134061Y83870D01*
X134055Y83899D01*
X134061Y83917D01*
X134055Y85798D01*
X134035Y85818D01*
X134011Y85824D01*
X133960Y85827D01*
X132092Y85821D01*
X132089Y83938D01*
X132092Y83876D01*
X132077Y83849D01*
X132053Y83843D01*
X130143Y83849D01*
X130123Y83870D01*
X130117Y83894D01*
X130123Y83953D01*
X130129Y85798D01*
X130149Y85818D01*
X130197Y85830D01*
X130309Y85824D01*
X132089Y85830D01*
X132092Y89695D01*
X132086Y89713D01*
X132080Y89742D01*
X132071Y89751D01*
X132047Y89757D01*
X131876D01*
X130194Y89754D01*
X130158Y89760D01*
X130129Y89778D01*
X130117Y89819D01*
X130123Y89861D01*
X130120Y91661D01*
X130132Y91691D01*
X130161Y91709D01*
X130221Y91715D01*
X130262Y91709D01*
X130339Y91715D01*
X132062Y91712D01*
X132086Y91735D01*
X132092Y91830D01*
X132089Y93696D01*
X128174Y93690D01*
X128159Y93675D01*
X128153Y93651D01*
X128159Y93539D01*
X128156Y83932D01*
X128159Y83870D01*
X128145Y83849D01*
X128121Y83843D01*
X126205Y83837D01*
X126184Y83816D01*
X126178Y83793D01*
X126184Y83733D01*
X126187Y79916D01*
X128118Y79913D01*
X128141Y79919D01*
X128153Y79931D01*
X128159Y79955D01*
X128156Y80035D01*
X128159Y81770D01*
X128153Y81788D01*
X128159Y81847D01*
X128186Y81880D01*
X128216Y81886D01*
X128233Y81880D01*
X130084Y81874D01*
X130111Y81853D01*
X130123Y81823D01*
X130120Y79946D01*
X130132Y79928D01*
X130161Y79916D01*
X130212Y79913D01*
X132059Y79916D01*
X132086Y79896D01*
X132092Y79872D01*
X132089Y79798D01*
X132092Y78003D01*
X132086Y77986D01*
X132068Y77956D01*
X132059Y77947D01*
X131967Y77950D01*
X130232Y77947D01*
X130215Y77953D01*
X130167Y77947D01*
X130140Y77932D01*
X130134Y77920D01*
X130123Y77891D01*
X130120Y76025D01*
X130132Y75995D01*
X130173Y75978D01*
X130215Y75972D01*
X130256Y75978D01*
X131997Y75975D01*
X132059Y75978D01*
X132074Y75969D01*
X132086Y75939D01*
X132092Y75880D01*
X132095Y74002D01*
X136004Y73997D01*
X136019Y73982D01*
X136025Y73940D01*
X136019Y72066D01*
X136004Y72051D01*
X135980Y72045D01*
X134088Y72039D01*
X134067Y72018D01*
X134061Y71977D01*
X134067Y70102D01*
X134082Y70082D01*
X134124Y70070D01*
X134254Y70076D01*
X137997Y70070D01*
X138003Y68136D01*
X138021Y68106D01*
X138050Y68094D01*
X138163Y68100D01*
X139857Y68097D01*
X139919Y68100D01*
X139946Y68080D01*
X139957Y68050D01*
X139963Y62225D01*
X139978Y62210D01*
X140038Y62204D01*
X141933Y62201D01*
X141936Y60223D01*
X143869Y60217D01*
X143890Y60196D01*
X143896Y60173D01*
X143899Y56290D01*
X145865Y56287D01*
X145871Y54360D01*
X145892Y54339D01*
X145916Y54333D01*
X146011Y54339D01*
X147769Y54336D01*
X147799Y54342D01*
X147829Y54360D01*
X147841Y54389D01*
X147835Y54466D01*
X147832Y56290D01*
X145865Y56293D01*
X145862Y62204D01*
X141933Y62207D01*
X141939Y68068D01*
X141959Y68094D01*
X141983Y68100D01*
X142057Y68097D01*
X143792Y68100D01*
X143810Y68094D01*
X143858Y68100D01*
X143884Y68121D01*
X143896Y68151D01*
X143899Y70070D01*
X144047Y70076D01*
X147722Y70073D01*
X147773Y70076D01*
X147790Y70070D01*
X147829Y70049D01*
X147841Y70019D01*
X147835Y69942D01*
X147829Y68133D01*
X147814Y68112D01*
X147802Y68106D01*
X147784Y68100D01*
X147761Y68094D01*
X147672Y68100D01*
X147654Y68094D01*
X145895Y68097D01*
X145877Y68080D01*
X145865Y68032D01*
X145871Y66134D01*
X147725Y66131D01*
X147743Y66137D01*
X147802Y66131D01*
X147835Y66110D01*
X147841Y66087D01*
X147835Y66009D01*
X147829Y64200D01*
X147808Y64179D01*
X147778Y64168D01*
X145871Y64165D01*
X145865Y64141D01*
X145868Y62204D01*
X147814Y62198D01*
X147835Y62178D01*
X147841Y62154D01*
X147835Y62094D01*
X147841Y60256D01*
X147862Y60229D01*
X147885Y60223D01*
X147927Y60217D01*
X147944Y60223D01*
X149798Y60220D01*
X149801Y58266D01*
X151747Y58260D01*
X151768Y58239D01*
X151773Y58215D01*
X151768Y56317D01*
X151753Y56302D01*
X151705Y56290D01*
X149798Y56293D01*
X149795Y58266D01*
X147867Y58260D01*
X147847Y58245D01*
X147835Y58203D01*
X147838Y56290D01*
X149798Y56287D01*
X149801Y54446D01*
X149798Y54377D01*
X149816Y54348D01*
X149825Y54339D01*
X149866Y54333D01*
X149890Y54339D01*
X151741Y54333D01*
X151768Y54312D01*
X151773Y54288D01*
X151776Y52387D01*
X151759Y52364D01*
X151711Y52352D01*
X147855Y52346D01*
X147835Y52325D01*
X147829Y52301D01*
X147835Y52260D01*
X147832Y48461D01*
X147847Y48440D01*
X147855Y48431D01*
X147897Y48425D01*
X151747Y48419D01*
X151773Y48398D01*
X151779Y48375D01*
X151773Y48297D01*
X151768Y46488D01*
X151747Y46468D01*
X151676Y46456D01*
X151604Y46461D01*
X151587Y46456D01*
X149935Y46459D01*
X149884Y46456D01*
X149866Y46461D01*
X149825Y46456D01*
X149810Y46441D01*
X149798Y46393D01*
X149801Y44528D01*
X149792Y44507D01*
X149783Y44498D01*
X149760Y44492D01*
X149680Y44495D01*
X147891Y44492D01*
X147855Y44504D01*
X147841Y44513D01*
X147829Y44543D01*
X147835Y44584D01*
X147829Y46423D01*
X147808Y46450D01*
X147761Y46461D01*
X147648Y46456D01*
X145954Y46459D01*
X145898Y46456D01*
X145877Y46476D01*
X145865Y46524D01*
X145868Y52322D01*
X145860Y52343D01*
X145833Y52352D01*
X145809Y52358D01*
X145791Y52352D01*
X143923Y52358D01*
X143896Y52378D01*
X143890Y52402D01*
X143896Y52461D01*
X143893Y56290D01*
X141936Y56284D01*
X141933Y52432D01*
X141939Y52414D01*
X141933Y52372D01*
X141918Y52358D01*
X141876Y52352D01*
X139978Y52346D01*
X139963Y52337D01*
X139957Y52313D01*
X139963Y48446D01*
X139978Y48431D01*
X140020Y48425D01*
X141918Y48419D01*
X141933Y48404D01*
X141939Y48363D01*
X141933Y48321D01*
X141927Y46482D01*
X141906Y46461D01*
X141865Y46456D01*
X141841Y46461D01*
X141799Y46456D01*
X141781Y46461D01*
X141687Y46456D01*
X136161Y46459D01*
X136135Y46456D01*
X136117Y46461D01*
X136075Y46456D01*
X136034Y46479D01*
X136025Y46506D01*
X136022Y46551D01*
X136025Y48398D01*
X136004Y48419D01*
X135980Y48425D01*
X130143Y48431D01*
X130123Y48452D01*
X130117Y48475D01*
X130123Y48535D01*
X130126Y52352D01*
X132071Y52358D01*
X132086Y52372D01*
X132092Y52396D01*
X132089Y52470D01*
X132092Y54277D01*
X132086Y54294D01*
X132080Y54318D01*
X132071Y54333D01*
X132047Y54339D01*
X131962Y54336D01*
X130280Y54339D01*
X130262Y54333D01*
X130203Y54339D01*
X130152Y54330D01*
X130129Y54306D01*
X130123Y54282D01*
X130117Y52355D01*
X126234Y52352D01*
X126217Y52358D01*
X126187Y52375D01*
X126178Y52402D01*
X126184Y52479D01*
X126190Y60220D01*
X130072Y60223D01*
X130114Y60199D01*
X130123Y60173D01*
X130126Y60158D01*
X130123Y58269D01*
X132092Y58263D01*
X132098Y56311D01*
X132107Y56296D01*
X132131Y56290D01*
X134061Y56287D01*
X134058Y52393D01*
X134067Y52372D01*
X134076Y52364D01*
X134118Y52352D01*
X135977Y52355D01*
X136001Y52349D01*
X136019Y52337D01*
X136025Y52313D01*
X136022Y50459D01*
X136028Y50424D01*
X136040Y50400D01*
X136069Y50388D01*
X137967Y50394D01*
X137994Y50421D01*
X138000Y50463D01*
X137997Y54339D01*
X136137Y54336D01*
X136105Y54339D01*
X136087Y54333D01*
X136048Y54342D01*
X136031Y54354D01*
X136019Y54395D01*
X136025Y54472D01*
X136022Y56290D01*
X134061Y56293D01*
X134055Y58233D01*
X134041Y58254D01*
X133999Y58266D01*
X132092Y58269D01*
X132089Y62175D01*
X132101Y62198D01*
X132125Y62204D01*
X134061Y62201D01*
X134067Y60250D01*
X134094Y60223D01*
X134153Y60217D01*
X134171Y60223D01*
X135983Y60220D01*
X136004Y60229D01*
X136013Y60238D01*
X136025Y60285D01*
X136019Y62189D01*
X136010Y62198D01*
X135986Y62204D01*
X134061Y62207D01*
X134067Y64135D01*
X134088Y64162D01*
X134130Y64174D01*
X134207Y64168D01*
X135998Y64174D01*
X136013Y64188D01*
X136025Y64230D01*
X136019Y68068D01*
X135998Y68094D01*
X135974Y68100D01*
X135844Y68094D01*
X134109Y68097D01*
X134076Y68077D01*
X134061Y68044D01*
X134064Y66167D01*
X134049Y66146D01*
X134023Y66137D01*
X133964Y66131D01*
X132181Y66134D01*
X132125Y66131D01*
X132095Y66149D01*
X132086Y66181D01*
X132092Y66276D01*
X132086Y68068D01*
X132059Y68100D01*
X131893Y68094D01*
X130182Y68097D01*
X130158Y68091D01*
X130134Y68074D01*
X130123Y68044D01*
X130126Y62246D01*
X130117Y62225D01*
X130108Y62216D01*
X130066Y62204D01*
X126184Y62207D01*
X126178Y64135D01*
X126157Y64162D01*
X126110Y64174D01*
X126086Y64168D01*
X122248Y64162D01*
X122245Y62278D01*
X122251Y62261D01*
X122245Y62225D01*
X122231Y62210D01*
X122207Y62204D01*
X120288Y62207D01*
X120285Y64168D01*
X118313Y64171D01*
X118310Y66096D01*
X118319Y66116D01*
X118333Y66131D01*
X118387Y66137D01*
X118405Y66131D01*
X120199Y66134D01*
X120258Y66128D01*
X120282Y66116D01*
X120288Y66092D01*
X120291Y66078D01*
X120288Y64171D01*
X122237Y64168D01*
X122245Y64177D01*
X122251Y66116D01*
X122260Y66125D01*
X122284Y66131D01*
X124200Y66137D01*
X124221Y66152D01*
X124227Y66193D01*
X124221Y66253D01*
X124224Y70028D01*
X124212Y70058D01*
X124182Y70070D01*
X122266Y70064D01*
X122251Y70049D01*
X122245Y70025D01*
X122239Y68127D01*
X122219Y68100D01*
X122195Y68094D01*
X122106Y68100D01*
X122088Y68094D01*
X116403Y68097D01*
X116373Y68086D01*
X116361Y68074D01*
X116349Y68044D01*
X116355Y64200D01*
X116382Y64174D01*
X116423Y64168D01*
X118313Y64165D01*
X118316Y62204D01*
X120288Y62201D01*
X120282Y60250D01*
X120261Y60229D01*
X120238Y60223D01*
X120175Y60220D01*
X118387Y60223D01*
X118369Y60217D01*
X118336Y60226D01*
X118324Y60232D01*
X118313Y60262D01*
X118310Y62204D01*
X114380Y62207D01*
X114374Y70055D01*
X114359Y70070D01*
X114335Y70076D01*
X114223Y70070D01*
X112541Y70073D01*
X112473Y70070D01*
X112455Y70076D01*
X112423Y70091D01*
X112411Y70120D01*
X112414Y74002D01*
X116317Y73997D01*
X116349Y73970D01*
X116346Y72098D01*
X116352Y72075D01*
X116376Y72051D01*
X116418Y72045D01*
X124200Y72051D01*
X124221Y72072D01*
X124227Y72113D01*
X124221Y72172D01*
X124224Y73961D01*
X124215Y73982D01*
X124200Y73997D01*
X124158Y74002D01*
X122272Y74008D01*
X122257Y74017D01*
X122245Y74059D01*
X122239Y77920D01*
X122219Y77947D01*
X122177Y77953D01*
X122118Y77947D01*
X120395Y77950D01*
X120332Y77947D01*
X120300Y77968D01*
X120288Y77997D01*
X120285Y79916D01*
X116409Y79913D01*
X116379Y79919D01*
X116349Y79937D01*
X116343Y79979D01*
X116349Y79997D01*
X116355Y81847D01*
X116382Y81874D01*
X116406Y81880D01*
X118271Y81877D01*
X118292Y81886D01*
X118301Y81895D01*
X118313Y81936D01*
X118307Y83828D01*
X118298Y83837D01*
X118274Y83843D01*
X116370Y83849D01*
X116349Y83870D01*
X116343Y83894D01*
X116349Y83953D01*
X116343Y85792D01*
X116323Y85818D01*
X116299Y85824D01*
X116245Y85830D01*
X116228Y85824D01*
X114380Y85821D01*
X114374Y83858D01*
X114365Y83849D01*
X114341Y83843D01*
X110462Y83849D01*
X110447Y83864D01*
X110441Y83905D01*
X110447Y83929D01*
X110453Y85809D01*
X110468Y85824D01*
X110492Y85830D01*
X110604Y85824D01*
X114377Y85830D01*
X114380Y87779D01*
X112452Y87785D01*
X112431Y87794D01*
X112417Y87809D01*
X112411Y87832D01*
X112414Y91709D01*
X112544Y91715D01*
X118277Y91712D01*
X118301Y91724D01*
X118313Y91765D01*
X118310Y93654D01*
X118316Y93678D01*
X118327Y93690D01*
X118369Y93696D01*
X120267Y93702D01*
X120288Y93722D01*
X120291Y93749D01*
X120288Y95615D01*
X120306Y95644D01*
X120315Y95653D01*
X120356Y95665D01*
X120380Y95659D01*
X122198Y95662D01*
X122228Y95650D01*
X122233Y95638D01*
X122245Y95609D01*
X122251Y93711D01*
X122284Y93696D01*
X126163Y93702D01*
X126184Y93722D01*
X126190Y93752D01*
X126184Y93770D01*
X126181Y95659D01*
X124268Y95656D01*
X124247Y95665D01*
X124232Y95680D01*
X124221Y95727D01*
X124224Y99521D01*
X124218Y99556D01*
X124203Y99577D01*
X124176Y99586D01*
X122278Y99592D01*
X122251Y99619D01*
X122245Y99660D01*
X122251Y101534D01*
X122260Y101543D01*
X122308Y101555D01*
X128138Y101549D01*
D02*
G37*
G36*
X145865Y91688D02*
X145871Y91628D01*
X145865Y91611D01*
X145868Y89799D01*
X145862Y89775D01*
X145845Y89757D01*
X145803Y89751D01*
X145779Y89757D01*
X145151D01*
X143923Y89763D01*
X143902Y89778D01*
X143890Y89825D01*
X143896Y89843D01*
X143893Y91661D01*
X143905Y91691D01*
X143947Y91709D01*
X143988Y91715D01*
X144059Y91709D01*
X144077Y91715D01*
X145782Y91712D01*
X145833Y91715D01*
X145865Y91688D01*
D02*
G37*
G36*
X112408Y93690D02*
X112411Y91717D01*
X112384Y91709D01*
X110542Y91712D01*
X110480Y91709D01*
X110453Y91729D01*
X110447Y91753D01*
X110444Y93660D01*
X110447Y93675D01*
X110450Y93678D01*
X110462Y93690D01*
X110486Y93696D01*
X112408Y93690D01*
D02*
G37*
G36*
X196006Y91163D02*
X196418D01*
Y91081D01*
X196665D01*
Y90998D01*
X196912D01*
Y90916D01*
X196994D01*
Y90834D01*
X197158D01*
Y90751D01*
X197241D01*
Y90669D01*
X197323D01*
Y90504D01*
X197405D01*
Y90422D01*
X197487D01*
Y90340D01*
X197570D01*
Y90175D01*
X197652D01*
Y90011D01*
X197734D01*
Y89764D01*
X197817D01*
Y89517D01*
X197899D01*
Y87789D01*
X197817D01*
Y87542D01*
X197734D01*
Y87295D01*
X197652D01*
Y87130D01*
X197570D01*
Y86966D01*
X197487D01*
Y86801D01*
X197405D01*
Y86719D01*
X197323D01*
Y86637D01*
X197241D01*
Y86554D01*
X197158D01*
Y86472D01*
X197076D01*
Y86390D01*
X196994D01*
Y86308D01*
X196829D01*
Y86225D01*
X196665D01*
Y86143D01*
X196418D01*
Y86061D01*
X191727D01*
Y86143D01*
X191398D01*
Y86225D01*
X191233D01*
Y86308D01*
X191069D01*
Y86390D01*
X190986D01*
Y86472D01*
X190904D01*
Y86554D01*
X190822D01*
Y86637D01*
X190740D01*
Y86719D01*
X190657D01*
Y86801D01*
X190575D01*
Y86966D01*
X190493D01*
Y87130D01*
X190410D01*
Y87295D01*
X190328D01*
Y87542D01*
X190246D01*
Y87789D01*
X190163D01*
Y89517D01*
X190246D01*
Y89764D01*
X190328D01*
Y90011D01*
X190410D01*
Y90175D01*
X190493D01*
Y90340D01*
X190575D01*
Y90504D01*
X190657D01*
Y90587D01*
X190740D01*
Y90669D01*
X190822D01*
Y90751D01*
X190904D01*
Y90834D01*
X190986D01*
Y90916D01*
X191151D01*
Y90998D01*
X191316D01*
Y91081D01*
X191562D01*
Y91163D01*
X191974D01*
Y91245D01*
X192879D01*
Y91163D01*
X192961D01*
Y91081D01*
X193044D01*
Y89599D01*
X192961D01*
Y89517D01*
X192879D01*
Y89435D01*
X191809D01*
Y89352D01*
X191727D01*
Y89270D01*
X191645D01*
Y88941D01*
X191562D01*
Y88283D01*
X191645D01*
Y87954D01*
X191727D01*
Y87871D01*
X191892D01*
Y87789D01*
X193784D01*
Y91081D01*
X193867D01*
Y91163D01*
X193949D01*
Y91245D01*
X196006D01*
Y91163D01*
D02*
G37*
G36*
X167490Y101549D02*
X167504Y101534D01*
X167510Y101511D01*
X167504Y87826D01*
X167490Y87800D01*
X167448Y87788D01*
X167430Y87794D01*
X162430D01*
X153781Y87800D01*
X153770Y87811D01*
X153761Y87814D01*
X153755Y87826D01*
X153743Y87856D01*
X153749Y101534D01*
X153781Y101549D01*
X153841Y101555D01*
X167490Y101549D01*
D02*
G37*
G36*
X142096Y85824D02*
X143757D01*
X145836Y85827D01*
X145857Y85812D01*
X145865Y85786D01*
X145868Y83873D01*
X145854Y83852D01*
X145845Y83843D01*
X141948Y83849D01*
X141939Y83858D01*
X141933Y83882D01*
X141939Y85804D01*
X141959Y85824D01*
X141983Y85830D01*
X142096Y85824D01*
D02*
G37*
G36*
X200203Y84497D02*
X200286D01*
Y84415D01*
X200368D01*
Y82934D01*
X200286D01*
Y82851D01*
X190246D01*
Y82934D01*
X190163D01*
Y84415D01*
X190246D01*
Y84497D01*
X190328D01*
Y84579D01*
X200203D01*
Y84497D01*
D02*
G37*
G36*
X149783Y101549D02*
X149798Y101534D01*
X149804Y101493D01*
X149798Y101434D01*
X149801Y97717D01*
X149798Y97655D01*
X149819Y97628D01*
X149843Y97623D01*
X151753Y97617D01*
X151773Y97602D01*
X151779Y97578D01*
X151773Y97501D01*
X151768Y95692D01*
X151759Y95677D01*
X151747Y95671D01*
X151717Y95659D01*
X147867Y95653D01*
X147847Y95632D01*
X147835Y95603D01*
X147838Y93696D01*
X151747Y93690D01*
X151773Y93669D01*
X151779Y93645D01*
X151773Y93568D01*
X151776Y89805D01*
X151770Y89781D01*
X151759Y89769D01*
X151729Y89757D01*
X149825Y89751D01*
X149810Y89742D01*
X149804Y89719D01*
X149798Y89677D01*
X149801Y87782D01*
X151747Y87776D01*
X151768Y87761D01*
X151779Y87720D01*
X151773Y87678D01*
X151779Y85851D01*
X151794Y85836D01*
X151824Y85824D01*
X151910Y85827D01*
X159565Y85824D01*
X159582Y85830D01*
X159618Y85824D01*
X159633Y85816D01*
X159645Y85786D01*
X159648Y83885D01*
X159642Y83861D01*
X159630Y83849D01*
X159606Y83843D01*
X157690Y83837D01*
X157670Y83816D01*
X157676Y81912D01*
X157702Y81886D01*
X157726Y81880D01*
X163577Y81883D01*
X163575Y83843D01*
X161635Y83849D01*
X161608Y83870D01*
X161602Y83899D01*
X161608Y83917D01*
X161614Y85792D01*
X161635Y85818D01*
X161659Y85824D01*
X161700Y85830D01*
X161759Y85824D01*
X163548Y85827D01*
X163569Y85812D01*
X163577Y85780D01*
X163581Y83843D01*
X165526Y83837D01*
X165538Y83825D01*
X165547Y83822D01*
X165553Y83799D01*
X165547Y83686D01*
X165553Y81883D01*
X167448Y81880D01*
X167460Y81886D01*
X167498Y81865D01*
X167510Y81835D01*
X167504Y77974D01*
X167490Y77953D01*
X167466Y77947D01*
X167386Y77950D01*
X165553Y77944D01*
X165547Y77920D01*
X165550Y76079D01*
X165547Y76016D01*
X165574Y75984D01*
X165621Y75972D01*
X165698Y75978D01*
X167415Y75975D01*
X167478Y75978D01*
X167504Y75957D01*
X167510Y75915D01*
X167504Y74023D01*
X167495Y74008D01*
X167454Y73997D01*
X167412Y74002D01*
X166428D01*
X163613Y74000D01*
X163589Y74011D01*
X163577Y74053D01*
X163575Y77947D01*
X161611Y77953D01*
X161608Y79836D01*
X161614Y79854D01*
X161608Y79890D01*
X161593Y79905D01*
X161546Y79916D01*
X159746Y79913D01*
X159677Y79916D01*
X159645Y79890D01*
X159648Y77953D01*
X159731Y77947D01*
X159749Y77953D01*
X161501Y77950D01*
X161552Y77953D01*
X161570Y77947D01*
X161608Y77944D01*
X161602Y74029D01*
X161582Y74008D01*
X161558Y74002D01*
X157696Y74008D01*
X157676Y74029D01*
X157670Y74071D01*
X157676Y75945D01*
X157684Y75960D01*
X157696Y75966D01*
X157714Y75972D01*
X157756Y75978D01*
X159603Y75975D01*
X159633Y75987D01*
X159645Y76016D01*
X159642Y77947D01*
X155712Y77944D01*
X155706Y75999D01*
X155691Y75984D01*
X155668Y75978D01*
X155582Y75975D01*
X153906Y75978D01*
X153888Y75972D01*
X153864Y75978D01*
X153820Y75975D01*
X153793Y75978D01*
X153775Y75972D01*
X153752Y75966D01*
X153737Y75933D01*
X153740Y74002D01*
X155685Y73997D01*
X155700Y73988D01*
X155706Y73976D01*
X155712Y73958D01*
X155715Y72045D01*
X157616Y72048D01*
X157640Y72042D01*
X157658Y72030D01*
X157670Y72000D01*
X157664Y64200D01*
X157643Y64174D01*
X157619Y64168D01*
X151806Y64174D01*
X151779Y64200D01*
X151773Y64242D01*
X151779Y66116D01*
X151788Y66125D01*
X151836Y66137D01*
X151948Y66131D01*
X155685Y66137D01*
X155712Y66158D01*
X155706Y68068D01*
X155685Y68089D01*
X155662Y68094D01*
X155635Y68097D01*
X155632Y68094D01*
X155614Y68100D01*
X155501Y68094D01*
X153867Y68097D01*
X153841Y68094D01*
X153823Y68100D01*
X153799Y68094D01*
X153775Y68100D01*
X153746Y68118D01*
X153737Y68145D01*
X153731Y68198D01*
X153737Y68216D01*
X153734Y70028D01*
X153746Y70058D01*
X153775Y70070D01*
X153817Y70076D01*
X153829Y70070D01*
X153847Y70076D01*
X153906Y70070D01*
X153924Y70076D01*
X155617Y70073D01*
X155682Y70079D01*
X155700Y70091D01*
X155712Y70132D01*
X155709Y72045D01*
X153758Y72051D01*
X153737Y72072D01*
X153731Y72113D01*
X153737Y72172D01*
X153731Y74000D01*
X151782Y74002D01*
X151773Y73994D01*
X151776Y72092D01*
X151768Y72072D01*
X151753Y72057D01*
X151711Y72045D01*
X143896Y72048D01*
X143893Y74002D01*
X141980Y74000D01*
X141956Y74005D01*
X141945Y74017D01*
X141933Y74065D01*
X141939Y75951D01*
X141959Y75972D01*
X141983Y75978D01*
X142057Y75975D01*
X143763Y75978D01*
X143774Y75972D01*
X143792Y75978D01*
X143863Y75972D01*
X143884Y75957D01*
X143896Y75915D01*
X143899Y74002D01*
X147808Y74008D01*
X147829Y74029D01*
X147835Y74071D01*
X147829Y77914D01*
X147814Y77935D01*
X147784Y77947D01*
X147743Y77953D01*
X147701Y77947D01*
X139984Y77941D01*
X139969Y77926D01*
X139957Y77897D01*
X139952Y70096D01*
X139931Y70076D01*
X139907Y70070D01*
X139827Y70073D01*
X138003Y70070D01*
X137997Y75930D01*
X137985Y75960D01*
X137955Y75972D01*
X137896Y75978D01*
X137834Y75975D01*
X134171Y75978D01*
X134153Y75972D01*
X134094Y75978D01*
X134067Y75999D01*
X134061Y76022D01*
X134058Y79875D01*
X134067Y79896D01*
X134076Y79905D01*
X134118Y79916D01*
X135983Y79913D01*
X136013Y79925D01*
X136025Y79955D01*
X136022Y81809D01*
X136028Y81844D01*
X136051Y81874D01*
X136075Y81880D01*
X137967Y81874D01*
X137994Y81847D01*
X138000Y81806D01*
X137997Y79952D01*
X138006Y79931D01*
X138015Y79922D01*
X138062Y79910D01*
X138122Y79916D01*
X139910Y79913D01*
X139934Y79919D01*
X139954Y79934D01*
X139963Y79967D01*
X139957Y80008D01*
X139963Y81847D01*
X139990Y81874D01*
X140032Y81880D01*
X141906Y81874D01*
X141927Y81853D01*
X141933Y81829D01*
X141939Y79931D01*
X141948Y79922D01*
X141989Y79910D01*
X142066Y79916D01*
X145830Y79913D01*
X145854Y79919D01*
X145865Y79931D01*
X145871Y79973D01*
X145865Y80032D01*
X145871Y81847D01*
X145898Y81880D01*
X145922Y81886D01*
X145946Y81880D01*
X149798Y81877D01*
X149801Y80005D01*
X149798Y79943D01*
X149813Y79922D01*
X149855Y79910D01*
X149896Y79916D01*
X151759Y79922D01*
X151773Y79937D01*
X151779Y79961D01*
X151773Y80038D01*
X151768Y81877D01*
X149804Y81883D01*
X149798Y81901D01*
X149795Y87782D01*
X147867Y87788D01*
X147847Y87803D01*
X147835Y87844D01*
X147832Y93696D01*
X145907Y93693D01*
X145883Y93699D01*
X145871Y93711D01*
X145865Y93734D01*
X145862Y97623D01*
X143923Y97628D01*
X143896Y97649D01*
X143890Y97673D01*
X143896Y97732D01*
X143890Y99553D01*
X143869Y99580D01*
X143828Y99592D01*
X143733Y99586D01*
X138000Y99583D01*
X137994Y97643D01*
X137985Y97634D01*
X137944Y97623D01*
X136040Y97628D01*
X136025Y97643D01*
X136019Y97685D01*
X136025Y97726D01*
X136022Y99515D01*
X136031Y99565D01*
X136046Y99580D01*
X136087Y99592D01*
X136128Y99586D01*
X136146Y99592D01*
X136188Y99586D01*
X136247Y99592D01*
X137864Y99589D01*
X137920Y99592D01*
X137938Y99586D01*
X137997Y99592D01*
X138000Y101481D01*
X137994Y101499D01*
X138003Y101532D01*
X138021Y101549D01*
X138062Y101555D01*
X149783Y101549D01*
D02*
G37*
G36*
X200203Y81205D02*
X200286D01*
Y79724D01*
X200203D01*
Y79642D01*
X200121D01*
Y79560D01*
X198722D01*
Y79642D01*
X198640D01*
Y79724D01*
X198557D01*
Y81205D01*
X198640D01*
Y81288D01*
X200203D01*
Y81205D01*
D02*
G37*
G36*
X197817D02*
X197899D01*
Y79724D01*
X197817D01*
Y79642D01*
X197734D01*
Y79560D01*
X190328D01*
Y79642D01*
X190246D01*
Y79724D01*
X190163D01*
Y81205D01*
X190246D01*
Y81288D01*
X197817D01*
Y81205D01*
D02*
G37*
G36*
X197734Y78408D02*
X197817D01*
Y78325D01*
X197899D01*
Y77420D01*
X197981D01*
Y77338D01*
X199462D01*
Y77173D01*
X199545D01*
Y77008D01*
X199462D01*
Y76844D01*
X199380D01*
Y76679D01*
X199298D01*
Y76515D01*
X199216D01*
Y76350D01*
X199133D01*
Y76186D01*
X199051D01*
Y76021D01*
X198969D01*
Y75856D01*
X198887D01*
Y75692D01*
X198804D01*
Y75609D01*
X197899D01*
Y74704D01*
X197817D01*
Y74622D01*
X197734D01*
Y74540D01*
X196665D01*
Y74622D01*
X196582D01*
Y74704D01*
X196500D01*
Y75609D01*
X191480D01*
Y75692D01*
X191151D01*
Y75774D01*
X190986D01*
Y75856D01*
X190904D01*
Y75939D01*
X190740D01*
Y76021D01*
X190657D01*
Y76103D01*
X190575D01*
Y76186D01*
X190493D01*
Y76268D01*
X190410D01*
Y76433D01*
X190328D01*
Y76597D01*
X190246D01*
Y76762D01*
X190163D01*
Y78325D01*
X190246D01*
Y78408D01*
X190328D01*
Y78490D01*
X191398D01*
Y78408D01*
X191480D01*
Y78325D01*
X191562D01*
Y77831D01*
X191645D01*
Y77585D01*
X191727D01*
Y77502D01*
X191809D01*
Y77420D01*
X191974D01*
Y77338D01*
X196418D01*
Y77420D01*
X196500D01*
Y78325D01*
X196582D01*
Y78408D01*
X196665D01*
Y78490D01*
X197734D01*
Y78408D01*
D02*
G37*
G36*
X110521Y81880D02*
X112372Y81874D01*
X112399Y81853D01*
X112411Y81812D01*
X112408Y79946D01*
X112419Y79928D01*
X112428Y79925D01*
X112431Y79922D01*
X112455Y79916D01*
X114359Y79910D01*
X114374Y79901D01*
X114380Y79878D01*
X114383Y77953D01*
X114460Y77947D01*
X114478Y77953D01*
X118224Y77950D01*
X118274Y77953D01*
X118301Y77932D01*
X118313Y77891D01*
X118310Y75978D01*
X114410Y75975D01*
X114389Y75990D01*
X114380Y75999D01*
X114377Y76043D01*
X114380Y77944D01*
X110572Y77950D01*
X110545Y77953D01*
X110527Y77947D01*
X110468Y77953D01*
X110459Y77962D01*
X110447Y77991D01*
X110453Y81853D01*
X110468Y81874D01*
X110503Y81886D01*
X110521Y81880D01*
D02*
G37*
G36*
X112390Y75960D02*
X112405Y75945D01*
X112411Y75886D01*
X112405Y74005D01*
X110518Y74000D01*
X110492Y73997D01*
X110453Y74017D01*
X110447Y74059D01*
Y74438D01*
Y74444D01*
X110453Y75957D01*
X110468Y75972D01*
X110492Y75978D01*
X110566Y75975D01*
X112360Y75978D01*
X112390Y75960D01*
D02*
G37*
G36*
X120261Y75966D02*
X120276Y75957D01*
X120288Y75915D01*
X120282Y74029D01*
X120261Y74008D01*
X120220Y74002D01*
X118333Y74008D01*
X118319Y74023D01*
X118313Y74047D01*
Y75524D01*
Y75530D01*
X118319Y75975D01*
X120226Y75978D01*
X120261Y75966D01*
D02*
G37*
G36*
X196006Y73552D02*
X196500D01*
Y73470D01*
X196747D01*
Y73388D01*
X196912D01*
Y73305D01*
X197076D01*
Y73223D01*
X197158D01*
Y73141D01*
X197241D01*
Y73058D01*
X197323D01*
Y72976D01*
X197405D01*
Y72894D01*
X197487D01*
Y72729D01*
X197570D01*
Y72565D01*
X197652D01*
Y72400D01*
X197734D01*
Y72236D01*
X197817D01*
Y71989D01*
X197899D01*
Y70178D01*
X197817D01*
Y69931D01*
X197734D01*
Y69684D01*
X197652D01*
Y69520D01*
X197570D01*
Y69355D01*
X197487D01*
Y69191D01*
X197405D01*
Y69108D01*
X197323D01*
Y69026D01*
X197241D01*
Y68944D01*
X197158D01*
Y68862D01*
X197076D01*
Y68779D01*
X196912D01*
Y68697D01*
X196829D01*
Y68615D01*
X196582D01*
Y68532D01*
X196335D01*
Y68450D01*
X191809D01*
Y68532D01*
X191480D01*
Y68615D01*
X191316D01*
Y68697D01*
X191151D01*
Y68779D01*
X190986D01*
Y68862D01*
X190904D01*
Y68944D01*
X190822D01*
Y69026D01*
X190740D01*
Y69108D01*
X190657D01*
Y69273D01*
X190575D01*
Y69355D01*
X190493D01*
Y69520D01*
X190410D01*
Y69684D01*
X190328D01*
Y69931D01*
X190246D01*
Y70178D01*
X190163D01*
Y71906D01*
X190246D01*
Y72153D01*
X190328D01*
Y72400D01*
X190410D01*
Y72565D01*
X190493D01*
Y72729D01*
X190575D01*
Y72894D01*
X190657D01*
Y72976D01*
X190740D01*
Y73058D01*
X190822D01*
Y73141D01*
X190904D01*
Y73223D01*
X190986D01*
Y73305D01*
X191151D01*
Y73388D01*
X191316D01*
Y73470D01*
X191480D01*
Y73552D01*
X191809D01*
Y73634D01*
X193126D01*
Y73552D01*
X193208D01*
Y73470D01*
X193291D01*
Y72071D01*
X193208D01*
Y71989D01*
X193126D01*
Y71906D01*
X191974D01*
Y71824D01*
X191727D01*
Y71742D01*
X191645D01*
Y71413D01*
X191562D01*
Y70672D01*
X191645D01*
Y70343D01*
X191727D01*
Y70261D01*
X191892D01*
Y70178D01*
X196089D01*
Y70261D01*
X196253D01*
Y70343D01*
X196335D01*
Y70425D01*
X196418D01*
Y70672D01*
X196500D01*
Y71330D01*
X196418D01*
Y71577D01*
X196335D01*
Y71742D01*
X196171D01*
Y71824D01*
X196006D01*
Y71906D01*
X195019D01*
Y71989D01*
X194936D01*
Y73470D01*
X195019D01*
Y73552D01*
X195101D01*
Y73634D01*
X196006D01*
Y73552D01*
D02*
G37*
G36*
X167498Y72036D02*
X167510Y72006D01*
X167504Y70091D01*
X167490Y70076D01*
X167466Y70070D01*
X167386Y70073D01*
X163664Y70070D01*
X163646Y70076D01*
X163598Y70070D01*
X163584Y70055D01*
X163577Y70013D01*
X163584Y68127D01*
X163610Y68094D01*
X163759Y68100D01*
X164921D01*
X165508Y68094D01*
X165541Y68068D01*
X165553Y68020D01*
X165547Y67943D01*
X165550Y66161D01*
X165532Y66143D01*
X165508Y66137D01*
X165467Y66131D01*
X161679Y66134D01*
X161629Y66125D01*
X161608Y66104D01*
X161602Y66081D01*
X161608Y66057D01*
X161611Y64168D01*
X163548Y64171D01*
X163566Y64159D01*
X163577Y64129D01*
X163572Y60238D01*
X163557Y60223D01*
X163533Y60217D01*
X163438Y60223D01*
X161679Y60220D01*
X161644Y60226D01*
X161623Y60241D01*
X161608Y60273D01*
X161605Y64168D01*
X159692Y64165D01*
X159663Y64177D01*
X159657Y64188D01*
X159645Y64218D01*
X159651Y70049D01*
X159660Y70064D01*
X159689Y70076D01*
X159784Y70070D01*
X159802Y70076D01*
X161555Y70073D01*
X161579Y70079D01*
X161596Y70091D01*
X161608Y70120D01*
X161614Y72012D01*
X161629Y72033D01*
X161659Y72045D01*
X167469Y72048D01*
X167498Y72036D01*
D02*
G37*
G36*
X142025Y72045D02*
X143896Y72042D01*
Y70257D01*
Y70251D01*
X143893Y70076D01*
X143869Y70070D01*
X142028Y70073D01*
X141971Y70070D01*
X141939Y70096D01*
X141933Y70156D01*
X141939Y72018D01*
X141959Y72045D01*
X142001Y72051D01*
X142025Y72045D01*
D02*
G37*
G36*
X112372Y68094D02*
X112399Y68074D01*
X112411Y68032D01*
X112408Y66226D01*
X112411Y66164D01*
X112402Y66149D01*
X112390Y66143D01*
X112372Y66137D01*
X112348Y66131D01*
X110542Y66134D01*
X110480Y66131D01*
X110450Y66149D01*
X110441Y66181D01*
X110447Y66259D01*
Y68032D01*
Y68038D01*
X110453Y68074D01*
X110468Y68094D01*
X110492Y68100D01*
X110572Y68097D01*
X112277Y68100D01*
X112283Y68094D01*
X112301Y68100D01*
X112372Y68094D01*
D02*
G37*
G36*
X165710Y64168D02*
X167475Y64171D01*
X167495Y64156D01*
X167504Y64147D01*
X167510Y64105D01*
X167513Y62240D01*
X167504Y62219D01*
X167495Y62210D01*
X167472Y62204D01*
X165574Y62210D01*
X165547Y62231D01*
X165550Y62323D01*
X165547Y64111D01*
X165571Y64153D01*
X165574Y64156D01*
X165615Y64174D01*
X165710Y64168D01*
D02*
G37*
G36*
X196418Y67216D02*
X196665D01*
Y67133D01*
X196829D01*
Y67051D01*
X196994D01*
Y66969D01*
X197076D01*
Y66887D01*
X197241D01*
Y66804D01*
X197323D01*
Y66722D01*
X197405D01*
Y66557D01*
X197487D01*
Y66393D01*
X197570D01*
Y66228D01*
X197652D01*
Y66064D01*
X197734D01*
Y65899D01*
X197817D01*
Y65570D01*
X197899D01*
Y63842D01*
X197817D01*
Y63595D01*
X197734D01*
Y63348D01*
X197652D01*
Y63183D01*
X197570D01*
Y63019D01*
X197487D01*
Y62936D01*
X197405D01*
Y62772D01*
X197323D01*
Y62690D01*
X197241D01*
Y62607D01*
X197076D01*
Y62525D01*
X196994D01*
Y62443D01*
X196829D01*
Y62360D01*
X196665D01*
Y62278D01*
X196418D01*
Y62196D01*
X195924D01*
Y62113D01*
X195101D01*
Y62196D01*
X195019D01*
Y62278D01*
X194936D01*
Y63759D01*
X195019D01*
Y63842D01*
X195512D01*
Y63924D01*
X196171D01*
Y64006D01*
X196253D01*
Y64088D01*
X196335D01*
Y64171D01*
X196418D01*
Y64500D01*
X196500D01*
Y65158D01*
X196418D01*
Y65323D01*
X196335D01*
Y65487D01*
X196171D01*
Y65570D01*
X195183D01*
Y65405D01*
X195101D01*
Y65241D01*
X195019D01*
Y64994D01*
X194936D01*
Y64829D01*
X194854D01*
Y64582D01*
X194772D01*
Y64418D01*
X194690D01*
Y64253D01*
X194607D01*
Y64006D01*
X194525D01*
Y63842D01*
X194443D01*
Y63677D01*
X194360D01*
Y63512D01*
X194278D01*
Y63430D01*
X194196D01*
Y63266D01*
X194114D01*
Y63101D01*
X194031D01*
Y63019D01*
X193949D01*
Y62854D01*
X193867D01*
Y62772D01*
X193784D01*
Y62690D01*
X193702D01*
Y62607D01*
X193620D01*
Y62525D01*
X193537D01*
Y62443D01*
X193373D01*
Y62360D01*
X193208D01*
Y62278D01*
X193044D01*
Y62196D01*
X192715D01*
Y62113D01*
X191727D01*
Y62196D01*
X191480D01*
Y62278D01*
X191316D01*
Y62360D01*
X191151D01*
Y62443D01*
X191069D01*
Y62525D01*
X190986D01*
Y62607D01*
X190904D01*
Y62690D01*
X190822D01*
Y62772D01*
X190740D01*
Y62854D01*
X190657D01*
Y62936D01*
X190575D01*
Y63101D01*
X190493D01*
Y63266D01*
X190410D01*
Y63430D01*
X190328D01*
Y63595D01*
X190246D01*
Y63924D01*
X190163D01*
Y64994D01*
X190246D01*
Y65158D01*
X190328D01*
Y65241D01*
X190410D01*
Y65405D01*
X190493D01*
Y65487D01*
X190575D01*
Y65570D01*
X190328D01*
Y65652D01*
X190246D01*
Y65734D01*
X190163D01*
Y67216D01*
X190246D01*
Y67298D01*
X196418D01*
Y67216D01*
D02*
G37*
G36*
X126184Y62201D02*
X126181Y60223D01*
X124262Y60220D01*
X124241Y60229D01*
X124232Y60238D01*
X124227Y60262D01*
X124221Y60303D01*
Y61157D01*
Y61163D01*
X124224Y62109D01*
X124221Y62178D01*
X124247Y62204D01*
X126184Y62201D01*
D02*
G37*
G36*
X159630Y62198D02*
X159645Y62183D01*
X159651Y62142D01*
X159645Y62124D01*
X159639Y60244D01*
X159630Y60229D01*
X159589Y60217D01*
X159547Y60223D01*
X153758Y60229D01*
X153743Y60244D01*
X153737Y60268D01*
X153734Y62175D01*
X153749Y62195D01*
X153781Y62204D01*
X159547D01*
X159630Y62198D01*
D02*
G37*
G36*
X151753D02*
X151773Y62178D01*
X151779Y62154D01*
X151773Y62077D01*
X151768Y60250D01*
X151759Y60235D01*
X151729Y60223D01*
X151664Y60217D01*
X151646Y60223D01*
X149798Y60226D01*
Y61371D01*
Y61377D01*
X149801Y62109D01*
X149798Y62178D01*
X149813Y62198D01*
X149837Y62204D01*
X151753Y62198D01*
D02*
G37*
G36*
X110575Y64168D02*
X112351Y64171D01*
X112381Y64159D01*
X112399Y64141D01*
X112411Y64111D01*
X112414Y62204D01*
X114380Y62201D01*
X114374Y60244D01*
X114359Y60223D01*
X114335Y60217D01*
X114223Y60223D01*
X113398D01*
X112482Y60220D01*
X112446Y60226D01*
X112425Y60241D01*
X112417Y60250D01*
X112411Y60273D01*
X112408Y62204D01*
X110462Y62210D01*
X110447Y62225D01*
X110441Y62267D01*
X110447Y62290D01*
X110453Y64147D01*
X110474Y64168D01*
X110498Y64174D01*
X110575Y64168D01*
D02*
G37*
G36*
X200286Y62443D02*
X200368D01*
Y55448D01*
X200286D01*
Y55366D01*
X199051D01*
Y55448D01*
X198969D01*
Y58081D01*
X190246D01*
Y58163D01*
X190163D01*
Y59645D01*
X190246D01*
Y59727D01*
X190328D01*
Y59809D01*
X198969D01*
Y62443D01*
X199051D01*
Y62525D01*
X200286D01*
Y62443D01*
D02*
G37*
G36*
X196006Y54460D02*
X196418D01*
Y54378D01*
X196665D01*
Y54296D01*
X196912D01*
Y54213D01*
X196994D01*
Y54131D01*
X197158D01*
Y54049D01*
X197241D01*
Y53966D01*
X197323D01*
Y53802D01*
X197405D01*
Y53720D01*
X197487D01*
Y53637D01*
X197570D01*
Y53473D01*
X197652D01*
Y53308D01*
X197734D01*
Y53061D01*
X197817D01*
Y52814D01*
X197899D01*
Y51086D01*
X197817D01*
Y50839D01*
X197734D01*
Y50592D01*
X197652D01*
Y50428D01*
X197570D01*
Y50263D01*
X197487D01*
Y50099D01*
X197405D01*
Y50016D01*
X197323D01*
Y49934D01*
X197241D01*
Y49852D01*
X197158D01*
Y49770D01*
X197076D01*
Y49687D01*
X196994D01*
Y49605D01*
X196829D01*
Y49523D01*
X196665D01*
Y49440D01*
X196418D01*
Y49358D01*
X191727D01*
Y49440D01*
X191398D01*
Y49523D01*
X191233D01*
Y49605D01*
X191069D01*
Y49687D01*
X190986D01*
Y49770D01*
X190904D01*
Y49852D01*
X190822D01*
Y49934D01*
X190740D01*
Y50016D01*
X190657D01*
Y50099D01*
X190575D01*
Y50263D01*
X190493D01*
Y50428D01*
X190410D01*
Y50592D01*
X190328D01*
Y50839D01*
X190246D01*
Y51086D01*
X190163D01*
Y52814D01*
X190246D01*
Y53061D01*
X190328D01*
Y53308D01*
X190410D01*
Y53473D01*
X190493D01*
Y53637D01*
X190575D01*
Y53802D01*
X190657D01*
Y53884D01*
X190740D01*
Y53966D01*
X190822D01*
Y54049D01*
X190904D01*
Y54131D01*
X190986D01*
Y54213D01*
X191151D01*
Y54296D01*
X191316D01*
Y54378D01*
X191562D01*
Y54460D01*
X191974D01*
Y54543D01*
X192879D01*
Y54460D01*
X192961D01*
Y54378D01*
X193044D01*
Y52897D01*
X192961D01*
Y52814D01*
X192879D01*
Y52732D01*
X191809D01*
Y52650D01*
X191727D01*
Y52567D01*
X191645D01*
Y52238D01*
X191562D01*
Y51580D01*
X191645D01*
Y51251D01*
X191727D01*
Y51169D01*
X191892D01*
Y51086D01*
X193784D01*
Y54378D01*
X193867D01*
Y54460D01*
X193949D01*
Y54543D01*
X196006D01*
Y54460D01*
D02*
G37*
G36*
X134017Y46456D02*
X134046Y46438D01*
X134061Y46411D01*
X134064Y44528D01*
X134049Y44507D01*
X134023Y44498D01*
X133964Y44492D01*
X132451D01*
X132181Y44495D01*
X132125Y44492D01*
X132095Y44510D01*
X132086Y44543D01*
X132092Y44638D01*
X132089Y46396D01*
X132095Y46432D01*
X132110Y46453D01*
X132136Y46461D01*
X132205Y46459D01*
X133999Y46461D01*
X134017Y46456D01*
D02*
G37*
G36*
X167492Y58245D02*
X167504Y58215D01*
X167510Y58174D01*
X167504Y44513D01*
X167490Y44498D01*
X167466Y44492D01*
X167392Y44495D01*
X153805Y44492D01*
X153787Y44498D01*
X153763Y44504D01*
X153749Y44513D01*
X153743Y44537D01*
Y51845D01*
Y51850D01*
X153749Y58215D01*
X153761Y58227D01*
X153763Y58236D01*
X153775Y58242D01*
X153805Y58254D01*
X167463Y58257D01*
X167492Y58245D01*
D02*
G37*
G36*
X128138Y48419D02*
X128153Y48404D01*
X128159Y48380D01*
X128156Y48300D01*
X128159Y44620D01*
X128153Y44602D01*
X128159Y44560D01*
X128153Y44513D01*
X128138Y44498D01*
X128097Y44492D01*
X128052Y44495D01*
X126246Y44492D01*
X126228Y44498D01*
X126199Y44504D01*
X126184Y44519D01*
X126178Y44543D01*
X126184Y44620D01*
Y45243D01*
Y45248D01*
X126181Y48389D01*
X126196Y48410D01*
X126223Y48419D01*
X126246Y48425D01*
X128138Y48419D01*
D02*
G37*
G36*
X110527Y58254D02*
X114656D01*
X124176Y58248D01*
X124203Y58227D01*
X124215Y58186D01*
X124209Y44513D01*
X124176Y44498D01*
X124117Y44492D01*
X110542Y44495D01*
X110480Y44492D01*
X110453Y44513D01*
X110447Y44537D01*
X110453Y58221D01*
X110468Y58248D01*
X110510Y58260D01*
X110527Y58254D01*
D02*
G37*
G36*
X195512Y45737D02*
X195759D01*
Y45655D01*
X195842D01*
Y45573D01*
X196006D01*
Y45490D01*
X196089D01*
Y45326D01*
X196171D01*
Y45243D01*
X196253D01*
Y44997D01*
X196335D01*
Y44420D01*
X196253D01*
Y44174D01*
X196171D01*
Y44091D01*
X196089D01*
Y43927D01*
X196006D01*
Y43845D01*
X195842D01*
Y43762D01*
X195759D01*
Y43680D01*
X195512D01*
Y43598D01*
X194936D01*
Y43680D01*
X194690D01*
Y43762D01*
X194607D01*
Y43845D01*
X194443D01*
Y43927D01*
X194360D01*
Y43845D01*
X194278D01*
Y43762D01*
X194196D01*
Y43680D01*
X194114D01*
Y43598D01*
X194031D01*
Y43515D01*
X193949D01*
Y43433D01*
X193867D01*
Y43351D01*
X193784D01*
Y43268D01*
X193702D01*
Y43186D01*
X193620D01*
Y43104D01*
X193537D01*
Y43022D01*
X193455D01*
Y42939D01*
X193373D01*
Y42857D01*
X193291D01*
Y42775D01*
X193208D01*
Y42692D01*
X193126D01*
Y42610D01*
X193044D01*
Y42528D01*
X192961D01*
Y42445D01*
X192879D01*
Y42363D01*
X192797D01*
Y42199D01*
X192879D01*
Y42116D01*
X192961D01*
Y41870D01*
X193044D01*
Y41787D01*
X194114D01*
Y41870D01*
X194196D01*
Y42116D01*
X194278D01*
Y42199D01*
X194360D01*
Y42363D01*
X194443D01*
Y42445D01*
X194607D01*
Y42528D01*
X194690D01*
Y42610D01*
X194936D01*
Y42692D01*
X195512D01*
Y42610D01*
X195759D01*
Y42528D01*
X195842D01*
Y42445D01*
X196006D01*
Y42363D01*
X196089D01*
Y42199D01*
X196171D01*
Y42116D01*
X196253D01*
Y41870D01*
X196335D01*
Y41293D01*
X196253D01*
Y41047D01*
X196171D01*
Y40964D01*
X196089D01*
Y40800D01*
X196006D01*
Y40717D01*
X195842D01*
Y40635D01*
X195759D01*
Y40553D01*
X195512D01*
Y40470D01*
X194936D01*
Y40553D01*
X194690D01*
Y40635D01*
X194607D01*
Y40717D01*
X194443D01*
Y40800D01*
X194360D01*
Y40964D01*
X194278D01*
Y41047D01*
X194196D01*
Y41293D01*
X192961D01*
Y41047D01*
X192879D01*
Y40964D01*
X192797D01*
Y40800D01*
X192715D01*
Y40717D01*
X192550D01*
Y40635D01*
X192468D01*
Y40553D01*
X192221D01*
Y40470D01*
X191645D01*
Y40553D01*
X191398D01*
Y40635D01*
X191316D01*
Y40717D01*
X191151D01*
Y40800D01*
X191069D01*
Y40964D01*
X190986D01*
Y41047D01*
X190904D01*
Y41293D01*
X190822D01*
Y41870D01*
X190904D01*
Y42116D01*
X190986D01*
Y42199D01*
X191069D01*
Y42363D01*
X191151D01*
Y42445D01*
X191316D01*
Y42528D01*
X191398D01*
Y42610D01*
X191645D01*
Y42692D01*
X192221D01*
Y42610D01*
X192385D01*
Y42692D01*
X192468D01*
Y42775D01*
X192550D01*
Y42857D01*
X192632D01*
Y42939D01*
X192715D01*
Y43022D01*
X192797D01*
Y43104D01*
X192879D01*
Y43186D01*
X192961D01*
Y43268D01*
X193044D01*
Y43351D01*
X193126D01*
Y43433D01*
X193208D01*
Y43515D01*
X193291D01*
Y43598D01*
X193373D01*
Y43680D01*
X193455D01*
Y43762D01*
X193537D01*
Y43845D01*
X193620D01*
Y43927D01*
X193702D01*
Y44009D01*
X193784D01*
Y44091D01*
X193867D01*
Y44174D01*
X193949D01*
Y44256D01*
X194031D01*
Y44338D01*
X194114D01*
Y44997D01*
X194196D01*
Y45243D01*
X194278D01*
Y45326D01*
X194360D01*
Y45490D01*
X194443D01*
Y45573D01*
X194607D01*
Y45655D01*
X194690D01*
Y45737D01*
X194936D01*
Y45820D01*
X195512D01*
Y45737D01*
D02*
G37*
G36*
X192221Y45655D02*
X192468D01*
Y45573D01*
X192550D01*
Y45490D01*
X192715D01*
Y45408D01*
X192797D01*
Y45243D01*
X192879D01*
Y45161D01*
X192961D01*
Y44914D01*
X193044D01*
Y44338D01*
X192961D01*
Y44091D01*
X192879D01*
Y44009D01*
X192797D01*
Y43845D01*
X192715D01*
Y43762D01*
X192550D01*
Y43680D01*
X192468D01*
Y43598D01*
X192221D01*
Y43515D01*
X191645D01*
Y43598D01*
X191398D01*
Y43680D01*
X191316D01*
Y43762D01*
X191151D01*
Y43845D01*
X191069D01*
Y44009D01*
X190986D01*
Y44091D01*
X190904D01*
Y44338D01*
X190822D01*
Y44914D01*
X190904D01*
Y45161D01*
X190986D01*
Y45243D01*
X191069D01*
Y45408D01*
X191151D01*
Y45490D01*
X191316D01*
Y45573D01*
X191398D01*
Y45655D01*
X191645D01*
Y45737D01*
X192221D01*
Y45655D01*
D02*
G37*
G36*
X198640D02*
X198887D01*
Y45573D01*
X198969D01*
Y45490D01*
X199133D01*
Y45408D01*
X199216D01*
Y45243D01*
X199298D01*
Y45161D01*
X199380D01*
Y44914D01*
X199462D01*
Y44338D01*
X199380D01*
Y44091D01*
X199298D01*
Y44009D01*
X199216D01*
Y43845D01*
X199133D01*
Y43762D01*
X198969D01*
Y43680D01*
X198887D01*
Y43598D01*
X198640D01*
Y43515D01*
X198557D01*
Y42692D01*
X198640D01*
Y42610D01*
X198887D01*
Y42528D01*
X198969D01*
Y42445D01*
X199133D01*
Y42363D01*
X199216D01*
Y42199D01*
X199298D01*
Y42116D01*
X199380D01*
Y41870D01*
X199462D01*
Y41293D01*
X199380D01*
Y41047D01*
X199298D01*
Y40964D01*
X199216D01*
Y40800D01*
X199133D01*
Y40717D01*
X198969D01*
Y40635D01*
X198887D01*
Y40553D01*
X198640D01*
Y40470D01*
X198064D01*
Y40553D01*
X197817D01*
Y40635D01*
X197734D01*
Y40717D01*
X197570D01*
Y40800D01*
X197487D01*
Y40964D01*
X197405D01*
Y41047D01*
X197323D01*
Y41293D01*
X197241D01*
Y41870D01*
X197323D01*
Y42116D01*
X197405D01*
Y42199D01*
X197487D01*
Y42363D01*
X197570D01*
Y42445D01*
X197734D01*
Y42528D01*
X197817D01*
Y42610D01*
X198064D01*
Y43598D01*
X197817D01*
Y43680D01*
X197734D01*
Y43762D01*
X197570D01*
Y43845D01*
X197487D01*
Y44009D01*
X197405D01*
Y44091D01*
X197323D01*
Y44338D01*
X197241D01*
Y44914D01*
X197323D01*
Y45161D01*
X197405D01*
Y45243D01*
X197487D01*
Y45408D01*
X197570D01*
Y45490D01*
X197734D01*
Y45573D01*
X197817D01*
Y45655D01*
X198064D01*
Y45737D01*
X198640D01*
Y45655D01*
D02*
G37*
G36*
Y39483D02*
X198887D01*
Y39401D01*
X198969D01*
Y39318D01*
X199133D01*
Y39236D01*
X199216D01*
Y39072D01*
X199298D01*
Y38989D01*
X199380D01*
Y38742D01*
X199462D01*
Y38166D01*
X199380D01*
Y37919D01*
X199298D01*
Y37837D01*
X199216D01*
Y37672D01*
X199133D01*
Y37590D01*
X198969D01*
Y37508D01*
X198887D01*
Y37426D01*
X198640D01*
Y37343D01*
X198064D01*
Y37426D01*
X197817D01*
Y37508D01*
X197734D01*
Y37590D01*
X197570D01*
Y37672D01*
X197487D01*
Y37837D01*
X197405D01*
Y37919D01*
X197323D01*
Y38166D01*
X196089D01*
Y37919D01*
X196006D01*
Y37837D01*
X195924D01*
Y37672D01*
X195842D01*
Y37590D01*
X195677D01*
Y37508D01*
X195595D01*
Y37426D01*
X195348D01*
Y37343D01*
X194772D01*
Y37426D01*
X194525D01*
Y37508D01*
X194443D01*
Y37590D01*
X194278D01*
Y37672D01*
X194196D01*
Y37837D01*
X194114D01*
Y37919D01*
X194031D01*
Y38166D01*
X193949D01*
Y38742D01*
X194031D01*
Y38989D01*
X194114D01*
Y39072D01*
X194196D01*
Y39236D01*
X194278D01*
Y39318D01*
X194443D01*
Y39401D01*
X194525D01*
Y39483D01*
X194772D01*
Y39565D01*
X195348D01*
Y39483D01*
X195595D01*
Y39401D01*
X195677D01*
Y39318D01*
X195842D01*
Y39236D01*
X195924D01*
Y39072D01*
X196006D01*
Y38989D01*
X196089D01*
Y38742D01*
X196171D01*
Y38660D01*
X197241D01*
Y38742D01*
X197323D01*
Y38989D01*
X197405D01*
Y39072D01*
X197487D01*
Y39236D01*
X197570D01*
Y39318D01*
X197734D01*
Y39401D01*
X197817D01*
Y39483D01*
X198064D01*
Y39565D01*
X198640D01*
Y39483D01*
D02*
G37*
G36*
X192221D02*
X192468D01*
Y39401D01*
X192550D01*
Y39318D01*
X192715D01*
Y39236D01*
X192797D01*
Y39072D01*
X192879D01*
Y38989D01*
X192961D01*
Y38742D01*
X193044D01*
Y38166D01*
X192961D01*
Y37919D01*
X192879D01*
Y37837D01*
X192797D01*
Y37672D01*
X192715D01*
Y37590D01*
X192550D01*
Y37508D01*
X192468D01*
Y37426D01*
X192221D01*
Y37343D01*
X191645D01*
Y37426D01*
X191398D01*
Y37508D01*
X191316D01*
Y37590D01*
X191151D01*
Y37672D01*
X191069D01*
Y37837D01*
X190986D01*
Y37919D01*
X190904D01*
Y38166D01*
X190822D01*
Y38742D01*
X190904D01*
Y38989D01*
X190986D01*
Y39072D01*
X191069D01*
Y39236D01*
X191151D01*
Y39318D01*
X191316D01*
Y39401D01*
X191398D01*
Y39483D01*
X191645D01*
Y39565D01*
X192221D01*
Y39483D01*
D02*
G37*
G36*
X32476Y9250D02*
X32536Y9163D01*
X32607Y9076D01*
X32672Y8999D01*
X32738Y8934D01*
X32787Y8879D01*
X32809Y8862D01*
X32825Y8846D01*
X32831Y8841D01*
X32836Y8835D01*
X32951Y8742D01*
X33065Y8655D01*
X33174Y8579D01*
X33284Y8519D01*
X33377Y8464D01*
X33415Y8442D01*
X33448Y8426D01*
X33475Y8409D01*
X33497Y8404D01*
X33507Y8393D01*
X33513D01*
Y7945D01*
X33431Y7978D01*
X33349Y8016D01*
X33267Y8055D01*
X33191Y8093D01*
X33125Y8125D01*
X33071Y8153D01*
X33038Y8175D01*
X33033Y8180D01*
X33027D01*
X32929Y8240D01*
X32841Y8300D01*
X32765Y8355D01*
X32705Y8404D01*
X32650Y8442D01*
X32618Y8475D01*
X32590Y8497D01*
X32585Y8502D01*
Y5548D01*
X32121D01*
Y9343D01*
X32421D01*
X32476Y9250D01*
D02*
G37*
G36*
X38574Y5548D02*
X38132D01*
X37089Y8289D01*
X37570D01*
X38176Y6613D01*
X38214Y6504D01*
X38252Y6406D01*
X38280Y6313D01*
X38307Y6242D01*
X38323Y6176D01*
X38340Y6132D01*
X38345Y6105D01*
X38350Y6094D01*
X38383Y6198D01*
X38411Y6302D01*
X38443Y6395D01*
X38471Y6476D01*
X38493Y6548D01*
X38509Y6602D01*
X38514Y6618D01*
X38520Y6635D01*
X38525Y6640D01*
Y6646D01*
X39115Y8289D01*
X39606D01*
X38574Y5548D01*
D02*
G37*
G36*
X41239Y8344D02*
X41337Y8333D01*
X41430Y8316D01*
X41517Y8289D01*
X41599Y8262D01*
X41676Y8229D01*
X41747Y8196D01*
X41807Y8158D01*
X41867Y8125D01*
X41916Y8087D01*
X41960Y8055D01*
X41992Y8027D01*
X42020Y8000D01*
X42042Y7983D01*
X42052Y7973D01*
X42058Y7967D01*
X42118Y7891D01*
X42173Y7809D01*
X42222Y7727D01*
X42265Y7639D01*
X42298Y7547D01*
X42325Y7459D01*
X42369Y7285D01*
X42386Y7208D01*
X42396Y7132D01*
X42402Y7066D01*
X42407Y7006D01*
X42413Y6957D01*
Y6924D01*
Y6897D01*
Y6892D01*
X42407Y6771D01*
X42396Y6657D01*
X42380Y6548D01*
X42358Y6449D01*
X42331Y6356D01*
X42304Y6269D01*
X42271Y6193D01*
X42238Y6122D01*
X42205Y6062D01*
X42173Y6007D01*
X42145Y5963D01*
X42118Y5925D01*
X42096Y5892D01*
X42080Y5870D01*
X42069Y5860D01*
X42063Y5854D01*
X41992Y5789D01*
X41921Y5734D01*
X41845Y5685D01*
X41763Y5641D01*
X41687Y5608D01*
X41605Y5576D01*
X41452Y5532D01*
X41381Y5521D01*
X41315Y5510D01*
X41255Y5499D01*
X41206Y5494D01*
X41168Y5488D01*
X41108D01*
X40939Y5499D01*
X40786Y5526D01*
X40649Y5559D01*
X40595Y5581D01*
X40540Y5603D01*
X40491Y5625D01*
X40447Y5647D01*
X40414Y5663D01*
X40382Y5679D01*
X40360Y5696D01*
X40343Y5707D01*
X40332Y5718D01*
X40327D01*
X40218Y5816D01*
X40130Y5920D01*
X40054Y6029D01*
X39999Y6132D01*
X39956Y6225D01*
X39939Y6269D01*
X39923Y6302D01*
X39912Y6335D01*
X39907Y6356D01*
X39901Y6367D01*
Y6373D01*
X40382Y6433D01*
X40425Y6329D01*
X40475Y6242D01*
X40524Y6165D01*
X40567Y6105D01*
X40606Y6062D01*
X40638Y6029D01*
X40666Y6007D01*
X40671Y6002D01*
X40742Y5958D01*
X40813Y5925D01*
X40889Y5903D01*
X40955Y5887D01*
X41015Y5876D01*
X41064Y5870D01*
X41108D01*
X41173Y5876D01*
X41233Y5881D01*
X41343Y5909D01*
X41441Y5947D01*
X41528Y5991D01*
X41594Y6029D01*
X41643Y6067D01*
X41676Y6094D01*
X41681Y6105D01*
X41687D01*
X41763Y6204D01*
X41823Y6313D01*
X41867Y6433D01*
X41899Y6542D01*
X41916Y6640D01*
X41927Y6684D01*
X41932Y6722D01*
Y6755D01*
X41938Y6777D01*
Y6793D01*
Y6799D01*
X39890D01*
X39885Y6853D01*
Y6892D01*
Y6913D01*
Y6919D01*
X39890Y7044D01*
X39901Y7159D01*
X39918Y7268D01*
X39939Y7372D01*
X39967Y7465D01*
X39994Y7552D01*
X40027Y7629D01*
X40060Y7700D01*
X40092Y7765D01*
X40125Y7820D01*
X40152Y7863D01*
X40180Y7902D01*
X40202Y7934D01*
X40218Y7956D01*
X40229Y7967D01*
X40234Y7973D01*
X40300Y8038D01*
X40371Y8098D01*
X40447Y8147D01*
X40524Y8191D01*
X40600Y8229D01*
X40671Y8257D01*
X40747Y8284D01*
X40813Y8300D01*
X40884Y8316D01*
X40944Y8327D01*
X40999Y8338D01*
X41042Y8344D01*
X41080Y8349D01*
X41135D01*
X41239Y8344D01*
D02*
G37*
G36*
X46000Y5548D02*
X45498D01*
Y7225D01*
X44853D01*
X44793Y7219D01*
X44750D01*
X44711Y7214D01*
X44684Y7208D01*
X44662D01*
X44651Y7203D01*
X44646D01*
X44559Y7175D01*
X44520Y7159D01*
X44488Y7143D01*
X44455Y7126D01*
X44433Y7115D01*
X44422Y7110D01*
X44417Y7104D01*
X44373Y7072D01*
X44329Y7033D01*
X44247Y6951D01*
X44209Y6913D01*
X44182Y6881D01*
X44165Y6859D01*
X44160Y6853D01*
X44105Y6777D01*
X44045Y6695D01*
X43985Y6608D01*
X43925Y6526D01*
X43876Y6449D01*
X43838Y6389D01*
X43821Y6367D01*
X43810Y6351D01*
X43800Y6340D01*
Y6335D01*
X43303Y5548D01*
X42680D01*
X43330Y6575D01*
X43407Y6684D01*
X43477Y6782D01*
X43549Y6864D01*
X43608Y6941D01*
X43663Y6995D01*
X43707Y7039D01*
X43734Y7066D01*
X43745Y7077D01*
X43789Y7110D01*
X43838Y7148D01*
X43936Y7208D01*
X43980Y7230D01*
X44013Y7252D01*
X44034Y7263D01*
X44045Y7268D01*
X43947Y7285D01*
X43854Y7301D01*
X43772Y7328D01*
X43690Y7350D01*
X43619Y7377D01*
X43554Y7410D01*
X43494Y7438D01*
X43439Y7465D01*
X43396Y7497D01*
X43352Y7525D01*
X43319Y7547D01*
X43292Y7569D01*
X43270Y7585D01*
X43254Y7601D01*
X43248Y7607D01*
X43243Y7612D01*
X43199Y7667D01*
X43155Y7721D01*
X43090Y7836D01*
X43046Y7951D01*
X43013Y8060D01*
X42992Y8153D01*
X42986Y8191D01*
Y8229D01*
X42981Y8257D01*
Y8278D01*
Y8289D01*
Y8295D01*
X42986Y8409D01*
X43003Y8513D01*
X43030Y8611D01*
X43057Y8693D01*
X43090Y8764D01*
X43112Y8819D01*
X43134Y8852D01*
X43139Y8857D01*
Y8862D01*
X43205Y8950D01*
X43270Y9026D01*
X43341Y9092D01*
X43407Y9141D01*
X43467Y9179D01*
X43516Y9201D01*
X43549Y9217D01*
X43554Y9223D01*
X43559D01*
X43608Y9239D01*
X43669Y9256D01*
X43789Y9283D01*
X43920Y9299D01*
X44040Y9316D01*
X44155Y9321D01*
X44204D01*
X44247Y9327D01*
X46000D01*
Y5548D01*
D02*
G37*
G36*
X30668D02*
X30139D01*
Y6078D01*
X30668D01*
Y5548D01*
D02*
G37*
G36*
X28375Y9332D02*
X28512Y9310D01*
X28626Y9272D01*
X28725Y9234D01*
X28806Y9190D01*
X28839Y9174D01*
X28866Y9152D01*
X28888Y9141D01*
X28905Y9130D01*
X28910Y9119D01*
X28916D01*
X29014Y9032D01*
X29096Y8928D01*
X29167Y8824D01*
X29221Y8726D01*
X29265Y8633D01*
X29287Y8595D01*
X29298Y8557D01*
X29309Y8529D01*
X29320Y8508D01*
X29325Y8497D01*
Y8491D01*
X29347Y8409D01*
X29369Y8327D01*
X29402Y8147D01*
X29429Y7967D01*
X29445Y7798D01*
X29451Y7716D01*
X29456Y7645D01*
Y7579D01*
X29462Y7519D01*
Y7476D01*
Y7438D01*
Y7416D01*
Y7410D01*
X29456Y7219D01*
X29445Y7039D01*
X29429Y6875D01*
X29402Y6722D01*
X29374Y6580D01*
X29342Y6455D01*
X29309Y6340D01*
X29276Y6242D01*
X29243Y6154D01*
X29205Y6078D01*
X29178Y6012D01*
X29150Y5963D01*
X29123Y5920D01*
X29107Y5892D01*
X29096Y5876D01*
X29090Y5870D01*
X29030Y5805D01*
X28965Y5745D01*
X28894Y5690D01*
X28823Y5647D01*
X28752Y5608D01*
X28681Y5576D01*
X28610Y5554D01*
X28544Y5532D01*
X28479Y5516D01*
X28419Y5505D01*
X28364Y5494D01*
X28321Y5488D01*
X28282Y5483D01*
X28228D01*
X28080Y5494D01*
X27944Y5516D01*
X27829Y5554D01*
X27731Y5592D01*
X27649Y5630D01*
X27622Y5652D01*
X27594Y5668D01*
X27573Y5679D01*
X27556Y5690D01*
X27551Y5701D01*
X27545D01*
X27447Y5794D01*
X27365Y5892D01*
X27294Y6002D01*
X27239Y6100D01*
X27196Y6193D01*
X27174Y6231D01*
X27163Y6269D01*
X27152Y6296D01*
X27141Y6318D01*
X27136Y6329D01*
Y6335D01*
X27108Y6417D01*
X27087Y6498D01*
X27054Y6673D01*
X27027Y6853D01*
X27010Y7028D01*
X27005Y7104D01*
X26999Y7175D01*
Y7241D01*
X26994Y7301D01*
Y7345D01*
Y7383D01*
Y7405D01*
Y7410D01*
Y7514D01*
X26999Y7612D01*
Y7700D01*
X27005Y7787D01*
X27016Y7863D01*
X27021Y7940D01*
X27027Y8005D01*
X27037Y8065D01*
X27043Y8120D01*
X27054Y8169D01*
X27059Y8207D01*
X27065Y8240D01*
X27070Y8267D01*
X27076Y8284D01*
X27081Y8295D01*
Y8300D01*
X27114Y8420D01*
X27152Y8529D01*
X27196Y8622D01*
X27229Y8704D01*
X27267Y8775D01*
X27289Y8824D01*
X27310Y8852D01*
X27316Y8862D01*
X27376Y8944D01*
X27436Y9015D01*
X27501Y9076D01*
X27562Y9130D01*
X27616Y9168D01*
X27660Y9196D01*
X27687Y9212D01*
X27693Y9217D01*
X27698D01*
X27785Y9261D01*
X27878Y9288D01*
X27966Y9310D01*
X28047Y9327D01*
X28119Y9338D01*
X28179Y9343D01*
X28228D01*
X28375Y9332D01*
D02*
G37*
G36*
X37106Y4500D02*
X34032D01*
Y4833D01*
X37106D01*
Y4500D01*
D02*
G37*
G36*
X171765Y79650D02*
X171826Y79641D01*
X171878Y79624D01*
X171926Y79611D01*
X171966Y79593D01*
X171992Y79576D01*
X172010Y79567D01*
X172014Y79563D01*
X172057Y79528D01*
X172097Y79488D01*
X172132Y79449D01*
X172158Y79410D01*
X172180Y79370D01*
X172193Y79344D01*
X172202Y79327D01*
X172206Y79318D01*
X172219Y79287D01*
X172232Y79252D01*
X172263Y79169D01*
X172293Y79078D01*
X172320Y78986D01*
X172346Y78903D01*
X172355Y78864D01*
X172363Y78833D01*
X172372Y78807D01*
X172377Y78785D01*
X172381Y78772D01*
Y78767D01*
X172394Y78719D01*
X172407Y78676D01*
X172416Y78636D01*
X172429Y78601D01*
X172442Y78544D01*
X172455Y78501D01*
X172468Y78470D01*
X172473Y78453D01*
X172477Y78444D01*
Y78440D01*
X172495Y78405D01*
X172508Y78374D01*
X172525Y78348D01*
X172538Y78330D01*
X172551Y78313D01*
X172564Y78304D01*
X172569Y78300D01*
X172573Y78295D01*
X172617Y78269D01*
X172661Y78256D01*
X172678D01*
X172691Y78252D01*
X172700D01*
X172704D01*
X172744Y78256D01*
X172783Y78269D01*
X172818Y78287D01*
X172844Y78308D01*
X172870Y78326D01*
X172888Y78343D01*
X172897Y78356D01*
X172901Y78361D01*
X172932Y78409D01*
X172953Y78466D01*
X172967Y78527D01*
X172980Y78584D01*
X172984Y78641D01*
X172988Y78684D01*
Y78728D01*
X172984Y78802D01*
X172975Y78872D01*
X172958Y78929D01*
X172940Y78973D01*
X172923Y79012D01*
X172905Y79038D01*
X172897Y79056D01*
X172892Y79060D01*
X172853Y79104D01*
X172809Y79134D01*
X172766Y79161D01*
X172726Y79182D01*
X172687Y79196D01*
X172656Y79204D01*
X172639Y79209D01*
X172630D01*
X172678Y79571D01*
X172752Y79554D01*
X172818Y79536D01*
X172875Y79515D01*
X172927Y79493D01*
X172962Y79471D01*
X172993Y79453D01*
X173010Y79445D01*
X173015Y79440D01*
X173058Y79401D01*
X173098Y79357D01*
X173133Y79309D01*
X173163Y79261D01*
X173185Y79217D01*
X173203Y79182D01*
X173211Y79161D01*
X173216Y79156D01*
Y79152D01*
X173242Y79078D01*
X173259Y78999D01*
X173277Y78925D01*
X173285Y78855D01*
X173290Y78789D01*
X173294Y78741D01*
Y78636D01*
X173285Y78575D01*
X173281Y78523D01*
X173272Y78474D01*
X173264Y78435D01*
X173255Y78405D01*
X173251Y78387D01*
X173246Y78378D01*
X173229Y78326D01*
X173211Y78278D01*
X173194Y78238D01*
X173176Y78204D01*
X173163Y78177D01*
X173150Y78160D01*
X173146Y78147D01*
X173141Y78142D01*
X173111Y78099D01*
X173076Y78064D01*
X173036Y78033D01*
X173006Y78007D01*
X172975Y77985D01*
X172953Y77972D01*
X172936Y77963D01*
X172932Y77959D01*
X172883Y77937D01*
X172840Y77920D01*
X172792Y77911D01*
X172752Y77902D01*
X172713Y77898D01*
X172687Y77893D01*
X172669D01*
X172661D01*
X172599Y77898D01*
X172547Y77906D01*
X172495Y77920D01*
X172451Y77933D01*
X172416Y77946D01*
X172385Y77959D01*
X172368Y77968D01*
X172363Y77972D01*
X172315Y78007D01*
X172276Y78046D01*
X172241Y78086D01*
X172211Y78125D01*
X172189Y78160D01*
X172171Y78186D01*
X172162Y78204D01*
X172158Y78212D01*
X172145Y78243D01*
X172127Y78282D01*
X172097Y78370D01*
X172071Y78461D01*
X172040Y78558D01*
X172018Y78641D01*
X172005Y78680D01*
X171996Y78715D01*
X171988Y78741D01*
X171983Y78763D01*
X171979Y78776D01*
Y78780D01*
X171966Y78837D01*
X171953Y78885D01*
X171940Y78929D01*
X171926Y78968D01*
X171918Y79003D01*
X171905Y79034D01*
X171887Y79086D01*
X171874Y79121D01*
X171861Y79143D01*
X171856Y79156D01*
X171852Y79161D01*
X171826Y79200D01*
X171791Y79226D01*
X171760Y79248D01*
X171730Y79261D01*
X171699Y79270D01*
X171677Y79274D01*
X171660D01*
X171655D01*
X171603Y79270D01*
X171559Y79257D01*
X171516Y79235D01*
X171481Y79213D01*
X171450Y79187D01*
X171428Y79169D01*
X171415Y79152D01*
X171411Y79147D01*
X171376Y79095D01*
X171354Y79038D01*
X171336Y78973D01*
X171323Y78912D01*
X171315Y78855D01*
X171310Y78811D01*
Y78767D01*
X171315Y78676D01*
X171328Y78597D01*
X171345Y78531D01*
X171367Y78474D01*
X171389Y78431D01*
X171406Y78396D01*
X171420Y78378D01*
X171424Y78370D01*
X171472Y78322D01*
X171529Y78282D01*
X171586Y78256D01*
X171638Y78234D01*
X171686Y78217D01*
X171730Y78208D01*
X171756Y78199D01*
X171760D01*
X171765D01*
X171708Y77832D01*
X171586Y77863D01*
X171476Y77902D01*
X171389Y77950D01*
X171315Y77998D01*
X171254Y78042D01*
X171214Y78081D01*
X171188Y78107D01*
X171184Y78112D01*
X171179Y78116D01*
X171149Y78160D01*
X171122Y78208D01*
X171079Y78313D01*
X171048Y78422D01*
X171026Y78527D01*
X171018Y78575D01*
X171013Y78619D01*
X171009Y78662D01*
Y78697D01*
X171004Y78728D01*
Y78767D01*
X171009Y78864D01*
X171018Y78947D01*
X171031Y79025D01*
X171048Y79095D01*
X171066Y79152D01*
X171079Y79196D01*
X171087Y79222D01*
X171092Y79226D01*
Y79230D01*
X171131Y79305D01*
X171170Y79366D01*
X171214Y79418D01*
X171254Y79466D01*
X171288Y79501D01*
X171319Y79523D01*
X171336Y79541D01*
X171345Y79545D01*
X171406Y79580D01*
X171472Y79606D01*
X171529Y79628D01*
X171581Y79641D01*
X171629Y79650D01*
X171664Y79654D01*
X171686D01*
X171695D01*
X171765Y79650D01*
D02*
G37*
G36*
X174076Y76958D02*
X172328D01*
X172228D01*
X172132Y76949D01*
X172049Y76941D01*
X171970Y76928D01*
X171900Y76914D01*
X171835Y76897D01*
X171778Y76884D01*
X171730Y76866D01*
X171690Y76849D01*
X171651Y76831D01*
X171625Y76814D01*
X171599Y76801D01*
X171581Y76788D01*
X171568Y76779D01*
X171564Y76775D01*
X171559Y76770D01*
X171524Y76731D01*
X171494Y76687D01*
X171446Y76591D01*
X171411Y76490D01*
X171389Y76386D01*
X171371Y76289D01*
X171367Y76250D01*
Y76211D01*
X171363Y76185D01*
Y76141D01*
X171367Y76049D01*
X171380Y75966D01*
X171393Y75888D01*
X171415Y75826D01*
X171433Y75774D01*
X171446Y75735D01*
X171459Y75713D01*
X171463Y75704D01*
X171503Y75643D01*
X171551Y75590D01*
X171599Y75547D01*
X171642Y75516D01*
X171686Y75490D01*
X171717Y75468D01*
X171739Y75459D01*
X171747Y75455D01*
X171787Y75442D01*
X171826Y75433D01*
X171918Y75415D01*
X172014Y75402D01*
X172110Y75394D01*
X172193Y75389D01*
X172232D01*
X172263Y75385D01*
X172289D01*
X172311D01*
X172324D01*
X172328D01*
X174076D01*
Y74983D01*
X172328D01*
X172241D01*
X172158Y74987D01*
X172079Y74992D01*
X172005Y75000D01*
X171940Y75009D01*
X171878Y75018D01*
X171822Y75031D01*
X171769Y75040D01*
X171721Y75048D01*
X171682Y75062D01*
X171647Y75070D01*
X171621Y75079D01*
X171599Y75088D01*
X171581Y75092D01*
X171572Y75096D01*
X171568D01*
X171472Y75145D01*
X171385Y75206D01*
X171315Y75267D01*
X171254Y75332D01*
X171205Y75389D01*
X171170Y75437D01*
X171162Y75455D01*
X171153Y75468D01*
X171144Y75477D01*
Y75481D01*
X171096Y75590D01*
X171061Y75704D01*
X171035Y75822D01*
X171018Y75931D01*
X171013Y75979D01*
X171009Y76027D01*
X171004Y76071D01*
Y76106D01*
X171000Y76137D01*
Y76176D01*
X171009Y76333D01*
X171018Y76403D01*
X171026Y76469D01*
X171039Y76534D01*
X171052Y76591D01*
X171066Y76644D01*
X171083Y76692D01*
X171100Y76735D01*
X171114Y76770D01*
X171127Y76805D01*
X171140Y76831D01*
X171153Y76853D01*
X171157Y76866D01*
X171166Y76875D01*
Y76880D01*
X171232Y76976D01*
X171306Y77054D01*
X171376Y77115D01*
X171446Y77168D01*
X171507Y77207D01*
X171555Y77233D01*
X171572Y77242D01*
X171586Y77251D01*
X171594Y77255D01*
X171599D01*
X171651Y77273D01*
X171708Y77290D01*
X171826Y77316D01*
X171948Y77334D01*
X172066Y77347D01*
X172119Y77351D01*
X172171Y77356D01*
X172215D01*
X172254Y77360D01*
X172285D01*
X172307D01*
X172324D01*
X172328D01*
X174076D01*
Y76958D01*
D02*
G37*
G36*
X171380Y73388D02*
X171376Y73353D01*
X171371Y73318D01*
Y73287D01*
X171367Y73265D01*
Y73222D01*
X171371Y73165D01*
X171380Y73126D01*
X171389Y73104D01*
X171393Y73095D01*
X171415Y73065D01*
X171437Y73047D01*
X171455Y73034D01*
X171463Y73030D01*
X171485Y73025D01*
X171516Y73021D01*
X171586Y73016D01*
X171616Y73012D01*
X171642D01*
X171660D01*
X171669D01*
X172958D01*
Y73388D01*
X173246D01*
Y73012D01*
X174011D01*
X173788Y72641D01*
X173246D01*
Y72365D01*
X172958D01*
Y72641D01*
X171690D01*
X171629D01*
X171577D01*
X171529Y72645D01*
X171481Y72649D01*
X171441D01*
X171406Y72654D01*
X171350Y72662D01*
X171306Y72671D01*
X171275Y72676D01*
X171258Y72684D01*
X171254D01*
X171214Y72702D01*
X171184Y72728D01*
X171153Y72754D01*
X171131Y72776D01*
X171109Y72802D01*
X171096Y72820D01*
X171087Y72833D01*
X171083Y72837D01*
X171061Y72885D01*
X171048Y72933D01*
X171035Y72986D01*
X171031Y73038D01*
X171026Y73082D01*
X171022Y73117D01*
Y73152D01*
X171026Y73248D01*
X171031Y73296D01*
X171039Y73340D01*
X171044Y73379D01*
X171048Y73410D01*
X171052Y73427D01*
Y73436D01*
X171380Y73388D01*
D02*
G37*
G36*
X174076Y71640D02*
X173653D01*
Y72011D01*
X174076D01*
Y71640D01*
D02*
G37*
G36*
X173246D02*
X171052D01*
Y72011D01*
X173246D01*
Y71640D01*
D02*
G37*
G36*
X171765Y71194D02*
X171826Y71185D01*
X171878Y71168D01*
X171926Y71155D01*
X171966Y71137D01*
X171992Y71120D01*
X172010Y71111D01*
X172014Y71107D01*
X172057Y71072D01*
X172097Y71032D01*
X172132Y70993D01*
X172158Y70954D01*
X172180Y70914D01*
X172193Y70888D01*
X172202Y70871D01*
X172206Y70862D01*
X172219Y70831D01*
X172232Y70796D01*
X172263Y70713D01*
X172293Y70622D01*
X172320Y70530D01*
X172346Y70447D01*
X172355Y70407D01*
X172363Y70377D01*
X172372Y70351D01*
X172377Y70329D01*
X172381Y70316D01*
Y70311D01*
X172394Y70263D01*
X172407Y70220D01*
X172416Y70180D01*
X172429Y70145D01*
X172442Y70088D01*
X172455Y70045D01*
X172468Y70014D01*
X172473Y69997D01*
X172477Y69988D01*
Y69984D01*
X172495Y69949D01*
X172508Y69918D01*
X172525Y69892D01*
X172538Y69874D01*
X172551Y69857D01*
X172564Y69848D01*
X172569Y69844D01*
X172573Y69839D01*
X172617Y69813D01*
X172661Y69800D01*
X172678D01*
X172691Y69796D01*
X172700D01*
X172704D01*
X172744Y69800D01*
X172783Y69813D01*
X172818Y69831D01*
X172844Y69853D01*
X172870Y69870D01*
X172888Y69888D01*
X172897Y69901D01*
X172901Y69905D01*
X172932Y69953D01*
X172953Y70010D01*
X172967Y70071D01*
X172980Y70128D01*
X172984Y70185D01*
X172988Y70228D01*
Y70272D01*
X172984Y70346D01*
X172975Y70416D01*
X172958Y70473D01*
X172940Y70517D01*
X172923Y70556D01*
X172905Y70582D01*
X172897Y70600D01*
X172892Y70604D01*
X172853Y70648D01*
X172809Y70678D01*
X172766Y70705D01*
X172726Y70727D01*
X172687Y70740D01*
X172656Y70748D01*
X172639Y70753D01*
X172630D01*
X172678Y71115D01*
X172752Y71098D01*
X172818Y71080D01*
X172875Y71059D01*
X172927Y71037D01*
X172962Y71015D01*
X172993Y70998D01*
X173010Y70989D01*
X173015Y70984D01*
X173058Y70945D01*
X173098Y70901D01*
X173133Y70853D01*
X173163Y70805D01*
X173185Y70762D01*
X173203Y70727D01*
X173211Y70705D01*
X173216Y70700D01*
Y70696D01*
X173242Y70622D01*
X173259Y70543D01*
X173277Y70469D01*
X173285Y70399D01*
X173290Y70333D01*
X173294Y70285D01*
Y70180D01*
X173285Y70119D01*
X173281Y70067D01*
X173272Y70019D01*
X173264Y69979D01*
X173255Y69949D01*
X173251Y69931D01*
X173246Y69922D01*
X173229Y69870D01*
X173211Y69822D01*
X173194Y69783D01*
X173176Y69748D01*
X173163Y69721D01*
X173150Y69704D01*
X173146Y69691D01*
X173141Y69687D01*
X173111Y69643D01*
X173076Y69608D01*
X173036Y69577D01*
X173006Y69551D01*
X172975Y69529D01*
X172953Y69516D01*
X172936Y69507D01*
X172932Y69503D01*
X172883Y69481D01*
X172840Y69464D01*
X172792Y69455D01*
X172752Y69446D01*
X172713Y69442D01*
X172687Y69437D01*
X172669D01*
X172661D01*
X172599Y69442D01*
X172547Y69450D01*
X172495Y69464D01*
X172451Y69477D01*
X172416Y69490D01*
X172385Y69503D01*
X172368Y69512D01*
X172363Y69516D01*
X172315Y69551D01*
X172276Y69590D01*
X172241Y69630D01*
X172211Y69669D01*
X172189Y69704D01*
X172171Y69730D01*
X172162Y69748D01*
X172158Y69756D01*
X172145Y69787D01*
X172127Y69826D01*
X172097Y69914D01*
X172071Y70006D01*
X172040Y70102D01*
X172018Y70185D01*
X172005Y70224D01*
X171996Y70259D01*
X171988Y70285D01*
X171983Y70307D01*
X171979Y70320D01*
Y70324D01*
X171966Y70381D01*
X171953Y70429D01*
X171940Y70473D01*
X171926Y70512D01*
X171918Y70547D01*
X171905Y70578D01*
X171887Y70630D01*
X171874Y70665D01*
X171861Y70687D01*
X171856Y70700D01*
X171852Y70705D01*
X171826Y70744D01*
X171791Y70770D01*
X171760Y70792D01*
X171730Y70805D01*
X171699Y70814D01*
X171677Y70818D01*
X171660D01*
X171655D01*
X171603Y70814D01*
X171559Y70801D01*
X171516Y70779D01*
X171481Y70757D01*
X171450Y70731D01*
X171428Y70713D01*
X171415Y70696D01*
X171411Y70692D01*
X171376Y70639D01*
X171354Y70582D01*
X171336Y70517D01*
X171323Y70456D01*
X171315Y70399D01*
X171310Y70355D01*
Y70311D01*
X171315Y70220D01*
X171328Y70141D01*
X171345Y70075D01*
X171367Y70019D01*
X171389Y69975D01*
X171406Y69940D01*
X171420Y69922D01*
X171424Y69914D01*
X171472Y69866D01*
X171529Y69826D01*
X171586Y69800D01*
X171638Y69778D01*
X171686Y69761D01*
X171730Y69752D01*
X171756Y69743D01*
X171760D01*
X171765D01*
X171708Y69376D01*
X171586Y69407D01*
X171476Y69446D01*
X171389Y69494D01*
X171315Y69542D01*
X171254Y69586D01*
X171214Y69625D01*
X171188Y69652D01*
X171184Y69656D01*
X171179Y69660D01*
X171149Y69704D01*
X171122Y69752D01*
X171079Y69857D01*
X171048Y69966D01*
X171026Y70071D01*
X171018Y70119D01*
X171013Y70163D01*
X171009Y70206D01*
Y70241D01*
X171004Y70272D01*
Y70311D01*
X171009Y70407D01*
X171018Y70490D01*
X171031Y70569D01*
X171048Y70639D01*
X171066Y70696D01*
X171079Y70740D01*
X171087Y70766D01*
X171092Y70770D01*
Y70775D01*
X171131Y70849D01*
X171170Y70910D01*
X171214Y70963D01*
X171254Y71011D01*
X171288Y71046D01*
X171319Y71067D01*
X171336Y71085D01*
X171345Y71089D01*
X171406Y71124D01*
X171472Y71150D01*
X171529Y71172D01*
X171581Y71185D01*
X171629Y71194D01*
X171664Y71198D01*
X171686D01*
X171695D01*
X171765Y71194D01*
D02*
G37*
G36*
X174076Y68585D02*
X173653D01*
Y68957D01*
X174076D01*
Y68585D01*
D02*
G37*
G36*
X173246D02*
X171052D01*
Y68957D01*
X173246D01*
Y68585D01*
D02*
G37*
G36*
X174076Y67864D02*
X171878Y67043D01*
X171787Y67008D01*
X171699Y66977D01*
X171616Y66951D01*
X171542Y66929D01*
X171476Y66907D01*
X171428Y66894D01*
X171411Y66890D01*
X171398Y66885D01*
X171389Y66881D01*
X171385D01*
X171559Y66829D01*
X171642Y66802D01*
X171717Y66776D01*
X171782Y66754D01*
X171809Y66745D01*
X171835Y66741D01*
X171852Y66732D01*
X171865Y66728D01*
X171874Y66724D01*
X171878D01*
X174076Y65937D01*
Y65500D01*
X171052Y66671D01*
Y67086D01*
X174076Y68271D01*
Y67864D01*
D02*
G37*
G36*
X182527Y113228D02*
X182519Y113170D01*
X182512Y113111D01*
Y113060D01*
X182505Y113024D01*
Y112951D01*
X182512Y112856D01*
X182527Y112791D01*
X182541Y112754D01*
X182548Y112740D01*
X182585Y112689D01*
X182621Y112660D01*
X182650Y112638D01*
X182665Y112630D01*
X182702Y112623D01*
X182753Y112616D01*
X182869Y112609D01*
X182920Y112601D01*
X182964D01*
X182993D01*
X183008D01*
X185158D01*
Y113228D01*
X185639D01*
Y112601D01*
X186915D01*
X186543Y111982D01*
X185639D01*
Y111522D01*
X185158D01*
Y111982D01*
X183044D01*
X182942D01*
X182855D01*
X182774Y111989D01*
X182694Y111996D01*
X182629D01*
X182570Y112004D01*
X182476Y112018D01*
X182403Y112033D01*
X182352Y112040D01*
X182323Y112055D01*
X182315D01*
X182250Y112084D01*
X182199Y112127D01*
X182148Y112171D01*
X182111Y112208D01*
X182075Y112251D01*
X182053Y112280D01*
X182038Y112302D01*
X182031Y112310D01*
X181994Y112390D01*
X181973Y112470D01*
X181951Y112557D01*
X181943Y112645D01*
X181936Y112718D01*
X181929Y112776D01*
Y112835D01*
X181936Y112995D01*
X181943Y113075D01*
X181958Y113148D01*
X181965Y113214D01*
X181973Y113265D01*
X181980Y113294D01*
Y113308D01*
X182527Y113228D01*
D02*
G37*
G36*
X187024Y110312D02*
X186317D01*
Y110932D01*
X187024D01*
Y110312D01*
D02*
G37*
G36*
X185639D02*
X181980D01*
Y110932D01*
X185639D01*
Y110312D01*
D02*
G37*
G36*
X184276Y108271D02*
X185639Y109678D01*
Y108869D01*
X184145Y107404D01*
X187024D01*
Y106784D01*
X181980D01*
Y107404D01*
X183431D01*
X183846Y107834D01*
X181980Y109051D01*
Y109817D01*
X184276Y108271D01*
D02*
G37*
G36*
X183977Y106018D02*
X184130Y106004D01*
X184276Y105982D01*
X184415Y105953D01*
X184539Y105916D01*
X184655Y105880D01*
X184757Y105836D01*
X184852Y105792D01*
X184940Y105749D01*
X185012Y105705D01*
X185071Y105668D01*
X185122Y105632D01*
X185166Y105603D01*
X185195Y105581D01*
X185209Y105566D01*
X185217Y105559D01*
X185304Y105472D01*
X185384Y105377D01*
X185450Y105275D01*
X185508Y105173D01*
X185559Y105071D01*
X185596Y104976D01*
X185632Y104874D01*
X185654Y104786D01*
X185676Y104692D01*
X185690Y104611D01*
X185705Y104539D01*
X185712Y104480D01*
X185720Y104429D01*
Y104356D01*
X185712Y104218D01*
X185698Y104086D01*
X185676Y103963D01*
X185639Y103846D01*
X185603Y103737D01*
X185559Y103635D01*
X185515Y103540D01*
X185465Y103460D01*
X185421Y103379D01*
X185370Y103314D01*
X185326Y103255D01*
X185290Y103212D01*
X185253Y103175D01*
X185231Y103146D01*
X185217Y103131D01*
X185209Y103124D01*
X185107Y103044D01*
X184998Y102971D01*
X184889Y102905D01*
X184772Y102847D01*
X184648Y102804D01*
X184531Y102767D01*
X184298Y102709D01*
X184196Y102687D01*
X184094Y102672D01*
X184007Y102665D01*
X183926Y102658D01*
X183861Y102650D01*
X183817D01*
X183781D01*
X183773D01*
X183613Y102658D01*
X183460Y102672D01*
X183314Y102694D01*
X183183Y102723D01*
X183059Y102760D01*
X182942Y102796D01*
X182840Y102840D01*
X182745Y102884D01*
X182665Y102927D01*
X182592Y102971D01*
X182534Y103008D01*
X182483Y103044D01*
X182439Y103073D01*
X182410Y103095D01*
X182395Y103110D01*
X182388Y103117D01*
X182301Y103212D01*
X182228Y103306D01*
X182162Y103409D01*
X182104Y103518D01*
X182060Y103620D01*
X182016Y103729D01*
X181958Y103933D01*
X181943Y104028D01*
X181929Y104116D01*
X181914Y104196D01*
X181907Y104262D01*
X181900Y104313D01*
Y104393D01*
X181914Y104619D01*
X181951Y104823D01*
X181994Y105005D01*
X182024Y105078D01*
X182053Y105151D01*
X182082Y105217D01*
X182111Y105275D01*
X182133Y105318D01*
X182155Y105362D01*
X182177Y105391D01*
X182191Y105413D01*
X182206Y105428D01*
Y105435D01*
X182337Y105581D01*
X182476Y105698D01*
X182621Y105800D01*
X182760Y105873D01*
X182884Y105931D01*
X182942Y105953D01*
X182986Y105975D01*
X183030Y105989D01*
X183059Y105997D01*
X183073Y106004D01*
X183081D01*
X183161Y105362D01*
X183022Y105304D01*
X182906Y105238D01*
X182804Y105173D01*
X182723Y105114D01*
X182665Y105063D01*
X182621Y105020D01*
X182592Y104983D01*
X182585Y104976D01*
X182527Y104881D01*
X182483Y104786D01*
X182454Y104684D01*
X182432Y104597D01*
X182417Y104517D01*
X182410Y104451D01*
Y104393D01*
X182417Y104305D01*
X182424Y104225D01*
X182461Y104079D01*
X182512Y103948D01*
X182570Y103831D01*
X182621Y103744D01*
X182672Y103678D01*
X182709Y103635D01*
X182723Y103627D01*
Y103620D01*
X182855Y103518D01*
X183001Y103438D01*
X183161Y103379D01*
X183307Y103336D01*
X183438Y103314D01*
X183496Y103299D01*
X183547Y103292D01*
X183591D01*
X183620Y103285D01*
X183642D01*
X183649D01*
Y106018D01*
X183722Y106026D01*
X183773D01*
X183802D01*
X183810D01*
X183977Y106018D01*
D02*
G37*
G36*
X187024Y101280D02*
X181980D01*
Y101900D01*
X187024D01*
Y101280D01*
D02*
G37*
G36*
Y99727D02*
X186317D01*
Y100347D01*
X187024D01*
Y99727D01*
D02*
G37*
G36*
X185639D02*
X181980D01*
Y100347D01*
X185639D01*
Y99727D01*
D02*
G37*
G36*
X182527Y99115D02*
X182519Y99056D01*
X182512Y98998D01*
Y98947D01*
X182505Y98911D01*
Y98838D01*
X182512Y98743D01*
X182527Y98677D01*
X182541Y98641D01*
X182548Y98626D01*
X182585Y98575D01*
X182621Y98546D01*
X182650Y98524D01*
X182665Y98517D01*
X182702Y98510D01*
X182753Y98502D01*
X182869Y98495D01*
X182920Y98488D01*
X182964D01*
X182993D01*
X183008D01*
X185158D01*
Y99115D01*
X185639D01*
Y98488D01*
X186915D01*
X186543Y97868D01*
X185639D01*
Y97409D01*
X185158D01*
Y97868D01*
X183044D01*
X182942D01*
X182855D01*
X182774Y97875D01*
X182694Y97883D01*
X182629D01*
X182570Y97890D01*
X182476Y97905D01*
X182403Y97919D01*
X182352Y97926D01*
X182323Y97941D01*
X182315D01*
X182250Y97970D01*
X182199Y98014D01*
X182148Y98058D01*
X182111Y98094D01*
X182075Y98138D01*
X182053Y98167D01*
X182038Y98189D01*
X182031Y98196D01*
X181994Y98276D01*
X181973Y98357D01*
X181951Y98444D01*
X181943Y98532D01*
X181936Y98604D01*
X181929Y98663D01*
Y98721D01*
X181936Y98882D01*
X181943Y98962D01*
X181958Y99035D01*
X181965Y99100D01*
X181973Y99151D01*
X181980Y99180D01*
Y99195D01*
X182527Y99115D01*
D02*
G37*
G36*
X183321Y96622D02*
X183161Y96592D01*
X183015Y96549D01*
X182898Y96490D01*
X182804Y96439D01*
X182723Y96388D01*
X182672Y96345D01*
X182636Y96323D01*
X182629Y96308D01*
X182556Y96213D01*
X182505Y96111D01*
X182461Y96009D01*
X182439Y95914D01*
X182424Y95834D01*
X182417Y95761D01*
X182410Y95718D01*
Y95703D01*
X182417Y95623D01*
X182424Y95543D01*
X182461Y95397D01*
X182512Y95273D01*
X182578Y95164D01*
X182636Y95083D01*
X182687Y95018D01*
X182723Y94981D01*
X182738Y94967D01*
X182804Y94916D01*
X182884Y94872D01*
X183044Y94806D01*
X183226Y94755D01*
X183401Y94726D01*
X183562Y94704D01*
X183627Y94697D01*
X183693D01*
X183737Y94690D01*
X183781D01*
X183802D01*
X183810D01*
X183941D01*
X184065Y94704D01*
X184181Y94719D01*
X184283Y94734D01*
X184378Y94755D01*
X184466Y94784D01*
X184546Y94806D01*
X184619Y94836D01*
X184677Y94865D01*
X184728Y94886D01*
X184772Y94916D01*
X184808Y94938D01*
X184837Y94952D01*
X184859Y94967D01*
X184867Y94981D01*
X184874D01*
X184932Y95040D01*
X184983Y95098D01*
X185071Y95222D01*
X185129Y95353D01*
X185166Y95470D01*
X185195Y95579D01*
X185202Y95659D01*
X185209Y95696D01*
Y95740D01*
X185202Y95849D01*
X185180Y95951D01*
X185151Y96038D01*
X185115Y96119D01*
X185078Y96177D01*
X185049Y96228D01*
X185027Y96257D01*
X185020Y96264D01*
X184947Y96337D01*
X184859Y96403D01*
X184765Y96461D01*
X184677Y96498D01*
X184597Y96534D01*
X184531Y96556D01*
X184488Y96563D01*
X184480Y96570D01*
X184473D01*
X184568Y97176D01*
X184765Y97125D01*
X184932Y97052D01*
X185078Y96971D01*
X185195Y96891D01*
X185290Y96811D01*
X185355Y96746D01*
X185399Y96702D01*
X185413Y96694D01*
Y96687D01*
X185515Y96534D01*
X185588Y96374D01*
X185647Y96213D01*
X185683Y96060D01*
X185705Y95922D01*
X185712Y95863D01*
Y95820D01*
X185720Y95776D01*
Y95718D01*
X185712Y95543D01*
X185683Y95382D01*
X185647Y95229D01*
X185610Y95105D01*
X185566Y94996D01*
X185545Y94952D01*
X185530Y94916D01*
X185515Y94886D01*
X185501Y94865D01*
X185494Y94850D01*
Y94843D01*
X185406Y94704D01*
X185297Y94580D01*
X185187Y94478D01*
X185078Y94391D01*
X184983Y94325D01*
X184903Y94282D01*
X184874Y94267D01*
X184852Y94252D01*
X184837Y94245D01*
X184830D01*
X184655Y94179D01*
X184480Y94136D01*
X184305Y94099D01*
X184145Y94077D01*
X184072Y94070D01*
X184007Y94063D01*
X183948D01*
X183897Y94055D01*
X183853D01*
X183824D01*
X183802D01*
X183795D01*
X183627Y94063D01*
X183474Y94077D01*
X183321Y94099D01*
X183190Y94128D01*
X183059Y94157D01*
X182949Y94201D01*
X182840Y94238D01*
X182745Y94282D01*
X182665Y94325D01*
X182592Y94362D01*
X182527Y94405D01*
X182476Y94435D01*
X182439Y94464D01*
X182410Y94486D01*
X182395Y94500D01*
X182388Y94507D01*
X182301Y94595D01*
X182228Y94690D01*
X182162Y94784D01*
X182104Y94886D01*
X182060Y94989D01*
X182016Y95083D01*
X181958Y95280D01*
X181943Y95368D01*
X181929Y95448D01*
X181914Y95521D01*
X181907Y95586D01*
X181900Y95637D01*
Y95710D01*
X181907Y95820D01*
X181914Y95929D01*
X181958Y96119D01*
X182009Y96293D01*
X182075Y96439D01*
X182111Y96498D01*
X182140Y96556D01*
X182169Y96607D01*
X182199Y96643D01*
X182220Y96673D01*
X182235Y96694D01*
X182242Y96709D01*
X182250Y96716D01*
X182323Y96789D01*
X182395Y96855D01*
X182556Y96971D01*
X182723Y97066D01*
X182877Y97132D01*
X183022Y97183D01*
X183081Y97198D01*
X183139Y97212D01*
X183183Y97219D01*
X183212Y97227D01*
X183234Y97234D01*
X183241D01*
X183321Y96622D01*
D02*
G37*
G36*
X182060Y93436D02*
X182140Y93399D01*
X182213Y93370D01*
X182279Y93356D01*
X182337Y93334D01*
X182381Y93326D01*
X182410Y93319D01*
X182417D01*
X182468Y93312D01*
X182534Y93305D01*
X182607D01*
X182687Y93297D01*
X182869Y93290D01*
X183052D01*
X183226Y93283D01*
X183307D01*
X183372D01*
X183431D01*
X183474D01*
X183503D01*
X183511D01*
X184342D01*
X184480D01*
X184604Y93275D01*
X184699Y93268D01*
X184779D01*
X184837Y93261D01*
X184881Y93254D01*
X184903Y93246D01*
X184910D01*
X185005Y93224D01*
X185085Y93195D01*
X185151Y93166D01*
X185217Y93130D01*
X185260Y93101D01*
X185297Y93079D01*
X185319Y93064D01*
X185326Y93057D01*
X185384Y92998D01*
X185443Y92933D01*
X185486Y92860D01*
X185530Y92787D01*
X185559Y92721D01*
X185581Y92670D01*
X185596Y92634D01*
X185603Y92619D01*
X185639Y92503D01*
X185669Y92379D01*
X185690Y92255D01*
X185705Y92131D01*
X185712Y92022D01*
X185720Y91941D01*
Y91861D01*
X185712Y91686D01*
X185698Y91533D01*
X185676Y91387D01*
X185654Y91271D01*
X185632Y91169D01*
X185610Y91096D01*
X185603Y91067D01*
X185596Y91045D01*
X185588Y91037D01*
Y91030D01*
X185537Y90906D01*
X185472Y90797D01*
X185413Y90702D01*
X185355Y90622D01*
X185297Y90564D01*
X185253Y90520D01*
X185224Y90491D01*
X185217Y90483D01*
X185122Y90418D01*
X185020Y90359D01*
X184918Y90316D01*
X184823Y90279D01*
X184728Y90250D01*
X184663Y90228D01*
X184633Y90221D01*
X184612D01*
X184604Y90214D01*
X184597D01*
X184517Y90819D01*
X184648Y90863D01*
X184765Y90906D01*
X184859Y90957D01*
X184932Y91001D01*
X184991Y91045D01*
X185027Y91081D01*
X185049Y91110D01*
X185056Y91118D01*
X185107Y91205D01*
X185144Y91307D01*
X185173Y91417D01*
X185187Y91519D01*
X185202Y91621D01*
X185209Y91694D01*
Y91766D01*
X185202Y91934D01*
X185180Y92080D01*
X185144Y92197D01*
X185107Y92299D01*
X185064Y92371D01*
X185034Y92430D01*
X185005Y92466D01*
X184998Y92474D01*
X184932Y92532D01*
X184852Y92576D01*
X184765Y92612D01*
X184677Y92634D01*
X184597Y92649D01*
X184524Y92656D01*
X184480D01*
X184473D01*
X184466D01*
X184451D01*
X184422D01*
X184371D01*
X184327Y92649D01*
X184313D01*
X184305D01*
X184283Y92576D01*
X184262Y92495D01*
X184218Y92328D01*
X184181Y92138D01*
X184145Y91963D01*
X184130Y91876D01*
X184123Y91796D01*
X184108Y91723D01*
X184101Y91664D01*
X184094Y91613D01*
Y91577D01*
X184087Y91548D01*
Y91540D01*
X184072Y91409D01*
X184050Y91300D01*
X184036Y91205D01*
X184021Y91132D01*
X184014Y91074D01*
X183999Y91030D01*
X183992Y91001D01*
Y90994D01*
X183963Y90899D01*
X183934Y90819D01*
X183897Y90738D01*
X183868Y90673D01*
X183839Y90615D01*
X183810Y90578D01*
X183795Y90549D01*
X183788Y90542D01*
X183737Y90469D01*
X183678Y90411D01*
X183620Y90352D01*
X183562Y90308D01*
X183511Y90272D01*
X183467Y90243D01*
X183438Y90228D01*
X183431Y90221D01*
X183350Y90184D01*
X183263Y90155D01*
X183183Y90134D01*
X183103Y90119D01*
X183037Y90112D01*
X182986Y90104D01*
X182957D01*
X182942D01*
X182855Y90112D01*
X182782Y90119D01*
X182629Y90155D01*
X182505Y90206D01*
X182395Y90265D01*
X182308Y90323D01*
X182242Y90374D01*
X182206Y90411D01*
X182191Y90425D01*
X182097Y90556D01*
X182024Y90702D01*
X181973Y90863D01*
X181936Y91008D01*
X181914Y91140D01*
X181907Y91198D01*
Y91249D01*
X181900Y91293D01*
Y91351D01*
X181907Y91482D01*
X181922Y91613D01*
X181936Y91730D01*
X181958Y91832D01*
X181980Y91912D01*
X182002Y91978D01*
X182009Y92022D01*
X182016Y92036D01*
X182067Y92160D01*
X182133Y92277D01*
X182206Y92386D01*
X182272Y92495D01*
X182337Y92583D01*
X182388Y92649D01*
X182424Y92692D01*
X182439Y92699D01*
Y92707D01*
X182344Y92721D01*
X182257Y92736D01*
X182177Y92751D01*
X182111Y92772D01*
X182053Y92794D01*
X182016Y92809D01*
X181987Y92816D01*
X181980Y92823D01*
Y93472D01*
X182060Y93436D01*
D02*
G37*
G36*
X182527Y89703D02*
X182519Y89645D01*
X182512Y89587D01*
Y89536D01*
X182505Y89499D01*
Y89426D01*
X182512Y89332D01*
X182527Y89266D01*
X182541Y89230D01*
X182548Y89215D01*
X182585Y89164D01*
X182621Y89135D01*
X182650Y89113D01*
X182665Y89106D01*
X182702Y89098D01*
X182753Y89091D01*
X182869Y89084D01*
X182920Y89076D01*
X182964D01*
X182993D01*
X183008D01*
X185158D01*
Y89703D01*
X185639D01*
Y89076D01*
X186915D01*
X186543Y88457D01*
X185639D01*
Y87998D01*
X185158D01*
Y88457D01*
X183044D01*
X182942D01*
X182855D01*
X182774Y88464D01*
X182694Y88471D01*
X182629D01*
X182570Y88479D01*
X182476Y88493D01*
X182403Y88508D01*
X182352Y88515D01*
X182323Y88530D01*
X182315D01*
X182250Y88559D01*
X182199Y88603D01*
X182148Y88646D01*
X182111Y88683D01*
X182075Y88727D01*
X182053Y88756D01*
X182038Y88778D01*
X182031Y88785D01*
X181994Y88865D01*
X181973Y88945D01*
X181951Y89033D01*
X181943Y89120D01*
X181936Y89193D01*
X181929Y89251D01*
Y89310D01*
X181936Y89470D01*
X181943Y89550D01*
X181958Y89623D01*
X181965Y89689D01*
X181973Y89740D01*
X181980Y89769D01*
Y89784D01*
X182527Y89703D01*
D02*
G37*
G36*
X183977Y87589D02*
X184130Y87575D01*
X184276Y87553D01*
X184415Y87524D01*
X184539Y87487D01*
X184655Y87451D01*
X184757Y87407D01*
X184852Y87363D01*
X184940Y87319D01*
X185012Y87276D01*
X185071Y87239D01*
X185122Y87203D01*
X185166Y87174D01*
X185195Y87152D01*
X185209Y87137D01*
X185217Y87130D01*
X185304Y87042D01*
X185384Y86948D01*
X185450Y86846D01*
X185508Y86744D01*
X185559Y86642D01*
X185596Y86547D01*
X185632Y86445D01*
X185654Y86357D01*
X185676Y86263D01*
X185690Y86182D01*
X185705Y86109D01*
X185712Y86051D01*
X185720Y86000D01*
Y85927D01*
X185712Y85789D01*
X185698Y85657D01*
X185676Y85533D01*
X185639Y85417D01*
X185603Y85308D01*
X185559Y85205D01*
X185515Y85111D01*
X185465Y85031D01*
X185421Y84950D01*
X185370Y84885D01*
X185326Y84826D01*
X185290Y84783D01*
X185253Y84746D01*
X185231Y84717D01*
X185217Y84702D01*
X185209Y84695D01*
X185107Y84615D01*
X184998Y84542D01*
X184889Y84476D01*
X184772Y84418D01*
X184648Y84374D01*
X184531Y84338D01*
X184298Y84280D01*
X184196Y84258D01*
X184094Y84243D01*
X184007Y84236D01*
X183926Y84229D01*
X183861Y84221D01*
X183817D01*
X183781D01*
X183773D01*
X183613Y84229D01*
X183460Y84243D01*
X183314Y84265D01*
X183183Y84294D01*
X183059Y84331D01*
X182942Y84367D01*
X182840Y84411D01*
X182745Y84455D01*
X182665Y84498D01*
X182592Y84542D01*
X182534Y84579D01*
X182483Y84615D01*
X182439Y84644D01*
X182410Y84666D01*
X182395Y84680D01*
X182388Y84688D01*
X182301Y84783D01*
X182228Y84877D01*
X182162Y84979D01*
X182104Y85089D01*
X182060Y85191D01*
X182016Y85300D01*
X181958Y85504D01*
X181943Y85599D01*
X181929Y85687D01*
X181914Y85767D01*
X181907Y85832D01*
X181900Y85883D01*
Y85964D01*
X181914Y86190D01*
X181951Y86394D01*
X181994Y86576D01*
X182024Y86649D01*
X182053Y86722D01*
X182082Y86787D01*
X182111Y86846D01*
X182133Y86889D01*
X182155Y86933D01*
X182177Y86962D01*
X182191Y86984D01*
X182206Y86999D01*
Y87006D01*
X182337Y87152D01*
X182476Y87269D01*
X182621Y87371D01*
X182760Y87443D01*
X182884Y87502D01*
X182942Y87524D01*
X182986Y87546D01*
X183030Y87560D01*
X183059Y87567D01*
X183073Y87575D01*
X183081D01*
X183161Y86933D01*
X183022Y86875D01*
X182906Y86809D01*
X182804Y86744D01*
X182723Y86685D01*
X182665Y86634D01*
X182621Y86590D01*
X182592Y86554D01*
X182585Y86547D01*
X182527Y86452D01*
X182483Y86357D01*
X182454Y86255D01*
X182432Y86168D01*
X182417Y86088D01*
X182410Y86022D01*
Y85964D01*
X182417Y85876D01*
X182424Y85796D01*
X182461Y85650D01*
X182512Y85519D01*
X182570Y85402D01*
X182621Y85315D01*
X182672Y85249D01*
X182709Y85205D01*
X182723Y85198D01*
Y85191D01*
X182855Y85089D01*
X183001Y85009D01*
X183161Y84950D01*
X183307Y84907D01*
X183438Y84885D01*
X183496Y84870D01*
X183547Y84863D01*
X183591D01*
X183620Y84856D01*
X183642D01*
X183649D01*
Y87589D01*
X183722Y87596D01*
X183773D01*
X183802D01*
X183810D01*
X183977Y87589D01*
D02*
G37*
G36*
X187112Y83470D02*
X181892Y82005D01*
Y82501D01*
X187112Y83966D01*
Y83470D01*
D02*
G37*
G36*
X185639Y80963D02*
X185187D01*
X185282Y80882D01*
X185362Y80795D01*
X185435Y80708D01*
X185494Y80620D01*
X185545Y80525D01*
X185588Y80438D01*
X185625Y80350D01*
X185654Y80270D01*
X185676Y80190D01*
X185690Y80117D01*
X185705Y80051D01*
X185712Y80000D01*
X185720Y79957D01*
Y79891D01*
X185712Y79716D01*
X185683Y79556D01*
X185639Y79410D01*
X185596Y79286D01*
X185552Y79184D01*
X185508Y79111D01*
X185494Y79082D01*
X185479Y79060D01*
X185472Y79053D01*
Y79045D01*
X185377Y78921D01*
X185260Y78812D01*
X185151Y78717D01*
X185042Y78637D01*
X184940Y78579D01*
X184859Y78535D01*
X184830Y78521D01*
X184808Y78506D01*
X184794Y78499D01*
X184786D01*
X184619Y78433D01*
X184451Y78389D01*
X184291Y78353D01*
X184145Y78331D01*
X184014Y78316D01*
X183963D01*
X183912Y78309D01*
X183875D01*
X183846D01*
X183832D01*
X183824D01*
X183686Y78316D01*
X183547Y78324D01*
X183299Y78375D01*
X183183Y78404D01*
X183081Y78440D01*
X182979Y78477D01*
X182891Y78513D01*
X182804Y78550D01*
X182731Y78586D01*
X182672Y78623D01*
X182614Y78652D01*
X182578Y78681D01*
X182541Y78703D01*
X182527Y78710D01*
X182519Y78717D01*
X182424Y78798D01*
X182344Y78885D01*
X182272Y78980D01*
X182206Y79075D01*
X182155Y79177D01*
X182111Y79271D01*
X182075Y79366D01*
X182045Y79461D01*
X182024Y79548D01*
X182009Y79629D01*
X181994Y79702D01*
X181987Y79767D01*
Y79818D01*
X181980Y79855D01*
Y79891D01*
X181987Y80000D01*
X182002Y80110D01*
X182024Y80212D01*
X182053Y80307D01*
X182133Y80474D01*
X182220Y80627D01*
X182264Y80686D01*
X182308Y80744D01*
X182352Y80795D01*
X182388Y80831D01*
X182417Y80861D01*
X182439Y80882D01*
X182454Y80897D01*
X182461Y80904D01*
X182352D01*
X182257D01*
X182162Y80897D01*
X182082D01*
X182009D01*
X181943Y80890D01*
X181885D01*
X181834Y80882D01*
X181761Y80875D01*
X181703Y80868D01*
X181674Y80861D01*
X181666D01*
X181557Y80824D01*
X181462Y80773D01*
X181382Y80722D01*
X181309Y80671D01*
X181258Y80620D01*
X181214Y80576D01*
X181193Y80547D01*
X181185Y80540D01*
X181127Y80445D01*
X181083Y80336D01*
X181054Y80226D01*
X181032Y80124D01*
X181018Y80022D01*
X181010Y79949D01*
Y79876D01*
X181018Y79738D01*
X181040Y79607D01*
X181069Y79497D01*
X181105Y79410D01*
X181134Y79337D01*
X181163Y79286D01*
X181185Y79257D01*
X181193Y79242D01*
X181244Y79184D01*
X181309Y79140D01*
X181375Y79104D01*
X181440Y79075D01*
X181506Y79060D01*
X181557Y79045D01*
X181586Y79038D01*
X181601D01*
X181681Y78433D01*
X181572D01*
X181477Y78448D01*
X181382Y78462D01*
X181295Y78484D01*
X181141Y78550D01*
X181018Y78623D01*
X180923Y78695D01*
X180857Y78754D01*
X180814Y78805D01*
X180806Y78812D01*
X180799Y78819D01*
X180697Y78980D01*
X180624Y79155D01*
X180573Y79330D01*
X180536Y79497D01*
X180522Y79577D01*
X180515Y79650D01*
X180507Y79709D01*
Y79767D01*
X180500Y79811D01*
Y79876D01*
X180507Y80073D01*
X180536Y80256D01*
X180566Y80416D01*
X180609Y80547D01*
X180646Y80656D01*
X180660Y80700D01*
X180682Y80737D01*
X180690Y80766D01*
X180704Y80788D01*
X180711Y80795D01*
Y80802D01*
X180792Y80933D01*
X180886Y81050D01*
X180981Y81145D01*
X181069Y81225D01*
X181149Y81283D01*
X181214Y81320D01*
X181258Y81349D01*
X181265Y81356D01*
X181273D01*
X181346Y81385D01*
X181426Y81415D01*
X181513Y81437D01*
X181608Y81458D01*
X181812Y81488D01*
X182009Y81509D01*
X182104Y81517D01*
X182191Y81524D01*
X182272D01*
X182337Y81531D01*
X182395D01*
X182439D01*
X182468D01*
X182476D01*
X185639D01*
Y80963D01*
D02*
G37*
G36*
X185581Y78054D02*
X185632Y77937D01*
X185669Y77835D01*
X185698Y77741D01*
X185712Y77660D01*
X185720Y77595D01*
Y77544D01*
X185712Y77463D01*
X185698Y77390D01*
X185676Y77318D01*
X185654Y77259D01*
X185632Y77216D01*
X185610Y77172D01*
X185596Y77150D01*
X185588Y77143D01*
X185530Y77077D01*
X185457Y77012D01*
X185370Y76946D01*
X185290Y76888D01*
X185209Y76829D01*
X185144Y76793D01*
X185093Y76764D01*
X185085Y76756D01*
X185639D01*
Y76195D01*
X181980D01*
Y76815D01*
X183890D01*
X184036Y76822D01*
X184167Y76829D01*
X184291Y76844D01*
X184400Y76866D01*
X184488Y76888D01*
X184553Y76902D01*
X184597Y76909D01*
X184612Y76917D01*
X184692Y76946D01*
X184757Y76982D01*
X184816Y77019D01*
X184867Y77055D01*
X184903Y77092D01*
X184932Y77113D01*
X184947Y77135D01*
X184954Y77143D01*
X184998Y77201D01*
X185027Y77267D01*
X185049Y77332D01*
X185064Y77383D01*
X185071Y77434D01*
X185078Y77471D01*
Y77507D01*
X185071Y77587D01*
X185056Y77668D01*
X185034Y77748D01*
X185012Y77813D01*
X184991Y77872D01*
X184969Y77915D01*
X184954Y77945D01*
X184947Y77952D01*
X185515Y78178D01*
X185581Y78054D01*
D02*
G37*
G36*
X184021Y75466D02*
X184167Y75451D01*
X184305Y75429D01*
X184437Y75400D01*
X184561Y75364D01*
X184670Y75320D01*
X184779Y75276D01*
X184867Y75233D01*
X184947Y75189D01*
X185020Y75145D01*
X185085Y75102D01*
X185136Y75065D01*
X185173Y75036D01*
X185202Y75014D01*
X185217Y74999D01*
X185224Y74992D01*
X185311Y74897D01*
X185384Y74803D01*
X185457Y74700D01*
X185508Y74598D01*
X185559Y74496D01*
X185596Y74394D01*
X185661Y74198D01*
X185676Y74103D01*
X185690Y74023D01*
X185705Y73950D01*
X185712Y73884D01*
X185720Y73833D01*
Y73760D01*
X185712Y73636D01*
X185705Y73520D01*
X185654Y73294D01*
X185588Y73097D01*
X185552Y73009D01*
X185515Y72929D01*
X185479Y72856D01*
X185443Y72798D01*
X185406Y72739D01*
X185377Y72696D01*
X185348Y72659D01*
X185326Y72630D01*
X185319Y72616D01*
X185311Y72608D01*
X185217Y72506D01*
X185107Y72426D01*
X184991Y72346D01*
X184874Y72287D01*
X184750Y72229D01*
X184619Y72185D01*
X184495Y72149D01*
X184378Y72120D01*
X184262Y72091D01*
X184160Y72076D01*
X184057Y72062D01*
X183977Y72054D01*
X183904D01*
X183853Y72047D01*
X183824D01*
X183810D01*
X183642Y72054D01*
X183482Y72069D01*
X183336Y72091D01*
X183197Y72120D01*
X183073Y72156D01*
X182957Y72193D01*
X182847Y72237D01*
X182753Y72280D01*
X182665Y72324D01*
X182592Y72368D01*
X182534Y72404D01*
X182483Y72441D01*
X182439Y72470D01*
X182410Y72492D01*
X182395Y72506D01*
X182388Y72514D01*
X182301Y72608D01*
X182228Y72703D01*
X182162Y72805D01*
X182104Y72907D01*
X182060Y73009D01*
X182016Y73119D01*
X181958Y73315D01*
X181943Y73403D01*
X181929Y73490D01*
X181914Y73563D01*
X181907Y73629D01*
X181900Y73687D01*
Y73760D01*
X181907Y73935D01*
X181936Y74095D01*
X181973Y74249D01*
X182009Y74373D01*
X182053Y74482D01*
X182067Y74526D01*
X182082Y74562D01*
X182097Y74598D01*
X182111Y74620D01*
X182118Y74628D01*
Y74635D01*
X182213Y74781D01*
X182315Y74905D01*
X182417Y75014D01*
X182519Y75102D01*
X182607Y75167D01*
X182680Y75218D01*
X182709Y75233D01*
X182731Y75247D01*
X182738Y75255D01*
X182745D01*
X182913Y75327D01*
X183095Y75379D01*
X183277Y75422D01*
X183460Y75444D01*
X183540Y75459D01*
X183613D01*
X183686Y75466D01*
X183744Y75473D01*
X183795D01*
X183832D01*
X183853D01*
X183861D01*
X184021Y75466D01*
D02*
G37*
G36*
X182687Y70494D02*
X181980D01*
Y71201D01*
X182687D01*
Y70494D01*
D02*
G37*
G36*
X184007Y69547D02*
X184145Y69539D01*
X184269Y69517D01*
X184378Y69495D01*
X184473Y69474D01*
X184546Y69459D01*
X184568Y69452D01*
X184590Y69444D01*
X184597Y69437D01*
X184604D01*
X184728Y69393D01*
X184845Y69342D01*
X184947Y69291D01*
X185034Y69240D01*
X185100Y69197D01*
X185151Y69160D01*
X185187Y69138D01*
X185195Y69131D01*
X185282Y69058D01*
X185362Y68971D01*
X185428Y68890D01*
X185479Y68810D01*
X185523Y68745D01*
X185559Y68686D01*
X185574Y68650D01*
X185581Y68635D01*
X185625Y68526D01*
X185661Y68409D01*
X185683Y68300D01*
X185705Y68205D01*
X185712Y68125D01*
X185720Y68059D01*
Y68001D01*
X185712Y67892D01*
X185698Y67782D01*
X185676Y67680D01*
X185639Y67585D01*
X185566Y67418D01*
X185472Y67272D01*
X185428Y67214D01*
X185384Y67155D01*
X185341Y67112D01*
X185304Y67075D01*
X185268Y67039D01*
X185246Y67017D01*
X185231Y67010D01*
X185224Y67002D01*
X187024D01*
Y66383D01*
X181980D01*
Y66959D01*
X182439D01*
X182344Y67031D01*
X182264Y67104D01*
X182191Y67185D01*
X182126Y67272D01*
X182075Y67352D01*
X182031Y67440D01*
X181994Y67520D01*
X181965Y67600D01*
X181929Y67746D01*
X181914Y67812D01*
X181907Y67862D01*
Y67906D01*
X181900Y67943D01*
Y67972D01*
X181907Y68089D01*
X181922Y68205D01*
X181943Y68314D01*
X181980Y68417D01*
X182060Y68613D01*
X182111Y68694D01*
X182155Y68774D01*
X182206Y68847D01*
X182250Y68905D01*
X182293Y68956D01*
X182330Y69007D01*
X182366Y69043D01*
X182388Y69065D01*
X182403Y69080D01*
X182410Y69087D01*
X182512Y69167D01*
X182621Y69240D01*
X182731Y69306D01*
X182855Y69357D01*
X182971Y69401D01*
X183095Y69437D01*
X183328Y69495D01*
X183438Y69517D01*
X183540Y69532D01*
X183627Y69539D01*
X183708Y69547D01*
X183773Y69554D01*
X183817D01*
X183853D01*
X183861D01*
X184007Y69547D01*
D02*
G37*
G36*
X182060Y65595D02*
X182140Y65559D01*
X182213Y65530D01*
X182279Y65515D01*
X182337Y65493D01*
X182381Y65486D01*
X182410Y65479D01*
X182417D01*
X182468Y65471D01*
X182534Y65464D01*
X182607D01*
X182687Y65457D01*
X182869Y65450D01*
X183052D01*
X183226Y65442D01*
X183307D01*
X183372D01*
X183431D01*
X183474D01*
X183503D01*
X183511D01*
X184342D01*
X184480D01*
X184604Y65435D01*
X184699Y65428D01*
X184779D01*
X184837Y65420D01*
X184881Y65413D01*
X184903Y65406D01*
X184910D01*
X185005Y65384D01*
X185085Y65355D01*
X185151Y65326D01*
X185217Y65289D01*
X185260Y65260D01*
X185297Y65238D01*
X185319Y65223D01*
X185326Y65216D01*
X185384Y65158D01*
X185443Y65092D01*
X185486Y65019D01*
X185530Y64947D01*
X185559Y64881D01*
X185581Y64830D01*
X185596Y64793D01*
X185603Y64779D01*
X185639Y64662D01*
X185669Y64538D01*
X185690Y64414D01*
X185705Y64290D01*
X185712Y64181D01*
X185720Y64101D01*
Y64021D01*
X185712Y63846D01*
X185698Y63693D01*
X185676Y63547D01*
X185654Y63430D01*
X185632Y63328D01*
X185610Y63255D01*
X185603Y63226D01*
X185596Y63204D01*
X185588Y63197D01*
Y63190D01*
X185537Y63066D01*
X185472Y62956D01*
X185413Y62862D01*
X185355Y62781D01*
X185297Y62723D01*
X185253Y62679D01*
X185224Y62650D01*
X185217Y62643D01*
X185122Y62577D01*
X185020Y62519D01*
X184918Y62475D01*
X184823Y62439D01*
X184728Y62410D01*
X184663Y62388D01*
X184633Y62380D01*
X184612D01*
X184604Y62373D01*
X184597D01*
X184517Y62978D01*
X184648Y63022D01*
X184765Y63066D01*
X184859Y63117D01*
X184932Y63161D01*
X184991Y63204D01*
X185027Y63241D01*
X185049Y63270D01*
X185056Y63277D01*
X185107Y63365D01*
X185144Y63467D01*
X185173Y63576D01*
X185187Y63678D01*
X185202Y63780D01*
X185209Y63853D01*
Y63926D01*
X185202Y64094D01*
X185180Y64239D01*
X185144Y64356D01*
X185107Y64458D01*
X185064Y64531D01*
X185034Y64589D01*
X185005Y64626D01*
X184998Y64633D01*
X184932Y64691D01*
X184852Y64735D01*
X184765Y64772D01*
X184677Y64793D01*
X184597Y64808D01*
X184524Y64815D01*
X184480D01*
X184473D01*
X184466D01*
X184451D01*
X184422D01*
X184371D01*
X184327Y64808D01*
X184313D01*
X184305D01*
X184283Y64735D01*
X184262Y64655D01*
X184218Y64487D01*
X184181Y64298D01*
X184145Y64123D01*
X184130Y64035D01*
X184123Y63955D01*
X184108Y63882D01*
X184101Y63824D01*
X184094Y63773D01*
Y63736D01*
X184087Y63707D01*
Y63700D01*
X184072Y63569D01*
X184050Y63459D01*
X184036Y63365D01*
X184021Y63292D01*
X184014Y63233D01*
X183999Y63190D01*
X183992Y63161D01*
Y63153D01*
X183963Y63058D01*
X183934Y62978D01*
X183897Y62898D01*
X183868Y62832D01*
X183839Y62774D01*
X183810Y62738D01*
X183795Y62708D01*
X183788Y62701D01*
X183737Y62628D01*
X183678Y62570D01*
X183620Y62512D01*
X183562Y62468D01*
X183511Y62432D01*
X183467Y62402D01*
X183438Y62388D01*
X183431Y62380D01*
X183350Y62344D01*
X183263Y62315D01*
X183183Y62293D01*
X183103Y62278D01*
X183037Y62271D01*
X182986Y62264D01*
X182957D01*
X182942D01*
X182855Y62271D01*
X182782Y62278D01*
X182629Y62315D01*
X182505Y62366D01*
X182395Y62424D01*
X182308Y62483D01*
X182242Y62533D01*
X182206Y62570D01*
X182191Y62585D01*
X182097Y62716D01*
X182024Y62862D01*
X181973Y63022D01*
X181936Y63168D01*
X181914Y63299D01*
X181907Y63357D01*
Y63408D01*
X181900Y63452D01*
Y63510D01*
X181907Y63642D01*
X181922Y63773D01*
X181936Y63889D01*
X181958Y63991D01*
X181980Y64072D01*
X182002Y64137D01*
X182009Y64181D01*
X182016Y64196D01*
X182067Y64320D01*
X182133Y64436D01*
X182206Y64546D01*
X182272Y64655D01*
X182337Y64742D01*
X182388Y64808D01*
X182424Y64852D01*
X182439Y64859D01*
Y64866D01*
X182344Y64881D01*
X182257Y64895D01*
X182177Y64910D01*
X182111Y64932D01*
X182053Y64954D01*
X182016Y64968D01*
X181987Y64976D01*
X181980Y64983D01*
Y65632D01*
X182060Y65595D01*
D02*
G37*
G36*
X187024Y60893D02*
X181980D01*
Y61513D01*
X187024D01*
Y60893D01*
D02*
G37*
G36*
X184116Y58313D02*
X183496D01*
Y60230D01*
X184116D01*
Y58313D01*
D02*
G37*
G36*
X187024Y56957D02*
X185217D01*
X185297Y56891D01*
X185362Y56818D01*
X185428Y56753D01*
X185479Y56680D01*
X185515Y56621D01*
X185552Y56578D01*
X185566Y56548D01*
X185574Y56534D01*
X185625Y56439D01*
X185661Y56337D01*
X185683Y56235D01*
X185705Y56140D01*
X185712Y56060D01*
X185720Y56002D01*
Y55943D01*
X185712Y55783D01*
X185683Y55630D01*
X185647Y55491D01*
X185603Y55375D01*
X185552Y55273D01*
X185515Y55200D01*
X185501Y55171D01*
X185486Y55149D01*
X185479Y55142D01*
Y55134D01*
X185384Y55003D01*
X185268Y54894D01*
X185158Y54799D01*
X185049Y54726D01*
X184947Y54668D01*
X184867Y54624D01*
X184837Y54609D01*
X184816Y54595D01*
X184801Y54587D01*
X184794D01*
X184626Y54529D01*
X184451Y54485D01*
X184283Y54449D01*
X184130Y54427D01*
X183999Y54413D01*
X183941D01*
X183897Y54405D01*
X183853D01*
X183824D01*
X183810D01*
X183802D01*
X183598Y54413D01*
X183409Y54434D01*
X183241Y54471D01*
X183095Y54507D01*
X183030Y54522D01*
X182979Y54536D01*
X182928Y54558D01*
X182884Y54573D01*
X182855Y54587D01*
X182833Y54595D01*
X182818Y54602D01*
X182811D01*
X182658Y54682D01*
X182527Y54777D01*
X182410Y54872D01*
X182315Y54966D01*
X182242Y55047D01*
X182184Y55112D01*
X182155Y55156D01*
X182140Y55163D01*
Y55171D01*
X182060Y55309D01*
X182002Y55448D01*
X181958Y55586D01*
X181929Y55710D01*
X181914Y55812D01*
X181907Y55900D01*
X181900Y55929D01*
Y55972D01*
X181907Y56097D01*
X181922Y56213D01*
X181951Y56322D01*
X181987Y56417D01*
X182024Y56512D01*
X182067Y56599D01*
X182118Y56672D01*
X182169Y56738D01*
X182220Y56804D01*
X182272Y56855D01*
X182315Y56898D01*
X182352Y56935D01*
X182388Y56964D01*
X182417Y56986D01*
X182432Y56993D01*
X182439Y57000D01*
X181980D01*
Y57576D01*
X187024D01*
Y56957D01*
D02*
G37*
G36*
Y53071D02*
X186317D01*
Y53691D01*
X187024D01*
Y53071D01*
D02*
G37*
G36*
X185639D02*
X181980D01*
Y53691D01*
X185639D01*
Y53071D01*
D02*
G37*
G36*
X182060Y52269D02*
X182140Y52233D01*
X182213Y52204D01*
X182279Y52189D01*
X182337Y52167D01*
X182381Y52160D01*
X182410Y52153D01*
X182417D01*
X182468Y52145D01*
X182534Y52138D01*
X182607D01*
X182687Y52131D01*
X182869Y52123D01*
X183052D01*
X183226Y52116D01*
X183307D01*
X183372D01*
X183431D01*
X183474D01*
X183503D01*
X183511D01*
X184342D01*
X184480D01*
X184604Y52109D01*
X184699Y52101D01*
X184779D01*
X184837Y52094D01*
X184881Y52087D01*
X184903Y52080D01*
X184910D01*
X185005Y52058D01*
X185085Y52029D01*
X185151Y51999D01*
X185217Y51963D01*
X185260Y51934D01*
X185297Y51912D01*
X185319Y51897D01*
X185326Y51890D01*
X185384Y51832D01*
X185443Y51766D01*
X185486Y51693D01*
X185530Y51620D01*
X185559Y51555D01*
X185581Y51504D01*
X185596Y51467D01*
X185603Y51453D01*
X185639Y51336D01*
X185669Y51212D01*
X185690Y51088D01*
X185705Y50964D01*
X185712Y50855D01*
X185720Y50775D01*
Y50695D01*
X185712Y50520D01*
X185698Y50366D01*
X185676Y50221D01*
X185654Y50104D01*
X185632Y50002D01*
X185610Y49929D01*
X185603Y49900D01*
X185596Y49878D01*
X185588Y49871D01*
Y49863D01*
X185537Y49740D01*
X185472Y49630D01*
X185413Y49535D01*
X185355Y49455D01*
X185297Y49397D01*
X185253Y49353D01*
X185224Y49324D01*
X185217Y49317D01*
X185122Y49251D01*
X185020Y49193D01*
X184918Y49149D01*
X184823Y49113D01*
X184728Y49084D01*
X184663Y49062D01*
X184633Y49054D01*
X184612D01*
X184604Y49047D01*
X184597D01*
X184517Y49652D01*
X184648Y49696D01*
X184765Y49740D01*
X184859Y49791D01*
X184932Y49834D01*
X184991Y49878D01*
X185027Y49915D01*
X185049Y49944D01*
X185056Y49951D01*
X185107Y50038D01*
X185144Y50141D01*
X185173Y50250D01*
X185187Y50352D01*
X185202Y50454D01*
X185209Y50527D01*
Y50600D01*
X185202Y50767D01*
X185180Y50913D01*
X185144Y51030D01*
X185107Y51132D01*
X185064Y51205D01*
X185034Y51263D01*
X185005Y51300D01*
X184998Y51307D01*
X184932Y51365D01*
X184852Y51409D01*
X184765Y51445D01*
X184677Y51467D01*
X184597Y51482D01*
X184524Y51489D01*
X184480D01*
X184473D01*
X184466D01*
X184451D01*
X184422D01*
X184371D01*
X184327Y51482D01*
X184313D01*
X184305D01*
X184283Y51409D01*
X184262Y51329D01*
X184218Y51161D01*
X184181Y50972D01*
X184145Y50797D01*
X184130Y50709D01*
X184123Y50629D01*
X184108Y50556D01*
X184101Y50498D01*
X184094Y50447D01*
Y50410D01*
X184087Y50381D01*
Y50374D01*
X184072Y50243D01*
X184050Y50133D01*
X184036Y50038D01*
X184021Y49966D01*
X184014Y49907D01*
X183999Y49863D01*
X183992Y49834D01*
Y49827D01*
X183963Y49732D01*
X183934Y49652D01*
X183897Y49572D01*
X183868Y49506D01*
X183839Y49448D01*
X183810Y49411D01*
X183795Y49382D01*
X183788Y49375D01*
X183737Y49302D01*
X183678Y49244D01*
X183620Y49185D01*
X183562Y49142D01*
X183511Y49105D01*
X183467Y49076D01*
X183438Y49062D01*
X183431Y49054D01*
X183350Y49018D01*
X183263Y48989D01*
X183183Y48967D01*
X183103Y48952D01*
X183037Y48945D01*
X182986Y48938D01*
X182957D01*
X182942D01*
X182855Y48945D01*
X182782Y48952D01*
X182629Y48989D01*
X182505Y49040D01*
X182395Y49098D01*
X182308Y49156D01*
X182242Y49207D01*
X182206Y49244D01*
X182191Y49258D01*
X182097Y49390D01*
X182024Y49535D01*
X181973Y49696D01*
X181936Y49842D01*
X181914Y49973D01*
X181907Y50031D01*
Y50082D01*
X181900Y50126D01*
Y50184D01*
X181907Y50315D01*
X181922Y50447D01*
X181936Y50563D01*
X181958Y50665D01*
X181980Y50746D01*
X182002Y50811D01*
X182009Y50855D01*
X182016Y50870D01*
X182067Y50994D01*
X182133Y51110D01*
X182206Y51219D01*
X182272Y51329D01*
X182337Y51416D01*
X182388Y51482D01*
X182424Y51526D01*
X182439Y51533D01*
Y51540D01*
X182344Y51555D01*
X182257Y51569D01*
X182177Y51584D01*
X182111Y51606D01*
X182053Y51628D01*
X182016Y51642D01*
X181987Y51649D01*
X181980Y51657D01*
Y52306D01*
X182060Y52269D01*
D02*
G37*
G36*
X187112Y48187D02*
X181892Y46722D01*
Y47217D01*
X187112Y48682D01*
Y48187D01*
D02*
G37*
G36*
Y46226D02*
X181892Y44761D01*
Y45256D01*
X187112Y46722D01*
Y46226D01*
D02*
G37*
G36*
X185639Y43434D02*
X184932D01*
Y44141D01*
X185639D01*
Y43434D01*
D02*
G37*
G36*
X182687D02*
X181980D01*
Y44141D01*
X182687D01*
Y43434D01*
D02*
G37*
G36*
X184021Y42508D02*
X184203Y42486D01*
X184364Y42457D01*
X184510Y42420D01*
X184626Y42384D01*
X184677Y42369D01*
X184721Y42355D01*
X184750Y42340D01*
X184772Y42333D01*
X184786Y42326D01*
X184794D01*
X184947Y42253D01*
X185085Y42165D01*
X185202Y42078D01*
X185297Y41990D01*
X185370Y41910D01*
X185428Y41844D01*
X185457Y41801D01*
X185472Y41794D01*
Y41786D01*
X185552Y41648D01*
X185618Y41509D01*
X185661Y41371D01*
X185690Y41239D01*
X185705Y41130D01*
X185712Y41079D01*
X185720Y41043D01*
Y40962D01*
X185712Y40831D01*
X185698Y40715D01*
X185676Y40613D01*
X185647Y40525D01*
X185618Y40452D01*
X185596Y40394D01*
X185581Y40365D01*
X185574Y40350D01*
X185515Y40263D01*
X185450Y40175D01*
X185384Y40102D01*
X185311Y40037D01*
X185253Y39978D01*
X185202Y39942D01*
X185173Y39913D01*
X185158Y39905D01*
X185639D01*
Y39344D01*
X180580D01*
Y39964D01*
X182359D01*
X182286Y40022D01*
X182220Y40088D01*
X182162Y40161D01*
X182118Y40219D01*
X182075Y40277D01*
X182045Y40321D01*
X182031Y40357D01*
X182024Y40365D01*
X181980Y40459D01*
X181951Y40554D01*
X181929Y40649D01*
X181914Y40736D01*
X181907Y40809D01*
X181900Y40868D01*
Y40919D01*
X181907Y41072D01*
X181936Y41225D01*
X181973Y41356D01*
X182016Y41480D01*
X182060Y41582D01*
X182097Y41655D01*
X182111Y41684D01*
X182126Y41706D01*
X182133Y41713D01*
Y41721D01*
X182235Y41859D01*
X182344Y41976D01*
X182454Y42078D01*
X182563Y42158D01*
X182665Y42224D01*
X182745Y42275D01*
X182774Y42289D01*
X182796Y42304D01*
X182811Y42311D01*
X182818D01*
X182993Y42377D01*
X183168Y42428D01*
X183336Y42464D01*
X183496Y42493D01*
X183627Y42508D01*
X183686D01*
X183737Y42515D01*
X183781D01*
X183810D01*
X183824D01*
X183832D01*
X184021Y42508D01*
D02*
G37*
G36*
X182527Y38732D02*
X182519Y38673D01*
X182512Y38615D01*
Y38564D01*
X182505Y38528D01*
Y38455D01*
X182512Y38360D01*
X182527Y38294D01*
X182541Y38258D01*
X182548Y38243D01*
X182585Y38192D01*
X182621Y38163D01*
X182650Y38141D01*
X182665Y38134D01*
X182702Y38127D01*
X182753Y38119D01*
X182869Y38112D01*
X182920Y38105D01*
X182964D01*
X182993D01*
X183008D01*
X185158D01*
Y38732D01*
X185639D01*
Y38105D01*
X186915D01*
X186543Y37485D01*
X185639D01*
Y37026D01*
X185158D01*
Y37485D01*
X183044D01*
X182942D01*
X182855D01*
X182774Y37492D01*
X182694Y37500D01*
X182629D01*
X182570Y37507D01*
X182476Y37521D01*
X182403Y37536D01*
X182352Y37543D01*
X182323Y37558D01*
X182315D01*
X182250Y37587D01*
X182199Y37631D01*
X182148Y37675D01*
X182111Y37711D01*
X182075Y37755D01*
X182053Y37784D01*
X182038Y37806D01*
X182031Y37813D01*
X181994Y37893D01*
X181973Y37973D01*
X181951Y38061D01*
X181943Y38148D01*
X181936Y38221D01*
X181929Y38280D01*
Y38338D01*
X181936Y38498D01*
X181943Y38579D01*
X181958Y38651D01*
X181965Y38717D01*
X181973Y38768D01*
X181980Y38797D01*
Y38812D01*
X182527Y38732D01*
D02*
G37*
G36*
Y36771D02*
X182519Y36712D01*
X182512Y36654D01*
Y36603D01*
X182505Y36566D01*
Y36494D01*
X182512Y36399D01*
X182527Y36333D01*
X182541Y36297D01*
X182548Y36282D01*
X182585Y36231D01*
X182621Y36202D01*
X182650Y36180D01*
X182665Y36173D01*
X182702Y36166D01*
X182753Y36158D01*
X182869Y36151D01*
X182920Y36144D01*
X182964D01*
X182993D01*
X183008D01*
X185158D01*
Y36771D01*
X185639D01*
Y36144D01*
X186915D01*
X186543Y35524D01*
X185639D01*
Y35065D01*
X185158D01*
Y35524D01*
X183044D01*
X182942D01*
X182855D01*
X182774Y35531D01*
X182694Y35539D01*
X182629D01*
X182570Y35546D01*
X182476Y35561D01*
X182403Y35575D01*
X182352Y35582D01*
X182323Y35597D01*
X182315D01*
X182250Y35626D01*
X182199Y35670D01*
X182148Y35714D01*
X182111Y35750D01*
X182075Y35794D01*
X182053Y35823D01*
X182038Y35845D01*
X182031Y35852D01*
X181994Y35932D01*
X181973Y36013D01*
X181951Y36100D01*
X181943Y36187D01*
X181936Y36260D01*
X181929Y36319D01*
Y36377D01*
X181936Y36537D01*
X181943Y36618D01*
X181958Y36691D01*
X181965Y36756D01*
X181973Y36807D01*
X181980Y36836D01*
Y36851D01*
X182527Y36771D01*
D02*
G37*
G36*
X184480Y34460D02*
X184648Y34445D01*
X184786Y34423D01*
X184903Y34401D01*
X184998Y34380D01*
X185064Y34358D01*
X185100Y34343D01*
X185115Y34336D01*
X185217Y34277D01*
X185304Y34212D01*
X185377Y34139D01*
X185443Y34073D01*
X185494Y34008D01*
X185530Y33957D01*
X185552Y33920D01*
X185559Y33906D01*
X185610Y33789D01*
X185654Y33672D01*
X185683Y33556D01*
X185698Y33446D01*
X185712Y33352D01*
X185720Y33272D01*
Y33206D01*
X185712Y33089D01*
X185698Y32973D01*
X185676Y32863D01*
X185639Y32761D01*
X185559Y32572D01*
X185515Y32491D01*
X185472Y32419D01*
X185421Y32353D01*
X185377Y32287D01*
X185333Y32236D01*
X185297Y32200D01*
X185260Y32163D01*
X185239Y32142D01*
X185224Y32127D01*
X185217Y32120D01*
X187024D01*
Y31500D01*
X181980D01*
Y32120D01*
X183977D01*
X184130Y32127D01*
X184262Y32134D01*
X184378Y32149D01*
X184473Y32171D01*
X184546Y32193D01*
X184604Y32207D01*
X184633Y32214D01*
X184648Y32222D01*
X184736Y32265D01*
X184816Y32316D01*
X184881Y32375D01*
X184940Y32433D01*
X184983Y32484D01*
X185012Y32528D01*
X185034Y32557D01*
X185042Y32564D01*
X185093Y32659D01*
X185129Y32747D01*
X185151Y32834D01*
X185173Y32907D01*
X185180Y32980D01*
X185187Y33031D01*
Y33075D01*
X185180Y33206D01*
X185151Y33323D01*
X185122Y33417D01*
X185078Y33497D01*
X185042Y33563D01*
X185005Y33607D01*
X184976Y33636D01*
X184969Y33643D01*
X184881Y33709D01*
X184772Y33760D01*
X184663Y33796D01*
X184553Y33825D01*
X184451Y33840D01*
X184371Y33847D01*
X184342D01*
X184320D01*
X184305D01*
X184298D01*
X181980D01*
Y34467D01*
X184291D01*
X184480Y34460D01*
D02*
G37*
%LPC*%
G36*
X126122Y91715D02*
X126009Y91709D01*
X120329Y91712D01*
X120309Y91703D01*
X120288Y91682D01*
X120282Y91640D01*
X120288Y91623D01*
X120285Y85878D01*
X120291Y85854D01*
X120315Y85830D01*
X120356Y85824D01*
X120418Y85827D01*
X120902Y85824D01*
X120908D01*
X126077Y85827D01*
X126139Y85824D01*
X126178Y85851D01*
X126184Y85875D01*
X126178Y91688D01*
X126163Y91703D01*
X126122Y91715D01*
D02*
G37*
G36*
X118268Y89757D02*
X116744D01*
X114395Y89751D01*
X114380Y89719D01*
X114383Y87782D01*
X118292Y87788D01*
X118301Y87797D01*
X118313Y87838D01*
X118307Y89730D01*
X118292Y89751D01*
X118268Y89757D01*
D02*
G37*
G36*
X122195Y81880D02*
X121827D01*
X120315Y81874D01*
X120300Y81859D01*
X120288Y81829D01*
X120291Y79916D01*
X122204Y79913D01*
X122228Y79919D01*
X122245Y79937D01*
X122251Y79961D01*
X122245Y80038D01*
X122239Y81853D01*
X122219Y81874D01*
X122195Y81880D01*
D02*
G37*
G36*
X126181Y79916D02*
X124241Y79910D01*
X124227Y79896D01*
X124221Y79872D01*
X124224Y79804D01*
X124221Y78003D01*
X124227Y77986D01*
X124232Y77974D01*
X124247Y77953D01*
X124271Y77947D01*
X124401Y77953D01*
X126077Y77950D01*
X126134Y77953D01*
X126151Y77947D01*
X126181Y77941D01*
X126187Y70111D01*
X126199Y70087D01*
X126228Y70076D01*
X126306Y70070D01*
X126323Y70076D01*
X128124Y70073D01*
X128145Y70087D01*
X128153Y70114D01*
X128159Y70156D01*
X128165Y72030D01*
X128180Y72045D01*
X128222Y72051D01*
X128245Y72045D01*
X132071Y72051D01*
X132080Y72060D01*
X132092Y72089D01*
X132089Y72170D01*
X132092Y73994D01*
X132083Y74002D01*
X131069D01*
X128195Y74000D01*
X128174Y74008D01*
X128165Y74017D01*
X128159Y74041D01*
X128156Y77828D01*
X128159Y77891D01*
X128153Y77908D01*
X128147Y77932D01*
X128138Y77941D01*
X128109Y77953D01*
X128014Y77947D01*
X126187Y77953D01*
X126181Y79916D01*
D02*
G37*
G36*
X128109Y68100D02*
X128026Y68094D01*
X128020Y68100D01*
X128002Y68094D01*
X126255Y68097D01*
X126220Y68091D01*
X126190Y68068D01*
X126184Y68044D01*
Y66727D01*
Y66721D01*
X126181Y66167D01*
X126196Y66146D01*
X126223Y66137D01*
X126282Y66131D01*
X128070Y66134D01*
X128121Y66131D01*
X128150Y66149D01*
X128159Y66176D01*
X128156Y66256D01*
X128159Y67955D01*
X128153Y67973D01*
X128159Y67991D01*
X128153Y68068D01*
X128133Y68094D01*
X128109Y68100D01*
D02*
G37*
G36*
X143973Y66134D02*
X143926Y66128D01*
X143896Y66110D01*
X143890Y66069D01*
X143896Y66051D01*
X143902Y64206D01*
X143923Y64179D01*
X143970Y64168D01*
X145862Y64174D01*
X145865Y66128D01*
X145862Y66131D01*
X143973Y66134D01*
D02*
G37*
G36*
X140020Y60223D02*
X140002Y60217D01*
X139978Y60211D01*
X139963Y60196D01*
X139957Y60173D01*
X139963Y56293D01*
X141924Y56290D01*
X141933Y56299D01*
Y58553D01*
Y58559D01*
X141927Y60220D01*
X140020Y60223D01*
D02*
G37*
G36*
X130120Y58266D02*
X128174Y58260D01*
X128165Y58251D01*
X128159Y58209D01*
Y57379D01*
Y57373D01*
X128165Y56311D01*
X128186Y56290D01*
X130090Y56296D01*
X130117Y56323D01*
X130123Y56365D01*
X130120Y58266D01*
D02*
G37*
G36*
X137932D02*
X136046Y58260D01*
X136031Y58245D01*
X136025Y58221D01*
X136028Y56290D01*
X138000Y56287D01*
X138003Y54339D01*
X139130D01*
X139916Y54336D01*
X139937Y54345D01*
X139957Y54365D01*
X139963Y54407D01*
X139957Y54425D01*
X139954Y56290D01*
X138000Y56293D01*
X137994Y58239D01*
X137973Y58260D01*
X137932Y58266D01*
D02*
G37*
%LPD*%
G36*
X124200Y89751D02*
X124215Y89736D01*
X124221Y89713D01*
X124215Y87803D01*
X124200Y87788D01*
X124158Y87782D01*
X122272Y87788D01*
X122251Y87809D01*
X122245Y87868D01*
X122251Y89730D01*
X122272Y89751D01*
X122331Y89757D01*
X123132D01*
X124200Y89751D01*
D02*
G37*
%LPC*%
G36*
X196171Y89435D02*
X195183D01*
Y87789D01*
X196171D01*
Y87871D01*
X196253D01*
Y87954D01*
X196335D01*
Y88036D01*
X196418D01*
Y88283D01*
X196500D01*
Y88859D01*
X196418D01*
Y89188D01*
X196335D01*
Y89270D01*
X196253D01*
Y89352D01*
X196171D01*
Y89435D01*
D02*
G37*
G36*
X165455Y99592D02*
X165413Y99586D01*
X155754Y99589D01*
X155733Y99580D01*
X155724Y99571D01*
X155712Y99541D01*
Y98770D01*
Y98764D01*
X155709Y89805D01*
X155715Y89781D01*
X155739Y89757D01*
X155786Y89751D01*
X155804Y89757D01*
X165520Y89763D01*
X165547Y89784D01*
X165553Y89825D01*
X165547Y89885D01*
X165550Y99527D01*
X165544Y99550D01*
X165535Y99559D01*
X165529Y99571D01*
X165497Y99586D01*
X165455Y99592D01*
D02*
G37*
%LPD*%
G36*
X163572Y97614D02*
X163584Y97572D01*
X163577Y97531D01*
X163572Y91747D01*
X163557Y91726D01*
X163533Y91720D01*
X163438Y91726D01*
X160016D01*
X157747Y91724D01*
X157723Y91729D01*
X157699Y91753D01*
X157687Y91795D01*
X157684Y97581D01*
X157693Y97602D01*
X157708Y97617D01*
X157732Y97623D01*
X163542Y97625D01*
X163572Y97614D01*
D02*
G37*
%LPC*%
G36*
X147743Y99592D02*
X147701Y99586D01*
X145901Y99589D01*
X145880Y99574D01*
X145871Y99547D01*
X145865Y99524D01*
X145868Y97623D01*
X147808Y97628D01*
X147835Y97649D01*
X147841Y97673D01*
X147835Y97750D01*
Y97851D01*
Y97857D01*
X147829Y99553D01*
X147814Y99574D01*
X147784Y99586D01*
X147743Y99592D01*
D02*
G37*
G36*
X155650Y83843D02*
X151794Y83837D01*
X151773Y83816D01*
X151779Y81883D01*
X153609Y81880D01*
X153615D01*
X155685Y81886D01*
X155700Y81901D01*
X155712Y81942D01*
X155706Y83822D01*
X155691Y83837D01*
X155650Y83843D01*
D02*
G37*
G36*
X163586Y81880D02*
X163577Y81871D01*
Y81574D01*
Y81568D01*
X163581Y77953D01*
X163658Y77947D01*
X163681Y77953D01*
X165488Y77950D01*
X165547Y77956D01*
X165541Y81877D01*
X163586Y81880D01*
D02*
G37*
G36*
X155632Y79916D02*
X153758Y79910D01*
X153737Y79896D01*
X153731Y79854D01*
X153737Y79795D01*
Y79445D01*
Y79439D01*
X153734Y78012D01*
X153740Y77983D01*
X153755Y77962D01*
X153781Y77953D01*
X153805Y77947D01*
X153829Y77953D01*
X153852Y77947D01*
X153894Y77953D01*
X155576Y77950D01*
X155632Y77953D01*
X155650Y77947D01*
X155709Y77953D01*
X155712Y79890D01*
X155697Y79905D01*
X155674Y79910D01*
X155632Y79916D01*
D02*
G37*
G36*
X151670Y75978D02*
X151610Y75972D01*
X151593Y75978D01*
X151094D01*
X149887Y75975D01*
X149837Y75978D01*
X149804Y75951D01*
X149798Y75874D01*
X149804Y74029D01*
X149819Y74008D01*
X149843Y74002D01*
X151773Y74005D01*
X151768Y75945D01*
X151759Y75960D01*
X151729Y75972D01*
X151670Y75978D01*
D02*
G37*
G36*
X193702Y65570D02*
X191809D01*
Y65487D01*
X191727D01*
Y65405D01*
X191645D01*
Y65158D01*
X191562D01*
Y64418D01*
X191645D01*
Y64171D01*
X191727D01*
Y64006D01*
X191809D01*
Y63924D01*
X191974D01*
Y63842D01*
X192468D01*
Y63924D01*
X192715D01*
Y64006D01*
X192879D01*
Y64088D01*
X192961D01*
Y64171D01*
X193044D01*
Y64253D01*
X193126D01*
Y64418D01*
X193208D01*
Y64582D01*
X193291D01*
Y64829D01*
X193373D01*
Y64994D01*
X193455D01*
Y65158D01*
X193537D01*
Y65323D01*
X193620D01*
Y65487D01*
X193702D01*
Y65570D01*
D02*
G37*
G36*
X196171Y52732D02*
X195183D01*
Y51086D01*
X196171D01*
Y51169D01*
X196253D01*
Y51251D01*
X196335D01*
Y51333D01*
X196418D01*
Y51580D01*
X196500D01*
Y52156D01*
X196418D01*
Y52485D01*
X196335D01*
Y52567D01*
X196253D01*
Y52650D01*
X196171D01*
Y52732D01*
D02*
G37*
G36*
X155760Y56293D02*
X155736Y56287D01*
X155712Y56264D01*
X155706Y56222D01*
X155712Y56204D01*
X155718Y46488D01*
X155739Y46461D01*
X155780Y46456D01*
X155840Y46461D01*
X161137D01*
X165482Y46459D01*
X165505Y46464D01*
X165535Y46482D01*
X165541Y46494D01*
X165547Y46512D01*
X165553Y46536D01*
X165547Y46613D01*
X165550Y56249D01*
X165541Y56270D01*
X165532Y56279D01*
X165502Y56290D01*
X155760Y56293D01*
D02*
G37*
%LPD*%
G36*
X157803Y54321D02*
X163548Y54324D01*
X163566Y54312D01*
X163577Y54271D01*
Y50569D01*
Y50563D01*
X163581Y48461D01*
X163569Y48431D01*
X163527Y48419D01*
X163486Y48425D01*
X157708Y48431D01*
X157687Y48452D01*
X157681Y48481D01*
X157687Y48499D01*
X157693Y54288D01*
X157726Y54321D01*
X157785Y54327D01*
X157803Y54321D01*
D02*
G37*
%LPC*%
G36*
X122171Y56296D02*
X122153Y56290D01*
X112437Y56284D01*
X112411Y56264D01*
X112405Y56222D01*
X112411Y56181D01*
X112408Y46527D01*
X112414Y46497D01*
X112423Y46488D01*
X112428Y46476D01*
X112461Y46461D01*
X112503Y46456D01*
X112544Y46461D01*
X122204Y46459D01*
X122225Y46468D01*
X122233Y46476D01*
X122245Y46506D01*
Y55854D01*
Y55860D01*
X122248Y56243D01*
X122242Y56267D01*
X122219Y56290D01*
X122171Y56296D01*
D02*
G37*
%LPD*%
G36*
X114519Y54321D02*
X120211Y54324D01*
X120235Y54318D01*
X120264Y54288D01*
X120270Y54247D01*
X120273Y48461D01*
X120258Y48440D01*
X120249Y48431D01*
X120226Y48425D01*
X114416Y48422D01*
X114386Y48434D01*
X114374Y48475D01*
X114380Y48517D01*
Y53298D01*
Y53304D01*
X114386Y54300D01*
X114401Y54321D01*
X114424Y54327D01*
X114519Y54321D01*
D02*
G37*
%LPC*%
G36*
X195430Y45326D02*
X195019D01*
Y45243D01*
X194854D01*
Y45161D01*
X194772D01*
Y45079D01*
X194690D01*
Y44914D01*
X194607D01*
Y44503D01*
X194690D01*
Y44338D01*
X194772D01*
Y44256D01*
X194854D01*
Y44174D01*
X195019D01*
Y44091D01*
X195430D01*
Y44174D01*
X195595D01*
Y44256D01*
X195677D01*
Y44338D01*
X195759D01*
Y44503D01*
X195842D01*
Y44914D01*
X195759D01*
Y45079D01*
X195677D01*
Y45161D01*
X195595D01*
Y45243D01*
X195430D01*
Y45326D01*
D02*
G37*
G36*
Y42199D02*
X195019D01*
Y42116D01*
X194854D01*
Y42034D01*
X194772D01*
Y41952D01*
X194690D01*
Y41787D01*
X194607D01*
Y41376D01*
X194690D01*
Y41211D01*
X194772D01*
Y41129D01*
X194854D01*
Y41047D01*
X195019D01*
Y40964D01*
X195430D01*
Y41047D01*
X195595D01*
Y41129D01*
X195677D01*
Y41211D01*
X195759D01*
Y41376D01*
X195842D01*
Y41787D01*
X195759D01*
Y41952D01*
X195677D01*
Y42034D01*
X195595D01*
Y42116D01*
X195430D01*
Y42199D01*
D02*
G37*
G36*
X192139D02*
X191727D01*
Y42116D01*
X191562D01*
Y42034D01*
X191480D01*
Y41952D01*
X191398D01*
Y41787D01*
X191316D01*
Y41376D01*
X191398D01*
Y41211D01*
X191480D01*
Y41129D01*
X191562D01*
Y41047D01*
X191727D01*
Y40964D01*
X192139D01*
Y41047D01*
X192303D01*
Y41129D01*
X192385D01*
Y41211D01*
X192468D01*
Y41376D01*
X192550D01*
Y41787D01*
X192468D01*
Y41952D01*
X192385D01*
Y42034D01*
X192303D01*
Y42116D01*
X192139D01*
Y42199D01*
D02*
G37*
G36*
Y45243D02*
X191727D01*
Y45161D01*
X191562D01*
Y45079D01*
X191480D01*
Y44997D01*
X191398D01*
Y44832D01*
X191316D01*
Y44420D01*
X191398D01*
Y44256D01*
X191480D01*
Y44174D01*
X191562D01*
Y44091D01*
X191727D01*
Y44009D01*
X192139D01*
Y44091D01*
X192303D01*
Y44174D01*
X192385D01*
Y44256D01*
X192468D01*
Y44420D01*
X192550D01*
Y44832D01*
X192468D01*
Y44997D01*
X192385D01*
Y45079D01*
X192303D01*
Y45161D01*
X192139D01*
Y45243D01*
D02*
G37*
G36*
X198557D02*
X198146D01*
Y45161D01*
X197981D01*
Y45079D01*
X197899D01*
Y44997D01*
X197817D01*
Y44832D01*
X197734D01*
Y44420D01*
X197817D01*
Y44256D01*
X197899D01*
Y44174D01*
X197981D01*
Y44091D01*
X198146D01*
Y44009D01*
X198557D01*
Y44091D01*
X198722D01*
Y44174D01*
X198804D01*
Y44256D01*
X198887D01*
Y44420D01*
X198969D01*
Y44832D01*
X198887D01*
Y44997D01*
X198804D01*
Y45079D01*
X198722D01*
Y45161D01*
X198557D01*
Y45243D01*
D02*
G37*
G36*
Y42199D02*
X198146D01*
Y42116D01*
X197981D01*
Y42034D01*
X197899D01*
Y41952D01*
X197817D01*
Y41787D01*
X197734D01*
Y41376D01*
X197817D01*
Y41211D01*
X197899D01*
Y41129D01*
X197981D01*
Y41047D01*
X198146D01*
Y40964D01*
X198557D01*
Y41047D01*
X198722D01*
Y41129D01*
X198804D01*
Y41211D01*
X198887D01*
Y41376D01*
X198969D01*
Y41787D01*
X198887D01*
Y41952D01*
X198804D01*
Y42034D01*
X198722D01*
Y42116D01*
X198557D01*
Y42199D01*
D02*
G37*
G36*
Y39072D02*
X198146D01*
Y38989D01*
X197981D01*
Y38907D01*
X197899D01*
Y38825D01*
X197817D01*
Y38660D01*
X197734D01*
Y38249D01*
X197817D01*
Y38084D01*
X197899D01*
Y38002D01*
X197981D01*
Y37919D01*
X198146D01*
Y37837D01*
X198557D01*
Y37919D01*
X198722D01*
Y38002D01*
X198804D01*
Y38084D01*
X198887D01*
Y38249D01*
X198969D01*
Y38660D01*
X198887D01*
Y38825D01*
X198804D01*
Y38907D01*
X198722D01*
Y38989D01*
X198557D01*
Y39072D01*
D02*
G37*
G36*
X195266D02*
X194854D01*
Y38989D01*
X194690D01*
Y38907D01*
X194607D01*
Y38825D01*
X194525D01*
Y38660D01*
X194443D01*
Y38249D01*
X194525D01*
Y38084D01*
X194607D01*
Y38002D01*
X194690D01*
Y37919D01*
X194854D01*
Y37837D01*
X195266D01*
Y37919D01*
X195430D01*
Y38002D01*
X195512D01*
Y38084D01*
X195595D01*
Y38249D01*
X195677D01*
Y38660D01*
X195595D01*
Y38825D01*
X195512D01*
Y38907D01*
X195430D01*
Y38989D01*
X195266D01*
Y39072D01*
D02*
G37*
G36*
X192139D02*
X191727D01*
Y38989D01*
X191562D01*
Y38907D01*
X191480D01*
Y38825D01*
X191398D01*
Y38660D01*
X191316D01*
Y38249D01*
X191398D01*
Y38084D01*
X191480D01*
Y38002D01*
X191562D01*
Y37919D01*
X191727D01*
Y37837D01*
X192139D01*
Y37919D01*
X192303D01*
Y38002D01*
X192385D01*
Y38084D01*
X192468D01*
Y38249D01*
X192550D01*
Y38660D01*
X192468D01*
Y38825D01*
X192385D01*
Y38907D01*
X192303D01*
Y38989D01*
X192139D01*
Y39072D01*
D02*
G37*
G36*
X41162Y7967D02*
X41130D01*
X41064Y7962D01*
X41004Y7956D01*
X40889Y7923D01*
X40791Y7880D01*
X40709Y7831D01*
X40644Y7782D01*
X40595Y7738D01*
X40567Y7705D01*
X40556Y7700D01*
Y7694D01*
X40507Y7623D01*
X40464Y7541D01*
X40436Y7459D01*
X40409Y7372D01*
X40393Y7301D01*
X40382Y7236D01*
Y7214D01*
X40376Y7197D01*
Y7186D01*
Y7181D01*
X41910D01*
X41894Y7306D01*
X41861Y7421D01*
X41823Y7519D01*
X41779Y7596D01*
X41741Y7661D01*
X41703Y7711D01*
X41681Y7738D01*
X41670Y7749D01*
X41583Y7820D01*
X41495Y7874D01*
X41403Y7913D01*
X41315Y7940D01*
X41244Y7956D01*
X41184Y7962D01*
X41162Y7967D01*
D02*
G37*
G36*
X45498Y8906D02*
X44307D01*
X44160Y8901D01*
X44034Y8879D01*
X43925Y8852D01*
X43843Y8819D01*
X43772Y8786D01*
X43729Y8759D01*
X43701Y8737D01*
X43690Y8732D01*
X43625Y8660D01*
X43576Y8590D01*
X43543Y8513D01*
X43516Y8448D01*
X43505Y8382D01*
X43499Y8333D01*
X43494Y8300D01*
Y8295D01*
Y8289D01*
X43499Y8224D01*
X43510Y8158D01*
X43527Y8104D01*
X43543Y8055D01*
X43565Y8011D01*
X43581Y7978D01*
X43592Y7956D01*
X43598Y7951D01*
X43636Y7896D01*
X43685Y7847D01*
X43734Y7809D01*
X43783Y7776D01*
X43827Y7754D01*
X43860Y7738D01*
X43881Y7727D01*
X43892Y7721D01*
X43969Y7700D01*
X44056Y7683D01*
X44144Y7672D01*
X44231Y7667D01*
X44307Y7661D01*
X44373Y7656D01*
X45498D01*
Y8906D01*
D02*
G37*
G36*
X28266Y8961D02*
X28233D01*
X28173Y8955D01*
X28113Y8950D01*
X28058Y8934D01*
X28009Y8912D01*
X27916Y8862D01*
X27835Y8808D01*
X27775Y8748D01*
X27725Y8699D01*
X27709Y8677D01*
X27698Y8660D01*
X27687Y8655D01*
Y8650D01*
X27649Y8584D01*
X27616Y8508D01*
X27583Y8420D01*
X27562Y8327D01*
X27540Y8229D01*
X27523Y8125D01*
X27496Y7918D01*
X27485Y7814D01*
X27480Y7721D01*
X27474Y7634D01*
Y7563D01*
X27469Y7497D01*
Y7448D01*
Y7421D01*
Y7416D01*
Y7410D01*
Y7241D01*
X27480Y7088D01*
X27491Y6951D01*
X27501Y6820D01*
X27518Y6711D01*
X27540Y6608D01*
X27562Y6520D01*
X27578Y6438D01*
X27600Y6373D01*
X27622Y6318D01*
X27638Y6269D01*
X27660Y6231D01*
X27671Y6204D01*
X27682Y6187D01*
X27693Y6176D01*
Y6171D01*
X27736Y6116D01*
X27780Y6072D01*
X27824Y6029D01*
X27867Y5996D01*
X27960Y5941D01*
X28042Y5903D01*
X28119Y5881D01*
X28173Y5870D01*
X28195Y5865D01*
X28228D01*
X28288Y5870D01*
X28342Y5876D01*
X28446Y5914D01*
X28539Y5963D01*
X28621Y6018D01*
X28681Y6072D01*
X28730Y6122D01*
X28757Y6160D01*
X28768Y6165D01*
Y6171D01*
X28806Y6236D01*
X28839Y6313D01*
X28872Y6400D01*
X28894Y6493D01*
X28916Y6591D01*
X28932Y6695D01*
X28959Y6908D01*
X28970Y7006D01*
X28976Y7099D01*
X28981Y7186D01*
Y7257D01*
X28987Y7323D01*
Y7372D01*
Y7399D01*
Y7410D01*
X28981Y7579D01*
X28976Y7732D01*
X28965Y7874D01*
X28948Y8005D01*
X28932Y8120D01*
X28910Y8224D01*
X28888Y8316D01*
X28866Y8398D01*
X28845Y8469D01*
X28828Y8529D01*
X28806Y8579D01*
X28790Y8622D01*
X28774Y8650D01*
X28763Y8671D01*
X28752Y8682D01*
Y8688D01*
X28714Y8737D01*
X28675Y8781D01*
X28632Y8813D01*
X28588Y8846D01*
X28501Y8895D01*
X28419Y8928D01*
X28348Y8944D01*
X28288Y8955D01*
X28266Y8961D01*
D02*
G37*
G36*
X184181Y105370D02*
X184167D01*
X184160D01*
Y103321D01*
X184327Y103343D01*
X184480Y103387D01*
X184612Y103438D01*
X184714Y103496D01*
X184801Y103547D01*
X184867Y103598D01*
X184903Y103627D01*
X184918Y103642D01*
X185012Y103759D01*
X185085Y103875D01*
X185136Y103999D01*
X185173Y104116D01*
X185195Y104210D01*
X185202Y104291D01*
X185209Y104320D01*
Y104364D01*
X185202Y104451D01*
X185195Y104531D01*
X185151Y104684D01*
X185093Y104815D01*
X185027Y104925D01*
X184961Y105012D01*
X184903Y105078D01*
X184859Y105114D01*
X184852Y105129D01*
X184845D01*
X184750Y105195D01*
X184641Y105253D01*
X184531Y105289D01*
X184415Y105326D01*
X184320Y105348D01*
X184232Y105362D01*
X184203D01*
X184181Y105370D01*
D02*
G37*
G36*
X183817Y92656D02*
X183584Y92649D01*
X183438Y92641D01*
X183314Y92634D01*
X183212Y92619D01*
X183124Y92598D01*
X183059Y92576D01*
X183008Y92561D01*
X182979Y92554D01*
X182971Y92546D01*
X182877Y92488D01*
X182789Y92430D01*
X182716Y92357D01*
X182658Y92291D01*
X182607Y92233D01*
X182570Y92182D01*
X182548Y92153D01*
X182541Y92138D01*
X182490Y92029D01*
X182454Y91919D01*
X182424Y91817D01*
X182410Y91715D01*
X182395Y91635D01*
X182388Y91562D01*
Y91504D01*
X182395Y91373D01*
X182410Y91263D01*
X182439Y91169D01*
X182468Y91088D01*
X182498Y91030D01*
X182527Y90986D01*
X182541Y90957D01*
X182548Y90950D01*
X182614Y90892D01*
X182687Y90848D01*
X182753Y90811D01*
X182818Y90790D01*
X182877Y90775D01*
X182920Y90768D01*
X182957D01*
X182964D01*
X183022Y90775D01*
X183081Y90782D01*
X183124Y90797D01*
X183168Y90811D01*
X183205Y90826D01*
X183234Y90833D01*
X183248Y90848D01*
X183256D01*
X183343Y90921D01*
X183401Y91008D01*
X183423Y91037D01*
X183438Y91067D01*
X183452Y91088D01*
Y91096D01*
X183482Y91169D01*
X183503Y91249D01*
X183525Y91336D01*
X183540Y91424D01*
X183554Y91504D01*
X183569Y91577D01*
X183576Y91621D01*
Y91635D01*
X183598Y91759D01*
X183613Y91876D01*
X183635Y91978D01*
X183657Y92080D01*
X183678Y92175D01*
X183700Y92255D01*
X183715Y92335D01*
X183737Y92401D01*
X183751Y92459D01*
X183766Y92510D01*
X183781Y92554D01*
X183795Y92590D01*
X183802Y92619D01*
X183810Y92641D01*
X183817Y92649D01*
Y92656D01*
D02*
G37*
G36*
X184181Y86940D02*
X184167D01*
X184160D01*
Y84892D01*
X184327Y84914D01*
X184480Y84958D01*
X184612Y85009D01*
X184714Y85067D01*
X184801Y85118D01*
X184867Y85169D01*
X184903Y85198D01*
X184918Y85213D01*
X185012Y85329D01*
X185085Y85446D01*
X185136Y85570D01*
X185173Y85687D01*
X185195Y85781D01*
X185202Y85861D01*
X185209Y85891D01*
Y85934D01*
X185202Y86022D01*
X185195Y86102D01*
X185151Y86255D01*
X185093Y86386D01*
X185027Y86496D01*
X184961Y86583D01*
X184903Y86649D01*
X184859Y86685D01*
X184852Y86700D01*
X184845D01*
X184750Y86765D01*
X184641Y86824D01*
X184531Y86860D01*
X184415Y86897D01*
X184320Y86919D01*
X184232Y86933D01*
X184203D01*
X184181Y86940D01*
D02*
G37*
G36*
X183912Y80955D02*
X183875D01*
X183853D01*
X183846D01*
X183722D01*
X183598Y80941D01*
X183489Y80926D01*
X183394Y80912D01*
X183299Y80890D01*
X183212Y80861D01*
X183139Y80839D01*
X183073Y80810D01*
X183008Y80780D01*
X182957Y80759D01*
X182913Y80729D01*
X182884Y80708D01*
X182855Y80693D01*
X182833Y80678D01*
X182826Y80664D01*
X182818D01*
X182760Y80605D01*
X182709Y80547D01*
X182629Y80431D01*
X182570Y80307D01*
X182534Y80197D01*
X182505Y80095D01*
X182498Y80015D01*
X182490Y79986D01*
Y79942D01*
X182498Y79862D01*
X182505Y79789D01*
X182541Y79650D01*
X182592Y79527D01*
X182658Y79425D01*
X182716Y79337D01*
X182767Y79279D01*
X182804Y79242D01*
X182818Y79228D01*
X182884Y79177D01*
X182957Y79133D01*
X183124Y79060D01*
X183292Y79016D01*
X183467Y78980D01*
X183620Y78958D01*
X183693Y78951D01*
X183751D01*
X183802Y78943D01*
X183839D01*
X183861D01*
X183868D01*
X183992D01*
X184101Y78958D01*
X184203Y78973D01*
X184305Y78987D01*
X184393Y79009D01*
X184473Y79031D01*
X184553Y79060D01*
X184619Y79089D01*
X184677Y79111D01*
X184728Y79140D01*
X184772Y79162D01*
X184801Y79184D01*
X184830Y79198D01*
X184852Y79213D01*
X184859Y79228D01*
X184867D01*
X184925Y79286D01*
X184983Y79344D01*
X185064Y79461D01*
X185129Y79577D01*
X185166Y79694D01*
X185195Y79789D01*
X185202Y79869D01*
X185209Y79898D01*
Y80015D01*
X185195Y80088D01*
X185158Y80226D01*
X185100Y80350D01*
X185042Y80452D01*
X184976Y80540D01*
X184918Y80605D01*
X184881Y80642D01*
X184874Y80656D01*
X184867D01*
X184801Y80708D01*
X184728Y80759D01*
X184561Y80831D01*
X184393Y80882D01*
X184225Y80919D01*
X184079Y80941D01*
X184014Y80948D01*
X183955D01*
X183912Y80955D01*
D02*
G37*
G36*
X183897Y74839D02*
X183861D01*
X183839D01*
X183832D01*
X183700D01*
X183576Y74825D01*
X183467Y74810D01*
X183358Y74788D01*
X183263Y74766D01*
X183175Y74737D01*
X183095Y74715D01*
X183022Y74686D01*
X182964Y74657D01*
X182906Y74628D01*
X182862Y74598D01*
X182826Y74577D01*
X182796Y74555D01*
X182774Y74540D01*
X182767Y74533D01*
X182760Y74526D01*
X182702Y74467D01*
X182643Y74402D01*
X182556Y74278D01*
X182498Y74146D01*
X182454Y74030D01*
X182432Y73921D01*
X182417Y73840D01*
X182410Y73804D01*
Y73760D01*
X182417Y73673D01*
X182424Y73592D01*
X182461Y73439D01*
X182519Y73308D01*
X182585Y73199D01*
X182643Y73111D01*
X182702Y73046D01*
X182738Y73002D01*
X182753Y72995D01*
Y72987D01*
X182826Y72936D01*
X182898Y72885D01*
X183066Y72812D01*
X183241Y72754D01*
X183416Y72718D01*
X183569Y72696D01*
X183635Y72689D01*
X183693D01*
X183744Y72681D01*
X183781D01*
X183802D01*
X183810D01*
X183934Y72689D01*
X184057Y72696D01*
X184167Y72710D01*
X184269Y72732D01*
X184364Y72754D01*
X184451Y72776D01*
X184524Y72805D01*
X184597Y72834D01*
X184655Y72864D01*
X184714Y72893D01*
X184757Y72914D01*
X184794Y72936D01*
X184823Y72958D01*
X184845Y72973D01*
X184852Y72987D01*
X184859D01*
X184918Y73046D01*
X184976Y73111D01*
X185064Y73235D01*
X185122Y73366D01*
X185166Y73490D01*
X185195Y73600D01*
X185202Y73680D01*
X185209Y73716D01*
Y73760D01*
X185202Y73848D01*
X185195Y73928D01*
X185158Y74074D01*
X185100Y74205D01*
X185034Y74314D01*
X184969Y74402D01*
X184918Y74467D01*
X184874Y74511D01*
X184867Y74526D01*
X184859D01*
X184794Y74584D01*
X184714Y74628D01*
X184553Y74708D01*
X184378Y74766D01*
X184218Y74803D01*
X184065Y74825D01*
X183999Y74832D01*
X183941D01*
X183897Y74839D01*
D02*
G37*
G36*
X183875Y68920D02*
X183839D01*
X183817D01*
X183810D01*
X183686D01*
X183562Y68905D01*
X183452Y68890D01*
X183350Y68876D01*
X183256Y68854D01*
X183168Y68825D01*
X183095Y68796D01*
X183022Y68774D01*
X182964Y68745D01*
X182906Y68715D01*
X182862Y68694D01*
X182826Y68664D01*
X182796Y68650D01*
X182774Y68635D01*
X182767Y68621D01*
X182760D01*
X182702Y68562D01*
X182643Y68504D01*
X182556Y68387D01*
X182498Y68271D01*
X182454Y68161D01*
X182432Y68067D01*
X182417Y67986D01*
X182410Y67957D01*
Y67921D01*
X182417Y67826D01*
X182432Y67746D01*
X182454Y67658D01*
X182483Y67585D01*
X182563Y67447D01*
X182650Y67338D01*
X182731Y67243D01*
X182811Y67177D01*
X182840Y67155D01*
X182862Y67141D01*
X182877Y67126D01*
X182884D01*
X182942Y67097D01*
X183008Y67068D01*
X183153Y67024D01*
X183314Y66995D01*
X183467Y66973D01*
X183606Y66959D01*
X183671D01*
X183722Y66951D01*
X183766D01*
X183802D01*
X183824D01*
X183832D01*
X183955D01*
X184065Y66966D01*
X184174Y66980D01*
X184276Y66995D01*
X184364Y67017D01*
X184451Y67046D01*
X184524Y67068D01*
X184597Y67097D01*
X184655Y67126D01*
X184706Y67148D01*
X184750Y67177D01*
X184786Y67199D01*
X184816Y67214D01*
X184837Y67228D01*
X184845Y67243D01*
X184852D01*
X184918Y67301D01*
X184969Y67360D01*
X185020Y67418D01*
X185056Y67476D01*
X185122Y67593D01*
X185166Y67702D01*
X185187Y67797D01*
X185202Y67877D01*
X185209Y67906D01*
Y68016D01*
X185195Y68089D01*
X185158Y68227D01*
X185100Y68344D01*
X185042Y68446D01*
X184976Y68526D01*
X184918Y68584D01*
X184881Y68621D01*
X184874Y68635D01*
X184867D01*
X184801Y68686D01*
X184721Y68730D01*
X184561Y68803D01*
X184378Y68854D01*
X184211Y68883D01*
X184057Y68905D01*
X183985Y68912D01*
X183926D01*
X183875Y68920D01*
D02*
G37*
G36*
X183817Y64815D02*
X183584Y64808D01*
X183438Y64801D01*
X183314Y64793D01*
X183212Y64779D01*
X183124Y64757D01*
X183059Y64735D01*
X183008Y64720D01*
X182979Y64713D01*
X182971Y64706D01*
X182877Y64648D01*
X182789Y64589D01*
X182716Y64516D01*
X182658Y64451D01*
X182607Y64393D01*
X182570Y64341D01*
X182548Y64312D01*
X182541Y64298D01*
X182490Y64188D01*
X182454Y64079D01*
X182424Y63977D01*
X182410Y63875D01*
X182395Y63795D01*
X182388Y63722D01*
Y63664D01*
X182395Y63532D01*
X182410Y63423D01*
X182439Y63328D01*
X182468Y63248D01*
X182498Y63190D01*
X182527Y63146D01*
X182541Y63117D01*
X182548Y63109D01*
X182614Y63051D01*
X182687Y63007D01*
X182753Y62971D01*
X182818Y62949D01*
X182877Y62934D01*
X182920Y62927D01*
X182957D01*
X182964D01*
X183022Y62934D01*
X183081Y62942D01*
X183124Y62956D01*
X183168Y62971D01*
X183205Y62985D01*
X183234Y62993D01*
X183248Y63007D01*
X183256D01*
X183343Y63080D01*
X183401Y63168D01*
X183423Y63197D01*
X183438Y63226D01*
X183452Y63248D01*
Y63255D01*
X183482Y63328D01*
X183503Y63408D01*
X183525Y63496D01*
X183540Y63583D01*
X183554Y63664D01*
X183569Y63736D01*
X183576Y63780D01*
Y63795D01*
X183598Y63919D01*
X183613Y64035D01*
X183635Y64137D01*
X183657Y64239D01*
X183678Y64334D01*
X183700Y64414D01*
X183715Y64495D01*
X183737Y64560D01*
X183751Y64618D01*
X183766Y64670D01*
X183781Y64713D01*
X183795Y64750D01*
X183802Y64779D01*
X183810Y64801D01*
X183817Y64808D01*
Y64815D01*
D02*
G37*
G36*
X183824Y57015D02*
X183788D01*
X183759D01*
X183751D01*
X183627D01*
X183511Y57000D01*
X183409Y56986D01*
X183307Y56971D01*
X183219Y56949D01*
X183132Y56920D01*
X183059Y56898D01*
X182993Y56869D01*
X182935Y56840D01*
X182877Y56818D01*
X182840Y56789D01*
X182804Y56767D01*
X182774Y56753D01*
X182753Y56738D01*
X182745Y56723D01*
X182738D01*
X182680Y56672D01*
X182629Y56614D01*
X182548Y56497D01*
X182490Y56381D01*
X182454Y56271D01*
X182424Y56177D01*
X182417Y56097D01*
X182410Y56067D01*
Y56031D01*
X182417Y55958D01*
X182424Y55885D01*
X182461Y55754D01*
X182519Y55630D01*
X182585Y55528D01*
X182643Y55448D01*
X182702Y55382D01*
X182738Y55346D01*
X182753Y55338D01*
Y55331D01*
X182826Y55280D01*
X182898Y55236D01*
X183066Y55163D01*
X183241Y55112D01*
X183409Y55076D01*
X183562Y55054D01*
X183627Y55047D01*
X183686D01*
X183737Y55039D01*
X183773D01*
X183795D01*
X183802D01*
X183934D01*
X184057Y55054D01*
X184174Y55069D01*
X184276Y55083D01*
X184371Y55105D01*
X184458Y55127D01*
X184539Y55149D01*
X184612Y55178D01*
X184670Y55207D01*
X184721Y55229D01*
X184765Y55251D01*
X184801Y55273D01*
X184830Y55295D01*
X184852Y55302D01*
X184859Y55316D01*
X184867D01*
X184925Y55367D01*
X184983Y55426D01*
X185064Y55542D01*
X185129Y55659D01*
X185166Y55768D01*
X185195Y55863D01*
X185202Y55943D01*
X185209Y55972D01*
Y56009D01*
X185202Y56089D01*
X185195Y56162D01*
X185151Y56301D01*
X185100Y56424D01*
X185034Y56527D01*
X184969Y56607D01*
X184910Y56672D01*
X184867Y56709D01*
X184859Y56723D01*
X184852D01*
X184779Y56774D01*
X184706Y56818D01*
X184531Y56891D01*
X184349Y56942D01*
X184174Y56978D01*
X184087Y56993D01*
X184007Y57000D01*
X183934Y57008D01*
X183875D01*
X183824Y57015D01*
D02*
G37*
G36*
X183817Y51489D02*
X183584Y51482D01*
X183438Y51475D01*
X183314Y51467D01*
X183212Y51453D01*
X183124Y51431D01*
X183059Y51409D01*
X183008Y51394D01*
X182979Y51387D01*
X182971Y51380D01*
X182877Y51322D01*
X182789Y51263D01*
X182716Y51190D01*
X182658Y51125D01*
X182607Y51066D01*
X182570Y51015D01*
X182548Y50986D01*
X182541Y50972D01*
X182490Y50862D01*
X182454Y50753D01*
X182424Y50651D01*
X182410Y50549D01*
X182395Y50469D01*
X182388Y50396D01*
Y50337D01*
X182395Y50206D01*
X182410Y50097D01*
X182439Y50002D01*
X182468Y49922D01*
X182498Y49863D01*
X182527Y49820D01*
X182541Y49791D01*
X182548Y49783D01*
X182614Y49725D01*
X182687Y49681D01*
X182753Y49645D01*
X182818Y49623D01*
X182877Y49608D01*
X182920Y49601D01*
X182957D01*
X182964D01*
X183022Y49608D01*
X183081Y49616D01*
X183124Y49630D01*
X183168Y49645D01*
X183205Y49659D01*
X183234Y49667D01*
X183248Y49681D01*
X183256D01*
X183343Y49754D01*
X183401Y49842D01*
X183423Y49871D01*
X183438Y49900D01*
X183452Y49922D01*
Y49929D01*
X183482Y50002D01*
X183503Y50082D01*
X183525Y50170D01*
X183540Y50257D01*
X183554Y50337D01*
X183569Y50410D01*
X183576Y50454D01*
Y50469D01*
X183598Y50592D01*
X183613Y50709D01*
X183635Y50811D01*
X183657Y50913D01*
X183678Y51008D01*
X183700Y51088D01*
X183715Y51168D01*
X183737Y51234D01*
X183751Y51292D01*
X183766Y51343D01*
X183781Y51387D01*
X183795Y51424D01*
X183802Y51453D01*
X183810Y51475D01*
X183817Y51482D01*
Y51489D01*
D02*
G37*
G36*
X183904Y41881D02*
X183868D01*
X183846D01*
X183839D01*
X183708D01*
X183584Y41866D01*
X183467Y41852D01*
X183358Y41837D01*
X183263Y41815D01*
X183175Y41786D01*
X183088Y41757D01*
X183022Y41735D01*
X182957Y41706D01*
X182906Y41677D01*
X182855Y41655D01*
X182818Y41626D01*
X182789Y41611D01*
X182767Y41597D01*
X182760Y41582D01*
X182753D01*
X182694Y41524D01*
X182643Y41465D01*
X182556Y41349D01*
X182498Y41232D01*
X182454Y41123D01*
X182432Y41021D01*
X182417Y40948D01*
X182410Y40919D01*
Y40875D01*
X182417Y40802D01*
X182424Y40729D01*
X182461Y40598D01*
X182519Y40481D01*
X182578Y40379D01*
X182636Y40299D01*
X182694Y40241D01*
X182731Y40204D01*
X182745Y40190D01*
X182811Y40139D01*
X182884Y40095D01*
X183052Y40022D01*
X183219Y39978D01*
X183394Y39942D01*
X183547Y39920D01*
X183613Y39913D01*
X183671D01*
X183722Y39905D01*
X183759D01*
X183781D01*
X183788D01*
X183919D01*
X184036Y39920D01*
X184145Y39935D01*
X184254Y39949D01*
X184349Y39978D01*
X184437Y40000D01*
X184517Y40029D01*
X184590Y40058D01*
X184648Y40080D01*
X184706Y40110D01*
X184750Y40139D01*
X184794Y40161D01*
X184823Y40175D01*
X184845Y40190D01*
X184852Y40204D01*
X184859D01*
X184925Y40263D01*
X184983Y40321D01*
X185034Y40379D01*
X185078Y40445D01*
X185144Y40562D01*
X185187Y40671D01*
X185209Y40766D01*
X185224Y40839D01*
X185231Y40868D01*
Y40904D01*
X185224Y40977D01*
X185217Y41050D01*
X185180Y41181D01*
X185122Y41298D01*
X185056Y41400D01*
X184991Y41480D01*
X184940Y41538D01*
X184896Y41575D01*
X184889Y41589D01*
X184881D01*
X184816Y41640D01*
X184736Y41684D01*
X184568Y41757D01*
X184400Y41808D01*
X184232Y41844D01*
X184079Y41866D01*
X184014Y41874D01*
X183955D01*
X183904Y41881D01*
D02*
G37*
%LPD*%
M02*
