G04*
G04 #@! TF.GenerationSoftware,Altium Limited,Altium Designer,25.8.1 (18)*
G04*
G04 Layer_Color=16711935*
%FSLAX25Y25*%
%MOIN*%
G70*
G04*
G04 #@! TF.SameCoordinates,F1F84D23-2183-468A-A06F-28952BDF526D*
G04*
G04*
G04 #@! TF.FilePolarity,Positive*
G04*
G01*
G75*
%ADD14C,0.00602*%
%ADD108C,0.01000*%
D14*
X71377Y21255D02*
X70459D01*
X70000Y20796D01*
Y18959D01*
X70459Y18500D01*
X71377D01*
X71837Y18959D01*
Y20796D01*
X71377Y21255D01*
X72755Y18500D02*
Y21255D01*
X74133D01*
X74592Y20796D01*
Y19877D01*
X74133Y19418D01*
X72755D01*
X77347Y18500D02*
X75510D01*
X77347Y20337D01*
Y20796D01*
X76888Y21255D01*
X75969D01*
X75510Y20796D01*
X62378Y124755D02*
X61459D01*
X61000Y124296D01*
Y122459D01*
X61459Y122000D01*
X62378D01*
X62837Y122459D01*
Y124296D01*
X62378Y124755D01*
X63755Y122000D02*
Y124755D01*
X65132D01*
X65592Y124296D01*
Y123378D01*
X65132Y122918D01*
X63755D01*
X66510Y124296D02*
X66969Y124755D01*
X67888D01*
X68347Y124296D01*
Y123837D01*
X67888Y123378D01*
X67428D01*
X67888D01*
X68347Y122918D01*
Y122459D01*
X67888Y122000D01*
X66969D01*
X66510Y122459D01*
D108*
X228378Y135858D02*
X228324Y136887D01*
X228163Y137905D01*
X227896Y138900D01*
X227527Y139862D01*
X227059Y140779D01*
X226498Y141644D01*
X225850Y142444D01*
X225121Y143173D01*
X224321Y143821D01*
X223457Y144382D01*
X222539Y144850D01*
X221577Y145219D01*
X220582Y145486D01*
X219564Y145647D01*
X218535Y145701D01*
Y32D02*
X219564Y85D01*
X220582Y247D01*
X221577Y513D01*
X222539Y882D01*
X223457Y1350D01*
X224321Y1911D01*
X225121Y2560D01*
X225850Y3288D01*
X226498Y4089D01*
X227059Y4953D01*
X227527Y5871D01*
X227896Y6832D01*
X228163Y7828D01*
X228324Y8845D01*
X228378Y9874D01*
X32D02*
X85Y8845D01*
X247Y7828D01*
X513Y6832D01*
X882Y5871D01*
X1350Y4953D01*
X1911Y4089D01*
X2560Y3288D01*
X3288Y2560D01*
X4089Y1911D01*
X4953Y1350D01*
X5871Y882D01*
X6832Y513D01*
X7828Y247D01*
X8845Y85D01*
X9874Y32D01*
Y145701D02*
X8845Y145647D01*
X7828Y145486D01*
X6832Y145219D01*
X5871Y144850D01*
X4953Y144382D01*
X4089Y143821D01*
X3288Y143173D01*
X2560Y142444D01*
X1911Y141644D01*
X1350Y140779D01*
X882Y139862D01*
X513Y138900D01*
X247Y137905D01*
X85Y136887D01*
X32Y135858D01*
X9874Y32D02*
X218535D01*
X228378Y9874D02*
Y135858D01*
X9874Y145701D02*
X218535D01*
X32Y9874D02*
Y135858D01*
M02*
