G04 #@! TF.GenerationSoftware,KiCad,Pcbnew,8.0.2*
G04 #@! TF.CreationDate,2025-01-30T05:14:50+11:00*
G04 #@! TF.ProjectId,Test_Project_2,54657374-5f50-4726-9f6a-6563745f322e,rev?*
G04 #@! TF.SameCoordinates,Original*
G04 #@! TF.FileFunction,Soldermask,Top*
G04 #@! TF.FilePolarity,Negative*
%FSLAX46Y46*%
G04 Gerber Fmt 4.6, Leading zero omitted, Abs format (unit mm)*
G04 Created by KiCad (PCBNEW 8.0.2) date 2025-01-30 05:14:50*
%MOMM*%
%LPD*%
G01*
G04 APERTURE LIST*
%ADD10C,0.100000*%
%ADD11C,0.750000*%
G04 APERTURE END LIST*
D10*
X156349197Y-64820262D02*
X159847735Y-66116016D01*
X161791366Y-67152622D01*
X164382876Y-68966676D01*
X167103960Y-71558185D01*
X169177167Y-74279270D01*
X170991224Y-77648233D01*
X172416555Y-82312950D01*
X172805280Y-85163609D01*
X172805280Y-88273420D01*
X172286979Y-91771958D01*
X171250375Y-95140920D01*
X169695470Y-98380306D01*
X167363111Y-101619693D01*
X164512451Y-104340777D01*
X165030753Y-105118230D01*
X166715234Y-109653371D01*
X167751838Y-113670210D01*
X168529291Y-118075777D01*
X168918016Y-121963041D01*
X168918016Y-128182662D01*
X168270139Y-132458652D01*
X166974386Y-135698040D01*
X166196931Y-136605068D01*
X165549055Y-136993793D01*
X164642026Y-137252944D01*
X163605422Y-137123371D01*
X162698394Y-136734642D01*
X161273065Y-135438888D01*
X159847735Y-133365680D01*
X158292829Y-130126295D01*
X156349197Y-123777097D01*
X155571744Y-119760257D01*
X155053442Y-115484267D01*
X155053442Y-109135069D01*
X154535140Y-109005494D01*
X151166179Y-109523796D01*
X148833820Y-109523796D01*
X146242311Y-109135069D01*
X145983160Y-109394221D01*
X145983160Y-114318088D01*
X145464859Y-118853229D01*
X144169104Y-124943275D01*
X143002924Y-128571388D01*
X141318444Y-132458652D01*
X139633962Y-135050163D01*
X137690331Y-136864219D01*
X136653727Y-137252944D01*
X135487548Y-137252944D01*
X134580519Y-136864219D01*
X133543916Y-135827613D01*
X132896039Y-134661434D01*
X132248161Y-132717803D01*
X131600284Y-128700963D01*
X131600284Y-122481342D01*
X131989011Y-118723653D01*
X133155189Y-112763182D01*
X134321369Y-108875919D01*
X136005849Y-104729504D01*
X134969246Y-103952051D01*
X132766464Y-101749268D01*
X131341133Y-99935212D01*
X129527076Y-96954976D01*
X127972171Y-92808561D01*
X127324295Y-89439599D01*
X127194719Y-85552335D01*
X127453868Y-83090402D01*
X128101747Y-80239742D01*
X130045379Y-75575025D01*
X132248161Y-72335639D01*
X135617123Y-68966676D01*
X139633962Y-66375167D01*
X143650802Y-64820262D01*
X147797217Y-64042808D01*
X152202782Y-64042808D01*
X156349197Y-64820262D01*
D11*
X161631505Y-125729038D03*
X164631505Y-122729038D03*
X161631505Y-119729038D03*
X161631505Y-122729038D03*
X158631505Y-122729038D03*
X141265922Y-121886102D03*
X138265922Y-118886102D03*
X138265922Y-121886102D03*
X135265922Y-121886102D03*
X138265922Y-124886102D03*
M02*
