%TF.GenerationSoftware,KiCad,Pcbnew,8.0.2*%
%TF.CreationDate,2025-01-30T05:17:58+11:00*%
%TF.ProjectId,Test_Project_2,54657374-5f50-4726-9f6a-6563745f322e,rev?*%
%TF.SameCoordinates,Original*%
%TF.FileFunction,Drillmap*%
%TF.FilePolarity,Positive*%
%FSLAX45Y45*%
G04 Gerber Fmt 4.5, Leading zero omitted, Abs format (unit mm)*
G04 Created by KiCad (PCBNEW 8.0.2) date 2025-01-30 05:17:58*
%MOMM*%
%LPD*%
G01*
G04 APERTURE LIST*
%ADD10C,0.100000*%
%ADD11C,0.200000*%
G04 APERTURE END LIST*
D10*
X15634920Y-6482026D02*
X15984773Y-6611602D01*
X16179137Y-6715262D01*
X16438288Y-6896668D01*
X16710396Y-7155818D01*
X16917717Y-7427927D01*
X17099122Y-7764823D01*
X17241656Y-8231295D01*
X17280528Y-8516361D01*
X17280528Y-8827342D01*
X17228698Y-9177196D01*
X17125038Y-9514092D01*
X16969547Y-9838031D01*
X16736311Y-10161969D01*
X16451245Y-10434078D01*
X16503075Y-10511823D01*
X16671523Y-10965337D01*
X16775184Y-11367021D01*
X16852929Y-11807578D01*
X16891802Y-12196304D01*
X16891802Y-12818266D01*
X16827014Y-13245865D01*
X16697439Y-13569804D01*
X16619693Y-13660507D01*
X16554905Y-13699379D01*
X16464203Y-13725294D01*
X16360542Y-13712337D01*
X16269839Y-13673464D01*
X16127306Y-13543889D01*
X15984773Y-13336568D01*
X15829283Y-13012629D01*
X15634920Y-12377710D01*
X15557174Y-11976026D01*
X15505344Y-11548427D01*
X15505344Y-10913507D01*
X15453514Y-10900549D01*
X15116618Y-10952380D01*
X14883382Y-10952380D01*
X14624231Y-10913507D01*
X14598316Y-10939422D01*
X14598316Y-11431809D01*
X14546486Y-11885323D01*
X14416910Y-12494327D01*
X14300292Y-12857139D01*
X14131844Y-13245865D01*
X13963396Y-13505016D01*
X13769033Y-13686422D01*
X13665373Y-13725294D01*
X13548755Y-13725294D01*
X13458052Y-13686422D01*
X13354392Y-13582761D01*
X13289604Y-13466143D01*
X13224816Y-13271780D01*
X13160028Y-12870096D01*
X13160028Y-12248134D01*
X13198901Y-11872365D01*
X13315519Y-11276318D01*
X13432137Y-10887592D01*
X13600585Y-10472950D01*
X13496925Y-10395205D01*
X13276646Y-10174927D01*
X13134113Y-9993521D01*
X12952708Y-9695498D01*
X12797217Y-9280856D01*
X12732429Y-8943960D01*
X12719472Y-8555234D01*
X12745387Y-8309040D01*
X12810175Y-8023974D01*
X13004538Y-7557502D01*
X13224816Y-7233564D01*
X13561712Y-6896668D01*
X13963396Y-6637517D01*
X14365080Y-6482026D01*
X14779722Y-6404281D01*
X15220278Y-6404281D01*
X15634920Y-6482026D01*
D11*
D10*
X13516592Y-12178610D02*
X13536592Y-12198610D01*
X13536592Y-12178610D02*
X13516592Y-12198610D01*
X13816592Y-11878610D02*
X13836592Y-11898610D01*
X13836592Y-11878610D02*
X13816592Y-11898610D01*
X13816592Y-12178610D02*
X13836592Y-12198610D01*
X13836592Y-12178610D02*
X13816592Y-12198610D01*
X13816592Y-12478610D02*
X13836592Y-12498610D01*
X13836592Y-12478610D02*
X13816592Y-12498610D01*
X14116592Y-12178610D02*
X14136592Y-12198610D01*
X14136592Y-12178610D02*
X14116592Y-12198610D01*
X15853150Y-12262904D02*
X15873150Y-12282904D01*
X15873150Y-12262904D02*
X15853150Y-12282904D01*
X16153150Y-11962904D02*
X16173150Y-11982904D01*
X16173150Y-11962904D02*
X16153150Y-11982904D01*
X16153150Y-12262904D02*
X16173150Y-12282904D01*
X16173150Y-12262904D02*
X16153150Y-12282904D01*
X16153150Y-12562904D02*
X16173150Y-12582904D01*
X16173150Y-12562904D02*
X16153150Y-12582904D01*
X16453150Y-12262904D02*
X16473150Y-12282904D01*
X16473150Y-12262904D02*
X16453150Y-12282904D01*
D11*
X12975249Y-14041778D02*
X12975249Y-13841778D01*
X12975249Y-13841778D02*
X13022868Y-13841778D01*
X13022868Y-13841778D02*
X13051439Y-13851302D01*
X13051439Y-13851302D02*
X13070487Y-13870350D01*
X13070487Y-13870350D02*
X13080011Y-13889397D01*
X13080011Y-13889397D02*
X13089534Y-13927492D01*
X13089534Y-13927492D02*
X13089534Y-13956064D01*
X13089534Y-13956064D02*
X13080011Y-13994159D01*
X13080011Y-13994159D02*
X13070487Y-14013207D01*
X13070487Y-14013207D02*
X13051439Y-14032254D01*
X13051439Y-14032254D02*
X13022868Y-14041778D01*
X13022868Y-14041778D02*
X12975249Y-14041778D01*
X13175249Y-14041778D02*
X13175249Y-13908445D01*
X13175249Y-13946540D02*
X13184772Y-13927492D01*
X13184772Y-13927492D02*
X13194296Y-13917969D01*
X13194296Y-13917969D02*
X13213344Y-13908445D01*
X13213344Y-13908445D02*
X13232392Y-13908445D01*
X13299058Y-14041778D02*
X13299058Y-13908445D01*
X13299058Y-13841778D02*
X13289534Y-13851302D01*
X13289534Y-13851302D02*
X13299058Y-13860826D01*
X13299058Y-13860826D02*
X13308582Y-13851302D01*
X13308582Y-13851302D02*
X13299058Y-13841778D01*
X13299058Y-13841778D02*
X13299058Y-13860826D01*
X13422868Y-14041778D02*
X13403820Y-14032254D01*
X13403820Y-14032254D02*
X13394296Y-14013207D01*
X13394296Y-14013207D02*
X13394296Y-13841778D01*
X13527630Y-14041778D02*
X13508582Y-14032254D01*
X13508582Y-14032254D02*
X13499058Y-14013207D01*
X13499058Y-14013207D02*
X13499058Y-13841778D01*
X13756201Y-14041778D02*
X13756201Y-13841778D01*
X13756201Y-13841778D02*
X13822868Y-13984635D01*
X13822868Y-13984635D02*
X13889534Y-13841778D01*
X13889534Y-13841778D02*
X13889534Y-14041778D01*
X14070487Y-14041778D02*
X14070487Y-13937016D01*
X14070487Y-13937016D02*
X14060963Y-13917969D01*
X14060963Y-13917969D02*
X14041915Y-13908445D01*
X14041915Y-13908445D02*
X14003820Y-13908445D01*
X14003820Y-13908445D02*
X13984772Y-13917969D01*
X14070487Y-14032254D02*
X14051439Y-14041778D01*
X14051439Y-14041778D02*
X14003820Y-14041778D01*
X14003820Y-14041778D02*
X13984772Y-14032254D01*
X13984772Y-14032254D02*
X13975249Y-14013207D01*
X13975249Y-14013207D02*
X13975249Y-13994159D01*
X13975249Y-13994159D02*
X13984772Y-13975111D01*
X13984772Y-13975111D02*
X14003820Y-13965588D01*
X14003820Y-13965588D02*
X14051439Y-13965588D01*
X14051439Y-13965588D02*
X14070487Y-13956064D01*
X14165725Y-13908445D02*
X14165725Y-14108445D01*
X14165725Y-13917969D02*
X14184772Y-13908445D01*
X14184772Y-13908445D02*
X14222868Y-13908445D01*
X14222868Y-13908445D02*
X14241915Y-13917969D01*
X14241915Y-13917969D02*
X14251439Y-13927492D01*
X14251439Y-13927492D02*
X14260963Y-13946540D01*
X14260963Y-13946540D02*
X14260963Y-14003683D01*
X14260963Y-14003683D02*
X14251439Y-14022730D01*
X14251439Y-14022730D02*
X14241915Y-14032254D01*
X14241915Y-14032254D02*
X14222868Y-14041778D01*
X14222868Y-14041778D02*
X14184772Y-14041778D01*
X14184772Y-14041778D02*
X14165725Y-14032254D01*
X14346677Y-14022730D02*
X14356201Y-14032254D01*
X14356201Y-14032254D02*
X14346677Y-14041778D01*
X14346677Y-14041778D02*
X14337153Y-14032254D01*
X14337153Y-14032254D02*
X14346677Y-14022730D01*
X14346677Y-14022730D02*
X14346677Y-14041778D01*
X14346677Y-13917969D02*
X14356201Y-13927492D01*
X14356201Y-13927492D02*
X14346677Y-13937016D01*
X14346677Y-13937016D02*
X14337153Y-13927492D01*
X14337153Y-13927492D02*
X14346677Y-13917969D01*
X14346677Y-13917969D02*
X14346677Y-13937016D01*
D10*
X12694472Y-14360294D02*
X12714472Y-14380294D01*
X12714472Y-14360294D02*
X12694472Y-14380294D01*
D11*
X13013344Y-14261778D02*
X13032392Y-14261778D01*
X13032392Y-14261778D02*
X13051439Y-14271302D01*
X13051439Y-14271302D02*
X13060963Y-14280826D01*
X13060963Y-14280826D02*
X13070487Y-14299873D01*
X13070487Y-14299873D02*
X13080011Y-14337969D01*
X13080011Y-14337969D02*
X13080011Y-14385588D01*
X13080011Y-14385588D02*
X13070487Y-14423683D01*
X13070487Y-14423683D02*
X13060963Y-14442730D01*
X13060963Y-14442730D02*
X13051439Y-14452254D01*
X13051439Y-14452254D02*
X13032392Y-14461778D01*
X13032392Y-14461778D02*
X13013344Y-14461778D01*
X13013344Y-14461778D02*
X12994296Y-14452254D01*
X12994296Y-14452254D02*
X12984772Y-14442730D01*
X12984772Y-14442730D02*
X12975249Y-14423683D01*
X12975249Y-14423683D02*
X12965725Y-14385588D01*
X12965725Y-14385588D02*
X12965725Y-14337969D01*
X12965725Y-14337969D02*
X12975249Y-14299873D01*
X12975249Y-14299873D02*
X12984772Y-14280826D01*
X12984772Y-14280826D02*
X12994296Y-14271302D01*
X12994296Y-14271302D02*
X13013344Y-14261778D01*
X13165725Y-14442730D02*
X13175249Y-14452254D01*
X13175249Y-14452254D02*
X13165725Y-14461778D01*
X13165725Y-14461778D02*
X13156201Y-14452254D01*
X13156201Y-14452254D02*
X13165725Y-14442730D01*
X13165725Y-14442730D02*
X13165725Y-14461778D01*
X13251439Y-14280826D02*
X13260963Y-14271302D01*
X13260963Y-14271302D02*
X13280011Y-14261778D01*
X13280011Y-14261778D02*
X13327630Y-14261778D01*
X13327630Y-14261778D02*
X13346677Y-14271302D01*
X13346677Y-14271302D02*
X13356201Y-14280826D01*
X13356201Y-14280826D02*
X13365725Y-14299873D01*
X13365725Y-14299873D02*
X13365725Y-14318921D01*
X13365725Y-14318921D02*
X13356201Y-14347492D01*
X13356201Y-14347492D02*
X13241915Y-14461778D01*
X13241915Y-14461778D02*
X13365725Y-14461778D01*
X13489534Y-14261778D02*
X13508582Y-14261778D01*
X13508582Y-14261778D02*
X13527630Y-14271302D01*
X13527630Y-14271302D02*
X13537153Y-14280826D01*
X13537153Y-14280826D02*
X13546677Y-14299873D01*
X13546677Y-14299873D02*
X13556201Y-14337969D01*
X13556201Y-14337969D02*
X13556201Y-14385588D01*
X13556201Y-14385588D02*
X13546677Y-14423683D01*
X13546677Y-14423683D02*
X13537153Y-14442730D01*
X13537153Y-14442730D02*
X13527630Y-14452254D01*
X13527630Y-14452254D02*
X13508582Y-14461778D01*
X13508582Y-14461778D02*
X13489534Y-14461778D01*
X13489534Y-14461778D02*
X13470487Y-14452254D01*
X13470487Y-14452254D02*
X13460963Y-14442730D01*
X13460963Y-14442730D02*
X13451439Y-14423683D01*
X13451439Y-14423683D02*
X13441915Y-14385588D01*
X13441915Y-14385588D02*
X13441915Y-14337969D01*
X13441915Y-14337969D02*
X13451439Y-14299873D01*
X13451439Y-14299873D02*
X13460963Y-14280826D01*
X13460963Y-14280826D02*
X13470487Y-14271302D01*
X13470487Y-14271302D02*
X13489534Y-14261778D01*
X13680011Y-14261778D02*
X13699058Y-14261778D01*
X13699058Y-14261778D02*
X13718106Y-14271302D01*
X13718106Y-14271302D02*
X13727630Y-14280826D01*
X13727630Y-14280826D02*
X13737153Y-14299873D01*
X13737153Y-14299873D02*
X13746677Y-14337969D01*
X13746677Y-14337969D02*
X13746677Y-14385588D01*
X13746677Y-14385588D02*
X13737153Y-14423683D01*
X13737153Y-14423683D02*
X13727630Y-14442730D01*
X13727630Y-14442730D02*
X13718106Y-14452254D01*
X13718106Y-14452254D02*
X13699058Y-14461778D01*
X13699058Y-14461778D02*
X13680011Y-14461778D01*
X13680011Y-14461778D02*
X13660963Y-14452254D01*
X13660963Y-14452254D02*
X13651439Y-14442730D01*
X13651439Y-14442730D02*
X13641915Y-14423683D01*
X13641915Y-14423683D02*
X13632392Y-14385588D01*
X13632392Y-14385588D02*
X13632392Y-14337969D01*
X13632392Y-14337969D02*
X13641915Y-14299873D01*
X13641915Y-14299873D02*
X13651439Y-14280826D01*
X13651439Y-14280826D02*
X13660963Y-14271302D01*
X13660963Y-14271302D02*
X13680011Y-14261778D01*
X13832392Y-14461778D02*
X13832392Y-14328445D01*
X13832392Y-14347492D02*
X13841915Y-14337969D01*
X13841915Y-14337969D02*
X13860963Y-14328445D01*
X13860963Y-14328445D02*
X13889534Y-14328445D01*
X13889534Y-14328445D02*
X13908582Y-14337969D01*
X13908582Y-14337969D02*
X13918106Y-14357016D01*
X13918106Y-14357016D02*
X13918106Y-14461778D01*
X13918106Y-14357016D02*
X13927630Y-14337969D01*
X13927630Y-14337969D02*
X13946677Y-14328445D01*
X13946677Y-14328445D02*
X13975249Y-14328445D01*
X13975249Y-14328445D02*
X13994296Y-14337969D01*
X13994296Y-14337969D02*
X14003820Y-14357016D01*
X14003820Y-14357016D02*
X14003820Y-14461778D01*
X14099058Y-14461778D02*
X14099058Y-14328445D01*
X14099058Y-14347492D02*
X14108582Y-14337969D01*
X14108582Y-14337969D02*
X14127630Y-14328445D01*
X14127630Y-14328445D02*
X14156201Y-14328445D01*
X14156201Y-14328445D02*
X14175249Y-14337969D01*
X14175249Y-14337969D02*
X14184773Y-14357016D01*
X14184773Y-14357016D02*
X14184773Y-14461778D01*
X14184773Y-14357016D02*
X14194296Y-14337969D01*
X14194296Y-14337969D02*
X14213344Y-14328445D01*
X14213344Y-14328445D02*
X14241915Y-14328445D01*
X14241915Y-14328445D02*
X14260963Y-14337969D01*
X14260963Y-14337969D02*
X14270487Y-14357016D01*
X14270487Y-14357016D02*
X14270487Y-14461778D01*
X14660963Y-14252254D02*
X14489535Y-14509397D01*
X14918106Y-14261778D02*
X14937154Y-14261778D01*
X14937154Y-14261778D02*
X14956201Y-14271302D01*
X14956201Y-14271302D02*
X14965725Y-14280826D01*
X14965725Y-14280826D02*
X14975249Y-14299873D01*
X14975249Y-14299873D02*
X14984773Y-14337969D01*
X14984773Y-14337969D02*
X14984773Y-14385588D01*
X14984773Y-14385588D02*
X14975249Y-14423683D01*
X14975249Y-14423683D02*
X14965725Y-14442730D01*
X14965725Y-14442730D02*
X14956201Y-14452254D01*
X14956201Y-14452254D02*
X14937154Y-14461778D01*
X14937154Y-14461778D02*
X14918106Y-14461778D01*
X14918106Y-14461778D02*
X14899058Y-14452254D01*
X14899058Y-14452254D02*
X14889535Y-14442730D01*
X14889535Y-14442730D02*
X14880011Y-14423683D01*
X14880011Y-14423683D02*
X14870487Y-14385588D01*
X14870487Y-14385588D02*
X14870487Y-14337969D01*
X14870487Y-14337969D02*
X14880011Y-14299873D01*
X14880011Y-14299873D02*
X14889535Y-14280826D01*
X14889535Y-14280826D02*
X14899058Y-14271302D01*
X14899058Y-14271302D02*
X14918106Y-14261778D01*
X15070487Y-14442730D02*
X15080011Y-14452254D01*
X15080011Y-14452254D02*
X15070487Y-14461778D01*
X15070487Y-14461778D02*
X15060963Y-14452254D01*
X15060963Y-14452254D02*
X15070487Y-14442730D01*
X15070487Y-14442730D02*
X15070487Y-14461778D01*
X15203820Y-14261778D02*
X15222868Y-14261778D01*
X15222868Y-14261778D02*
X15241916Y-14271302D01*
X15241916Y-14271302D02*
X15251439Y-14280826D01*
X15251439Y-14280826D02*
X15260963Y-14299873D01*
X15260963Y-14299873D02*
X15270487Y-14337969D01*
X15270487Y-14337969D02*
X15270487Y-14385588D01*
X15270487Y-14385588D02*
X15260963Y-14423683D01*
X15260963Y-14423683D02*
X15251439Y-14442730D01*
X15251439Y-14442730D02*
X15241916Y-14452254D01*
X15241916Y-14452254D02*
X15222868Y-14461778D01*
X15222868Y-14461778D02*
X15203820Y-14461778D01*
X15203820Y-14461778D02*
X15184773Y-14452254D01*
X15184773Y-14452254D02*
X15175249Y-14442730D01*
X15175249Y-14442730D02*
X15165725Y-14423683D01*
X15165725Y-14423683D02*
X15156201Y-14385588D01*
X15156201Y-14385588D02*
X15156201Y-14337969D01*
X15156201Y-14337969D02*
X15165725Y-14299873D01*
X15165725Y-14299873D02*
X15175249Y-14280826D01*
X15175249Y-14280826D02*
X15184773Y-14271302D01*
X15184773Y-14271302D02*
X15203820Y-14261778D01*
X15394296Y-14261778D02*
X15413344Y-14261778D01*
X15413344Y-14261778D02*
X15432392Y-14271302D01*
X15432392Y-14271302D02*
X15441916Y-14280826D01*
X15441916Y-14280826D02*
X15451439Y-14299873D01*
X15451439Y-14299873D02*
X15460963Y-14337969D01*
X15460963Y-14337969D02*
X15460963Y-14385588D01*
X15460963Y-14385588D02*
X15451439Y-14423683D01*
X15451439Y-14423683D02*
X15441916Y-14442730D01*
X15441916Y-14442730D02*
X15432392Y-14452254D01*
X15432392Y-14452254D02*
X15413344Y-14461778D01*
X15413344Y-14461778D02*
X15394296Y-14461778D01*
X15394296Y-14461778D02*
X15375249Y-14452254D01*
X15375249Y-14452254D02*
X15365725Y-14442730D01*
X15365725Y-14442730D02*
X15356201Y-14423683D01*
X15356201Y-14423683D02*
X15346677Y-14385588D01*
X15346677Y-14385588D02*
X15346677Y-14337969D01*
X15346677Y-14337969D02*
X15356201Y-14299873D01*
X15356201Y-14299873D02*
X15365725Y-14280826D01*
X15365725Y-14280826D02*
X15375249Y-14271302D01*
X15375249Y-14271302D02*
X15394296Y-14261778D01*
X15527630Y-14261778D02*
X15660963Y-14261778D01*
X15660963Y-14261778D02*
X15575249Y-14461778D01*
X15746677Y-14461778D02*
X15784773Y-14461778D01*
X15784773Y-14461778D02*
X15803820Y-14452254D01*
X15803820Y-14452254D02*
X15813344Y-14442730D01*
X15813344Y-14442730D02*
X15832392Y-14414159D01*
X15832392Y-14414159D02*
X15841916Y-14376064D01*
X15841916Y-14376064D02*
X15841916Y-14299873D01*
X15841916Y-14299873D02*
X15832392Y-14280826D01*
X15832392Y-14280826D02*
X15822868Y-14271302D01*
X15822868Y-14271302D02*
X15803820Y-14261778D01*
X15803820Y-14261778D02*
X15765725Y-14261778D01*
X15765725Y-14261778D02*
X15746677Y-14271302D01*
X15746677Y-14271302D02*
X15737154Y-14280826D01*
X15737154Y-14280826D02*
X15727630Y-14299873D01*
X15727630Y-14299873D02*
X15727630Y-14347492D01*
X15727630Y-14347492D02*
X15737154Y-14366540D01*
X15737154Y-14366540D02*
X15746677Y-14376064D01*
X15746677Y-14376064D02*
X15765725Y-14385588D01*
X15765725Y-14385588D02*
X15803820Y-14385588D01*
X15803820Y-14385588D02*
X15822868Y-14376064D01*
X15822868Y-14376064D02*
X15832392Y-14366540D01*
X15832392Y-14366540D02*
X15841916Y-14347492D01*
X15918106Y-14261778D02*
X15918106Y-14299873D01*
X15994297Y-14261778D02*
X15994297Y-14299873D01*
X16289535Y-14537969D02*
X16280011Y-14528445D01*
X16280011Y-14528445D02*
X16260963Y-14499873D01*
X16260963Y-14499873D02*
X16251439Y-14480826D01*
X16251439Y-14480826D02*
X16241916Y-14452254D01*
X16241916Y-14452254D02*
X16232392Y-14404635D01*
X16232392Y-14404635D02*
X16232392Y-14366540D01*
X16232392Y-14366540D02*
X16241916Y-14318921D01*
X16241916Y-14318921D02*
X16251439Y-14290350D01*
X16251439Y-14290350D02*
X16260963Y-14271302D01*
X16260963Y-14271302D02*
X16280011Y-14242730D01*
X16280011Y-14242730D02*
X16289535Y-14233207D01*
X16470487Y-14461778D02*
X16356201Y-14461778D01*
X16413344Y-14461778D02*
X16413344Y-14261778D01*
X16413344Y-14261778D02*
X16394297Y-14290350D01*
X16394297Y-14290350D02*
X16375249Y-14309397D01*
X16375249Y-14309397D02*
X16356201Y-14318921D01*
X16594297Y-14261778D02*
X16613344Y-14261778D01*
X16613344Y-14261778D02*
X16632392Y-14271302D01*
X16632392Y-14271302D02*
X16641916Y-14280826D01*
X16641916Y-14280826D02*
X16651439Y-14299873D01*
X16651439Y-14299873D02*
X16660963Y-14337969D01*
X16660963Y-14337969D02*
X16660963Y-14385588D01*
X16660963Y-14385588D02*
X16651439Y-14423683D01*
X16651439Y-14423683D02*
X16641916Y-14442730D01*
X16641916Y-14442730D02*
X16632392Y-14452254D01*
X16632392Y-14452254D02*
X16613344Y-14461778D01*
X16613344Y-14461778D02*
X16594297Y-14461778D01*
X16594297Y-14461778D02*
X16575249Y-14452254D01*
X16575249Y-14452254D02*
X16565725Y-14442730D01*
X16565725Y-14442730D02*
X16556201Y-14423683D01*
X16556201Y-14423683D02*
X16546678Y-14385588D01*
X16546678Y-14385588D02*
X16546678Y-14337969D01*
X16546678Y-14337969D02*
X16556201Y-14299873D01*
X16556201Y-14299873D02*
X16565725Y-14280826D01*
X16565725Y-14280826D02*
X16575249Y-14271302D01*
X16575249Y-14271302D02*
X16594297Y-14261778D01*
X16899059Y-14461778D02*
X16899059Y-14261778D01*
X16984773Y-14461778D02*
X16984773Y-14357016D01*
X16984773Y-14357016D02*
X16975249Y-14337969D01*
X16975249Y-14337969D02*
X16956202Y-14328445D01*
X16956202Y-14328445D02*
X16927630Y-14328445D01*
X16927630Y-14328445D02*
X16908582Y-14337969D01*
X16908582Y-14337969D02*
X16899059Y-14347492D01*
X17108582Y-14461778D02*
X17089535Y-14452254D01*
X17089535Y-14452254D02*
X17080011Y-14442730D01*
X17080011Y-14442730D02*
X17070487Y-14423683D01*
X17070487Y-14423683D02*
X17070487Y-14366540D01*
X17070487Y-14366540D02*
X17080011Y-14347492D01*
X17080011Y-14347492D02*
X17089535Y-14337969D01*
X17089535Y-14337969D02*
X17108582Y-14328445D01*
X17108582Y-14328445D02*
X17137154Y-14328445D01*
X17137154Y-14328445D02*
X17156202Y-14337969D01*
X17156202Y-14337969D02*
X17165725Y-14347492D01*
X17165725Y-14347492D02*
X17175249Y-14366540D01*
X17175249Y-14366540D02*
X17175249Y-14423683D01*
X17175249Y-14423683D02*
X17165725Y-14442730D01*
X17165725Y-14442730D02*
X17156202Y-14452254D01*
X17156202Y-14452254D02*
X17137154Y-14461778D01*
X17137154Y-14461778D02*
X17108582Y-14461778D01*
X17289535Y-14461778D02*
X17270487Y-14452254D01*
X17270487Y-14452254D02*
X17260963Y-14433207D01*
X17260963Y-14433207D02*
X17260963Y-14261778D01*
X17441916Y-14452254D02*
X17422868Y-14461778D01*
X17422868Y-14461778D02*
X17384773Y-14461778D01*
X17384773Y-14461778D02*
X17365725Y-14452254D01*
X17365725Y-14452254D02*
X17356202Y-14433207D01*
X17356202Y-14433207D02*
X17356202Y-14357016D01*
X17356202Y-14357016D02*
X17365725Y-14337969D01*
X17365725Y-14337969D02*
X17384773Y-14328445D01*
X17384773Y-14328445D02*
X17422868Y-14328445D01*
X17422868Y-14328445D02*
X17441916Y-14337969D01*
X17441916Y-14337969D02*
X17451440Y-14357016D01*
X17451440Y-14357016D02*
X17451440Y-14376064D01*
X17451440Y-14376064D02*
X17356202Y-14395111D01*
X17527630Y-14452254D02*
X17546678Y-14461778D01*
X17546678Y-14461778D02*
X17584773Y-14461778D01*
X17584773Y-14461778D02*
X17603821Y-14452254D01*
X17603821Y-14452254D02*
X17613344Y-14433207D01*
X17613344Y-14433207D02*
X17613344Y-14423683D01*
X17613344Y-14423683D02*
X17603821Y-14404635D01*
X17603821Y-14404635D02*
X17584773Y-14395111D01*
X17584773Y-14395111D02*
X17556202Y-14395111D01*
X17556202Y-14395111D02*
X17537154Y-14385588D01*
X17537154Y-14385588D02*
X17527630Y-14366540D01*
X17527630Y-14366540D02*
X17527630Y-14357016D01*
X17527630Y-14357016D02*
X17537154Y-14337969D01*
X17537154Y-14337969D02*
X17556202Y-14328445D01*
X17556202Y-14328445D02*
X17584773Y-14328445D01*
X17584773Y-14328445D02*
X17603821Y-14337969D01*
X17680011Y-14537969D02*
X17689535Y-14528445D01*
X17689535Y-14528445D02*
X17708583Y-14499873D01*
X17708583Y-14499873D02*
X17718106Y-14480826D01*
X17718106Y-14480826D02*
X17727630Y-14452254D01*
X17727630Y-14452254D02*
X17737154Y-14404635D01*
X17737154Y-14404635D02*
X17737154Y-14366540D01*
X17737154Y-14366540D02*
X17727630Y-14318921D01*
X17727630Y-14318921D02*
X17718106Y-14290350D01*
X17718106Y-14290350D02*
X17708583Y-14271302D01*
X17708583Y-14271302D02*
X17689535Y-14242730D01*
X17689535Y-14242730D02*
X17680011Y-14233207D01*
M02*
